<?xml version="1.0" encoding="utf-8"?>
<svg xmlns="http://www.w3.org/2000/svg" xmlns:xlink="http://www.w3.org/1999/xlink" width="300" height="280" viewBox="0 0 1200 1120">
<defs>
  <clipPath id="clip440">
    <rect x="0" y="0" width="1200" height="1120"/>
  </clipPath>
</defs>
<path clip-path="url(#clip440)" d="M0 1120 L1200 1120 L1200 0 L0 0  Z" fill="#ffffff" fill-rule="evenodd" fill-opacity="1"/>
<defs>
  <clipPath id="clip441">
    <rect x="240" y="40" width="841" height="841"/>
  </clipPath>
</defs>
<path clip-path="url(#clip440)" d="M243.237 913.372 L1152.76 913.372 L1152.76 47.2441 L243.237 47.2441  Z" fill="#ffffff" fill-rule="evenodd" fill-opacity="1"/>
<defs>
  <clipPath id="clip442">
    <rect x="243" y="47" width="911" height="867"/>
  </clipPath>
</defs>
<polyline clip-path="url(#clip442)" style="stroke:#808080; stroke-linecap:round; stroke-linejoin:round; stroke-width:4; stroke-opacity:0.1; fill:none" points="243.237,913.372 243.237,47.2441 "/>
<polyline clip-path="url(#clip442)" style="stroke:#808080; stroke-linecap:round; stroke-linejoin:round; stroke-width:4; stroke-opacity:0.1; fill:none" points="425.141,913.372 425.141,47.2441 "/>
<polyline clip-path="url(#clip442)" style="stroke:#808080; stroke-linecap:round; stroke-linejoin:round; stroke-width:4; stroke-opacity:0.1; fill:none" points="607.044,913.372 607.044,47.2441 "/>
<polyline clip-path="url(#clip442)" style="stroke:#808080; stroke-linecap:round; stroke-linejoin:round; stroke-width:4; stroke-opacity:0.1; fill:none" points="788.948,913.372 788.948,47.2441 "/>
<polyline clip-path="url(#clip442)" style="stroke:#808080; stroke-linecap:round; stroke-linejoin:round; stroke-width:4; stroke-opacity:0.1; fill:none" points="970.852,913.372 970.852,47.2441 "/>
<polyline clip-path="url(#clip442)" style="stroke:#808080; stroke-linecap:round; stroke-linejoin:round; stroke-width:4; stroke-opacity:0.1; fill:none" points="1152.76,913.372 1152.76,47.2441 "/>
<polyline clip-path="url(#clip440)" style="stroke:#000000; stroke-linecap:round; stroke-linejoin:round; stroke-width:4; stroke-opacity:1; fill:none" points="243.237,913.372 1152.76,913.372 "/>
<polyline clip-path="url(#clip440)" style="stroke:#000000; stroke-linecap:round; stroke-linejoin:round; stroke-width:4; stroke-opacity:1; fill:none" points="243.237,47.2441 1152.76,47.2441 "/>
<polyline clip-path="url(#clip440)" style="stroke:#000000; stroke-linecap:round; stroke-linejoin:round; stroke-width:4; stroke-opacity:1; fill:none" points="243.237,913.372 243.237,894.474 "/>
<polyline clip-path="url(#clip440)" style="stroke:#000000; stroke-linecap:round; stroke-linejoin:round; stroke-width:4; stroke-opacity:1; fill:none" points="425.141,913.372 425.141,894.474 "/>
<polyline clip-path="url(#clip440)" style="stroke:#000000; stroke-linecap:round; stroke-linejoin:round; stroke-width:4; stroke-opacity:1; fill:none" points="607.044,913.372 607.044,894.474 "/>
<polyline clip-path="url(#clip440)" style="stroke:#000000; stroke-linecap:round; stroke-linejoin:round; stroke-width:4; stroke-opacity:1; fill:none" points="788.948,913.372 788.948,894.474 "/>
<polyline clip-path="url(#clip440)" style="stroke:#000000; stroke-linecap:round; stroke-linejoin:round; stroke-width:4; stroke-opacity:1; fill:none" points="970.852,913.372 970.852,894.474 "/>
<polyline clip-path="url(#clip440)" style="stroke:#000000; stroke-linecap:round; stroke-linejoin:round; stroke-width:4; stroke-opacity:1; fill:none" points="1152.76,913.372 1152.76,894.474 "/>
<g clip-path="url(#clip440)">
<text style="fill:#000000; fill-opacity:1; font-family:Book Antiqua,Palatino,Palatino Linotype,Palatino LT STD,Georgia,serif; font-size:51px; font-weight:bold; text-anchor:middle;" transform="rotate(0, 243.237, 967.343)" x="243.237" y="967.343">0</text>
</g>
<g clip-path="url(#clip440)">
<text style="fill:#000000; fill-opacity:1; font-family:Book Antiqua,Palatino,Palatino Linotype,Palatino LT STD,Georgia,serif; font-size:51px; font-weight:bold; text-anchor:middle;" transform="rotate(0, 425.141, 967.343)" x="425.141" y="967.343">5</text>
</g>
<g clip-path="url(#clip440)">
<text style="fill:#000000; fill-opacity:1; font-family:Book Antiqua,Palatino,Palatino Linotype,Palatino LT STD,Georgia,serif; font-size:51px; font-weight:bold; text-anchor:middle;" transform="rotate(0, 607.044, 967.343)" x="607.044" y="967.343">10</text>
</g>
<g clip-path="url(#clip440)">
<text style="fill:#000000; fill-opacity:1; font-family:Book Antiqua,Palatino,Palatino Linotype,Palatino LT STD,Georgia,serif; font-size:51px; font-weight:bold; text-anchor:middle;" transform="rotate(0, 788.948, 967.343)" x="788.948" y="967.343">15</text>
</g>
<g clip-path="url(#clip440)">
<text style="fill:#000000; fill-opacity:1; font-family:Book Antiqua,Palatino,Palatino Linotype,Palatino LT STD,Georgia,serif; font-size:51px; font-weight:bold; text-anchor:middle;" transform="rotate(0, 970.852, 967.343)" x="970.852" y="967.343">20</text>
</g>
<g clip-path="url(#clip440)">
<text style="fill:#000000; fill-opacity:1; font-family:Book Antiqua,Palatino,Palatino Linotype,Palatino LT STD,Georgia,serif; font-size:51px; font-weight:bold; text-anchor:middle;" transform="rotate(0, 1152.76, 967.343)" x="1152.76" y="967.343">25</text>
</g>
<path clip-path="url(#clip440)" d="M674.824 1002.26 Q674.824 1003.16 674.405 1003.39 Q673.987 1003.58 672.827 1003.58 L666.644 1003.58 L661.748 1023.03 Q661.362 1024.74 661.362 1026.19 Q661.362 1027.8 661.845 1028.51 Q662.36 1029.22 663.423 1029.22 Q665.517 1029.22 667.771 1027.32 Q670.058 1025.42 671.99 1020.78 Q672.248 1020.17 672.376 1020.04 Q672.537 1019.88 672.956 1019.88 Q673.761 1019.88 673.761 1020.52 Q673.761 1020.75 673.31 1021.78 Q672.892 1022.81 671.958 1024.32 Q671.056 1025.84 669.864 1027.25 Q668.705 1028.67 666.934 1029.7 Q665.162 1030.7 663.262 1030.7 Q660.589 1030.7 658.882 1028.99 Q657.207 1027.29 657.207 1024.61 Q657.207 1023.74 657.884 1020.97 Q658.56 1018.17 662.232 1003.58 L656.402 1003.58 Q655.597 1003.58 655.275 1003.55 Q654.985 1003.52 654.76 1003.36 Q654.567 1003.16 654.567 1002.78 Q654.567 1002.17 654.824 1001.91 Q655.082 1001.62 655.404 1001.59 Q655.758 1001.52 656.563 1001.52 L662.747 1001.52 L665.323 991.054 Q665.581 990.023 666.225 989.444 Q666.901 988.832 667.288 988.767 Q667.674 988.671 667.964 988.671 Q668.834 988.671 669.349 989.154 Q669.864 989.605 669.864 990.442 Q669.864 990.893 667.159 1001.52 L672.956 1001.52 Q673.697 1001.52 673.987 1001.55 Q674.309 1001.59 674.566 1001.75 Q674.824 1001.91 674.824 1002.26 Z" fill="#000000" fill-rule="nonzero" fill-opacity="1" /><path clip-path="url(#clip440)" d="M678.14 1045.51 Q678.14 1045.19 678.397 1044.48 L701.682 982.262 Q701.682 982.197 701.843 981.843 Q702.004 981.489 702.101 981.263 Q702.197 981.006 702.391 980.813 Q702.616 980.619 702.874 980.619 Q703.518 980.619 703.518 981.425 Q703.518 981.489 703.325 982.262 L679.975 1044.55 Q679.589 1045.68 679.331 1046 Q679.106 1046.32 678.719 1046.32 Q678.14 1046.32 678.14 1045.51 Z" fill="#000000" fill-rule="nonzero" fill-opacity="1" /><path clip-path="url(#clip440)" d="M735.087 1006.48 Q735.087 1008.28 734.185 1009.25 Q733.283 1010.18 732.059 1010.18 Q731.061 1010.18 730.514 1009.6 Q729.998 1009.02 729.998 1008.25 Q729.998 1007.12 730.9 1006.22 Q731.834 1005.32 733.187 1005.29 Q732.736 1004.1 731.544 1003.39 Q730.353 1002.65 729.29 1002.45 Q728.259 1002.26 727.229 1002.26 Q725.2 1002.26 723.654 1002.91 Q722.108 1003.55 721.335 1004.55 Q720.562 1005.51 720.208 1006.45 Q719.853 1007.38 719.853 1008.19 Q719.853 1008.9 720.014 1009.48 Q720.208 1010.02 720.659 1010.44 Q721.109 1010.83 721.432 1011.09 Q721.786 1011.34 722.559 1011.57 Q723.332 1011.79 723.654 1011.89 Q723.976 1011.96 724.878 1012.15 Q726.745 1012.54 727.583 1012.76 Q728.42 1012.95 729.515 1013.5 Q730.642 1014.05 731.48 1014.92 Q733.509 1016.95 733.509 1019.75 Q733.509 1020.78 733.154 1022.04 Q732.832 1023.29 731.898 1024.87 Q730.964 1026.45 729.547 1027.7 Q728.13 1028.96 725.683 1029.83 Q723.267 1030.7 720.24 1030.7 Q716.021 1030.7 713.412 1028.93 Q710.804 1027.12 710.804 1024.29 Q710.804 1022.23 711.931 1021.1 Q713.058 1019.94 714.507 1019.94 Q715.602 1019.94 716.279 1020.55 Q716.955 1021.13 716.955 1022.23 Q716.955 1023.71 715.763 1024.84 Q714.572 1025.97 712.8 1025.74 Q714.314 1029.22 720.304 1029.22 Q722.559 1029.22 724.298 1028.64 Q726.069 1028.03 727.035 1027.19 Q728.034 1026.32 728.678 1025.26 Q729.322 1024.19 729.515 1023.39 Q729.741 1022.58 729.741 1021.97 Q729.741 1020.91 729.322 1020.1 Q728.903 1019.3 728.324 1018.85 Q727.776 1018.36 726.713 1017.98 Q725.683 1017.56 724.942 1017.4 Q724.201 1017.24 722.881 1016.98 Q722.269 1016.85 721.882 1016.79 Q721.496 1016.69 720.691 1016.43 Q719.918 1016.14 719.37 1015.85 Q718.855 1015.56 718.179 1015.05 Q717.502 1014.53 717.084 1013.92 Q716.665 1013.31 716.375 1012.41 Q716.085 1011.5 716.085 1010.44 Q716.085 1009.48 716.375 1008.32 Q716.697 1007.16 717.502 1005.8 Q718.34 1004.45 719.531 1003.36 Q720.723 1002.26 722.72 1001.55 Q724.749 1000.81 727.229 1000.81 Q730.836 1000.81 732.961 1002.49 Q735.087 1004.13 735.087 1006.48 Z" fill="#000000" fill-rule="nonzero" fill-opacity="1" /><polyline clip-path="url(#clip442)" style="stroke:#808080; stroke-linecap:round; stroke-linejoin:round; stroke-width:4; stroke-opacity:0.1; fill:none" points="243.237,913.372 1152.76,913.372 "/>
<polyline clip-path="url(#clip442)" style="stroke:#808080; stroke-linecap:round; stroke-linejoin:round; stroke-width:4; stroke-opacity:0.1; fill:none" points="243.237,624.662 1152.76,624.662 "/>
<polyline clip-path="url(#clip442)" style="stroke:#808080; stroke-linecap:round; stroke-linejoin:round; stroke-width:4; stroke-opacity:0.1; fill:none" points="243.237,335.953 1152.76,335.953 "/>
<polyline clip-path="url(#clip442)" style="stroke:#808080; stroke-linecap:round; stroke-linejoin:round; stroke-width:4; stroke-opacity:0.1; fill:none" points="243.237,47.2441 1152.76,47.2441 "/>
<polyline clip-path="url(#clip440)" style="stroke:#000000; stroke-linecap:round; stroke-linejoin:round; stroke-width:4; stroke-opacity:1; fill:none" points="243.237,913.372 243.237,47.2441 "/>
<polyline clip-path="url(#clip440)" style="stroke:#000000; stroke-linecap:round; stroke-linejoin:round; stroke-width:4; stroke-opacity:1; fill:none" points="1152.76,913.372 1152.76,47.2441 "/>
<polyline clip-path="url(#clip440)" style="stroke:#000000; stroke-linecap:round; stroke-linejoin:round; stroke-width:4; stroke-opacity:1; fill:none" points="243.237,913.372 262.134,913.372 "/>
<polyline clip-path="url(#clip440)" style="stroke:#000000; stroke-linecap:round; stroke-linejoin:round; stroke-width:4; stroke-opacity:1; fill:none" points="243.237,624.662 262.134,624.662 "/>
<polyline clip-path="url(#clip440)" style="stroke:#000000; stroke-linecap:round; stroke-linejoin:round; stroke-width:4; stroke-opacity:1; fill:none" points="243.237,335.953 262.134,335.953 "/>
<polyline clip-path="url(#clip440)" style="stroke:#000000; stroke-linecap:round; stroke-linejoin:round; stroke-width:4; stroke-opacity:1; fill:none" points="243.237,47.2441 262.134,47.2441 "/>
<g clip-path="url(#clip440)">
<text style="fill:#000000; fill-opacity:1; font-family:Book Antiqua,Palatino,Palatino Linotype,Palatino LT STD,Georgia,serif; font-size:51px; font-weight:bold; text-anchor:middle;" transform="rotate(0, 182.252, 930.872)" x="182.252" y="930.872">−1.0</text>
</g>
<g clip-path="url(#clip440)">
<text style="fill:#000000; fill-opacity:1; font-family:Book Antiqua,Palatino,Palatino Linotype,Palatino LT STD,Georgia,serif; font-size:51px; font-weight:bold; text-anchor:middle;" transform="rotate(0, 182.252, 642.162)" x="182.252" y="642.162">−0.5</text>
</g>
<g clip-path="url(#clip440)">
<text style="fill:#000000; fill-opacity:1; font-family:Book Antiqua,Palatino,Palatino Linotype,Palatino LT STD,Georgia,serif; font-size:51px; font-weight:bold; text-anchor:middle;" transform="rotate(0, 193.519, 353.453)" x="193.519" y="353.453">0.0</text>
</g>
<g clip-path="url(#clip440)">
<text style="fill:#000000; fill-opacity:1; font-family:Book Antiqua,Palatino,Palatino Linotype,Palatino LT STD,Georgia,serif; font-size:51px; font-weight:bold; text-anchor:middle;" transform="rotate(0, 193.519, 64.7441)" x="193.519" y="64.7441">0.5</text>
</g>
<path clip-path="url(#clip440)" d="M109.088 705.079 L107.059 705.079 L107.059 703.5 Q107.059 699.926 106.48 699.12 Q105.868 698.283 103.935 698.283 L69.1851 698.283 Q67.285 698.283 66.7053 699.12 Q66.0934 699.958 66.0934 703.5 L66.0934 705.079 L64.0322 705.079 L64.0322 684.37 Q64.0322 677.188 67.5748 672.196 Q71.0853 667.172 75.9162 667.172 Q79.6198 667.172 82.5184 670.425 Q85.4169 673.678 86.6729 678.702 Q88.9273 672.164 94.3057 670.65 L99.5875 669.813 Q101.488 669.555 102.454 669.394 Q103.42 669.201 104.74 668.911 Q106.061 668.621 106.705 668.332 Q107.317 668.01 107.993 667.559 Q108.637 667.108 108.863 666.528 Q109.088 665.916 109.088 665.111 Q109.088 663.597 107.736 662.309 Q106.383 661.021 103.227 660.763 Q102.164 660.634 102.164 659.958 Q102.164 659.121 103.227 659.121 Q104.161 659.121 105.256 659.378 Q106.318 659.636 107.575 660.28 Q108.831 660.892 109.668 662.245 Q110.537 663.597 110.537 665.369 Q110.537 670.522 107.768 673.678 Q106.576 674.998 105.03 675.61 Q103.484 676.19 102.261 676.286 Q101.037 676.383 98.3314 676.383 Q94.4989 676.383 92.8242 676.802 Q91.1495 677.188 89.507 678.895 Q87.2526 681.214 87.2526 685.046 L87.2526 692.615 L103.935 692.615 Q105.835 692.615 106.447 691.81 Q107.059 690.972 107.059 687.397 L107.059 685.819 L109.088 685.819 Q108.895 688.203 108.895 695.449 Q108.895 702.695 109.088 705.079 M85.8034 692.615 L85.8034 685.304 Q85.8034 681.794 84.966 679.443 Q84.0964 677.059 82.5506 675.932 Q81.0047 674.805 79.4588 674.386 Q77.8807 673.968 75.9162 673.968 Q73.5973 673.968 71.8582 674.483 Q70.1191 674.998 69.0885 676.125 Q68.0579 677.253 67.4138 678.38 Q66.7375 679.507 66.4798 681.246 Q66.2222 682.985 66.1578 684.177 Q66.0934 685.369 66.0934 687.269 Q66.0934 690.489 66.2222 691.166 Q66.2866 691.906 66.6409 692.196 Q66.9951 692.486 67.4138 692.55 Q67.8003 692.615 68.7342 692.615 L85.8034 692.615 Z" fill="#000000" fill-rule="nonzero" fill-opacity="1" /><path clip-path="url(#clip440)" d="M86.7373 658.709 Q76.6569 658.709 69.636 652.268 Q62.5829 645.794 62.5829 636.809 Q62.5829 627.759 69.636 621.318 Q76.6891 614.845 86.7373 614.845 Q96.6889 614.845 103.613 621.318 Q110.537 627.791 110.537 636.809 Q110.537 645.698 103.645 652.203 Q96.7533 658.709 86.7373 658.709 M85.8034 651.914 Q91.9225 651.914 96.6245 650.464 Q101.294 649.015 103.839 646.696 Q106.383 644.345 107.607 641.833 Q108.831 639.321 108.831 636.745 Q108.831 634.233 107.639 631.785 Q106.447 629.305 103.935 626.954 Q101.423 624.603 96.7211 623.121 Q92.0191 621.64 85.8034 621.64 Q80.9725 621.64 77.1078 622.671 Q73.2109 623.701 70.8598 625.311 Q68.5088 626.922 66.9629 629.015 Q65.417 631.076 64.8373 633.041 Q64.2254 634.973 64.2254 636.809 Q64.2254 639.128 65.256 641.543 Q66.2866 643.959 68.5732 646.406 Q70.8276 648.822 75.3042 650.368 Q79.7486 651.914 85.8034 651.914 Z" fill="#000000" fill-rule="nonzero" fill-opacity="1" /><path clip-path="url(#clip440)" d="M86.5441 607.43 Q76.5925 607.43 69.6038 600.635 Q62.5829 593.84 62.5829 584.5 Q62.5829 581.601 63.6457 579.025 Q64.7085 576.448 65.6425 575.257 Q66.5442 574.065 68.2512 572.358 L63.3881 569.041 Q62.5829 568.526 62.5829 568.01 Q62.5829 567.463 62.905 567.366 Q63.1948 567.27 64.161 567.27 L79.8131 567.27 Q80.8759 567.27 81.1335 567.399 Q81.3911 567.527 81.3911 568.333 Q81.3911 568.977 81.1979 569.138 Q81.0047 569.267 80.2639 569.395 Q73.1464 570.394 68.8953 574.355 Q64.6441 578.284 64.6441 583.759 Q64.6441 585.337 64.9984 587.109 Q65.3526 588.848 66.7053 591.392 Q68.0579 593.904 70.3123 595.869 Q72.5345 597.801 76.7857 599.218 Q81.0047 600.635 86.6085 600.635 Q92.1479 600.635 96.3991 599.218 Q100.65 597.801 102.872 595.869 Q105.062 593.904 106.415 591.392 Q107.768 588.848 108.154 587.076 Q108.508 585.273 108.508 583.695 Q108.508 578.027 104.483 573.679 Q100.457 569.331 93.6616 568.912 Q93.3395 568.848 93.2107 568.848 Q93.0497 568.848 92.8886 568.783 Q92.7276 568.719 92.6632 568.558 Q92.5988 568.397 92.5988 568.139 Q92.5988 567.27 93.726 567.27 Q100.006 567.27 105.288 572.101 Q110.537 576.899 110.537 584.5 Q110.537 593.872 103.581 600.667 Q96.6245 607.43 86.5441 607.43 Z" fill="#000000" fill-rule="nonzero" fill-opacity="1" /><path clip-path="url(#clip440)" d="M86.7373 557.248 Q76.6569 557.248 69.636 550.807 Q62.5829 544.333 62.5829 535.348 Q62.5829 526.298 69.636 519.857 Q76.6891 513.384 86.7373 513.384 Q96.6889 513.384 103.613 519.857 Q110.537 526.33 110.537 535.348 Q110.537 544.237 103.645 550.742 Q96.7533 557.248 86.7373 557.248 M85.8034 550.453 Q91.9225 550.453 96.6245 549.003 Q101.294 547.554 103.839 545.235 Q106.383 542.884 107.607 540.372 Q108.831 537.86 108.831 535.284 Q108.831 532.772 107.639 530.324 Q106.447 527.844 103.935 525.493 Q101.423 523.142 96.7211 521.661 Q92.0191 520.179 85.8034 520.179 Q80.9725 520.179 77.1078 521.21 Q73.2109 522.24 70.8598 523.851 Q68.5088 525.461 66.9629 527.554 Q65.417 529.615 64.8373 531.58 Q64.2254 533.512 64.2254 535.348 Q64.2254 537.667 65.256 540.082 Q66.2866 542.498 68.5732 544.945 Q70.8276 547.361 75.3042 548.907 Q79.7486 550.453 85.8034 550.453 Z" fill="#000000" fill-rule="nonzero" fill-opacity="1" /><path clip-path="url(#clip440)" d="M109.088 505.969 L107.059 505.969 L107.059 504.391 Q107.059 500.817 106.48 500.011 Q105.868 499.174 103.935 499.174 L69.3784 499.174 Q67.4782 499.174 66.8985 500.011 Q66.2866 500.849 66.2866 504.391 L66.2866 505.969 L64.2254 505.969 L64.2254 469.77 L79.0723 467.934 L79.0723 469.577 Q75.3042 470.028 73.1787 470.64 Q71.0209 471.219 69.3139 472.572 Q67.607 473.925 66.9629 476.211 Q66.2866 478.466 66.2866 482.169 L66.2866 490.092 Q66.2866 492.346 66.7697 492.829 Q67.2206 493.313 68.9275 493.313 L85.6101 493.313 L85.6101 487.644 Q85.6101 483.168 83.9998 481.912 Q82.3895 480.656 77.8807 480.656 L77.8807 479.013 L95.3685 479.013 L95.3685 480.656 Q90.8275 480.656 89.2494 481.912 Q87.6391 483.168 87.6391 487.644 L87.6391 493.313 L103.871 493.313 Q105.256 493.313 105.803 493.087 Q106.318 492.862 106.705 491.477 Q107.059 490.092 107.059 487.065 L107.059 484.875 L109.088 484.875 Q108.895 487.258 108.895 495.953 Q108.895 503.651 109.088 505.969 Z" fill="#000000" fill-rule="nonzero" fill-opacity="1" /><path clip-path="url(#clip440)" d="M124.644 445.956 Q124.322 445.956 123.613 445.699 L61.3913 422.414 Q61.3269 422.414 60.9726 422.253 Q60.6184 422.092 60.3929 421.995 Q60.1353 421.898 59.942 421.705 Q59.7488 421.48 59.7488 421.222 Q59.7488 420.578 60.554 420.578 Q60.6184 420.578 61.3913 420.771 L123.677 444.12 Q124.805 444.507 125.127 444.765 Q125.449 444.99 125.449 445.376 Q125.449 445.956 124.644 445.956 Z" fill="#000000" fill-rule="nonzero" fill-opacity="1" /><path clip-path="url(#clip440)" d="M109.088 395.863 L107.059 395.863 L107.059 394.285 Q107.059 390.71 106.48 389.905 Q105.868 389.068 103.935 389.068 L69.1851 389.068 Q67.285 389.068 66.7053 389.905 Q66.0934 390.743 66.0934 394.285 L66.0934 395.863 L64.0322 395.863 Q64.2254 393.544 64.2254 386.105 Q64.2254 378.73 64.0322 376.411 L66.0934 376.411 L66.0934 377.989 Q66.0934 381.564 66.7053 382.401 Q67.285 383.206 69.1851 383.206 L84.6117 383.206 L84.6117 363.496 L69.1851 363.496 Q67.285 363.496 66.7053 364.334 Q66.0934 365.139 66.0934 368.714 L66.0934 370.292 L64.0322 370.292 Q64.2254 367.973 64.2254 360.533 Q64.2254 353.158 64.0322 350.84 L66.0934 350.84 L66.0934 352.418 Q66.0934 355.992 66.7053 356.83 Q67.285 357.635 69.1851 357.635 L103.935 357.635 Q105.835 357.635 106.447 356.798 Q107.059 355.96 107.059 352.418 L107.059 350.84 L109.088 350.84 Q108.895 353.158 108.895 360.598 Q108.895 367.973 109.088 370.292 L107.059 370.292 L107.059 368.714 Q107.059 365.139 106.48 364.334 Q105.868 363.496 103.935 363.496 L86.6729 363.496 L86.6729 383.206 L103.935 383.206 Q105.835 383.206 106.447 382.401 Q107.059 381.564 107.059 377.989 L107.059 376.411 L109.088 376.411 Q108.895 378.73 108.895 386.169 Q108.895 393.544 109.088 395.863 Z" fill="#000000" fill-rule="nonzero" fill-opacity="1" /><path clip-path="url(#clip440)" d="M108.154 342.907 Q107.703 342.907 106.963 342.295 L82.0997 323.906 L82.0997 331.41 Q82.0997 336.627 84.032 338.334 Q85.9322 340.009 91.2783 340.331 L91.2783 341.973 L80.6504 341.232 L80.6504 320.138 Q80.6504 319.397 80.6826 319.107 Q80.7148 318.817 80.9403 318.624 Q81.1335 318.431 81.52 318.431 Q81.9064 318.431 82.6472 319.01 L107.446 337.368 L107.446 329.574 Q107.446 324.099 105.159 322.263 Q102.872 320.395 96.7533 319.944 L96.7533 318.302 L109.088 319.429 L109.088 341.168 Q109.088 342.231 108.959 342.585 Q108.798 342.907 108.154 342.907 Z" fill="#000000" fill-rule="nonzero" fill-opacity="1" /><path clip-path="url(#clip440)" d="M124.644 313.911 Q124.322 313.911 123.613 313.654 L61.3913 290.369 Q61.3269 290.369 60.9726 290.208 Q60.6184 290.047 60.3929 289.95 Q60.1353 289.854 59.942 289.66 Q59.7488 289.435 59.7488 289.177 Q59.7488 288.533 60.554 288.533 Q60.6184 288.533 61.3913 288.726 L123.677 312.076 Q124.805 312.462 125.127 312.72 Q125.449 312.945 125.449 313.332 Q125.449 313.911 124.644 313.911 Z" fill="#000000" fill-rule="nonzero" fill-opacity="1" /><path clip-path="url(#clip440)" d="M108.219 281.247 L99.523 281.247 Q98.7823 281.247 98.5247 281.215 Q98.267 281.183 98.0738 280.99 Q97.8805 280.797 97.8805 280.41 Q97.8805 279.959 98.0738 279.798 Q98.267 279.605 99.0078 279.476 Q103.549 278.478 105.964 276.352 Q108.347 274.194 108.347 270.297 Q108.347 266.594 106.705 264.726 Q105.062 262.858 102.357 262.858 Q97.5263 262.858 96.3025 269.718 Q95.4973 273.679 94.982 275.322 Q94.4345 276.964 93.2429 278.413 Q90.9241 281.247 87.6391 281.247 Q84.3541 281.247 81.9386 278.768 Q79.5232 276.255 79.5232 270.716 Q79.5232 267.012 81.3911 264.5 Q80.8114 263.76 80.3284 263.373 Q79.5232 262.504 79.5232 262.053 Q79.5232 261.537 79.8775 261.441 Q80.1995 261.344 81.1335 261.344 L87.7679 261.344 Q88.5086 261.344 88.7663 261.376 Q89.0239 261.409 89.2172 261.602 Q89.3782 261.795 89.3782 262.214 Q89.3782 262.954 88.7663 262.987 Q80.7792 263.502 80.7792 270.716 Q80.7792 274.613 82.2929 276.352 Q83.7744 278.091 85.8034 278.091 Q86.9306 278.091 87.8001 277.576 Q88.6375 277.028 89.1528 276.352 Q89.6358 275.644 90.1189 274.355 Q90.5698 273.067 90.7308 272.294 Q90.8919 271.489 91.2139 269.975 Q92.2123 264.694 94.3701 262.471 Q97.1398 259.702 100.65 259.702 Q104.547 259.702 107.188 262.343 Q109.829 264.983 109.829 270.297 Q109.829 274.581 106.963 277.576 Q107.349 277.962 107.703 278.252 Q108.025 278.542 108.154 278.671 Q108.283 278.768 108.38 278.8 Q108.444 278.832 108.508 278.896 Q109.829 280.217 109.829 280.539 Q109.829 281.054 109.475 281.151 Q109.153 281.247 108.219 281.247 Z" fill="#000000" fill-rule="nonzero" fill-opacity="1" /><path clip-path="url(#clip442)" d="M265.065 605.893 L265.065 335.953 L274.767 335.953 L274.767 605.893 L265.065 605.893 L265.065 605.893  Z" fill="#7a3193" fill-rule="evenodd" fill-opacity="1"/>
<polyline clip-path="url(#clip442)" style="stroke:#000000; stroke-linecap:round; stroke-linejoin:round; stroke-width:0; stroke-opacity:1; fill:none" points="265.065,605.893 265.065,335.953 274.767,335.953 274.767,605.893 265.065,605.893 "/>
<path clip-path="url(#clip442)" d="M301.446 605.893 L301.446 335.953 L311.148 335.953 L311.148 605.893 L301.446 605.893 L301.446 605.893  Z" fill="#7a3193" fill-rule="evenodd" fill-opacity="1"/>
<polyline clip-path="url(#clip442)" style="stroke:#000000; stroke-linecap:round; stroke-linejoin:round; stroke-width:0; stroke-opacity:1; fill:none" points="301.446,605.893 301.446,335.953 311.148,335.953 311.148,605.893 301.446,605.893 "/>
<path clip-path="url(#clip442)" d="M337.827 605.893 L337.827 335.953 L347.528 335.953 L347.528 605.893 L337.827 605.893 L337.827 605.893  Z" fill="#7a3193" fill-rule="evenodd" fill-opacity="1"/>
<polyline clip-path="url(#clip442)" style="stroke:#000000; stroke-linecap:round; stroke-linejoin:round; stroke-width:0; stroke-opacity:1; fill:none" points="337.827,605.893 337.827,335.953 347.528,335.953 347.528,605.893 337.827,605.893 "/>
<path clip-path="url(#clip442)" d="M374.208 605.893 L374.208 335.953 L383.909 335.953 L383.909 605.893 L374.208 605.893 L374.208 605.893  Z" fill="#7a3193" fill-rule="evenodd" fill-opacity="1"/>
<polyline clip-path="url(#clip442)" style="stroke:#000000; stroke-linecap:round; stroke-linejoin:round; stroke-width:0; stroke-opacity:1; fill:none" points="374.208,605.893 374.208,335.953 383.909,335.953 383.909,605.893 374.208,605.893 "/>
<path clip-path="url(#clip442)" d="M410.588 605.893 L410.588 335.953 L420.29 335.953 L420.29 605.893 L410.588 605.893 L410.588 605.893  Z" fill="#7a3193" fill-rule="evenodd" fill-opacity="1"/>
<polyline clip-path="url(#clip442)" style="stroke:#000000; stroke-linecap:round; stroke-linejoin:round; stroke-width:0; stroke-opacity:1; fill:none" points="410.588,605.893 410.588,335.953 420.29,335.953 420.29,605.893 410.588,605.893 "/>
<path clip-path="url(#clip442)" d="M446.969 557.333 L446.969 335.953 L456.671 335.953 L456.671 557.333 L446.969 557.333 L446.969 557.333  Z" fill="#7a3193" fill-rule="evenodd" fill-opacity="1"/>
<polyline clip-path="url(#clip442)" style="stroke:#000000; stroke-linecap:round; stroke-linejoin:round; stroke-width:0; stroke-opacity:1; fill:none" points="446.969,557.333 446.969,335.953 456.671,335.953 456.671,557.333 446.969,557.333 "/>
<path clip-path="url(#clip442)" d="M483.35 557.333 L483.35 335.953 L493.051 335.953 L493.051 557.333 L483.35 557.333 L483.35 557.333  Z" fill="#7a3193" fill-rule="evenodd" fill-opacity="1"/>
<polyline clip-path="url(#clip442)" style="stroke:#000000; stroke-linecap:round; stroke-linejoin:round; stroke-width:0; stroke-opacity:1; fill:none" points="483.35,557.333 483.35,335.953 493.051,335.953 493.051,557.333 483.35,557.333 "/>
<path clip-path="url(#clip442)" d="M519.731 514.135 L519.731 335.953 L529.432 335.953 L529.432 514.135 L519.731 514.135 L519.731 514.135  Z" fill="#7a3193" fill-rule="evenodd" fill-opacity="1"/>
<polyline clip-path="url(#clip442)" style="stroke:#000000; stroke-linecap:round; stroke-linejoin:round; stroke-width:0; stroke-opacity:1; fill:none" points="519.731,514.135 519.731,335.953 529.432,335.953 529.432,514.135 519.731,514.135 "/>
<path clip-path="url(#clip442)" d="M556.111 564.349 L556.111 335.953 L565.813 335.953 L565.813 564.349 L556.111 564.349 L556.111 564.349  Z" fill="#7a3193" fill-rule="evenodd" fill-opacity="1"/>
<polyline clip-path="url(#clip442)" style="stroke:#000000; stroke-linecap:round; stroke-linejoin:round; stroke-width:0; stroke-opacity:1; fill:none" points="556.111,564.349 556.111,335.953 565.813,335.953 565.813,564.349 556.111,564.349 "/>
<path clip-path="url(#clip442)" d="M592.492 564.349 L592.492 335.953 L602.194 335.953 L602.194 564.349 L592.492 564.349 L592.492 564.349  Z" fill="#7a3193" fill-rule="evenodd" fill-opacity="1"/>
<polyline clip-path="url(#clip442)" style="stroke:#000000; stroke-linecap:round; stroke-linejoin:round; stroke-width:0; stroke-opacity:1; fill:none" points="592.492,564.349 592.492,335.953 602.194,335.953 602.194,564.349 592.492,564.349 "/>
<path clip-path="url(#clip442)" d="M628.873 564.349 L628.873 335.953 L638.574 335.953 L638.574 564.349 L628.873 564.349 L628.873 564.349  Z" fill="#7a3193" fill-rule="evenodd" fill-opacity="1"/>
<polyline clip-path="url(#clip442)" style="stroke:#000000; stroke-linecap:round; stroke-linejoin:round; stroke-width:0; stroke-opacity:1; fill:none" points="628.873,564.349 628.873,335.953 638.574,335.953 638.574,564.349 628.873,564.349 "/>
<path clip-path="url(#clip442)" d="M665.254 564.349 L665.254 335.953 L674.955 335.953 L674.955 564.349 L665.254 564.349 L665.254 564.349  Z" fill="#7a3193" fill-rule="evenodd" fill-opacity="1"/>
<polyline clip-path="url(#clip442)" style="stroke:#000000; stroke-linecap:round; stroke-linejoin:round; stroke-width:0; stroke-opacity:1; fill:none" points="665.254,564.349 665.254,335.953 674.955,335.953 674.955,564.349 665.254,564.349 "/>
<path clip-path="url(#clip442)" d="M701.634 564.349 L701.634 335.953 L711.336 335.953 L711.336 564.349 L701.634 564.349 L701.634 564.349  Z" fill="#7a3193" fill-rule="evenodd" fill-opacity="1"/>
<polyline clip-path="url(#clip442)" style="stroke:#000000; stroke-linecap:round; stroke-linejoin:round; stroke-width:0; stroke-opacity:1; fill:none" points="701.634,564.349 701.634,335.953 711.336,335.953 711.336,564.349 701.634,564.349 "/>
<path clip-path="url(#clip442)" d="M738.015 564.349 L738.015 335.953 L747.717 335.953 L747.717 564.349 L738.015 564.349 L738.015 564.349  Z" fill="#7a3193" fill-rule="evenodd" fill-opacity="1"/>
<polyline clip-path="url(#clip442)" style="stroke:#000000; stroke-linecap:round; stroke-linejoin:round; stroke-width:0; stroke-opacity:1; fill:none" points="738.015,564.349 738.015,335.953 747.717,335.953 747.717,564.349 738.015,564.349 "/>
<path clip-path="url(#clip442)" d="M774.396 564.349 L774.396 335.953 L784.097 335.953 L784.097 564.349 L774.396 564.349 L774.396 564.349  Z" fill="#7a3193" fill-rule="evenodd" fill-opacity="1"/>
<polyline clip-path="url(#clip442)" style="stroke:#000000; stroke-linecap:round; stroke-linejoin:round; stroke-width:0; stroke-opacity:1; fill:none" points="774.396,564.349 774.396,335.953 784.097,335.953 784.097,564.349 774.396,564.349 "/>
<path clip-path="url(#clip442)" d="M810.777 564.349 L810.777 335.953 L820.478 335.953 L820.478 564.349 L810.777 564.349 L810.777 564.349  Z" fill="#7a3193" fill-rule="evenodd" fill-opacity="1"/>
<polyline clip-path="url(#clip442)" style="stroke:#000000; stroke-linecap:round; stroke-linejoin:round; stroke-width:0; stroke-opacity:1; fill:none" points="810.777,564.349 810.777,335.953 820.478,335.953 820.478,564.349 810.777,564.349 "/>
<path clip-path="url(#clip442)" d="M847.157 564.349 L847.157 335.953 L856.859 335.953 L856.859 564.349 L847.157 564.349 L847.157 564.349  Z" fill="#7a3193" fill-rule="evenodd" fill-opacity="1"/>
<polyline clip-path="url(#clip442)" style="stroke:#000000; stroke-linecap:round; stroke-linejoin:round; stroke-width:0; stroke-opacity:1; fill:none" points="847.157,564.349 847.157,335.953 856.859,335.953 856.859,564.349 847.157,564.349 "/>
<path clip-path="url(#clip442)" d="M883.538 564.349 L883.538 335.953 L893.24 335.953 L893.24 564.349 L883.538 564.349 L883.538 564.349  Z" fill="#7a3193" fill-rule="evenodd" fill-opacity="1"/>
<polyline clip-path="url(#clip442)" style="stroke:#000000; stroke-linecap:round; stroke-linejoin:round; stroke-width:0; stroke-opacity:1; fill:none" points="883.538,564.349 883.538,335.953 893.24,335.953 893.24,564.349 883.538,564.349 "/>
<path clip-path="url(#clip442)" d="M919.919 532.295 L919.919 335.953 L929.621 335.953 L929.621 532.295 L919.919 532.295 L919.919 532.295  Z" fill="#7a3193" fill-rule="evenodd" fill-opacity="1"/>
<polyline clip-path="url(#clip442)" style="stroke:#000000; stroke-linecap:round; stroke-linejoin:round; stroke-width:0; stroke-opacity:1; fill:none" points="919.919,532.295 919.919,335.953 929.621,335.953 929.621,532.295 919.919,532.295 "/>
<path clip-path="url(#clip442)" d="M956.3 508.164 L956.3 335.953 L966.001 335.953 L966.001 508.164 L956.3 508.164 L956.3 508.164  Z" fill="#7a3193" fill-rule="evenodd" fill-opacity="1"/>
<polyline clip-path="url(#clip442)" style="stroke:#000000; stroke-linecap:round; stroke-linejoin:round; stroke-width:0; stroke-opacity:1; fill:none" points="956.3,508.164 956.3,335.953 966.001,335.953 966.001,508.164 956.3,508.164 "/>
<path clip-path="url(#clip442)" d="M992.681 508.164 L992.681 335.953 L1002.38 335.953 L1002.38 508.164 L992.681 508.164 L992.681 508.164  Z" fill="#7a3193" fill-rule="evenodd" fill-opacity="1"/>
<polyline clip-path="url(#clip442)" style="stroke:#000000; stroke-linecap:round; stroke-linejoin:round; stroke-width:0; stroke-opacity:1; fill:none" points="992.681,508.164 992.681,335.953 1002.38,335.953 1002.38,508.164 992.681,508.164 "/>
<path clip-path="url(#clip442)" d="M1029.06 508.164 L1029.06 335.953 L1038.76 335.953 L1038.76 508.164 L1029.06 508.164 L1029.06 508.164  Z" fill="#7a3193" fill-rule="evenodd" fill-opacity="1"/>
<polyline clip-path="url(#clip442)" style="stroke:#000000; stroke-linecap:round; stroke-linejoin:round; stroke-width:0; stroke-opacity:1; fill:none" points="1029.06,508.164 1029.06,335.953 1038.76,335.953 1038.76,508.164 1029.06,508.164 "/>
<path clip-path="url(#clip442)" d="M1065.44 508.164 L1065.44 335.953 L1075.14 335.953 L1075.14 508.164 L1065.44 508.164 L1065.44 508.164  Z" fill="#7a3193" fill-rule="evenodd" fill-opacity="1"/>
<polyline clip-path="url(#clip442)" style="stroke:#000000; stroke-linecap:round; stroke-linejoin:round; stroke-width:0; stroke-opacity:1; fill:none" points="1065.44,508.164 1065.44,335.953 1075.14,335.953 1075.14,508.164 1065.44,508.164 "/>
<path clip-path="url(#clip442)" d="M1101.82 540.774 L1101.82 335.953 L1111.52 335.953 L1111.52 540.774 L1101.82 540.774 L1101.82 540.774  Z" fill="#7a3193" fill-rule="evenodd" fill-opacity="1"/>
<polyline clip-path="url(#clip442)" style="stroke:#000000; stroke-linecap:round; stroke-linejoin:round; stroke-width:0; stroke-opacity:1; fill:none" points="1101.82,540.774 1101.82,335.953 1111.52,335.953 1111.52,540.774 1101.82,540.774 "/>
<circle clip-path="url(#clip442)" style="fill:#7a3193; stroke:none; fill-opacity:0" cx="269.916" cy="605.893" r="2"/>
<circle clip-path="url(#clip442)" style="fill:#7a3193; stroke:none; fill-opacity:0" cx="306.297" cy="605.893" r="2"/>
<circle clip-path="url(#clip442)" style="fill:#7a3193; stroke:none; fill-opacity:0" cx="342.678" cy="605.893" r="2"/>
<circle clip-path="url(#clip442)" style="fill:#7a3193; stroke:none; fill-opacity:0" cx="379.058" cy="605.893" r="2"/>
<circle clip-path="url(#clip442)" style="fill:#7a3193; stroke:none; fill-opacity:0" cx="415.439" cy="605.893" r="2"/>
<circle clip-path="url(#clip442)" style="fill:#7a3193; stroke:none; fill-opacity:0" cx="451.82" cy="557.333" r="2"/>
<circle clip-path="url(#clip442)" style="fill:#7a3193; stroke:none; fill-opacity:0" cx="488.201" cy="557.333" r="2"/>
<circle clip-path="url(#clip442)" style="fill:#7a3193; stroke:none; fill-opacity:0" cx="524.581" cy="514.135" r="2"/>
<circle clip-path="url(#clip442)" style="fill:#7a3193; stroke:none; fill-opacity:0" cx="560.962" cy="564.349" r="2"/>
<circle clip-path="url(#clip442)" style="fill:#7a3193; stroke:none; fill-opacity:0" cx="597.343" cy="564.349" r="2"/>
<circle clip-path="url(#clip442)" style="fill:#7a3193; stroke:none; fill-opacity:0" cx="633.724" cy="564.349" r="2"/>
<circle clip-path="url(#clip442)" style="fill:#7a3193; stroke:none; fill-opacity:0" cx="670.104" cy="564.349" r="2"/>
<circle clip-path="url(#clip442)" style="fill:#7a3193; stroke:none; fill-opacity:0" cx="706.485" cy="564.349" r="2"/>
<circle clip-path="url(#clip442)" style="fill:#7a3193; stroke:none; fill-opacity:0" cx="742.866" cy="564.349" r="2"/>
<circle clip-path="url(#clip442)" style="fill:#7a3193; stroke:none; fill-opacity:0" cx="779.247" cy="564.349" r="2"/>
<circle clip-path="url(#clip442)" style="fill:#7a3193; stroke:none; fill-opacity:0" cx="815.627" cy="564.349" r="2"/>
<circle clip-path="url(#clip442)" style="fill:#7a3193; stroke:none; fill-opacity:0" cx="852.008" cy="564.349" r="2"/>
<circle clip-path="url(#clip442)" style="fill:#7a3193; stroke:none; fill-opacity:0" cx="888.389" cy="564.349" r="2"/>
<circle clip-path="url(#clip442)" style="fill:#7a3193; stroke:none; fill-opacity:0" cx="924.77" cy="532.295" r="2"/>
<circle clip-path="url(#clip442)" style="fill:#7a3193; stroke:none; fill-opacity:0" cx="961.151" cy="508.164" r="2"/>
<circle clip-path="url(#clip442)" style="fill:#7a3193; stroke:none; fill-opacity:0" cx="997.531" cy="508.164" r="2"/>
<circle clip-path="url(#clip442)" style="fill:#7a3193; stroke:none; fill-opacity:0" cx="1033.91" cy="508.164" r="2"/>
<circle clip-path="url(#clip442)" style="fill:#7a3193; stroke:none; fill-opacity:0" cx="1070.29" cy="508.164" r="2"/>
<circle clip-path="url(#clip442)" style="fill:#7a3193; stroke:none; fill-opacity:0" cx="1106.67" cy="540.774" r="2"/>
<path clip-path="url(#clip442)" d="M274.767 601.438 L274.767 335.953 L284.468 335.953 L284.468 601.438 L274.767 601.438 L274.767 601.438  Z" fill="#c2a4cf" fill-rule="evenodd" fill-opacity="1"/>
<polyline clip-path="url(#clip442)" style="stroke:#000000; stroke-linecap:round; stroke-linejoin:round; stroke-width:0; stroke-opacity:1; fill:none" points="274.767,601.438 274.767,335.953 284.468,335.953 284.468,601.438 274.767,601.438 "/>
<path clip-path="url(#clip442)" d="M311.148 601.438 L311.148 335.953 L320.849 335.953 L320.849 601.438 L311.148 601.438 L311.148 601.438  Z" fill="#c2a4cf" fill-rule="evenodd" fill-opacity="1"/>
<polyline clip-path="url(#clip442)" style="stroke:#000000; stroke-linecap:round; stroke-linejoin:round; stroke-width:0; stroke-opacity:1; fill:none" points="311.148,601.438 311.148,335.953 320.849,335.953 320.849,601.438 311.148,601.438 "/>
<path clip-path="url(#clip442)" d="M347.528 605.893 L347.528 335.953 L357.23 335.953 L357.23 605.893 L347.528 605.893 L347.528 605.893  Z" fill="#c2a4cf" fill-rule="evenodd" fill-opacity="1"/>
<polyline clip-path="url(#clip442)" style="stroke:#000000; stroke-linecap:round; stroke-linejoin:round; stroke-width:0; stroke-opacity:1; fill:none" points="347.528,605.893 347.528,335.953 357.23,335.953 357.23,605.893 347.528,605.893 "/>
<path clip-path="url(#clip442)" d="M383.909 605.893 L383.909 335.953 L393.611 335.953 L393.611 605.893 L383.909 605.893 L383.909 605.893  Z" fill="#c2a4cf" fill-rule="evenodd" fill-opacity="1"/>
<polyline clip-path="url(#clip442)" style="stroke:#000000; stroke-linecap:round; stroke-linejoin:round; stroke-width:0; stroke-opacity:1; fill:none" points="383.909,605.893 383.909,335.953 393.611,335.953 393.611,605.893 383.909,605.893 "/>
<path clip-path="url(#clip442)" d="M420.29 605.893 L420.29 335.953 L429.991 335.953 L429.991 605.893 L420.29 605.893 L420.29 605.893  Z" fill="#c2a4cf" fill-rule="evenodd" fill-opacity="1"/>
<polyline clip-path="url(#clip442)" style="stroke:#000000; stroke-linecap:round; stroke-linejoin:round; stroke-width:0; stroke-opacity:1; fill:none" points="420.29,605.893 420.29,335.953 429.991,335.953 429.991,605.893 420.29,605.893 "/>
<path clip-path="url(#clip442)" d="M456.671 565.417 L456.671 335.953 L466.372 335.953 L466.372 565.417 L456.671 565.417 L456.671 565.417  Z" fill="#c2a4cf" fill-rule="evenodd" fill-opacity="1"/>
<polyline clip-path="url(#clip442)" style="stroke:#000000; stroke-linecap:round; stroke-linejoin:round; stroke-width:0; stroke-opacity:1; fill:none" points="456.671,565.417 456.671,335.953 466.372,335.953 466.372,565.417 456.671,565.417 "/>
<path clip-path="url(#clip442)" d="M493.051 565.417 L493.051 335.953 L502.753 335.953 L502.753 565.417 L493.051 565.417 L493.051 565.417  Z" fill="#c2a4cf" fill-rule="evenodd" fill-opacity="1"/>
<polyline clip-path="url(#clip442)" style="stroke:#000000; stroke-linecap:round; stroke-linejoin:round; stroke-width:0; stroke-opacity:1; fill:none" points="493.051,565.417 493.051,335.953 502.753,335.953 502.753,565.417 493.051,565.417 "/>
<path clip-path="url(#clip442)" d="M529.432 526.85 L529.432 335.953 L539.134 335.953 L539.134 526.85 L529.432 526.85 L529.432 526.85  Z" fill="#c2a4cf" fill-rule="evenodd" fill-opacity="1"/>
<polyline clip-path="url(#clip442)" style="stroke:#000000; stroke-linecap:round; stroke-linejoin:round; stroke-width:0; stroke-opacity:1; fill:none" points="529.432,526.85 529.432,335.953 539.134,335.953 539.134,526.85 529.432,526.85 "/>
<path clip-path="url(#clip442)" d="M565.813 638.341 L565.813 335.953 L575.514 335.953 L575.514 638.341 L565.813 638.341 L565.813 638.341  Z" fill="#c2a4cf" fill-rule="evenodd" fill-opacity="1"/>
<polyline clip-path="url(#clip442)" style="stroke:#000000; stroke-linecap:round; stroke-linejoin:round; stroke-width:0; stroke-opacity:1; fill:none" points="565.813,638.341 565.813,335.953 575.514,335.953 575.514,638.341 565.813,638.341 "/>
<path clip-path="url(#clip442)" d="M602.194 541.045 L602.194 335.953 L611.895 335.953 L611.895 541.045 L602.194 541.045 L602.194 541.045  Z" fill="#c2a4cf" fill-rule="evenodd" fill-opacity="1"/>
<polyline clip-path="url(#clip442)" style="stroke:#000000; stroke-linecap:round; stroke-linejoin:round; stroke-width:0; stroke-opacity:1; fill:none" points="602.194,541.045 602.194,335.953 611.895,335.953 611.895,541.045 602.194,541.045 "/>
<path clip-path="url(#clip442)" d="M638.574 541.045 L638.574 335.953 L648.276 335.953 L648.276 541.045 L638.574 541.045 L638.574 541.045  Z" fill="#c2a4cf" fill-rule="evenodd" fill-opacity="1"/>
<polyline clip-path="url(#clip442)" style="stroke:#000000; stroke-linecap:round; stroke-linejoin:round; stroke-width:0; stroke-opacity:1; fill:none" points="638.574,541.045 638.574,335.953 648.276,335.953 648.276,541.045 638.574,541.045 "/>
<path clip-path="url(#clip442)" d="M674.955 541.045 L674.955 335.953 L684.657 335.953 L684.657 541.045 L674.955 541.045 L674.955 541.045  Z" fill="#c2a4cf" fill-rule="evenodd" fill-opacity="1"/>
<polyline clip-path="url(#clip442)" style="stroke:#000000; stroke-linecap:round; stroke-linejoin:round; stroke-width:0; stroke-opacity:1; fill:none" points="674.955,541.045 674.955,335.953 684.657,335.953 684.657,541.045 674.955,541.045 "/>
<path clip-path="url(#clip442)" d="M711.336 541.045 L711.336 335.953 L721.037 335.953 L721.037 541.045 L711.336 541.045 L711.336 541.045  Z" fill="#c2a4cf" fill-rule="evenodd" fill-opacity="1"/>
<polyline clip-path="url(#clip442)" style="stroke:#000000; stroke-linecap:round; stroke-linejoin:round; stroke-width:0; stroke-opacity:1; fill:none" points="711.336,541.045 711.336,335.953 721.037,335.953 721.037,541.045 711.336,541.045 "/>
<path clip-path="url(#clip442)" d="M747.717 541.045 L747.717 335.953 L757.418 335.953 L757.418 541.045 L747.717 541.045 L747.717 541.045  Z" fill="#c2a4cf" fill-rule="evenodd" fill-opacity="1"/>
<polyline clip-path="url(#clip442)" style="stroke:#000000; stroke-linecap:round; stroke-linejoin:round; stroke-width:0; stroke-opacity:1; fill:none" points="747.717,541.045 747.717,335.953 757.418,335.953 757.418,541.045 747.717,541.045 "/>
<path clip-path="url(#clip442)" d="M784.097 541.045 L784.097 335.953 L793.799 335.953 L793.799 541.045 L784.097 541.045 L784.097 541.045  Z" fill="#c2a4cf" fill-rule="evenodd" fill-opacity="1"/>
<polyline clip-path="url(#clip442)" style="stroke:#000000; stroke-linecap:round; stroke-linejoin:round; stroke-width:0; stroke-opacity:1; fill:none" points="784.097,541.045 784.097,335.953 793.799,335.953 793.799,541.045 784.097,541.045 "/>
<path clip-path="url(#clip442)" d="M820.478 541.045 L820.478 335.953 L830.18 335.953 L830.18 541.045 L820.478 541.045 L820.478 541.045  Z" fill="#c2a4cf" fill-rule="evenodd" fill-opacity="1"/>
<polyline clip-path="url(#clip442)" style="stroke:#000000; stroke-linecap:round; stroke-linejoin:round; stroke-width:0; stroke-opacity:1; fill:none" points="820.478,541.045 820.478,335.953 830.18,335.953 830.18,541.045 820.478,541.045 "/>
<path clip-path="url(#clip442)" d="M856.859 541.045 L856.859 335.953 L866.561 335.953 L866.561 541.045 L856.859 541.045 L856.859 541.045  Z" fill="#c2a4cf" fill-rule="evenodd" fill-opacity="1"/>
<polyline clip-path="url(#clip442)" style="stroke:#000000; stroke-linecap:round; stroke-linejoin:round; stroke-width:0; stroke-opacity:1; fill:none" points="856.859,541.045 856.859,335.953 866.561,335.953 866.561,541.045 856.859,541.045 "/>
<path clip-path="url(#clip442)" d="M893.24 541.045 L893.24 335.953 L902.941 335.953 L902.941 541.045 L893.24 541.045 L893.24 541.045  Z" fill="#c2a4cf" fill-rule="evenodd" fill-opacity="1"/>
<polyline clip-path="url(#clip442)" style="stroke:#000000; stroke-linecap:round; stroke-linejoin:round; stroke-width:0; stroke-opacity:1; fill:none" points="893.24,541.045 893.24,335.953 902.941,335.953 902.941,541.045 893.24,541.045 "/>
<path clip-path="url(#clip442)" d="M929.621 541.045 L929.621 335.953 L939.322 335.953 L939.322 541.045 L929.621 541.045 L929.621 541.045  Z" fill="#c2a4cf" fill-rule="evenodd" fill-opacity="1"/>
<polyline clip-path="url(#clip442)" style="stroke:#000000; stroke-linecap:round; stroke-linejoin:round; stroke-width:0; stroke-opacity:1; fill:none" points="929.621,541.045 929.621,335.953 939.322,335.953 939.322,541.045 929.621,541.045 "/>
<path clip-path="url(#clip442)" d="M966.001 541.045 L966.001 335.953 L975.703 335.953 L975.703 541.045 L966.001 541.045 L966.001 541.045  Z" fill="#c2a4cf" fill-rule="evenodd" fill-opacity="1"/>
<polyline clip-path="url(#clip442)" style="stroke:#000000; stroke-linecap:round; stroke-linejoin:round; stroke-width:0; stroke-opacity:1; fill:none" points="966.001,541.045 966.001,335.953 975.703,335.953 975.703,541.045 966.001,541.045 "/>
<path clip-path="url(#clip442)" d="M1002.38 541.045 L1002.38 335.953 L1012.08 335.953 L1012.08 541.045 L1002.38 541.045 L1002.38 541.045  Z" fill="#c2a4cf" fill-rule="evenodd" fill-opacity="1"/>
<polyline clip-path="url(#clip442)" style="stroke:#000000; stroke-linecap:round; stroke-linejoin:round; stroke-width:0; stroke-opacity:1; fill:none" points="1002.38,541.045 1002.38,335.953 1012.08,335.953 1012.08,541.045 1002.38,541.045 "/>
<path clip-path="url(#clip442)" d="M1038.76 541.045 L1038.76 335.953 L1048.46 335.953 L1048.46 541.045 L1038.76 541.045 L1038.76 541.045  Z" fill="#c2a4cf" fill-rule="evenodd" fill-opacity="1"/>
<polyline clip-path="url(#clip442)" style="stroke:#000000; stroke-linecap:round; stroke-linejoin:round; stroke-width:0; stroke-opacity:1; fill:none" points="1038.76,541.045 1038.76,335.953 1048.46,335.953 1048.46,541.045 1038.76,541.045 "/>
<path clip-path="url(#clip442)" d="M1075.14 541.045 L1075.14 335.953 L1084.85 335.953 L1084.85 541.045 L1075.14 541.045 L1075.14 541.045  Z" fill="#c2a4cf" fill-rule="evenodd" fill-opacity="1"/>
<polyline clip-path="url(#clip442)" style="stroke:#000000; stroke-linecap:round; stroke-linejoin:round; stroke-width:0; stroke-opacity:1; fill:none" points="1075.14,541.045 1075.14,335.953 1084.85,335.953 1084.85,541.045 1075.14,541.045 "/>
<path clip-path="url(#clip442)" d="M1111.52 603.412 L1111.52 335.953 L1121.23 335.953 L1121.23 603.412 L1111.52 603.412 L1111.52 603.412  Z" fill="#c2a4cf" fill-rule="evenodd" fill-opacity="1"/>
<polyline clip-path="url(#clip442)" style="stroke:#000000; stroke-linecap:round; stroke-linejoin:round; stroke-width:0; stroke-opacity:1; fill:none" points="1111.52,603.412 1111.52,335.953 1121.23,335.953 1121.23,603.412 1111.52,603.412 "/>
<circle clip-path="url(#clip442)" style="fill:#c2a4cf; stroke:none; fill-opacity:0" cx="279.618" cy="601.438" r="2"/>
<circle clip-path="url(#clip442)" style="fill:#c2a4cf; stroke:none; fill-opacity:0" cx="315.998" cy="601.438" r="2"/>
<circle clip-path="url(#clip442)" style="fill:#c2a4cf; stroke:none; fill-opacity:0" cx="352.379" cy="605.893" r="2"/>
<circle clip-path="url(#clip442)" style="fill:#c2a4cf; stroke:none; fill-opacity:0" cx="388.76" cy="605.893" r="2"/>
<circle clip-path="url(#clip442)" style="fill:#c2a4cf; stroke:none; fill-opacity:0" cx="425.141" cy="605.893" r="2"/>
<circle clip-path="url(#clip442)" style="fill:#c2a4cf; stroke:none; fill-opacity:0" cx="461.521" cy="565.417" r="2"/>
<circle clip-path="url(#clip442)" style="fill:#c2a4cf; stroke:none; fill-opacity:0" cx="497.902" cy="565.417" r="2"/>
<circle clip-path="url(#clip442)" style="fill:#c2a4cf; stroke:none; fill-opacity:0" cx="534.283" cy="526.85" r="2"/>
<circle clip-path="url(#clip442)" style="fill:#c2a4cf; stroke:none; fill-opacity:0" cx="570.664" cy="638.341" r="2"/>
<circle clip-path="url(#clip442)" style="fill:#c2a4cf; stroke:none; fill-opacity:0" cx="607.044" cy="541.045" r="2"/>
<circle clip-path="url(#clip442)" style="fill:#c2a4cf; stroke:none; fill-opacity:0" cx="643.425" cy="541.045" r="2"/>
<circle clip-path="url(#clip442)" style="fill:#c2a4cf; stroke:none; fill-opacity:0" cx="679.806" cy="541.045" r="2"/>
<circle clip-path="url(#clip442)" style="fill:#c2a4cf; stroke:none; fill-opacity:0" cx="716.187" cy="541.045" r="2"/>
<circle clip-path="url(#clip442)" style="fill:#c2a4cf; stroke:none; fill-opacity:0" cx="752.567" cy="541.045" r="2"/>
<circle clip-path="url(#clip442)" style="fill:#c2a4cf; stroke:none; fill-opacity:0" cx="788.948" cy="541.045" r="2"/>
<circle clip-path="url(#clip442)" style="fill:#c2a4cf; stroke:none; fill-opacity:0" cx="825.329" cy="541.045" r="2"/>
<circle clip-path="url(#clip442)" style="fill:#c2a4cf; stroke:none; fill-opacity:0" cx="861.71" cy="541.045" r="2"/>
<circle clip-path="url(#clip442)" style="fill:#c2a4cf; stroke:none; fill-opacity:0" cx="898.091" cy="541.045" r="2"/>
<circle clip-path="url(#clip442)" style="fill:#c2a4cf; stroke:none; fill-opacity:0" cx="934.471" cy="541.045" r="2"/>
<circle clip-path="url(#clip442)" style="fill:#c2a4cf; stroke:none; fill-opacity:0" cx="970.852" cy="541.045" r="2"/>
<circle clip-path="url(#clip442)" style="fill:#c2a4cf; stroke:none; fill-opacity:0" cx="1007.23" cy="541.045" r="2"/>
<circle clip-path="url(#clip442)" style="fill:#c2a4cf; stroke:none; fill-opacity:0" cx="1043.61" cy="541.045" r="2"/>
<circle clip-path="url(#clip442)" style="fill:#c2a4cf; stroke:none; fill-opacity:0" cx="1079.99" cy="541.045" r="2"/>
<circle clip-path="url(#clip442)" style="fill:#c2a4cf; stroke:none; fill-opacity:0" cx="1116.38" cy="603.412" r="2"/>
<path clip-path="url(#clip442)" d="M284.468 686.411 L284.468 335.953 L294.17 335.953 L294.17 686.411 L284.468 686.411 L284.468 686.411  Z" fill="#a6db9f" fill-rule="evenodd" fill-opacity="1"/>
<polyline clip-path="url(#clip442)" style="stroke:#000000; stroke-linecap:round; stroke-linejoin:round; stroke-width:0; stroke-opacity:1; fill:none" points="284.468,686.411 284.468,335.953 294.17,335.953 294.17,686.411 284.468,686.411 "/>
<path clip-path="url(#clip442)" d="M320.849 776.794 L320.849 335.953 L330.551 335.953 L330.551 776.794 L320.849 776.794 L320.849 776.794  Z" fill="#a6db9f" fill-rule="evenodd" fill-opacity="1"/>
<polyline clip-path="url(#clip442)" style="stroke:#000000; stroke-linecap:round; stroke-linejoin:round; stroke-width:0; stroke-opacity:1; fill:none" points="320.849,776.794 320.849,335.953 330.551,335.953 330.551,776.794 320.849,776.794 "/>
<path clip-path="url(#clip442)" d="M357.23 889.954 L357.23 335.953 L366.931 335.953 L366.931 889.954 L357.23 889.954 L357.23 889.954  Z" fill="#a6db9f" fill-rule="evenodd" fill-opacity="1"/>
<polyline clip-path="url(#clip442)" style="stroke:#000000; stroke-linecap:round; stroke-linejoin:round; stroke-width:0; stroke-opacity:1; fill:none" points="357.23,889.954 357.23,335.953 366.931,335.953 366.931,889.954 357.23,889.954 "/>
<path clip-path="url(#clip442)" d="M393.611 889.954 L393.611 335.953 L403.312 335.953 L403.312 889.954 L393.611 889.954 L393.611 889.954  Z" fill="#a6db9f" fill-rule="evenodd" fill-opacity="1"/>
<polyline clip-path="url(#clip442)" style="stroke:#000000; stroke-linecap:round; stroke-linejoin:round; stroke-width:0; stroke-opacity:1; fill:none" points="393.611,889.954 393.611,335.953 403.312,335.953 403.312,889.954 393.611,889.954 "/>
<path clip-path="url(#clip442)" d="M429.991 889.954 L429.991 335.953 L439.693 335.953 L439.693 889.954 L429.991 889.954 L429.991 889.954  Z" fill="#a6db9f" fill-rule="evenodd" fill-opacity="1"/>
<polyline clip-path="url(#clip442)" style="stroke:#000000; stroke-linecap:round; stroke-linejoin:round; stroke-width:0; stroke-opacity:1; fill:none" points="429.991,889.954 429.991,335.953 439.693,335.953 439.693,889.954 429.991,889.954 "/>
<path clip-path="url(#clip442)" d="M466.372 776.794 L466.372 335.953 L476.074 335.953 L476.074 776.794 L466.372 776.794 L466.372 776.794  Z" fill="#a6db9f" fill-rule="evenodd" fill-opacity="1"/>
<polyline clip-path="url(#clip442)" style="stroke:#000000; stroke-linecap:round; stroke-linejoin:round; stroke-width:0; stroke-opacity:1; fill:none" points="466.372,776.794 466.372,335.953 476.074,335.953 476.074,776.794 466.372,776.794 "/>
<path clip-path="url(#clip442)" d="M502.753 776.794 L502.753 335.953 L512.454 335.953 L512.454 776.794 L502.753 776.794 L502.753 776.794  Z" fill="#a6db9f" fill-rule="evenodd" fill-opacity="1"/>
<polyline clip-path="url(#clip442)" style="stroke:#000000; stroke-linecap:round; stroke-linejoin:round; stroke-width:0; stroke-opacity:1; fill:none" points="502.753,776.794 502.753,335.953 512.454,335.953 512.454,776.794 502.753,776.794 "/>
<path clip-path="url(#clip442)" d="M539.134 776.794 L539.134 335.953 L548.835 335.953 L548.835 776.794 L539.134 776.794 L539.134 776.794  Z" fill="#a6db9f" fill-rule="evenodd" fill-opacity="1"/>
<polyline clip-path="url(#clip442)" style="stroke:#000000; stroke-linecap:round; stroke-linejoin:round; stroke-width:0; stroke-opacity:1; fill:none" points="539.134,776.794 539.134,335.953 548.835,335.953 548.835,776.794 539.134,776.794 "/>
<path clip-path="url(#clip442)" d="M575.514 678.874 L575.514 335.953 L585.216 335.953 L585.216 678.874 L575.514 678.874 L575.514 678.874  Z" fill="#a6db9f" fill-rule="evenodd" fill-opacity="1"/>
<polyline clip-path="url(#clip442)" style="stroke:#000000; stroke-linecap:round; stroke-linejoin:round; stroke-width:0; stroke-opacity:1; fill:none" points="575.514,678.874 575.514,335.953 585.216,335.953 585.216,678.874 575.514,678.874 "/>
<path clip-path="url(#clip442)" d="M611.895 615.643 L611.895 335.953 L621.597 335.953 L621.597 615.643 L611.895 615.643 L611.895 615.643  Z" fill="#a6db9f" fill-rule="evenodd" fill-opacity="1"/>
<polyline clip-path="url(#clip442)" style="stroke:#000000; stroke-linecap:round; stroke-linejoin:round; stroke-width:0; stroke-opacity:1; fill:none" points="611.895,615.643 611.895,335.953 621.597,335.953 621.597,615.643 611.895,615.643 "/>
<path clip-path="url(#clip442)" d="M648.276 573.05 L648.276 335.953 L657.978 335.953 L657.978 573.05 L648.276 573.05 L648.276 573.05  Z" fill="#a6db9f" fill-rule="evenodd" fill-opacity="1"/>
<polyline clip-path="url(#clip442)" style="stroke:#000000; stroke-linecap:round; stroke-linejoin:round; stroke-width:0; stroke-opacity:1; fill:none" points="648.276,573.05 648.276,335.953 657.978,335.953 657.978,573.05 648.276,573.05 "/>
<path clip-path="url(#clip442)" d="M684.657 573.05 L684.657 335.953 L694.358 335.953 L694.358 573.05 L684.657 573.05 L684.657 573.05  Z" fill="#a6db9f" fill-rule="evenodd" fill-opacity="1"/>
<polyline clip-path="url(#clip442)" style="stroke:#000000; stroke-linecap:round; stroke-linejoin:round; stroke-width:0; stroke-opacity:1; fill:none" points="684.657,573.05 684.657,335.953 694.358,335.953 694.358,573.05 684.657,573.05 "/>
<path clip-path="url(#clip442)" d="M721.037 573.05 L721.037 335.953 L730.739 335.953 L730.739 573.05 L721.037 573.05 L721.037 573.05  Z" fill="#a6db9f" fill-rule="evenodd" fill-opacity="1"/>
<polyline clip-path="url(#clip442)" style="stroke:#000000; stroke-linecap:round; stroke-linejoin:round; stroke-width:0; stroke-opacity:1; fill:none" points="721.037,573.05 721.037,335.953 730.739,335.953 730.739,573.05 721.037,573.05 "/>
<path clip-path="url(#clip442)" d="M757.418 573.05 L757.418 335.953 L767.12 335.953 L767.12 573.05 L757.418 573.05 L757.418 573.05  Z" fill="#a6db9f" fill-rule="evenodd" fill-opacity="1"/>
<polyline clip-path="url(#clip442)" style="stroke:#000000; stroke-linecap:round; stroke-linejoin:round; stroke-width:0; stroke-opacity:1; fill:none" points="757.418,573.05 757.418,335.953 767.12,335.953 767.12,573.05 757.418,573.05 "/>
<path clip-path="url(#clip442)" d="M793.799 573.05 L793.799 335.953 L803.501 335.953 L803.501 573.05 L793.799 573.05 L793.799 573.05  Z" fill="#a6db9f" fill-rule="evenodd" fill-opacity="1"/>
<polyline clip-path="url(#clip442)" style="stroke:#000000; stroke-linecap:round; stroke-linejoin:round; stroke-width:0; stroke-opacity:1; fill:none" points="793.799,573.05 793.799,335.953 803.501,335.953 803.501,573.05 793.799,573.05 "/>
<path clip-path="url(#clip442)" d="M830.18 555.481 L830.18 335.953 L839.881 335.953 L839.881 555.481 L830.18 555.481 L830.18 555.481  Z" fill="#a6db9f" fill-rule="evenodd" fill-opacity="1"/>
<polyline clip-path="url(#clip442)" style="stroke:#000000; stroke-linecap:round; stroke-linejoin:round; stroke-width:0; stroke-opacity:1; fill:none" points="830.18,555.481 830.18,335.953 839.881,335.953 839.881,555.481 830.18,555.481 "/>
<path clip-path="url(#clip442)" d="M866.561 555.481 L866.561 335.953 L876.262 335.953 L876.262 555.481 L866.561 555.481 L866.561 555.481  Z" fill="#a6db9f" fill-rule="evenodd" fill-opacity="1"/>
<polyline clip-path="url(#clip442)" style="stroke:#000000; stroke-linecap:round; stroke-linejoin:round; stroke-width:0; stroke-opacity:1; fill:none" points="866.561,555.481 866.561,335.953 876.262,335.953 876.262,555.481 866.561,555.481 "/>
<path clip-path="url(#clip442)" d="M902.941 555.481 L902.941 335.953 L912.643 335.953 L912.643 555.481 L902.941 555.481 L902.941 555.481  Z" fill="#a6db9f" fill-rule="evenodd" fill-opacity="1"/>
<polyline clip-path="url(#clip442)" style="stroke:#000000; stroke-linecap:round; stroke-linejoin:round; stroke-width:0; stroke-opacity:1; fill:none" points="902.941,555.481 902.941,335.953 912.643,335.953 912.643,555.481 902.941,555.481 "/>
<path clip-path="url(#clip442)" d="M939.322 555.481 L939.322 335.953 L949.024 335.953 L949.024 555.481 L939.322 555.481 L939.322 555.481  Z" fill="#a6db9f" fill-rule="evenodd" fill-opacity="1"/>
<polyline clip-path="url(#clip442)" style="stroke:#000000; stroke-linecap:round; stroke-linejoin:round; stroke-width:0; stroke-opacity:1; fill:none" points="939.322,555.481 939.322,335.953 949.024,335.953 949.024,555.481 939.322,555.481 "/>
<path clip-path="url(#clip442)" d="M975.703 555.481 L975.703 335.953 L985.404 335.953 L985.404 555.481 L975.703 555.481 L975.703 555.481  Z" fill="#a6db9f" fill-rule="evenodd" fill-opacity="1"/>
<polyline clip-path="url(#clip442)" style="stroke:#000000; stroke-linecap:round; stroke-linejoin:round; stroke-width:0; stroke-opacity:1; fill:none" points="975.703,555.481 975.703,335.953 985.404,335.953 985.404,555.481 975.703,555.481 "/>
<path clip-path="url(#clip442)" d="M1012.08 555.481 L1012.08 335.953 L1021.79 335.953 L1021.79 555.481 L1012.08 555.481 L1012.08 555.481  Z" fill="#a6db9f" fill-rule="evenodd" fill-opacity="1"/>
<polyline clip-path="url(#clip442)" style="stroke:#000000; stroke-linecap:round; stroke-linejoin:round; stroke-width:0; stroke-opacity:1; fill:none" points="1012.08,555.481 1012.08,335.953 1021.79,335.953 1021.79,555.481 1012.08,555.481 "/>
<path clip-path="url(#clip442)" d="M1048.46 555.481 L1048.46 335.953 L1058.17 335.953 L1058.17 555.481 L1048.46 555.481 L1048.46 555.481  Z" fill="#a6db9f" fill-rule="evenodd" fill-opacity="1"/>
<polyline clip-path="url(#clip442)" style="stroke:#000000; stroke-linecap:round; stroke-linejoin:round; stroke-width:0; stroke-opacity:1; fill:none" points="1048.46,555.481 1048.46,335.953 1058.17,335.953 1058.17,555.481 1048.46,555.481 "/>
<path clip-path="url(#clip442)" d="M1084.85 555.481 L1084.85 335.953 L1094.55 335.953 L1094.55 555.481 L1084.85 555.481 L1084.85 555.481  Z" fill="#a6db9f" fill-rule="evenodd" fill-opacity="1"/>
<polyline clip-path="url(#clip442)" style="stroke:#000000; stroke-linecap:round; stroke-linejoin:round; stroke-width:0; stroke-opacity:1; fill:none" points="1084.85,555.481 1084.85,335.953 1094.55,335.953 1094.55,555.481 1084.85,555.481 "/>
<path clip-path="url(#clip442)" d="M1121.23 555.481 L1121.23 335.953 L1130.93 335.953 L1130.93 555.481 L1121.23 555.481 L1121.23 555.481  Z" fill="#a6db9f" fill-rule="evenodd" fill-opacity="1"/>
<polyline clip-path="url(#clip442)" style="stroke:#000000; stroke-linecap:round; stroke-linejoin:round; stroke-width:0; stroke-opacity:1; fill:none" points="1121.23,555.481 1121.23,335.953 1130.93,335.953 1130.93,555.481 1121.23,555.481 "/>
<circle clip-path="url(#clip442)" style="fill:#a6db9f; stroke:none; fill-opacity:0" cx="289.319" cy="686.411" r="2"/>
<circle clip-path="url(#clip442)" style="fill:#a6db9f; stroke:none; fill-opacity:0" cx="325.7" cy="776.794" r="2"/>
<circle clip-path="url(#clip442)" style="fill:#a6db9f; stroke:none; fill-opacity:0" cx="362.081" cy="889.954" r="2"/>
<circle clip-path="url(#clip442)" style="fill:#a6db9f; stroke:none; fill-opacity:0" cx="398.461" cy="889.954" r="2"/>
<circle clip-path="url(#clip442)" style="fill:#a6db9f; stroke:none; fill-opacity:0" cx="434.842" cy="889.954" r="2"/>
<circle clip-path="url(#clip442)" style="fill:#a6db9f; stroke:none; fill-opacity:0" cx="471.223" cy="776.794" r="2"/>
<circle clip-path="url(#clip442)" style="fill:#a6db9f; stroke:none; fill-opacity:0" cx="507.604" cy="776.794" r="2"/>
<circle clip-path="url(#clip442)" style="fill:#a6db9f; stroke:none; fill-opacity:0" cx="543.984" cy="776.794" r="2"/>
<circle clip-path="url(#clip442)" style="fill:#a6db9f; stroke:none; fill-opacity:0" cx="580.365" cy="678.874" r="2"/>
<circle clip-path="url(#clip442)" style="fill:#a6db9f; stroke:none; fill-opacity:0" cx="616.746" cy="615.643" r="2"/>
<circle clip-path="url(#clip442)" style="fill:#a6db9f; stroke:none; fill-opacity:0" cx="653.127" cy="573.05" r="2"/>
<circle clip-path="url(#clip442)" style="fill:#a6db9f; stroke:none; fill-opacity:0" cx="689.508" cy="573.05" r="2"/>
<circle clip-path="url(#clip442)" style="fill:#a6db9f; stroke:none; fill-opacity:0" cx="725.888" cy="573.05" r="2"/>
<circle clip-path="url(#clip442)" style="fill:#a6db9f; stroke:none; fill-opacity:0" cx="762.269" cy="573.05" r="2"/>
<circle clip-path="url(#clip442)" style="fill:#a6db9f; stroke:none; fill-opacity:0" cx="798.65" cy="573.05" r="2"/>
<circle clip-path="url(#clip442)" style="fill:#a6db9f; stroke:none; fill-opacity:0" cx="835.031" cy="555.481" r="2"/>
<circle clip-path="url(#clip442)" style="fill:#a6db9f; stroke:none; fill-opacity:0" cx="871.411" cy="555.481" r="2"/>
<circle clip-path="url(#clip442)" style="fill:#a6db9f; stroke:none; fill-opacity:0" cx="907.792" cy="555.481" r="2"/>
<circle clip-path="url(#clip442)" style="fill:#a6db9f; stroke:none; fill-opacity:0" cx="944.173" cy="555.481" r="2"/>
<circle clip-path="url(#clip442)" style="fill:#a6db9f; stroke:none; fill-opacity:0" cx="980.554" cy="555.481" r="2"/>
<circle clip-path="url(#clip442)" style="fill:#a6db9f; stroke:none; fill-opacity:0" cx="1016.93" cy="555.481" r="2"/>
<circle clip-path="url(#clip442)" style="fill:#a6db9f; stroke:none; fill-opacity:0" cx="1053.32" cy="555.481" r="2"/>
<circle clip-path="url(#clip442)" style="fill:#a6db9f; stroke:none; fill-opacity:0" cx="1089.7" cy="555.481" r="2"/>
<circle clip-path="url(#clip442)" style="fill:#a6db9f; stroke:none; fill-opacity:0" cx="1126.08" cy="555.481" r="2"/>
<path clip-path="url(#clip440)" d="M819.981 294.462 L1122.44 294.462 L1122.44 76.115 L819.981 76.115  Z" fill="#ffffff" fill-rule="evenodd" fill-opacity="1"/>
<polyline clip-path="url(#clip440)" style="stroke:#000000; stroke-linecap:round; stroke-linejoin:round; stroke-width:4; stroke-opacity:1; fill:none" points="819.981,294.462 1122.44,294.462 1122.44,76.115 819.981,76.115 819.981,294.462 "/>
<path clip-path="url(#clip440)" d="M830.087 152.537 L890.722 152.537 L890.722 108.867 L830.087 108.867 L830.087 152.537  Z" fill="#7a3193" fill-rule="evenodd" fill-opacity="1"/>
<polyline clip-path="url(#clip440)" style="stroke:#000000; stroke-linecap:round; stroke-linejoin:round; stroke-width:0.8; stroke-opacity:1; fill:none" points="830.087,152.537 890.722,152.537 890.722,108.867 830.087,108.867 830.087,152.537 "/>
<g clip-path="url(#clip440)">
<text style="fill:#000000; fill-opacity:1; font-family:Book Antiqua,Palatino,Palatino Linotype,Palatino LT STD,Georgia,serif; font-size:50px; text-anchor:start;" transform="rotate(0, 900.828, 148.202)" x="900.828" y="148.202">CCFDUC</text>
</g>
<path clip-path="url(#clip440)" d="M830.087 207.123 L890.722 207.123 L890.722 163.454 L830.087 163.454 L830.087 207.123  Z" fill="#c2a4cf" fill-rule="evenodd" fill-opacity="1"/>
<polyline clip-path="url(#clip440)" style="stroke:#000000; stroke-linecap:round; stroke-linejoin:round; stroke-width:0.8; stroke-opacity:1; fill:none" points="830.087,207.123 890.722,207.123 890.722,163.454 830.087,163.454 830.087,207.123 "/>
<g clip-path="url(#clip440)">
<text style="fill:#000000; fill-opacity:1; font-family:Book Antiqua,Palatino,Palatino Linotype,Palatino LT STD,Georgia,serif; font-size:50px; text-anchor:start;" transform="rotate(0, 900.828, 202.789)" x="900.828" y="202.789">FDUC</text>
</g>
<path clip-path="url(#clip440)" d="M830.087 261.71 L890.722 261.71 L890.722 218.041 L830.087 218.041 L830.087 261.71  Z" fill="#a6db9f" fill-rule="evenodd" fill-opacity="1"/>
<polyline clip-path="url(#clip440)" style="stroke:#000000; stroke-linecap:round; stroke-linejoin:round; stroke-width:0.8; stroke-opacity:1; fill:none" points="830.087,261.71 890.722,261.71 890.722,218.041 830.087,218.041 830.087,261.71 "/>
<g clip-path="url(#clip440)">
<text style="fill:#000000; fill-opacity:1; font-family:Book Antiqua,Palatino,Palatino Linotype,Palatino LT STD,Georgia,serif; font-size:50px; text-anchor:start;" transform="rotate(0, 900.828, 257.375)" x="900.828" y="257.375">TUC</text>
</g>
</svg>
