<?xml version="1.0" encoding="utf-8"?>
<svg xmlns="http://www.w3.org/2000/svg" xmlns:xlink="http://www.w3.org/1999/xlink" width="300" height="280" viewBox="0 0 1200 1120">
<defs>
  <clipPath id="clip160">
    <rect x="0" y="0" width="1200" height="1120"/>
  </clipPath>
</defs>
<path clip-path="url(#clip160)" d="M0 1120 L1200 1120 L1200 0 L0 0  Z" fill="#ffffff" fill-rule="evenodd" fill-opacity="1"/>
<defs>
  <clipPath id="clip161">
    <rect x="240" y="40" width="841" height="841"/>
  </clipPath>
</defs>
<path clip-path="url(#clip160)" d="M243.237 913.372 L1152.76 913.372 L1152.76 47.2441 L243.237 47.2441  Z" fill="#ffffff" fill-rule="evenodd" fill-opacity="1"/>
<defs>
  <clipPath id="clip162">
    <rect x="243" y="47" width="911" height="867"/>
  </clipPath>
</defs>
<polyline clip-path="url(#clip162)" style="stroke:#808080; stroke-linecap:round; stroke-linejoin:round; stroke-width:2; stroke-opacity:0.1; fill:none" points="268.978,913.372 268.978,47.2441 "/>
<polyline clip-path="url(#clip162)" style="stroke:#808080; stroke-linecap:round; stroke-linejoin:round; stroke-width:2; stroke-opacity:0.1; fill:none" points="340.481,913.372 340.481,47.2441 "/>
<polyline clip-path="url(#clip162)" style="stroke:#808080; stroke-linecap:round; stroke-linejoin:round; stroke-width:2; stroke-opacity:0.1; fill:none" points="411.984,913.372 411.984,47.2441 "/>
<polyline clip-path="url(#clip162)" style="stroke:#808080; stroke-linecap:round; stroke-linejoin:round; stroke-width:2; stroke-opacity:0.1; fill:none" points="483.487,913.372 483.487,47.2441 "/>
<polyline clip-path="url(#clip162)" style="stroke:#808080; stroke-linecap:round; stroke-linejoin:round; stroke-width:2; stroke-opacity:0.1; fill:none" points="554.99,913.372 554.99,47.2441 "/>
<polyline clip-path="url(#clip162)" style="stroke:#808080; stroke-linecap:round; stroke-linejoin:round; stroke-width:2; stroke-opacity:0.1; fill:none" points="626.493,913.372 626.493,47.2441 "/>
<polyline clip-path="url(#clip162)" style="stroke:#808080; stroke-linecap:round; stroke-linejoin:round; stroke-width:2; stroke-opacity:0.1; fill:none" points="697.996,913.372 697.996,47.2441 "/>
<polyline clip-path="url(#clip162)" style="stroke:#808080; stroke-linecap:round; stroke-linejoin:round; stroke-width:2; stroke-opacity:0.1; fill:none" points="769.499,913.372 769.499,47.2441 "/>
<polyline clip-path="url(#clip162)" style="stroke:#808080; stroke-linecap:round; stroke-linejoin:round; stroke-width:2; stroke-opacity:0.1; fill:none" points="841.002,913.372 841.002,47.2441 "/>
<polyline clip-path="url(#clip162)" style="stroke:#808080; stroke-linecap:round; stroke-linejoin:round; stroke-width:2; stroke-opacity:0.1; fill:none" points="912.506,913.372 912.506,47.2441 "/>
<polyline clip-path="url(#clip162)" style="stroke:#808080; stroke-linecap:round; stroke-linejoin:round; stroke-width:2; stroke-opacity:0.1; fill:none" points="984.009,913.372 984.009,47.2441 "/>
<polyline clip-path="url(#clip162)" style="stroke:#808080; stroke-linecap:round; stroke-linejoin:round; stroke-width:2; stroke-opacity:0.1; fill:none" points="1055.51,913.372 1055.51,47.2441 "/>
<polyline clip-path="url(#clip162)" style="stroke:#808080; stroke-linecap:round; stroke-linejoin:round; stroke-width:2; stroke-opacity:0.1; fill:none" points="1127.01,913.372 1127.01,47.2441 "/>
<polyline clip-path="url(#clip160)" style="stroke:#000000; stroke-linecap:round; stroke-linejoin:round; stroke-width:4; stroke-opacity:1; fill:none" points="243.237,913.372 1152.76,913.372 "/>
<polyline clip-path="url(#clip160)" style="stroke:#000000; stroke-linecap:round; stroke-linejoin:round; stroke-width:4; stroke-opacity:1; fill:none" points="243.237,47.2441 1152.76,47.2441 "/>
<polyline clip-path="url(#clip160)" style="stroke:#000000; stroke-linecap:round; stroke-linejoin:round; stroke-width:4; stroke-opacity:1; fill:none" points="268.978,913.372 268.978,894.474 "/>
<polyline clip-path="url(#clip160)" style="stroke:#000000; stroke-linecap:round; stroke-linejoin:round; stroke-width:4; stroke-opacity:1; fill:none" points="340.481,913.372 340.481,894.474 "/>
<polyline clip-path="url(#clip160)" style="stroke:#000000; stroke-linecap:round; stroke-linejoin:round; stroke-width:4; stroke-opacity:1; fill:none" points="411.984,913.372 411.984,894.474 "/>
<polyline clip-path="url(#clip160)" style="stroke:#000000; stroke-linecap:round; stroke-linejoin:round; stroke-width:4; stroke-opacity:1; fill:none" points="483.487,913.372 483.487,894.474 "/>
<polyline clip-path="url(#clip160)" style="stroke:#000000; stroke-linecap:round; stroke-linejoin:round; stroke-width:4; stroke-opacity:1; fill:none" points="554.99,913.372 554.99,894.474 "/>
<polyline clip-path="url(#clip160)" style="stroke:#000000; stroke-linecap:round; stroke-linejoin:round; stroke-width:4; stroke-opacity:1; fill:none" points="626.493,913.372 626.493,894.474 "/>
<polyline clip-path="url(#clip160)" style="stroke:#000000; stroke-linecap:round; stroke-linejoin:round; stroke-width:4; stroke-opacity:1; fill:none" points="697.996,913.372 697.996,894.474 "/>
<polyline clip-path="url(#clip160)" style="stroke:#000000; stroke-linecap:round; stroke-linejoin:round; stroke-width:4; stroke-opacity:1; fill:none" points="769.499,913.372 769.499,894.474 "/>
<polyline clip-path="url(#clip160)" style="stroke:#000000; stroke-linecap:round; stroke-linejoin:round; stroke-width:4; stroke-opacity:1; fill:none" points="841.002,913.372 841.002,894.474 "/>
<polyline clip-path="url(#clip160)" style="stroke:#000000; stroke-linecap:round; stroke-linejoin:round; stroke-width:4; stroke-opacity:1; fill:none" points="912.506,913.372 912.506,894.474 "/>
<polyline clip-path="url(#clip160)" style="stroke:#000000; stroke-linecap:round; stroke-linejoin:round; stroke-width:4; stroke-opacity:1; fill:none" points="984.009,913.372 984.009,894.474 "/>
<polyline clip-path="url(#clip160)" style="stroke:#000000; stroke-linecap:round; stroke-linejoin:round; stroke-width:4; stroke-opacity:1; fill:none" points="1055.51,913.372 1055.51,894.474 "/>
<polyline clip-path="url(#clip160)" style="stroke:#000000; stroke-linecap:round; stroke-linejoin:round; stroke-width:4; stroke-opacity:1; fill:none" points="1127.01,913.372 1127.01,894.474 "/>
<g clip-path="url(#clip160)">
<text style="fill:#000000; fill-opacity:1; font-family:Book Antiqua,Palatino,Palatino Linotype,Palatino LT STD,Georgia,serif; font-size:51px; font-weight:bold; text-anchor:middle;" transform="rotate(0, 268.978, 967.343)" x="268.978" y="967.343">0</text>
</g>
<g clip-path="url(#clip160)">
<text style="fill:#000000; fill-opacity:1; font-family:Book Antiqua,Palatino,Palatino Linotype,Palatino LT STD,Georgia,serif; font-size:51px; font-weight:bold; text-anchor:middle;" transform="rotate(0, 340.481, 967.343)" x="340.481" y="967.343">5</text>
</g>
<g clip-path="url(#clip160)">
<text style="fill:#000000; fill-opacity:1; font-family:Book Antiqua,Palatino,Palatino Linotype,Palatino LT STD,Georgia,serif; font-size:51px; font-weight:bold; text-anchor:middle;" transform="rotate(0, 411.984, 967.343)" x="411.984" y="967.343">10</text>
</g>
<g clip-path="url(#clip160)">
<text style="fill:#000000; fill-opacity:1; font-family:Book Antiqua,Palatino,Palatino Linotype,Palatino LT STD,Georgia,serif; font-size:51px; font-weight:bold; text-anchor:middle;" transform="rotate(0, 483.487, 967.343)" x="483.487" y="967.343">15</text>
</g>
<g clip-path="url(#clip160)">
<text style="fill:#000000; fill-opacity:1; font-family:Book Antiqua,Palatino,Palatino Linotype,Palatino LT STD,Georgia,serif; font-size:51px; font-weight:bold; text-anchor:middle;" transform="rotate(0, 554.99, 967.343)" x="554.99" y="967.343">20</text>
</g>
<g clip-path="url(#clip160)">
<text style="fill:#000000; fill-opacity:1; font-family:Book Antiqua,Palatino,Palatino Linotype,Palatino LT STD,Georgia,serif; font-size:51px; font-weight:bold; text-anchor:middle;" transform="rotate(0, 626.493, 967.343)" x="626.493" y="967.343">25</text>
</g>
<g clip-path="url(#clip160)">
<text style="fill:#000000; fill-opacity:1; font-family:Book Antiqua,Palatino,Palatino Linotype,Palatino LT STD,Georgia,serif; font-size:51px; font-weight:bold; text-anchor:middle;" transform="rotate(0, 697.996, 967.343)" x="697.996" y="967.343">30</text>
</g>
<g clip-path="url(#clip160)">
<text style="fill:#000000; fill-opacity:1; font-family:Book Antiqua,Palatino,Palatino Linotype,Palatino LT STD,Georgia,serif; font-size:51px; font-weight:bold; text-anchor:middle;" transform="rotate(0, 769.499, 967.343)" x="769.499" y="967.343">35</text>
</g>
<g clip-path="url(#clip160)">
<text style="fill:#000000; fill-opacity:1; font-family:Book Antiqua,Palatino,Palatino Linotype,Palatino LT STD,Georgia,serif; font-size:51px; font-weight:bold; text-anchor:middle;" transform="rotate(0, 841.002, 967.343)" x="841.002" y="967.343">40</text>
</g>
<g clip-path="url(#clip160)">
<text style="fill:#000000; fill-opacity:1; font-family:Book Antiqua,Palatino,Palatino Linotype,Palatino LT STD,Georgia,serif; font-size:51px; font-weight:bold; text-anchor:middle;" transform="rotate(0, 912.506, 967.343)" x="912.506" y="967.343">45</text>
</g>
<g clip-path="url(#clip160)">
<text style="fill:#000000; fill-opacity:1; font-family:Book Antiqua,Palatino,Palatino Linotype,Palatino LT STD,Georgia,serif; font-size:51px; font-weight:bold; text-anchor:middle;" transform="rotate(0, 984.009, 967.343)" x="984.009" y="967.343">50</text>
</g>
<g clip-path="url(#clip160)">
<text style="fill:#000000; fill-opacity:1; font-family:Book Antiqua,Palatino,Palatino Linotype,Palatino LT STD,Georgia,serif; font-size:51px; font-weight:bold; text-anchor:middle;" transform="rotate(0, 1055.51, 967.343)" x="1055.51" y="967.343">55</text>
</g>
<g clip-path="url(#clip160)">
<text style="fill:#000000; fill-opacity:1; font-family:Book Antiqua,Palatino,Palatino Linotype,Palatino LT STD,Georgia,serif; font-size:51px; font-weight:bold; text-anchor:middle;" transform="rotate(0, 1127.01, 967.343)" x="1127.01" y="967.343">60</text>
</g>
<path clip-path="url(#clip160)" d="M674.824 1002.26 Q674.824 1003.16 674.405 1003.39 Q673.987 1003.58 672.827 1003.58 L666.644 1003.58 L661.748 1023.03 Q661.362 1024.74 661.362 1026.19 Q661.362 1027.8 661.845 1028.51 Q662.36 1029.22 663.423 1029.22 Q665.517 1029.22 667.771 1027.32 Q670.058 1025.42 671.99 1020.78 Q672.248 1020.17 672.376 1020.04 Q672.537 1019.88 672.956 1019.88 Q673.761 1019.88 673.761 1020.52 Q673.761 1020.75 673.31 1021.78 Q672.892 1022.81 671.958 1024.32 Q671.056 1025.84 669.864 1027.25 Q668.705 1028.67 666.934 1029.7 Q665.162 1030.7 663.262 1030.7 Q660.589 1030.7 658.882 1028.99 Q657.207 1027.29 657.207 1024.61 Q657.207 1023.74 657.884 1020.97 Q658.56 1018.17 662.232 1003.58 L656.402 1003.58 Q655.597 1003.58 655.275 1003.55 Q654.985 1003.52 654.76 1003.36 Q654.567 1003.16 654.567 1002.78 Q654.567 1002.17 654.824 1001.91 Q655.082 1001.62 655.404 1001.59 Q655.758 1001.52 656.563 1001.52 L662.747 1001.52 L665.323 991.054 Q665.581 990.023 666.225 989.444 Q666.901 988.832 667.288 988.767 Q667.674 988.671 667.964 988.671 Q668.834 988.671 669.349 989.154 Q669.864 989.605 669.864 990.442 Q669.864 990.893 667.159 1001.52 L672.956 1001.52 Q673.697 1001.52 673.987 1001.55 Q674.309 1001.59 674.566 1001.75 Q674.824 1001.91 674.824 1002.26 Z" fill="#000000" fill-rule="nonzero" fill-opacity="1" /><path clip-path="url(#clip160)" d="M678.14 1045.51 Q678.14 1045.19 678.397 1044.48 L701.682 982.262 Q701.682 982.197 701.843 981.843 Q702.004 981.489 702.101 981.263 Q702.197 981.006 702.391 980.813 Q702.616 980.619 702.874 980.619 Q703.518 980.619 703.518 981.425 Q703.518 981.489 703.325 982.262 L679.975 1044.55 Q679.589 1045.68 679.331 1046 Q679.106 1046.32 678.719 1046.32 Q678.14 1046.32 678.14 1045.51 Z" fill="#000000" fill-rule="nonzero" fill-opacity="1" /><path clip-path="url(#clip160)" d="M735.087 1006.48 Q735.087 1008.28 734.185 1009.25 Q733.283 1010.18 732.059 1010.18 Q731.061 1010.18 730.514 1009.6 Q729.998 1009.02 729.998 1008.25 Q729.998 1007.12 730.9 1006.22 Q731.834 1005.32 733.187 1005.29 Q732.736 1004.1 731.544 1003.39 Q730.353 1002.65 729.29 1002.45 Q728.259 1002.26 727.229 1002.26 Q725.2 1002.26 723.654 1002.91 Q722.108 1003.55 721.335 1004.55 Q720.562 1005.51 720.208 1006.45 Q719.853 1007.38 719.853 1008.19 Q719.853 1008.9 720.014 1009.48 Q720.208 1010.02 720.659 1010.44 Q721.109 1010.83 721.432 1011.09 Q721.786 1011.34 722.559 1011.57 Q723.332 1011.79 723.654 1011.89 Q723.976 1011.96 724.878 1012.15 Q726.745 1012.54 727.583 1012.76 Q728.42 1012.95 729.515 1013.5 Q730.642 1014.05 731.48 1014.92 Q733.509 1016.95 733.509 1019.75 Q733.509 1020.78 733.154 1022.04 Q732.832 1023.29 731.898 1024.87 Q730.964 1026.45 729.547 1027.7 Q728.13 1028.96 725.683 1029.83 Q723.267 1030.7 720.24 1030.7 Q716.021 1030.7 713.412 1028.93 Q710.804 1027.12 710.804 1024.29 Q710.804 1022.23 711.931 1021.1 Q713.058 1019.94 714.507 1019.94 Q715.602 1019.94 716.279 1020.55 Q716.955 1021.13 716.955 1022.23 Q716.955 1023.71 715.763 1024.84 Q714.572 1025.97 712.8 1025.74 Q714.314 1029.22 720.304 1029.22 Q722.559 1029.22 724.298 1028.64 Q726.069 1028.03 727.035 1027.19 Q728.034 1026.32 728.678 1025.26 Q729.322 1024.19 729.515 1023.39 Q729.741 1022.58 729.741 1021.97 Q729.741 1020.91 729.322 1020.1 Q728.903 1019.3 728.324 1018.85 Q727.776 1018.36 726.713 1017.98 Q725.683 1017.56 724.942 1017.4 Q724.201 1017.24 722.881 1016.98 Q722.269 1016.85 721.882 1016.79 Q721.496 1016.69 720.691 1016.43 Q719.918 1016.14 719.37 1015.85 Q718.855 1015.56 718.179 1015.05 Q717.502 1014.53 717.084 1013.92 Q716.665 1013.31 716.375 1012.41 Q716.085 1011.5 716.085 1010.44 Q716.085 1009.48 716.375 1008.32 Q716.697 1007.16 717.502 1005.8 Q718.34 1004.45 719.531 1003.36 Q720.723 1002.26 722.72 1001.55 Q724.749 1000.81 727.229 1000.81 Q730.836 1000.81 732.961 1002.49 Q735.087 1004.13 735.087 1006.48 Z" fill="#000000" fill-rule="nonzero" fill-opacity="1" /><polyline clip-path="url(#clip162)" style="stroke:#808080; stroke-linecap:round; stroke-linejoin:round; stroke-width:2; stroke-opacity:0.1; fill:none" points="243.237,913.372 1152.76,913.372 "/>
<polyline clip-path="url(#clip162)" style="stroke:#808080; stroke-linecap:round; stroke-linejoin:round; stroke-width:2; stroke-opacity:0.1; fill:none" points="243.237,696.84 1152.76,696.84 "/>
<polyline clip-path="url(#clip162)" style="stroke:#808080; stroke-linecap:round; stroke-linejoin:round; stroke-width:2; stroke-opacity:0.1; fill:none" points="243.237,480.308 1152.76,480.308 "/>
<polyline clip-path="url(#clip162)" style="stroke:#808080; stroke-linecap:round; stroke-linejoin:round; stroke-width:2; stroke-opacity:0.1; fill:none" points="243.237,263.776 1152.76,263.776 "/>
<polyline clip-path="url(#clip162)" style="stroke:#808080; stroke-linecap:round; stroke-linejoin:round; stroke-width:2; stroke-opacity:0.1; fill:none" points="243.237,47.2441 1152.76,47.2441 "/>
<polyline clip-path="url(#clip160)" style="stroke:#000000; stroke-linecap:round; stroke-linejoin:round; stroke-width:4; stroke-opacity:1; fill:none" points="243.237,913.372 243.237,47.2441 "/>
<polyline clip-path="url(#clip160)" style="stroke:#000000; stroke-linecap:round; stroke-linejoin:round; stroke-width:4; stroke-opacity:1; fill:none" points="1152.76,913.372 1152.76,47.2441 "/>
<polyline clip-path="url(#clip160)" style="stroke:#000000; stroke-linecap:round; stroke-linejoin:round; stroke-width:4; stroke-opacity:1; fill:none" points="243.237,913.372 262.134,913.372 "/>
<polyline clip-path="url(#clip160)" style="stroke:#000000; stroke-linecap:round; stroke-linejoin:round; stroke-width:4; stroke-opacity:1; fill:none" points="243.237,696.84 262.134,696.84 "/>
<polyline clip-path="url(#clip160)" style="stroke:#000000; stroke-linecap:round; stroke-linejoin:round; stroke-width:4; stroke-opacity:1; fill:none" points="243.237,480.308 262.134,480.308 "/>
<polyline clip-path="url(#clip160)" style="stroke:#000000; stroke-linecap:round; stroke-linejoin:round; stroke-width:4; stroke-opacity:1; fill:none" points="243.237,263.776 262.134,263.776 "/>
<polyline clip-path="url(#clip160)" style="stroke:#000000; stroke-linecap:round; stroke-linejoin:round; stroke-width:4; stroke-opacity:1; fill:none" points="243.237,47.2441 262.134,47.2441 "/>
<g clip-path="url(#clip160)">
<text style="fill:#000000; fill-opacity:1; font-family:Book Antiqua,Palatino,Palatino Linotype,Palatino LT STD,Georgia,serif; font-size:51px; font-weight:bold; text-anchor:middle;" transform="rotate(0, 182.252, 930.872)" x="182.252" y="930.872">−0.6</text>
</g>
<g clip-path="url(#clip160)">
<text style="fill:#000000; fill-opacity:1; font-family:Book Antiqua,Palatino,Palatino Linotype,Palatino LT STD,Georgia,serif; font-size:51px; font-weight:bold; text-anchor:middle;" transform="rotate(0, 182.252, 714.34)" x="182.252" y="714.34">−0.4</text>
</g>
<g clip-path="url(#clip160)">
<text style="fill:#000000; fill-opacity:1; font-family:Book Antiqua,Palatino,Palatino Linotype,Palatino LT STD,Georgia,serif; font-size:51px; font-weight:bold; text-anchor:middle;" transform="rotate(0, 182.252, 497.808)" x="182.252" y="497.808">−0.2</text>
</g>
<g clip-path="url(#clip160)">
<text style="fill:#000000; fill-opacity:1; font-family:Book Antiqua,Palatino,Palatino Linotype,Palatino LT STD,Georgia,serif; font-size:51px; font-weight:bold; text-anchor:middle;" transform="rotate(0, 193.519, 281.276)" x="193.519" y="281.276">0.0</text>
</g>
<g clip-path="url(#clip160)">
<text style="fill:#000000; fill-opacity:1; font-family:Book Antiqua,Palatino,Palatino Linotype,Palatino LT STD,Georgia,serif; font-size:51px; font-weight:bold; text-anchor:middle;" transform="rotate(0, 193.519, 64.7441)" x="193.519" y="64.7441">0.2</text>
</g>
<path clip-path="url(#clip160)" d="M108.444 624.67 Q108.186 624.67 106.512 623.8 Q104.805 622.931 98.7179 619.871 Q92.5988 616.811 86.1898 613.655 L63.3237 602.287 Q61.8744 601.482 61.8744 600.451 Q61.8744 599.517 62.4541 599.098 Q63.0338 598.68 66.9307 596.747 Q68.8309 595.749 70.0547 595.169 L107.381 576.522 Q108.186 576.2 108.444 576.168 Q109.088 576.168 109.088 577.295 L109.088 622.931 Q109.088 624.67 108.444 624.67 M104.064 620.322 L104.064 584.831 L68.4444 602.577 L104.064 620.322 Z" fill="#000000" fill-rule="nonzero" fill-opacity="1" /><path clip-path="url(#clip160)" d="M67.124 537.137 Q68.8953 537.137 69.9903 538.264 Q71.0853 539.359 71.0853 540.744 Q71.0853 541.742 70.4734 542.483 Q69.8614 543.191 68.7987 543.191 Q67.7037 543.191 66.5442 542.354 Q65.3848 541.517 65.2238 539.616 Q64.0322 540.872 64.0322 542.869 Q64.0322 543.868 64.6763 544.705 Q65.2882 545.51 66.2866 545.961 Q67.3172 546.444 73.1464 547.539 Q75.0466 547.893 76.8823 548.215 Q78.7181 548.537 80.6504 548.924 L80.6504 543.449 Q80.6504 542.74 80.6826 542.451 Q80.7148 542.161 80.8759 541.935 Q81.0369 541.678 81.3911 541.678 Q82.2929 541.678 82.5184 542.096 Q82.7116 542.483 82.7116 543.642 L82.7116 549.31 L103.613 553.272 Q104.225 553.368 106.157 553.787 Q108.058 554.173 111.182 555.107 Q114.338 556.041 116.206 556.975 Q117.268 557.491 118.267 558.167 Q119.297 558.811 120.328 559.745 Q121.359 560.679 121.971 561.903 Q122.615 563.127 122.615 564.415 Q122.615 566.605 121.391 568.312 Q120.167 570.019 118.074 570.019 Q116.302 570.019 115.207 568.924 Q114.112 567.797 114.112 566.412 Q114.112 565.413 114.724 564.705 Q115.336 563.964 116.399 563.964 Q116.85 563.964 117.365 564.125 Q117.88 564.286 118.46 564.64 Q119.072 564.995 119.491 565.768 Q119.909 566.541 119.974 567.603 Q121.165 566.347 121.165 564.415 Q121.165 563.803 120.908 563.256 Q120.682 562.708 120.103 562.257 Q119.523 561.774 118.943 561.42 Q118.396 561.066 117.333 560.711 Q116.302 560.357 115.529 560.132 Q114.756 559.906 113.372 559.616 Q111.987 559.294 111.149 559.133 Q110.344 558.972 108.766 558.682 L82.7116 553.755 L82.7116 558.103 Q82.7116 558.876 82.6794 559.198 Q82.6472 559.487 82.4861 559.713 Q82.2929 559.938 81.9064 559.938 Q81.2945 559.938 81.0369 559.681 Q80.747 559.391 80.7148 559.069 Q80.6504 558.747 80.6504 557.974 L80.6504 553.401 Q72.5023 551.855 70.3123 551.243 Q67.9935 550.534 66.3832 549.439 Q64.7407 548.344 63.9678 547.12 Q63.1948 545.897 62.905 544.898 Q62.5829 543.868 62.5829 542.869 Q62.5829 540.615 63.8067 538.876 Q64.9984 537.137 67.124 537.137 Z" fill="#000000" fill-rule="nonzero" fill-opacity="1" /><path clip-path="url(#clip160)" d="M92.5988 528.257 Q81.4556 528.257 72.4701 524.102 Q68.702 522.331 65.5459 519.851 Q62.3897 517.371 61.0048 515.729 Q59.62 514.086 59.62 513.635 Q59.62 512.991 60.2641 512.959 Q60.5862 512.959 61.3913 513.828 Q72.2125 524.456 92.5988 524.424 Q113.05 524.424 123.452 514.086 Q124.579 512.959 124.933 512.959 Q125.578 512.959 125.578 513.635 Q125.578 514.086 124.257 515.664 Q122.937 517.242 119.909 519.69 Q116.882 522.137 113.178 523.909 Q104.193 528.257 92.5988 528.257 Z" fill="#000000" fill-rule="nonzero" fill-opacity="1" /><path clip-path="url(#clip160)" d="M81.3911 487.688 Q82.2929 487.688 82.5184 488.106 Q82.7116 488.525 82.7116 489.684 L82.7116 495.868 L102.164 500.763 Q103.871 501.15 105.32 501.15 Q106.93 501.15 107.639 500.667 Q108.347 500.151 108.347 499.089 Q108.347 496.995 106.447 494.741 Q104.547 492.454 99.9095 490.522 Q99.2976 490.264 99.1688 490.135 Q99.0078 489.974 99.0078 489.556 Q99.0078 488.75 99.6519 488.75 Q99.8773 488.75 100.908 489.201 Q101.938 489.62 103.452 490.554 Q104.966 491.456 106.383 492.647 Q107.8 493.807 108.831 495.578 Q109.829 497.349 109.829 499.25 Q109.829 501.923 108.122 503.63 Q106.415 505.304 103.742 505.304 Q102.872 505.304 100.103 504.628 Q97.3008 503.952 82.7116 500.28 L82.7116 506.109 Q82.7116 506.915 82.6794 507.237 Q82.6472 507.527 82.4861 507.752 Q82.2929 507.945 81.9064 507.945 Q81.2945 507.945 81.0369 507.688 Q80.747 507.43 80.7148 507.108 Q80.6504 506.754 80.6504 505.948 L80.6504 499.765 L70.1835 497.188 Q69.1529 496.931 68.5732 496.287 Q67.9613 495.61 67.8969 495.224 Q67.8003 494.837 67.8003 494.548 Q67.8003 493.678 68.2834 493.163 Q68.7342 492.647 69.5716 492.647 Q70.0225 492.647 80.6504 495.353 L80.6504 489.556 Q80.6504 488.815 80.6826 488.525 Q80.7148 488.203 80.8759 487.945 Q81.0369 487.688 81.3911 487.688 Z" fill="#000000" fill-rule="nonzero" fill-opacity="1" /><path clip-path="url(#clip160)" d="M124.933 482.524 Q124.611 482.524 123.806 481.687 Q112.985 471.059 92.5988 471.059 Q72.1481 471.059 61.81 481.268 Q60.6184 482.524 60.2641 482.524 Q59.62 482.524 59.62 481.88 Q59.62 481.429 60.9404 479.851 Q62.2609 478.241 65.2882 475.825 Q68.3156 473.378 72.0192 471.574 Q81.0047 467.226 92.5988 467.226 Q103.742 467.226 112.727 471.381 Q116.496 473.152 119.652 475.632 Q122.808 478.112 124.193 479.754 Q125.578 481.397 125.578 481.88 Q125.578 482.524 124.933 482.524 Z" fill="#000000" fill-rule="nonzero" fill-opacity="1" /><path clip-path="url(#clip160)" d="M124.644 457.197 Q124.322 457.197 123.613 456.939 L61.3913 433.654 Q61.3269 433.654 60.9726 433.493 Q60.6184 433.332 60.3929 433.236 Q60.1353 433.139 59.942 432.946 Q59.7488 432.72 59.7488 432.463 Q59.7488 431.819 60.554 431.819 Q60.6184 431.819 61.3913 432.012 L123.677 455.361 Q124.805 455.748 125.127 456.005 Q125.449 456.231 125.449 456.617 Q125.449 457.197 124.644 457.197 Z" fill="#000000" fill-rule="nonzero" fill-opacity="1" /><path clip-path="url(#clip160)" d="M64.7729 369.01 Q65.7069 369.01 65.9001 369.428 Q66.0934 369.815 66.0934 371.232 Q66.0934 373.647 66.4154 374.742 Q66.7053 375.805 67.2206 376.127 Q67.7037 376.417 69.1207 376.771 L104.74 385.692 Q104.773 385.692 105.223 385.789 Q105.642 385.886 105.868 385.886 Q106.286 385.886 106.544 385.628 Q106.802 385.338 106.93 384.63 Q107.027 383.921 107.059 383.374 Q107.059 382.794 107.059 381.602 Q107.059 380.121 107.317 379.895 Q107.478 379.767 107.768 379.767 Q108.38 379.767 108.702 380.024 Q108.992 380.25 109.056 380.475 Q109.088 380.668 109.088 381.055 Q109.088 381.731 109.024 383.18 Q108.959 384.63 108.959 385.37 L108.895 389.589 L109.088 397.963 Q109.088 398.865 108.347 398.865 Q107.703 398.865 107.413 398.639 Q107.124 398.414 107.091 398.188 Q107.059 397.931 107.059 397.287 Q107.059 393.969 106.737 392.874 Q106.383 391.747 104.869 391.296 L86.6729 386.755 L86.6729 406.852 L104.74 411.361 Q104.773 411.361 105.223 411.457 Q105.642 411.554 105.868 411.554 Q106.286 411.554 106.544 411.296 Q106.802 411.006 106.93 410.298 Q107.027 409.589 107.059 409.042 Q107.059 408.462 107.059 407.27 Q107.059 405.789 107.317 405.531 Q107.478 405.402 107.768 405.402 Q108.219 405.402 108.541 405.531 Q108.831 405.628 108.927 405.886 Q109.024 406.111 109.056 406.272 Q109.088 406.433 109.088 406.723 Q109.088 407.399 109.024 408.848 Q108.959 410.266 108.959 411.006 L108.895 415.225 L109.088 423.599 Q109.088 424.533 108.347 424.533 Q107.703 424.533 107.446 424.307 Q107.156 424.082 107.124 423.792 Q107.059 423.502 107.059 422.761 Q107.059 421.151 106.963 420.185 Q106.866 419.219 106.737 418.607 Q106.576 417.963 106.125 417.641 Q105.674 417.286 105.288 417.125 Q104.869 416.964 103.935 416.739 L68.5088 407.914 Q67.446 407.657 67.285 407.657 Q66.6731 407.657 66.512 408.043 Q66.3188 408.398 66.2222 409.428 L66.0934 411.94 Q66.0934 412.713 66.0612 413.035 Q66.029 413.325 65.8679 413.551 Q65.7069 413.776 65.3526 413.776 Q64.9017 413.776 64.6119 413.679 Q64.2898 413.551 64.1932 413.325 Q64.0966 413.1 64.0644 412.939 Q64.0322 412.778 64.0322 412.52 L64.2254 404.018 L64.0322 395.58 Q64.0322 394.646 64.7729 394.646 Q65.7069 394.646 65.9001 395.064 Q66.0934 395.483 66.0934 396.9 Q66.0934 399.251 66.4154 400.346 Q66.7053 401.441 67.2206 401.795 Q67.7359 402.117 69.1207 402.439 L84.6117 406.336 L84.6117 386.208 L68.5088 382.246 Q67.3494 381.989 67.285 381.989 Q66.6731 381.989 66.512 382.375 Q66.3188 382.73 66.2222 383.76 L66.0934 386.272 Q66.0934 387.045 66.0612 387.367 Q66.029 387.657 65.8679 387.915 Q65.7069 388.14 65.3526 388.14 Q64.9017 388.14 64.6119 388.043 Q64.2898 387.915 64.1932 387.689 Q64.0966 387.464 64.0644 387.303 Q64.0322 387.142 64.0322 386.884 L64.2254 378.382 L64.0322 369.912 Q64.0322 369.01 64.7729 369.01 Z" fill="#000000" fill-rule="nonzero" fill-opacity="1" /><path clip-path="url(#clip160)" d="M80.586 338.359 Q80.8114 338.359 81.7776 338.906 Q82.7116 339.421 85.0626 341.322 Q87.4136 343.222 90.1511 346.056 Q91.2139 347.119 92.6954 348.729 Q94.1769 350.339 95.1431 351.434 L96.1092 352.529 Q99.6519 356.716 103.613 360.387 Q103.517 360.13 103.484 359.679 Q103.42 359.228 103.42 358.906 L103.42 358.584 Q103.42 356.909 104.547 353.979 Q105.385 351.402 105.385 350.082 Q105.385 348.793 104.934 347.376 Q104.483 345.959 103.162 344.413 Q101.842 342.868 99.8451 342.159 Q99.523 342.03 99.4264 341.966 Q99.2976 341.901 99.1688 341.708 Q99.0078 341.515 99.0078 341.257 Q99.0078 340.903 99.201 340.678 Q99.3942 340.452 99.6519 340.452 Q100.232 340.452 101.391 340.903 Q102.55 341.322 104 342.256 Q105.449 343.157 106.769 344.349 Q108.058 345.508 108.959 347.248 Q109.829 348.987 109.829 350.822 Q109.829 352.143 109.185 353.109 Q108.573 354.075 107.381 355.041 Q105.868 356.362 105.385 357.07 Q104.869 357.779 104.869 358.874 Q104.869 361.805 108.959 364.478 Q109.539 364.767 109.668 364.961 Q109.829 365.122 109.829 365.508 Q109.797 366.313 109.153 366.313 Q108.895 366.313 107.768 365.605 Q106.608 364.864 104.579 363.222 Q102.55 361.547 100.521 359.518 L94.982 353.592 Q89.4426 347.022 86.3186 344.413 Q86.3186 345.508 86.2864 345.991 Q86.2542 346.442 86.061 347.344 Q85.8356 348.246 85.3525 349.502 Q84.3541 352.433 84.3541 353.656 Q84.3541 353.979 84.3863 354.333 Q84.4185 354.687 84.5795 355.492 Q84.7406 356.265 85.0626 356.909 Q85.3525 357.553 85.9966 358.23 Q86.6085 358.906 87.4458 359.26 Q87.7035 359.357 87.8323 359.421 Q87.9611 359.486 88.09 359.679 Q88.1866 359.84 88.1866 360.098 Q88.1866 360.484 87.9611 360.71 Q87.7357 360.903 87.4458 360.903 Q86.8661 360.903 85.6745 360.323 Q84.4829 359.743 83.1947 358.777 Q81.8742 357.811 80.9081 356.233 Q79.9419 354.655 79.9419 352.916 Q79.9419 351.885 80.3928 351.016 Q80.8436 350.114 81.3267 349.663 Q81.7776 349.18 82.776 348.375 Q83.5489 347.698 83.871 347.376 Q84.1931 347.054 84.5473 346.41 Q84.8694 345.734 84.8694 344.993 Q84.8694 343.769 83.9354 342.642 Q82.9692 341.515 80.6504 340.066 Q79.9419 339.679 79.9419 339.067 Q79.9419 338.359 80.586 338.359 Z" fill="#000000" fill-rule="nonzero" fill-opacity="1" /><polyline clip-path="url(#clip162)" style="stroke:#009af9; stroke-linecap:round; stroke-linejoin:round; stroke-width:8; stroke-opacity:1; fill:none" points="268.978,263.776 269.693,584.93 270.408,719.867 271.123,773.678 271.838,792.86 272.553,797.298 273.268,795.494 273.983,791.084 274.698,785.622 275.413,779.77 276.128,773.812 276.843,767.866 277.558,761.985 278.273,756.187 278.988,750.481 279.703,744.869 280.418,739.352 281.133,733.928 281.848,728.596 282.563,723.354 283.279,718.202 283.994,713.138 284.709,708.16 285.424,703.266 286.139,698.456 286.854,693.728 287.569,689.08 288.284,684.511 288.999,680.02 289.714,675.606 290.429,671.267 291.144,667.001 291.859,662.809 292.574,658.687 293.289,654.636 294.004,650.654 294.719,646.739 295.434,642.892 296.149,639.109 296.864,635.391 297.579,631.737 298.294,628.144 299.009,624.613 299.724,621.142 300.439,617.73 301.154,614.376 301.869,611.079 302.584,607.839 303.299,604.653 304.014,601.522 304.729,598.444 305.444,595.418 306.159,592.444 306.875,589.521 307.59,586.647 308.305,583.822 309.02,581.046 309.735,578.316 310.45,575.633 311.165,572.996 311.88,570.404 312.595,567.856 313.31,565.351 314.025,562.889 314.74,560.468 315.455,558.089 316.17,555.751 316.885,553.452 317.6,551.192 318.315,548.971 319.03,546.788 319.745,544.642 320.46,542.532 321.175,540.458 321.89,538.42 322.605,536.416 323.32,534.447 324.035,532.511 324.75,530.608 325.465,528.737 326.18,526.898 326.895,525.091 327.61,523.314 328.325,521.567 329.04,519.851 329.756,518.163 330.471,516.504 331.186,514.874 331.901,513.271 332.616,511.695 333.331,510.147 334.046,508.624 334.761,507.128 335.476,505.657 336.191,504.211 336.906,502.79 337.621,501.393 338.336,500.019 339.051,498.669 339.766,497.342 340.481,496.038 341.196,494.756 341.911,493.496 342.626,492.257 343.341,491.039 344.056,489.842 344.771,488.665 345.486,487.509 346.201,486.372 346.916,485.254 347.631,484.155 348.346,483.076 349.061,482.014 349.776,480.971 350.491,479.945 351.206,478.937 351.921,477.946 352.636,476.972 353.352,476.014 354.067,475.073 354.782,474.148 355.497,473.238 356.212,472.344 356.927,471.466 357.642,470.602 358.357,469.753 359.072,468.918 359.787,468.098 360.502,467.291 361.217,466.498 361.932,465.719 362.647,464.953 363.362,464.2 364.077,463.46 364.792,462.733 365.507,462.017 366.222,461.314 366.937,460.623 367.652,459.944 368.367,459.277 369.082,458.62 369.797,457.975 370.512,457.341 371.227,456.718 371.942,456.105 372.657,455.503 373.372,454.911 374.087,454.329 374.802,453.757 375.517,453.194 376.233,452.641 376.948,452.098 377.663,451.564 378.378,451.039 379.093,450.523 379.808,450.016 380.523,449.517 381.238,449.027 381.953,448.545 382.668,448.072 383.383,447.606 384.098,447.148 384.813,446.699 385.528,446.256 386.243,445.822 386.958,445.395 387.673,444.975 388.388,444.562 389.103,444.156 389.818,443.757 390.533,443.365 391.248,442.98 391.963,442.601 392.678,442.228 393.393,441.862 394.108,441.503 394.823,441.149 395.538,440.801 396.253,440.459 396.968,440.123 397.683,439.793 398.398,439.469 399.113,439.15 399.829,438.836 400.544,438.528 401.259,438.225 401.974,437.927 402.689,437.634 403.404,437.346 404.119,437.063 404.834,436.785 405.549,436.512 406.264,436.243 406.979,435.979 407.694,435.719 408.409,435.464 409.124,435.213 409.839,434.966 410.554,434.724 411.269,434.486 411.984,434.251 412.699,434.021 413.414,433.795 414.129,433.572 414.844,433.354 415.559,433.139 416.274,432.927 416.989,432.72 417.704,432.515 418.419,432.315 419.134,432.117 419.849,431.924 420.564,431.733 421.279,431.546 421.994,431.361 422.71,431.18 423.425,431.002 424.14,430.827 424.855,430.655 425.57,430.486 426.285,430.32 427,430.157 427.715,429.996 428.43,429.839 429.145,429.683 429.86,429.531 430.575,429.381 431.29,429.234 432.005,429.089 432.72,428.947 433.435,428.807 434.15,428.669 434.865,428.534 435.58,428.401 436.295,428.27 437.01,428.142 437.725,428.016 438.44,427.892 439.155,427.77 439.87,427.65 440.585,427.532 441.3,427.416 442.015,427.302 442.73,427.19 443.445,427.08 444.16,426.972 444.875,426.866 445.59,426.761 446.306,426.658 447.021,426.557 447.736,426.458 448.451,426.361 449.166,426.265 449.881,426.17 450.596,426.078 451.311,425.987 452.026,425.897 452.741,425.809 453.456,425.723 454.171,425.637 454.886,425.554 455.601,425.472 456.316,425.391 457.031,425.312 457.746,425.233 458.461,425.157 459.176,425.081 459.891,425.007 460.606,424.934 461.321,424.863 462.036,424.792 462.751,424.723 463.466,424.655 464.181,424.588 464.896,424.522 465.611,424.458 466.326,424.394 467.041,424.332 467.756,424.27 468.471,424.21 469.187,424.151 469.902,424.093 470.617,424.035 471.332,423.979 472.047,423.924 472.762,423.869 473.477,423.816 474.192,423.763 474.907,423.711 475.622,423.661 476.337,423.611 477.052,423.562 477.767,423.513 478.482,423.466 479.197,423.419 479.912,423.373 480.627,423.328 481.342,423.284 482.057,423.241 482.772,423.198 483.487,423.156 484.202,423.114 484.917,423.074 485.632,423.034 486.347,422.994 487.062,422.956 487.777,422.918 488.492,422.881 489.207,422.844 489.922,422.808 490.637,422.772 491.352,422.738 492.067,422.703 492.783,422.67 493.498,422.637 494.213,422.604 494.928,422.572 495.643,422.541 496.358,422.51 497.073,422.48 497.788,422.45 498.503,422.42 499.218,422.392 499.933,422.363 500.648,422.335 501.363,422.308 502.078,422.281 502.793,422.255 503.508,422.229 504.223,422.203 504.938,422.178 505.653,422.153 506.368,422.129 507.083,422.105 507.798,422.082 508.513,422.059 509.228,422.036 509.943,422.014 510.658,421.992 511.373,421.97 512.088,421.949 512.803,421.928 513.518,421.908 514.233,421.888 514.948,421.868 515.664,421.848 516.379,421.829 517.094,421.811 517.809,421.792 518.524,421.774 519.239,421.756 519.954,421.739 520.669,421.721 521.384,421.704 522.099,421.688 522.814,421.671 523.529,421.655 524.244,421.64 524.959,421.624 525.674,421.609 526.389,421.594 527.104,421.579 527.819,421.564 528.534,421.55 529.249,421.536 529.964,421.522 530.679,421.509 531.394,421.496 532.109,421.482 532.824,421.47 533.539,421.457 534.254,421.445 534.969,421.432 535.684,421.42 536.399,421.409 537.114,421.397 537.829,421.386 538.544,421.374 539.26,421.363 539.975,421.352 540.69,421.342 541.405,421.331 542.12,421.321 542.835,421.311 543.55,421.301 544.265,421.291 544.98,421.282 545.695,421.272 546.41,421.263 547.125,421.254 547.84,421.245 548.555,421.236 549.27,421.227 549.985,421.219 550.7,421.21 551.415,421.202 552.13,421.194 552.845,421.186 553.56,421.178 554.275,421.171 554.99,421.163 555.705,421.156 556.42,421.148 557.135,421.141 557.85,421.134 558.565,421.127 559.28,421.12 559.995,421.114 560.71,421.107 561.425,421.101 562.141,421.094 562.856,421.088 563.571,421.082 564.286,421.076 565.001,421.07 565.716,421.064 566.431,421.058 567.146,421.053 567.861,421.047 568.576,421.042 569.291,421.036 570.006,421.031 570.721,421.026 571.436,421.021 572.151,421.016 572.866,421.011 573.581,421.006 574.296,421.001 575.011,420.997 575.726,420.992 576.441,420.987 577.156,420.983 577.871,420.979 578.586,420.974 579.301,420.97 580.016,420.966 580.731,420.962 581.446,420.958 582.161,420.954 582.876,420.95 583.591,420.946 584.306,420.943 585.021,420.939 585.737,420.935 586.452,420.932 587.167,420.928 587.882,420.925 588.597,420.922 589.312,420.918 590.027,420.915 590.742,420.912 591.457,420.909 592.172,420.906 592.887,420.902 593.602,420.899 594.317,420.897 595.032,420.894 595.747,420.891 596.462,420.888 597.177,420.885 597.892,420.883 598.607,420.88 599.322,420.877 600.037,420.875 600.752,420.872 601.467,420.87 602.182,420.867 602.897,420.865 603.612,420.863 604.327,420.86 605.042,420.858 605.757,420.856 606.472,420.854 607.187,420.851 607.902,420.849 608.618,420.847 609.333,420.845 610.048,420.843 610.763,420.841 611.478,420.839 612.193,420.837 612.908,420.835 613.623,420.834 614.338,420.832 615.053,420.83 615.768,420.828 616.483,420.827 617.198,420.825 617.913,420.823 618.628,420.822 619.343,420.82 620.058,420.818 620.773,420.817 621.488,420.815 622.203,420.814 622.918,420.812 623.633,420.811 624.348,420.809 625.063,420.808 625.778,420.807 626.493,420.805 627.208,420.804 627.923,420.803 628.638,420.801 629.353,420.8 630.068,420.799 630.783,420.798 631.498,420.796 632.214,420.795 632.929,420.794 633.644,420.793 634.359,420.792 635.074,420.791 635.789,420.79 636.504,420.789 637.219,420.787 637.934,420.786 638.649,420.785 639.364,420.784 640.079,420.783 640.794,420.782 641.509,420.782 642.224,420.781 642.939,420.78 643.654,420.779 644.369,420.778 645.084,420.777 645.799,420.776 646.514,420.775 647.229,420.775 647.944,420.774 648.659,420.773 649.374,420.772 650.089,420.771 650.804,420.771 651.519,420.77 652.234,420.769 652.949,420.768 653.664,420.768 654.379,420.767 655.095,420.766 655.81,420.766 656.525,420.765 657.24,420.764 657.955,420.764 658.67,420.763 659.385,420.762 660.1,420.762 660.815,420.761 661.53,420.761 662.245,420.76 662.96,420.76 663.675,420.759 664.39,420.758 665.105,420.758 665.82,420.757 666.535,420.757 667.25,420.756 667.965,420.756 668.68,420.755 669.395,420.755 670.11,420.754 670.825,420.754 671.54,420.753 672.255,420.753 672.97,420.753 673.685,420.752 674.4,420.752 675.115,420.751 675.83,420.751 676.545,420.75 677.26,420.75 677.975,420.75 678.691,420.749 679.406,420.749 680.121,420.749 680.836,420.748 681.551,420.748 682.266,420.747 682.981,420.747 683.696,420.747 684.411,420.746 685.126,420.746 685.841,420.746 686.556,420.745 687.271,420.745 687.986,420.745 688.701,420.745 689.416,420.744 690.131,420.744 690.846,420.744 691.561,420.743 692.276,420.743 692.991,420.743 693.706,420.743 694.421,420.742 695.136,420.742 695.851,420.742 696.566,420.741 697.281,420.741 697.996,420.741 698.711,420.741 699.426,420.741 700.141,420.74 700.856,420.74 701.572,420.74 702.287,420.74 703.002,420.739 703.717,420.739 704.432,420.739 705.147,420.739 705.862,420.739 706.577,420.738 707.292,420.738 708.007,420.738 708.722,420.738 709.437,420.738 710.152,420.737 710.867,420.737 711.582,420.737 712.297,420.737 713.012,420.737 713.727,420.737 714.442,420.736 715.157,420.736 715.872,420.736 716.587,420.736 717.302,420.736 718.017,420.736 718.732,420.735 719.447,420.735 720.162,420.735 720.877,420.735 721.592,420.735 722.307,420.735 723.022,420.735 723.737,420.734 724.452,420.734 725.168,420.734 725.883,420.734 726.598,420.734 727.313,420.734 728.028,420.734 728.743,420.734 729.458,420.734 730.173,420.733 730.888,420.733 731.603,420.733 732.318,420.733 733.033,420.733 733.748,420.733 734.463,420.733 735.178,420.733 735.893,420.733 736.608,420.732 737.323,420.732 738.038,420.732 738.753,420.732 739.468,420.732 740.183,420.732 740.898,420.732 741.613,420.732 742.328,420.732 743.043,420.732 743.758,420.732 744.473,420.732 745.188,420.731 745.903,420.731 746.618,420.731 747.333,420.731 748.049,420.731 748.764,420.731 749.479,420.731 750.194,420.731 750.909,420.731 751.624,420.731 752.339,420.731 753.054,420.731 753.769,420.731 754.484,420.731 755.199,420.73 755.914,420.73 756.629,420.73 757.344,420.73 758.059,420.73 758.774,420.73 759.489,420.73 760.204,420.73 760.919,420.73 761.634,420.73 762.349,420.73 763.064,420.73 763.779,420.73 764.494,420.73 765.209,420.73 765.924,420.73 766.639,420.73 767.354,420.73 768.069,420.73 768.784,420.729 769.499,420.729 770.214,420.729 770.929,420.729 771.645,420.729 772.36,420.729 773.075,420.729 773.79,420.729 774.505,420.729 775.22,420.729 775.935,420.729 776.65,420.729 777.365,420.729 778.08,420.729 778.795,420.729 779.51,420.729 780.225,420.729 780.94,420.729 781.655,420.729 782.37,420.729 783.085,420.729 783.8,420.729 784.515,420.729 785.23,420.729 785.945,420.729 786.66,420.729 787.375,420.729 788.09,420.729 788.805,420.729 789.52,420.728 790.235,420.728 790.95,420.728 791.665,420.728 792.38,420.728 793.095,420.728 793.81,420.728 794.525,420.728 795.241,420.728 795.956,420.728 796.671,420.728 797.386,420.728 798.101,420.728 798.816,420.728 799.531,420.728 800.246,420.728 800.961,420.728 801.676,420.728 802.391,420.728 803.106,420.728 803.821,420.728 804.536,420.728 805.251,420.728 805.966,420.728 806.681,420.728 807.396,420.728 808.111,420.728 808.826,420.728 809.541,420.728 810.256,420.728 810.971,420.728 811.686,420.728 812.401,420.728 813.116,420.728 813.831,420.728 814.546,420.728 815.261,420.728 815.976,420.728 816.691,420.728 817.406,420.728 818.122,420.728 818.837,420.728 819.552,420.728 820.267,420.728 820.982,420.728 821.697,420.728 822.412,420.728 823.127,420.728 823.842,420.728 824.557,420.728 825.272,420.728 825.987,420.728 826.702,420.728 827.417,420.728 828.132,420.728 828.847,420.728 829.562,420.728 830.277,420.728 830.992,420.727 831.707,420.727 832.422,420.727 833.137,420.727 833.852,420.727 834.567,420.727 835.282,420.727 835.997,420.727 836.712,420.727 837.427,420.727 838.142,420.727 838.857,420.727 839.572,420.727 840.287,420.727 841.002,420.727 841.718,420.727 842.433,420.727 843.148,420.727 843.863,420.727 844.578,420.727 845.293,420.727 846.008,420.727 846.723,420.727 847.438,420.727 848.153,420.727 848.868,420.727 849.583,420.727 850.298,420.727 851.013,420.727 851.728,420.727 852.443,420.727 853.158,420.727 853.873,420.727 854.588,420.727 855.303,420.727 856.018,420.727 856.733,420.727 857.448,420.727 858.163,420.727 858.878,420.727 859.593,420.727 860.308,420.727 861.023,420.727 861.738,420.727 862.453,420.727 863.168,420.727 863.883,420.727 864.599,420.727 865.314,420.727 866.029,420.727 866.744,420.727 867.459,420.727 868.174,420.727 868.889,420.727 869.604,420.727 870.319,420.727 871.034,420.727 871.749,420.727 872.464,420.727 873.179,420.727 873.894,420.727 874.609,420.727 875.324,420.727 876.039,420.727 876.754,420.727 877.469,420.727 878.184,420.727 878.899,420.727 879.614,420.727 880.329,420.727 881.044,420.727 881.759,420.727 882.474,420.727 883.189,420.727 883.904,420.727 884.619,420.727 885.334,420.727 886.049,420.727 886.764,420.727 887.479,420.727 888.195,420.727 888.91,420.727 889.625,420.727 890.34,420.727 891.055,420.727 891.77,420.727 892.485,420.727 893.2,420.727 893.915,420.727 894.63,420.727 895.345,420.727 896.06,420.727 896.775,420.727 897.49,420.727 898.205,420.727 898.92,420.727 899.635,420.727 900.35,420.727 901.065,420.727 901.78,420.727 902.495,420.727 903.21,420.727 903.925,420.727 904.64,420.727 905.355,420.727 906.07,420.727 906.785,420.727 907.5,420.727 908.215,420.727 908.93,420.727 909.645,420.727 910.36,420.727 911.076,420.727 911.791,420.727 912.506,420.727 913.221,420.727 913.936,420.727 914.651,420.727 915.366,420.727 916.081,420.727 916.796,420.727 917.511,420.727 918.226,420.727 918.941,420.727 919.656,420.727 920.371,420.727 921.086,420.727 921.801,420.727 922.516,420.727 923.231,420.727 923.946,420.727 924.661,420.727 925.376,420.727 926.091,420.727 926.806,420.727 927.521,420.727 928.236,420.727 928.951,420.727 929.666,420.727 930.381,420.727 931.096,420.727 931.811,420.727 932.526,420.727 933.241,420.727 933.956,420.727 934.672,420.727 935.387,420.727 936.102,420.727 936.817,420.727 937.532,420.727 938.247,420.727 938.962,420.727 939.677,420.727 940.392,420.727 941.107,420.727 941.822,420.727 942.537,420.727 943.252,420.727 943.967,420.727 944.682,420.727 945.397,420.727 946.112,420.727 946.827,420.727 947.542,420.727 948.257,420.727 948.972,420.727 949.687,420.727 950.402,420.727 951.117,420.727 951.832,420.727 952.547,420.727 953.262,420.727 953.977,420.727 954.692,420.727 955.407,420.727 956.122,420.727 956.837,420.727 957.553,420.727 958.268,420.727 958.983,420.727 959.698,420.727 960.413,420.727 961.128,420.727 961.843,420.727 962.558,420.727 963.273,420.727 963.988,420.727 964.703,420.727 965.418,420.727 966.133,420.727 966.848,420.727 967.563,420.727 968.278,420.727 968.993,420.727 969.708,420.727 970.423,420.727 971.138,420.727 971.853,420.727 972.568,420.727 973.283,420.727 973.998,420.727 974.713,420.727 975.428,420.727 976.143,420.727 976.858,420.727 977.573,420.727 978.288,420.727 979.003,420.727 979.718,420.727 980.433,420.727 981.149,420.727 981.864,420.727 982.579,420.727 983.294,420.727 984.009,420.727 984.724,420.727 985.439,420.727 986.154,420.727 986.869,420.727 987.584,420.727 988.299,420.727 989.014,420.727 989.729,420.727 990.444,420.727 991.159,420.727 991.874,420.727 992.589,420.727 993.304,420.727 994.019,420.727 994.734,420.727 995.449,420.727 996.164,420.727 996.879,420.727 997.594,420.727 998.309,420.727 999.024,420.727 999.739,420.727 1000.45,420.727 1001.17,420.727 1001.88,420.727 1002.6,420.727 1003.31,420.727 1004.03,420.727 1004.74,420.727 1005.46,420.727 1006.17,420.727 1006.89,420.727 1007.6,420.727 1008.32,420.727 1009.03,420.727 1009.75,420.727 1010.46,420.727 1011.18,420.727 1011.89,420.727 1012.61,420.727 1013.32,420.727 1014.04,420.727 1014.75,420.727 1015.47,420.727 1016.19,420.727 1016.9,420.727 1017.62,420.727 1018.33,420.727 1019.05,420.727 1019.76,420.727 1020.48,420.727 1021.19,420.727 1021.91,420.727 1022.62,420.727 1023.34,420.727 1024.05,420.727 1024.77,420.727 1025.48,420.727 1026.2,420.727 1026.91,420.727 1027.63,420.727 1028.34,420.727 1029.06,420.727 1029.77,420.727 1030.49,420.727 1031.2,420.727 1031.92,420.727 1032.63,420.727 1033.35,420.727 1034.06,420.727 1034.78,420.727 1035.49,420.727 1036.21,420.727 1036.92,420.727 1037.64,420.727 1038.35,420.727 1039.07,420.727 1039.78,420.727 1040.5,420.727 1041.21,420.727 1041.93,420.727 1042.64,420.727 1043.36,420.727 1044.07,420.727 1044.79,420.727 1045.5,420.727 1046.22,420.727 1046.93,420.727 1047.65,420.727 1048.36,420.727 1049.08,420.727 1049.79,420.727 1050.51,420.727 1051.22,420.727 1051.94,420.727 1052.65,420.727 1053.37,420.727 1054.08,420.727 1054.8,420.727 1055.51,420.727 1056.23,420.727 1056.94,420.727 1057.66,420.727 1058.37,420.727 1059.09,420.727 1059.8,420.727 1060.52,420.727 1061.23,420.727 1061.95,420.727 1062.66,420.727 1063.38,420.727 1064.09,420.727 1064.81,420.727 1065.52,420.727 1066.24,420.727 1066.95,420.727 1067.67,420.727 1068.38,420.727 1069.1,420.727 1069.81,420.727 1070.53,420.727 1071.24,420.727 1071.96,420.727 1072.67,420.727 1073.39,420.727 1074.1,420.727 1074.82,420.727 1075.53,420.727 1076.25,420.727 1076.96,420.727 1077.68,420.727 1078.39,420.727 1079.11,420.727 1079.82,420.727 1080.54,420.727 1081.25,420.727 1081.97,420.727 1082.68,420.727 1083.4,420.727 1084.11,420.727 1084.83,420.727 1085.54,420.727 1086.26,420.727 1086.97,420.727 1087.69,420.727 1088.4,420.727 1089.12,420.727 1089.83,420.727 1090.55,420.727 1091.26,420.727 1091.98,420.727 1092.69,420.727 1093.41,420.727 1094.12,420.727 1094.84,420.727 1095.55,420.727 1096.27,420.727 1096.98,420.727 1097.7,420.727 1098.41,420.727 1099.13,420.727 1099.84,420.727 1100.56,420.727 1101.27,420.727 1101.99,420.727 1102.7,420.727 1103.42,420.727 1104.13,420.727 1104.85,420.727 1105.56,420.727 1106.28,420.727 1106.99,420.727 1107.71,420.727 1108.42,420.727 1109.14,420.727 1109.85,420.727 1110.57,420.727 1111.28,420.727 1112,420.727 1112.71,420.727 1113.43,420.727 1114.14,420.727 1114.86,420.727 1115.57,420.727 1116.29,420.727 1117,420.727 1117.72,420.727 1118.43,420.727 1119.15,420.727 1119.86,420.727 1120.58,420.727 1121.29,420.727 1122.01,420.727 1122.72,420.727 1123.44,420.727 1124.15,420.727 1124.87,420.727 1125.58,420.727 1126.3,420.727 1127.01,420.727 "/>
<polyline clip-path="url(#clip162)" style="stroke:#e26f46; stroke-linecap:round; stroke-linejoin:round; stroke-width:8; stroke-opacity:1; fill:none" points="268.978,263.776 269.693,365.689 270.408,441.805 271.123,497.996 271.838,539.182 272.553,569.075 273.268,590.471 273.983,605.479 274.698,615.689 275.413,622.299 276.128,626.214 276.843,628.114 277.558,628.511 278.273,627.794 278.988,626.253 279.703,624.107 280.418,621.521 281.133,618.621 281.848,615.498 282.563,612.224 283.279,608.851 283.994,605.419 284.709,601.956 285.424,598.485 286.139,595.023 286.854,591.581 287.569,588.168 288.284,584.791 288.999,581.454 289.714,578.161 290.429,574.913 291.144,571.713 291.859,568.561 292.574,565.458 293.289,562.404 294.004,559.398 294.719,556.441 295.434,553.532 296.149,550.671 296.864,547.857 297.579,545.089 298.294,542.367 299.009,539.69 299.724,537.057 300.439,534.469 301.154,531.923 301.869,529.42 302.584,526.958 303.299,524.538 304.014,522.158 304.729,519.818 305.444,517.516 306.159,515.253 306.875,513.028 307.59,510.84 308.305,508.689 309.02,506.573 309.735,504.493 310.45,502.447 311.165,500.436 311.88,498.458 312.595,496.513 313.31,494.601 314.025,492.72 314.74,490.871 315.455,489.053 316.17,487.265 316.885,485.508 317.6,483.779 318.315,482.079 319.03,480.408 319.745,478.764 320.46,477.148 321.175,475.559 321.89,473.997 322.605,472.46 323.32,470.95 324.035,469.464 324.75,468.003 325.465,466.567 326.18,465.154 326.895,463.766 327.61,462.4 328.325,461.057 329.04,459.737 329.756,458.438 330.471,457.162 331.186,455.906 331.901,454.672 332.616,453.458 333.331,452.264 334.046,451.091 334.761,449.937 335.476,448.802 336.191,447.686 336.906,446.589 337.621,445.51 338.336,444.449 339.051,443.406 339.766,442.38 340.481,441.372 341.196,440.38 341.911,439.405 342.626,438.446 343.341,437.503 344.056,436.576 344.771,435.664 345.486,434.768 346.201,433.886 346.916,433.019 347.631,432.167 348.346,431.329 349.061,430.505 349.776,429.694 350.491,428.898 351.206,428.114 351.921,427.344 352.636,426.586 353.352,425.841 354.067,425.109 354.782,424.388 355.497,423.68 356.212,422.984 356.927,422.299 357.642,421.625 358.357,420.963 359.072,420.312 359.787,419.672 360.502,419.043 361.217,418.424 361.932,417.815 362.647,417.216 363.362,416.628 364.077,416.049 364.792,415.48 365.507,414.921 366.222,414.37 366.937,413.829 367.652,413.298 368.367,412.774 369.082,412.26 369.797,411.754 370.512,411.257 371.227,410.768 371.942,410.287 372.657,409.814 373.372,409.349 374.087,408.892 374.802,408.443 375.517,408.001 376.233,407.566 376.948,407.139 377.663,406.718 378.378,406.305 379.093,405.899 379.808,405.499 380.523,405.106 381.238,404.72 381.953,404.34 382.668,403.966 383.383,403.599 384.098,403.238 384.813,402.883 385.528,402.534 386.243,402.19 386.958,401.853 387.673,401.521 388.388,401.194 389.103,400.873 389.818,400.557 390.533,400.247 391.248,399.942 391.963,399.642 392.678,399.347 393.393,399.056 394.108,398.771 394.823,398.491 395.538,398.215 396.253,397.943 396.968,397.677 397.683,397.414 398.398,397.156 399.113,396.903 399.829,396.653 400.544,396.408 401.259,396.167 401.974,395.93 402.689,395.697 403.404,395.468 404.119,395.242 404.834,395.02 405.549,394.803 406.264,394.588 406.979,394.377 407.694,394.17 408.409,393.966 409.124,393.766 409.839,393.569 410.554,393.375 411.269,393.185 411.984,392.998 412.699,392.813 413.414,392.632 414.129,392.454 414.844,392.279 415.559,392.107 416.274,391.938 416.989,391.771 417.704,391.607 418.419,391.446 419.134,391.288 419.849,391.132 420.564,390.979 421.279,390.829 421.994,390.681 422.71,390.535 423.425,390.392 424.14,390.252 424.855,390.113 425.57,389.977 426.285,389.844 427,389.712 427.715,389.583 428.43,389.455 429.145,389.33 429.86,389.207 430.575,389.087 431.29,388.968 432.005,388.851 432.72,388.736 433.435,388.623 434.15,388.512 434.865,388.402 435.58,388.295 436.295,388.189 437.01,388.085 437.725,387.983 438.44,387.883 439.155,387.784 439.87,387.687 440.585,387.591 441.3,387.497 442.015,387.405 442.73,387.314 443.445,387.225 444.16,387.137 444.875,387.051 445.59,386.966 446.306,386.882 447.021,386.8 447.736,386.719 448.451,386.64 449.166,386.562 449.881,386.485 450.596,386.41 451.311,386.336 452.026,386.263 452.741,386.191 453.456,386.12 454.171,386.051 454.886,385.983 455.601,385.916 456.316,385.85 457.031,385.785 457.746,385.721 458.461,385.658 459.176,385.597 459.891,385.536 460.606,385.476 461.321,385.418 462.036,385.36 462.751,385.303 463.466,385.248 464.181,385.193 464.896,385.139 465.611,385.086 466.326,385.034 467.041,384.983 467.756,384.932 468.471,384.883 469.187,384.834 469.902,384.786 470.617,384.739 471.332,384.693 472.047,384.647 472.762,384.602 473.477,384.558 474.192,384.515 474.907,384.473 475.622,384.431 476.337,384.39 477.052,384.349 477.767,384.309 478.482,384.27 479.197,384.232 479.912,384.194 480.627,384.157 481.342,384.12 482.057,384.084 482.772,384.049 483.487,384.014 484.202,383.98 484.917,383.946 485.632,383.913 486.347,383.88 487.062,383.848 487.777,383.817 488.492,383.786 489.207,383.756 489.922,383.726 490.637,383.696 491.352,383.667 492.067,383.639 492.783,383.611 493.498,383.584 494.213,383.557 494.928,383.53 495.643,383.504 496.358,383.478 497.073,383.453 497.788,383.428 498.503,383.404 499.218,383.38 499.933,383.356 500.648,383.333 501.363,383.31 502.078,383.288 502.793,383.265 503.508,383.244 504.223,383.222 504.938,383.201 505.653,383.181 506.368,383.16 507.083,383.141 507.798,383.121 508.513,383.102 509.228,383.083 509.943,383.064 510.658,383.046 511.373,383.028 512.088,383.01 512.803,382.992 513.518,382.975 514.233,382.958 514.948,382.942 515.664,382.925 516.379,382.909 517.094,382.894 517.809,382.878 518.524,382.863 519.239,382.848 519.954,382.833 520.669,382.819 521.384,382.804 522.099,382.79 522.814,382.777 523.529,382.763 524.244,382.75 524.959,382.737 525.674,382.724 526.389,382.711 527.104,382.699 527.819,382.686 528.534,382.674 529.249,382.663 529.964,382.651 530.679,382.639 531.394,382.628 532.109,382.617 532.824,382.606 533.539,382.596 534.254,382.585 534.969,382.575 535.684,382.564 536.399,382.554 537.114,382.545 537.829,382.535 538.544,382.525 539.26,382.516 539.975,382.507 540.69,382.498 541.405,382.489 542.12,382.48 542.835,382.472 543.55,382.463 544.265,382.455 544.98,382.447 545.695,382.439 546.41,382.431 547.125,382.423 547.84,382.415 548.555,382.408 549.27,382.4 549.985,382.393 550.7,382.386 551.415,382.379 552.13,382.372 552.845,382.365 553.56,382.359 554.275,382.352 554.99,382.345 555.705,382.339 556.42,382.333 557.135,382.327 557.85,382.321 558.565,382.315 559.28,382.309 559.995,382.303 560.71,382.298 561.425,382.292 562.141,382.287 562.856,382.281 563.571,382.276 564.286,382.271 565.001,382.266 565.716,382.261 566.431,382.256 567.146,382.251 567.861,382.246 568.576,382.241 569.291,382.237 570.006,382.232 570.721,382.228 571.436,382.223 572.151,382.219 572.866,382.215 573.581,382.211 574.296,382.206 575.011,382.202 575.726,382.198 576.441,382.195 577.156,382.191 577.871,382.187 578.586,382.183 579.301,382.18 580.016,382.176 580.731,382.173 581.446,382.169 582.161,382.166 582.876,382.162 583.591,382.159 584.306,382.156 585.021,382.153 585.737,382.149 586.452,382.146 587.167,382.143 587.882,382.14 588.597,382.137 589.312,382.135 590.027,382.132 590.742,382.129 591.457,382.126 592.172,382.124 592.887,382.121 593.602,382.118 594.317,382.116 595.032,382.113 595.747,382.111 596.462,382.108 597.177,382.106 597.892,382.104 598.607,382.101 599.322,382.099 600.037,382.097 600.752,382.095 601.467,382.092 602.182,382.09 602.897,382.088 603.612,382.086 604.327,382.084 605.042,382.082 605.757,382.08 606.472,382.078 607.187,382.076 607.902,382.074 608.618,382.073 609.333,382.071 610.048,382.069 610.763,382.067 611.478,382.066 612.193,382.064 612.908,382.062 613.623,382.061 614.338,382.059 615.053,382.057 615.768,382.056 616.483,382.054 617.198,382.053 617.913,382.051 618.628,382.05 619.343,382.049 620.058,382.047 620.773,382.046 621.488,382.044 622.203,382.043 622.918,382.042 623.633,382.041 624.348,382.039 625.063,382.038 625.778,382.037 626.493,382.036 627.208,382.034 627.923,382.033 628.638,382.032 629.353,382.031 630.068,382.03 630.783,382.029 631.498,382.028 632.214,382.027 632.929,382.026 633.644,382.025 634.359,382.024 635.074,382.023 635.789,382.022 636.504,382.021 637.219,382.02 637.934,382.019 638.649,382.018 639.364,382.017 640.079,382.016 640.794,382.015 641.509,382.015 642.224,382.014 642.939,382.013 643.654,382.012 644.369,382.011 645.084,382.011 645.799,382.01 646.514,382.009 647.229,382.008 647.944,382.008 648.659,382.007 649.374,382.006 650.089,382.006 650.804,382.005 651.519,382.004 652.234,382.004 652.949,382.003 653.664,382.002 654.379,382.002 655.095,382.001 655.81,382 656.525,382 657.24,381.999 657.955,381.999 658.67,381.998 659.385,381.998 660.1,381.997 660.815,381.996 661.53,381.996 662.245,381.995 662.96,381.995 663.675,381.994 664.39,381.994 665.105,381.993 665.82,381.993 666.535,381.993 667.25,381.992 667.965,381.992 668.68,381.991 669.395,381.991 670.11,381.99 670.825,381.99 671.54,381.989 672.255,381.989 672.97,381.989 673.685,381.988 674.4,381.988 675.115,381.987 675.83,381.987 676.545,381.987 677.26,381.986 677.975,381.986 678.691,381.986 679.406,381.985 680.121,381.985 680.836,381.985 681.551,381.984 682.266,381.984 682.981,381.984 683.696,381.983 684.411,381.983 685.126,381.983 685.841,381.982 686.556,381.982 687.271,381.982 687.986,381.982 688.701,381.981 689.416,381.981 690.131,381.981 690.846,381.981 691.561,381.98 692.276,381.98 692.991,381.98 693.706,381.979 694.421,381.979 695.136,381.979 695.851,381.979 696.566,381.979 697.281,381.978 697.996,381.978 698.711,381.978 699.426,381.978 700.141,381.977 700.856,381.977 701.572,381.977 702.287,381.977 703.002,381.977 703.717,381.976 704.432,381.976 705.147,381.976 705.862,381.976 706.577,381.976 707.292,381.976 708.007,381.975 708.722,381.975 709.437,381.975 710.152,381.975 710.867,381.975 711.582,381.975 712.297,381.974 713.012,381.974 713.727,381.974 714.442,381.974 715.157,381.974 715.872,381.974 716.587,381.973 717.302,381.973 718.017,381.973 718.732,381.973 719.447,381.973 720.162,381.973 720.877,381.973 721.592,381.973 722.307,381.972 723.022,381.972 723.737,381.972 724.452,381.972 725.168,381.972 725.883,381.972 726.598,381.972 727.313,381.972 728.028,381.971 728.743,381.971 729.458,381.971 730.173,381.971 730.888,381.971 731.603,381.971 732.318,381.971 733.033,381.971 733.748,381.971 734.463,381.971 735.178,381.97 735.893,381.97 736.608,381.97 737.323,381.97 738.038,381.97 738.753,381.97 739.468,381.97 740.183,381.97 740.898,381.97 741.613,381.97 742.328,381.97 743.043,381.97 743.758,381.969 744.473,381.969 745.188,381.969 745.903,381.969 746.618,381.969 747.333,381.969 748.049,381.969 748.764,381.969 749.479,381.969 750.194,381.969 750.909,381.969 751.624,381.969 752.339,381.969 753.054,381.969 753.769,381.969 754.484,381.968 755.199,381.968 755.914,381.968 756.629,381.968 757.344,381.968 758.059,381.968 758.774,381.968 759.489,381.968 760.204,381.968 760.919,381.968 761.634,381.968 762.349,381.968 763.064,381.968 763.779,381.968 764.494,381.968 765.209,381.968 765.924,381.968 766.639,381.968 767.354,381.968 768.069,381.967 768.784,381.967 769.499,381.967 770.214,381.967 770.929,381.967 771.645,381.967 772.36,381.967 773.075,381.967 773.79,381.967 774.505,381.967 775.22,381.967 775.935,381.967 776.65,381.967 777.365,381.967 778.08,381.967 778.795,381.967 779.51,381.967 780.225,381.967 780.94,381.967 781.655,381.967 782.37,381.967 783.085,381.967 783.8,381.967 784.515,381.967 785.23,381.967 785.945,381.967 786.66,381.967 787.375,381.967 788.09,381.967 788.805,381.967 789.52,381.966 790.235,381.966 790.95,381.966 791.665,381.966 792.38,381.966 793.095,381.966 793.81,381.966 794.525,381.966 795.241,381.966 795.956,381.966 796.671,381.966 797.386,381.966 798.101,381.966 798.816,381.966 799.531,381.966 800.246,381.966 800.961,381.966 801.676,381.966 802.391,381.966 803.106,381.966 803.821,381.966 804.536,381.966 805.251,381.966 805.966,381.966 806.681,381.966 807.396,381.966 808.111,381.966 808.826,381.966 809.541,381.966 810.256,381.966 810.971,381.966 811.686,381.966 812.401,381.966 813.116,381.966 813.831,381.966 814.546,381.966 815.261,381.966 815.976,381.966 816.691,381.966 817.406,381.966 818.122,381.966 818.837,381.966 819.552,381.966 820.267,381.966 820.982,381.966 821.697,381.966 822.412,381.966 823.127,381.966 823.842,381.966 824.557,381.966 825.272,381.966 825.987,381.966 826.702,381.966 827.417,381.966 828.132,381.966 828.847,381.966 829.562,381.966 830.277,381.966 830.992,381.966 831.707,381.966 832.422,381.966 833.137,381.966 833.852,381.966 834.567,381.966 835.282,381.965 835.997,381.965 836.712,381.965 837.427,381.965 838.142,381.965 838.857,381.965 839.572,381.965 840.287,381.965 841.002,381.965 841.718,381.965 842.433,381.965 843.148,381.965 843.863,381.965 844.578,381.965 845.293,381.965 846.008,381.965 846.723,381.965 847.438,381.965 848.153,381.965 848.868,381.965 849.583,381.965 850.298,381.965 851.013,381.965 851.728,381.965 852.443,381.965 853.158,381.965 853.873,381.965 854.588,381.965 855.303,381.965 856.018,381.965 856.733,381.965 857.448,381.965 858.163,381.965 858.878,381.965 859.593,381.965 860.308,381.965 861.023,381.965 861.738,381.965 862.453,381.965 863.168,381.965 863.883,381.965 864.599,381.965 865.314,381.965 866.029,381.965 866.744,381.965 867.459,381.965 868.174,381.965 868.889,381.965 869.604,381.965 870.319,381.965 871.034,381.965 871.749,381.965 872.464,381.965 873.179,381.965 873.894,381.965 874.609,381.965 875.324,381.965 876.039,381.965 876.754,381.965 877.469,381.965 878.184,381.965 878.899,381.965 879.614,381.965 880.329,381.965 881.044,381.965 881.759,381.965 882.474,381.965 883.189,381.965 883.904,381.965 884.619,381.965 885.334,381.965 886.049,381.965 886.764,381.965 887.479,381.965 888.195,381.965 888.91,381.965 889.625,381.965 890.34,381.965 891.055,381.965 891.77,381.965 892.485,381.965 893.2,381.965 893.915,381.965 894.63,381.965 895.345,381.965 896.06,381.965 896.775,381.965 897.49,381.965 898.205,381.965 898.92,381.965 899.635,381.965 900.35,381.965 901.065,381.965 901.78,381.965 902.495,381.965 903.21,381.965 903.925,381.965 904.64,381.965 905.355,381.965 906.07,381.965 906.785,381.965 907.5,381.965 908.215,381.965 908.93,381.965 909.645,381.965 910.36,381.965 911.076,381.965 911.791,381.965 912.506,381.965 913.221,381.965 913.936,381.965 914.651,381.965 915.366,381.965 916.081,381.965 916.796,381.965 917.511,381.965 918.226,381.965 918.941,381.965 919.656,381.965 920.371,381.965 921.086,381.965 921.801,381.965 922.516,381.965 923.231,381.965 923.946,381.965 924.661,381.965 925.376,381.965 926.091,381.965 926.806,381.965 927.521,381.965 928.236,381.965 928.951,381.965 929.666,381.965 930.381,381.965 931.096,381.965 931.811,381.965 932.526,381.965 933.241,381.965 933.956,381.965 934.672,381.965 935.387,381.965 936.102,381.965 936.817,381.965 937.532,381.965 938.247,381.965 938.962,381.965 939.677,381.965 940.392,381.965 941.107,381.965 941.822,381.965 942.537,381.965 943.252,381.965 943.967,381.965 944.682,381.965 945.397,381.965 946.112,381.965 946.827,381.965 947.542,381.965 948.257,381.965 948.972,381.965 949.687,381.965 950.402,381.965 951.117,381.965 951.832,381.965 952.547,381.965 953.262,381.965 953.977,381.965 954.692,381.965 955.407,381.965 956.122,381.965 956.837,381.965 957.553,381.965 958.268,381.965 958.983,381.965 959.698,381.965 960.413,381.965 961.128,381.965 961.843,381.965 962.558,381.965 963.273,381.965 963.988,381.965 964.703,381.965 965.418,381.965 966.133,381.965 966.848,381.965 967.563,381.965 968.278,381.965 968.993,381.965 969.708,381.965 970.423,381.965 971.138,381.965 971.853,381.965 972.568,381.965 973.283,381.965 973.998,381.965 974.713,381.965 975.428,381.965 976.143,381.965 976.858,381.965 977.573,381.965 978.288,381.965 979.003,381.965 979.718,381.965 980.433,381.965 981.149,381.965 981.864,381.965 982.579,381.965 983.294,381.965 984.009,381.965 984.724,381.965 985.439,381.965 986.154,381.965 986.869,381.965 987.584,381.965 988.299,381.965 989.014,381.965 989.729,381.965 990.444,381.965 991.159,381.965 991.874,381.965 992.589,381.965 993.304,381.965 994.019,381.965 994.734,381.965 995.449,381.965 996.164,381.965 996.879,381.965 997.594,381.965 998.309,381.965 999.024,381.965 999.739,381.965 1000.45,381.965 1001.17,381.965 1001.88,381.965 1002.6,381.965 1003.31,381.965 1004.03,381.965 1004.74,381.965 1005.46,381.965 1006.17,381.965 1006.89,381.965 1007.6,381.965 1008.32,381.965 1009.03,381.965 1009.75,381.965 1010.46,381.965 1011.18,381.965 1011.89,381.965 1012.61,381.965 1013.32,381.965 1014.04,381.965 1014.75,381.965 1015.47,381.965 1016.19,381.965 1016.9,381.965 1017.62,381.965 1018.33,381.965 1019.05,381.965 1019.76,381.965 1020.48,381.965 1021.19,381.965 1021.91,381.965 1022.62,381.965 1023.34,381.965 1024.05,381.965 1024.77,381.965 1025.48,381.965 1026.2,381.965 1026.91,381.965 1027.63,381.965 1028.34,381.965 1029.06,381.965 1029.77,381.965 1030.49,381.965 1031.2,381.965 1031.92,381.965 1032.63,381.965 1033.35,381.965 1034.06,381.965 1034.78,381.965 1035.49,381.965 1036.21,381.965 1036.92,381.965 1037.64,381.965 1038.35,381.965 1039.07,381.965 1039.78,381.965 1040.5,381.965 1041.21,381.965 1041.93,381.965 1042.64,381.965 1043.36,381.965 1044.07,381.965 1044.79,381.965 1045.5,381.965 1046.22,381.965 1046.93,381.965 1047.65,381.965 1048.36,381.965 1049.08,381.965 1049.79,381.965 1050.51,381.965 1051.22,381.965 1051.94,381.965 1052.65,381.965 1053.37,381.965 1054.08,381.965 1054.8,381.965 1055.51,381.965 1056.23,381.965 1056.94,381.965 1057.66,381.965 1058.37,381.965 1059.09,381.965 1059.8,381.965 1060.52,381.965 1061.23,381.965 1061.95,381.965 1062.66,381.965 1063.38,381.965 1064.09,381.965 1064.81,381.965 1065.52,381.965 1066.24,381.965 1066.95,381.965 1067.67,381.965 1068.38,381.965 1069.1,381.965 1069.81,381.965 1070.53,381.965 1071.24,381.965 1071.96,381.965 1072.67,381.965 1073.39,381.965 1074.1,381.965 1074.82,381.965 1075.53,381.965 1076.25,381.965 1076.96,381.965 1077.68,381.965 1078.39,381.965 1079.11,381.965 1079.82,381.965 1080.54,381.965 1081.25,381.965 1081.97,381.965 1082.68,381.965 1083.4,381.965 1084.11,381.965 1084.83,381.965 1085.54,381.965 1086.26,381.965 1086.97,381.965 1087.69,381.965 1088.4,381.965 1089.12,381.965 1089.83,381.965 1090.55,381.965 1091.26,381.965 1091.98,381.965 1092.69,381.965 1093.41,381.965 1094.12,381.965 1094.84,381.965 1095.55,381.965 1096.27,381.965 1096.98,381.965 1097.7,381.965 1098.41,381.965 1099.13,381.965 1099.84,381.965 1100.56,381.965 1101.27,381.965 1101.99,381.965 1102.7,381.965 1103.42,381.965 1104.13,381.965 1104.85,381.965 1105.56,381.965 1106.28,381.965 1106.99,381.965 1107.71,381.965 1108.42,381.965 1109.14,381.965 1109.85,381.965 1110.57,381.965 1111.28,381.965 1112,381.965 1112.71,381.965 1113.43,381.965 1114.14,381.965 1114.86,381.965 1115.57,381.965 1116.29,381.965 1117,381.965 1117.72,381.965 1118.43,381.965 1119.15,381.965 1119.86,381.965 1120.58,381.965 1121.29,381.965 1122.01,381.965 1122.72,381.965 1123.44,381.965 1124.15,381.965 1124.87,381.965 1125.58,381.965 1126.3,381.965 1127.01,381.965 "/>
<polyline clip-path="url(#clip162)" style="stroke:#3da44d; stroke-linecap:round; stroke-linejoin:round; stroke-width:8; stroke-opacity:1; fill:none" points="268.978,263.776 269.693,358.083 270.408,432.064 271.123,489.011 271.838,532.203 272.553,564.662 273.268,590.517 273.983,608.959 274.698,623.285 275.413,632.722 276.128,640.171 276.843,644.449 277.558,645.586 278.273,646.543 278.988,647.102 279.703,645.6 280.418,644.152 281.133,641.753 281.848,637.881 282.563,634.595 283.279,631.129 283.994,626.985 284.709,623.983 285.424,619.97 286.139,616.232 286.854,613.328 287.569,609.52 288.284,606.315 288.999,603.396 289.714,600.222 290.429,597.124 291.144,592.548 291.859,589.88 292.574,587.362 293.289,585.95 294.004,584.311 294.719,581.343 295.434,578.65 296.149,576.034 296.864,573.338 297.579,571.296 298.294,568.998 299.009,565.653 299.724,562.94 300.439,560.273 301.154,557.665 301.869,554.898 302.584,552.368 303.299,549.349 304.014,547.996 304.729,545.791 305.444,542.778 306.159,540.47 306.875,538.153 307.59,535.612 308.305,532.46 309.02,530.464 309.735,528.979 310.45,526.409 311.165,523.946 311.88,521.439 312.595,519.659 313.31,517.945 314.025,515.616 314.74,513.792 315.455,512.326 316.17,510.87 316.885,509.049 317.6,506.671 318.315,505.469 319.03,503.84 319.745,501.368 320.46,499.277 321.175,497.727 321.89,496.295 322.605,495.291 323.32,493.457 324.035,492.022 324.75,490.33 325.465,489.529 326.18,487.16 326.895,485.377 327.61,484.083 328.325,482.341 329.04,480.677 329.756,479.794 330.471,478.355 331.186,476.779 331.901,475.233 332.616,474.109 333.331,473.141 334.046,471.897 334.761,470.726 335.476,469.434 336.191,468.355 336.906,467.255 337.621,466.723 338.336,464.962 339.051,465.117 339.766,463.835 340.481,462.613 341.196,460.925 341.911,460.234 342.626,459.035 343.341,458.827 344.056,457.532 344.771,456.966 345.486,455.909 346.201,455.505 346.916,454.409 347.631,453.043 348.346,452 349.061,450.838 349.776,450.491 350.491,450.09 351.206,449.959 351.921,448.862 352.636,448.513 353.352,447.456 354.067,447.59 354.782,446.854 355.497,444.752 356.212,444.249 356.927,443.859 357.642,443.595 358.357,442.678 359.072,441.757 359.787,441.119 360.502,440.48 361.217,440.214 361.932,439.726 362.647,438.858 363.362,438.766 364.077,437.816 364.792,437.793 365.507,437.18 366.222,437.464 366.937,436.383 367.652,434.829 368.367,435.553 369.082,435.236 369.797,434.672 370.512,434.284 371.227,433.663 371.942,433.411 372.657,432.926 373.372,431.977 374.087,430.847 374.802,430.996 375.517,430.869 376.233,430.077 376.948,430.067 377.663,429.573 378.378,429.314 379.093,429.096 379.808,428.822 380.523,427.857 381.238,427.084 381.953,427.153 382.668,426.198 383.383,425.429 384.098,425.058 384.813,423.097 385.528,423.166 386.243,422.357 386.958,421.002 387.673,420.597 388.388,419.652 389.103,420.02 389.818,419.122 390.533,419.098 391.248,418.615 391.963,418.011 392.678,417.051 393.393,416.425 394.108,416.642 394.823,416.734 395.538,418.718 396.253,419.102 396.968,419.487 397.683,420.075 398.398,419.926 399.113,420.233 399.829,420.364 400.544,419.304 401.259,419.579 401.974,418.602 402.689,417.547 403.404,417.08 404.119,417.26 404.834,416.473 405.549,416.254 406.264,416.094 406.979,415.028 407.694,415.203 408.409,415.276 409.124,414.611 409.839,414.356 410.554,413.732 411.269,413.626 411.984,413.28 412.699,413.509 413.414,412.78 414.129,412.559 414.844,412.474 415.559,411.72 416.274,411.509 416.989,411.516 417.704,411.877 418.419,412.537 419.134,411.47 419.849,410.969 420.564,409.754 421.279,409.931 421.994,409.632 422.71,409.041 423.425,409.161 424.14,409.366 424.855,408.853 425.57,408.709 426.285,408.14 427,406.995 427.715,407.593 428.43,407.609 429.145,407.559 429.86,408.076 430.575,408.686 431.29,409.455 432.005,409.412 432.72,409.834 433.435,409.508 434.15,408.953 434.865,409.598 435.58,408.716 436.295,409.07 437.01,408.678 437.725,408.423 438.44,409.381 439.155,409.95 439.87,410.91 440.585,410.926 441.3,410.609 442.015,410.42 442.73,410.281 443.445,410.081 444.16,409.23 444.875,408.634 445.59,407.567 446.306,406.633 447.021,407.474 447.736,407.43 448.451,407.568 449.166,407.608 449.881,408.108 450.596,408.076 451.311,408.055 452.026,407.358 452.741,406.936 453.456,407.636 454.171,407.111 454.886,407.614 455.601,407.235 456.316,406.712 457.031,405.404 457.746,404.643 458.461,404.539 459.176,403.673 459.891,403.176 460.606,403.464 461.321,402.639 462.036,402.673 462.751,402.353 463.466,400.983 464.181,400.383 464.896,400.87 465.611,400.208 466.326,399.935 467.041,400.304 467.756,400.571 468.471,399.705 469.187,398.943 469.902,398.886 470.617,398.824 471.332,399.599 472.047,399.837 472.762,399.433 473.477,398.907 474.192,398.883 474.907,400.007 475.622,399.783 476.337,399.989 477.052,399.051 477.767,399.016 478.482,398.605 479.197,398.767 479.912,399.289 480.627,399.05 481.342,399.618 482.057,400.594 482.772,400.526 483.487,401.393 484.202,402.604 484.917,401.993 485.632,402.245 486.347,402.963 487.062,402.437 487.777,401.655 488.492,402.031 489.207,401.68 489.922,402.301 490.637,403.025 491.352,403.318 492.067,404.331 492.783,403.495 493.498,404.011 494.213,404.104 494.928,403.283 495.643,402.778 496.358,402.883 497.073,403.081 497.788,403.518 498.503,403.057 499.218,403.317 499.933,403.307 500.648,403.879 501.363,403.527 502.078,403.722 502.793,402.685 503.508,403.816 504.223,404.126 504.938,403.123 505.653,402.868 506.368,402.614 507.083,401.921 507.798,400.438 508.513,399.872 509.228,400.915 509.943,401.88 510.658,401.691 511.373,401.1 512.088,400.509 512.803,399.78 513.518,399.762 514.233,398.889 514.948,399.412 515.664,399.594 516.379,399.155 517.094,399.242 517.809,398.732 518.524,398.78 519.239,399.734 519.954,399.582 520.669,399.608 521.384,399.019 522.099,399.249 522.814,398.796 523.529,398.906 524.244,400.796 524.959,400.36 525.674,400.785 526.389,400.747 527.104,400.111 527.819,400.844 528.534,400.909 529.249,401.521 529.964,401.109 530.679,400.862 531.394,400.096 532.109,399.711 532.824,399.507 533.539,399.305 534.254,398.83 534.969,398.805 535.684,398.613 536.399,399.242 537.114,399 537.829,398.813 538.544,398.431 539.26,397.368 539.975,397.492 540.69,397.289 541.405,396.712 542.12,397.35 542.835,396.982 543.55,397.106 544.265,396.519 544.98,396.738 545.695,396.491 546.41,395.53 547.125,394.74 547.84,394.815 548.555,395.318 549.27,395.612 549.985,395.248 550.7,395.777 551.415,395.407 552.13,395.628 552.845,396.208 553.56,396.002 554.275,395.486 554.99,396.151 555.705,396.082 556.42,395.552 557.135,395.734 557.85,395.631 558.565,395.545 559.28,395.414 559.995,395.533 560.71,395.256 561.425,394.805 562.141,394.94 562.856,395.056 563.571,394.395 564.286,394.663 565.001,394.885 565.716,395.923 566.431,395.434 567.146,395.428 567.861,396.397 568.576,396.537 569.291,396.926 570.006,396.829 570.721,396.812 571.436,396.694 572.151,396.727 572.866,396.043 573.581,395.189 574.296,394.663 575.011,394.311 575.726,394.74 576.441,394.51 577.156,393.572 577.871,393.625 578.586,393.833 579.301,393.632 580.016,393.345 580.731,393.134 581.446,393.381 582.161,393.145 582.876,392.585 583.591,392.003 584.306,392.065 585.021,391.907 585.737,391.644 586.452,391.227 587.167,391.292 587.882,390.581 588.597,391.13 589.312,391.155 590.027,390.608 590.742,391.318 591.457,391.777 592.172,392.638 592.887,392.731 593.602,392.818 594.317,391.97 595.032,392.283 595.747,392.326 596.462,392.219 597.177,392.127 597.892,392.043 598.607,391.51 599.322,390.946 600.037,390.553 600.752,391.248 601.467,390.214 602.182,390.671 602.897,390.569 603.612,390.968 604.327,391.693 605.042,391.544 605.757,391.28 606.472,391.055 607.187,391.105 607.902,392.117 608.618,392.451 609.333,392.42 610.048,393.377 610.763,392.749 611.478,393.191 612.193,392.071 612.908,392.499 613.623,393.455 614.338,392.876 615.053,392.985 615.768,393.053 616.483,393.601 617.198,393.092 617.913,393.582 618.628,393.919 619.343,393.497 620.058,394.009 620.773,394.471 621.488,393.987 622.203,394.298 622.918,394.443 623.633,394.214 624.348,393.632 625.063,393.624 625.778,394.578 626.493,394.184 627.208,394.856 627.923,394.353 628.638,394.462 629.353,394.123 630.068,394.007 630.783,394.633 631.498,395.1 632.214,395.43 632.929,396.142 633.644,396.139 634.359,395.977 635.074,396.226 635.789,396.899 636.504,397.42 637.219,397.692 637.934,398.766 638.649,399.171 639.364,399.569 640.079,399.139 640.794,399.061 641.509,398.718 642.224,397.714 642.939,398.43 643.654,398.19 644.369,398.7 645.084,398.501 645.799,398.828 646.514,398.998 647.229,399.866 647.944,398.99 648.659,399.301 649.374,399.385 650.089,398.408 650.804,397.677 651.519,397.715 652.234,397.957 652.949,397.913 653.664,397.741 654.379,397.182 655.095,396.513 655.81,396.269 656.525,396.673 657.24,395.412 657.955,395.69 658.67,396.174 659.385,396.077 660.1,395.09 660.815,394.982 661.53,394.767 662.245,394.679 662.96,394.954 663.675,395.097 664.39,395.176 665.105,395.794 665.82,396.372 666.535,396.414 667.25,395.9 667.965,396.319 668.68,397.023 669.395,397.418 670.11,396.091 670.825,396.229 671.54,396.561 672.255,396.432 672.97,396.962 673.685,396.856 674.4,395.63 675.115,396.206 675.83,396.685 676.545,397.567 677.26,397.65 677.975,397.205 678.691,397.08 679.406,395.697 680.121,394.18 680.836,394.011 681.551,393.092 682.266,391.981 682.981,391.426 683.696,390.954 684.411,390.731 685.126,390.491 685.841,390.473 686.556,389.767 687.271,389.779 687.986,389.876 688.701,389.692 689.416,389.714 690.131,389.825 690.846,389.393 691.561,389.028 692.276,388.795 692.991,390.681 693.706,391.515 694.421,391.696 695.136,392.098 695.851,392.104 696.566,393.024 697.281,392.931 697.996,393.958 698.711,394.258 699.426,393.127 700.141,393.27 700.856,393.065 701.572,392.395 702.287,392.268 703.002,393.098 703.717,394.148 704.432,393.89 705.147,394.291 705.862,393.74 706.577,393.598 707.292,393.634 708.007,394.174 708.722,393.189 709.437,392.719 710.152,392.617 710.867,392.843 711.582,393.455 712.297,393.617 713.012,394.164 713.727,394.292 714.442,393.577 715.157,392.989 715.872,393.973 716.587,393.503 717.302,393.597 718.017,393.784 718.732,394.08 719.447,393.318 720.162,393.476 720.877,394.175 721.592,394.104 722.307,394.21 723.022,394.07 723.737,394.1 724.452,394.531 725.168,395.084 725.883,395.201 726.598,394.879 727.313,393.873 728.028,394.113 728.743,394.98 729.458,395.226 730.173,394.726 730.888,394.594 731.603,394.483 732.318,394.3 733.033,393.687 733.748,394.058 734.463,392.851 735.178,392.949 735.893,392.939 736.608,392.627 737.323,393.008 738.038,392.014 738.753,392.488 739.468,392.107 740.183,391.323 740.898,391.601 741.613,390.746 742.328,390.833 743.043,390.621 743.758,390.54 744.473,389.93 745.188,389.552 745.903,388.957 746.618,388.545 747.333,389.089 748.049,389.202 748.764,389.897 749.479,390.624 750.194,390.81 750.909,390.147 751.624,389.594 752.339,390.267 753.054,390.045 753.769,389.654 754.484,390.439 755.199,390.631 755.914,390.653 756.629,391.361 757.344,390.933 758.059,391.449 758.774,391.251 759.489,392.018 760.204,392.185 760.919,392.09 761.634,392.121 762.349,392.241 763.064,392.451 763.779,392.648 764.494,392.976 765.209,393.118 765.924,393.657 766.639,393.511 767.354,393.072 768.069,393.673 768.784,394.763 769.499,395.131 770.214,395.566 770.929,394.919 771.645,395.739 772.36,395.621 773.075,395.82 773.79,396.808 774.505,396.295 775.22,395.859 775.935,395.739 776.65,396.247 777.365,396.158 778.08,396.876 778.795,396.914 779.51,396.463 780.225,396.631 780.94,396.732 781.655,397.074 782.37,397.452 783.085,397.45 783.8,396.684 784.515,396.896 785.23,397.036 785.945,396.658 786.66,396.709 787.375,397.306 788.09,397.512 788.805,397.872 789.52,398.329 790.235,398.216 790.95,398.608 791.665,398.753 792.38,398.851 793.095,397.975 793.81,397.839 794.525,397.617 795.241,396.495 795.956,396.603 796.671,397.881 797.386,398.193 798.101,398.661 798.816,398.586 799.531,398.704 800.246,398.535 800.961,399.11 801.676,398.136 802.391,398.017 803.106,398.458 803.821,397.89 804.536,398.6 805.251,397.85 805.966,398.027 806.681,399.016 807.396,398.84 808.111,399.296 808.826,399.912 809.541,398.455 810.256,397.793 810.971,397.431 811.686,396.072 812.401,395.427 813.116,394.83 813.831,394.553 814.546,395.587 815.261,394.415 815.976,393.108 816.691,393.994 817.406,393.884 818.122,393.655 818.837,393.705 819.552,394.023 820.267,393.187 820.982,392.834 821.697,393.234 822.412,393.387 823.127,393.132 823.842,394.025 824.557,393.732 825.272,393.91 825.987,393.413 826.702,393.746 827.417,393.672 828.132,393.987 828.847,392.982 829.562,392.698 830.277,392.29 830.992,391.013 831.707,390.11 832.422,389.34 833.137,390.777 833.852,390.52 834.567,390.757 835.282,390.324 835.997,389.624 836.712,389.347 837.427,389.314 838.142,389.043 838.857,388.91 839.572,388.932 840.287,388.595 841.002,389.051 841.718,388.623 842.433,389.433 843.148,390.97 843.863,391.555 844.578,390.978 845.293,391.563 846.008,392.447 846.723,393.046 847.438,393.3 848.153,393.659 848.868,393.851 849.583,393.772 850.298,394.097 851.013,394.289 851.728,394.011 852.443,393.749 853.158,393.136 853.873,393.089 854.588,392.6 855.303,391.655 856.018,391.381 856.733,392.394 857.448,391.539 858.163,391.669 858.878,391.749 859.593,391.431 860.308,391.593 861.023,391.272 861.738,391.347 862.453,391.759 863.168,392.995 863.883,392.361 864.599,393.275 865.314,393.297 866.029,392.97 866.744,393.825 867.459,394.063 868.174,394.013 868.889,394.234 869.604,394.068 870.319,393.886 871.034,393.8 871.749,394.405 872.464,394.991 873.179,395.287 873.894,395.095 874.609,394.781 875.324,393.519 876.039,393.501 876.754,394.451 877.469,394.71 878.184,394.568 878.899,395.089 879.614,395.561 880.329,395.898 881.044,394.942 881.759,395.076 882.474,395.248 883.189,395.466 883.904,395.363 884.619,395.706 885.334,396.509 886.049,397.484 886.764,397.421 887.479,397.276 888.195,396.642 888.91,396.037 889.625,395.901 890.34,395.221 891.055,395.138 891.77,395.265 892.485,396.467 893.2,396.549 893.915,396.422 894.63,395.709 895.345,395.084 896.06,395.504 896.775,395.218 897.49,395.853 898.205,395.403 898.92,395.079 899.635,394.522 900.35,394.599 901.065,395.967 901.78,397.02 902.495,396.959 903.21,397.486 903.925,397.187 904.64,396.746 905.355,396.164 906.07,396.052 906.785,395.318 907.5,394.703 908.215,395.027 908.93,395.353 909.645,395.238 910.36,395.673 911.076,395.306 911.791,395.66 912.506,396.315 913.221,396.18 913.936,396.203 914.651,395.537 915.366,395.883 916.081,395.817 916.796,396.173 917.511,396.445 918.226,396.686 918.941,397.195 919.656,396.663 920.371,396.31 921.086,395.485 921.801,395.39 922.516,395.636 923.231,396.095 923.946,396.467 924.661,397.498 925.376,396.657 926.091,396.712 926.806,397.014 927.521,396.884 928.236,396.287 928.951,395.495 929.666,394.768 930.381,394.957 931.096,393.878 931.811,393.774 932.526,394.037 933.241,393.79 933.956,395.324 934.672,395.65 935.387,394.954 936.102,395.391 936.817,395.762 937.532,395.268 938.247,395.999 938.962,395.702 939.677,395.871 940.392,395.962 941.107,395.92 941.822,396.105 942.537,396.204 943.252,395.295 943.967,395.479 944.682,395.128 945.397,395.002 946.112,394.464 946.827,394.118 947.542,393.544 948.257,393.721 948.972,393.996 949.687,394.183 950.402,393.205 951.117,393.169 951.832,393.294 952.547,393.239 953.262,394.043 953.977,395.26 954.692,395.716 955.407,395.168 956.122,394.144 956.837,392.651 957.553,392.998 958.268,393.31 958.983,393.42 959.698,393.04 960.413,393.477 961.128,393.659 961.843,393.605 962.558,394.143 963.273,394.329 963.988,394.431 964.703,394.04 965.418,394.054 966.133,395.331 966.848,395.273 967.563,395.836 968.278,395.107 968.993,393.676 969.708,393.54 970.423,394.441 971.138,394.542 971.853,395.271 972.568,395.46 973.283,395.671 973.998,395.607 974.713,395.713 975.428,395.466 976.143,395.724 976.858,396.049 977.573,395.493 978.288,396.281 979.003,396.647 979.718,395.863 980.433,395.662 981.149,395.979 981.864,395.638 982.579,394.584 983.294,394.003 984.009,394.021 984.724,394.238 985.439,394.945 986.154,394.425 986.869,394.431 987.584,394.73 988.299,394.94 989.014,394.82 989.729,394.231 990.444,394.797 991.159,395.351 991.874,395.371 992.589,396.222 993.304,396.203 994.019,396.427 994.734,397.2 995.449,397.944 996.164,397.308 996.879,397.161 997.594,397.03 998.309,396.795 999.024,396.66 999.739,396.674 1000.45,396.012 1001.17,395.37 1001.88,395.153 1002.6,395.128 1003.31,395.624 1004.03,395.355 1004.74,394.494 1005.46,394.935 1006.17,394.893 1006.89,394.265 1007.6,393.527 1008.32,392.956 1009.03,392.362 1009.75,391.882 1010.46,392.454 1011.18,392.669 1011.89,392.467 1012.61,391.819 1013.32,392.232 1014.04,391.471 1014.75,391.348 1015.47,391.511 1016.19,391.879 1016.9,392.76 1017.62,392.517 1018.33,392.445 1019.05,391.643 1019.76,392.324 1020.48,393.378 1021.19,393.874 1021.91,393.702 1022.62,394.049 1023.34,394.395 1024.05,393.074 1024.77,394.041 1025.48,393.724 1026.2,393.418 1026.91,393.927 1027.63,393.289 1028.34,393.545 1029.06,393.1 1029.77,393.189 1030.49,393.318 1031.2,393.829 1031.92,394.381 1032.63,394.322 1033.35,394.911 1034.06,395.003 1034.78,394.954 1035.49,394.804 1036.21,394.814 1036.92,394.329 1037.64,395.125 1038.35,395.039 1039.07,395.789 1039.78,395.438 1040.5,395.29 1041.21,396.06 1041.93,397.059 1042.64,396.844 1043.36,397.373 1044.07,397.055 1044.79,397.398 1045.5,397.353 1046.22,398.401 1046.93,398.295 1047.65,398.166 1048.36,398.081 1049.08,398.317 1049.79,398.208 1050.51,398.581 1051.22,398.88 1051.94,399.39 1052.65,399.86 1053.37,399.307 1054.08,398.464 1054.8,398.075 1055.51,396.766 1056.23,397.391 1056.94,397.044 1057.66,396.812 1058.37,397.956 1059.09,397.502 1059.8,397.679 1060.52,397.486 1061.23,397.067 1061.95,396.314 1062.66,395.709 1063.38,394.797 1064.09,393.982 1064.81,394.156 1065.52,394.101 1066.24,394.944 1066.95,395.269 1067.67,395.259 1068.38,395.252 1069.1,394.535 1069.81,395.759 1070.53,395.955 1071.24,396.095 1071.96,395.311 1072.67,395.469 1073.39,394.957 1074.1,394.369 1074.82,394.256 1075.53,394.562 1076.25,393.41 1076.96,393.451 1077.68,394.343 1078.39,394.498 1079.11,395.169 1079.82,394.984 1080.54,394.598 1081.25,394.596 1081.97,394.675 1082.68,394.152 1083.4,395.516 1084.11,396.176 1084.83,396.868 1085.54,397.116 1086.26,398.017 1086.97,398.4 1087.69,399.308 1088.4,399.678 1089.12,399.714 1089.83,399.572 1090.55,399.708 1091.26,399.134 1091.98,398.99 1092.69,398.795 1093.41,398.368 1094.12,397.931 1094.84,397.43 1095.55,397.495 1096.27,397.036 1096.98,396.607 1097.7,396.108 1098.41,396.056 1099.13,395.757 1099.84,396.065 1100.56,396.719 1101.27,396.499 1101.99,396.374 1102.7,396.409 1103.42,395.944 1104.13,396.16 1104.85,395.779 1105.56,395.93 1106.28,395.543 1106.99,394.753 1107.71,395.575 1108.42,395.399 1109.14,395.021 1109.85,393.755 1110.57,393.931 1111.28,394.73 1112,395.269 1112.71,395.805 1113.43,395.085 1114.14,395.29 1114.86,394.802 1115.57,394.463 1116.29,394.911 1117,394.3 1117.72,393.72 1118.43,394.548 1119.15,395.871 1119.86,395.213 1120.58,394.56 1121.29,394.131 1122.01,394.152 1122.72,394.064 1123.44,393.555 1124.15,393.32 1124.87,394.657 1125.58,395.952 1126.3,395.594 1127.01,395.087 "/>
<path clip-path="url(#clip160)" d="M819.981 294.462 L1122.44 294.462 L1122.44 76.115 L819.981 76.115  Z" fill="#ffffff" fill-rule="evenodd" fill-opacity="1"/>
<polyline clip-path="url(#clip160)" style="stroke:#000000; stroke-linecap:round; stroke-linejoin:round; stroke-width:4; stroke-opacity:1; fill:none" points="819.981,294.462 1122.44,294.462 1122.44,76.115 819.981,76.115 819.981,294.462 "/>
<polyline clip-path="url(#clip160)" style="stroke:#009af9; stroke-linecap:round; stroke-linejoin:round; stroke-width:8; stroke-opacity:1; fill:none" points="830.087,130.702 890.722,130.702 "/>
<g clip-path="url(#clip160)">
<text style="fill:#000000; fill-opacity:1; font-family:Book Antiqua,Palatino,Palatino Linotype,Palatino LT STD,Georgia,serif; font-size:50px; text-anchor:start;" transform="rotate(0, 900.828, 148.202)" x="900.828" y="148.202">TUC</text>
</g>
<polyline clip-path="url(#clip160)" style="stroke:#e26f46; stroke-linecap:round; stroke-linejoin:round; stroke-width:8; stroke-opacity:1; fill:none" points="830.087,185.289 890.722,185.289 "/>
<g clip-path="url(#clip160)">
<text style="fill:#000000; fill-opacity:1; font-family:Book Antiqua,Palatino,Palatino Linotype,Palatino LT STD,Georgia,serif; font-size:50px; text-anchor:start;" transform="rotate(0, 900.828, 202.789)" x="900.828" y="202.789">FCUC</text>
</g>
<polyline clip-path="url(#clip160)" style="stroke:#3da44d; stroke-linecap:round; stroke-linejoin:round; stroke-width:8; stroke-opacity:1; fill:none" points="830.087,239.875 890.722,239.875 "/>
<g clip-path="url(#clip160)">
<text style="fill:#000000; fill-opacity:1; font-family:Book Antiqua,Palatino,Palatino Linotype,Palatino LT STD,Georgia,serif; font-size:50px; text-anchor:start;" transform="rotate(0, 900.828, 257.375)" x="900.828" y="257.375">CCFDUC</text>
</g>
</svg>
