<?xml version="1.0" encoding="utf-8"?>
<svg xmlns="http://www.w3.org/2000/svg" xmlns:xlink="http://www.w3.org/1999/xlink" width="300" height="300" viewBox="0 0 1200 1200">
<defs>
  <clipPath id="clip550">
    <rect x="0" y="0" width="1200" height="1200"/>
  </clipPath>
</defs>
<path clip-path="url(#clip550)" d="M0 1200 L1200 1200 L1200 0 L0 0  Z" fill="#ffffff" fill-rule="evenodd" fill-opacity="1"/>
<defs>
  <clipPath id="clip551">
    <rect x="240" y="120" width="841" height="841"/>
  </clipPath>
</defs>
<path clip-path="url(#clip550)" d="M187.395 984.237 L1152.76 984.237 L1152.76 47.2441 L187.395 47.2441  Z" fill="#ffffff" fill-rule="evenodd" fill-opacity="1"/>
<defs>
  <clipPath id="clip552">
    <rect x="187" y="47" width="966" height="938"/>
  </clipPath>
</defs>
<polyline clip-path="url(#clip552)" style="stroke:#808080; stroke-linecap:round; stroke-linejoin:round; stroke-width:2; stroke-opacity:0.1; fill:none" points="187.395,984.237 187.395,47.2441 "/>
<polyline clip-path="url(#clip552)" style="stroke:#808080; stroke-linecap:round; stroke-linejoin:round; stroke-width:2; stroke-opacity:0.1; fill:none" points="509.182,984.237 509.182,47.2441 "/>
<polyline clip-path="url(#clip552)" style="stroke:#808080; stroke-linecap:round; stroke-linejoin:round; stroke-width:2; stroke-opacity:0.1; fill:none" points="830.969,984.237 830.969,47.2441 "/>
<polyline clip-path="url(#clip552)" style="stroke:#808080; stroke-linecap:round; stroke-linejoin:round; stroke-width:2; stroke-opacity:0.1; fill:none" points="1152.76,984.237 1152.76,47.2441 "/>
<polyline clip-path="url(#clip552)" style="stroke:#808080; stroke-linecap:round; stroke-linejoin:round; stroke-width:2; stroke-opacity:0.1; fill:none" points="1474.54,984.237 1474.54,47.2441 "/>
<polyline clip-path="url(#clip552)" style="stroke:#808080; stroke-linecap:round; stroke-linejoin:round; stroke-width:2; stroke-opacity:0.1; fill:none" points="1796.33,984.237 1796.33,47.2441 "/>
<polyline clip-path="url(#clip552)" style="stroke:#808080; stroke-linecap:round; stroke-linejoin:round; stroke-width:2; stroke-opacity:0.1; fill:none" points="2118.12,984.237 2118.12,47.2441 "/>
<polyline clip-path="url(#clip550)" style="stroke:#000000; stroke-linecap:round; stroke-linejoin:round; stroke-width:4; stroke-opacity:1; fill:none" points="187.395,984.237 1152.76,984.237 "/>
<polyline clip-path="url(#clip550)" style="stroke:#000000; stroke-linecap:round; stroke-linejoin:round; stroke-width:4; stroke-opacity:1; fill:none" points="187.395,47.2441 1152.76,47.2441 "/>
<polyline clip-path="url(#clip550)" style="stroke:#000000; stroke-linecap:round; stroke-linejoin:round; stroke-width:4; stroke-opacity:1; fill:none" points="187.395,984.237 187.395,965.339 "/>
<polyline clip-path="url(#clip550)" style="stroke:#000000; stroke-linecap:round; stroke-linejoin:round; stroke-width:4; stroke-opacity:1; fill:none" points="509.182,984.237 509.182,965.339 "/>
<polyline clip-path="url(#clip550)" style="stroke:#000000; stroke-linecap:round; stroke-linejoin:round; stroke-width:4; stroke-opacity:1; fill:none" points="830.969,984.237 830.969,965.339 "/>
<polyline clip-path="url(#clip550)" style="stroke:#000000; stroke-linecap:round; stroke-linejoin:round; stroke-width:4; stroke-opacity:1; fill:none" points="1152.76,984.237 1152.76,965.339 "/>
<polyline clip-path="url(#clip550)" style="stroke:#000000; stroke-linecap:round; stroke-linejoin:round; stroke-width:4; stroke-opacity:1; fill:none" points="1474.54,984.237 1474.54,965.339 "/>
<polyline clip-path="url(#clip550)" style="stroke:#000000; stroke-linecap:round; stroke-linejoin:round; stroke-width:4; stroke-opacity:1; fill:none" points="1796.33,984.237 1796.33,965.339 "/>
<polyline clip-path="url(#clip550)" style="stroke:#000000; stroke-linecap:round; stroke-linejoin:round; stroke-width:4; stroke-opacity:1; fill:none" points="2118.12,984.237 2118.12,965.339 "/>
<g clip-path="url(#clip550)">
<text style="fill:#000000; fill-opacity:1; font-family:Book Antiqua,Palatino,Palatino Linotype,Palatino LT STD,Georgia,serif; font-size:51px; font-weight:bold; text-anchor:middle;" transform="rotate(0, 187.395, 1038.21)" x="187.395" y="1038.21">0</text>
</g>
<g clip-path="url(#clip550)">
<text style="fill:#000000; fill-opacity:1; font-family:Book Antiqua,Palatino,Palatino Linotype,Palatino LT STD,Georgia,serif; font-size:51px; font-weight:bold; text-anchor:middle;" transform="rotate(0, 509.182, 1038.21)" x="509.182" y="1038.21">10</text>
</g>
<g clip-path="url(#clip550)">
<text style="fill:#000000; fill-opacity:1; font-family:Book Antiqua,Palatino,Palatino Linotype,Palatino LT STD,Georgia,serif; font-size:51px; font-weight:bold; text-anchor:middle;" transform="rotate(0, 830.969, 1038.21)" x="830.969" y="1038.21">20</text>
</g>
<g clip-path="url(#clip550)">
<text style="fill:#000000; fill-opacity:1; font-family:Book Antiqua,Palatino,Palatino Linotype,Palatino LT STD,Georgia,serif; font-size:51px; font-weight:bold; text-anchor:middle;" transform="rotate(0, 1152.76, 1038.21)" x="1152.76" y="1038.21">30</text>
</g>
<g clip-path="url(#clip550)">
<text style="fill:#000000; fill-opacity:1; font-family:Book Antiqua,Palatino,Palatino Linotype,Palatino LT STD,Georgia,serif; font-size:51px; font-weight:bold; text-anchor:middle;" transform="rotate(0, 1474.54, 1038.21)" x="1474.54" y="1038.21">40</text>
</g>
<g clip-path="url(#clip550)">
<text style="fill:#000000; fill-opacity:1; font-family:Book Antiqua,Palatino,Palatino Linotype,Palatino LT STD,Georgia,serif; font-size:51px; font-weight:bold; text-anchor:middle;" transform="rotate(0, 1796.33, 1038.21)" x="1796.33" y="1038.21">50</text>
</g>
<g clip-path="url(#clip550)">
<text style="fill:#000000; fill-opacity:1; font-family:Book Antiqua,Palatino,Palatino Linotype,Palatino LT STD,Georgia,serif; font-size:51px; font-weight:bold; text-anchor:middle;" transform="rotate(0, 2118.12, 1038.21)" x="2118.12" y="1038.21">60</text>
</g>
<path clip-path="url(#clip550)" d="M646.903 1073.13 Q646.903 1074.03 646.484 1074.25 Q646.066 1074.45 644.906 1074.45 L638.723 1074.45 L633.827 1093.9 Q633.441 1095.61 633.441 1097.06 Q633.441 1098.67 633.924 1099.37 Q634.439 1100.08 635.502 1100.08 Q637.595 1100.08 639.85 1098.18 Q642.136 1096.28 644.069 1091.65 Q644.326 1091.03 644.455 1090.9 Q644.616 1090.74 645.035 1090.74 Q645.84 1090.74 645.84 1091.39 Q645.84 1091.61 645.389 1092.64 Q644.971 1093.67 644.037 1095.19 Q643.135 1096.7 641.943 1098.12 Q640.784 1099.54 639.013 1100.57 Q637.241 1101.56 635.341 1101.56 Q632.668 1101.56 630.961 1099.86 Q629.286 1098.15 629.286 1095.48 Q629.286 1094.61 629.963 1091.84 Q630.639 1089.04 634.31 1074.45 L628.481 1074.45 Q627.676 1074.45 627.354 1074.42 Q627.064 1074.38 626.839 1074.22 Q626.645 1074.03 626.645 1073.64 Q626.645 1073.03 626.903 1072.77 Q627.161 1072.48 627.483 1072.45 Q627.837 1072.39 628.642 1072.39 L634.826 1072.39 L637.402 1061.92 Q637.66 1060.89 638.304 1060.31 Q638.98 1059.7 639.367 1059.63 Q639.753 1059.54 640.043 1059.54 Q640.913 1059.54 641.428 1060.02 Q641.943 1060.47 641.943 1061.31 Q641.943 1061.76 639.238 1072.39 L645.035 1072.39 Q645.776 1072.39 646.066 1072.42 Q646.388 1072.45 646.645 1072.61 Q646.903 1072.77 646.903 1073.13 Z" fill="#000000" fill-rule="nonzero" fill-opacity="1" /><path clip-path="url(#clip550)" d="M650.218 1116.38 Q650.218 1116.06 650.476 1115.35 L673.761 1053.13 Q673.761 1053.06 673.922 1052.71 Q674.083 1052.35 674.18 1052.13 Q674.276 1051.87 674.469 1051.68 Q674.695 1051.48 674.953 1051.48 Q675.597 1051.48 675.597 1052.29 Q675.597 1052.35 675.403 1053.13 L652.054 1115.41 Q651.668 1116.54 651.41 1116.86 Q651.185 1117.18 650.798 1117.18 Q650.218 1117.18 650.218 1116.38 Z" fill="#000000" fill-rule="nonzero" fill-opacity="1" /><path clip-path="url(#clip550)" d="M707.166 1077.35 Q707.166 1079.15 706.264 1080.12 Q705.362 1081.05 704.138 1081.05 Q703.14 1081.05 702.592 1080.47 Q702.077 1079.89 702.077 1079.12 Q702.077 1077.99 702.979 1077.09 Q703.913 1076.19 705.266 1076.15 Q704.815 1074.96 703.623 1074.25 Q702.431 1073.51 701.369 1073.32 Q700.338 1073.13 699.307 1073.13 Q697.279 1073.13 695.733 1073.77 Q694.187 1074.42 693.414 1075.41 Q692.641 1076.38 692.287 1077.31 Q691.932 1078.25 691.932 1079.05 Q691.932 1079.76 692.093 1080.34 Q692.287 1080.89 692.737 1081.31 Q693.188 1081.69 693.51 1081.95 Q693.865 1082.21 694.638 1082.43 Q695.411 1082.66 695.733 1082.76 Q696.055 1082.82 696.956 1083.01 Q698.824 1083.4 699.662 1083.63 Q700.499 1083.82 701.594 1084.37 Q702.721 1084.91 703.559 1085.78 Q705.588 1087.81 705.588 1090.61 Q705.588 1091.65 705.233 1092.9 Q704.911 1094.16 703.977 1095.74 Q703.043 1097.31 701.626 1098.57 Q700.209 1099.83 697.762 1100.7 Q695.346 1101.56 692.319 1101.56 Q688.1 1101.56 685.491 1099.79 Q682.883 1097.99 682.883 1095.16 Q682.883 1093.09 684.01 1091.97 Q685.137 1090.81 686.586 1090.81 Q687.681 1090.81 688.357 1091.42 Q689.034 1092 689.034 1093.09 Q689.034 1094.58 687.842 1095.7 Q686.651 1096.83 684.879 1096.6 Q686.393 1100.08 692.383 1100.08 Q694.638 1100.08 696.377 1099.5 Q698.148 1098.89 699.114 1098.05 Q700.113 1097.18 700.757 1096.12 Q701.401 1095.06 701.594 1094.25 Q701.82 1093.45 701.82 1092.84 Q701.82 1091.77 701.401 1090.97 Q700.982 1090.16 700.402 1089.71 Q699.855 1089.23 698.792 1088.84 Q697.762 1088.42 697.021 1088.26 Q696.28 1088.1 694.96 1087.84 Q694.348 1087.72 693.961 1087.65 Q693.575 1087.56 692.77 1087.3 Q691.997 1087.01 691.449 1086.72 Q690.934 1086.43 690.258 1085.91 Q689.581 1085.4 689.163 1084.79 Q688.744 1084.17 688.454 1083.27 Q688.164 1082.37 688.164 1081.31 Q688.164 1080.34 688.454 1079.18 Q688.776 1078.02 689.581 1076.67 Q690.419 1075.32 691.61 1074.22 Q692.802 1073.13 694.799 1072.42 Q696.828 1071.68 699.307 1071.68 Q702.915 1071.68 705.04 1073.35 Q707.166 1074.99 707.166 1077.35 Z" fill="#000000" fill-rule="nonzero" fill-opacity="1" /><polyline clip-path="url(#clip552)" style="stroke:#808080; stroke-linecap:round; stroke-linejoin:round; stroke-width:2; stroke-opacity:0.1; fill:none" points="187.395,984.237 1152.76,984.237 "/>
<polyline clip-path="url(#clip552)" style="stroke:#808080; stroke-linecap:round; stroke-linejoin:round; stroke-width:2; stroke-opacity:0.1; fill:none" points="187.395,749.989 1152.76,749.989 "/>
<polyline clip-path="url(#clip552)" style="stroke:#808080; stroke-linecap:round; stroke-linejoin:round; stroke-width:2; stroke-opacity:0.1; fill:none" points="187.395,515.74 1152.76,515.74 "/>
<polyline clip-path="url(#clip552)" style="stroke:#808080; stroke-linecap:round; stroke-linejoin:round; stroke-width:2; stroke-opacity:0.1; fill:none" points="187.395,281.492 1152.76,281.492 "/>
<polyline clip-path="url(#clip552)" style="stroke:#808080; stroke-linecap:round; stroke-linejoin:round; stroke-width:2; stroke-opacity:0.1; fill:none" points="187.395,47.2441 1152.76,47.2441 "/>
<polyline clip-path="url(#clip550)" style="stroke:#000000; stroke-linecap:round; stroke-linejoin:round; stroke-width:4; stroke-opacity:1; fill:none" points="187.395,984.237 187.395,47.2441 "/>
<polyline clip-path="url(#clip550)" style="stroke:#000000; stroke-linecap:round; stroke-linejoin:round; stroke-width:4; stroke-opacity:1; fill:none" points="1152.76,984.237 1152.76,47.2441 "/>
<polyline clip-path="url(#clip550)" style="stroke:#000000; stroke-linecap:round; stroke-linejoin:round; stroke-width:4; stroke-opacity:1; fill:none" points="187.395,984.237 206.292,984.237 "/>
<polyline clip-path="url(#clip550)" style="stroke:#000000; stroke-linecap:round; stroke-linejoin:round; stroke-width:4; stroke-opacity:1; fill:none" points="187.395,749.989 206.292,749.989 "/>
<polyline clip-path="url(#clip550)" style="stroke:#000000; stroke-linecap:round; stroke-linejoin:round; stroke-width:4; stroke-opacity:1; fill:none" points="187.395,515.74 206.292,515.74 "/>
<polyline clip-path="url(#clip550)" style="stroke:#000000; stroke-linecap:round; stroke-linejoin:round; stroke-width:4; stroke-opacity:1; fill:none" points="187.395,281.492 206.292,281.492 "/>
<polyline clip-path="url(#clip550)" style="stroke:#000000; stroke-linecap:round; stroke-linejoin:round; stroke-width:4; stroke-opacity:1; fill:none" points="187.395,47.2441 206.292,47.2441 "/>
<g clip-path="url(#clip550)">
<text style="fill:#000000; fill-opacity:1; font-family:Book Antiqua,Palatino,Palatino Linotype,Palatino LT STD,Georgia,serif; font-size:51px; font-weight:bold; text-anchor:middle;" transform="rotate(0, 156.707, 1001.74)" x="156.707" y="1001.74">0</text>
</g>
<g clip-path="url(#clip550)">
<text style="fill:#000000; fill-opacity:1; font-family:Book Antiqua,Palatino,Palatino Linotype,Palatino LT STD,Georgia,serif; font-size:51px; font-weight:bold; text-anchor:middle;" transform="rotate(0, 156.707, 767.489)" x="156.707" y="767.489">1</text>
</g>
<g clip-path="url(#clip550)">
<text style="fill:#000000; fill-opacity:1; font-family:Book Antiqua,Palatino,Palatino Linotype,Palatino LT STD,Georgia,serif; font-size:51px; font-weight:bold; text-anchor:middle;" transform="rotate(0, 156.707, 533.24)" x="156.707" y="533.24">2</text>
</g>
<g clip-path="url(#clip550)">
<text style="fill:#000000; fill-opacity:1; font-family:Book Antiqua,Palatino,Palatino Linotype,Palatino LT STD,Georgia,serif; font-size:51px; font-weight:bold; text-anchor:middle;" transform="rotate(0, 156.707, 298.992)" x="156.707" y="298.992">3</text>
</g>
<g clip-path="url(#clip550)">
<text style="fill:#000000; fill-opacity:1; font-family:Book Antiqua,Palatino,Palatino Linotype,Palatino LT STD,Georgia,serif; font-size:51px; font-weight:bold; text-anchor:middle;" transform="rotate(0, 156.707, 64.7441)" x="156.707" y="64.7441">4</text>
</g>
<path clip-path="url(#clip550)" d="M91.4893 709.501 Q81.4089 709.501 74.388 703.059 Q67.3349 696.586 67.3349 687.601 Q67.3349 678.551 74.388 672.11 Q81.4411 665.636 91.4893 665.636 Q101.441 665.636 108.365 672.11 Q115.289 678.583 115.289 687.601 Q115.289 696.489 108.397 702.995 Q101.505 709.501 91.4893 709.501 M90.5554 702.705 Q96.6745 702.705 101.377 701.256 Q106.046 699.807 108.591 697.488 Q111.135 695.137 112.359 692.625 Q113.583 690.113 113.583 687.536 Q113.583 685.024 112.391 682.576 Q111.199 680.097 108.687 677.746 Q106.175 675.395 101.473 673.913 Q96.7711 672.432 90.5554 672.432 Q85.7245 672.432 81.8598 673.462 Q77.9629 674.493 75.6118 676.103 Q73.2608 677.713 71.7149 679.807 Q70.169 681.868 69.5893 683.833 Q68.9774 685.765 68.9774 687.601 Q68.9774 689.919 70.008 692.335 Q71.0386 694.75 73.3252 697.198 Q75.5796 699.613 80.0562 701.159 Q84.5006 702.705 90.5554 702.705 Z" fill="#000000" fill-rule="nonzero" fill-opacity="1" /><path clip-path="url(#clip550)" d="M87.4636 659.278 L85.4024 659.278 L84.6939 649.584 L106.594 649.584 Q108.172 649.584 109.106 649.455 Q110.008 649.326 111.07 648.811 Q112.133 648.264 112.616 647.04 Q113.099 645.784 113.099 643.787 Q113.099 640.212 110.169 638.022 Q107.238 635.8 102.89 635.8 L91.1351 635.8 Q88.6874 635.8 88.0755 636.67 Q87.4636 637.539 87.4636 640.953 L85.4024 640.953 L84.6939 631.259 L108.108 631.259 Q110.555 631.259 111.199 630.422 Q111.811 629.552 111.811 626.106 L113.84 626.106 L114.581 635.607 L108.623 635.607 Q114.549 638.376 114.581 644.109 Q114.581 647.008 113.84 649.004 Q113.099 650.969 112.198 651.967 Q111.264 652.966 109.492 653.513 Q107.721 654.029 106.626 654.093 Q105.531 654.157 103.405 654.157 L93.5183 654.157 Q89.0417 654.157 88.2687 654.801 Q87.4636 655.446 87.4636 659.278 Z" fill="#000000" fill-rule="nonzero" fill-opacity="1" /><path clip-path="url(#clip550)" d="M87.4636 623.833 L86.0143 623.833 Q85.8855 620.806 83.7599 618.809 Q81.6021 616.78 78.9612 616.104 Q76.3204 615.395 73.2608 615.331 L73.2608 613.689 L85.4024 613.689 L85.4024 604.252 L87.4636 604.252 L87.4636 613.689 L105.789 613.689 Q112.906 613.689 112.906 609.244 Q112.906 607.344 110.974 606.088 Q109.009 604.832 105.531 604.832 L101.892 604.832 L101.892 603.189 L105.66 603.189 Q109.235 603.189 111.908 604.832 Q114.581 606.474 114.581 609.727 Q114.581 610.919 114.259 612.11 Q113.969 613.27 113.196 614.816 Q112.391 616.329 110.459 617.296 Q108.494 618.23 105.66 618.23 L87.4636 618.23 L87.4636 623.833 Z" fill="#000000" fill-rule="nonzero" fill-opacity="1" /><path clip-path="url(#clip550)" d="M124.597 602.994 Q124.597 599.484 124.146 598.678 Q123.727 597.841 121.634 597.841 L90.7486 597.841 Q88.5586 597.841 88.0111 598.678 Q87.4636 599.484 87.4636 602.994 L85.4024 602.994 L84.6939 593.493 L89.0417 593.493 Q84.6939 589.532 84.6939 584.25 Q84.6939 578.646 89.0417 574.556 Q93.3895 570.466 99.6052 570.466 Q105.885 570.466 110.233 574.814 Q114.581 579.162 114.581 585.184 Q114.581 588.469 112.906 590.691 Q111.199 592.881 109.943 593.3 L110.555 593.3 L121.634 593.3 Q123.76 593.3 124.178 592.463 Q124.597 591.625 124.597 588.147 L126.626 588.147 Q126.433 595.071 126.433 595.587 Q126.433 596.231 126.626 602.994 L124.597 602.994 M106.336 593.3 Q107.335 593.3 107.689 593.171 Q108.043 593.01 109.106 592.366 Q113.099 589.757 113.099 585.506 Q113.099 585.474 113.099 585.442 Q113.099 581.674 109.267 578.807 Q105.402 575.941 99.6052 575.941 Q94.0658 575.941 90.2011 578.55 Q86.3364 581.158 86.3364 584.765 Q86.3364 587.342 87.7212 589.596 Q89.1061 591.851 91.6181 593.3 L106.336 593.3 Z" fill="#000000" fill-rule="nonzero" fill-opacity="1" /><path clip-path="url(#clip550)" d="M87.4636 562.533 L85.4024 562.533 L84.6939 552.839 L106.594 552.839 Q108.172 552.839 109.106 552.71 Q110.008 552.582 111.07 552.066 Q112.133 551.519 112.616 550.295 Q113.099 549.039 113.099 547.042 Q113.099 543.467 110.169 541.277 Q107.238 539.055 102.89 539.055 L91.1351 539.055 Q88.6874 539.055 88.0755 539.925 Q87.4636 540.794 87.4636 544.208 L85.4024 544.208 L84.6939 534.514 L108.108 534.514 Q110.555 534.514 111.199 533.677 Q111.811 532.807 111.811 529.361 L113.84 529.361 L114.581 538.862 L108.623 538.862 Q114.549 541.632 114.581 547.364 Q114.581 550.263 113.84 552.26 Q113.099 554.224 112.198 555.223 Q111.264 556.221 109.492 556.768 Q107.721 557.284 106.626 557.348 Q105.531 557.413 103.405 557.413 L93.5183 557.413 Q89.0417 557.413 88.2687 558.057 Q87.4636 558.701 87.4636 562.533 Z" fill="#000000" fill-rule="nonzero" fill-opacity="1" /><path clip-path="url(#clip550)" d="M87.4636 527.089 L86.0143 527.089 Q85.8855 524.061 83.7599 522.064 Q81.6021 520.035 78.9612 519.359 Q76.3204 518.651 73.2608 518.586 L73.2608 516.944 L85.4024 516.944 L85.4024 507.507 L87.4636 507.507 L87.4636 516.944 L105.789 516.944 Q112.906 516.944 112.906 512.499 Q112.906 510.599 110.974 509.343 Q109.009 508.087 105.531 508.087 L101.892 508.087 L101.892 506.445 L105.66 506.445 Q109.235 506.445 111.908 508.087 Q114.581 509.73 114.581 512.982 Q114.581 514.174 114.259 515.366 Q113.969 516.525 113.196 518.071 Q112.391 519.585 110.459 520.551 Q108.494 521.485 105.66 521.485 L87.4636 521.485 L87.4636 527.089 Z" fill="#000000" fill-rule="nonzero" fill-opacity="1" /><path clip-path="url(#clip550)" d="M129.396 493.047 Q129.074 493.047 128.365 492.789 L66.1433 469.504 Q66.0789 469.504 65.7246 469.343 Q65.3704 469.182 65.1449 469.086 Q64.8873 468.989 64.694 468.796 Q64.5008 468.57 64.5008 468.313 Q64.5008 467.669 65.306 467.669 Q65.3704 467.669 66.1433 467.862 L128.429 491.211 Q129.557 491.598 129.879 491.855 Q130.201 492.081 130.201 492.467 Q130.201 493.047 129.396 493.047 Z" fill="#000000" fill-rule="nonzero" fill-opacity="1" /><path clip-path="url(#clip550)" d="M124.597 451.668 Q124.597 448.158 124.146 447.353 Q123.727 446.515 121.634 446.515 L90.7486 446.515 Q88.5586 446.515 88.0111 447.353 Q87.4636 448.158 87.4636 451.668 L85.4024 451.668 L84.6939 442.168 L89.0417 442.168 Q84.6939 438.206 84.6939 432.924 Q84.6939 427.321 89.0417 423.231 Q93.3895 419.14 99.6052 419.14 Q105.885 419.14 110.233 423.488 Q114.581 427.836 114.581 433.858 Q114.581 437.143 112.906 439.366 Q111.199 441.556 109.943 441.974 L110.555 441.974 L121.634 441.974 Q123.76 441.974 124.178 441.137 Q124.597 440.3 124.597 436.821 L126.626 436.821 Q126.433 443.746 126.433 444.261 Q126.433 444.905 126.626 451.668 L124.597 451.668 M106.336 441.974 Q107.335 441.974 107.689 441.846 Q108.043 441.684 109.106 441.04 Q113.099 438.432 113.099 434.181 Q113.099 434.148 113.099 434.116 Q113.099 430.348 109.267 427.482 Q105.402 424.615 99.6052 424.615 Q94.0658 424.615 90.2011 427.224 Q86.3364 429.833 86.3364 433.44 Q86.3364 436.016 87.7212 438.271 Q89.1061 440.525 91.6181 441.974 L106.336 441.974 Z" fill="#000000" fill-rule="nonzero" fill-opacity="1" /><path clip-path="url(#clip550)" d="M112.777 414.433 Q111.715 415.432 110.33 415.432 Q108.945 415.432 107.947 414.433 Q106.916 413.435 106.916 411.921 Q106.916 410.472 107.882 409.506 Q108.816 408.507 110.362 408.507 Q111.876 408.507 112.874 409.57 Q113.84 410.601 113.84 411.921 Q113.84 413.435 112.777 414.433 Z" fill="#000000" fill-rule="nonzero" fill-opacity="1" /><path clip-path="url(#clip550)" d="M87.4636 386.824 L85.4024 386.824 L84.6939 377.13 L106.594 377.13 Q108.172 377.13 109.106 377.001 Q110.008 376.873 111.07 376.357 Q112.133 375.81 112.616 374.586 Q113.099 373.33 113.099 371.333 Q113.099 367.758 110.169 365.568 Q107.238 363.346 102.89 363.346 L91.1351 363.346 Q88.6874 363.346 88.0755 364.216 Q87.4636 365.085 87.4636 368.499 L85.4024 368.499 L84.6939 358.805 L108.108 358.805 Q110.555 358.805 111.199 357.968 Q111.811 357.098 111.811 353.652 L113.84 353.652 L114.581 363.153 L108.623 363.153 Q114.549 365.923 114.581 371.655 Q114.581 374.554 113.84 376.551 Q113.099 378.515 112.198 379.514 Q111.264 380.512 109.492 381.059 Q107.721 381.575 106.626 381.639 Q105.531 381.704 103.405 381.704 L93.5183 381.704 Q89.0417 381.704 88.2687 382.348 Q87.4636 382.992 87.4636 386.824 Z" fill="#000000" fill-rule="nonzero" fill-opacity="1" /><path clip-path="url(#clip550)" d="M112.777 349.589 Q111.715 350.588 110.33 350.588 Q108.945 350.588 107.947 349.589 Q106.916 348.591 106.916 347.077 Q106.916 345.628 107.882 344.662 Q108.816 343.663 110.362 343.663 Q111.876 343.663 112.874 344.726 Q113.84 345.757 113.84 347.077 Q113.84 348.591 112.777 349.589 Z" fill="#000000" fill-rule="nonzero" fill-opacity="1" /><polyline clip-path="url(#clip552)" style="stroke:#009af9; stroke-linecap:round; stroke-linejoin:round; stroke-width:8; stroke-opacity:1; fill:none" points="187.395,984.237 189.004,974.095 190.612,960.716 192.221,947.433 193.83,934.252 195.439,921.181 197.048,908.224 198.657,895.389 200.266,882.679 201.875,870.101 203.484,857.66 205.093,845.359 206.702,833.205 208.311,821.2 209.92,809.348 211.529,797.654 213.138,786.12 214.747,774.75 216.355,763.547 217.964,752.513 219.573,741.651 221.182,730.964 222.791,720.452 224.4,710.119 226.009,699.966 227.618,689.994 229.227,680.204 230.836,670.598 232.445,661.177 234.054,651.941 235.663,642.892 237.272,634.028 238.881,625.352 240.489,616.862 242.098,608.559 243.707,600.443 245.316,592.513 246.925,584.77 248.534,577.211 250.143,569.838 251.752,562.649 253.361,555.643 254.97,548.819 256.579,542.176 258.188,535.713 259.797,529.429 261.406,523.321 263.015,517.39 264.624,511.633 266.232,506.048 267.841,500.635 269.45,495.39 271.059,490.313 272.668,485.401 274.277,480.653 275.886,476.066 277.495,471.638 279.104,467.368 280.713,463.252 282.322,459.29 283.931,455.478 285.54,451.815 287.149,448.298 288.758,444.924 290.366,441.692 291.975,438.599 293.584,435.642 295.193,432.82 296.802,430.129 298.411,427.567 300.02,425.132 301.629,422.822 303.238,420.632 304.847,418.563 306.456,416.609 308.065,414.77 309.674,413.043 311.283,411.425 312.892,409.913 314.501,408.506 316.109,407.2 317.718,405.994 319.327,404.884 320.936,403.868 322.545,402.945 324.154,402.11 325.763,401.363 327.372,400.7 328.981,400.119 330.59,399.618 332.199,399.194 333.808,398.846 335.417,398.57 337.026,398.365 338.635,398.228 340.243,398.157 341.852,398.15 343.461,398.205 345.07,398.319 346.679,398.491 348.288,398.719 349.897,398.999 351.506,399.331 353.115,399.712 354.724,400.14 356.333,400.614 357.942,401.131 359.551,401.69 361.16,402.289 362.769,402.925 364.378,403.598 365.986,404.305 367.595,405.046 369.204,405.817 370.813,406.617 372.422,407.446 374.031,408.301 375.64,409.18 377.249,410.083 378.858,411.007 380.467,411.952 382.076,412.916 383.685,413.898 385.294,414.895 386.903,415.908 388.512,416.934 390.12,417.973 391.729,419.023 393.338,420.083 394.947,421.152 396.556,422.228 398.165,423.312 399.774,424.401 401.383,425.495 402.992,426.593 404.601,427.693 406.21,428.796 407.819,429.899 409.428,431.002 411.037,432.105 412.646,433.206 414.255,434.305 415.863,435.401 417.472,436.493 419.081,437.58 420.69,438.663 422.299,439.739 423.908,440.81 425.517,441.873 427.126,442.929 428.735,443.977 430.344,445.016 431.953,446.047 433.562,447.067 435.171,448.078 436.78,449.079 438.389,450.069 439.997,451.047 441.606,452.014 443.215,452.97 444.824,453.913 446.433,454.843 448.042,455.761 449.651,456.667 451.26,457.558 452.869,458.437 454.478,459.302 456.087,460.153 457.696,460.99 459.305,461.813 460.914,462.622 462.523,463.416 464.132,464.196 465.74,464.961 467.349,465.712 468.958,466.448 470.567,467.169 472.176,467.876 473.785,468.567 475.394,469.244 477.003,469.906 478.612,470.553 480.221,471.186 481.83,471.803 483.439,472.406 485.048,472.994 486.657,473.568 488.266,474.127 489.874,474.671 491.483,475.201 493.092,475.717 494.701,476.219 496.31,476.706 497.919,477.18 499.528,477.639 501.137,478.085 502.746,478.518 504.355,478.937 505.964,479.342 507.573,479.735 509.182,480.114 510.791,480.481 512.4,480.835 514.009,481.176 515.617,481.505 517.226,481.822 518.835,482.127 520.444,482.42 522.053,482.701 523.662,482.971 525.271,483.23 526.88,483.478 528.489,483.714 530.098,483.941 531.707,484.156 533.316,484.361 534.925,484.557 536.534,484.742 538.143,484.918 539.751,485.084 541.36,485.241 542.969,485.388 544.578,485.527 546.187,485.657 547.796,485.779 549.405,485.892 551.014,485.997 552.623,486.095 554.232,486.184 555.841,486.266 557.45,486.341 559.059,486.409 560.668,486.469 562.277,486.523 563.886,486.571 565.494,486.612 567.103,486.646 568.712,486.675 570.321,486.698 571.93,486.716 573.539,486.728 575.148,486.734 576.757,486.736 578.366,486.732 579.975,486.724 581.584,486.711 583.193,486.694 584.802,486.673 586.411,486.647 588.02,486.618 589.628,486.584 591.237,486.547 592.846,486.507 594.455,486.463 596.064,486.416 597.673,486.366 599.282,486.314 600.891,486.258 602.5,486.2 604.109,486.139 605.718,486.076 607.327,486.011 608.936,485.943 610.545,485.874 612.154,485.802 613.763,485.729 615.371,485.655 616.98,485.578 618.589,485.501 620.198,485.422 621.807,485.342 623.416,485.26 625.025,485.178 626.634,485.095 628.243,485.011 629.852,484.926 631.461,484.841 633.07,484.755 634.679,484.669 636.288,484.582 637.897,484.495 639.505,484.407 641.114,484.32 642.723,484.232 644.332,484.145 645.941,484.057 647.55,483.97 649.159,483.882 650.768,483.795 652.377,483.709 653.986,483.622 655.595,483.536 657.204,483.451 658.813,483.366 660.422,483.281 662.031,483.197 663.64,483.114 665.248,483.031 666.857,482.949 668.466,482.868 670.075,482.788 671.684,482.708 673.293,482.629 674.902,482.552 676.511,482.475 678.12,482.399 679.729,482.324 681.338,482.249 682.947,482.176 684.556,482.104 686.165,482.033 687.774,481.963 689.382,481.895 690.991,481.827 692.6,481.76 694.209,481.695 695.818,481.63 697.427,481.567 699.036,481.505 700.645,481.444 702.254,481.384 703.863,481.325 705.472,481.268 707.081,481.211 708.69,481.156 710.299,481.102 711.908,481.05 713.517,480.998 715.125,480.948 716.734,480.898 718.343,480.85 719.952,480.803 721.561,480.758 723.17,480.713 724.779,480.67 726.388,480.627 727.997,480.586 729.606,480.546 731.215,480.507 732.824,480.469 734.433,480.433 736.042,480.397 737.651,480.363 739.259,480.329 740.868,480.297 742.477,480.265 744.086,480.235 745.695,480.206 747.304,480.177 748.913,480.15 750.522,480.124 752.131,480.098 753.74,480.074 755.349,480.051 756.958,480.028 758.567,480.007 760.176,479.986 761.785,479.966 763.394,479.947 765.002,479.929 766.611,479.912 768.22,479.895 769.829,479.88 771.438,479.865 773.047,479.851 774.656,479.837 776.265,479.825 777.874,479.813 779.483,479.802 781.092,479.791 782.701,479.781 784.31,479.772 785.919,479.764 787.528,479.756 789.136,479.749 790.745,479.742 792.354,479.736 793.963,479.731 795.572,479.726 797.181,479.721 798.79,479.717 800.399,479.714 802.008,479.711 803.617,479.709 805.226,479.707 806.835,479.705 808.444,479.704 810.053,479.704 811.662,479.704 813.271,479.704 814.879,479.704 816.488,479.705 818.097,479.707 819.706,479.708 821.315,479.71 822.924,479.712 824.533,479.715 826.142,479.718 827.751,479.721 829.36,479.725 830.969,479.728 832.578,479.732 834.187,479.736 835.796,479.741 837.405,479.745 839.013,479.75 840.622,479.755 842.231,479.76 843.84,479.765 845.449,479.771 847.058,479.777 848.667,479.782 850.276,479.788 851.885,479.794 853.494,479.8 855.103,479.807 856.712,479.813 858.321,479.819 859.93,479.826 861.539,479.833 863.148,479.839 864.756,479.846 866.365,479.853 867.974,479.859 869.583,479.866 871.192,479.873 872.801,479.88 874.41,479.887 876.019,479.894 877.628,479.901 879.237,479.908 880.846,479.915 882.455,479.922 884.064,479.929 885.673,479.936 887.282,479.943 888.89,479.949 890.499,479.956 892.108,479.963 893.717,479.97 895.326,479.977 896.935,479.983 898.544,479.99 900.153,479.996 901.762,480.003 903.371,480.009 904.98,480.016 906.589,480.022 908.198,480.028 909.807,480.035 911.416,480.041 913.025,480.047 914.633,480.053 916.242,480.059 917.851,480.064 919.46,480.07 921.069,480.076 922.678,480.081 924.287,480.087 925.896,480.092 927.505,480.098 929.114,480.103 930.723,480.108 932.332,480.113 933.941,480.118 935.55,480.123 937.159,480.127 938.767,480.132 940.376,480.137 941.985,480.141 943.594,480.146 945.203,480.15 946.812,480.154 948.421,480.158 950.03,480.162 951.639,480.166 953.248,480.17 954.857,480.174 956.466,480.177 958.075,480.181 959.684,480.184 961.293,480.188 962.902,480.191 964.51,480.194 966.119,480.197 967.728,480.2 969.337,480.203 970.946,480.206 972.555,480.209 974.164,480.212 975.773,480.214 977.382,480.217 978.991,480.219 980.6,480.221 982.209,480.224 983.818,480.226 985.427,480.228 987.036,480.23 988.644,480.232 990.253,480.234 991.862,480.236 993.471,480.237 995.08,480.239 996.689,480.241 998.298,480.242 999.907,480.244 1001.52,480.245 1003.12,480.246 1004.73,480.248 1006.34,480.249 1007.95,480.25 1009.56,480.251 1011.17,480.252 1012.78,480.253 1014.39,480.254 1016,480.255 1017.61,480.255 1019.21,480.256 1020.82,480.257 1022.43,480.258 1024.04,480.258 1025.65,480.259 1027.26,480.259 1028.87,480.26 1030.48,480.26 1032.09,480.26 1033.69,480.261 1035.3,480.261 1036.91,480.261 1038.52,480.261 1040.13,480.261 1041.74,480.262 1043.35,480.262 1044.96,480.262 1046.57,480.262 1048.18,480.262 1049.78,480.262 1051.39,480.262 1053,480.262 1054.61,480.261 1056.22,480.261 1057.83,480.261 1059.44,480.261 1061.05,480.261 1062.66,480.26 1064.26,480.26 1065.87,480.26 1067.48,480.26 1069.09,480.259 1070.7,480.259 1072.31,480.259 1073.92,480.258 1075.53,480.258 1077.14,480.257 1078.74,480.257 1080.35,480.257 1081.96,480.256 1083.57,480.256 1085.18,480.255 1086.79,480.255 1088.4,480.254 1090.01,480.254 1091.62,480.253 1093.23,480.253 1094.83,480.252 1096.44,480.252 1098.05,480.251 1099.66,480.251 1101.27,480.25 1102.88,480.25 1104.49,480.249 1106.1,480.248 1107.71,480.248 1109.31,480.247 1110.92,480.247 1112.53,480.246 1114.14,480.246 1115.75,480.245 1117.36,480.245 1118.97,480.244 1120.58,480.243 1122.19,480.243 1123.8,480.242 1125.4,480.242 1127.01,480.241 1128.62,480.241 1130.23,480.24 1131.84,480.24 1133.45,480.239 1135.06,480.239 1136.67,480.238 1138.28,480.238 1139.88,480.237 1141.49,480.237 1143.1,480.236 1144.71,480.236 1146.32,480.235 1147.93,480.235 1149.54,480.234 1151.15,480.234 1152.76,480.233 1154.36,480.233 1155.97,480.232 1157.58,480.232 1159.19,480.231 1160.8,480.231 1162.41,480.231 1164.02,480.23 1165.63,480.23 1167.24,480.229 1168.85,480.229 1170.45,480.229 1172.06,480.228 1173.67,480.228 1175.28,480.227 1176.89,480.227 1178.5,480.227 1180.11,480.226 1181.72,480.226 1183.33,480.226 1184.93,480.225 1186.54,480.225 1188.15,480.225 1189.76,480.225 1191.37,480.224 1192.98,480.224 1194.59,480.224 1196.2,480.223 1197.81,480.223 1199.42,480.223 1201.02,480.223 1202.63,480.222 1204.24,480.222 1205.85,480.222 1207.46,480.222 1209.07,480.221 1210.68,480.221 1212.29,480.221 1213.9,480.221 1215.5,480.221 1217.11,480.221 1218.72,480.22 1220.33,480.22 1221.94,480.22 1223.55,480.22 1225.16,480.22 1226.77,480.22 1228.38,480.219 1229.98,480.219 1231.59,480.219 1233.2,480.219 1234.81,480.219 1236.42,480.219 1238.03,480.219 1239.64,480.219 1241.25,480.219 1242.86,480.218 1244.47,480.218 1246.07,480.218 1247.68,480.218 1249.29,480.218 1250.9,480.218 1252.51,480.218 1254.12,480.218 1255.73,480.218 1257.34,480.218 1258.95,480.218 1260.55,480.218 1262.16,480.218 1263.77,480.218 1265.38,480.218 1266.99,480.218 1268.6,480.218 1270.21,480.218 1271.82,480.218 1273.43,480.218 1275.04,480.218 1276.64,480.217 1278.25,480.217 1279.86,480.217 1281.47,480.217 1283.08,480.217 1284.69,480.217 1286.3,480.217 1287.91,480.217 1289.52,480.218 1291.12,480.218 1292.73,480.218 1294.34,480.218 1295.95,480.218 1297.56,480.218 1299.17,480.218 1300.78,480.218 1302.39,480.218 1304,480.218 1305.6,480.218 1307.21,480.218 1308.82,480.218 1310.43,480.218 1312.04,480.218 1313.65,480.218 1315.26,480.218 1316.87,480.218 1318.48,480.218 1320.09,480.218 1321.69,480.218 1323.3,480.218 1324.91,480.218 1326.52,480.218 1328.13,480.218 1329.74,480.218 1331.35,480.218 1332.96,480.218 1334.57,480.218 1336.17,480.218 1337.78,480.218 1339.39,480.218 1341,480.219 1342.61,480.219 1344.22,480.219 1345.83,480.219 1347.44,480.219 1349.05,480.219 1350.65,480.219 1352.26,480.219 1353.87,480.219 1355.48,480.219 1357.09,480.219 1358.7,480.219 1360.31,480.219 1361.92,480.219 1363.53,480.219 1365.14,480.219 1366.74,480.219 1368.35,480.219 1369.96,480.219 1371.57,480.219 1373.18,480.219 1374.79,480.219 1376.4,480.219 1378.01,480.22 1379.62,480.22 1381.22,480.22 1382.83,480.22 1384.44,480.22 1386.05,480.22 1387.66,480.22 1389.27,480.22 1390.88,480.22 1392.49,480.22 1394.1,480.22 1395.71,480.22 1397.31,480.22 1398.92,480.22 1400.53,480.22 1402.14,480.22 1403.75,480.22 1405.36,480.22 1406.97,480.22 1408.58,480.22 1410.19,480.22 1411.79,480.22 1413.4,480.22 1415.01,480.22 1416.62,480.22 1418.23,480.22 1419.84,480.22 1421.45,480.22 1423.06,480.22 1424.67,480.22 1426.27,480.22 1427.88,480.22 1429.49,480.22 1431.1,480.221 1432.71,480.221 1434.32,480.221 1435.93,480.221 1437.54,480.221 1439.15,480.221 1440.76,480.221 1442.36,480.221 1443.97,480.221 1445.58,480.221 1447.19,480.221 1448.8,480.221 1450.41,480.221 1452.02,480.221 1453.63,480.221 1455.24,480.221 1456.84,480.221 1458.45,480.221 1460.06,480.221 1461.67,480.221 1463.28,480.221 1464.89,480.221 1466.5,480.221 1468.11,480.221 1469.72,480.221 1471.33,480.221 1472.93,480.221 1474.54,480.221 1476.15,480.221 1477.76,480.221 1479.37,480.221 1480.98,480.221 1482.59,480.221 1484.2,480.221 1485.81,480.221 1487.41,480.221 1489.02,480.221 1490.63,480.221 1492.24,480.221 1493.85,480.221 1495.46,480.221 1497.07,480.221 1498.68,480.221 1500.29,480.221 1501.89,480.221 1503.5,480.221 1505.11,480.221 1506.72,480.221 1508.33,480.221 1509.94,480.221 1511.55,480.221 1513.16,480.221 1514.77,480.221 1516.38,480.221 1517.98,480.221 1519.59,480.221 1521.2,480.221 1522.81,480.221 1524.42,480.221 1526.03,480.221 1527.64,480.221 1529.25,480.221 1530.86,480.221 1532.46,480.221 1534.07,480.221 1535.68,480.221 1537.29,480.221 1538.9,480.221 1540.51,480.221 1542.12,480.221 1543.73,480.221 1545.34,480.221 1546.95,480.221 1548.55,480.221 1550.16,480.221 1551.77,480.221 1553.38,480.221 1554.99,480.221 1556.6,480.221 1558.21,480.221 1559.82,480.221 1561.43,480.221 1563.03,480.221 1564.64,480.221 1566.25,480.221 1567.86,480.221 1569.47,480.221 1571.08,480.221 1572.69,480.221 1574.3,480.221 1575.91,480.221 1577.51,480.221 1579.12,480.221 1580.73,480.221 1582.34,480.221 1583.95,480.221 1585.56,480.221 1587.17,480.221 1588.78,480.221 1590.39,480.221 1592,480.221 1593.6,480.221 1595.21,480.221 1596.82,480.221 1598.43,480.221 1600.04,480.221 1601.65,480.221 1603.26,480.221 1604.87,480.221 1606.48,480.221 1608.08,480.221 1609.69,480.221 1611.3,480.221 1612.91,480.221 1614.52,480.221 1616.13,480.221 1617.74,480.221 1619.35,480.221 1620.96,480.221 1622.57,480.221 1624.17,480.221 1625.78,480.221 1627.39,480.221 1629,480.221 1630.61,480.221 1632.22,480.221 1633.83,480.221 1635.44,480.221 1637.05,480.221 1638.65,480.221 1640.26,480.221 1641.87,480.221 1643.48,480.221 1645.09,480.221 1646.7,480.221 1648.31,480.221 1649.92,480.221 1651.53,480.221 1653.13,480.221 1654.74,480.221 1656.35,480.221 1657.96,480.221 1659.57,480.221 1661.18,480.221 1662.79,480.221 1664.4,480.221 1666.01,480.221 1667.62,480.221 1669.22,480.221 1670.83,480.221 1672.44,480.221 1674.05,480.221 1675.66,480.221 1677.27,480.221 1678.88,480.221 1680.49,480.221 1682.1,480.221 1683.7,480.221 1685.31,480.221 1686.92,480.221 1688.53,480.221 1690.14,480.221 1691.75,480.221 1693.36,480.221 1694.97,480.221 1696.58,480.221 1698.19,480.221 1699.79,480.221 1701.4,480.221 1703.01,480.221 1704.62,480.221 1706.23,480.221 1707.84,480.221 1709.45,480.221 1711.06,480.221 1712.67,480.221 1714.27,480.221 1715.88,480.221 1717.49,480.221 1719.1,480.221 1720.71,480.221 1722.32,480.221 1723.93,480.221 1725.54,480.221 1727.15,480.221 1728.75,480.221 1730.36,480.221 1731.97,480.221 1733.58,480.221 1735.19,480.221 1736.8,480.221 1738.41,480.221 1740.02,480.221 1741.63,480.221 1743.24,480.221 1744.84,480.221 1746.45,480.221 1748.06,480.221 1749.67,480.221 1751.28,480.221 1752.89,480.221 1754.5,480.221 1756.11,480.221 1757.72,480.221 1759.32,480.221 1760.93,480.221 1762.54,480.221 1764.15,480.221 1765.76,480.221 1767.37,480.221 1768.98,480.221 1770.59,480.221 1772.2,480.221 1773.81,480.221 1775.41,480.221 1777.02,480.221 1778.63,480.221 1780.24,480.221 1781.85,480.221 1783.46,480.221 1785.07,480.221 1786.68,480.221 1788.29,480.221 1789.89,480.221 1791.5,480.221 1793.11,480.221 1794.72,480.221 1796.33,480.221 1797.94,480.221 1799.55,480.221 1801.16,480.221 1802.77,480.221 1804.37,480.221 1805.98,480.221 1807.59,480.221 1809.2,480.221 1810.81,480.221 1812.42,480.221 1814.03,480.221 1815.64,480.221 1817.25,480.221 1818.86,480.221 1820.46,480.221 1822.07,480.221 1823.68,480.221 1825.29,480.221 1826.9,480.221 1828.51,480.221 1830.12,480.221 1831.73,480.221 1833.34,480.221 1834.94,480.221 1836.55,480.221 1838.16,480.221 1839.77,480.221 1841.38,480.221 1842.99,480.221 1844.6,480.221 1846.21,480.221 1847.82,480.221 1849.42,480.221 1851.03,480.221 1852.64,480.221 1854.25,480.221 1855.86,480.221 1857.47,480.221 1859.08,480.221 1860.69,480.221 1862.3,480.221 1863.91,480.221 1865.51,480.221 1867.12,480.221 1868.73,480.221 1870.34,480.221 1871.95,480.221 1873.56,480.221 1875.17,480.221 1876.78,480.221 1878.39,480.221 1879.99,480.221 1881.6,480.221 1883.21,480.221 1884.82,480.221 1886.43,480.221 1888.04,480.221 1889.65,480.221 1891.26,480.221 1892.87,480.221 1894.48,480.221 1896.08,480.221 1897.69,480.221 1899.3,480.221 1900.91,480.221 1902.52,480.221 1904.13,480.221 1905.74,480.221 1907.35,480.221 1908.96,480.221 1910.56,480.221 1912.17,480.221 1913.78,480.221 1915.39,480.221 1917,480.221 1918.61,480.221 1920.22,480.221 1921.83,480.221 1923.44,480.221 1925.04,480.221 1926.65,480.221 1928.26,480.221 1929.87,480.221 1931.48,480.221 1933.09,480.221 1934.7,480.221 1936.31,480.221 1937.92,480.221 1939.53,480.221 1941.13,480.221 1942.74,480.221 1944.35,480.221 1945.96,480.221 1947.57,480.221 1949.18,480.221 1950.79,480.221 1952.4,480.221 1954.01,480.221 1955.61,480.221 1957.22,480.221 1958.83,480.221 1960.44,480.221 1962.05,480.221 1963.66,480.221 1965.27,480.221 1966.88,480.221 1968.49,480.221 1970.1,480.221 1971.7,480.221 1973.31,480.221 1974.92,480.221 1976.53,480.221 1978.14,480.221 1979.75,480.221 1981.36,480.221 1982.97,480.221 1984.58,480.221 1986.18,480.221 1987.79,480.221 1989.4,480.221 1991.01,480.221 1992.62,480.221 1994.23,480.221 1995.84,480.221 1997.45,480.221 1999.06,480.221 2000.66,480.221 2002.27,480.221 2003.88,480.221 2005.49,480.221 2007.1,480.221 2008.71,480.221 2010.32,480.221 2011.93,480.221 2013.54,480.221 2015.15,480.221 2016.75,480.221 2018.36,480.221 2019.97,480.221 2021.58,480.221 2023.19,480.221 2024.8,480.221 2026.41,480.221 2028.02,480.221 2029.63,480.221 2031.23,480.221 2032.84,480.221 2034.45,480.221 2036.06,480.221 2037.67,480.221 2039.28,480.221 2040.89,480.221 2042.5,480.221 2044.11,480.221 2045.72,480.221 2047.32,480.221 2048.93,480.221 2050.54,480.221 2052.15,480.221 2053.76,480.221 2055.37,480.221 2056.98,480.221 2058.59,480.221 2060.2,480.221 2061.8,480.221 2063.41,480.221 2065.02,480.221 2066.63,480.221 2068.24,480.221 2069.85,480.221 2071.46,480.221 2073.07,480.221 2074.68,480.221 2076.28,480.221 2077.89,480.221 2079.5,480.221 2081.11,480.221 2082.72,480.221 2084.33,480.221 2085.94,480.221 2087.55,480.221 2089.16,480.221 2090.77,480.221 2092.37,480.221 2093.98,480.221 2095.59,480.221 2097.2,480.221 2098.81,480.221 2100.42,480.221 2102.03,480.221 2103.64,480.221 2105.25,480.221 2106.85,480.221 2108.46,480.221 2110.07,480.221 2111.68,480.221 2113.29,480.221 2114.9,480.221 2116.51,480.221 2118.12,480.221 "/>
<polyline clip-path="url(#clip552)" style="stroke:#e26f46; stroke-linecap:round; stroke-linejoin:round; stroke-width:8; stroke-opacity:1; fill:none" points="187.395,984.237 189.004,976.368 190.612,965.434 192.221,954.588 193.83,943.835 195.439,933.177 197.048,922.619 198.657,912.165 200.266,901.818 201.875,891.581 203.484,881.457 205.093,871.45 206.702,861.561 208.311,851.793 209.92,842.149 211.529,832.631 213.138,823.241 214.747,813.98 216.355,804.85 217.964,795.854 219.573,786.992 221.182,778.265 222.791,769.675 224.4,761.223 226.009,752.91 227.618,744.735 229.227,736.701 230.836,728.807 232.445,721.054 234.054,713.443 235.663,705.972 237.272,698.643 238.881,691.455 240.489,684.409 242.098,677.504 243.707,670.739 245.316,664.115 246.925,657.631 248.534,651.287 250.143,645.081 251.752,639.013 253.361,633.083 254.97,627.289 256.579,621.631 258.188,616.108 259.797,610.719 261.406,605.462 263.015,600.337 264.624,595.342 266.232,590.476 267.841,585.739 269.45,581.128 271.059,576.642 272.668,572.28 274.277,568.041 275.886,563.924 277.495,559.925 279.104,556.045 280.713,552.282 282.322,548.633 283.931,545.099 285.54,541.676 287.149,538.363 288.758,535.159 290.366,532.062 291.975,529.07 293.584,526.182 295.193,523.396 296.802,520.711 298.411,518.124 300.02,515.633 301.629,513.238 303.238,510.937 304.847,508.727 306.456,506.607 308.065,504.575 309.674,502.63 311.283,500.769 312.892,498.992 314.501,497.296 316.109,495.68 317.718,494.142 319.327,492.679 320.936,491.292 322.545,489.977 324.154,488.734 325.763,487.56 327.372,486.454 328.981,485.415 330.59,484.44 332.199,483.528 333.808,482.677 335.417,481.887 337.026,481.154 338.635,480.479 340.243,479.859 341.852,479.292 343.461,478.777 345.07,478.314 346.679,477.899 348.288,477.533 349.897,477.212 351.506,476.937 353.115,476.705 354.724,476.516 356.333,476.367 357.942,476.258 359.551,476.187 361.16,476.152 362.769,476.154 364.378,476.19 365.986,476.259 367.595,476.36 369.204,476.492 370.813,476.653 372.422,476.843 374.031,477.06 375.64,477.303 377.249,477.572 378.858,477.864 380.467,478.18 382.076,478.518 383.685,478.876 385.294,479.255 386.903,479.652 388.512,480.068 390.12,480.501 391.729,480.951 393.338,481.415 394.947,481.895 396.556,482.388 398.165,482.894 399.774,483.412 401.383,483.942 402.992,484.482 404.601,485.032 406.21,485.591 407.819,486.159 409.428,486.734 411.037,487.317 412.646,487.906 414.255,488.501 415.863,489.101 417.472,489.706 419.081,490.315 420.69,490.927 422.299,491.542 423.908,492.16 425.517,492.78 427.126,493.402 428.735,494.024 430.344,494.647 431.953,495.27 433.562,495.893 435.171,496.515 436.78,497.135 438.389,497.755 439.997,498.372 441.606,498.988 443.215,499.601 444.824,500.21 446.433,500.817 448.042,501.42 449.651,502.02 451.26,502.615 452.869,503.207 454.478,503.793 456.087,504.375 457.696,504.952 459.305,505.523 460.914,506.09 462.523,506.65 464.132,507.205 465.74,507.754 467.349,508.297 468.958,508.833 470.567,509.363 472.176,509.886 473.785,510.403 475.394,510.913 477.003,511.416 478.612,511.912 480.221,512.401 481.83,512.883 483.439,513.358 485.048,513.825 486.657,514.285 488.266,514.738 489.874,515.183 491.483,515.62 493.092,516.05 494.701,516.473 496.31,516.888 497.919,517.295 499.528,517.695 501.137,518.087 502.746,518.471 504.355,518.848 505.964,519.217 507.573,519.579 509.182,519.933 510.791,520.28 512.4,520.619 514.009,520.951 515.617,521.276 517.226,521.592 518.835,521.902 520.444,522.204 522.053,522.5 523.662,522.788 525.271,523.068 526.88,523.342 528.489,523.609 530.098,523.869 531.707,524.122 533.316,524.368 534.925,524.607 536.534,524.84 538.143,525.067 539.751,525.286 541.36,525.5 542.969,525.707 544.578,525.907 546.187,526.102 547.796,526.291 549.405,526.473 551.014,526.65 552.623,526.821 554.232,526.986 555.841,527.145 557.45,527.299 559.059,527.447 560.668,527.59 562.277,527.728 563.886,527.861 565.494,527.988 567.103,528.111 568.712,528.228 570.321,528.341 571.93,528.449 573.539,528.553 575.148,528.652 576.757,528.746 578.366,528.836 579.975,528.922 581.584,529.004 583.193,529.081 584.802,529.155 586.411,529.224 588.02,529.29 589.628,529.353 591.237,529.411 592.846,529.466 594.455,529.518 596.064,529.566 597.673,529.611 599.282,529.653 600.891,529.691 602.5,529.727 604.109,529.759 605.718,529.789 607.327,529.816 608.936,529.84 610.545,529.862 612.154,529.881 613.763,529.898 615.371,529.912 616.98,529.924 618.589,529.933 620.198,529.941 621.807,529.946 623.416,529.95 625.025,529.951 626.634,529.95 628.243,529.948 629.852,529.944 631.461,529.938 633.07,529.931 634.679,529.921 636.288,529.911 637.897,529.899 639.505,529.885 641.114,529.871 642.723,529.855 644.332,529.837 645.941,529.819 647.55,529.799 649.159,529.779 650.768,529.757 652.377,529.735 653.986,529.711 655.595,529.687 657.204,529.662 658.813,529.636 660.422,529.609 662.031,529.581 663.64,529.553 665.248,529.525 666.857,529.496 668.466,529.466 670.075,529.436 671.684,529.405 673.293,529.374 674.902,529.343 676.511,529.311 678.12,529.279 679.729,529.247 681.338,529.214 682.947,529.181 684.556,529.148 686.165,529.115 687.774,529.082 689.382,529.049 690.991,529.015 692.6,528.982 694.209,528.948 695.818,528.915 697.427,528.881 699.036,528.848 700.645,528.814 702.254,528.781 703.863,528.748 705.472,528.715 707.081,528.682 708.69,528.649 710.299,528.617 711.908,528.584 713.517,528.552 715.125,528.52 716.734,528.489 718.343,528.457 719.952,528.426 721.561,528.395 723.17,528.364 724.779,528.334 726.388,528.304 727.997,528.274 729.606,528.245 731.215,528.216 732.824,528.187 734.433,528.158 736.042,528.13 737.651,528.103 739.259,528.075 740.868,528.048 742.477,528.022 744.086,527.996 745.695,527.97 747.304,527.944 748.913,527.919 750.522,527.895 752.131,527.871 753.74,527.847 755.349,527.823 756.958,527.8 758.567,527.778 760.176,527.755 761.785,527.734 763.394,527.712 765.002,527.691 766.611,527.671 768.22,527.651 769.829,527.631 771.438,527.611 773.047,527.593 774.656,527.574 776.265,527.556 777.874,527.538 779.483,527.521 781.092,527.504 782.701,527.487 784.31,527.471 785.919,527.455 787.528,527.44 789.136,527.425 790.745,527.41 792.354,527.396 793.963,527.382 795.572,527.369 797.181,527.356 798.79,527.343 800.399,527.33 802.008,527.318 803.617,527.307 805.226,527.295 806.835,527.284 808.444,527.273 810.053,527.263 811.662,527.253 813.271,527.243 814.879,527.234 816.488,527.225 818.097,527.216 819.706,527.207 821.315,527.199 822.924,527.191 824.533,527.184 826.142,527.176 827.751,527.169 829.36,527.163 830.969,527.156 832.578,527.15 834.187,527.144 835.796,527.138 837.405,527.133 839.013,527.127 840.622,527.122 842.231,527.117 843.84,527.113 845.449,527.109 847.058,527.104 848.667,527.101 850.276,527.097 851.885,527.093 853.494,527.09 855.103,527.087 856.712,527.084 858.321,527.081 859.93,527.079 861.539,527.076 863.148,527.074 864.756,527.072 866.365,527.07 867.974,527.069 869.583,527.067 871.192,527.066 872.801,527.064 874.41,527.063 876.019,527.062 877.628,527.061 879.237,527.061 880.846,527.06 882.455,527.06 884.064,527.059 885.673,527.059 887.282,527.059 888.89,527.059 890.499,527.059 892.108,527.059 893.717,527.059 895.326,527.059 896.935,527.06 898.544,527.06 900.153,527.061 901.762,527.062 903.371,527.062 904.98,527.063 906.589,527.064 908.198,527.065 909.807,527.066 911.416,527.067 913.025,527.068 914.633,527.069 916.242,527.071 917.851,527.072 919.46,527.073 921.069,527.075 922.678,527.076 924.287,527.077 925.896,527.079 927.505,527.08 929.114,527.082 930.723,527.084 932.332,527.085 933.941,527.087 935.55,527.088 937.159,527.09 938.767,527.092 940.376,527.093 941.985,527.095 943.594,527.097 945.203,527.099 946.812,527.1 948.421,527.102 950.03,527.104 951.639,527.106 953.248,527.108 954.857,527.109 956.466,527.111 958.075,527.113 959.684,527.115 961.293,527.117 962.902,527.118 964.51,527.12 966.119,527.122 967.728,527.124 969.337,527.126 970.946,527.127 972.555,527.129 974.164,527.131 975.773,527.133 977.382,527.134 978.991,527.136 980.6,527.138 982.209,527.139 983.818,527.141 985.427,527.143 987.036,527.144 988.644,527.146 990.253,527.148 991.862,527.149 993.471,527.151 995.08,527.152 996.689,527.154 998.298,527.155 999.907,527.157 1001.52,527.158 1003.12,527.16 1004.73,527.161 1006.34,527.163 1007.95,527.164 1009.56,527.166 1011.17,527.167 1012.78,527.168 1014.39,527.17 1016,527.171 1017.61,527.172 1019.21,527.173 1020.82,527.175 1022.43,527.176 1024.04,527.177 1025.65,527.178 1027.26,527.179 1028.87,527.18 1030.48,527.182 1032.09,527.183 1033.69,527.184 1035.3,527.185 1036.91,527.186 1038.52,527.187 1040.13,527.188 1041.74,527.189 1043.35,527.19 1044.96,527.19 1046.57,527.191 1048.18,527.192 1049.78,527.193 1051.39,527.194 1053,527.195 1054.61,527.195 1056.22,527.196 1057.83,527.197 1059.44,527.198 1061.05,527.198 1062.66,527.199 1064.26,527.2 1065.87,527.2 1067.48,527.201 1069.09,527.202 1070.7,527.202 1072.31,527.203 1073.92,527.203 1075.53,527.204 1077.14,527.204 1078.74,527.205 1080.35,527.205 1081.96,527.206 1083.57,527.206 1085.18,527.207 1086.79,527.207 1088.4,527.208 1090.01,527.208 1091.62,527.208 1093.23,527.209 1094.83,527.209 1096.44,527.209 1098.05,527.21 1099.66,527.21 1101.27,527.21 1102.88,527.211 1104.49,527.211 1106.1,527.211 1107.71,527.211 1109.31,527.212 1110.92,527.212 1112.53,527.212 1114.14,527.212 1115.75,527.212 1117.36,527.213 1118.97,527.213 1120.58,527.213 1122.19,527.213 1123.8,527.213 1125.4,527.213 1127.01,527.213 1128.62,527.213 1130.23,527.214 1131.84,527.214 1133.45,527.214 1135.06,527.214 1136.67,527.214 1138.28,527.214 1139.88,527.214 1141.49,527.214 1143.1,527.214 1144.71,527.214 1146.32,527.214 1147.93,527.214 1149.54,527.214 1151.15,527.214 1152.76,527.214 1154.36,527.214 1155.97,527.214 1157.58,527.214 1159.19,527.214 1160.8,527.214 1162.41,527.214 1164.02,527.214 1165.63,527.214 1167.24,527.214 1168.85,527.214 1170.45,527.214 1172.06,527.214 1173.67,527.214 1175.28,527.214 1176.89,527.214 1178.5,527.214 1180.11,527.213 1181.72,527.213 1183.33,527.213 1184.93,527.213 1186.54,527.213 1188.15,527.213 1189.76,527.213 1191.37,527.213 1192.98,527.213 1194.59,527.213 1196.2,527.213 1197.81,527.213 1199.42,527.213 1201.02,527.212 1202.63,527.212 1204.24,527.212 1205.85,527.212 1207.46,527.212 1209.07,527.212 1210.68,527.212 1212.29,527.212 1213.9,527.212 1215.5,527.212 1217.11,527.211 1218.72,527.211 1220.33,527.211 1221.94,527.211 1223.55,527.211 1225.16,527.211 1226.77,527.211 1228.38,527.211 1229.98,527.211 1231.59,527.211 1233.2,527.211 1234.81,527.21 1236.42,527.21 1238.03,527.21 1239.64,527.21 1241.25,527.21 1242.86,527.21 1244.47,527.21 1246.07,527.21 1247.68,527.21 1249.29,527.21 1250.9,527.21 1252.51,527.209 1254.12,527.209 1255.73,527.209 1257.34,527.209 1258.95,527.209 1260.55,527.209 1262.16,527.209 1263.77,527.209 1265.38,527.209 1266.99,527.209 1268.6,527.209 1270.21,527.209 1271.82,527.208 1273.43,527.208 1275.04,527.208 1276.64,527.208 1278.25,527.208 1279.86,527.208 1281.47,527.208 1283.08,527.208 1284.69,527.208 1286.3,527.208 1287.91,527.208 1289.52,527.208 1291.12,527.208 1292.73,527.208 1294.34,527.208 1295.95,527.207 1297.56,527.207 1299.17,527.207 1300.78,527.207 1302.39,527.207 1304,527.207 1305.6,527.207 1307.21,527.207 1308.82,527.207 1310.43,527.207 1312.04,527.207 1313.65,527.207 1315.26,527.207 1316.87,527.207 1318.48,527.207 1320.09,527.207 1321.69,527.207 1323.3,527.207 1324.91,527.207 1326.52,527.207 1328.13,527.207 1329.74,527.207 1331.35,527.206 1332.96,527.206 1334.57,527.206 1336.17,527.206 1337.78,527.206 1339.39,527.206 1341,527.206 1342.61,527.206 1344.22,527.206 1345.83,527.206 1347.44,527.206 1349.05,527.206 1350.65,527.206 1352.26,527.206 1353.87,527.206 1355.48,527.206 1357.09,527.206 1358.7,527.206 1360.31,527.206 1361.92,527.206 1363.53,527.206 1365.14,527.206 1366.74,527.206 1368.35,527.206 1369.96,527.206 1371.57,527.206 1373.18,527.206 1374.79,527.206 1376.4,527.206 1378.01,527.206 1379.62,527.206 1381.22,527.206 1382.83,527.206 1384.44,527.206 1386.05,527.206 1387.66,527.206 1389.27,527.206 1390.88,527.206 1392.49,527.206 1394.1,527.206 1395.71,527.206 1397.31,527.206 1398.92,527.206 1400.53,527.206 1402.14,527.206 1403.75,527.206 1405.36,527.206 1406.97,527.206 1408.58,527.206 1410.19,527.206 1411.79,527.206 1413.4,527.206 1415.01,527.206 1416.62,527.206 1418.23,527.206 1419.84,527.206 1421.45,527.206 1423.06,527.206 1424.67,527.206 1426.27,527.206 1427.88,527.206 1429.49,527.206 1431.1,527.206 1432.71,527.206 1434.32,527.206 1435.93,527.206 1437.54,527.206 1439.15,527.206 1440.76,527.206 1442.36,527.206 1443.97,527.206 1445.58,527.206 1447.19,527.206 1448.8,527.206 1450.41,527.206 1452.02,527.206 1453.63,527.206 1455.24,527.206 1456.84,527.206 1458.45,527.206 1460.06,527.206 1461.67,527.206 1463.28,527.206 1464.89,527.206 1466.5,527.206 1468.11,527.206 1469.72,527.206 1471.33,527.206 1472.93,527.206 1474.54,527.206 1476.15,527.206 1477.76,527.206 1479.37,527.206 1480.98,527.206 1482.59,527.206 1484.2,527.206 1485.81,527.206 1487.41,527.206 1489.02,527.206 1490.63,527.206 1492.24,527.206 1493.85,527.206 1495.46,527.206 1497.07,527.206 1498.68,527.206 1500.29,527.206 1501.89,527.206 1503.5,527.206 1505.11,527.206 1506.72,527.206 1508.33,527.206 1509.94,527.206 1511.55,527.206 1513.16,527.206 1514.77,527.206 1516.38,527.206 1517.98,527.206 1519.59,527.206 1521.2,527.206 1522.81,527.206 1524.42,527.206 1526.03,527.206 1527.64,527.206 1529.25,527.206 1530.86,527.206 1532.46,527.206 1534.07,527.206 1535.68,527.206 1537.29,527.206 1538.9,527.206 1540.51,527.206 1542.12,527.206 1543.73,527.206 1545.34,527.206 1546.95,527.206 1548.55,527.206 1550.16,527.206 1551.77,527.206 1553.38,527.206 1554.99,527.206 1556.6,527.206 1558.21,527.206 1559.82,527.206 1561.43,527.206 1563.03,527.206 1564.64,527.206 1566.25,527.206 1567.86,527.206 1569.47,527.206 1571.08,527.206 1572.69,527.206 1574.3,527.206 1575.91,527.206 1577.51,527.206 1579.12,527.206 1580.73,527.206 1582.34,527.206 1583.95,527.206 1585.56,527.206 1587.17,527.206 1588.78,527.206 1590.39,527.206 1592,527.206 1593.6,527.206 1595.21,527.206 1596.82,527.206 1598.43,527.206 1600.04,527.206 1601.65,527.206 1603.26,527.206 1604.87,527.206 1606.48,527.206 1608.08,527.206 1609.69,527.206 1611.3,527.206 1612.91,527.206 1614.52,527.206 1616.13,527.206 1617.74,527.206 1619.35,527.206 1620.96,527.206 1622.57,527.206 1624.17,527.206 1625.78,527.206 1627.39,527.206 1629,527.206 1630.61,527.206 1632.22,527.206 1633.83,527.206 1635.44,527.206 1637.05,527.206 1638.65,527.206 1640.26,527.206 1641.87,527.206 1643.48,527.206 1645.09,527.206 1646.7,527.206 1648.31,527.206 1649.92,527.206 1651.53,527.206 1653.13,527.206 1654.74,527.206 1656.35,527.206 1657.96,527.206 1659.57,527.206 1661.18,527.206 1662.79,527.206 1664.4,527.206 1666.01,527.206 1667.62,527.206 1669.22,527.206 1670.83,527.206 1672.44,527.206 1674.05,527.206 1675.66,527.206 1677.27,527.206 1678.88,527.206 1680.49,527.206 1682.1,527.206 1683.7,527.206 1685.31,527.206 1686.92,527.206 1688.53,527.206 1690.14,527.206 1691.75,527.206 1693.36,527.206 1694.97,527.206 1696.58,527.206 1698.19,527.206 1699.79,527.206 1701.4,527.206 1703.01,527.206 1704.62,527.206 1706.23,527.206 1707.84,527.206 1709.45,527.206 1711.06,527.206 1712.67,527.206 1714.27,527.206 1715.88,527.206 1717.49,527.206 1719.1,527.206 1720.71,527.206 1722.32,527.206 1723.93,527.206 1725.54,527.206 1727.15,527.206 1728.75,527.206 1730.36,527.206 1731.97,527.206 1733.58,527.206 1735.19,527.206 1736.8,527.206 1738.41,527.206 1740.02,527.206 1741.63,527.206 1743.24,527.206 1744.84,527.206 1746.45,527.206 1748.06,527.206 1749.67,527.206 1751.28,527.206 1752.89,527.206 1754.5,527.206 1756.11,527.206 1757.72,527.206 1759.32,527.206 1760.93,527.206 1762.54,527.206 1764.15,527.206 1765.76,527.206 1767.37,527.206 1768.98,527.206 1770.59,527.206 1772.2,527.206 1773.81,527.206 1775.41,527.206 1777.02,527.206 1778.63,527.206 1780.24,527.206 1781.85,527.206 1783.46,527.206 1785.07,527.206 1786.68,527.206 1788.29,527.206 1789.89,527.206 1791.5,527.206 1793.11,527.206 1794.72,527.206 1796.33,527.206 1797.94,527.206 1799.55,527.206 1801.16,527.206 1802.77,527.206 1804.37,527.206 1805.98,527.206 1807.59,527.206 1809.2,527.206 1810.81,527.206 1812.42,527.206 1814.03,527.206 1815.64,527.206 1817.25,527.206 1818.86,527.206 1820.46,527.206 1822.07,527.206 1823.68,527.206 1825.29,527.206 1826.9,527.206 1828.51,527.206 1830.12,527.206 1831.73,527.206 1833.34,527.206 1834.94,527.206 1836.55,527.206 1838.16,527.206 1839.77,527.206 1841.38,527.206 1842.99,527.206 1844.6,527.206 1846.21,527.206 1847.82,527.206 1849.42,527.206 1851.03,527.206 1852.64,527.206 1854.25,527.206 1855.86,527.206 1857.47,527.206 1859.08,527.206 1860.69,527.206 1862.3,527.206 1863.91,527.206 1865.51,527.206 1867.12,527.206 1868.73,527.206 1870.34,527.206 1871.95,527.206 1873.56,527.206 1875.17,527.206 1876.78,527.206 1878.39,527.206 1879.99,527.206 1881.6,527.206 1883.21,527.206 1884.82,527.206 1886.43,527.206 1888.04,527.206 1889.65,527.206 1891.26,527.206 1892.87,527.206 1894.48,527.206 1896.08,527.206 1897.69,527.206 1899.3,527.206 1900.91,527.206 1902.52,527.206 1904.13,527.206 1905.74,527.206 1907.35,527.206 1908.96,527.206 1910.56,527.206 1912.17,527.206 1913.78,527.206 1915.39,527.206 1917,527.206 1918.61,527.206 1920.22,527.206 1921.83,527.206 1923.44,527.206 1925.04,527.206 1926.65,527.206 1928.26,527.206 1929.87,527.206 1931.48,527.206 1933.09,527.206 1934.7,527.206 1936.31,527.206 1937.92,527.206 1939.53,527.206 1941.13,527.206 1942.74,527.206 1944.35,527.206 1945.96,527.206 1947.57,527.206 1949.18,527.206 1950.79,527.206 1952.4,527.206 1954.01,527.206 1955.61,527.206 1957.22,527.206 1958.83,527.206 1960.44,527.206 1962.05,527.206 1963.66,527.206 1965.27,527.206 1966.88,527.206 1968.49,527.206 1970.1,527.206 1971.7,527.206 1973.31,527.206 1974.92,527.206 1976.53,527.206 1978.14,527.206 1979.75,527.206 1981.36,527.206 1982.97,527.206 1984.58,527.206 1986.18,527.206 1987.79,527.206 1989.4,527.206 1991.01,527.206 1992.62,527.206 1994.23,527.206 1995.84,527.206 1997.45,527.206 1999.06,527.206 2000.66,527.206 2002.27,527.206 2003.88,527.206 2005.49,527.206 2007.1,527.206 2008.71,527.206 2010.32,527.206 2011.93,527.206 2013.54,527.206 2015.15,527.206 2016.75,527.206 2018.36,527.206 2019.97,527.206 2021.58,527.206 2023.19,527.206 2024.8,527.206 2026.41,527.206 2028.02,527.206 2029.63,527.206 2031.23,527.206 2032.84,527.206 2034.45,527.206 2036.06,527.206 2037.67,527.206 2039.28,527.206 2040.89,527.206 2042.5,527.206 2044.11,527.206 2045.72,527.206 2047.32,527.206 2048.93,527.206 2050.54,527.206 2052.15,527.206 2053.76,527.206 2055.37,527.206 2056.98,527.206 2058.59,527.206 2060.2,527.206 2061.8,527.206 2063.41,527.206 2065.02,527.206 2066.63,527.206 2068.24,527.206 2069.85,527.206 2071.46,527.206 2073.07,527.206 2074.68,527.206 2076.28,527.206 2077.89,527.206 2079.5,527.206 2081.11,527.206 2082.72,527.206 2084.33,527.206 2085.94,527.206 2087.55,527.206 2089.16,527.206 2090.77,527.206 2092.37,527.206 2093.98,527.206 2095.59,527.206 2097.2,527.206 2098.81,527.206 2100.42,527.206 2102.03,527.206 2103.64,527.206 2105.25,527.206 2106.85,527.206 2108.46,527.206 2110.07,527.206 2111.68,527.206 2113.29,527.206 2114.9,527.206 2116.51,527.206 2118.12,527.206 "/>
<polyline clip-path="url(#clip552)" style="stroke:#3da44d; stroke-linecap:round; stroke-linejoin:round; stroke-width:8; stroke-opacity:1; fill:none" points="187.395,984.237 189.004,976.731 190.612,964.443 192.221,953.132 193.83,942.326 195.439,932.084 197.048,921.714 198.657,910.955 200.266,901.24 201.875,890.993 203.484,880.375 205.093,870.12 206.702,860.137 208.311,850.443 209.92,840.643 211.529,831.076 213.138,821.045 214.747,811.916 216.355,803.202 217.964,794.004 219.573,784.574 221.182,775.828 222.791,766.868 224.4,757.939 226.009,749.938 227.618,741.412 229.227,733.286 230.836,725.274 232.445,717.558 234.054,710.176 235.663,702.945 237.272,695.501 238.881,688.14 240.489,680.617 242.098,673.548 243.707,666.995 245.316,660.873 246.925,654.326 248.534,647.543 250.143,641.358 251.752,634.657 253.361,628.996 254.97,622.674 256.579,616.728 258.188,611.179 259.797,605.32 261.406,600.877 263.015,595.703 264.624,591.005 266.232,585.933 267.841,580.722 269.45,576.415 271.059,571.908 272.668,567.986 274.277,564.358 275.886,560.275 277.495,556.42 279.104,552.039 280.713,547.72 282.322,543.96 283.931,539.984 285.54,537.354 287.149,533.873 288.758,530.283 290.366,526.703 291.975,523.98 293.584,521.303 295.193,518.37 296.802,515.547 298.411,514.225 300.02,512.685 301.629,510.891 303.238,509.189 304.847,507.404 306.456,506.383 308.065,504.328 309.674,503.015 311.283,501.839 312.892,500.146 314.501,498.764 316.109,497.742 317.718,496.574 319.327,494.921 320.936,494.13 322.545,493.184 324.154,491.935 325.763,490.738 327.372,489.096 328.981,488.468 330.59,486.636 332.199,486.555 333.808,485.482 335.417,483.961 337.026,483.801 338.635,482.963 340.243,482.212 341.852,481.638 343.461,481.33 345.07,479.731 346.679,478.874 348.288,478.722 349.897,478.948 351.506,478.924 353.115,478.769 354.724,478.416 356.333,478.131 357.942,479.083 359.551,479.828 361.16,480.048 362.769,480.112 364.378,480.098 365.986,479.931 367.595,480.404 369.204,480.322 370.813,480.715 372.422,480.361 374.031,480.434 375.64,480.293 377.249,480.085 378.858,480.602 380.467,480.909 382.076,480.625 383.685,481.449 385.294,481.721 386.903,482.241 388.512,483.286 390.12,483.453 391.729,484.028 393.338,485.019 394.947,485.588 396.556,485.669 398.165,486.112 399.774,485.71 401.383,485.802 402.992,486.663 404.601,487.505 406.21,488.827 407.819,488.64 409.428,489.192 411.037,489.784 412.646,491.006 414.255,491.479 415.863,493.58 417.472,493.087 419.081,493.566 420.69,493.832 422.299,494.85 423.908,495.837 425.517,496.392 427.126,497.768 428.735,498.599 430.344,498.602 431.953,499.457 433.562,499.267 435.171,499.418 436.78,499.703 438.389,500.245 439.997,501.826 441.606,503.118 443.215,503.579 444.824,504.198 446.433,505.141 448.042,505.311 449.651,505.812 451.26,506.797 452.869,507.248 454.478,507.407 456.087,508.585 457.696,509.587 459.305,509.627 460.914,510.796 462.523,511.486 464.132,512.643 465.74,512.646 467.349,512.875 468.958,513.013 470.567,512.911 472.176,513.064 473.785,513.324 475.394,513.971 477.003,514.668 478.612,515.11 480.221,516.938 481.83,516.693 483.439,517.109 485.048,516.742 486.657,517.409 488.266,517.111 489.874,518.095 491.483,518.377 493.092,518.923 494.701,519.482 496.31,520.311 497.919,520.138 499.528,520.33 501.137,520.574 502.746,520.768 504.355,520.858 505.964,521.644 507.573,521.764 509.182,521.792 510.791,521.281 512.4,521.71 514.009,521.476 515.617,522.052 517.226,521.961 518.835,522.44 520.444,523.025 522.053,523.135 523.662,523.501 525.271,523.799 526.88,523.552 528.489,523.108 530.098,523.019 531.707,523.037 533.316,523.043 534.925,523.751 536.534,523.911 538.143,524.001 539.751,524.037 541.36,524.578 542.969,524.928 544.578,525.802 546.187,524.993 547.796,525.396 549.405,525.084 551.014,525.385 552.623,525.445 554.232,526.15 555.841,526.255 557.45,526.077 559.059,525.897 560.668,526.138 562.277,526.552 563.886,526.763 565.494,526.744 567.103,527.105 568.712,527.995 570.321,527.755 571.93,528.145 573.539,528.733 575.148,528.628 576.757,528.407 578.366,528.957 579.975,530.057 581.584,530.121 583.193,529.876 584.802,529.624 586.411,529.665 588.02,529.81 589.628,530.023 591.237,529.563 592.846,529.481 594.455,529.458 596.064,529.193 597.673,529.062 599.282,529.246 600.891,529.272 602.5,529.706 604.109,529.48 605.718,529.214 607.327,529.412 608.936,528.949 610.545,529.334 612.154,528.671 613.763,529.721 615.371,529.237 616.98,528.989 618.589,529.674 620.198,529.787 621.807,529.913 623.416,529.732 625.025,529.026 626.634,528.704 628.243,528.442 629.852,529.046 631.461,529.148 633.07,529.382 634.679,529.394 636.288,528.958 637.897,529.023 639.505,528.843 641.114,528.557 642.723,527.889 644.332,527.69 645.941,527.71 647.55,527.993 649.159,527.804 650.768,527.883 652.377,527.779 653.986,527.879 655.595,527.437 657.204,527.159 658.813,526.734 660.422,526.322 662.031,526.732 663.64,526.423 665.248,526.539 666.857,526.52 668.466,526.195 670.075,524.799 671.684,525.292 673.293,524.583 674.902,525.307 676.511,525.876 678.12,526.334 679.729,526.054 681.338,525.765 682.947,524.837 684.556,525.738 686.165,525.708 687.774,525.554 689.382,525.145 690.991,525.105 692.6,525.551 694.209,525.65 695.818,525.771 697.427,525.997 699.036,526.87 700.645,527.179 702.254,527.639 703.863,527.694 705.472,528 707.081,528.235 708.69,528.535 710.299,527.874 711.908,528.208 713.517,527.809 715.125,527.624 716.734,527.864 718.343,527.35 719.952,527.255 721.561,527.354 723.17,527.112 724.779,527.356 726.388,527.694 727.997,528.295 729.606,529.184 731.215,528.671 732.824,528.24 734.433,528.659 736.042,527.332 737.651,527.065 739.259,526.137 740.868,526.696 742.477,525.49 744.086,524.997 745.695,525.751 747.304,525.286 748.913,525.305 750.522,524.202 752.131,524.544 753.74,524.243 755.349,523.384 756.958,524.201 758.567,524.219 760.176,524.047 761.785,523.595 763.394,523.083 765.002,523.582 766.611,523.824 768.22,523.439 769.829,523.656 771.438,523.011 773.047,523.458 774.656,523.809 776.265,524.157 777.874,524.104 779.483,524.705 781.092,524.114 782.701,523.573 784.31,523.546 785.919,523.09 787.528,522.975 789.136,522.899 790.745,522.838 792.354,522.503 793.963,522.434 795.572,522.241 797.181,522.349 798.79,521.981 800.399,521.717 802.008,521.947 803.617,522.54 805.226,522.336 806.835,522.128 808.444,522.266 810.053,522.39 811.662,522.094 813.271,522.812 814.879,523.139 816.488,523.026 818.097,523.101 819.706,523.276 821.315,523.197 822.924,523.486 824.533,524.948 826.142,525.37 827.751,525.24 829.36,525.682 830.969,525.554 832.578,525.008 834.187,525.642 835.796,526.073 837.405,525.699 839.013,525.914 840.622,525.975 842.231,525.299 843.84,525.844 845.449,526.618 847.058,526.321 848.667,526.986 850.276,526.721 851.885,527.017 853.494,527.231 855.103,527.163 856.712,526.849 858.321,527.148 859.93,526.272 861.539,525.894 863.148,526.634 864.756,527.217 866.365,526.032 867.974,525.877 869.583,525.68 871.192,525.73 872.801,525.592 874.41,526.233 876.019,526.032 877.628,525.797 879.237,525.028 880.846,524.673 882.455,525.319 884.064,525.47 885.673,524.695 887.282,524.785 888.89,524.615 890.499,524.455 892.108,523.918 893.717,524.053 895.326,524.236 896.935,524.562 898.544,524.325 900.153,525.374 901.762,525.35 903.371,524.694 904.98,524.329 906.589,523.182 908.198,522.54 909.807,522.399 911.416,522.895 913.025,523.541 914.633,523.109 916.242,522.935 917.851,522.926 919.46,522.482 921.069,522.491 922.678,522.142 924.287,521.458 925.896,521.901 927.505,521.334 929.114,522.113 930.723,521.825 932.332,522.177 933.941,522.53 935.55,522.357 937.159,523.116 938.767,523.586 940.376,523.656 941.985,524.152 943.594,524.161 945.203,524.26 946.812,524.001 948.421,524.441 950.03,524.137 951.639,525.333 953.248,525.259 954.857,524.668 956.466,524.584 958.075,524.923 959.684,524.197 961.293,525.497 962.902,525.059 964.51,523.872 966.119,524.027 967.728,524.123 969.337,524.045 970.946,523.756 972.555,524.101 974.164,525.028 975.773,525.772 977.382,525.798 978.991,524.682 980.6,524.865 982.209,524.998 983.818,525.231 985.427,525.086 987.036,524.002 988.644,523.764 990.253,523.794 991.862,524.302 993.471,524.168 995.08,524.919 996.689,525 998.298,525.289 999.907,524.841 1001.52,525.306 1003.12,524.8 1004.73,525.597 1006.34,525.092 1007.95,525.437 1009.56,526.167 1011.17,525.565 1012.78,526.054 1014.39,525.666 1016,524.908 1017.61,524.754 1019.21,524.934 1020.82,525.196 1022.43,525.762 1024.04,526.289 1025.65,526.519 1027.26,527.002 1028.87,527.225 1030.48,526.917 1032.09,526.989 1033.69,527.316 1035.3,527.228 1036.91,527.575 1038.52,527.568 1040.13,527.195 1041.74,526.821 1043.35,526.614 1044.96,526.007 1046.57,525.63 1048.18,524.978 1049.78,524.218 1051.39,525.26 1053,524.864 1054.61,525.005 1056.22,524.88 1057.83,524.184 1059.44,524.393 1061.05,524.418 1062.66,524.491 1064.26,524.893 1065.87,525.02 1067.48,525.447 1069.09,525.567 1070.7,525.158 1072.31,524.549 1073.92,524.364 1075.53,524.264 1077.14,525.022 1078.74,525.297 1080.35,525.339 1081.96,525.717 1083.57,526.345 1085.18,526.596 1086.79,525.515 1088.4,525.662 1090.01,526.296 1091.62,526.852 1093.23,527.721 1094.83,527.459 1096.44,527.886 1098.05,527.944 1099.66,527.558 1101.27,527.619 1102.88,527.241 1104.49,528.321 1106.1,527.539 1107.71,528.085 1109.31,527.604 1110.92,527.506 1112.53,528.025 1114.14,527.954 1115.75,527.597 1117.36,528.046 1118.97,528.993 1120.58,529.361 1122.19,529.774 1123.8,528.833 1125.4,528.263 1127.01,528.082 1128.62,527.872 1130.23,527.214 1131.84,526.819 1133.45,526.734 1135.06,526.775 1136.67,527.167 1138.28,527.629 1139.88,527.63 1141.49,527.852 1143.1,527.831 1144.71,527.74 1146.32,527.332 1147.93,527.597 1149.54,527.486 1151.15,527.669 1152.76,527.533 1154.36,527.359 1155.97,527.344 1157.58,526.973 1159.19,527.035 1160.8,526.738 1162.41,526.251 1164.02,526.064 1165.63,526.488 1167.24,527.245 1168.85,527.332 1170.45,527.355 1172.06,528.228 1173.67,527.853 1175.28,527.781 1176.89,528.403 1178.5,528.265 1180.11,527.883 1181.72,527.757 1183.33,528.115 1184.93,527.973 1186.54,528.441 1188.15,528.869 1189.76,529.161 1191.37,528.311 1192.98,527.841 1194.59,527.287 1196.2,527.292 1197.81,527.569 1199.42,526.778 1201.02,526.016 1202.63,525.372 1204.24,525.246 1205.85,526.016 1207.46,526.326 1209.07,526.506 1210.68,526.344 1212.29,527.152 1213.9,527.258 1215.5,527.414 1217.11,527.72 1218.72,527.712 1220.33,527.821 1221.94,527.909 1223.55,528.143 1225.16,528.143 1226.77,528.389 1228.38,527.987 1229.98,527.463 1231.59,528.019 1233.2,528.637 1234.81,528.476 1236.42,529.2 1238.03,528.427 1239.64,528.579 1241.25,528.118 1242.86,528.639 1244.47,528.947 1246.07,528.999 1247.68,528.624 1249.29,528.127 1250.9,528.328 1252.51,528.153 1254.12,527.531 1255.73,528.227 1257.34,528.171 1258.95,527.477 1260.55,527.137 1262.16,526.625 1263.77,526.469 1265.38,526.531 1266.99,526.683 1268.6,526.744 1270.21,527.17 1271.82,526.769 1273.43,526.516 1275.04,526.355 1276.64,527.034 1278.25,527.095 1279.86,527.702 1281.47,527.467 1283.08,528.228 1284.69,529.124 1286.3,529.041 1287.91,528.587 1289.52,528.811 1291.12,528.079 1292.73,528.167 1294.34,529.406 1295.95,529.508 1297.56,529.975 1299.17,530.042 1300.78,529.941 1302.39,530.232 1304,530.191 1305.6,530.832 1307.21,530.371 1308.82,530.466 1310.43,531.025 1312.04,531.18 1313.65,530.808 1315.26,531.271 1316.87,531.4 1318.48,530.875 1320.09,531.603 1321.69,531.525 1323.3,531.508 1324.91,531.45 1326.52,531.971 1328.13,532.369 1329.74,532.338 1331.35,532.293 1332.96,531.336 1334.57,530.808 1336.17,530.946 1337.78,530.352 1339.39,530.862 1341,530.953 1342.61,530.913 1344.22,530.628 1345.83,529.695 1347.44,529.569 1349.05,529.263 1350.65,529.09 1352.26,528.894 1353.87,529.811 1355.48,528.587 1357.09,528.815 1358.7,528.232 1360.31,527.753 1361.92,529.544 1363.53,528.774 1365.14,529.691 1366.74,530.024 1368.35,529.487 1369.96,529.303 1371.57,529.869 1373.18,530.985 1374.79,531.297 1376.4,531.509 1378.01,531.586 1379.62,531.564 1381.22,531.069 1382.83,530.636 1384.44,531.338 1386.05,530.453 1387.66,530.068 1389.27,530.268 1390.88,530.725 1392.49,531.371 1394.1,531.092 1395.71,529.648 1397.31,529.689 1398.92,530.931 1400.53,531.31 1402.14,530.391 1403.75,531.394 1405.36,531.557 1406.97,531.965 1408.58,531.972 1410.19,532.54 1411.79,532.16 1413.4,532.426 1415.01,531.939 1416.62,531.692 1418.23,531.887 1419.84,531.69 1421.45,531.467 1423.06,531.501 1424.67,531.787 1426.27,531.36 1427.88,531.428 1429.49,531.771 1431.1,531.6 1432.71,531.372 1434.32,531.388 1435.93,531.102 1437.54,530.936 1439.15,531.218 1440.76,531.03 1442.36,531.108 1443.97,529.839 1445.58,530.409 1447.19,530.459 1448.8,530.196 1450.41,530.445 1452.02,529.905 1453.63,529.731 1455.24,530.081 1456.84,529.087 1458.45,528.696 1460.06,528.394 1461.67,527.367 1463.28,527.29 1464.89,527.691 1466.5,527.379 1468.11,528.16 1469.72,527.785 1471.33,527.298 1472.93,526.137 1474.54,526.85 1476.15,525.97 1477.76,526.246 1479.37,526.886 1480.98,527.372 1482.59,526.752 1484.2,526.316 1485.81,525.96 1487.41,525.568 1489.02,524.96 1490.63,524.748 1492.24,525.401 1493.85,525.954 1495.46,525.854 1497.07,526.38 1498.68,526.212 1500.29,525.747 1501.89,526.062 1503.5,525.787 1505.11,526.061 1506.72,525.908 1508.33,527.131 1509.94,526.445 1511.55,527.098 1513.16,527.029 1514.77,527.483 1516.38,527.446 1517.98,526.914 1519.59,526.093 1521.2,526.554 1522.81,526.717 1524.42,527.052 1526.03,527.43 1527.64,527.173 1529.25,526.505 1530.86,526.785 1532.46,526.905 1534.07,526.335 1535.68,527.238 1537.29,527.314 1538.9,527.76 1540.51,528.398 1542.12,527.616 1543.73,527.291 1545.34,527.238 1546.95,527.571 1548.55,527.309 1550.16,527.693 1551.77,527.38 1553.38,527.092 1554.99,526.978 1556.6,526.851 1558.21,527.165 1559.82,527.608 1561.43,527.07 1563.03,526.655 1564.64,526.634 1566.25,527.328 1567.86,527.935 1569.47,528.183 1571.08,528.002 1572.69,528.098 1574.3,527.509 1575.91,526.441 1577.51,527.207 1579.12,527.11 1580.73,527.091 1582.34,527.136 1583.95,527.164 1585.56,526.131 1587.17,526.492 1588.78,526.474 1590.39,527.067 1592,527.578 1593.6,527.436 1595.21,527.438 1596.82,526.98 1598.43,527.355 1600.04,526.794 1601.65,525.969 1603.26,525.405 1604.87,525.056 1606.48,525.052 1608.08,525.546 1609.69,525.521 1611.3,525.45 1612.91,525.75 1614.52,525.063 1616.13,525.64 1617.74,525.351 1619.35,525.471 1620.96,525.289 1622.57,524.708 1624.17,524.569 1625.78,524.882 1627.39,524.813 1629,523.513 1630.61,523.839 1632.22,523.856 1633.83,523.565 1635.44,522.057 1637.05,521.919 1638.65,522.616 1640.26,521.685 1641.87,521.331 1643.48,521.347 1645.09,520.898 1646.7,520.796 1648.31,520.773 1649.92,521.031 1651.53,520.777 1653.13,520.769 1654.74,519.995 1656.35,520.956 1657.96,520.334 1659.57,520.769 1661.18,520.197 1662.79,520.068 1664.4,520.497 1666.01,520.643 1667.62,521.18 1669.22,520.773 1670.83,520.421 1672.44,520.152 1674.05,520.505 1675.66,520.741 1677.27,521.289 1678.88,521.578 1680.49,521.822 1682.1,522.11 1683.7,522.536 1685.31,522.998 1686.92,522.917 1688.53,523.239 1690.14,523.446 1691.75,523.57 1693.36,523.594 1694.97,522.863 1696.58,522.837 1698.19,523.002 1699.79,523.323 1701.4,522.791 1703.01,523.402 1704.62,523.423 1706.23,523.339 1707.84,523.449 1709.45,523.459 1711.06,524.408 1712.67,524.456 1714.27,525.267 1715.88,525.369 1717.49,525.608 1719.1,525.089 1720.71,524.629 1722.32,524.195 1723.93,524.357 1725.54,524.04 1727.15,524.001 1728.75,523.91 1730.36,524.146 1731.97,524.957 1733.58,523.967 1735.19,524.191 1736.8,524.101 1738.41,524.323 1740.02,525.122 1741.63,525.443 1743.24,525.03 1744.84,525.694 1746.45,525.737 1748.06,525.519 1749.67,525.857 1751.28,525.504 1752.89,525.215 1754.5,525.435 1756.11,525.055 1757.72,524.943 1759.32,525.472 1760.93,525.854 1762.54,526.453 1764.15,526.693 1765.76,526.097 1767.37,526.257 1768.98,526.059 1770.59,526.403 1772.2,526.076 1773.81,526.098 1775.41,526.756 1777.02,526.763 1778.63,526.471 1780.24,527.057 1781.85,526.786 1783.46,526.616 1785.07,526.582 1786.68,526.735 1788.29,526.448 1789.89,526.702 1791.5,527.04 1793.11,527.249 1794.72,527.602 1796.33,527.461 1797.94,527.492 1799.55,527.76 1801.16,528.102 1802.77,527.619 1804.37,527.475 1805.98,527.814 1807.59,527.657 1809.2,528.019 1810.81,527.786 1812.42,528.2 1814.03,528.399 1815.64,528.365 1817.25,528.128 1818.86,527.446 1820.46,526.709 1822.07,526.363 1823.68,526.383 1825.29,526.457 1826.9,526.372 1828.51,526.506 1830.12,526.378 1831.73,527.038 1833.34,527.523 1834.94,527.639 1836.55,527.479 1838.16,526.886 1839.77,527.281 1841.38,527.879 1842.99,527.548 1844.6,526.777 1846.21,526.616 1847.82,525.78 1849.42,525.098 1851.03,525.186 1852.64,525.875 1854.25,524.903 1855.86,525.603 1857.47,525.703 1859.08,525.756 1860.69,526.055 1862.3,526.615 1863.91,526.884 1865.51,527.171 1867.12,527.873 1868.73,527.778 1870.34,527.993 1871.95,528.234 1873.56,527.868 1875.17,528.431 1876.78,528.743 1878.39,528.523 1879.99,529.081 1881.6,529.167 1883.21,529.408 1884.82,528.604 1886.43,528.893 1888.04,528.821 1889.65,528.355 1891.26,528.407 1892.87,527.857 1894.48,528.098 1896.08,528.292 1897.69,528.342 1899.3,528.308 1900.91,528.247 1902.52,527.979 1904.13,528.339 1905.74,529.012 1907.35,528.053 1908.96,527.903 1910.56,528.209 1912.17,528.343 1913.78,528.606 1915.39,528.585 1917,528.699 1918.61,529.206 1920.22,529.247 1921.83,529.479 1923.44,528.997 1925.04,528.727 1926.65,528.852 1928.26,528.477 1929.87,527.936 1931.48,527.746 1933.09,528.28 1934.7,528.798 1936.31,528.894 1937.92,529.107 1939.53,530.194 1941.13,530.085 1942.74,530.437 1944.35,530.81 1945.96,529.965 1947.57,529.434 1949.18,529.316 1950.79,529.677 1952.4,530.198 1954.01,529.935 1955.61,528.618 1957.22,528.682 1958.83,528.193 1960.44,528.186 1962.05,527.89 1963.66,527.531 1965.27,526.936 1966.88,527.565 1968.49,526.995 1970.1,527.742 1971.7,527.705 1973.31,527.431 1974.92,527.179 1976.53,527.168 1978.14,526.898 1979.75,527.455 1981.36,527.136 1982.97,527.097 1984.58,526.9 1986.18,527.314 1987.79,527.607 1989.4,527.568 1991.01,527.029 1992.62,527.087 1994.23,527.056 1995.84,527.346 1997.45,527.427 1999.06,527.126 2000.66,526.741 2002.27,526.212 2003.88,526.134 2005.49,526.541 2007.1,526.507 2008.71,526.872 2010.32,527.065 2011.93,526.859 2013.54,526.325 2015.15,526.351 2016.75,526.585 2018.36,526.344 2019.97,525.2 2021.58,525.365 2023.19,525.44 2024.8,525.136 2026.41,524.568 2028.02,524.08 2029.63,523.861 2031.23,523.071 2032.84,522.883 2034.45,522.941 2036.06,522.934 2037.67,522.658 2039.28,522.727 2040.89,522.919 2042.5,523.494 2044.11,522.905 2045.72,523.308 2047.32,522.242 2048.93,522.253 2050.54,523.054 2052.15,523.21 2053.76,523.181 2055.37,523.844 2056.98,523.649 2058.59,523.438 2060.2,523.368 2061.8,522.924 2063.41,522.564 2065.02,523.248 2066.63,523.36 2068.24,523.532 2069.85,524.19 2071.46,524.173 2073.07,524.472 2074.68,524.542 2076.28,524.212 2077.89,524.408 2079.5,525.149 2081.11,524.715 2082.72,524.746 2084.33,524.834 2085.94,525.589 2087.55,526.235 2089.16,527.096 2090.77,527.245 2092.37,527.329 2093.98,527.115 2095.59,527.817 2097.2,528.129 2098.81,527.533 2100.42,527.035 2102.03,526.544 2103.64,526.11 2105.25,525.786 2106.85,526.31 2108.46,527.024 2110.07,526.973 2111.68,526.388 2113.29,527.438 2114.9,527.321 2116.51,527.465 2118.12,528.29 "/>
<path clip-path="url(#clip550)" d="M804.146 293.45 L1120.58 293.45 L1120.58 78.4772 L804.146 78.4772  Z" fill="#ffffff" fill-rule="evenodd" fill-opacity="1"/>
<polyline clip-path="url(#clip550)" style="stroke:#000000; stroke-linecap:round; stroke-linejoin:round; stroke-width:4; stroke-opacity:1; fill:none" points="804.146,293.45 1120.58,293.45 1120.58,78.4772 804.146,78.4772 804.146,293.45 "/>
<polyline clip-path="url(#clip550)" style="stroke:#009af9; stroke-linecap:round; stroke-linejoin:round; stroke-width:8; stroke-opacity:1; fill:none" points="814.872,132.22 879.23,132.22 "/>
<g clip-path="url(#clip550)">
<text style="fill:#000000; fill-opacity:1; font-family:Book Antiqua,Palatino,Palatino Linotype,Palatino LT STD,Georgia,serif; font-size:51px; font-weight:bold; text-anchor:start;" transform="rotate(0, 889.956, 149.72)" x="889.956" y="149.72">TUC</text>
</g>
<polyline clip-path="url(#clip550)" style="stroke:#e26f46; stroke-linecap:round; stroke-linejoin:round; stroke-width:8; stroke-opacity:1; fill:none" points="814.872,185.963 879.23,185.963 "/>
<g clip-path="url(#clip550)">
<text style="fill:#000000; fill-opacity:1; font-family:Book Antiqua,Palatino,Palatino Linotype,Palatino LT STD,Georgia,serif; font-size:51px; font-weight:bold; text-anchor:start;" transform="rotate(0, 889.956, 203.463)" x="889.956" y="203.463">FDUC</text>
</g>
<polyline clip-path="url(#clip550)" style="stroke:#3da44d; stroke-linecap:round; stroke-linejoin:round; stroke-width:8; stroke-opacity:1; fill:none" points="814.872,239.706 879.23,239.706 "/>
<g clip-path="url(#clip550)">
<text style="fill:#000000; fill-opacity:1; font-family:Book Antiqua,Palatino,Palatino Linotype,Palatino LT STD,Georgia,serif; font-size:51px; font-weight:bold; text-anchor:start;" transform="rotate(0, 889.956, 257.206)" x="889.956" y="257.206">CCFDUC</text>
</g>
</svg>
