<?xml version="1.0" encoding="utf-8"?>
<svg xmlns="http://www.w3.org/2000/svg" xmlns:xlink="http://www.w3.org/1999/xlink" width="500" height="280" viewBox="0 0 2000 1120">
<defs>
  <clipPath id="clip620">
    <rect x="0" y="0" width="2000" height="1120"/>
  </clipPath>
</defs>
<path clip-path="url(#clip620)" d="M0 1120 L2000 1120 L2000 0 L0 0  Z" fill="#ffffff" fill-rule="evenodd" fill-opacity="1"/>
<defs>
  <clipPath id="clip621">
    <rect x="400" y="0" width="1401" height="1120"/>
  </clipPath>
</defs>
<defs>
  <clipPath id="clip622">
    <rect x="202" y="47" width="739" height="914"/>
  </clipPath>
</defs>
<polyline clip-path="url(#clip622)" style="stroke:#808080; stroke-linecap:round; stroke-linejoin:round; stroke-width:4; stroke-opacity:0.1; fill:none" points="202.093,960.047 202.093,47.2441 "/>
<polyline clip-path="url(#clip622)" style="stroke:#808080; stroke-linecap:round; stroke-linejoin:round; stroke-width:4; stroke-opacity:0.1; fill:none" points="349.688,960.047 349.688,47.2441 "/>
<polyline clip-path="url(#clip622)" style="stroke:#808080; stroke-linecap:round; stroke-linejoin:round; stroke-width:4; stroke-opacity:0.1; fill:none" points="497.283,960.047 497.283,47.2441 "/>
<polyline clip-path="url(#clip622)" style="stroke:#808080; stroke-linecap:round; stroke-linejoin:round; stroke-width:4; stroke-opacity:0.1; fill:none" points="644.878,960.047 644.878,47.2441 "/>
<polyline clip-path="url(#clip622)" style="stroke:#808080; stroke-linecap:round; stroke-linejoin:round; stroke-width:4; stroke-opacity:0.1; fill:none" points="792.474,960.047 792.474,47.2441 "/>
<polyline clip-path="url(#clip622)" style="stroke:#808080; stroke-linecap:round; stroke-linejoin:round; stroke-width:4; stroke-opacity:0.1; fill:none" points="940.069,960.047 940.069,47.2441 "/>
<polyline clip-path="url(#clip620)" style="stroke:#000000; stroke-linecap:round; stroke-linejoin:round; stroke-width:4; stroke-opacity:1; fill:none" points="202.093,960.047 940.069,960.047 "/>
<polyline clip-path="url(#clip620)" style="stroke:#000000; stroke-linecap:round; stroke-linejoin:round; stroke-width:4; stroke-opacity:1; fill:none" points="202.093,47.2441 940.069,47.2441 "/>
<polyline clip-path="url(#clip620)" style="stroke:#000000; stroke-linecap:round; stroke-linejoin:round; stroke-width:4; stroke-opacity:1; fill:none" points="202.093,960.047 202.093,941.149 "/>
<polyline clip-path="url(#clip620)" style="stroke:#000000; stroke-linecap:round; stroke-linejoin:round; stroke-width:4; stroke-opacity:1; fill:none" points="349.688,960.047 349.688,941.149 "/>
<polyline clip-path="url(#clip620)" style="stroke:#000000; stroke-linecap:round; stroke-linejoin:round; stroke-width:4; stroke-opacity:1; fill:none" points="497.283,960.047 497.283,941.149 "/>
<polyline clip-path="url(#clip620)" style="stroke:#000000; stroke-linecap:round; stroke-linejoin:round; stroke-width:4; stroke-opacity:1; fill:none" points="644.878,960.047 644.878,941.149 "/>
<polyline clip-path="url(#clip620)" style="stroke:#000000; stroke-linecap:round; stroke-linejoin:round; stroke-width:4; stroke-opacity:1; fill:none" points="792.474,960.047 792.474,941.149 "/>
<polyline clip-path="url(#clip620)" style="stroke:#000000; stroke-linecap:round; stroke-linejoin:round; stroke-width:4; stroke-opacity:1; fill:none" points="940.069,960.047 940.069,941.149 "/>
<g clip-path="url(#clip620)">
<text style="fill:#000000; fill-opacity:1; font-family:Book Antiqua,Palatino,Palatino Linotype,Palatino LT STD,Georgia,serif; font-size:51px; font-weight:bold; text-anchor:middle;" transform="rotate(0, 202.093, 1020.42)" x="202.093" y="1020.42">0</text>
</g>
<g clip-path="url(#clip620)">
<text style="fill:#000000; fill-opacity:1; font-family:Book Antiqua,Palatino,Palatino Linotype,Palatino LT STD,Georgia,serif; font-size:51px; font-weight:bold; text-anchor:middle;" transform="rotate(0, 349.688, 1020.42)" x="349.688" y="1020.42">5</text>
</g>
<g clip-path="url(#clip620)">
<text style="fill:#000000; fill-opacity:1; font-family:Book Antiqua,Palatino,Palatino Linotype,Palatino LT STD,Georgia,serif; font-size:51px; font-weight:bold; text-anchor:middle;" transform="rotate(0, 497.283, 1020.42)" x="497.283" y="1020.42">10</text>
</g>
<g clip-path="url(#clip620)">
<text style="fill:#000000; fill-opacity:1; font-family:Book Antiqua,Palatino,Palatino Linotype,Palatino LT STD,Georgia,serif; font-size:51px; font-weight:bold; text-anchor:middle;" transform="rotate(0, 644.878, 1020.42)" x="644.878" y="1020.42">15</text>
</g>
<g clip-path="url(#clip620)">
<text style="fill:#000000; fill-opacity:1; font-family:Book Antiqua,Palatino,Palatino Linotype,Palatino LT STD,Georgia,serif; font-size:51px; font-weight:bold; text-anchor:middle;" transform="rotate(0, 792.474, 1020.42)" x="792.474" y="1020.42">20</text>
</g>
<g clip-path="url(#clip620)">
<text style="fill:#000000; fill-opacity:1; font-family:Book Antiqua,Palatino,Palatino Linotype,Palatino LT STD,Georgia,serif; font-size:51px; font-weight:bold; text-anchor:middle;" transform="rotate(0, 940.069, 1020.42)" x="940.069" y="1020.42">25</text>
</g>
<path clip-path="url(#clip620)" d="M544.418 1060.94 Q544.418 1061.84 543.999 1062.07 Q543.58 1062.26 542.421 1062.26 L536.237 1062.26 L531.342 1081.71 Q530.956 1083.42 530.956 1084.87 Q530.956 1086.48 531.439 1087.19 Q531.954 1087.9 533.017 1087.9 Q535.11 1087.9 537.364 1086 Q539.651 1084.1 541.583 1079.46 Q541.841 1078.85 541.97 1078.72 Q542.131 1078.56 542.55 1078.56 Q543.355 1078.56 543.355 1079.2 Q543.355 1079.43 542.904 1080.46 Q542.485 1081.49 541.551 1083 Q540.649 1084.51 539.458 1085.93 Q538.298 1087.35 536.527 1088.38 Q534.756 1089.38 532.856 1089.38 Q530.183 1089.38 528.476 1087.67 Q526.801 1085.96 526.801 1083.29 Q526.801 1082.42 527.477 1079.65 Q528.154 1076.85 531.825 1062.26 L525.996 1062.26 Q525.191 1062.26 524.869 1062.23 Q524.579 1062.2 524.353 1062.03 Q524.16 1061.84 524.16 1061.45 Q524.16 1060.84 524.418 1060.59 Q524.675 1060.3 524.997 1060.26 Q525.352 1060.2 526.157 1060.2 L532.34 1060.2 L534.917 1049.73 Q535.174 1048.7 535.819 1048.12 Q536.495 1047.51 536.881 1047.45 Q537.268 1047.35 537.558 1047.35 Q538.427 1047.35 538.943 1047.83 Q539.458 1048.28 539.458 1049.12 Q539.458 1049.57 536.753 1060.2 L542.55 1060.2 Q543.29 1060.2 543.58 1060.23 Q543.902 1060.26 544.16 1060.42 Q544.418 1060.59 544.418 1060.94 Z" fill="#000000" fill-rule="nonzero" fill-opacity="1" /><path clip-path="url(#clip620)" d="M547.732 1104.19 Q547.732 1103.87 547.99 1103.16 L571.275 1040.94 Q571.275 1040.88 571.436 1040.52 Q571.597 1040.17 571.693 1039.94 Q571.79 1039.68 571.983 1039.49 Q572.209 1039.3 572.466 1039.3 Q573.11 1039.3 573.11 1040.1 Q573.11 1040.17 572.917 1040.94 L549.568 1103.23 Q549.181 1104.35 548.924 1104.68 Q548.698 1105 548.312 1105 Q547.732 1105 547.732 1104.19 Z" fill="#000000" fill-rule="nonzero" fill-opacity="1" /><path clip-path="url(#clip620)" d="M612.762 1079.2 Q612.762 1079.46 612.472 1080.46 Q612.182 1081.45 611.474 1083 Q610.797 1084.55 609.863 1085.96 Q608.929 1087.35 607.383 1088.38 Q605.87 1089.38 604.131 1089.38 Q601.812 1089.38 600.266 1087.83 Q598.72 1086.29 598.72 1083.97 Q598.72 1083.64 598.752 1083.32 Q598.784 1083 598.817 1082.81 Q598.849 1082.58 598.945 1082.23 Q599.074 1081.84 599.106 1081.68 Q599.171 1081.52 599.332 1081.04 Q599.525 1080.52 599.59 1080.33 Q603.68 1069.89 603.68 1065.55 Q603.68 1060.94 600.105 1060.94 Q596.916 1060.94 593.76 1063.26 Q592.311 1064.42 590.926 1066.48 Q589.541 1068.54 589.284 1069.31 Q588.994 1070.99 588.575 1072.28 Q588.382 1073.18 587.448 1076.69 L585.999 1082.65 L584.743 1087.64 Q584.485 1088.35 583.776 1088.86 Q583.068 1089.38 582.295 1089.38 Q581.651 1089.38 581.007 1088.93 Q580.395 1088.51 580.395 1087.51 Q580.395 1086.99 580.653 1086.06 L590.218 1048.06 L590.411 1046.77 Q590.411 1046.38 590.25 1046.19 Q590.121 1045.96 589.348 1045.8 Q588.607 1045.64 587.126 1045.64 Q586.514 1045.64 586.224 1045.61 Q585.966 1045.58 585.741 1045.42 Q585.516 1045.22 585.516 1044.84 Q585.516 1044.29 585.741 1044 Q585.999 1043.68 586.192 1043.61 Q586.385 1043.55 586.772 1043.52 Q587.319 1043.48 589.155 1043.32 Q590.991 1043.13 592.569 1043 Q594.147 1042.87 594.823 1042.87 Q595.21 1042.87 595.403 1043.07 Q595.628 1043.23 595.66 1043.42 L595.693 1043.58 L590.54 1064.55 Q594.63 1059.49 600.298 1059.49 Q603.97 1059.49 605.934 1061.39 Q607.899 1063.26 607.899 1066.54 Q607.899 1070.31 603.873 1081.04 Q602.681 1084.03 602.681 1085.74 Q602.681 1086.87 603.036 1087.38 Q603.422 1087.9 604.259 1087.9 Q605.548 1087.9 606.675 1087.16 Q607.834 1086.38 608.639 1085.13 Q609.445 1083.84 609.992 1082.55 Q610.572 1081.23 610.99 1079.75 Q611.248 1078.94 611.377 1078.75 Q611.538 1078.56 611.989 1078.56 Q612.762 1078.56 612.762 1079.2 Z" fill="#000000" fill-rule="nonzero" fill-opacity="1" /><polyline clip-path="url(#clip622)" style="stroke:#808080; stroke-linecap:round; stroke-linejoin:round; stroke-width:4; stroke-opacity:0.1; fill:none" points="202.093,960.047 940.069,960.047 "/>
<polyline clip-path="url(#clip622)" style="stroke:#808080; stroke-linecap:round; stroke-linejoin:round; stroke-width:4; stroke-opacity:0.1; fill:none" points="202.093,731.846 940.069,731.846 "/>
<polyline clip-path="url(#clip622)" style="stroke:#808080; stroke-linecap:round; stroke-linejoin:round; stroke-width:4; stroke-opacity:0.1; fill:none" points="202.093,503.646 940.069,503.646 "/>
<polyline clip-path="url(#clip622)" style="stroke:#808080; stroke-linecap:round; stroke-linejoin:round; stroke-width:4; stroke-opacity:0.1; fill:none" points="202.093,275.445 940.069,275.445 "/>
<polyline clip-path="url(#clip620)" style="stroke:#000000; stroke-linecap:round; stroke-linejoin:round; stroke-width:4; stroke-opacity:1; fill:none" points="202.093,960.047 202.093,47.2441 "/>
<polyline clip-path="url(#clip620)" style="stroke:#000000; stroke-linecap:round; stroke-linejoin:round; stroke-width:4; stroke-opacity:1; fill:none" points="940.069,960.047 940.069,47.2441 "/>
<polyline clip-path="url(#clip620)" style="stroke:#000000; stroke-linecap:round; stroke-linejoin:round; stroke-width:4; stroke-opacity:1; fill:none" points="202.093,960.047 220.991,960.047 "/>
<polyline clip-path="url(#clip620)" style="stroke:#000000; stroke-linecap:round; stroke-linejoin:round; stroke-width:4; stroke-opacity:1; fill:none" points="202.093,731.846 220.991,731.846 "/>
<polyline clip-path="url(#clip620)" style="stroke:#000000; stroke-linecap:round; stroke-linejoin:round; stroke-width:4; stroke-opacity:1; fill:none" points="202.093,503.646 220.991,503.646 "/>
<polyline clip-path="url(#clip620)" style="stroke:#000000; stroke-linecap:round; stroke-linejoin:round; stroke-width:4; stroke-opacity:1; fill:none" points="202.093,275.445 220.991,275.445 "/>
<g clip-path="url(#clip620)">
<text style="fill:#000000; fill-opacity:1; font-family:Book Antiqua,Palatino,Palatino Linotype,Palatino LT STD,Georgia,serif; font-size:51px; font-weight:bold; text-anchor:middle;" transform="rotate(0, 140.375, 977.547)" x="140.375" y="977.547">2.0</text>
</g>
<g clip-path="url(#clip620)">
<text style="fill:#000000; fill-opacity:1; font-family:Book Antiqua,Palatino,Palatino Linotype,Palatino LT STD,Georgia,serif; font-size:51px; font-weight:bold; text-anchor:middle;" transform="rotate(0, 140.375, 749.346)" x="140.375" y="749.346">2.5</text>
</g>
<g clip-path="url(#clip620)">
<text style="fill:#000000; fill-opacity:1; font-family:Book Antiqua,Palatino,Palatino Linotype,Palatino LT STD,Georgia,serif; font-size:51px; font-weight:bold; text-anchor:middle;" transform="rotate(0, 140.375, 521.146)" x="140.375" y="521.146">3.0</text>
</g>
<g clip-path="url(#clip620)">
<text style="fill:#000000; fill-opacity:1; font-family:Book Antiqua,Palatino,Palatino Linotype,Palatino LT STD,Georgia,serif; font-size:51px; font-weight:bold; text-anchor:middle;" transform="rotate(0, 140.375, 292.945)" x="140.375" y="292.945">3.5</text>
</g>
<path clip-path="url(#clip620)" d="M44.1287 697.4 Q34.0483 697.4 27.0274 690.959 Q19.9743 684.485 19.9743 675.5 Q19.9743 666.45 27.0274 660.009 Q34.0805 653.535 44.1287 653.535 Q54.0803 653.535 61.0046 660.009 Q67.9289 666.482 67.9289 675.5 Q67.9289 684.389 61.0368 690.894 Q54.1447 697.4 44.1287 697.4 M43.1948 690.604 Q49.3139 690.604 54.0159 689.155 Q58.6858 687.706 61.23 685.387 Q63.7743 683.036 64.9981 680.524 Q66.2219 678.012 66.2219 675.435 Q66.2219 672.923 65.0303 670.476 Q63.8387 667.996 61.3267 665.645 Q58.8146 663.294 54.1125 661.812 Q49.4105 660.331 43.1948 660.331 Q38.3639 660.331 34.4992 661.361 Q30.6023 662.392 28.2512 664.002 Q25.9002 665.613 24.3543 667.706 Q22.8084 669.767 22.2287 671.732 Q21.6168 673.664 21.6168 675.5 Q21.6168 677.819 22.6474 680.234 Q23.678 682.649 25.9646 685.097 Q28.219 687.513 32.6956 689.058 Q37.1401 690.604 43.1948 690.604 Z" fill="#000000" fill-rule="nonzero" fill-opacity="1" /><path clip-path="url(#clip620)" d="M40.103 647.179 L38.0418 647.179 L37.3333 637.485 L59.2333 637.485 Q60.8114 637.485 61.7453 637.356 Q62.6471 637.228 63.7099 636.712 Q64.7727 636.165 65.2558 634.941 Q65.7389 633.685 65.7389 631.688 Q65.7389 628.113 62.8081 625.923 Q59.8774 623.701 55.5296 623.701 L43.7745 623.701 Q41.3268 623.701 40.7149 624.571 Q40.103 625.44 40.103 628.854 L38.0418 628.854 L37.3333 619.16 L60.7469 619.16 Q63.1946 619.16 63.8387 618.323 Q64.4506 617.453 64.4506 614.007 L66.4796 614.007 L67.2203 623.508 L61.2622 623.508 Q67.1881 626.278 67.2203 632.01 Q67.2203 634.909 66.4796 636.906 Q65.7389 638.87 64.8371 639.869 Q63.9031 640.867 62.1318 641.414 Q60.3605 641.93 59.2655 641.994 Q58.1705 642.059 56.0449 642.059 L46.1577 642.059 Q41.6811 642.059 40.9081 642.703 Q40.103 643.347 40.103 647.179 Z" fill="#000000" fill-rule="nonzero" fill-opacity="1" /><path clip-path="url(#clip620)" d="M40.103 611.736 L38.6537 611.736 Q38.5249 608.709 36.3993 606.712 Q34.2415 604.683 31.6006 604.007 Q28.9598 603.298 25.9002 603.234 L25.9002 601.591 L38.0418 601.591 L38.0418 592.155 L40.103 592.155 L40.103 601.591 L58.4281 601.591 Q65.5456 601.591 65.5456 597.147 Q65.5456 595.247 63.6133 593.991 Q61.6487 592.735 58.1705 592.735 L54.5312 592.735 L54.5312 591.092 L58.2993 591.092 Q61.8742 591.092 64.5472 592.735 Q67.2203 594.377 67.2203 597.63 Q67.2203 598.821 66.8983 600.013 Q66.6084 601.173 65.8355 602.718 Q65.0303 604.232 63.098 605.198 Q61.1334 606.132 58.2993 606.132 L40.103 606.132 L40.103 611.736 Z" fill="#000000" fill-rule="nonzero" fill-opacity="1" /><path clip-path="url(#clip620)" d="M77.2364 590.898 Q77.2364 587.387 76.7855 586.582 Q76.3668 585.745 74.2734 585.745 L43.388 585.745 Q41.198 585.745 40.6505 586.582 Q40.103 587.387 40.103 590.898 L38.0418 590.898 L37.3333 581.397 L41.6811 581.397 Q37.3333 577.436 37.3333 572.154 Q37.3333 566.55 41.6811 562.46 Q46.0289 558.37 52.2446 558.37 Q58.5247 558.37 62.8725 562.717 Q67.2203 567.065 67.2203 573.088 Q67.2203 576.373 65.5456 578.595 Q63.8387 580.785 62.5827 581.204 L63.1946 581.204 L74.2734 581.204 Q76.399 581.204 76.8177 580.366 Q77.2364 579.529 77.2364 576.051 L79.2653 576.051 Q79.0721 582.975 79.0721 583.49 Q79.0721 584.134 79.2653 590.898 L77.2364 590.898 M58.9756 581.204 Q59.974 581.204 60.3283 581.075 Q60.6825 580.914 61.7453 580.27 Q65.7389 577.661 65.7389 573.41 Q65.7389 573.378 65.7389 573.345 Q65.7389 569.577 61.9064 566.711 Q58.0417 563.845 52.2446 563.845 Q46.7052 563.845 42.8405 566.453 Q38.9758 569.062 38.9758 572.669 Q38.9758 575.246 40.3606 577.5 Q41.7455 579.754 44.2575 581.204 L58.9756 581.204 Z" fill="#000000" fill-rule="nonzero" fill-opacity="1" /><path clip-path="url(#clip620)" d="M40.103 550.438 L38.0418 550.438 L37.3333 540.744 L59.2333 540.744 Q60.8114 540.744 61.7453 540.616 Q62.6471 540.487 63.7099 539.971 Q64.7727 539.424 65.2558 538.2 Q65.7389 536.944 65.7389 534.947 Q65.7389 531.373 62.8081 529.183 Q59.8774 526.96 55.5296 526.96 L43.7745 526.96 Q41.3268 526.96 40.7149 527.83 Q40.103 528.699 40.103 532.113 L38.0418 532.113 L37.3333 522.419 L60.7469 522.419 Q63.1946 522.419 63.8387 521.582 Q64.4506 520.712 64.4506 517.266 L66.4796 517.266 L67.2203 526.767 L61.2622 526.767 Q67.1881 529.537 67.2203 535.269 Q67.2203 538.168 66.4796 540.165 Q65.7389 542.129 64.8371 543.128 Q63.9031 544.126 62.1318 544.674 Q60.3605 545.189 59.2655 545.253 Q58.1705 545.318 56.0449 545.318 L46.1577 545.318 Q41.6811 545.318 40.9081 545.962 Q40.103 546.606 40.103 550.438 Z" fill="#000000" fill-rule="nonzero" fill-opacity="1" /><path clip-path="url(#clip620)" d="M40.103 514.995 L38.6537 514.995 Q38.5249 511.968 36.3993 509.971 Q34.2415 507.942 31.6006 507.266 Q28.9598 506.557 25.9002 506.493 L25.9002 504.85 L38.0418 504.85 L38.0418 495.414 L40.103 495.414 L40.103 504.85 L58.4281 504.85 Q65.5456 504.85 65.5456 500.406 Q65.5456 498.506 63.6133 497.25 Q61.6487 495.994 58.1705 495.994 L54.5312 495.994 L54.5312 494.351 L58.2993 494.351 Q61.8742 494.351 64.5472 495.994 Q67.2203 497.636 67.2203 500.889 Q67.2203 502.081 66.8983 503.272 Q66.6084 504.432 65.8355 505.977 Q65.0303 507.491 63.098 508.457 Q61.1334 509.391 58.2993 509.391 L40.103 509.391 L40.103 514.995 Z" fill="#000000" fill-rule="nonzero" fill-opacity="1" /><path clip-path="url(#clip620)" d="M82.035 480.954 Q81.713 480.954 81.0044 480.696 L18.7827 457.411 Q18.7183 457.411 18.364 457.25 Q18.0098 457.089 17.7843 456.993 Q17.5267 456.896 17.3334 456.703 Q17.1402 456.477 17.1402 456.22 Q17.1402 455.576 17.9454 455.576 Q18.0098 455.576 18.7827 455.769 L81.0688 479.118 Q82.1961 479.505 82.5181 479.762 Q82.8402 479.988 82.8402 480.374 Q82.8402 480.954 82.035 480.954 Z" fill="#000000" fill-rule="nonzero" fill-opacity="1" /><path clip-path="url(#clip620)" d="M77.2364 439.576 Q77.2364 436.066 76.7855 435.261 Q76.3668 434.423 74.2734 434.423 L43.388 434.423 Q41.198 434.423 40.6505 435.261 Q40.103 436.066 40.103 439.576 L38.0418 439.576 L37.3333 430.075 L41.6811 430.075 Q37.3333 426.114 37.3333 420.832 Q37.3333 415.229 41.6811 411.138 Q46.0289 407.048 52.2446 407.048 Q58.5247 407.048 62.8725 411.396 Q67.2203 415.744 67.2203 421.766 Q67.2203 425.051 65.5456 427.274 Q63.8387 429.464 62.5827 429.882 L63.1946 429.882 L74.2734 429.882 Q76.399 429.882 76.8177 429.045 Q77.2364 428.207 77.2364 424.729 L79.2653 424.729 Q79.0721 431.654 79.0721 432.169 Q79.0721 432.813 79.2653 439.576 L77.2364 439.576 M58.9756 429.882 Q59.974 429.882 60.3283 429.753 Q60.6825 429.592 61.7453 428.948 Q65.7389 426.34 65.7389 422.088 Q65.7389 422.056 65.7389 422.024 Q65.7389 418.256 61.9064 415.39 Q58.0417 412.523 52.2446 412.523 Q46.7052 412.523 42.8405 415.132 Q38.9758 417.741 38.9758 421.348 Q38.9758 423.924 40.3606 426.179 Q41.7455 428.433 44.2575 429.882 L58.9756 429.882 Z" fill="#000000" fill-rule="nonzero" fill-opacity="1" /><path clip-path="url(#clip620)" d="M65.4168 402.343 Q64.354 403.341 62.9692 403.341 Q61.5843 403.341 60.5859 402.343 Q59.5553 401.344 59.5553 399.83 Q59.5553 398.381 60.5215 397.415 Q61.4555 396.417 63.0014 396.417 Q64.515 396.417 65.5134 397.479 Q66.4796 398.51 66.4796 399.83 Q66.4796 401.344 65.4168 402.343 Z" fill="#000000" fill-rule="nonzero" fill-opacity="1" /><path clip-path="url(#clip620)" d="M40.103 374.734 L38.0418 374.734 L37.3333 365.04 L59.2333 365.04 Q60.8114 365.04 61.7453 364.911 Q62.6471 364.782 63.7099 364.267 Q64.7727 363.719 65.2558 362.495 Q65.7389 361.239 65.7389 359.243 Q65.7389 355.668 62.8081 353.478 Q59.8774 351.256 55.5296 351.256 L43.7745 351.256 Q41.3268 351.256 40.7149 352.125 Q40.103 352.995 40.103 356.409 L38.0418 356.409 L37.3333 346.715 L60.7469 346.715 Q63.1946 346.715 63.8387 345.877 Q64.4506 345.008 64.4506 341.562 L66.4796 341.562 L67.2203 351.062 L61.2622 351.062 Q67.1881 353.832 67.2203 359.565 Q67.2203 362.463 66.4796 364.46 Q65.7389 366.425 64.8371 367.423 Q63.9031 368.421 62.1318 368.969 Q60.3605 369.484 59.2655 369.549 Q58.1705 369.613 56.0449 369.613 L46.1577 369.613 Q41.6811 369.613 40.9081 370.257 Q40.103 370.901 40.103 374.734 Z" fill="#000000" fill-rule="nonzero" fill-opacity="1" /><path clip-path="url(#clip620)" d="M65.4168 337.5 Q64.354 338.498 62.9692 338.498 Q61.5843 338.498 60.5859 337.5 Q59.5553 336.502 59.5553 334.988 Q59.5553 333.539 60.5215 332.573 Q61.4555 331.574 63.0014 331.574 Q64.515 331.574 65.5134 332.637 Q66.4796 333.668 66.4796 334.988 Q66.4796 336.502 65.4168 337.5 Z" fill="#000000" fill-rule="nonzero" fill-opacity="1" /><path clip-path="url(#clip622)" d="M219.804 872.463 L219.804 1872.85 L243.42 1872.85 L243.42 872.463 L219.804 872.463 L219.804 872.463  Z" fill="#009af9" fill-rule="evenodd" fill-opacity="1"/>
<polyline clip-path="url(#clip622)" style="stroke:#6495ed; stroke-linecap:round; stroke-linejoin:round; stroke-width:4; stroke-opacity:1; fill:none" points="219.804,872.463 219.804,1872.85 243.42,1872.85 243.42,872.463 219.804,872.463 "/>
<path clip-path="url(#clip622)" d="M249.324 798.709 L249.324 1872.85 L272.939 1872.85 L272.939 798.709 L249.324 798.709 L249.324 798.709  Z" fill="#009af9" fill-rule="evenodd" fill-opacity="1"/>
<polyline clip-path="url(#clip622)" style="stroke:#6495ed; stroke-linecap:round; stroke-linejoin:round; stroke-width:4; stroke-opacity:1; fill:none" points="249.324,798.709 249.324,1872.85 272.939,1872.85 272.939,798.709 249.324,798.709 "/>
<path clip-path="url(#clip622)" d="M278.843 801.813 L278.843 1872.85 L302.458 1872.85 L302.458 801.813 L278.843 801.813 L278.843 801.813  Z" fill="#009af9" fill-rule="evenodd" fill-opacity="1"/>
<polyline clip-path="url(#clip622)" style="stroke:#6495ed; stroke-linecap:round; stroke-linejoin:round; stroke-width:4; stroke-opacity:1; fill:none" points="278.843,801.813 278.843,1872.85 302.458,1872.85 302.458,801.813 278.843,801.813 "/>
<path clip-path="url(#clip622)" d="M308.362 792.411 L308.362 1872.85 L331.977 1872.85 L331.977 792.411 L308.362 792.411 L308.362 792.411  Z" fill="#009af9" fill-rule="evenodd" fill-opacity="1"/>
<polyline clip-path="url(#clip622)" style="stroke:#6495ed; stroke-linecap:round; stroke-linejoin:round; stroke-width:4; stroke-opacity:1; fill:none" points="308.362,792.411 308.362,1872.85 331.977,1872.85 331.977,792.411 308.362,792.411 "/>
<path clip-path="url(#clip622)" d="M337.881 781.777 L337.881 1872.85 L361.496 1872.85 L361.496 781.777 L337.881 781.777 L337.881 781.777  Z" fill="#009af9" fill-rule="evenodd" fill-opacity="1"/>
<polyline clip-path="url(#clip622)" style="stroke:#6495ed; stroke-linecap:round; stroke-linejoin:round; stroke-width:4; stroke-opacity:1; fill:none" points="337.881,781.777 337.881,1872.85 361.496,1872.85 361.496,781.777 337.881,781.777 "/>
<path clip-path="url(#clip622)" d="M367.4 757.04 L367.4 1872.85 L391.015 1872.85 L391.015 757.04 L367.4 757.04 L367.4 757.04  Z" fill="#009af9" fill-rule="evenodd" fill-opacity="1"/>
<polyline clip-path="url(#clip622)" style="stroke:#6495ed; stroke-linecap:round; stroke-linejoin:round; stroke-width:4; stroke-opacity:1; fill:none" points="367.4,757.04 367.4,1872.85 391.015,1872.85 391.015,757.04 367.4,757.04 "/>
<path clip-path="url(#clip622)" d="M396.919 625.094 L396.919 1872.85 L420.534 1872.85 L420.534 625.094 L396.919 625.094 L396.919 625.094  Z" fill="#009af9" fill-rule="evenodd" fill-opacity="1"/>
<polyline clip-path="url(#clip622)" style="stroke:#6495ed; stroke-linecap:round; stroke-linejoin:round; stroke-width:4; stroke-opacity:1; fill:none" points="396.919,625.094 396.919,1872.85 420.534,1872.85 420.534,625.094 396.919,625.094 "/>
<path clip-path="url(#clip622)" d="M426.438 547.46 L426.438 1872.85 L450.053 1872.85 L450.053 547.46 L426.438 547.46 L426.438 547.46  Z" fill="#009af9" fill-rule="evenodd" fill-opacity="1"/>
<polyline clip-path="url(#clip622)" style="stroke:#6495ed; stroke-linecap:round; stroke-linejoin:round; stroke-width:4; stroke-opacity:1; fill:none" points="426.438,547.46 426.438,1872.85 450.053,1872.85 450.053,547.46 426.438,547.46 "/>
<path clip-path="url(#clip622)" d="M455.957 578.678 L455.957 1872.85 L479.572 1872.85 L479.572 578.678 L455.957 578.678 L455.957 578.678  Z" fill="#009af9" fill-rule="evenodd" fill-opacity="1"/>
<polyline clip-path="url(#clip622)" style="stroke:#6495ed; stroke-linecap:round; stroke-linejoin:round; stroke-width:4; stroke-opacity:1; fill:none" points="455.957,578.678 455.957,1872.85 479.572,1872.85 479.572,578.678 455.957,578.678 "/>
<path clip-path="url(#clip622)" d="M485.476 589.449 L485.476 1872.85 L509.091 1872.85 L509.091 589.449 L485.476 589.449 L485.476 589.449  Z" fill="#009af9" fill-rule="evenodd" fill-opacity="1"/>
<polyline clip-path="url(#clip622)" style="stroke:#6495ed; stroke-linecap:round; stroke-linejoin:round; stroke-width:4; stroke-opacity:1; fill:none" points="485.476,589.449 485.476,1872.85 509.091,1872.85 509.091,589.449 485.476,589.449 "/>
<path clip-path="url(#clip622)" d="M514.995 373.069 L514.995 1872.85 L538.61 1872.85 L538.61 373.069 L514.995 373.069 L514.995 373.069  Z" fill="#009af9" fill-rule="evenodd" fill-opacity="1"/>
<polyline clip-path="url(#clip622)" style="stroke:#6495ed; stroke-linecap:round; stroke-linejoin:round; stroke-width:4; stroke-opacity:1; fill:none" points="514.995,373.069 514.995,1872.85 538.61,1872.85 538.61,373.069 514.995,373.069 "/>
<path clip-path="url(#clip622)" d="M544.514 375.397 L544.514 1872.85 L568.129 1872.85 L568.129 375.397 L544.514 375.397 L544.514 375.397  Z" fill="#009af9" fill-rule="evenodd" fill-opacity="1"/>
<polyline clip-path="url(#clip622)" style="stroke:#6495ed; stroke-linecap:round; stroke-linejoin:round; stroke-width:4; stroke-opacity:1; fill:none" points="544.514,375.397 544.514,1872.85 568.129,1872.85 568.129,375.397 544.514,375.397 "/>
<path clip-path="url(#clip622)" d="M574.033 384.16 L574.033 1872.85 L597.648 1872.85 L597.648 384.16 L574.033 384.16 L574.033 384.16  Z" fill="#009af9" fill-rule="evenodd" fill-opacity="1"/>
<polyline clip-path="url(#clip622)" style="stroke:#6495ed; stroke-linecap:round; stroke-linejoin:round; stroke-width:4; stroke-opacity:1; fill:none" points="574.033,384.16 574.033,1872.85 597.648,1872.85 597.648,384.16 574.033,384.16 "/>
<path clip-path="url(#clip622)" d="M603.552 395.935 L603.552 1872.85 L627.167 1872.85 L627.167 395.935 L603.552 395.935 L603.552 395.935  Z" fill="#009af9" fill-rule="evenodd" fill-opacity="1"/>
<polyline clip-path="url(#clip622)" style="stroke:#6495ed; stroke-linecap:round; stroke-linejoin:round; stroke-width:4; stroke-opacity:1; fill:none" points="603.552,395.935 603.552,1872.85 627.167,1872.85 627.167,395.935 603.552,395.935 "/>
<path clip-path="url(#clip622)" d="M633.071 381.056 L633.071 1872.85 L656.686 1872.85 L656.686 381.056 L633.071 381.056 L633.071 381.056  Z" fill="#009af9" fill-rule="evenodd" fill-opacity="1"/>
<polyline clip-path="url(#clip622)" style="stroke:#6495ed; stroke-linecap:round; stroke-linejoin:round; stroke-width:4; stroke-opacity:1; fill:none" points="633.071,381.056 633.071,1872.85 656.686,1872.85 656.686,381.056 633.071,381.056 "/>
<path clip-path="url(#clip622)" d="M662.59 559.372 L662.59 1872.85 L686.205 1872.85 L686.205 559.372 L662.59 559.372 L662.59 559.372  Z" fill="#009af9" fill-rule="evenodd" fill-opacity="1"/>
<polyline clip-path="url(#clip622)" style="stroke:#6495ed; stroke-linecap:round; stroke-linejoin:round; stroke-width:4; stroke-opacity:1; fill:none" points="662.59,559.372 662.59,1872.85 686.205,1872.85 686.205,559.372 662.59,559.372 "/>
<path clip-path="url(#clip622)" d="M692.109 686.206 L692.109 1872.85 L715.724 1872.85 L715.724 686.206 L692.109 686.206 L692.109 686.206  Z" fill="#009af9" fill-rule="evenodd" fill-opacity="1"/>
<polyline clip-path="url(#clip622)" style="stroke:#6495ed; stroke-linecap:round; stroke-linejoin:round; stroke-width:4; stroke-opacity:1; fill:none" points="692.109,686.206 692.109,1872.85 715.724,1872.85 715.724,686.206 692.109,686.206 "/>
<path clip-path="url(#clip622)" d="M721.628 746.725 L721.628 1872.85 L745.243 1872.85 L745.243 746.725 L721.628 746.725 L721.628 746.725  Z" fill="#009af9" fill-rule="evenodd" fill-opacity="1"/>
<polyline clip-path="url(#clip622)" style="stroke:#6495ed; stroke-linecap:round; stroke-linejoin:round; stroke-width:4; stroke-opacity:1; fill:none" points="721.628,746.725 721.628,1872.85 745.243,1872.85 745.243,746.725 721.628,746.725 "/>
<path clip-path="url(#clip622)" d="M751.147 704.599 L751.147 1872.85 L774.762 1872.85 L774.762 704.599 L751.147 704.599 L751.147 704.599  Z" fill="#009af9" fill-rule="evenodd" fill-opacity="1"/>
<polyline clip-path="url(#clip622)" style="stroke:#6495ed; stroke-linecap:round; stroke-linejoin:round; stroke-width:4; stroke-opacity:1; fill:none" points="751.147,704.599 751.147,1872.85 774.762,1872.85 774.762,704.599 751.147,704.599 "/>
<path clip-path="url(#clip622)" d="M780.666 789.581 L780.666 1872.85 L804.281 1872.85 L804.281 789.581 L780.666 789.581 L780.666 789.581  Z" fill="#009af9" fill-rule="evenodd" fill-opacity="1"/>
<polyline clip-path="url(#clip622)" style="stroke:#6495ed; stroke-linecap:round; stroke-linejoin:round; stroke-width:4; stroke-opacity:1; fill:none" points="780.666,789.581 780.666,1872.85 804.281,1872.85 804.281,789.581 780.666,789.581 "/>
<path clip-path="url(#clip622)" d="M810.185 762.379 L810.185 1872.85 L833.8 1872.85 L833.8 762.379 L810.185 762.379 L810.185 762.379  Z" fill="#009af9" fill-rule="evenodd" fill-opacity="1"/>
<polyline clip-path="url(#clip622)" style="stroke:#6495ed; stroke-linecap:round; stroke-linejoin:round; stroke-width:4; stroke-opacity:1; fill:none" points="810.185,762.379 810.185,1872.85 833.8,1872.85 833.8,762.379 810.185,762.379 "/>
<path clip-path="url(#clip622)" d="M839.704 580.595 L839.704 1872.85 L863.319 1872.85 L863.319 580.595 L839.704 580.595 L839.704 580.595  Z" fill="#009af9" fill-rule="evenodd" fill-opacity="1"/>
<polyline clip-path="url(#clip622)" style="stroke:#6495ed; stroke-linecap:round; stroke-linejoin:round; stroke-width:4; stroke-opacity:1; fill:none" points="839.704,580.595 839.704,1872.85 863.319,1872.85 863.319,580.595 839.704,580.595 "/>
<path clip-path="url(#clip622)" d="M869.223 581.006 L869.223 1872.85 L892.838 1872.85 L892.838 581.006 L869.223 581.006 L869.223 581.006  Z" fill="#009af9" fill-rule="evenodd" fill-opacity="1"/>
<polyline clip-path="url(#clip622)" style="stroke:#6495ed; stroke-linecap:round; stroke-linejoin:round; stroke-width:4; stroke-opacity:1; fill:none" points="869.223,581.006 869.223,1872.85 892.838,1872.85 892.838,581.006 869.223,581.006 "/>
<path clip-path="url(#clip622)" d="M898.742 737.551 L898.742 1872.85 L922.357 1872.85 L922.357 737.551 L898.742 737.551 L898.742 737.551  Z" fill="#009af9" fill-rule="evenodd" fill-opacity="1"/>
<polyline clip-path="url(#clip622)" style="stroke:#6495ed; stroke-linecap:round; stroke-linejoin:round; stroke-width:4; stroke-opacity:1; fill:none" points="898.742,737.551 898.742,1872.85 922.357,1872.85 922.357,737.551 898.742,737.551 "/>
<circle clip-path="url(#clip622)" style="fill:#009af9; stroke:none; fill-opacity:0" cx="231.612" cy="872.463" r="2"/>
<circle clip-path="url(#clip622)" style="fill:#009af9; stroke:none; fill-opacity:0" cx="261.131" cy="798.709" r="2"/>
<circle clip-path="url(#clip622)" style="fill:#009af9; stroke:none; fill-opacity:0" cx="290.65" cy="801.813" r="2"/>
<circle clip-path="url(#clip622)" style="fill:#009af9; stroke:none; fill-opacity:0" cx="320.169" cy="792.411" r="2"/>
<circle clip-path="url(#clip622)" style="fill:#009af9; stroke:none; fill-opacity:0" cx="349.688" cy="781.777" r="2"/>
<circle clip-path="url(#clip622)" style="fill:#009af9; stroke:none; fill-opacity:0" cx="379.207" cy="757.04" r="2"/>
<circle clip-path="url(#clip622)" style="fill:#009af9; stroke:none; fill-opacity:0" cx="408.726" cy="625.094" r="2"/>
<circle clip-path="url(#clip622)" style="fill:#009af9; stroke:none; fill-opacity:0" cx="438.245" cy="547.46" r="2"/>
<circle clip-path="url(#clip622)" style="fill:#009af9; stroke:none; fill-opacity:0" cx="467.764" cy="578.678" r="2"/>
<circle clip-path="url(#clip622)" style="fill:#009af9; stroke:none; fill-opacity:0" cx="497.283" cy="589.449" r="2"/>
<circle clip-path="url(#clip622)" style="fill:#009af9; stroke:none; fill-opacity:0" cx="526.802" cy="373.069" r="2"/>
<circle clip-path="url(#clip622)" style="fill:#009af9; stroke:none; fill-opacity:0" cx="556.321" cy="375.397" r="2"/>
<circle clip-path="url(#clip622)" style="fill:#009af9; stroke:none; fill-opacity:0" cx="585.84" cy="384.16" r="2"/>
<circle clip-path="url(#clip622)" style="fill:#009af9; stroke:none; fill-opacity:0" cx="615.359" cy="395.935" r="2"/>
<circle clip-path="url(#clip622)" style="fill:#009af9; stroke:none; fill-opacity:0" cx="644.878" cy="381.056" r="2"/>
<circle clip-path="url(#clip622)" style="fill:#009af9; stroke:none; fill-opacity:0" cx="674.397" cy="559.372" r="2"/>
<circle clip-path="url(#clip622)" style="fill:#009af9; stroke:none; fill-opacity:0" cx="703.916" cy="686.206" r="2"/>
<circle clip-path="url(#clip622)" style="fill:#009af9; stroke:none; fill-opacity:0" cx="733.436" cy="746.725" r="2"/>
<circle clip-path="url(#clip622)" style="fill:#009af9; stroke:none; fill-opacity:0" cx="762.955" cy="704.599" r="2"/>
<circle clip-path="url(#clip622)" style="fill:#009af9; stroke:none; fill-opacity:0" cx="792.474" cy="789.581" r="2"/>
<circle clip-path="url(#clip622)" style="fill:#009af9; stroke:none; fill-opacity:0" cx="821.993" cy="762.379" r="2"/>
<circle clip-path="url(#clip622)" style="fill:#009af9; stroke:none; fill-opacity:0" cx="851.512" cy="580.595" r="2"/>
<circle clip-path="url(#clip622)" style="fill:#009af9; stroke:none; fill-opacity:0" cx="881.031" cy="581.006" r="2"/>
<circle clip-path="url(#clip622)" style="fill:#009af9; stroke:none; fill-opacity:0" cx="910.55" cy="737.551" r="2"/>
<path clip-path="url(#clip620)" d="M558.341 185.157 L915.469 185.157 L915.469 77.6709 L558.341 77.6709  Z" fill="#ffffff" fill-rule="evenodd" fill-opacity="1"/>
<polyline clip-path="url(#clip620)" style="stroke:#000000; stroke-linecap:round; stroke-linejoin:round; stroke-width:4; stroke-opacity:1; fill:none" points="558.341,185.157 915.469,185.157 915.469,77.6709 558.341,77.6709 558.341,185.157 "/>
<path clip-path="url(#clip620)" d="M566.541 152.911 L615.739 152.911 L615.739 109.917 L566.541 109.917 L566.541 152.911  Z" fill="#009af9" fill-rule="evenodd" fill-opacity="1"/>
<polyline clip-path="url(#clip620)" style="stroke:#6495ed; stroke-linecap:round; stroke-linejoin:round; stroke-width:4; stroke-opacity:1; fill:none" points="566.541,152.911 615.739,152.911 615.739,109.917 566.541,109.917 566.541,152.911 "/>
<g clip-path="url(#clip620)">
<text style="fill:#000000; fill-opacity:1; font-family:Book Antiqua,Palatino,Palatino Linotype,Palatino LT STD,Georgia,serif; font-size:51px; font-weight:bold; text-anchor:start;" transform="rotate(0, 623.939, 148.914)" x="623.939" y="148.914">System load</text>
</g>
<path clip-path="url(#clip620)" d="M1214.78 960.047 L1952.76 960.047 L1952.76 47.2441 L1214.78 47.2441  Z" fill="#ffffff" fill-rule="evenodd" fill-opacity="1"/>
<defs>
  <clipPath id="clip623">
    <rect x="1214" y="47" width="739" height="914"/>
  </clipPath>
</defs>
<polyline clip-path="url(#clip623)" style="stroke:#808080; stroke-linecap:round; stroke-linejoin:round; stroke-width:8; stroke-opacity:0.1; fill:none" points="1205.4,960.047 1205.4,47.2441 "/>
<polyline clip-path="url(#clip623)" style="stroke:#808080; stroke-linecap:round; stroke-linejoin:round; stroke-width:8; stroke-opacity:0.1; fill:none" points="1356.75,960.047 1356.75,47.2441 "/>
<polyline clip-path="url(#clip623)" style="stroke:#808080; stroke-linecap:round; stroke-linejoin:round; stroke-width:8; stroke-opacity:0.1; fill:none" points="1508.09,960.047 1508.09,47.2441 "/>
<polyline clip-path="url(#clip623)" style="stroke:#808080; stroke-linecap:round; stroke-linejoin:round; stroke-width:8; stroke-opacity:0.1; fill:none" points="1659.44,960.047 1659.44,47.2441 "/>
<polyline clip-path="url(#clip623)" style="stroke:#808080; stroke-linecap:round; stroke-linejoin:round; stroke-width:8; stroke-opacity:0.1; fill:none" points="1810.79,960.047 1810.79,47.2441 "/>
<polyline clip-path="url(#clip623)" style="stroke:#808080; stroke-linecap:round; stroke-linejoin:round; stroke-width:8; stroke-opacity:0.1; fill:none" points="1962.14,960.047 1962.14,47.2441 "/>
<polyline clip-path="url(#clip620)" style="stroke:#000000; stroke-linecap:round; stroke-linejoin:round; stroke-width:4; stroke-opacity:1; fill:none" points="1214.78,960.047 1952.76,960.047 "/>
<polyline clip-path="url(#clip620)" style="stroke:#000000; stroke-linecap:round; stroke-linejoin:round; stroke-width:4; stroke-opacity:1; fill:none" points="1214.78,47.2441 1952.76,47.2441 "/>
<polyline clip-path="url(#clip620)" style="stroke:#000000; stroke-linecap:round; stroke-linejoin:round; stroke-width:4; stroke-opacity:1; fill:none" points="1205.4,960.047 1205.4,941.149 "/>
<polyline clip-path="url(#clip620)" style="stroke:#000000; stroke-linecap:round; stroke-linejoin:round; stroke-width:4; stroke-opacity:1; fill:none" points="1356.75,960.047 1356.75,941.149 "/>
<polyline clip-path="url(#clip620)" style="stroke:#000000; stroke-linecap:round; stroke-linejoin:round; stroke-width:4; stroke-opacity:1; fill:none" points="1508.09,960.047 1508.09,941.149 "/>
<polyline clip-path="url(#clip620)" style="stroke:#000000; stroke-linecap:round; stroke-linejoin:round; stroke-width:4; stroke-opacity:1; fill:none" points="1659.44,960.047 1659.44,941.149 "/>
<polyline clip-path="url(#clip620)" style="stroke:#000000; stroke-linecap:round; stroke-linejoin:round; stroke-width:4; stroke-opacity:1; fill:none" points="1810.79,960.047 1810.79,941.149 "/>
<polyline clip-path="url(#clip620)" style="stroke:#000000; stroke-linecap:round; stroke-linejoin:round; stroke-width:4; stroke-opacity:1; fill:none" points="1962.14,960.047 1962.14,941.149 "/>
<g clip-path="url(#clip620)">
<text style="fill:#000000; fill-opacity:1; font-family:Book Antiqua,Palatino,Palatino Linotype,Palatino LT STD,Georgia,serif; font-size:51px; font-weight:bold; text-anchor:middle;" transform="rotate(0, 1205.4, 1020.42)" x="1205.4" y="1020.42">0</text>
</g>
<g clip-path="url(#clip620)">
<text style="fill:#000000; fill-opacity:1; font-family:Book Antiqua,Palatino,Palatino Linotype,Palatino LT STD,Georgia,serif; font-size:51px; font-weight:bold; text-anchor:middle;" transform="rotate(0, 1356.75, 1020.42)" x="1356.75" y="1020.42">5</text>
</g>
<g clip-path="url(#clip620)">
<text style="fill:#000000; fill-opacity:1; font-family:Book Antiqua,Palatino,Palatino Linotype,Palatino LT STD,Georgia,serif; font-size:51px; font-weight:bold; text-anchor:middle;" transform="rotate(0, 1508.09, 1020.42)" x="1508.09" y="1020.42">10</text>
</g>
<g clip-path="url(#clip620)">
<text style="fill:#000000; fill-opacity:1; font-family:Book Antiqua,Palatino,Palatino Linotype,Palatino LT STD,Georgia,serif; font-size:51px; font-weight:bold; text-anchor:middle;" transform="rotate(0, 1659.44, 1020.42)" x="1659.44" y="1020.42">15</text>
</g>
<g clip-path="url(#clip620)">
<text style="fill:#000000; fill-opacity:1; font-family:Book Antiqua,Palatino,Palatino Linotype,Palatino LT STD,Georgia,serif; font-size:51px; font-weight:bold; text-anchor:middle;" transform="rotate(0, 1810.79, 1020.42)" x="1810.79" y="1020.42">20</text>
</g>
<g clip-path="url(#clip620)">
<text style="fill:#000000; fill-opacity:1; font-family:Book Antiqua,Palatino,Palatino Linotype,Palatino LT STD,Georgia,serif; font-size:51px; font-weight:bold; text-anchor:middle;" transform="rotate(0, 1962.14, 1020.42)" x="1962.14" y="1020.42">25</text>
</g>
<path clip-path="url(#clip620)" d="M1557.1 1060.94 Q1557.1 1061.84 1556.69 1062.07 Q1556.27 1062.26 1555.11 1062.26 L1548.92 1062.26 L1544.03 1081.71 Q1543.64 1083.42 1543.64 1084.87 Q1543.64 1086.48 1544.13 1087.19 Q1544.64 1087.9 1545.7 1087.9 Q1547.8 1087.9 1550.05 1086 Q1552.34 1084.1 1554.27 1079.46 Q1554.53 1078.85 1554.66 1078.72 Q1554.82 1078.56 1555.24 1078.56 Q1556.04 1078.56 1556.04 1079.2 Q1556.04 1079.43 1555.59 1080.46 Q1555.17 1081.49 1554.24 1083 Q1553.34 1084.51 1552.15 1085.93 Q1550.99 1087.35 1549.21 1088.38 Q1547.44 1089.38 1545.54 1089.38 Q1542.87 1089.38 1541.16 1087.67 Q1539.49 1085.96 1539.49 1083.29 Q1539.49 1082.42 1540.16 1079.65 Q1540.84 1076.85 1544.51 1062.26 L1538.68 1062.26 Q1537.88 1062.26 1537.56 1062.23 Q1537.27 1062.2 1537.04 1062.03 Q1536.85 1061.84 1536.85 1061.45 Q1536.85 1060.84 1537.1 1060.59 Q1537.36 1060.3 1537.68 1060.26 Q1538.04 1060.2 1538.84 1060.2 L1545.03 1060.2 L1547.6 1049.73 Q1547.86 1048.7 1548.51 1048.12 Q1549.18 1047.51 1549.57 1047.45 Q1549.96 1047.35 1550.24 1047.35 Q1551.11 1047.35 1551.63 1047.83 Q1552.15 1048.28 1552.15 1049.12 Q1552.15 1049.57 1549.44 1060.2 L1555.24 1060.2 Q1555.98 1060.2 1556.27 1060.23 Q1556.59 1060.26 1556.85 1060.42 Q1557.1 1060.59 1557.1 1060.94 Z" fill="#000000" fill-rule="nonzero" fill-opacity="1" /><path clip-path="url(#clip620)" d="M1560.42 1104.19 Q1560.42 1103.87 1560.68 1103.16 L1583.96 1040.94 Q1583.96 1040.88 1584.12 1040.52 Q1584.28 1040.17 1584.38 1039.94 Q1584.48 1039.68 1584.67 1039.49 Q1584.9 1039.3 1585.15 1039.3 Q1585.8 1039.3 1585.8 1040.1 Q1585.8 1040.17 1585.6 1040.94 L1562.26 1103.23 Q1561.87 1104.35 1561.61 1104.68 Q1561.39 1105 1561 1105 Q1560.42 1105 1560.42 1104.19 Z" fill="#000000" fill-rule="nonzero" fill-opacity="1" /><path clip-path="url(#clip620)" d="M1625.45 1079.2 Q1625.45 1079.46 1625.16 1080.46 Q1624.87 1081.45 1624.16 1083 Q1623.48 1084.55 1622.55 1085.96 Q1621.62 1087.35 1620.07 1088.38 Q1618.56 1089.38 1616.82 1089.38 Q1614.5 1089.38 1612.95 1087.83 Q1611.41 1086.29 1611.41 1083.97 Q1611.41 1083.64 1611.44 1083.32 Q1611.47 1083 1611.5 1082.81 Q1611.54 1082.58 1611.63 1082.23 Q1611.76 1081.84 1611.79 1081.68 Q1611.86 1081.52 1612.02 1081.04 Q1612.21 1080.52 1612.28 1080.33 Q1616.37 1069.89 1616.37 1065.55 Q1616.37 1060.94 1612.79 1060.94 Q1609.6 1060.94 1606.45 1063.26 Q1605 1064.42 1603.61 1066.48 Q1602.23 1068.54 1601.97 1069.31 Q1601.68 1070.99 1601.26 1072.28 Q1601.07 1073.18 1600.14 1076.69 L1598.69 1082.65 L1597.43 1087.64 Q1597.17 1088.35 1596.46 1088.86 Q1595.76 1089.38 1594.98 1089.38 Q1594.34 1089.38 1593.69 1088.93 Q1593.08 1088.51 1593.08 1087.51 Q1593.08 1086.99 1593.34 1086.06 L1602.9 1048.06 L1603.1 1046.77 Q1603.1 1046.38 1602.94 1046.19 Q1602.81 1045.96 1602.04 1045.8 Q1601.29 1045.64 1599.81 1045.64 Q1599.2 1045.64 1598.91 1045.61 Q1598.65 1045.58 1598.43 1045.42 Q1598.2 1045.22 1598.2 1044.84 Q1598.2 1044.29 1598.43 1044 Q1598.69 1043.68 1598.88 1043.61 Q1599.07 1043.55 1599.46 1043.52 Q1600.01 1043.48 1601.84 1043.32 Q1603.68 1043.13 1605.26 1043 Q1606.83 1042.87 1607.51 1042.87 Q1607.9 1042.87 1608.09 1043.07 Q1608.32 1043.23 1608.35 1043.42 L1608.38 1043.58 L1603.23 1064.55 Q1607.32 1059.49 1612.99 1059.49 Q1616.66 1059.49 1618.62 1061.39 Q1620.59 1063.26 1620.59 1066.54 Q1620.59 1070.31 1616.56 1081.04 Q1615.37 1084.03 1615.37 1085.74 Q1615.37 1086.87 1615.72 1087.38 Q1616.11 1087.9 1616.95 1087.9 Q1618.23 1087.9 1619.36 1087.16 Q1620.52 1086.38 1621.33 1085.13 Q1622.13 1083.84 1622.68 1082.55 Q1623.26 1081.23 1623.68 1079.75 Q1623.94 1078.94 1624.06 1078.75 Q1624.23 1078.56 1624.68 1078.56 Q1625.45 1078.56 1625.45 1079.2 Z" fill="#000000" fill-rule="nonzero" fill-opacity="1" /><polyline clip-path="url(#clip623)" style="stroke:#808080; stroke-linecap:round; stroke-linejoin:round; stroke-width:8; stroke-opacity:0.1; fill:none" points="1214.78,862.247 1952.76,862.247 "/>
<polyline clip-path="url(#clip623)" style="stroke:#808080; stroke-linecap:round; stroke-linejoin:round; stroke-width:8; stroke-opacity:0.1; fill:none" points="1214.78,699.246 1952.76,699.246 "/>
<polyline clip-path="url(#clip623)" style="stroke:#808080; stroke-linecap:round; stroke-linejoin:round; stroke-width:8; stroke-opacity:0.1; fill:none" points="1214.78,536.246 1952.76,536.246 "/>
<polyline clip-path="url(#clip623)" style="stroke:#808080; stroke-linecap:round; stroke-linejoin:round; stroke-width:8; stroke-opacity:0.1; fill:none" points="1214.78,373.245 1952.76,373.245 "/>
<polyline clip-path="url(#clip623)" style="stroke:#808080; stroke-linecap:round; stroke-linejoin:round; stroke-width:8; stroke-opacity:0.1; fill:none" points="1214.78,210.245 1952.76,210.245 "/>
<polyline clip-path="url(#clip620)" style="stroke:#000000; stroke-linecap:round; stroke-linejoin:round; stroke-width:4; stroke-opacity:1; fill:none" points="1214.78,960.047 1214.78,47.2441 "/>
<polyline clip-path="url(#clip620)" style="stroke:#000000; stroke-linecap:round; stroke-linejoin:round; stroke-width:4; stroke-opacity:1; fill:none" points="1952.76,960.047 1952.76,47.2441 "/>
<polyline clip-path="url(#clip620)" style="stroke:#000000; stroke-linecap:round; stroke-linejoin:round; stroke-width:4; stroke-opacity:1; fill:none" points="1214.78,862.247 1233.68,862.247 "/>
<polyline clip-path="url(#clip620)" style="stroke:#000000; stroke-linecap:round; stroke-linejoin:round; stroke-width:4; stroke-opacity:1; fill:none" points="1214.78,699.246 1233.68,699.246 "/>
<polyline clip-path="url(#clip620)" style="stroke:#000000; stroke-linecap:round; stroke-linejoin:round; stroke-width:4; stroke-opacity:1; fill:none" points="1214.78,536.246 1233.68,536.246 "/>
<polyline clip-path="url(#clip620)" style="stroke:#000000; stroke-linecap:round; stroke-linejoin:round; stroke-width:4; stroke-opacity:1; fill:none" points="1214.78,373.245 1233.68,373.245 "/>
<polyline clip-path="url(#clip620)" style="stroke:#000000; stroke-linecap:round; stroke-linejoin:round; stroke-width:4; stroke-opacity:1; fill:none" points="1214.78,210.245 1233.68,210.245 "/>
<g clip-path="url(#clip620)">
<text style="fill:#000000; fill-opacity:1; font-family:Book Antiqua,Palatino,Palatino Linotype,Palatino LT STD,Georgia,serif; font-size:51px; font-weight:bold; text-anchor:middle;" transform="rotate(0, 1140.38, 879.747)" x="1140.38" y="879.747">0.35</text>
</g>
<g clip-path="url(#clip620)">
<text style="fill:#000000; fill-opacity:1; font-family:Book Antiqua,Palatino,Palatino Linotype,Palatino LT STD,Georgia,serif; font-size:51px; font-weight:bold; text-anchor:middle;" transform="rotate(0, 1140.38, 716.746)" x="1140.38" y="716.746">0.40</text>
</g>
<g clip-path="url(#clip620)">
<text style="fill:#000000; fill-opacity:1; font-family:Book Antiqua,Palatino,Palatino Linotype,Palatino LT STD,Georgia,serif; font-size:51px; font-weight:bold; text-anchor:middle;" transform="rotate(0, 1140.38, 553.746)" x="1140.38" y="553.746">0.45</text>
</g>
<g clip-path="url(#clip620)">
<text style="fill:#000000; fill-opacity:1; font-family:Book Antiqua,Palatino,Palatino Linotype,Palatino LT STD,Georgia,serif; font-size:51px; font-weight:bold; text-anchor:middle;" transform="rotate(0, 1140.38, 390.745)" x="1140.38" y="390.745">0.50</text>
</g>
<g clip-path="url(#clip620)">
<text style="fill:#000000; fill-opacity:1; font-family:Book Antiqua,Palatino,Palatino Linotype,Palatino LT STD,Georgia,serif; font-size:51px; font-weight:bold; text-anchor:middle;" transform="rotate(0, 1140.38, 227.745)" x="1140.38" y="227.745">0.55</text>
</g>
<path clip-path="url(#clip620)" d="M1031.44 697.4 Q1021.36 697.4 1014.34 690.959 Q1007.29 684.485 1007.29 675.5 Q1007.29 666.45 1014.34 660.009 Q1021.39 653.535 1031.44 653.535 Q1041.39 653.535 1048.32 660.009 Q1055.24 666.482 1055.24 675.5 Q1055.24 684.389 1048.35 690.894 Q1041.46 697.4 1031.44 697.4 M1030.51 690.604 Q1036.63 690.604 1041.33 689.155 Q1046 687.706 1048.54 685.387 Q1051.09 683.036 1052.31 680.524 Q1053.53 678.012 1053.53 675.435 Q1053.53 672.923 1052.34 670.476 Q1051.15 667.996 1048.64 665.645 Q1046.13 663.294 1041.43 661.812 Q1036.72 660.331 1030.51 660.331 Q1025.68 660.331 1021.81 661.361 Q1017.92 662.392 1015.56 664.002 Q1013.21 665.613 1011.67 667.706 Q1010.12 669.767 1009.54 671.732 Q1008.93 673.664 1008.93 675.5 Q1008.93 677.819 1009.96 680.234 Q1010.99 682.649 1013.28 685.097 Q1015.53 687.513 1020.01 689.058 Q1024.45 690.604 1030.51 690.604 Z" fill="#000000" fill-rule="nonzero" fill-opacity="1" /><path clip-path="url(#clip620)" d="M1027.42 647.179 L1025.35 647.179 L1024.65 637.485 L1046.55 637.485 Q1048.12 637.485 1049.06 637.356 Q1049.96 637.228 1051.02 636.712 Q1052.09 636.165 1052.57 634.941 Q1053.05 633.685 1053.05 631.688 Q1053.05 628.113 1050.12 625.923 Q1047.19 623.701 1042.84 623.701 L1031.09 623.701 Q1028.64 623.701 1028.03 624.571 Q1027.42 625.44 1027.42 628.854 L1025.35 628.854 L1024.65 619.16 L1048.06 619.16 Q1050.51 619.16 1051.15 618.323 Q1051.76 617.453 1051.76 614.007 L1053.79 614.007 L1054.53 623.508 L1048.58 623.508 Q1054.5 626.278 1054.53 632.01 Q1054.53 634.909 1053.79 636.906 Q1053.05 638.87 1052.15 639.869 Q1051.22 640.867 1049.44 641.414 Q1047.67 641.93 1046.58 641.994 Q1045.48 642.059 1043.36 642.059 L1033.47 642.059 Q1028.99 642.059 1028.22 642.703 Q1027.42 643.347 1027.42 647.179 Z" fill="#000000" fill-rule="nonzero" fill-opacity="1" /><path clip-path="url(#clip620)" d="M1027.42 611.736 L1025.97 611.736 Q1025.84 608.709 1023.71 606.712 Q1021.55 604.683 1018.91 604.007 Q1016.27 603.298 1013.21 603.234 L1013.21 601.591 L1025.35 601.591 L1025.35 592.155 L1027.42 592.155 L1027.42 601.591 L1045.74 601.591 Q1052.86 601.591 1052.86 597.147 Q1052.86 595.247 1050.93 593.991 Q1048.96 592.735 1045.48 592.735 L1041.84 592.735 L1041.84 591.092 L1045.61 591.092 Q1049.19 591.092 1051.86 592.735 Q1054.53 594.377 1054.53 597.63 Q1054.53 598.821 1054.21 600.013 Q1053.92 601.173 1053.15 602.718 Q1052.34 604.232 1050.41 605.198 Q1048.45 606.132 1045.61 606.132 L1027.42 606.132 L1027.42 611.736 Z" fill="#000000" fill-rule="nonzero" fill-opacity="1" /><path clip-path="url(#clip620)" d="M1064.55 590.898 Q1064.55 587.387 1064.1 586.582 Q1063.68 585.745 1061.59 585.745 L1030.7 585.745 Q1028.51 585.745 1027.96 586.582 Q1027.42 587.387 1027.42 590.898 L1025.35 590.898 L1024.65 581.397 L1028.99 581.397 Q1024.65 577.436 1024.65 572.154 Q1024.65 566.55 1028.99 562.46 Q1033.34 558.37 1039.56 558.37 Q1045.84 558.37 1050.19 562.717 Q1054.53 567.065 1054.53 573.088 Q1054.53 576.373 1052.86 578.595 Q1051.15 580.785 1049.9 581.204 L1050.51 581.204 L1061.59 581.204 Q1063.71 581.204 1064.13 580.366 Q1064.55 579.529 1064.55 576.051 L1066.58 576.051 Q1066.38 582.975 1066.38 583.49 Q1066.38 584.134 1066.58 590.898 L1064.55 590.898 M1046.29 581.204 Q1047.29 581.204 1047.64 581.075 Q1048 580.914 1049.06 580.27 Q1053.05 577.661 1053.05 573.41 Q1053.05 573.378 1053.05 573.345 Q1053.05 569.577 1049.22 566.711 Q1045.35 563.845 1039.56 563.845 Q1034.02 563.845 1030.15 566.453 Q1026.29 569.062 1026.29 572.669 Q1026.29 575.246 1027.67 577.5 Q1029.06 579.754 1031.57 581.204 L1046.29 581.204 Z" fill="#000000" fill-rule="nonzero" fill-opacity="1" /><path clip-path="url(#clip620)" d="M1027.42 550.438 L1025.35 550.438 L1024.65 540.744 L1046.55 540.744 Q1048.12 540.744 1049.06 540.616 Q1049.96 540.487 1051.02 539.971 Q1052.09 539.424 1052.57 538.2 Q1053.05 536.944 1053.05 534.947 Q1053.05 531.373 1050.12 529.183 Q1047.19 526.96 1042.84 526.96 L1031.09 526.96 Q1028.64 526.96 1028.03 527.83 Q1027.42 528.699 1027.42 532.113 L1025.35 532.113 L1024.65 522.419 L1048.06 522.419 Q1050.51 522.419 1051.15 521.582 Q1051.76 520.712 1051.76 517.266 L1053.79 517.266 L1054.53 526.767 L1048.58 526.767 Q1054.5 529.537 1054.53 535.269 Q1054.53 538.168 1053.79 540.165 Q1053.05 542.129 1052.15 543.128 Q1051.22 544.126 1049.44 544.674 Q1047.67 545.189 1046.58 545.253 Q1045.48 545.318 1043.36 545.318 L1033.47 545.318 Q1028.99 545.318 1028.22 545.962 Q1027.42 546.606 1027.42 550.438 Z" fill="#000000" fill-rule="nonzero" fill-opacity="1" /><path clip-path="url(#clip620)" d="M1027.42 514.995 L1025.97 514.995 Q1025.84 511.968 1023.71 509.971 Q1021.55 507.942 1018.91 507.266 Q1016.27 506.557 1013.21 506.493 L1013.21 504.85 L1025.35 504.85 L1025.35 495.414 L1027.42 495.414 L1027.42 504.85 L1045.74 504.85 Q1052.86 504.85 1052.86 500.406 Q1052.86 498.506 1050.93 497.25 Q1048.96 495.994 1045.48 495.994 L1041.84 495.994 L1041.84 494.351 L1045.61 494.351 Q1049.19 494.351 1051.86 495.994 Q1054.53 497.636 1054.53 500.889 Q1054.53 502.081 1054.21 503.272 Q1053.92 504.432 1053.15 505.977 Q1052.34 507.491 1050.41 508.457 Q1048.45 509.391 1045.61 509.391 L1027.42 509.391 L1027.42 514.995 Z" fill="#000000" fill-rule="nonzero" fill-opacity="1" /><path clip-path="url(#clip620)" d="M1069.35 472.239 Q1069.03 472.239 1068.32 471.981 L1006.1 448.696 Q1006.03 448.696 1005.68 448.535 Q1005.32 448.374 1005.1 448.278 Q1004.84 448.181 1004.65 447.988 Q1004.45 447.762 1004.45 447.505 Q1004.45 446.861 1005.26 446.861 Q1005.32 446.861 1006.1 447.054 L1068.38 470.403 Q1069.51 470.79 1069.83 471.047 Q1070.15 471.273 1070.15 471.659 Q1070.15 472.239 1069.35 472.239 Z" fill="#000000" fill-rule="nonzero" fill-opacity="1" /><path clip-path="url(#clip620)" d="M1064.55 439.576 Q1064.55 436.066 1064.1 435.261 Q1063.68 434.423 1061.59 434.423 L1030.7 434.423 Q1028.51 434.423 1027.96 435.261 Q1027.42 436.066 1027.42 439.576 L1025.35 439.576 L1024.65 430.075 L1028.99 430.075 Q1024.65 426.114 1024.65 420.832 Q1024.65 415.229 1028.99 411.138 Q1033.34 407.048 1039.56 407.048 Q1045.84 407.048 1050.19 411.396 Q1054.53 415.744 1054.53 421.766 Q1054.53 425.051 1052.86 427.274 Q1051.15 429.464 1049.9 429.882 L1050.51 429.882 L1061.59 429.882 Q1063.71 429.882 1064.13 429.045 Q1064.55 428.207 1064.55 424.729 L1066.58 424.729 Q1066.38 431.654 1066.38 432.169 Q1066.38 432.813 1066.58 439.576 L1064.55 439.576 M1046.29 429.882 Q1047.29 429.882 1047.64 429.753 Q1048 429.592 1049.06 428.948 Q1053.05 426.34 1053.05 422.088 Q1053.05 422.056 1053.05 422.024 Q1053.05 418.256 1049.22 415.39 Q1045.35 412.523 1039.56 412.523 Q1034.02 412.523 1030.15 415.132 Q1026.29 417.741 1026.29 421.348 Q1026.29 423.924 1027.67 426.179 Q1029.06 428.433 1031.57 429.882 L1046.29 429.882 Z" fill="#000000" fill-rule="nonzero" fill-opacity="1" /><path clip-path="url(#clip620)" d="M1052.73 402.343 Q1051.67 403.341 1050.28 403.341 Q1048.9 403.341 1047.9 402.343 Q1046.87 401.344 1046.87 399.83 Q1046.87 398.381 1047.83 397.415 Q1048.77 396.417 1050.31 396.417 Q1051.83 396.417 1052.83 397.479 Q1053.79 398.51 1053.79 399.83 Q1053.79 401.344 1052.73 402.343 Z" fill="#000000" fill-rule="nonzero" fill-opacity="1" /><path clip-path="url(#clip620)" d="M1027.42 374.734 L1025.35 374.734 L1024.65 365.04 L1046.55 365.04 Q1048.12 365.04 1049.06 364.911 Q1049.96 364.782 1051.02 364.267 Q1052.09 363.719 1052.57 362.495 Q1053.05 361.239 1053.05 359.243 Q1053.05 355.668 1050.12 353.478 Q1047.19 351.256 1042.84 351.256 L1031.09 351.256 Q1028.64 351.256 1028.03 352.125 Q1027.42 352.995 1027.42 356.409 L1025.35 356.409 L1024.65 346.715 L1048.06 346.715 Q1050.51 346.715 1051.15 345.877 Q1051.76 345.008 1051.76 341.562 L1053.79 341.562 L1054.53 351.062 L1048.58 351.062 Q1054.5 353.832 1054.53 359.565 Q1054.53 362.463 1053.79 364.46 Q1053.05 366.425 1052.15 367.423 Q1051.22 368.421 1049.44 368.969 Q1047.67 369.484 1046.58 369.549 Q1045.48 369.613 1043.36 369.613 L1033.47 369.613 Q1028.99 369.613 1028.22 370.257 Q1027.42 370.901 1027.42 374.734 Z" fill="#000000" fill-rule="nonzero" fill-opacity="1" /><path clip-path="url(#clip620)" d="M1052.73 337.5 Q1051.67 338.498 1050.28 338.498 Q1048.9 338.498 1047.9 337.5 Q1046.87 336.502 1046.87 334.988 Q1046.87 333.539 1047.83 332.573 Q1048.77 331.574 1050.31 331.574 Q1051.83 331.574 1052.83 332.637 Q1053.79 333.668 1053.79 334.988 Q1053.79 336.502 1052.73 337.5 Z" fill="#000000" fill-rule="nonzero" fill-opacity="1" /><polyline clip-path="url(#clip623)" style="stroke:#ffa500; stroke-linecap:round; stroke-linejoin:round; stroke-width:2; stroke-opacity:1; fill:none" stroke-dasharray="8, 5" points="1235.67,576.871 1265.94,545.695 1296.21,629.596 1326.48,583.019 1356.75,672.537 1387.01,819.164 1417.28,629.472 1447.55,628.106 1477.82,530.739 1508.09,598.534 1538.36,581.531 1568.63,580.897 1598.9,486.383 1629.17,615.841 1659.44,496.556 1689.71,538.028 1719.98,573.942 1750.25,602.839 1780.52,581.815 1810.79,546.699 1841.06,382.037 1871.33,523.384 1901.6,473.446 1931.87,590.814 "/>
<polyline clip-path="url(#clip623)" style="stroke:#ffa500; stroke-linecap:round; stroke-linejoin:round; stroke-width:2; stroke-opacity:1; fill:none" stroke-dasharray="8, 5" points="1235.67,603.073 1265.94,556.757 1296.21,575.229 1326.48,582.083 1356.75,682.869 1387.01,742.595 1417.28,660.449 1447.55,608.787 1477.82,447.056 1508.09,613.892 1538.36,644.812 1568.63,554.449 1598.9,522.603 1629.17,662.991 1659.44,599.255 1689.71,528.827 1719.98,570.275 1750.25,669.817 1780.52,644.698 1810.79,575.721 1841.06,469.814 1871.33,496.093 1901.6,457.954 1931.87,618.917 "/>
<polyline clip-path="url(#clip623)" style="stroke:#ffa500; stroke-linecap:round; stroke-linejoin:round; stroke-width:2; stroke-opacity:1; fill:none" stroke-dasharray="8, 5" points="1235.67,562.897 1265.94,546.815 1296.21,526.304 1326.48,589.814 1356.75,641.598 1387.01,721.967 1417.28,626.356 1447.55,579.559 1477.82,552.319 1508.09,564.186 1538.36,581.621 1568.63,591.636 1598.9,462.148 1629.17,590.414 1659.44,523.182 1689.71,537.985 1719.98,613.419 1750.25,587.693 1780.52,603.048 1810.79,622.603 1841.06,424.842 1871.33,644.839 1901.6,579.149 1931.87,609.787 "/>
<polyline clip-path="url(#clip623)" style="stroke:#ffa500; stroke-linecap:round; stroke-linejoin:round; stroke-width:2; stroke-opacity:1; fill:none" stroke-dasharray="8, 5" points="1235.67,632.112 1265.94,654.479 1296.21,583.397 1326.48,621.37 1356.75,655.004 1387.01,737.197 1417.28,611.215 1447.55,631.742 1477.82,546.091 1508.09,562.26 1538.36,520.619 1568.63,520.844 1598.9,480.242 1629.17,658.777 1659.44,402.741 1689.71,555.096 1719.98,597.957 1750.25,573.725 1780.52,628.109 1810.79,618.8 1841.06,388.967 1871.33,588.854 1901.6,422.094 1931.87,606.821 "/>
<polyline clip-path="url(#clip623)" style="stroke:#ffa500; stroke-linecap:round; stroke-linejoin:round; stroke-width:2; stroke-opacity:1; fill:none" stroke-dasharray="8, 5" points="1235.67,565.106 1265.94,550.058 1296.21,619.714 1326.48,638.028 1356.75,667.865 1387.01,806.662 1417.28,588.957 1447.55,636.795 1477.82,496.092 1508.09,491.993 1538.36,707.26 1568.63,564.816 1598.9,522.079 1629.17,489.838 1659.44,455.818 1689.71,526.071 1719.98,624.351 1750.25,655.779 1780.52,607.743 1810.79,603.502 1841.06,457.91 1871.33,623.647 1901.6,655.376 1931.87,705.449 "/>
<polyline clip-path="url(#clip623)" style="stroke:#ffa500; stroke-linecap:round; stroke-linejoin:round; stroke-width:2; stroke-opacity:1; fill:none" stroke-dasharray="8, 5" points="1235.67,601.888 1265.94,489.42 1296.21,586.724 1326.48,600.291 1356.75,589.972 1387.01,851.488 1417.28,680.122 1447.55,483.729 1477.82,546.549 1508.09,501.07 1538.36,564.509 1568.63,626.952 1598.9,511.18 1629.17,550.446 1659.44,488.944 1689.71,427.92 1719.98,571.195 1750.25,673.666 1780.52,610.425 1810.79,595.097 1841.06,410.557 1871.33,672.097 1901.6,450.887 1931.87,526.77 "/>
<polyline clip-path="url(#clip623)" style="stroke:#ffa500; stroke-linecap:round; stroke-linejoin:round; stroke-width:2; stroke-opacity:1; fill:none" stroke-dasharray="8, 5" points="1235.67,610.007 1265.94,606.354 1296.21,551.053 1326.48,689.624 1356.75,677.139 1387.01,741.068 1417.28,659.221 1447.55,602.243 1477.82,531.325 1508.09,537.963 1538.36,566.916 1568.63,612.936 1598.9,543.88 1629.17,530.946 1659.44,682.03 1689.71,554.531 1719.98,596.275 1750.25,696.615 1780.52,621.624 1810.79,634.956 1841.06,445.747 1871.33,530.914 1901.6,547.265 1931.87,590.414 "/>
<polyline clip-path="url(#clip623)" style="stroke:#ffa500; stroke-linecap:round; stroke-linejoin:round; stroke-width:2; stroke-opacity:1; fill:none" stroke-dasharray="8, 5" points="1235.67,509.981 1265.94,550.864 1296.21,604.406 1326.48,524.881 1356.75,612.066 1387.01,833.419 1417.28,634.763 1447.55,672.872 1477.82,550.647 1508.09,538.328 1538.36,650.715 1568.63,588.656 1598.9,561.93 1629.17,582.413 1659.44,481.447 1689.71,505.645 1719.98,556.564 1750.25,587.255 1780.52,650.402 1810.79,560.335 1841.06,434.129 1871.33,511.694 1901.6,557.64 1931.87,610.091 "/>
<polyline clip-path="url(#clip623)" style="stroke:#ffa500; stroke-linecap:round; stroke-linejoin:round; stroke-width:2; stroke-opacity:1; fill:none" stroke-dasharray="8, 5" points="1235.67,549.259 1265.94,569.773 1296.21,607.141 1326.48,585.961 1356.75,510.847 1387.01,795.348 1417.28,623.245 1447.55,589.82 1477.82,548.531 1508.09,553.822 1538.36,585.99 1568.63,557.125 1598.9,578.055 1629.17,609.154 1659.44,514.256 1689.71,514.05 1719.98,520.927 1750.25,645.309 1780.52,568.728 1810.79,648.965 1841.06,445.354 1871.33,562.083 1901.6,563.442 1931.87,621.724 "/>
<polyline clip-path="url(#clip623)" style="stroke:#ffa500; stroke-linecap:round; stroke-linejoin:round; stroke-width:2; stroke-opacity:1; fill:none" stroke-dasharray="8, 5" points="1235.67,493.61 1265.94,612.223 1296.21,546.49 1326.48,600.968 1356.75,635.974 1387.01,787.846 1417.28,569.098 1447.55,570.175 1477.82,543.814 1508.09,533.998 1538.36,568.094 1568.63,596.249 1598.9,539.507 1629.17,553.704 1659.44,632.492 1689.71,498.866 1719.98,538.663 1750.25,573.58 1780.52,581.923 1810.79,599.68 1841.06,476.439 1871.33,580.545 1901.6,511.505 1931.87,619.627 "/>
<polyline clip-path="url(#clip623)" style="stroke:#ffa500; stroke-linecap:round; stroke-linejoin:round; stroke-width:2; stroke-opacity:1; fill:none" stroke-dasharray="8, 5" points="1235.67,587.165 1265.94,484.233 1296.21,600.447 1326.48,533.038 1356.75,614.254 1387.01,795.548 1417.28,657.723 1447.55,620.926 1477.82,534.386 1508.09,524.513 1538.36,596.827 1568.63,605.417 1598.9,540.458 1629.17,489.14 1659.44,503.069 1689.71,514.32 1719.98,562.952 1750.25,560.879 1780.52,614.455 1810.79,621.943 1841.06,410.262 1871.33,597.554 1901.6,498.674 1931.87,609.84 "/>
<polyline clip-path="url(#clip623)" style="stroke:#ffa500; stroke-linecap:round; stroke-linejoin:round; stroke-width:2; stroke-opacity:1; fill:none" stroke-dasharray="8, 5" points="1235.67,614.994 1265.94,633.484 1296.21,612.179 1326.48,611.112 1356.75,652.327 1387.01,807.952 1417.28,640.492 1447.55,692.845 1477.82,536.08 1508.09,537.938 1538.36,572.002 1568.63,586.555 1598.9,547.152 1629.17,556.971 1659.44,429.803 1689.71,492.947 1719.98,595.422 1750.25,530.115 1780.52,538.871 1810.79,664.742 1841.06,409.458 1871.33,599.661 1901.6,579.887 1931.87,504.15 "/>
<polyline clip-path="url(#clip623)" style="stroke:#ffa500; stroke-linecap:round; stroke-linejoin:round; stroke-width:2; stroke-opacity:1; fill:none" stroke-dasharray="8, 5" points="1235.67,598.814 1265.94,604.167 1296.21,486.117 1326.48,613.9 1356.75,633.455 1387.01,756.728 1417.28,598.169 1447.55,542.615 1477.82,475.524 1508.09,642.427 1538.36,561.445 1568.63,515.251 1598.9,481.335 1629.17,603.172 1659.44,486.752 1689.71,454.931 1719.98,713.636 1750.25,669.509 1780.52,639.096 1810.79,602.537 1841.06,440.951 1871.33,516.687 1901.6,551.967 1931.87,605.471 "/>
<polyline clip-path="url(#clip623)" style="stroke:#ffa500; stroke-linecap:round; stroke-linejoin:round; stroke-width:2; stroke-opacity:1; fill:none" stroke-dasharray="8, 5" points="1235.67,653.683 1265.94,555.116 1296.21,615.881 1326.48,628.583 1356.75,708.721 1387.01,779.315 1417.28,590.001 1447.55,600.55 1477.82,466.829 1508.09,516.114 1538.36,590.234 1568.63,591.715 1598.9,503.864 1629.17,574.774 1659.44,507.095 1689.71,498.938 1719.98,608.107 1750.25,537.097 1780.52,560.617 1810.79,706.083 1841.06,525.01 1871.33,613.144 1901.6,506.937 1931.87,626.384 "/>
<polyline clip-path="url(#clip623)" style="stroke:#ffa500; stroke-linecap:round; stroke-linejoin:round; stroke-width:2; stroke-opacity:1; fill:none" stroke-dasharray="8, 5" points="1235.67,638.642 1265.94,537.74 1296.21,590.721 1326.48,572.21 1356.75,633.082 1387.01,760.1 1417.28,515.885 1447.55,581.73 1477.82,575.821 1508.09,500.366 1538.36,663.91 1568.63,571.715 1598.9,521.108 1629.17,595.801 1659.44,493.424 1689.71,502.845 1719.98,558.783 1750.25,597.204 1780.52,557.355 1810.79,628.057 1841.06,453.242 1871.33,538.946 1901.6,626.017 1931.87,585.367 "/>
<polyline clip-path="url(#clip623)" style="stroke:#ffa500; stroke-linecap:round; stroke-linejoin:round; stroke-width:2; stroke-opacity:1; fill:none" stroke-dasharray="8, 5" points="1235.67,555.598 1265.94,593.525 1296.21,561.496 1326.48,542.395 1356.75,632.838 1387.01,771.514 1417.28,600.833 1447.55,580.278 1477.82,408.719 1508.09,484.469 1538.36,595.459 1568.63,546.537 1598.9,579.455 1629.17,545.502 1659.44,480.909 1689.71,569.566 1719.98,695.166 1750.25,545.298 1780.52,643.52 1810.79,615.151 1841.06,461.89 1871.33,517.411 1901.6,546.947 1931.87,605.722 "/>
<polyline clip-path="url(#clip623)" style="stroke:#ffa500; stroke-linecap:round; stroke-linejoin:round; stroke-width:2; stroke-opacity:1; fill:none" stroke-dasharray="8, 5" points="1235.67,666.154 1265.94,635.789 1296.21,602.762 1326.48,647.684 1356.75,654.005 1387.01,786.848 1417.28,640.3 1447.55,605.942 1477.82,554.168 1508.09,550.843 1538.36,639.273 1568.63,554.949 1598.9,579.431 1629.17,589.147 1659.44,479.343 1689.71,530.806 1719.98,652.456 1750.25,587.182 1780.52,621.402 1810.79,561.359 1841.06,394.867 1871.33,601.3 1901.6,580.886 1931.87,615.525 "/>
<polyline clip-path="url(#clip623)" style="stroke:#ffa500; stroke-linecap:round; stroke-linejoin:round; stroke-width:2; stroke-opacity:1; fill:none" stroke-dasharray="8, 5" points="1235.67,595.481 1265.94,531.028 1296.21,583.508 1326.48,594.719 1356.75,600.151 1387.01,809.824 1417.28,642.363 1447.55,611.57 1477.82,512.044 1508.09,557.49 1538.36,557.603 1568.63,545.623 1598.9,508.354 1629.17,609.61 1659.44,495.007 1689.71,398.499 1719.98,434.995 1750.25,552.148 1780.52,594.564 1810.79,590.247 1841.06,460.966 1871.33,570.097 1901.6,522.963 1931.87,733.379 "/>
<polyline clip-path="url(#clip623)" style="stroke:#ffa500; stroke-linecap:round; stroke-linejoin:round; stroke-width:2; stroke-opacity:1; fill:none" stroke-dasharray="8, 5" points="1235.67,514.424 1265.94,572.795 1296.21,705.903 1326.48,592.622 1356.75,673.538 1387.01,781.9 1417.28,611.459 1447.55,584.198 1477.82,612.575 1508.09,544.007 1538.36,602.677 1568.63,579.718 1598.9,588.51 1629.17,604.778 1659.44,447.203 1689.71,489.549 1719.98,584.435 1750.25,583.911 1780.52,689.14 1810.79,505.651 1841.06,497.482 1871.33,534.142 1901.6,536.364 1931.87,566.486 "/>
<polyline clip-path="url(#clip623)" style="stroke:#ffa500; stroke-linecap:round; stroke-linejoin:round; stroke-width:2; stroke-opacity:1; fill:none" stroke-dasharray="8, 5" points="1235.67,578.557 1265.94,548.732 1296.21,576.385 1326.48,617.184 1356.75,644.951 1387.01,841.901 1417.28,667.816 1447.55,532.615 1477.82,541.247 1508.09,546.335 1538.36,619.828 1568.63,578.401 1598.9,531.646 1629.17,550.959 1659.44,502.823 1689.71,502.583 1719.98,565.719 1750.25,615.836 1780.52,590.689 1810.79,621.252 1841.06,399.399 1871.33,486.468 1901.6,598.559 1931.87,567.146 "/>
<polyline clip-path="url(#clip623)" style="stroke:#ffa500; stroke-linecap:round; stroke-linejoin:round; stroke-width:2; stroke-opacity:1; fill:none" stroke-dasharray="8, 5" points="1235.67,586.791 1265.94,539.059 1296.21,582.168 1326.48,610.897 1356.75,626.286 1387.01,832.314 1417.28,619.272 1447.55,604.744 1477.82,532.988 1508.09,588.802 1538.36,606.984 1568.63,598.241 1598.9,512.452 1629.17,562.319 1659.44,518.935 1689.71,617.573 1719.98,627.951 1750.25,554.806 1780.52,624.968 1810.79,645.503 1841.06,480.58 1871.33,535.161 1901.6,543.922 1931.87,644.396 "/>
<polyline clip-path="url(#clip623)" style="stroke:#ffa500; stroke-linecap:round; stroke-linejoin:round; stroke-width:2; stroke-opacity:1; fill:none" stroke-dasharray="8, 5" points="1235.67,386.003 1265.94,514.603 1296.21,614.886 1326.48,588.561 1356.75,628.024 1387.01,851.432 1417.28,613.473 1447.55,584.743 1477.82,539.667 1508.09,511.392 1538.36,660.339 1568.63,623.655 1598.9,468.745 1629.17,573.775 1659.44,463.856 1689.71,513.131 1719.98,649.123 1750.25,521.811 1780.52,625.848 1810.79,529.419 1841.06,350.263 1871.33,560.827 1901.6,545.804 1931.87,609.503 "/>
<polyline clip-path="url(#clip623)" style="stroke:#ffa500; stroke-linecap:round; stroke-linejoin:round; stroke-width:2; stroke-opacity:1; fill:none" stroke-dasharray="8, 5" points="1235.67,503.731 1265.94,721.019 1296.21,571.942 1326.48,599.046 1356.75,742.313 1387.01,762.138 1417.28,602.637 1447.55,569.25 1477.82,526.23 1508.09,554.009 1538.36,596.139 1568.63,583.759 1598.9,469.266 1629.17,583.752 1659.44,468.292 1689.71,540.895 1719.98,583.486 1750.25,608.15 1780.52,601.094 1810.79,577.435 1841.06,464.448 1871.33,571.203 1901.6,557.294 1931.87,635.116 "/>
<polyline clip-path="url(#clip623)" style="stroke:#ffa500; stroke-linecap:round; stroke-linejoin:round; stroke-width:2; stroke-opacity:1; fill:none" stroke-dasharray="8, 5" points="1235.67,593.309 1265.94,527.083 1296.21,580.612 1326.48,597.144 1356.75,644.494 1387.01,825.471 1417.28,626.204 1447.55,563.262 1477.82,452.854 1508.09,664.007 1538.36,576.976 1568.63,624.812 1598.9,513.06 1629.17,627.89 1659.44,499.639 1689.71,522.02 1719.98,556.023 1750.25,611.469 1780.52,579.371 1810.79,629.147 1841.06,451.241 1871.33,521.933 1901.6,602.725 1931.87,565.839 "/>
<polyline clip-path="url(#clip623)" style="stroke:#ffa500; stroke-linecap:round; stroke-linejoin:round; stroke-width:2; stroke-opacity:1; fill:none" stroke-dasharray="8, 5" points="1235.67,581.84 1265.94,581.591 1296.21,605.877 1326.48,593.834 1356.75,676.795 1387.01,755.267 1417.28,596.952 1447.55,556.362 1477.82,518.833 1508.09,399.577 1538.36,576.748 1568.63,585.414 1598.9,496.213 1629.17,592.915 1659.44,481.748 1689.71,568.201 1719.98,611.792 1750.25,643.653 1780.52,667.459 1810.79,608.181 1841.06,444.19 1871.33,559.886 1901.6,562.64 1931.87,593.239 "/>
<polyline clip-path="url(#clip623)" style="stroke:#ffa500; stroke-linecap:round; stroke-linejoin:round; stroke-width:2; stroke-opacity:1; fill:none" stroke-dasharray="8, 5" points="1235.67,497.591 1265.94,578.884 1296.21,565.76 1326.48,614.821 1356.75,679.095 1387.01,761.641 1417.28,621.683 1447.55,572.829 1477.82,560.278 1508.09,567.788 1538.36,609.916 1568.63,576.119 1598.9,545.167 1629.17,454.618 1659.44,522.616 1689.71,516.988 1719.98,629.799 1750.25,654.266 1780.52,599.985 1810.79,621.638 1841.06,330.528 1871.33,583.75 1901.6,553.24 1931.87,558.663 "/>
<polyline clip-path="url(#clip623)" style="stroke:#ffa500; stroke-linecap:round; stroke-linejoin:round; stroke-width:2; stroke-opacity:1; fill:none" stroke-dasharray="8, 5" points="1235.67,571.696 1265.94,485.055 1296.21,552.942 1326.48,615.992 1356.75,732.915 1387.01,840.642 1417.28,622.867 1447.55,518.206 1477.82,543.098 1508.09,548.759 1538.36,675.445 1568.63,555.995 1598.9,523.499 1629.17,551.072 1659.44,397.229 1689.71,505.413 1719.98,649.886 1750.25,609.073 1780.52,538.783 1810.79,519.566 1841.06,434.227 1871.33,539.556 1901.6,365.921 1931.87,634.549 "/>
<polyline clip-path="url(#clip623)" style="stroke:#ffa500; stroke-linecap:round; stroke-linejoin:round; stroke-width:2; stroke-opacity:1; fill:none" stroke-dasharray="8, 5" points="1235.67,596.123 1265.94,569.583 1296.21,603.101 1326.48,687.259 1356.75,639.408 1387.01,822.151 1417.28,663.726 1447.55,571.244 1477.82,575.57 1508.09,546.708 1538.36,634.216 1568.63,590.215 1598.9,580.16 1629.17,612.728 1659.44,527.7 1689.71,502.476 1719.98,589.617 1750.25,631.3 1780.52,623.095 1810.79,606.446 1841.06,379.583 1871.33,546.537 1901.6,548.149 1931.87,607.277 "/>
<polyline clip-path="url(#clip623)" style="stroke:#ffa500; stroke-linecap:round; stroke-linejoin:round; stroke-width:2; stroke-opacity:1; fill:none" stroke-dasharray="8, 5" points="1235.67,627.712 1265.94,552.325 1296.21,583.924 1326.48,612.055 1356.75,606.083 1387.01,791.743 1417.28,652.155 1447.55,644.491 1477.82,544.602 1508.09,555.785 1538.36,650.549 1568.63,550.312 1598.9,530.739 1629.17,601.334 1659.44,529.668 1689.71,500.131 1719.98,560.034 1750.25,468.403 1780.52,596.083 1810.79,683.537 1841.06,432.907 1871.33,433.639 1901.6,529.816 1931.87,515.204 "/>
<polyline clip-path="url(#clip623)" style="stroke:#ffa500; stroke-linecap:round; stroke-linejoin:round; stroke-width:2; stroke-opacity:1; fill:none" stroke-dasharray="8, 5" points="1235.67,578.981 1265.94,525.029 1296.21,572.044 1326.48,684.499 1356.75,659.511 1387.01,822.801 1417.28,743.789 1447.55,564.598 1477.82,627.885 1508.09,533.112 1538.36,661.551 1568.63,558.178 1598.9,570.159 1629.17,687.408 1659.44,575.457 1689.71,516.439 1719.98,546.247 1750.25,624.008 1780.52,566.923 1810.79,566.711 1841.06,393.79 1871.33,568.526 1901.6,539.35 1931.87,610.563 "/>
<polyline clip-path="url(#clip623)" style="stroke:#ffa500; stroke-linecap:round; stroke-linejoin:round; stroke-width:4; stroke-opacity:1; fill:none" stroke-dasharray="16, 10" points="1235.67,386.003 1265.94,484.233 1296.21,486.117 1326.48,524.881 1356.75,510.847 1387.01,721.967 1417.28,515.885 1447.55,483.729 1477.82,408.719 1508.09,399.577 1538.36,520.619 1568.63,515.251 1598.9,462.148 1629.17,454.618 1659.44,397.229 1689.71,398.499 1719.98,434.995 1750.25,468.403 1780.52,538.783 1810.79,505.651 1841.06,330.528 1871.33,433.639 1901.6,365.921 1931.87,504.15 "/>
<circle clip-path="url(#clip623)" cx="1235.67" cy="386.003" r="10.8" fill="#dd64b5" fill-rule="evenodd" fill-opacity="0.95" stroke="#000000" stroke-opacity="0.95" stroke-width="2.24"/>
<circle clip-path="url(#clip623)" cx="1265.94" cy="484.233" r="10.8" fill="#dd64b5" fill-rule="evenodd" fill-opacity="0.95" stroke="#000000" stroke-opacity="0.95" stroke-width="2.24"/>
<circle clip-path="url(#clip623)" cx="1296.21" cy="486.117" r="10.8" fill="#dd64b5" fill-rule="evenodd" fill-opacity="0.95" stroke="#000000" stroke-opacity="0.95" stroke-width="2.24"/>
<circle clip-path="url(#clip623)" cx="1326.48" cy="524.881" r="10.8" fill="#dd64b5" fill-rule="evenodd" fill-opacity="0.95" stroke="#000000" stroke-opacity="0.95" stroke-width="2.24"/>
<circle clip-path="url(#clip623)" cx="1356.75" cy="510.847" r="10.8" fill="#dd64b5" fill-rule="evenodd" fill-opacity="0.95" stroke="#000000" stroke-opacity="0.95" stroke-width="2.24"/>
<circle clip-path="url(#clip623)" cx="1387.01" cy="721.967" r="10.8" fill="#dd64b5" fill-rule="evenodd" fill-opacity="0.95" stroke="#000000" stroke-opacity="0.95" stroke-width="2.24"/>
<circle clip-path="url(#clip623)" cx="1417.28" cy="515.885" r="10.8" fill="#dd64b5" fill-rule="evenodd" fill-opacity="0.95" stroke="#000000" stroke-opacity="0.95" stroke-width="2.24"/>
<circle clip-path="url(#clip623)" cx="1447.55" cy="483.729" r="10.8" fill="#dd64b5" fill-rule="evenodd" fill-opacity="0.95" stroke="#000000" stroke-opacity="0.95" stroke-width="2.24"/>
<circle clip-path="url(#clip623)" cx="1477.82" cy="408.719" r="10.8" fill="#dd64b5" fill-rule="evenodd" fill-opacity="0.95" stroke="#000000" stroke-opacity="0.95" stroke-width="2.24"/>
<circle clip-path="url(#clip623)" cx="1508.09" cy="399.577" r="10.8" fill="#dd64b5" fill-rule="evenodd" fill-opacity="0.95" stroke="#000000" stroke-opacity="0.95" stroke-width="2.24"/>
<circle clip-path="url(#clip623)" cx="1538.36" cy="520.619" r="10.8" fill="#dd64b5" fill-rule="evenodd" fill-opacity="0.95" stroke="#000000" stroke-opacity="0.95" stroke-width="2.24"/>
<circle clip-path="url(#clip623)" cx="1568.63" cy="515.251" r="10.8" fill="#dd64b5" fill-rule="evenodd" fill-opacity="0.95" stroke="#000000" stroke-opacity="0.95" stroke-width="2.24"/>
<circle clip-path="url(#clip623)" cx="1598.9" cy="462.148" r="10.8" fill="#dd64b5" fill-rule="evenodd" fill-opacity="0.95" stroke="#000000" stroke-opacity="0.95" stroke-width="2.24"/>
<circle clip-path="url(#clip623)" cx="1629.17" cy="454.618" r="10.8" fill="#dd64b5" fill-rule="evenodd" fill-opacity="0.95" stroke="#000000" stroke-opacity="0.95" stroke-width="2.24"/>
<circle clip-path="url(#clip623)" cx="1659.44" cy="397.229" r="10.8" fill="#dd64b5" fill-rule="evenodd" fill-opacity="0.95" stroke="#000000" stroke-opacity="0.95" stroke-width="2.24"/>
<circle clip-path="url(#clip623)" cx="1689.71" cy="398.499" r="10.8" fill="#dd64b5" fill-rule="evenodd" fill-opacity="0.95" stroke="#000000" stroke-opacity="0.95" stroke-width="2.24"/>
<circle clip-path="url(#clip623)" cx="1719.98" cy="434.995" r="10.8" fill="#dd64b5" fill-rule="evenodd" fill-opacity="0.95" stroke="#000000" stroke-opacity="0.95" stroke-width="2.24"/>
<circle clip-path="url(#clip623)" cx="1750.25" cy="468.403" r="10.8" fill="#dd64b5" fill-rule="evenodd" fill-opacity="0.95" stroke="#000000" stroke-opacity="0.95" stroke-width="2.24"/>
<circle clip-path="url(#clip623)" cx="1780.52" cy="538.783" r="10.8" fill="#dd64b5" fill-rule="evenodd" fill-opacity="0.95" stroke="#000000" stroke-opacity="0.95" stroke-width="2.24"/>
<circle clip-path="url(#clip623)" cx="1810.79" cy="505.651" r="10.8" fill="#dd64b5" fill-rule="evenodd" fill-opacity="0.95" stroke="#000000" stroke-opacity="0.95" stroke-width="2.24"/>
<circle clip-path="url(#clip623)" cx="1841.06" cy="330.528" r="10.8" fill="#dd64b5" fill-rule="evenodd" fill-opacity="0.95" stroke="#000000" stroke-opacity="0.95" stroke-width="2.24"/>
<circle clip-path="url(#clip623)" cx="1871.33" cy="433.639" r="10.8" fill="#dd64b5" fill-rule="evenodd" fill-opacity="0.95" stroke="#000000" stroke-opacity="0.95" stroke-width="2.24"/>
<circle clip-path="url(#clip623)" cx="1901.6" cy="365.921" r="10.8" fill="#dd64b5" fill-rule="evenodd" fill-opacity="0.95" stroke="#000000" stroke-opacity="0.95" stroke-width="2.24"/>
<circle clip-path="url(#clip623)" cx="1931.87" cy="504.15" r="10.8" fill="#dd64b5" fill-rule="evenodd" fill-opacity="0.95" stroke="#000000" stroke-opacity="0.95" stroke-width="2.24"/>
<polyline clip-path="url(#clip623)" style="stroke:#ffa500; stroke-linecap:round; stroke-linejoin:round; stroke-width:8; stroke-opacity:1; fill:none" stroke-dasharray="32, 20" points="1235.67,666.154 1265.94,721.019 1296.21,705.903 1326.48,689.624 1356.75,742.313 1387.01,851.488 1417.28,743.789 1447.55,692.845 1477.82,627.885 1508.09,664.007 1538.36,707.26 1568.63,626.952 1598.9,588.51 1629.17,687.408 1659.44,682.03 1689.71,617.573 1719.98,713.636 1750.25,696.615 1780.52,689.14 1810.79,706.083 1841.06,525.01 1871.33,672.097 1901.6,655.376 1931.87,733.379 "/>
<circle clip-path="url(#clip623)" cx="1235.67" cy="666.154" r="10.8" fill="#6b9e32" fill-rule="evenodd" fill-opacity="0.95" stroke="#000000" stroke-opacity="0.95" stroke-width="2.24"/>
<circle clip-path="url(#clip623)" cx="1265.94" cy="721.019" r="10.8" fill="#6b9e32" fill-rule="evenodd" fill-opacity="0.95" stroke="#000000" stroke-opacity="0.95" stroke-width="2.24"/>
<circle clip-path="url(#clip623)" cx="1296.21" cy="705.903" r="10.8" fill="#6b9e32" fill-rule="evenodd" fill-opacity="0.95" stroke="#000000" stroke-opacity="0.95" stroke-width="2.24"/>
<circle clip-path="url(#clip623)" cx="1326.48" cy="689.624" r="10.8" fill="#6b9e32" fill-rule="evenodd" fill-opacity="0.95" stroke="#000000" stroke-opacity="0.95" stroke-width="2.24"/>
<circle clip-path="url(#clip623)" cx="1356.75" cy="742.313" r="10.8" fill="#6b9e32" fill-rule="evenodd" fill-opacity="0.95" stroke="#000000" stroke-opacity="0.95" stroke-width="2.24"/>
<circle clip-path="url(#clip623)" cx="1387.01" cy="851.488" r="10.8" fill="#6b9e32" fill-rule="evenodd" fill-opacity="0.95" stroke="#000000" stroke-opacity="0.95" stroke-width="2.24"/>
<circle clip-path="url(#clip623)" cx="1417.28" cy="743.789" r="10.8" fill="#6b9e32" fill-rule="evenodd" fill-opacity="0.95" stroke="#000000" stroke-opacity="0.95" stroke-width="2.24"/>
<circle clip-path="url(#clip623)" cx="1447.55" cy="692.845" r="10.8" fill="#6b9e32" fill-rule="evenodd" fill-opacity="0.95" stroke="#000000" stroke-opacity="0.95" stroke-width="2.24"/>
<circle clip-path="url(#clip623)" cx="1477.82" cy="627.885" r="10.8" fill="#6b9e32" fill-rule="evenodd" fill-opacity="0.95" stroke="#000000" stroke-opacity="0.95" stroke-width="2.24"/>
<circle clip-path="url(#clip623)" cx="1508.09" cy="664.007" r="10.8" fill="#6b9e32" fill-rule="evenodd" fill-opacity="0.95" stroke="#000000" stroke-opacity="0.95" stroke-width="2.24"/>
<circle clip-path="url(#clip623)" cx="1538.36" cy="707.26" r="10.8" fill="#6b9e32" fill-rule="evenodd" fill-opacity="0.95" stroke="#000000" stroke-opacity="0.95" stroke-width="2.24"/>
<circle clip-path="url(#clip623)" cx="1568.63" cy="626.952" r="10.8" fill="#6b9e32" fill-rule="evenodd" fill-opacity="0.95" stroke="#000000" stroke-opacity="0.95" stroke-width="2.24"/>
<circle clip-path="url(#clip623)" cx="1598.9" cy="588.51" r="10.8" fill="#6b9e32" fill-rule="evenodd" fill-opacity="0.95" stroke="#000000" stroke-opacity="0.95" stroke-width="2.24"/>
<circle clip-path="url(#clip623)" cx="1629.17" cy="687.408" r="10.8" fill="#6b9e32" fill-rule="evenodd" fill-opacity="0.95" stroke="#000000" stroke-opacity="0.95" stroke-width="2.24"/>
<circle clip-path="url(#clip623)" cx="1659.44" cy="682.03" r="10.8" fill="#6b9e32" fill-rule="evenodd" fill-opacity="0.95" stroke="#000000" stroke-opacity="0.95" stroke-width="2.24"/>
<circle clip-path="url(#clip623)" cx="1689.71" cy="617.573" r="10.8" fill="#6b9e32" fill-rule="evenodd" fill-opacity="0.95" stroke="#000000" stroke-opacity="0.95" stroke-width="2.24"/>
<circle clip-path="url(#clip623)" cx="1719.98" cy="713.636" r="10.8" fill="#6b9e32" fill-rule="evenodd" fill-opacity="0.95" stroke="#000000" stroke-opacity="0.95" stroke-width="2.24"/>
<circle clip-path="url(#clip623)" cx="1750.25" cy="696.615" r="10.8" fill="#6b9e32" fill-rule="evenodd" fill-opacity="0.95" stroke="#000000" stroke-opacity="0.95" stroke-width="2.24"/>
<circle clip-path="url(#clip623)" cx="1780.52" cy="689.14" r="10.8" fill="#6b9e32" fill-rule="evenodd" fill-opacity="0.95" stroke="#000000" stroke-opacity="0.95" stroke-width="2.24"/>
<circle clip-path="url(#clip623)" cx="1810.79" cy="706.083" r="10.8" fill="#6b9e32" fill-rule="evenodd" fill-opacity="0.95" stroke="#000000" stroke-opacity="0.95" stroke-width="2.24"/>
<circle clip-path="url(#clip623)" cx="1841.06" cy="525.01" r="10.8" fill="#6b9e32" fill-rule="evenodd" fill-opacity="0.95" stroke="#000000" stroke-opacity="0.95" stroke-width="2.24"/>
<circle clip-path="url(#clip623)" cx="1871.33" cy="672.097" r="10.8" fill="#6b9e32" fill-rule="evenodd" fill-opacity="0.95" stroke="#000000" stroke-opacity="0.95" stroke-width="2.24"/>
<circle clip-path="url(#clip623)" cx="1901.6" cy="655.376" r="10.8" fill="#6b9e32" fill-rule="evenodd" fill-opacity="0.95" stroke="#000000" stroke-opacity="0.95" stroke-width="2.24"/>
<circle clip-path="url(#clip623)" cx="1931.87" cy="733.379" r="10.8" fill="#6b9e32" fill-rule="evenodd" fill-opacity="0.95" stroke="#000000" stroke-opacity="0.95" stroke-width="2.24"/>
<path clip-path="url(#clip623)" d="M1235.67 386.003 L1265.94 484.233 L1296.21 486.117 L1326.48 524.881 L1356.75 510.847 L1387.01 721.967 L1417.28 515.885 L1447.55 483.729 L1477.82 408.719 L1508.09 399.577 L1538.36 520.619 L1568.63 515.251 L1598.9 462.148 L1629.17 454.618 L1659.44 397.229 L1689.71 398.499 L1719.98 434.995 L1750.25 468.403 L1780.52 538.783 L1810.79 505.651 L1841.06 330.528 L1871.33 433.639 L1901.6 365.921 L1931.87 504.15 L1931.87 733.379 L1901.6 655.376 L1871.33 672.097 L1841.06 525.01 L1810.79 706.083 L1780.52 689.14 L1750.25 696.615 L1719.98 713.636 L1689.71 617.573 L1659.44 682.03 L1629.17 687.408 L1598.9 588.51 L1568.63 626.952 L1538.36 707.26 L1508.09 664.007 L1477.82 627.885 L1447.55 692.845 L1417.28 743.789 L1387.01 851.488 L1356.75 742.313 L1326.48 689.624 L1296.21 705.903 L1265.94 721.019 L1235.67 666.154  Z" fill="#009af9" fill-rule="evenodd" fill-opacity="0.15"/>
<polyline clip-path="url(#clip623)" style="stroke:#009af9; stroke-linecap:round; stroke-linejoin:round; stroke-width:4; stroke-opacity:1; fill:none" points="1235.67,386.003 1265.94,484.233 1296.21,486.117 1326.48,524.881 1356.75,510.847 1387.01,721.967 1417.28,515.885 1447.55,483.729 1477.82,408.719 1508.09,399.577 1538.36,520.619 1568.63,515.251 1598.9,462.148 1629.17,454.618 1659.44,397.229 1689.71,398.499 1719.98,434.995 1750.25,468.403 1780.52,538.783 1810.79,505.651 1841.06,330.528 1871.33,433.639 1901.6,365.921 1931.87,504.15 "/>
</svg>
