<?xml version="1.0" encoding="utf-8"?>
<svg xmlns="http://www.w3.org/2000/svg" xmlns:xlink="http://www.w3.org/1999/xlink" width="300" height="280" viewBox="0 0 1200 1120">
<defs>
  <clipPath id="clip540">
    <rect x="0" y="0" width="1200" height="1120"/>
  </clipPath>
</defs>
<path clip-path="url(#clip540)" d="M0 1120 L1200 1120 L1200 0 L0 0  Z" fill="#ffffff" fill-rule="evenodd" fill-opacity="1"/>
<defs>
  <clipPath id="clip541">
    <rect x="240" y="40" width="841" height="841"/>
  </clipPath>
</defs>
<defs>
  <clipPath id="clip542">
    <rect x="220" y="47" width="933" height="867"/>
  </clipPath>
</defs>
<polyline clip-path="url(#clip542)" style="stroke:#808080; stroke-linecap:round; stroke-linejoin:round; stroke-width:4; stroke-opacity:0.1; fill:none" points="220.704,913.372 220.704,47.2441 "/>
<polyline clip-path="url(#clip542)" style="stroke:#808080; stroke-linecap:round; stroke-linejoin:round; stroke-width:4; stroke-opacity:0.1; fill:none" points="407.115,913.372 407.115,47.2441 "/>
<polyline clip-path="url(#clip542)" style="stroke:#808080; stroke-linecap:round; stroke-linejoin:round; stroke-width:4; stroke-opacity:0.1; fill:none" points="593.525,913.372 593.525,47.2441 "/>
<polyline clip-path="url(#clip542)" style="stroke:#808080; stroke-linecap:round; stroke-linejoin:round; stroke-width:4; stroke-opacity:0.1; fill:none" points="779.935,913.372 779.935,47.2441 "/>
<polyline clip-path="url(#clip542)" style="stroke:#808080; stroke-linecap:round; stroke-linejoin:round; stroke-width:4; stroke-opacity:0.1; fill:none" points="966.346,913.372 966.346,47.2441 "/>
<polyline clip-path="url(#clip542)" style="stroke:#808080; stroke-linecap:round; stroke-linejoin:round; stroke-width:4; stroke-opacity:0.1; fill:none" points="1152.76,913.372 1152.76,47.2441 "/>
<polyline clip-path="url(#clip540)" style="stroke:#000000; stroke-linecap:round; stroke-linejoin:round; stroke-width:4; stroke-opacity:1; fill:none" points="220.704,913.372 1152.76,913.372 "/>
<polyline clip-path="url(#clip540)" style="stroke:#000000; stroke-linecap:round; stroke-linejoin:round; stroke-width:4; stroke-opacity:1; fill:none" points="220.704,47.2441 1152.76,47.2441 "/>
<polyline clip-path="url(#clip540)" style="stroke:#000000; stroke-linecap:round; stroke-linejoin:round; stroke-width:4; stroke-opacity:1; fill:none" points="220.704,913.372 220.704,894.474 "/>
<polyline clip-path="url(#clip540)" style="stroke:#000000; stroke-linecap:round; stroke-linejoin:round; stroke-width:4; stroke-opacity:1; fill:none" points="407.115,913.372 407.115,894.474 "/>
<polyline clip-path="url(#clip540)" style="stroke:#000000; stroke-linecap:round; stroke-linejoin:round; stroke-width:4; stroke-opacity:1; fill:none" points="593.525,913.372 593.525,894.474 "/>
<polyline clip-path="url(#clip540)" style="stroke:#000000; stroke-linecap:round; stroke-linejoin:round; stroke-width:4; stroke-opacity:1; fill:none" points="779.935,913.372 779.935,894.474 "/>
<polyline clip-path="url(#clip540)" style="stroke:#000000; stroke-linecap:round; stroke-linejoin:round; stroke-width:4; stroke-opacity:1; fill:none" points="966.346,913.372 966.346,894.474 "/>
<polyline clip-path="url(#clip540)" style="stroke:#000000; stroke-linecap:round; stroke-linejoin:round; stroke-width:4; stroke-opacity:1; fill:none" points="1152.76,913.372 1152.76,894.474 "/>
<g clip-path="url(#clip540)">
<text style="fill:#000000; fill-opacity:1; font-family:Book Antiqua,Palatino,Palatino Linotype,Palatino LT STD,Georgia,serif; font-size:51px; font-weight:bold; text-anchor:middle;" transform="rotate(0, 220.704, 967.343)" x="220.704" y="967.343">0</text>
</g>
<g clip-path="url(#clip540)">
<text style="fill:#000000; fill-opacity:1; font-family:Book Antiqua,Palatino,Palatino Linotype,Palatino LT STD,Georgia,serif; font-size:51px; font-weight:bold; text-anchor:middle;" transform="rotate(0, 407.115, 967.343)" x="407.115" y="967.343">5</text>
</g>
<g clip-path="url(#clip540)">
<text style="fill:#000000; fill-opacity:1; font-family:Book Antiqua,Palatino,Palatino Linotype,Palatino LT STD,Georgia,serif; font-size:51px; font-weight:bold; text-anchor:middle;" transform="rotate(0, 593.525, 967.343)" x="593.525" y="967.343">10</text>
</g>
<g clip-path="url(#clip540)">
<text style="fill:#000000; fill-opacity:1; font-family:Book Antiqua,Palatino,Palatino Linotype,Palatino LT STD,Georgia,serif; font-size:51px; font-weight:bold; text-anchor:middle;" transform="rotate(0, 779.935, 967.343)" x="779.935" y="967.343">15</text>
</g>
<g clip-path="url(#clip540)">
<text style="fill:#000000; fill-opacity:1; font-family:Book Antiqua,Palatino,Palatino Linotype,Palatino LT STD,Georgia,serif; font-size:51px; font-weight:bold; text-anchor:middle;" transform="rotate(0, 966.346, 967.343)" x="966.346" y="967.343">20</text>
</g>
<g clip-path="url(#clip540)">
<text style="fill:#000000; fill-opacity:1; font-family:Book Antiqua,Palatino,Palatino Linotype,Palatino LT STD,Georgia,serif; font-size:51px; font-weight:bold; text-anchor:middle;" transform="rotate(0, 1152.76, 967.343)" x="1152.76" y="967.343">25</text>
</g>
<path clip-path="url(#clip540)" d="M660.065 1002.26 Q660.065 1003.16 659.646 1003.39 Q659.228 1003.58 658.068 1003.58 L651.885 1003.58 L646.989 1023.03 Q646.603 1024.74 646.603 1026.19 Q646.603 1027.8 647.086 1028.51 Q647.601 1029.22 648.664 1029.22 Q650.757 1029.22 653.012 1027.32 Q655.298 1025.42 657.231 1020.78 Q657.488 1020.17 657.617 1020.04 Q657.778 1019.88 658.197 1019.88 Q659.002 1019.88 659.002 1020.52 Q659.002 1020.75 658.551 1021.78 Q658.133 1022.81 657.199 1024.32 Q656.297 1025.84 655.105 1027.25 Q653.946 1028.67 652.174 1029.7 Q650.403 1030.7 648.503 1030.7 Q645.83 1030.7 644.123 1028.99 Q642.448 1027.29 642.448 1024.61 Q642.448 1023.74 643.125 1020.97 Q643.801 1018.17 647.472 1003.58 L641.643 1003.58 Q640.838 1003.58 640.516 1003.55 Q640.226 1003.52 640.001 1003.36 Q639.807 1003.16 639.807 1002.78 Q639.807 1002.17 640.065 1001.91 Q640.323 1001.62 640.645 1001.59 Q640.999 1001.52 641.804 1001.52 L647.988 1001.52 L650.564 991.054 Q650.822 990.023 651.466 989.444 Q652.142 988.832 652.529 988.767 Q652.915 988.671 653.205 988.671 Q654.075 988.671 654.59 989.154 Q655.105 989.605 655.105 990.442 Q655.105 990.893 652.4 1001.52 L658.197 1001.52 Q658.938 1001.52 659.228 1001.55 Q659.55 1001.59 659.807 1001.75 Q660.065 1001.91 660.065 1002.26 Z" fill="#000000" fill-rule="nonzero" fill-opacity="1" /><path clip-path="url(#clip540)" d="M663.38 1045.51 Q663.38 1045.19 663.638 1044.48 L686.923 982.262 Q686.923 982.197 687.084 981.843 Q687.245 981.489 687.342 981.263 Q687.438 981.006 687.631 980.813 Q687.857 980.619 688.114 980.619 Q688.759 980.619 688.759 981.425 Q688.759 981.489 688.565 982.262 L665.216 1044.55 Q664.83 1045.68 664.572 1046 Q664.347 1046.32 663.96 1046.32 Q663.38 1046.32 663.38 1045.51 Z" fill="#000000" fill-rule="nonzero" fill-opacity="1" /><path clip-path="url(#clip540)" d="M728.411 1020.52 Q728.411 1020.78 728.121 1021.78 Q727.832 1022.78 727.123 1024.32 Q726.447 1025.87 725.513 1027.29 Q724.579 1028.67 723.033 1029.7 Q721.519 1030.7 719.78 1030.7 Q717.461 1030.7 715.915 1029.15 Q714.37 1027.61 714.37 1025.29 Q714.37 1024.97 714.402 1024.64 Q714.434 1024.32 714.466 1024.13 Q714.498 1023.9 714.595 1023.55 Q714.724 1023.16 714.756 1023 Q714.82 1022.84 714.982 1022.36 Q715.175 1021.84 715.239 1021.65 Q719.329 1011.21 719.329 1006.87 Q719.329 1002.26 715.754 1002.26 Q712.566 1002.26 709.41 1004.58 Q707.961 1005.74 706.576 1007.8 Q705.191 1009.86 704.933 1010.64 Q704.643 1012.31 704.225 1013.6 Q704.032 1014.5 703.098 1018.01 L701.648 1023.97 L700.392 1028.96 Q700.135 1029.67 699.426 1030.18 Q698.718 1030.7 697.945 1030.7 Q697.3 1030.7 696.656 1030.25 Q696.044 1029.83 696.044 1028.83 Q696.044 1028.32 696.302 1027.38 L705.867 989.379 L706.06 988.091 Q706.06 987.705 705.899 987.511 Q705.771 987.286 704.998 987.125 Q704.257 986.964 702.775 986.964 Q702.164 986.964 701.874 986.932 Q701.616 986.9 701.391 986.738 Q701.165 986.545 701.165 986.159 Q701.165 985.611 701.391 985.321 Q701.648 984.999 701.842 984.935 Q702.035 984.871 702.421 984.838 Q702.969 984.806 704.804 984.645 Q706.64 984.452 708.218 984.323 Q709.796 984.194 710.473 984.194 Q710.859 984.194 711.052 984.387 Q711.278 984.548 711.31 984.742 L711.342 984.903 L706.189 1005.87 Q710.279 1000.81 715.948 1000.81 Q719.619 1000.81 721.584 1002.71 Q723.548 1004.58 723.548 1007.87 Q723.548 1011.63 719.523 1022.36 Q718.331 1025.35 718.331 1027.06 Q718.331 1028.19 718.685 1028.7 Q719.072 1029.22 719.909 1029.22 Q721.197 1029.22 722.324 1028.48 Q723.484 1027.7 724.289 1026.45 Q725.094 1025.16 725.642 1023.87 Q726.221 1022.55 726.64 1021.07 Q726.898 1020.26 727.026 1020.07 Q727.188 1019.88 727.638 1019.88 Q728.411 1019.88 728.411 1020.52 Z" fill="#000000" fill-rule="nonzero" fill-opacity="1" /><polyline clip-path="url(#clip542)" style="stroke:#808080; stroke-linecap:round; stroke-linejoin:round; stroke-width:4; stroke-opacity:0.1; fill:none" points="220.704,913.372 1152.76,913.372 "/>
<polyline clip-path="url(#clip542)" style="stroke:#808080; stroke-linecap:round; stroke-linejoin:round; stroke-width:4; stroke-opacity:0.1; fill:none" points="220.704,696.84 1152.76,696.84 "/>
<polyline clip-path="url(#clip542)" style="stroke:#808080; stroke-linecap:round; stroke-linejoin:round; stroke-width:4; stroke-opacity:0.1; fill:none" points="220.704,480.308 1152.76,480.308 "/>
<polyline clip-path="url(#clip542)" style="stroke:#808080; stroke-linecap:round; stroke-linejoin:round; stroke-width:4; stroke-opacity:0.1; fill:none" points="220.704,263.776 1152.76,263.776 "/>
<polyline clip-path="url(#clip540)" style="stroke:#000000; stroke-linecap:round; stroke-linejoin:round; stroke-width:4; stroke-opacity:1; fill:none" points="220.704,913.372 220.704,47.2441 "/>
<polyline clip-path="url(#clip540)" style="stroke:#000000; stroke-linecap:round; stroke-linejoin:round; stroke-width:4; stroke-opacity:1; fill:none" points="1152.76,913.372 1152.76,47.2441 "/>
<polyline clip-path="url(#clip540)" style="stroke:#000000; stroke-linecap:round; stroke-linejoin:round; stroke-width:4; stroke-opacity:1; fill:none" points="220.704,913.372 239.602,913.372 "/>
<polyline clip-path="url(#clip540)" style="stroke:#000000; stroke-linecap:round; stroke-linejoin:round; stroke-width:4; stroke-opacity:1; fill:none" points="220.704,696.84 239.602,696.84 "/>
<polyline clip-path="url(#clip540)" style="stroke:#000000; stroke-linecap:round; stroke-linejoin:round; stroke-width:4; stroke-opacity:1; fill:none" points="220.704,480.308 239.602,480.308 "/>
<polyline clip-path="url(#clip540)" style="stroke:#000000; stroke-linecap:round; stroke-linejoin:round; stroke-width:4; stroke-opacity:1; fill:none" points="220.704,263.776 239.602,263.776 "/>
<g clip-path="url(#clip540)">
<text style="fill:#000000; fill-opacity:1; font-family:Book Antiqua,Palatino,Palatino Linotype,Palatino LT STD,Georgia,serif; font-size:51px; font-weight:bold; text-anchor:middle;" transform="rotate(0, 170.986, 930.872)" x="170.986" y="930.872">2.0</text>
</g>
<g clip-path="url(#clip540)">
<text style="fill:#000000; fill-opacity:1; font-family:Book Antiqua,Palatino,Palatino Linotype,Palatino LT STD,Georgia,serif; font-size:51px; font-weight:bold; text-anchor:middle;" transform="rotate(0, 170.986, 714.34)" x="170.986" y="714.34">2.5</text>
</g>
<g clip-path="url(#clip540)">
<text style="fill:#000000; fill-opacity:1; font-family:Book Antiqua,Palatino,Palatino Linotype,Palatino LT STD,Georgia,serif; font-size:51px; font-weight:bold; text-anchor:middle;" transform="rotate(0, 170.986, 497.808)" x="170.986" y="497.808">3.0</text>
</g>
<g clip-path="url(#clip540)">
<text style="fill:#000000; fill-opacity:1; font-family:Book Antiqua,Palatino,Palatino Linotype,Palatino LT STD,Georgia,serif; font-size:51px; font-weight:bold; text-anchor:middle;" transform="rotate(0, 170.986, 281.276)" x="170.986" y="281.276">3.5</text>
</g>
<path clip-path="url(#clip540)" d="M86.7373 674.068 Q76.6569 674.068 69.636 667.627 Q62.5829 661.153 62.5829 652.168 Q62.5829 643.118 69.636 636.677 Q76.6891 630.204 86.7373 630.204 Q96.6889 630.204 103.613 636.677 Q110.537 643.15 110.537 652.168 Q110.537 661.057 103.645 667.562 Q96.7533 674.068 86.7373 674.068 M85.8034 667.273 Q91.9225 667.273 96.6245 665.823 Q101.294 664.374 103.839 662.055 Q106.383 659.704 107.607 657.192 Q108.831 654.68 108.831 652.104 Q108.831 649.592 107.639 647.144 Q106.447 644.664 103.935 642.313 Q101.423 639.962 96.7211 638.481 Q92.0191 636.999 85.8034 636.999 Q80.9725 636.999 77.1078 638.03 Q73.2109 639.06 70.8598 640.671 Q68.5088 642.281 66.9629 644.374 Q65.417 646.435 64.8373 648.4 Q64.2254 650.332 64.2254 652.168 Q64.2254 654.487 65.256 656.902 Q66.2866 659.318 68.5732 661.765 Q70.8276 664.181 75.3042 665.727 Q79.7486 667.273 85.8034 667.273 Z" fill="#000000" fill-rule="nonzero" fill-opacity="1" /><path clip-path="url(#clip540)" d="M82.7116 623.846 L80.6504 623.846 L79.9419 614.152 L101.842 614.152 Q103.42 614.152 104.354 614.023 Q105.256 613.894 106.318 613.379 Q107.381 612.831 107.864 611.607 Q108.347 610.351 108.347 608.354 Q108.347 604.78 105.417 602.59 Q102.486 600.367 98.1382 600.367 L86.3831 600.367 Q83.9354 600.367 83.3235 601.237 Q82.7116 602.107 82.7116 605.52 L80.6504 605.52 L79.9419 595.826 L103.356 595.826 Q105.803 595.826 106.447 594.989 Q107.059 594.119 107.059 590.673 L109.088 590.673 L109.829 600.174 L103.871 600.174 Q109.797 602.944 109.829 608.677 Q109.829 611.575 109.088 613.572 Q108.347 615.536 107.446 616.535 Q106.512 617.533 104.74 618.081 Q102.969 618.596 101.874 618.66 Q100.779 618.725 98.6535 618.725 L88.7663 618.725 Q84.2897 618.725 83.5167 619.369 Q82.7116 620.013 82.7116 623.846 Z" fill="#000000" fill-rule="nonzero" fill-opacity="1" /><path clip-path="url(#clip540)" d="M82.7116 588.401 L81.2623 588.401 Q81.1335 585.373 79.0079 583.377 Q76.8501 581.348 74.2092 580.671 Q71.5684 579.963 68.5088 579.898 L68.5088 578.256 L80.6504 578.256 L80.6504 568.82 L82.7116 568.82 L82.7116 578.256 L101.037 578.256 Q108.154 578.256 108.154 573.812 Q108.154 571.911 106.222 570.655 Q104.257 569.399 100.779 569.399 L97.1398 569.399 L97.1398 567.757 L100.908 567.757 Q104.483 567.757 107.156 569.399 Q109.829 571.042 109.829 574.295 Q109.829 575.486 109.507 576.678 Q109.217 577.837 108.444 579.383 Q107.639 580.897 105.707 581.863 Q103.742 582.797 100.908 582.797 L82.7116 582.797 L82.7116 588.401 Z" fill="#000000" fill-rule="nonzero" fill-opacity="1" /><path clip-path="url(#clip540)" d="M119.845 567.561 Q119.845 564.051 119.394 563.246 Q118.975 562.408 116.882 562.408 L85.9966 562.408 Q83.8066 562.408 83.2591 563.246 Q82.7116 564.051 82.7116 567.561 L80.6504 567.561 L79.9419 558.061 L84.2897 558.061 Q79.9419 554.099 79.9419 548.818 Q79.9419 543.214 84.2897 539.124 Q88.6375 535.033 94.8532 535.033 Q101.133 535.033 105.481 539.381 Q109.829 543.729 109.829 549.752 Q109.829 553.037 108.154 555.259 Q106.447 557.449 105.191 557.867 L105.803 557.867 L116.882 557.867 Q119.008 557.867 119.426 557.03 Q119.845 556.193 119.845 552.715 L121.874 552.715 Q121.681 559.639 121.681 560.154 Q121.681 560.798 121.874 567.561 L119.845 567.561 M101.584 557.867 Q102.583 557.867 102.937 557.739 Q103.291 557.578 104.354 556.933 Q108.347 554.325 108.347 550.074 Q108.347 550.041 108.347 550.009 Q108.347 546.241 104.515 543.375 Q100.65 540.508 94.8532 540.508 Q89.3138 540.508 85.4491 543.117 Q81.5844 545.726 81.5844 549.333 Q81.5844 551.909 82.9692 554.164 Q84.3541 556.418 86.8661 557.867 L101.584 557.867 Z" fill="#000000" fill-rule="nonzero" fill-opacity="1" /><path clip-path="url(#clip540)" d="M82.7116 527.101 L80.6504 527.101 L79.9419 517.407 L101.842 517.407 Q103.42 517.407 104.354 517.278 Q105.256 517.149 106.318 516.634 Q107.381 516.086 107.864 514.862 Q108.347 513.606 108.347 511.61 Q108.347 508.035 105.417 505.845 Q102.486 503.623 98.1382 503.623 L86.3831 503.623 Q83.9354 503.623 83.3235 504.492 Q82.7116 505.362 82.7116 508.776 L80.6504 508.776 L79.9419 499.082 L103.356 499.082 Q105.803 499.082 106.447 498.244 Q107.059 497.375 107.059 493.929 L109.088 493.929 L109.829 503.429 L103.871 503.429 Q109.797 506.199 109.829 511.932 Q109.829 514.83 109.088 516.827 Q108.347 518.792 107.446 519.79 Q106.512 520.788 104.74 521.336 Q102.969 521.851 101.874 521.916 Q100.779 521.98 98.6535 521.98 L88.7663 521.98 Q84.2897 521.98 83.5167 522.624 Q82.7116 523.268 82.7116 527.101 Z" fill="#000000" fill-rule="nonzero" fill-opacity="1" /><path clip-path="url(#clip540)" d="M82.7116 491.656 L81.2623 491.656 Q81.1335 488.629 79.0079 486.632 Q76.8501 484.603 74.2092 483.927 Q71.5684 483.218 68.5088 483.154 L68.5088 481.511 L80.6504 481.511 L80.6504 472.075 L82.7116 472.075 L82.7116 481.511 L101.037 481.511 Q108.154 481.511 108.154 477.067 Q108.154 475.167 106.222 473.911 Q104.257 472.655 100.779 472.655 L97.1398 472.655 L97.1398 471.012 L100.908 471.012 Q104.483 471.012 107.156 472.655 Q109.829 474.297 109.829 477.55 Q109.829 478.741 109.507 479.933 Q109.217 481.092 108.444 482.638 Q107.639 484.152 105.707 485.118 Q103.742 486.052 100.908 486.052 L82.7116 486.052 L82.7116 491.656 Z" fill="#000000" fill-rule="nonzero" fill-opacity="1" /><path clip-path="url(#clip540)" d="M124.644 457.614 Q124.322 457.614 123.613 457.357 L61.3913 434.072 Q61.3269 434.072 60.9726 433.911 Q60.6184 433.75 60.3929 433.653 Q60.1353 433.556 59.942 433.363 Q59.7488 433.138 59.7488 432.88 Q59.7488 432.236 60.554 432.236 Q60.6184 432.236 61.3913 432.429 L123.677 455.778 Q124.805 456.165 125.127 456.423 Q125.449 456.648 125.449 457.034 Q125.449 457.614 124.644 457.614 Z" fill="#000000" fill-rule="nonzero" fill-opacity="1" /><path clip-path="url(#clip540)" d="M119.845 416.236 Q119.845 412.725 119.394 411.92 Q118.975 411.083 116.882 411.083 L85.9966 411.083 Q83.8066 411.083 83.2591 411.92 Q82.7116 412.725 82.7116 416.236 L80.6504 416.236 L79.9419 406.735 L84.2897 406.735 Q79.9419 402.774 79.9419 397.492 Q79.9419 391.888 84.2897 387.798 Q88.6375 383.708 94.8532 383.708 Q101.133 383.708 105.481 388.056 Q109.829 392.403 109.829 398.426 Q109.829 401.711 108.154 403.933 Q106.447 406.123 105.191 406.542 L105.803 406.542 L116.882 406.542 Q119.008 406.542 119.426 405.704 Q119.845 404.867 119.845 401.389 L121.874 401.389 Q121.681 408.313 121.681 408.828 Q121.681 409.473 121.874 416.236 L119.845 416.236 M101.584 406.542 Q102.583 406.542 102.937 406.413 Q103.291 406.252 104.354 405.608 Q108.347 402.999 108.347 398.748 Q108.347 398.716 108.347 398.684 Q108.347 394.915 104.515 392.049 Q100.65 389.183 94.8532 389.183 Q89.3138 389.183 85.4491 391.791 Q81.5844 394.4 81.5844 398.007 Q81.5844 400.584 82.9692 402.838 Q84.3541 405.093 86.8661 406.542 L101.584 406.542 Z" fill="#000000" fill-rule="nonzero" fill-opacity="1" /><path clip-path="url(#clip540)" d="M108.025 379.001 Q106.963 379.999 105.578 379.999 Q104.193 379.999 103.195 379.001 Q102.164 378.002 102.164 376.489 Q102.164 375.039 103.13 374.073 Q104.064 373.075 105.61 373.075 Q107.124 373.075 108.122 374.138 Q109.088 375.168 109.088 376.489 Q109.088 378.002 108.025 379.001 Z" fill="#000000" fill-rule="nonzero" fill-opacity="1" /><path clip-path="url(#clip540)" d="M82.7116 351.392 L80.6504 351.392 L79.9419 341.698 L101.842 341.698 Q103.42 341.698 104.354 341.569 Q105.256 341.44 106.318 340.925 Q107.381 340.377 107.864 339.153 Q108.347 337.897 108.347 335.901 Q108.347 332.326 105.417 330.136 Q102.486 327.914 98.1382 327.914 L86.3831 327.914 Q83.9354 327.914 83.3235 328.783 Q82.7116 329.653 82.7116 333.067 L80.6504 333.067 L79.9419 323.373 L103.356 323.373 Q105.803 323.373 106.447 322.535 Q107.059 321.666 107.059 318.22 L109.088 318.22 L109.829 327.72 L103.871 327.72 Q109.797 330.49 109.829 336.223 Q109.829 339.121 109.088 341.118 Q108.347 343.083 107.446 344.081 Q106.512 345.079 104.74 345.627 Q102.969 346.142 101.874 346.207 Q100.779 346.271 98.6535 346.271 L88.7663 346.271 Q84.2897 346.271 83.5167 346.915 Q82.7116 347.559 82.7116 351.392 Z" fill="#000000" fill-rule="nonzero" fill-opacity="1" /><path clip-path="url(#clip540)" d="M108.025 314.157 Q106.963 315.155 105.578 315.155 Q104.193 315.155 103.195 314.157 Q102.164 313.158 102.164 311.645 Q102.164 310.195 103.13 309.229 Q104.064 308.231 105.61 308.231 Q107.124 308.231 108.122 309.294 Q109.088 310.324 109.088 311.645 Q109.088 313.158 108.025 314.157 Z" fill="#000000" fill-rule="nonzero" fill-opacity="1" /><path clip-path="url(#clip542)" d="M243.074 830.267 L243.074 1779.5 L272.899 1779.5 L272.899 830.267 L243.074 830.267 L243.074 830.267  Z" fill="#009af9" fill-rule="evenodd" fill-opacity="1"/>
<polyline clip-path="url(#clip542)" style="stroke:#6495ed; stroke-linecap:round; stroke-linejoin:round; stroke-width:4; stroke-opacity:1; fill:none" points="243.074,830.267 243.074,1779.5 272.899,1779.5 272.899,830.267 243.074,830.267 "/>
<path clip-path="url(#clip542)" d="M280.356 760.284 L280.356 1779.5 L310.181 1779.5 L310.181 760.284 L280.356 760.284 L280.356 760.284  Z" fill="#009af9" fill-rule="evenodd" fill-opacity="1"/>
<polyline clip-path="url(#clip542)" style="stroke:#6495ed; stroke-linecap:round; stroke-linejoin:round; stroke-width:4; stroke-opacity:1; fill:none" points="280.356,760.284 280.356,1779.5 310.181,1779.5 310.181,760.284 280.356,760.284 "/>
<path clip-path="url(#clip542)" d="M317.638 763.228 L317.638 1779.5 L347.463 1779.5 L347.463 763.228 L317.638 763.228 L317.638 763.228  Z" fill="#009af9" fill-rule="evenodd" fill-opacity="1"/>
<polyline clip-path="url(#clip542)" style="stroke:#6495ed; stroke-linecap:round; stroke-linejoin:round; stroke-width:4; stroke-opacity:1; fill:none" points="317.638,763.228 317.638,1779.5 347.463,1779.5 347.463,763.228 317.638,763.228 "/>
<path clip-path="url(#clip542)" d="M354.92 754.307 L354.92 1779.5 L384.745 1779.5 L384.745 754.307 L354.92 754.307 L354.92 754.307  Z" fill="#009af9" fill-rule="evenodd" fill-opacity="1"/>
<polyline clip-path="url(#clip542)" style="stroke:#6495ed; stroke-linecap:round; stroke-linejoin:round; stroke-width:4; stroke-opacity:1; fill:none" points="354.92,754.307 354.92,1779.5 384.745,1779.5 384.745,754.307 354.92,754.307 "/>
<path clip-path="url(#clip542)" d="M392.202 744.217 L392.202 1779.5 L422.027 1779.5 L422.027 744.217 L392.202 744.217 L392.202 744.217  Z" fill="#009af9" fill-rule="evenodd" fill-opacity="1"/>
<polyline clip-path="url(#clip542)" style="stroke:#6495ed; stroke-linecap:round; stroke-linejoin:round; stroke-width:4; stroke-opacity:1; fill:none" points="392.202,744.217 392.202,1779.5 422.027,1779.5 422.027,744.217 392.202,744.217 "/>
<path clip-path="url(#clip542)" d="M429.484 720.745 L429.484 1779.5 L459.309 1779.5 L459.309 720.745 L429.484 720.745 L429.484 720.745  Z" fill="#009af9" fill-rule="evenodd" fill-opacity="1"/>
<polyline clip-path="url(#clip542)" style="stroke:#6495ed; stroke-linecap:round; stroke-linejoin:round; stroke-width:4; stroke-opacity:1; fill:none" points="429.484,720.745 429.484,1779.5 459.309,1779.5 459.309,720.745 429.484,720.745 "/>
<path clip-path="url(#clip542)" d="M466.766 595.546 L466.766 1779.5 L496.592 1779.5 L496.592 595.546 L466.766 595.546 L466.766 595.546  Z" fill="#009af9" fill-rule="evenodd" fill-opacity="1"/>
<polyline clip-path="url(#clip542)" style="stroke:#6495ed; stroke-linecap:round; stroke-linejoin:round; stroke-width:4; stroke-opacity:1; fill:none" points="466.766,595.546 466.766,1779.5 496.592,1779.5 496.592,595.546 466.766,595.546 "/>
<path clip-path="url(#clip542)" d="M504.048 521.882 L504.048 1779.5 L533.874 1779.5 L533.874 521.882 L504.048 521.882 L504.048 521.882  Z" fill="#009af9" fill-rule="evenodd" fill-opacity="1"/>
<polyline clip-path="url(#clip542)" style="stroke:#6495ed; stroke-linecap:round; stroke-linejoin:round; stroke-width:4; stroke-opacity:1; fill:none" points="504.048,521.882 504.048,1779.5 533.874,1779.5 533.874,521.882 504.048,521.882 "/>
<path clip-path="url(#clip542)" d="M541.33 551.504 L541.33 1779.5 L571.156 1779.5 L571.156 551.504 L541.33 551.504 L541.33 551.504  Z" fill="#009af9" fill-rule="evenodd" fill-opacity="1"/>
<polyline clip-path="url(#clip542)" style="stroke:#6495ed; stroke-linecap:round; stroke-linejoin:round; stroke-width:4; stroke-opacity:1; fill:none" points="541.33,551.504 541.33,1779.5 571.156,1779.5 571.156,551.504 541.33,551.504 "/>
<path clip-path="url(#clip542)" d="M578.612 561.724 L578.612 1779.5 L608.438 1779.5 L608.438 561.724 L578.612 561.724 L578.612 561.724  Z" fill="#009af9" fill-rule="evenodd" fill-opacity="1"/>
<polyline clip-path="url(#clip542)" style="stroke:#6495ed; stroke-linecap:round; stroke-linejoin:round; stroke-width:4; stroke-opacity:1; fill:none" points="578.612,561.724 578.612,1779.5 608.438,1779.5 608.438,561.724 578.612,561.724 "/>
<path clip-path="url(#clip542)" d="M615.894 356.408 L615.894 1779.5 L645.72 1779.5 L645.72 356.408 L615.894 356.408 L615.894 356.408  Z" fill="#009af9" fill-rule="evenodd" fill-opacity="1"/>
<polyline clip-path="url(#clip542)" style="stroke:#6495ed; stroke-linecap:round; stroke-linejoin:round; stroke-width:4; stroke-opacity:1; fill:none" points="615.894,356.408 615.894,1779.5 645.72,1779.5 645.72,356.408 615.894,356.408 "/>
<path clip-path="url(#clip542)" d="M653.176 358.617 L653.176 1779.5 L683.002 1779.5 L683.002 358.617 L653.176 358.617 L653.176 358.617  Z" fill="#009af9" fill-rule="evenodd" fill-opacity="1"/>
<polyline clip-path="url(#clip542)" style="stroke:#6495ed; stroke-linecap:round; stroke-linejoin:round; stroke-width:4; stroke-opacity:1; fill:none" points="653.176,358.617 653.176,1779.5 683.002,1779.5 683.002,358.617 653.176,358.617 "/>
<path clip-path="url(#clip542)" d="M690.458 366.932 L690.458 1779.5 L720.284 1779.5 L720.284 366.932 L690.458 366.932 L690.458 366.932  Z" fill="#009af9" fill-rule="evenodd" fill-opacity="1"/>
<polyline clip-path="url(#clip542)" style="stroke:#6495ed; stroke-linecap:round; stroke-linejoin:round; stroke-width:4; stroke-opacity:1; fill:none" points="690.458,366.932 690.458,1779.5 720.284,1779.5 720.284,366.932 690.458,366.932 "/>
<path clip-path="url(#clip542)" d="M727.74 378.105 L727.74 1779.5 L757.566 1779.5 L757.566 378.105 L727.74 378.105 L727.74 378.105  Z" fill="#009af9" fill-rule="evenodd" fill-opacity="1"/>
<polyline clip-path="url(#clip542)" style="stroke:#6495ed; stroke-linecap:round; stroke-linejoin:round; stroke-width:4; stroke-opacity:1; fill:none" points="727.74,378.105 727.74,1779.5 757.566,1779.5 757.566,378.105 727.74,378.105 "/>
<path clip-path="url(#clip542)" d="M765.022 363.987 L765.022 1779.5 L794.848 1779.5 L794.848 363.987 L765.022 363.987 L765.022 363.987  Z" fill="#009af9" fill-rule="evenodd" fill-opacity="1"/>
<polyline clip-path="url(#clip542)" style="stroke:#6495ed; stroke-linecap:round; stroke-linejoin:round; stroke-width:4; stroke-opacity:1; fill:none" points="765.022,363.987 765.022,1779.5 794.848,1779.5 794.848,363.987 765.022,363.987 "/>
<path clip-path="url(#clip542)" d="M802.304 533.185 L802.304 1779.5 L832.13 1779.5 L832.13 533.185 L802.304 533.185 L802.304 533.185  Z" fill="#009af9" fill-rule="evenodd" fill-opacity="1"/>
<polyline clip-path="url(#clip542)" style="stroke:#6495ed; stroke-linecap:round; stroke-linejoin:round; stroke-width:4; stroke-opacity:1; fill:none" points="802.304,533.185 802.304,1779.5 832.13,1779.5 832.13,533.185 802.304,533.185 "/>
<path clip-path="url(#clip542)" d="M839.587 653.533 L839.587 1779.5 L869.412 1779.5 L869.412 653.533 L839.587 653.533 L839.587 653.533  Z" fill="#009af9" fill-rule="evenodd" fill-opacity="1"/>
<polyline clip-path="url(#clip542)" style="stroke:#6495ed; stroke-linecap:round; stroke-linejoin:round; stroke-width:4; stroke-opacity:1; fill:none" points="839.587,653.533 839.587,1779.5 869.412,1779.5 869.412,653.533 839.587,653.533 "/>
<path clip-path="url(#clip542)" d="M876.869 710.958 L876.869 1779.5 L906.694 1779.5 L906.694 710.958 L876.869 710.958 L876.869 710.958  Z" fill="#009af9" fill-rule="evenodd" fill-opacity="1"/>
<polyline clip-path="url(#clip542)" style="stroke:#6495ed; stroke-linecap:round; stroke-linejoin:round; stroke-width:4; stroke-opacity:1; fill:none" points="876.869,710.958 876.869,1779.5 906.694,1779.5 906.694,710.958 876.869,710.958 "/>
<path clip-path="url(#clip542)" d="M914.151 670.986 L914.151 1779.5 L943.976 1779.5 L943.976 670.986 L914.151 670.986 L914.151 670.986  Z" fill="#009af9" fill-rule="evenodd" fill-opacity="1"/>
<polyline clip-path="url(#clip542)" style="stroke:#6495ed; stroke-linecap:round; stroke-linejoin:round; stroke-width:4; stroke-opacity:1; fill:none" points="914.151,670.986 914.151,1779.5 943.976,1779.5 943.976,670.986 914.151,670.986 "/>
<path clip-path="url(#clip542)" d="M951.433 751.622 L951.433 1779.5 L981.258 1779.5 L981.258 751.622 L951.433 751.622 L951.433 751.622  Z" fill="#009af9" fill-rule="evenodd" fill-opacity="1"/>
<polyline clip-path="url(#clip542)" style="stroke:#6495ed; stroke-linecap:round; stroke-linejoin:round; stroke-width:4; stroke-opacity:1; fill:none" points="951.433,751.622 951.433,1779.5 981.258,1779.5 981.258,751.622 951.433,751.622 "/>
<path clip-path="url(#clip542)" d="M988.715 725.812 L988.715 1779.5 L1018.54 1779.5 L1018.54 725.812 L988.715 725.812 L988.715 725.812  Z" fill="#009af9" fill-rule="evenodd" fill-opacity="1"/>
<polyline clip-path="url(#clip542)" style="stroke:#6495ed; stroke-linecap:round; stroke-linejoin:round; stroke-width:4; stroke-opacity:1; fill:none" points="988.715,725.812 988.715,1779.5 1018.54,1779.5 1018.54,725.812 988.715,725.812 "/>
<path clip-path="url(#clip542)" d="M1026 553.322 L1026 1779.5 L1055.82 1779.5 L1055.82 553.322 L1026 553.322 L1026 553.322  Z" fill="#009af9" fill-rule="evenodd" fill-opacity="1"/>
<polyline clip-path="url(#clip542)" style="stroke:#6495ed; stroke-linecap:round; stroke-linejoin:round; stroke-width:4; stroke-opacity:1; fill:none" points="1026,553.322 1026,1779.5 1055.82,1779.5 1055.82,553.322 1026,553.322 "/>
<path clip-path="url(#clip542)" d="M1063.28 553.712 L1063.28 1779.5 L1093.1 1779.5 L1093.1 553.712 L1063.28 553.712 L1063.28 553.712  Z" fill="#009af9" fill-rule="evenodd" fill-opacity="1"/>
<polyline clip-path="url(#clip542)" style="stroke:#6495ed; stroke-linecap:round; stroke-linejoin:round; stroke-width:4; stroke-opacity:1; fill:none" points="1063.28,553.712 1063.28,1779.5 1093.1,1779.5 1093.1,553.712 1063.28,553.712 "/>
<path clip-path="url(#clip542)" d="M1100.56 702.253 L1100.56 1779.5 L1130.39 1779.5 L1130.39 702.253 L1100.56 702.253 L1100.56 702.253  Z" fill="#009af9" fill-rule="evenodd" fill-opacity="1"/>
<polyline clip-path="url(#clip542)" style="stroke:#6495ed; stroke-linecap:round; stroke-linejoin:round; stroke-width:4; stroke-opacity:1; fill:none" points="1100.56,702.253 1100.56,1779.5 1130.39,1779.5 1130.39,702.253 1100.56,702.253 "/>
<circle clip-path="url(#clip542)" style="fill:#009af9; stroke:none; fill-opacity:0" cx="257.986" cy="830.267" r="2"/>
<circle clip-path="url(#clip542)" style="fill:#009af9; stroke:none; fill-opacity:0" cx="295.268" cy="760.284" r="2"/>
<circle clip-path="url(#clip542)" style="fill:#009af9; stroke:none; fill-opacity:0" cx="332.55" cy="763.228" r="2"/>
<circle clip-path="url(#clip542)" style="fill:#009af9; stroke:none; fill-opacity:0" cx="369.833" cy="754.307" r="2"/>
<circle clip-path="url(#clip542)" style="fill:#009af9; stroke:none; fill-opacity:0" cx="407.115" cy="744.217" r="2"/>
<circle clip-path="url(#clip542)" style="fill:#009af9; stroke:none; fill-opacity:0" cx="444.397" cy="720.745" r="2"/>
<circle clip-path="url(#clip542)" style="fill:#009af9; stroke:none; fill-opacity:0" cx="481.679" cy="595.546" r="2"/>
<circle clip-path="url(#clip542)" style="fill:#009af9; stroke:none; fill-opacity:0" cx="518.961" cy="521.882" r="2"/>
<circle clip-path="url(#clip542)" style="fill:#009af9; stroke:none; fill-opacity:0" cx="556.243" cy="551.504" r="2"/>
<circle clip-path="url(#clip542)" style="fill:#009af9; stroke:none; fill-opacity:0" cx="593.525" cy="561.724" r="2"/>
<circle clip-path="url(#clip542)" style="fill:#009af9; stroke:none; fill-opacity:0" cx="630.807" cy="356.408" r="2"/>
<circle clip-path="url(#clip542)" style="fill:#009af9; stroke:none; fill-opacity:0" cx="668.089" cy="358.617" r="2"/>
<circle clip-path="url(#clip542)" style="fill:#009af9; stroke:none; fill-opacity:0" cx="705.371" cy="366.932" r="2"/>
<circle clip-path="url(#clip542)" style="fill:#009af9; stroke:none; fill-opacity:0" cx="742.653" cy="378.105" r="2"/>
<circle clip-path="url(#clip542)" style="fill:#009af9; stroke:none; fill-opacity:0" cx="779.935" cy="363.987" r="2"/>
<circle clip-path="url(#clip542)" style="fill:#009af9; stroke:none; fill-opacity:0" cx="817.217" cy="533.185" r="2"/>
<circle clip-path="url(#clip542)" style="fill:#009af9; stroke:none; fill-opacity:0" cx="854.499" cy="653.533" r="2"/>
<circle clip-path="url(#clip542)" style="fill:#009af9; stroke:none; fill-opacity:0" cx="891.781" cy="710.958" r="2"/>
<circle clip-path="url(#clip542)" style="fill:#009af9; stroke:none; fill-opacity:0" cx="929.064" cy="670.986" r="2"/>
<circle clip-path="url(#clip542)" style="fill:#009af9; stroke:none; fill-opacity:0" cx="966.346" cy="751.622" r="2"/>
<circle clip-path="url(#clip542)" style="fill:#009af9; stroke:none; fill-opacity:0" cx="1003.63" cy="725.812" r="2"/>
<circle clip-path="url(#clip542)" style="fill:#009af9; stroke:none; fill-opacity:0" cx="1040.91" cy="553.322" r="2"/>
<circle clip-path="url(#clip542)" style="fill:#009af9; stroke:none; fill-opacity:0" cx="1078.19" cy="553.712" r="2"/>
<circle clip-path="url(#clip542)" style="fill:#009af9; stroke:none; fill-opacity:0" cx="1115.47" cy="702.253" r="2"/>
<path clip-path="url(#clip540)" d="M745.151 183.601 L1121.69 183.601 L1121.69 76.115 L745.151 76.115  Z" fill="#ffffff" fill-rule="evenodd" fill-opacity="1"/>
<polyline clip-path="url(#clip540)" style="stroke:#000000; stroke-linecap:round; stroke-linejoin:round; stroke-width:4; stroke-opacity:1; fill:none" points="745.151,183.601 1121.69,183.601 1121.69,76.115 745.151,76.115 745.151,183.601 "/>
<path clip-path="url(#clip540)" d="M755.507 151.355 L817.644 151.355 L817.644 108.361 L755.507 108.361 L755.507 151.355  Z" fill="#009af9" fill-rule="evenodd" fill-opacity="1"/>
<polyline clip-path="url(#clip540)" style="stroke:#6495ed; stroke-linecap:round; stroke-linejoin:round; stroke-width:4; stroke-opacity:1; fill:none" points="755.507,151.355 817.644,151.355 817.644,108.361 755.507,108.361 755.507,151.355 "/>
<g clip-path="url(#clip540)">
<text style="fill:#000000; fill-opacity:1; font-family:Book Antiqua,Palatino,Palatino Linotype,Palatino LT STD,Georgia,serif; font-size:51px; font-weight:bold; text-anchor:start;" transform="rotate(0, 828, 147.358)" x="828" y="147.358">System load</text>
</g>
</svg>
