<?xml version="1.0" encoding="utf-8"?>
<svg xmlns="http://www.w3.org/2000/svg" xmlns:xlink="http://www.w3.org/1999/xlink" width="300" height="300" viewBox="0 0 1200 1200">
<defs>
  <clipPath id="clip030">
    <rect x="0" y="0" width="1200" height="1200"/>
  </clipPath>
</defs>
<path clip-path="url(#clip030)" d="M0 1200 L1200 1200 L1200 0 L0 0  Z" fill="#ffffff" fill-rule="evenodd" fill-opacity="1"/>
<defs>
  <clipPath id="clip031">
    <rect x="240" y="120" width="841" height="841"/>
  </clipPath>
</defs>
<path clip-path="url(#clip030)" d="M247.989 984.237 L1152.76 984.237 L1152.76 47.2441 L247.989 47.2441  Z" fill="#ffffff" fill-rule="evenodd" fill-opacity="1"/>
<defs>
  <clipPath id="clip032">
    <rect x="247" y="47" width="906" height="938"/>
  </clipPath>
</defs>
<polyline clip-path="url(#clip032)" style="stroke:#808080; stroke-linecap:round; stroke-linejoin:round; stroke-width:2; stroke-opacity:0.1; fill:none" points="247.989,984.237 247.989,47.2441 "/>
<polyline clip-path="url(#clip032)" style="stroke:#808080; stroke-linecap:round; stroke-linejoin:round; stroke-width:2; stroke-opacity:0.1; fill:none" points="428.942,984.237 428.942,47.2441 "/>
<polyline clip-path="url(#clip032)" style="stroke:#808080; stroke-linecap:round; stroke-linejoin:round; stroke-width:2; stroke-opacity:0.1; fill:none" points="609.896,984.237 609.896,47.2441 "/>
<polyline clip-path="url(#clip032)" style="stroke:#808080; stroke-linecap:round; stroke-linejoin:round; stroke-width:2; stroke-opacity:0.1; fill:none" points="790.849,984.237 790.849,47.2441 "/>
<polyline clip-path="url(#clip032)" style="stroke:#808080; stroke-linecap:round; stroke-linejoin:round; stroke-width:2; stroke-opacity:0.1; fill:none" points="971.802,984.237 971.802,47.2441 "/>
<polyline clip-path="url(#clip032)" style="stroke:#808080; stroke-linecap:round; stroke-linejoin:round; stroke-width:2; stroke-opacity:0.1; fill:none" points="1152.76,984.237 1152.76,47.2441 "/>
<polyline clip-path="url(#clip030)" style="stroke:#000000; stroke-linecap:round; stroke-linejoin:round; stroke-width:4; stroke-opacity:1; fill:none" points="247.989,984.237 1152.76,984.237 "/>
<polyline clip-path="url(#clip030)" style="stroke:#000000; stroke-linecap:round; stroke-linejoin:round; stroke-width:4; stroke-opacity:1; fill:none" points="247.989,47.2441 1152.76,47.2441 "/>
<polyline clip-path="url(#clip030)" style="stroke:#000000; stroke-linecap:round; stroke-linejoin:round; stroke-width:4; stroke-opacity:1; fill:none" points="247.989,984.237 247.989,965.339 "/>
<polyline clip-path="url(#clip030)" style="stroke:#000000; stroke-linecap:round; stroke-linejoin:round; stroke-width:4; stroke-opacity:1; fill:none" points="428.942,984.237 428.942,965.339 "/>
<polyline clip-path="url(#clip030)" style="stroke:#000000; stroke-linecap:round; stroke-linejoin:round; stroke-width:4; stroke-opacity:1; fill:none" points="609.896,984.237 609.896,965.339 "/>
<polyline clip-path="url(#clip030)" style="stroke:#000000; stroke-linecap:round; stroke-linejoin:round; stroke-width:4; stroke-opacity:1; fill:none" points="790.849,984.237 790.849,965.339 "/>
<polyline clip-path="url(#clip030)" style="stroke:#000000; stroke-linecap:round; stroke-linejoin:round; stroke-width:4; stroke-opacity:1; fill:none" points="971.802,984.237 971.802,965.339 "/>
<polyline clip-path="url(#clip030)" style="stroke:#000000; stroke-linecap:round; stroke-linejoin:round; stroke-width:4; stroke-opacity:1; fill:none" points="1152.76,984.237 1152.76,965.339 "/>
<g clip-path="url(#clip030)">
<text style="fill:#000000; fill-opacity:1; font-family:Book Antiqua,Palatino,Palatino Linotype,Palatino LT STD,Georgia,serif; font-size:51px; font-weight:bold; text-anchor:middle;" transform="rotate(0, 247.989, 1038.21)" x="247.989" y="1038.21">0</text>
</g>
<g clip-path="url(#clip030)">
<text style="fill:#000000; fill-opacity:1; font-family:Book Antiqua,Palatino,Palatino Linotype,Palatino LT STD,Georgia,serif; font-size:51px; font-weight:bold; text-anchor:middle;" transform="rotate(0, 428.942, 1038.21)" x="428.942" y="1038.21">5</text>
</g>
<g clip-path="url(#clip030)">
<text style="fill:#000000; fill-opacity:1; font-family:Book Antiqua,Palatino,Palatino Linotype,Palatino LT STD,Georgia,serif; font-size:51px; font-weight:bold; text-anchor:middle;" transform="rotate(0, 609.896, 1038.21)" x="609.896" y="1038.21">10</text>
</g>
<g clip-path="url(#clip030)">
<text style="fill:#000000; fill-opacity:1; font-family:Book Antiqua,Palatino,Palatino Linotype,Palatino LT STD,Georgia,serif; font-size:51px; font-weight:bold; text-anchor:middle;" transform="rotate(0, 790.849, 1038.21)" x="790.849" y="1038.21">15</text>
</g>
<g clip-path="url(#clip030)">
<text style="fill:#000000; fill-opacity:1; font-family:Book Antiqua,Palatino,Palatino Linotype,Palatino LT STD,Georgia,serif; font-size:51px; font-weight:bold; text-anchor:middle;" transform="rotate(0, 971.802, 1038.21)" x="971.802" y="1038.21">20</text>
</g>
<g clip-path="url(#clip030)">
<text style="fill:#000000; fill-opacity:1; font-family:Book Antiqua,Palatino,Palatino Linotype,Palatino LT STD,Georgia,serif; font-size:51px; font-weight:bold; text-anchor:middle;" transform="rotate(0, 1152.76, 1038.21)" x="1152.76" y="1038.21">25</text>
</g>
<path clip-path="url(#clip030)" d="M677.2 1073.13 Q677.2 1074.03 676.781 1074.25 Q676.363 1074.45 675.203 1074.45 L669.02 1074.45 L664.124 1093.9 Q663.738 1095.61 663.738 1097.06 Q663.738 1098.67 664.221 1099.37 Q664.736 1100.08 665.799 1100.08 Q667.893 1100.08 670.147 1098.18 Q672.434 1096.28 674.366 1091.65 Q674.624 1091.03 674.752 1090.9 Q674.913 1090.74 675.332 1090.74 Q676.137 1090.74 676.137 1091.39 Q676.137 1091.61 675.686 1092.64 Q675.268 1093.67 674.334 1095.19 Q673.432 1096.7 672.24 1098.12 Q671.081 1099.54 669.31 1100.57 Q667.538 1101.56 665.638 1101.56 Q662.965 1101.56 661.258 1099.86 Q659.583 1098.15 659.583 1095.48 Q659.583 1094.61 660.26 1091.84 Q660.936 1089.04 664.608 1074.45 L658.778 1074.45 Q657.973 1074.45 657.651 1074.42 Q657.361 1074.38 657.136 1074.22 Q656.943 1074.03 656.943 1073.64 Q656.943 1073.03 657.2 1072.77 Q657.458 1072.48 657.78 1072.45 Q658.134 1072.39 658.939 1072.39 L665.123 1072.39 L667.699 1061.92 Q667.957 1060.89 668.601 1060.31 Q669.277 1059.7 669.664 1059.63 Q670.05 1059.54 670.34 1059.54 Q671.21 1059.54 671.725 1060.02 Q672.24 1060.47 672.24 1061.31 Q672.24 1061.76 669.535 1072.39 L675.332 1072.39 Q676.073 1072.39 676.363 1072.42 Q676.685 1072.45 676.942 1072.61 Q677.2 1072.77 677.2 1073.13 Z" fill="#000000" fill-rule="nonzero" fill-opacity="1" /><path clip-path="url(#clip030)" d="M680.516 1116.38 Q680.516 1116.06 680.773 1115.35 L704.058 1053.13 Q704.058 1053.06 704.219 1052.71 Q704.38 1052.35 704.477 1052.13 Q704.573 1051.87 704.767 1051.68 Q704.992 1051.48 705.25 1051.48 Q705.894 1051.48 705.894 1052.29 Q705.894 1052.35 705.701 1053.13 L682.351 1115.41 Q681.965 1116.54 681.707 1116.86 Q681.482 1117.18 681.095 1117.18 Q680.516 1117.18 680.516 1116.38 Z" fill="#000000" fill-rule="nonzero" fill-opacity="1" /><path clip-path="url(#clip030)" d="M737.463 1077.35 Q737.463 1079.15 736.561 1080.12 Q735.659 1081.05 734.435 1081.05 Q733.437 1081.05 732.89 1080.47 Q732.374 1079.89 732.374 1079.12 Q732.374 1077.99 733.276 1077.09 Q734.21 1076.19 735.563 1076.15 Q735.112 1074.96 733.92 1074.25 Q732.729 1073.51 731.666 1073.32 Q730.635 1073.13 729.605 1073.13 Q727.576 1073.13 726.03 1073.77 Q724.484 1074.42 723.711 1075.41 Q722.938 1076.38 722.584 1077.31 Q722.229 1078.25 722.229 1079.05 Q722.229 1079.76 722.39 1080.34 Q722.584 1080.89 723.035 1081.31 Q723.485 1081.69 723.808 1081.95 Q724.162 1082.21 724.935 1082.43 Q725.708 1082.66 726.03 1082.76 Q726.352 1082.82 727.254 1083.01 Q729.121 1083.4 729.959 1083.63 Q730.796 1083.82 731.891 1084.37 Q733.018 1084.91 733.856 1085.78 Q735.885 1087.81 735.885 1090.61 Q735.885 1091.65 735.53 1092.9 Q735.208 1094.16 734.274 1095.74 Q733.34 1097.31 731.923 1098.57 Q730.506 1099.83 728.059 1100.7 Q725.643 1101.56 722.616 1101.56 Q718.397 1101.56 715.788 1099.79 Q713.18 1097.99 713.18 1095.16 Q713.18 1093.09 714.307 1091.97 Q715.434 1090.81 716.883 1090.81 Q717.978 1090.81 718.655 1091.42 Q719.331 1092 719.331 1093.09 Q719.331 1094.58 718.139 1095.7 Q716.948 1096.83 715.176 1096.6 Q716.69 1100.08 722.68 1100.08 Q724.935 1100.08 726.674 1099.5 Q728.445 1098.89 729.411 1098.05 Q730.41 1097.18 731.054 1096.12 Q731.698 1095.06 731.891 1094.25 Q732.117 1093.45 732.117 1092.84 Q732.117 1091.77 731.698 1090.97 Q731.279 1090.16 730.7 1089.71 Q730.152 1089.23 729.089 1088.84 Q728.059 1088.42 727.318 1088.26 Q726.577 1088.1 725.257 1087.84 Q724.645 1087.72 724.258 1087.65 Q723.872 1087.56 723.067 1087.3 Q722.294 1087.01 721.746 1086.72 Q721.231 1086.43 720.555 1085.91 Q719.878 1085.4 719.46 1084.79 Q719.041 1084.17 718.751 1083.27 Q718.461 1082.37 718.461 1081.31 Q718.461 1080.34 718.751 1079.18 Q719.073 1078.02 719.878 1076.67 Q720.716 1075.32 721.907 1074.22 Q723.099 1073.13 725.096 1072.42 Q727.125 1071.68 729.605 1071.68 Q733.212 1071.68 735.337 1073.35 Q737.463 1074.99 737.463 1077.35 Z" fill="#000000" fill-rule="nonzero" fill-opacity="1" /><polyline clip-path="url(#clip032)" style="stroke:#808080; stroke-linecap:round; stroke-linejoin:round; stroke-width:2; stroke-opacity:0.1; fill:none" points="247.989,984.237 1152.76,984.237 "/>
<polyline clip-path="url(#clip032)" style="stroke:#808080; stroke-linecap:round; stroke-linejoin:round; stroke-width:2; stroke-opacity:0.1; fill:none" points="247.989,671.906 1152.76,671.906 "/>
<polyline clip-path="url(#clip032)" style="stroke:#808080; stroke-linecap:round; stroke-linejoin:round; stroke-width:2; stroke-opacity:0.1; fill:none" points="247.989,359.575 1152.76,359.575 "/>
<polyline clip-path="url(#clip032)" style="stroke:#808080; stroke-linecap:round; stroke-linejoin:round; stroke-width:2; stroke-opacity:0.1; fill:none" points="247.989,47.2441 1152.76,47.2441 "/>
<polyline clip-path="url(#clip030)" style="stroke:#000000; stroke-linecap:round; stroke-linejoin:round; stroke-width:4; stroke-opacity:1; fill:none" points="247.989,984.237 247.989,47.2441 "/>
<polyline clip-path="url(#clip030)" style="stroke:#000000; stroke-linecap:round; stroke-linejoin:round; stroke-width:4; stroke-opacity:1; fill:none" points="1152.76,984.237 1152.76,47.2441 "/>
<polyline clip-path="url(#clip030)" style="stroke:#000000; stroke-linecap:round; stroke-linejoin:round; stroke-width:4; stroke-opacity:1; fill:none" points="247.989,984.237 266.886,984.237 "/>
<polyline clip-path="url(#clip030)" style="stroke:#000000; stroke-linecap:round; stroke-linejoin:round; stroke-width:4; stroke-opacity:1; fill:none" points="247.989,671.906 266.886,671.906 "/>
<polyline clip-path="url(#clip030)" style="stroke:#000000; stroke-linecap:round; stroke-linejoin:round; stroke-width:4; stroke-opacity:1; fill:none" points="247.989,359.575 266.886,359.575 "/>
<polyline clip-path="url(#clip030)" style="stroke:#000000; stroke-linecap:round; stroke-linejoin:round; stroke-width:4; stroke-opacity:1; fill:none" points="247.989,47.2441 266.886,47.2441 "/>
<g clip-path="url(#clip030)">
<text style="fill:#000000; fill-opacity:1; font-family:Book Antiqua,Palatino,Palatino Linotype,Palatino LT STD,Georgia,serif; font-size:51px; font-weight:bold; text-anchor:middle;" transform="rotate(0, 187.004, 1001.74)" x="187.004" y="1001.74">−1.0</text>
</g>
<g clip-path="url(#clip030)">
<text style="fill:#000000; fill-opacity:1; font-family:Book Antiqua,Palatino,Palatino Linotype,Palatino LT STD,Georgia,serif; font-size:51px; font-weight:bold; text-anchor:middle;" transform="rotate(0, 187.004, 689.406)" x="187.004" y="689.406">−0.5</text>
</g>
<g clip-path="url(#clip030)">
<text style="fill:#000000; fill-opacity:1; font-family:Book Antiqua,Palatino,Palatino Linotype,Palatino LT STD,Georgia,serif; font-size:51px; font-weight:bold; text-anchor:middle;" transform="rotate(0, 198.271, 377.075)" x="198.271" y="377.075">0.0</text>
</g>
<g clip-path="url(#clip030)">
<text style="fill:#000000; fill-opacity:1; font-family:Book Antiqua,Palatino,Palatino Linotype,Palatino LT STD,Georgia,serif; font-size:51px; font-weight:bold; text-anchor:middle;" transform="rotate(0, 198.271, 64.7441)" x="198.271" y="64.7441">0.5</text>
</g>
<path clip-path="url(#clip030)" d="M113.84 665.151 L111.811 665.151 Q111.811 662.767 111.36 661.254 Q110.877 659.74 110.008 659.192 Q109.106 658.645 108.526 658.516 Q107.914 658.355 106.916 658.355 L72.4879 658.355 Q71.5539 658.355 71.3285 658.613 Q71.103 658.838 70.9742 659.965 Q70.8454 661.93 70.8454 663.25 L70.8454 665.151 L68.7842 665.151 L68.7842 653.943 Q68.7842 653.009 68.913 652.751 Q69.0418 652.494 69.6537 652.043 L103.889 628.758 L75.7084 628.758 Q74.7101 628.758 74.1304 628.887 Q73.5507 629.016 72.6489 629.595 Q71.7471 630.143 71.2962 631.656 Q70.8454 633.17 70.8454 635.553 L68.7842 635.553 Q68.9774 628.629 68.9774 627.856 Q68.9774 627.051 68.7842 620.127 L70.8454 620.127 Q70.8454 622.51 71.2962 624.024 Q71.7471 625.537 72.6489 626.085 Q73.5507 626.632 74.1626 626.793 Q74.7423 626.922 75.7084 626.922 L112.133 626.922 Q113.196 626.922 113.518 627.051 Q113.84 627.18 113.84 627.824 Q113.84 628.275 112.971 628.951 L73.4218 655.875 Q73.0354 656.133 72.6167 656.519 L106.916 656.519 Q107.914 656.519 108.526 656.391 Q109.106 656.262 110.008 655.714 Q110.877 655.135 111.36 653.621 Q111.811 652.107 111.811 649.724 L113.84 649.724 Q113.647 656.648 113.647 657.453 Q113.647 658.226 113.84 665.151 Z" fill="#000000" fill-rule="nonzero" fill-opacity="1" /><path clip-path="url(#clip030)" d="M107.56 610.089 Q101.956 610.089 98.9933 603.487 Q97.0931 599.525 96.6101 591.345 L94.1946 591.345 Q90.1045 591.345 87.9467 593.503 Q85.7567 595.629 85.7567 598.334 Q85.7567 603.165 88.784 605.484 Q88.8484 603.519 89.8468 602.81 Q90.813 602.102 91.8114 602.102 Q93.1318 602.102 94.0014 602.939 Q94.8387 603.744 94.8387 605.129 Q94.8387 606.45 94.0336 607.319 Q93.1962 608.189 91.747 608.189 Q88.5264 608.189 86.4008 605.29 Q84.2752 602.36 84.2752 598.205 Q84.2752 592.794 87.9145 589.187 Q89.0417 588.06 90.4909 587.513 Q91.9402 586.933 92.9064 586.869 Q93.8403 586.804 95.7083 586.804 L108.88 586.804 Q109.267 586.804 109.911 586.675 Q110.555 586.546 111.393 585.967 Q112.198 585.355 112.198 584.356 Q112.198 581.973 107.979 582.005 L104.275 582.005 L104.275 580.331 L107.979 580.331 Q111.489 580.331 112.874 582.199 Q114.227 584.034 114.227 585.741 Q114.227 587.931 112.616 589.316 Q111.006 590.701 108.816 590.894 Q111.328 591.893 112.971 594.179 Q114.581 596.434 114.581 599.525 Q114.581 601.909 113.969 604.163 Q113.389 606.385 111.747 608.253 Q110.072 610.089 107.56 610.089 M107.496 605 Q109.943 605 111.521 603.261 Q113.099 601.522 113.099 599.075 Q113.099 596.305 110.974 593.825 Q108.816 591.345 104.597 591.345 L97.9949 591.345 Q98.2526 598.656 101.183 601.844 Q104.082 605 107.496 605 Z" fill="#000000" fill-rule="nonzero" fill-opacity="1" /><path clip-path="url(#clip030)" d="M99.6696 577.425 Q93.3895 577.425 89.0417 573.045 Q84.6939 568.665 84.6939 562.739 Q84.6939 557.715 88.784 554.43 L74.5168 554.43 Q72.0692 554.43 71.4573 555.299 Q70.8454 556.137 70.8454 559.551 L68.7842 559.551 L68.0757 550.05 L108.108 550.05 Q110.555 550.05 111.199 549.213 Q111.811 548.343 111.811 544.929 L113.84 544.929 L114.581 554.623 L110.201 554.623 Q114.549 558.037 114.581 563.448 Q114.581 569.116 110.233 573.27 Q105.885 577.425 99.6696 577.425 M99.734 571.95 Q105.853 571.95 108.88 570.05 Q113.099 567.409 113.099 563.126 Q113.099 558.23 108.494 555.332 Q107.367 554.591 106.046 554.623 L92.5199 554.623 Q91.1995 554.623 90.1045 555.332 Q86.1431 558.037 86.1431 562.449 Q86.1431 567.055 90.3621 569.921 Q93.5183 571.95 99.734 571.95 Z" fill="#000000" fill-rule="nonzero" fill-opacity="1" /><path clip-path="url(#clip030)" d="M113.84 542.508 L111.811 542.508 Q111.811 538.998 111.393 538.193 Q110.942 537.387 108.816 537.387 L91.0706 537.387 Q88.623 537.387 88.0433 538.225 Q87.4636 539.03 87.4636 542.251 L85.4024 542.251 L84.6939 533.04 L108.88 533.04 Q110.845 533.04 111.328 532.331 Q111.811 531.623 111.811 528.402 L113.84 528.402 Q113.647 535.133 113.647 535.262 Q113.647 536.164 113.84 542.508 M73.1964 539.739 Q71.876 539.739 70.8132 538.74 Q69.7182 537.71 69.7182 536.26 Q69.7182 534.811 70.7165 533.78 Q71.6827 532.75 73.2286 532.75 Q74.7423 532.75 75.7407 533.78 Q76.7068 534.811 76.7068 536.26 Q76.7068 537.774 75.644 538.772 Q74.5812 539.739 73.1964 539.739 Z" fill="#000000" fill-rule="nonzero" fill-opacity="1" /><path clip-path="url(#clip030)" d="M113.84 523.894 L111.811 523.894 Q111.811 520.383 111.393 519.578 Q110.942 518.741 108.816 518.741 L91.1351 518.741 Q88.6874 518.741 88.0755 519.61 Q87.4636 520.448 87.4636 523.894 L85.4024 523.894 L84.6939 514.715 L91.9402 514.715 Q89.1061 513.781 86.9161 511.817 Q84.6939 509.82 84.6939 506.599 Q84.6939 504.474 85.8855 503.121 Q87.0771 501.736 88.7196 501.736 Q90.1689 501.736 90.9096 502.638 Q91.6181 503.507 91.6181 504.57 Q91.6181 505.762 90.8774 506.599 Q90.1045 507.404 88.784 507.404 Q87.9789 507.404 87.367 507.05 Q86.7229 506.664 86.4974 506.374 Q86.272 506.084 86.2076 505.891 Q86.1431 506.02 86.1431 506.599 Q86.1431 510.238 89.7824 512.332 Q93.3895 514.393 98.5424 514.393 L108.687 514.393 Q110.587 514.393 111.199 513.62 Q111.811 512.815 111.811 509.369 L111.811 507.984 L113.84 507.984 Q113.647 510.625 113.647 516.358 Q113.647 517.163 113.679 518.419 Q113.711 519.675 113.776 521.317 Q113.84 522.96 113.84 523.894 Z" fill="#000000" fill-rule="nonzero" fill-opacity="1" /><path clip-path="url(#clip030)" d="M129.396 489.661 Q129.074 489.661 128.365 489.403 L66.1433 466.118 Q66.0789 466.118 65.7246 465.957 Q65.3704 465.796 65.1449 465.699 Q64.8873 465.603 64.694 465.41 Q64.5008 465.184 64.5008 464.926 Q64.5008 464.282 65.306 464.282 Q65.3704 464.282 66.1433 464.476 L128.429 487.825 Q129.557 488.211 129.879 488.469 Q130.201 488.694 130.201 489.081 Q130.201 489.661 129.396 489.661 Z" fill="#000000" fill-rule="nonzero" fill-opacity="1" /><path clip-path="url(#clip030)" d="M113.84 448.282 L111.811 448.282 L111.811 446.704 Q111.811 443.129 111.232 442.324 Q110.62 441.487 108.687 441.487 L73.9371 441.487 Q72.037 441.487 71.4573 442.324 Q70.8454 443.161 70.8454 446.704 L70.8454 448.282 L68.7842 448.282 Q68.9774 445.963 68.9774 438.524 Q68.9774 431.149 68.7842 428.83 L70.8454 428.83 L70.8454 430.408 Q70.8454 433.983 71.4573 434.82 Q72.037 435.625 73.9371 435.625 L89.3637 435.625 L89.3637 415.915 L73.9371 415.915 Q72.037 415.915 71.4573 416.753 Q70.8454 417.558 70.8454 421.133 L70.8454 422.711 L68.7842 422.711 Q68.9774 420.392 68.9774 412.952 Q68.9774 405.577 68.7842 403.258 L70.8454 403.258 L70.8454 404.836 Q70.8454 408.411 71.4573 409.249 Q72.037 410.054 73.9371 410.054 L108.687 410.054 Q110.587 410.054 111.199 409.216 Q111.811 408.379 111.811 404.836 L111.811 403.258 L113.84 403.258 Q113.647 405.577 113.647 413.017 Q113.647 420.392 113.84 422.711 L111.811 422.711 L111.811 421.133 Q111.811 417.558 111.232 416.753 Q110.62 415.915 108.687 415.915 L91.4249 415.915 L91.4249 435.625 L108.687 435.625 Q110.587 435.625 111.199 434.82 Q111.811 433.983 111.811 430.408 L111.811 428.83 L113.84 428.83 Q113.647 431.149 113.647 438.588 Q113.647 445.963 113.84 448.282 Z" fill="#000000" fill-rule="nonzero" fill-opacity="1" /><path clip-path="url(#clip030)" d="M112.906 395.326 Q112.455 395.326 111.715 394.714 L86.8517 376.325 L86.8517 383.829 Q86.8517 389.046 88.784 390.753 Q90.6842 392.427 96.0303 392.75 L96.0303 394.392 L85.4024 393.651 L85.4024 372.556 Q85.4024 371.816 85.4346 371.526 Q85.4668 371.236 85.6923 371.043 Q85.8855 370.85 86.272 370.85 Q86.6584 370.85 87.3992 371.429 L112.198 389.787 L112.198 381.993 Q112.198 376.518 109.911 374.682 Q107.624 372.814 101.505 372.363 L101.505 370.721 L113.84 371.848 L113.84 393.587 Q113.84 394.65 113.711 395.004 Q113.55 395.326 112.906 395.326 Z" fill="#000000" fill-rule="nonzero" fill-opacity="1" /><path clip-path="url(#clip032)" d="M269.703 574.571 L269.703 359.575 L279.354 359.575 L279.354 574.571 L269.703 574.571 L269.703 574.571  Z" fill="#7a3193" fill-rule="evenodd" fill-opacity="1"/>
<polyline clip-path="url(#clip032)" style="stroke:#000000; stroke-linecap:round; stroke-linejoin:round; stroke-width:0; stroke-opacity:1; fill:none" points="269.703,574.571 269.703,359.575 279.354,359.575 279.354,574.571 269.703,574.571 "/>
<path clip-path="url(#clip032)" d="M305.894 575.8 L305.894 359.575 L315.545 359.575 L315.545 575.8 L305.894 575.8 L305.894 575.8  Z" fill="#7a3193" fill-rule="evenodd" fill-opacity="1"/>
<polyline clip-path="url(#clip032)" style="stroke:#000000; stroke-linecap:round; stroke-linejoin:round; stroke-width:0; stroke-opacity:1; fill:none" points="305.894,575.8 305.894,359.575 315.545,359.575 315.545,575.8 305.894,575.8 "/>
<path clip-path="url(#clip032)" d="M342.085 574.495 L342.085 359.575 L351.735 359.575 L351.735 574.495 L342.085 574.495 L342.085 574.495  Z" fill="#7a3193" fill-rule="evenodd" fill-opacity="1"/>
<polyline clip-path="url(#clip032)" style="stroke:#000000; stroke-linecap:round; stroke-linejoin:round; stroke-width:0; stroke-opacity:1; fill:none" points="342.085,574.495 342.085,359.575 351.735,359.575 351.735,574.495 342.085,574.495 "/>
<path clip-path="url(#clip032)" d="M378.275 573.175 L378.275 359.575 L387.926 359.575 L387.926 573.175 L378.275 573.175 L378.275 573.175  Z" fill="#7a3193" fill-rule="evenodd" fill-opacity="1"/>
<polyline clip-path="url(#clip032)" style="stroke:#000000; stroke-linecap:round; stroke-linejoin:round; stroke-width:0; stroke-opacity:1; fill:none" points="378.275,573.175 378.275,359.575 387.926,359.575 387.926,573.175 378.275,573.175 "/>
<path clip-path="url(#clip032)" d="M414.466 571.798 L414.466 359.575 L424.117 359.575 L424.117 571.798 L414.466 571.798 L414.466 571.798  Z" fill="#7a3193" fill-rule="evenodd" fill-opacity="1"/>
<polyline clip-path="url(#clip032)" style="stroke:#000000; stroke-linecap:round; stroke-linejoin:round; stroke-width:0; stroke-opacity:1; fill:none" points="414.466,571.798 414.466,359.575 424.117,359.575 424.117,571.798 414.466,571.798 "/>
<path clip-path="url(#clip032)" d="M450.657 575.655 L450.657 359.575 L460.307 359.575 L460.307 575.655 L450.657 575.655 L450.657 575.655  Z" fill="#7a3193" fill-rule="evenodd" fill-opacity="1"/>
<polyline clip-path="url(#clip032)" style="stroke:#000000; stroke-linecap:round; stroke-linejoin:round; stroke-width:0; stroke-opacity:1; fill:none" points="450.657,575.655 450.657,359.575 460.307,359.575 460.307,575.655 450.657,575.655 "/>
<path clip-path="url(#clip032)" d="M486.847 574.019 L486.847 359.575 L496.498 359.575 L496.498 574.019 L486.847 574.019 L486.847 574.019  Z" fill="#7a3193" fill-rule="evenodd" fill-opacity="1"/>
<polyline clip-path="url(#clip032)" style="stroke:#000000; stroke-linecap:round; stroke-linejoin:round; stroke-width:0; stroke-opacity:1; fill:none" points="486.847,574.019 486.847,359.575 496.498,359.575 496.498,574.019 486.847,574.019 "/>
<path clip-path="url(#clip032)" d="M523.038 573.166 L523.038 359.575 L532.689 359.575 L532.689 573.166 L523.038 573.166 L523.038 573.166  Z" fill="#7a3193" fill-rule="evenodd" fill-opacity="1"/>
<polyline clip-path="url(#clip032)" style="stroke:#000000; stroke-linecap:round; stroke-linejoin:round; stroke-width:0; stroke-opacity:1; fill:none" points="523.038,573.166 523.038,359.575 532.689,359.575 532.689,573.166 523.038,573.166 "/>
<path clip-path="url(#clip032)" d="M559.229 573.331 L559.229 359.575 L568.88 359.575 L568.88 573.331 L559.229 573.331 L559.229 573.331  Z" fill="#7a3193" fill-rule="evenodd" fill-opacity="1"/>
<polyline clip-path="url(#clip032)" style="stroke:#000000; stroke-linecap:round; stroke-linejoin:round; stroke-width:0; stroke-opacity:1; fill:none" points="559.229,573.331 559.229,359.575 568.88,359.575 568.88,573.331 559.229,573.331 "/>
<path clip-path="url(#clip032)" d="M595.419 572.887 L595.419 359.575 L605.07 359.575 L605.07 572.887 L595.419 572.887 L595.419 572.887  Z" fill="#7a3193" fill-rule="evenodd" fill-opacity="1"/>
<polyline clip-path="url(#clip032)" style="stroke:#000000; stroke-linecap:round; stroke-linejoin:round; stroke-width:0; stroke-opacity:1; fill:none" points="595.419,572.887 595.419,359.575 605.07,359.575 605.07,572.887 595.419,572.887 "/>
<path clip-path="url(#clip032)" d="M631.61 569.235 L631.61 359.575 L641.261 359.575 L641.261 569.235 L631.61 569.235 L631.61 569.235  Z" fill="#7a3193" fill-rule="evenodd" fill-opacity="1"/>
<polyline clip-path="url(#clip032)" style="stroke:#000000; stroke-linecap:round; stroke-linejoin:round; stroke-width:0; stroke-opacity:1; fill:none" points="631.61,569.235 631.61,359.575 641.261,359.575 641.261,569.235 631.61,569.235 "/>
<path clip-path="url(#clip032)" d="M667.801 574.576 L667.801 359.575 L677.452 359.575 L677.452 574.576 L667.801 574.576 L667.801 574.576  Z" fill="#7a3193" fill-rule="evenodd" fill-opacity="1"/>
<polyline clip-path="url(#clip032)" style="stroke:#000000; stroke-linecap:round; stroke-linejoin:round; stroke-width:0; stroke-opacity:1; fill:none" points="667.801,574.576 667.801,359.575 677.452,359.575 677.452,574.576 667.801,574.576 "/>
<path clip-path="url(#clip032)" d="M703.991 572.869 L703.991 359.575 L713.642 359.575 L713.642 572.869 L703.991 572.869 L703.991 572.869  Z" fill="#7a3193" fill-rule="evenodd" fill-opacity="1"/>
<polyline clip-path="url(#clip032)" style="stroke:#000000; stroke-linecap:round; stroke-linejoin:round; stroke-width:0; stroke-opacity:1; fill:none" points="703.991,572.869 703.991,359.575 713.642,359.575 713.642,572.869 703.991,572.869 "/>
<path clip-path="url(#clip032)" d="M740.182 576.625 L740.182 359.575 L749.833 359.575 L749.833 576.625 L740.182 576.625 L740.182 576.625  Z" fill="#7a3193" fill-rule="evenodd" fill-opacity="1"/>
<polyline clip-path="url(#clip032)" style="stroke:#000000; stroke-linecap:round; stroke-linejoin:round; stroke-width:0; stroke-opacity:1; fill:none" points="740.182,576.625 740.182,359.575 749.833,359.575 749.833,576.625 740.182,576.625 "/>
<path clip-path="url(#clip032)" d="M776.373 571.996 L776.373 359.575 L786.024 359.575 L786.024 571.996 L776.373 571.996 L776.373 571.996  Z" fill="#7a3193" fill-rule="evenodd" fill-opacity="1"/>
<polyline clip-path="url(#clip032)" style="stroke:#000000; stroke-linecap:round; stroke-linejoin:round; stroke-width:0; stroke-opacity:1; fill:none" points="776.373,571.996 776.373,359.575 786.024,359.575 786.024,571.996 776.373,571.996 "/>
<path clip-path="url(#clip032)" d="M812.563 572.776 L812.563 359.575 L822.214 359.575 L822.214 572.776 L812.563 572.776 L812.563 572.776  Z" fill="#7a3193" fill-rule="evenodd" fill-opacity="1"/>
<polyline clip-path="url(#clip032)" style="stroke:#000000; stroke-linecap:round; stroke-linejoin:round; stroke-width:0; stroke-opacity:1; fill:none" points="812.563,572.776 812.563,359.575 822.214,359.575 822.214,572.776 812.563,572.776 "/>
<path clip-path="url(#clip032)" d="M848.754 569.915 L848.754 359.575 L858.405 359.575 L858.405 569.915 L848.754 569.915 L848.754 569.915  Z" fill="#7a3193" fill-rule="evenodd" fill-opacity="1"/>
<polyline clip-path="url(#clip032)" style="stroke:#000000; stroke-linecap:round; stroke-linejoin:round; stroke-width:0; stroke-opacity:1; fill:none" points="848.754,569.915 848.754,359.575 858.405,359.575 858.405,569.915 848.754,569.915 "/>
<path clip-path="url(#clip032)" d="M884.945 570.23 L884.945 359.575 L894.596 359.575 L894.596 570.23 L884.945 570.23 L884.945 570.23  Z" fill="#7a3193" fill-rule="evenodd" fill-opacity="1"/>
<polyline clip-path="url(#clip032)" style="stroke:#000000; stroke-linecap:round; stroke-linejoin:round; stroke-width:0; stroke-opacity:1; fill:none" points="884.945,570.23 884.945,359.575 894.596,359.575 894.596,570.23 884.945,570.23 "/>
<path clip-path="url(#clip032)" d="M921.136 570.342 L921.136 359.575 L930.786 359.575 L930.786 570.342 L921.136 570.342 L921.136 570.342  Z" fill="#7a3193" fill-rule="evenodd" fill-opacity="1"/>
<polyline clip-path="url(#clip032)" style="stroke:#000000; stroke-linecap:round; stroke-linejoin:round; stroke-width:0; stroke-opacity:1; fill:none" points="921.136,570.342 921.136,359.575 930.786,359.575 930.786,570.342 921.136,570.342 "/>
<path clip-path="url(#clip032)" d="M957.326 572.464 L957.326 359.575 L966.977 359.575 L966.977 572.464 L957.326 572.464 L957.326 572.464  Z" fill="#7a3193" fill-rule="evenodd" fill-opacity="1"/>
<polyline clip-path="url(#clip032)" style="stroke:#000000; stroke-linecap:round; stroke-linejoin:round; stroke-width:0; stroke-opacity:1; fill:none" points="957.326,572.464 957.326,359.575 966.977,359.575 966.977,572.464 957.326,572.464 "/>
<path clip-path="url(#clip032)" d="M993.517 573.199 L993.517 359.575 L1003.17 359.575 L1003.17 573.199 L993.517 573.199 L993.517 573.199  Z" fill="#7a3193" fill-rule="evenodd" fill-opacity="1"/>
<polyline clip-path="url(#clip032)" style="stroke:#000000; stroke-linecap:round; stroke-linejoin:round; stroke-width:0; stroke-opacity:1; fill:none" points="993.517,573.199 993.517,359.575 1003.17,359.575 1003.17,573.199 993.517,573.199 "/>
<path clip-path="url(#clip032)" d="M1029.71 569.581 L1029.71 359.575 L1039.36 359.575 L1039.36 569.581 L1029.71 569.581 L1029.71 569.581  Z" fill="#7a3193" fill-rule="evenodd" fill-opacity="1"/>
<polyline clip-path="url(#clip032)" style="stroke:#000000; stroke-linecap:round; stroke-linejoin:round; stroke-width:0; stroke-opacity:1; fill:none" points="1029.71,569.581 1029.71,359.575 1039.36,359.575 1039.36,569.581 1029.71,569.581 "/>
<path clip-path="url(#clip032)" d="M1065.9 571.705 L1065.9 359.575 L1075.55 359.575 L1075.55 571.705 L1065.9 571.705 L1065.9 571.705  Z" fill="#7a3193" fill-rule="evenodd" fill-opacity="1"/>
<polyline clip-path="url(#clip032)" style="stroke:#000000; stroke-linecap:round; stroke-linejoin:round; stroke-width:0; stroke-opacity:1; fill:none" points="1065.9,571.705 1065.9,359.575 1075.55,359.575 1075.55,571.705 1065.9,571.705 "/>
<path clip-path="url(#clip032)" d="M1102.09 571.481 L1102.09 359.575 L1111.74 359.575 L1111.74 571.481 L1102.09 571.481 L1102.09 571.481  Z" fill="#7a3193" fill-rule="evenodd" fill-opacity="1"/>
<polyline clip-path="url(#clip032)" style="stroke:#000000; stroke-linecap:round; stroke-linejoin:round; stroke-width:0; stroke-opacity:1; fill:none" points="1102.09,571.481 1102.09,359.575 1111.74,359.575 1111.74,571.481 1102.09,571.481 "/>
<circle clip-path="url(#clip032)" style="fill:#7a3193; stroke:none; fill-opacity:0" cx="274.529" cy="574.571" r="2"/>
<circle clip-path="url(#clip032)" style="fill:#7a3193; stroke:none; fill-opacity:0" cx="310.719" cy="575.8" r="2"/>
<circle clip-path="url(#clip032)" style="fill:#7a3193; stroke:none; fill-opacity:0" cx="346.91" cy="574.495" r="2"/>
<circle clip-path="url(#clip032)" style="fill:#7a3193; stroke:none; fill-opacity:0" cx="383.101" cy="573.175" r="2"/>
<circle clip-path="url(#clip032)" style="fill:#7a3193; stroke:none; fill-opacity:0" cx="419.291" cy="571.798" r="2"/>
<circle clip-path="url(#clip032)" style="fill:#7a3193; stroke:none; fill-opacity:0" cx="455.482" cy="575.655" r="2"/>
<circle clip-path="url(#clip032)" style="fill:#7a3193; stroke:none; fill-opacity:0" cx="491.673" cy="574.019" r="2"/>
<circle clip-path="url(#clip032)" style="fill:#7a3193; stroke:none; fill-opacity:0" cx="527.863" cy="573.166" r="2"/>
<circle clip-path="url(#clip032)" style="fill:#7a3193; stroke:none; fill-opacity:0" cx="564.054" cy="573.331" r="2"/>
<circle clip-path="url(#clip032)" style="fill:#7a3193; stroke:none; fill-opacity:0" cx="600.245" cy="572.887" r="2"/>
<circle clip-path="url(#clip032)" style="fill:#7a3193; stroke:none; fill-opacity:0" cx="636.435" cy="569.235" r="2"/>
<circle clip-path="url(#clip032)" style="fill:#7a3193; stroke:none; fill-opacity:0" cx="672.626" cy="574.576" r="2"/>
<circle clip-path="url(#clip032)" style="fill:#7a3193; stroke:none; fill-opacity:0" cx="708.817" cy="572.869" r="2"/>
<circle clip-path="url(#clip032)" style="fill:#7a3193; stroke:none; fill-opacity:0" cx="745.008" cy="576.625" r="2"/>
<circle clip-path="url(#clip032)" style="fill:#7a3193; stroke:none; fill-opacity:0" cx="781.198" cy="571.996" r="2"/>
<circle clip-path="url(#clip032)" style="fill:#7a3193; stroke:none; fill-opacity:0" cx="817.389" cy="572.776" r="2"/>
<circle clip-path="url(#clip032)" style="fill:#7a3193; stroke:none; fill-opacity:0" cx="853.58" cy="569.915" r="2"/>
<circle clip-path="url(#clip032)" style="fill:#7a3193; stroke:none; fill-opacity:0" cx="889.77" cy="570.23" r="2"/>
<circle clip-path="url(#clip032)" style="fill:#7a3193; stroke:none; fill-opacity:0" cx="925.961" cy="570.342" r="2"/>
<circle clip-path="url(#clip032)" style="fill:#7a3193; stroke:none; fill-opacity:0" cx="962.152" cy="572.464" r="2"/>
<circle clip-path="url(#clip032)" style="fill:#7a3193; stroke:none; fill-opacity:0" cx="998.342" cy="573.199" r="2"/>
<circle clip-path="url(#clip032)" style="fill:#7a3193; stroke:none; fill-opacity:0" cx="1034.53" cy="569.581" r="2"/>
<circle clip-path="url(#clip032)" style="fill:#7a3193; stroke:none; fill-opacity:0" cx="1070.72" cy="571.705" r="2"/>
<circle clip-path="url(#clip032)" style="fill:#7a3193; stroke:none; fill-opacity:0" cx="1106.91" cy="571.481" r="2"/>
<path clip-path="url(#clip032)" d="M279.354 526.734 L279.354 359.575 L289.005 359.575 L289.005 526.734 L279.354 526.734 L279.354 526.734  Z" fill="#c2a4cf" fill-rule="evenodd" fill-opacity="1"/>
<polyline clip-path="url(#clip032)" style="stroke:#000000; stroke-linecap:round; stroke-linejoin:round; stroke-width:0; stroke-opacity:1; fill:none" points="279.354,526.734 279.354,359.575 289.005,359.575 289.005,526.734 279.354,526.734 "/>
<path clip-path="url(#clip032)" d="M315.545 526.734 L315.545 359.575 L325.196 359.575 L325.196 526.734 L315.545 526.734 L315.545 526.734  Z" fill="#c2a4cf" fill-rule="evenodd" fill-opacity="1"/>
<polyline clip-path="url(#clip032)" style="stroke:#000000; stroke-linecap:round; stroke-linejoin:round; stroke-width:0; stroke-opacity:1; fill:none" points="315.545,526.734 315.545,359.575 325.196,359.575 325.196,526.734 315.545,526.734 "/>
<path clip-path="url(#clip032)" d="M351.735 526.734 L351.735 359.575 L361.386 359.575 L361.386 526.734 L351.735 526.734 L351.735 526.734  Z" fill="#c2a4cf" fill-rule="evenodd" fill-opacity="1"/>
<polyline clip-path="url(#clip032)" style="stroke:#000000; stroke-linecap:round; stroke-linejoin:round; stroke-width:0; stroke-opacity:1; fill:none" points="351.735,526.734 351.735,359.575 361.386,359.575 361.386,526.734 351.735,526.734 "/>
<path clip-path="url(#clip032)" d="M387.926 526.734 L387.926 359.575 L397.577 359.575 L397.577 526.734 L387.926 526.734 L387.926 526.734  Z" fill="#c2a4cf" fill-rule="evenodd" fill-opacity="1"/>
<polyline clip-path="url(#clip032)" style="stroke:#000000; stroke-linecap:round; stroke-linejoin:round; stroke-width:0; stroke-opacity:1; fill:none" points="387.926,526.734 387.926,359.575 397.577,359.575 397.577,526.734 387.926,526.734 "/>
<path clip-path="url(#clip032)" d="M424.117 526.734 L424.117 359.575 L433.768 359.575 L433.768 526.734 L424.117 526.734 L424.117 526.734  Z" fill="#c2a4cf" fill-rule="evenodd" fill-opacity="1"/>
<polyline clip-path="url(#clip032)" style="stroke:#000000; stroke-linecap:round; stroke-linejoin:round; stroke-width:0; stroke-opacity:1; fill:none" points="424.117,526.734 424.117,359.575 433.768,359.575 433.768,526.734 424.117,526.734 "/>
<path clip-path="url(#clip032)" d="M460.307 526.734 L460.307 359.575 L469.958 359.575 L469.958 526.734 L460.307 526.734 L460.307 526.734  Z" fill="#c2a4cf" fill-rule="evenodd" fill-opacity="1"/>
<polyline clip-path="url(#clip032)" style="stroke:#000000; stroke-linecap:round; stroke-linejoin:round; stroke-width:0; stroke-opacity:1; fill:none" points="460.307,526.734 460.307,359.575 469.958,359.575 469.958,526.734 460.307,526.734 "/>
<path clip-path="url(#clip032)" d="M496.498 526.734 L496.498 359.575 L506.149 359.575 L506.149 526.734 L496.498 526.734 L496.498 526.734  Z" fill="#c2a4cf" fill-rule="evenodd" fill-opacity="1"/>
<polyline clip-path="url(#clip032)" style="stroke:#000000; stroke-linecap:round; stroke-linejoin:round; stroke-width:0; stroke-opacity:1; fill:none" points="496.498,526.734 496.498,359.575 506.149,359.575 506.149,526.734 496.498,526.734 "/>
<path clip-path="url(#clip032)" d="M532.689 526.734 L532.689 359.575 L542.34 359.575 L542.34 526.734 L532.689 526.734 L532.689 526.734  Z" fill="#c2a4cf" fill-rule="evenodd" fill-opacity="1"/>
<polyline clip-path="url(#clip032)" style="stroke:#000000; stroke-linecap:round; stroke-linejoin:round; stroke-width:0; stroke-opacity:1; fill:none" points="532.689,526.734 532.689,359.575 542.34,359.575 542.34,526.734 532.689,526.734 "/>
<path clip-path="url(#clip032)" d="M568.88 526.734 L568.88 359.575 L578.53 359.575 L578.53 526.734 L568.88 526.734 L568.88 526.734  Z" fill="#c2a4cf" fill-rule="evenodd" fill-opacity="1"/>
<polyline clip-path="url(#clip032)" style="stroke:#000000; stroke-linecap:round; stroke-linejoin:round; stroke-width:0; stroke-opacity:1; fill:none" points="568.88,526.734 568.88,359.575 578.53,359.575 578.53,526.734 568.88,526.734 "/>
<path clip-path="url(#clip032)" d="M605.07 526.734 L605.07 359.575 L614.721 359.575 L614.721 526.734 L605.07 526.734 L605.07 526.734  Z" fill="#c2a4cf" fill-rule="evenodd" fill-opacity="1"/>
<polyline clip-path="url(#clip032)" style="stroke:#000000; stroke-linecap:round; stroke-linejoin:round; stroke-width:0; stroke-opacity:1; fill:none" points="605.07,526.734 605.07,359.575 614.721,359.575 614.721,526.734 605.07,526.734 "/>
<path clip-path="url(#clip032)" d="M641.261 526.734 L641.261 359.575 L650.912 359.575 L650.912 526.734 L641.261 526.734 L641.261 526.734  Z" fill="#c2a4cf" fill-rule="evenodd" fill-opacity="1"/>
<polyline clip-path="url(#clip032)" style="stroke:#000000; stroke-linecap:round; stroke-linejoin:round; stroke-width:0; stroke-opacity:1; fill:none" points="641.261,526.734 641.261,359.575 650.912,359.575 650.912,526.734 641.261,526.734 "/>
<path clip-path="url(#clip032)" d="M677.452 526.734 L677.452 359.575 L687.102 359.575 L687.102 526.734 L677.452 526.734 L677.452 526.734  Z" fill="#c2a4cf" fill-rule="evenodd" fill-opacity="1"/>
<polyline clip-path="url(#clip032)" style="stroke:#000000; stroke-linecap:round; stroke-linejoin:round; stroke-width:0; stroke-opacity:1; fill:none" points="677.452,526.734 677.452,359.575 687.102,359.575 687.102,526.734 677.452,526.734 "/>
<path clip-path="url(#clip032)" d="M713.642 526.734 L713.642 359.575 L723.293 359.575 L723.293 526.734 L713.642 526.734 L713.642 526.734  Z" fill="#c2a4cf" fill-rule="evenodd" fill-opacity="1"/>
<polyline clip-path="url(#clip032)" style="stroke:#000000; stroke-linecap:round; stroke-linejoin:round; stroke-width:0; stroke-opacity:1; fill:none" points="713.642,526.734 713.642,359.575 723.293,359.575 723.293,526.734 713.642,526.734 "/>
<path clip-path="url(#clip032)" d="M749.833 526.734 L749.833 359.575 L759.484 359.575 L759.484 526.734 L749.833 526.734 L749.833 526.734  Z" fill="#c2a4cf" fill-rule="evenodd" fill-opacity="1"/>
<polyline clip-path="url(#clip032)" style="stroke:#000000; stroke-linecap:round; stroke-linejoin:round; stroke-width:0; stroke-opacity:1; fill:none" points="749.833,526.734 749.833,359.575 759.484,359.575 759.484,526.734 749.833,526.734 "/>
<path clip-path="url(#clip032)" d="M786.024 526.734 L786.024 359.575 L795.674 359.575 L795.674 526.734 L786.024 526.734 L786.024 526.734  Z" fill="#c2a4cf" fill-rule="evenodd" fill-opacity="1"/>
<polyline clip-path="url(#clip032)" style="stroke:#000000; stroke-linecap:round; stroke-linejoin:round; stroke-width:0; stroke-opacity:1; fill:none" points="786.024,526.734 786.024,359.575 795.674,359.575 795.674,526.734 786.024,526.734 "/>
<path clip-path="url(#clip032)" d="M822.214 526.734 L822.214 359.575 L831.865 359.575 L831.865 526.734 L822.214 526.734 L822.214 526.734  Z" fill="#c2a4cf" fill-rule="evenodd" fill-opacity="1"/>
<polyline clip-path="url(#clip032)" style="stroke:#000000; stroke-linecap:round; stroke-linejoin:round; stroke-width:0; stroke-opacity:1; fill:none" points="822.214,526.734 822.214,359.575 831.865,359.575 831.865,526.734 822.214,526.734 "/>
<path clip-path="url(#clip032)" d="M858.405 526.734 L858.405 359.575 L868.056 359.575 L868.056 526.734 L858.405 526.734 L858.405 526.734  Z" fill="#c2a4cf" fill-rule="evenodd" fill-opacity="1"/>
<polyline clip-path="url(#clip032)" style="stroke:#000000; stroke-linecap:round; stroke-linejoin:round; stroke-width:0; stroke-opacity:1; fill:none" points="858.405,526.734 858.405,359.575 868.056,359.575 868.056,526.734 858.405,526.734 "/>
<path clip-path="url(#clip032)" d="M894.596 526.734 L894.596 359.575 L904.247 359.575 L904.247 526.734 L894.596 526.734 L894.596 526.734  Z" fill="#c2a4cf" fill-rule="evenodd" fill-opacity="1"/>
<polyline clip-path="url(#clip032)" style="stroke:#000000; stroke-linecap:round; stroke-linejoin:round; stroke-width:0; stroke-opacity:1; fill:none" points="894.596,526.734 894.596,359.575 904.247,359.575 904.247,526.734 894.596,526.734 "/>
<path clip-path="url(#clip032)" d="M930.786 526.734 L930.786 359.575 L940.437 359.575 L940.437 526.734 L930.786 526.734 L930.786 526.734  Z" fill="#c2a4cf" fill-rule="evenodd" fill-opacity="1"/>
<polyline clip-path="url(#clip032)" style="stroke:#000000; stroke-linecap:round; stroke-linejoin:round; stroke-width:0; stroke-opacity:1; fill:none" points="930.786,526.734 930.786,359.575 940.437,359.575 940.437,526.734 930.786,526.734 "/>
<path clip-path="url(#clip032)" d="M966.977 526.734 L966.977 359.575 L976.628 359.575 L976.628 526.734 L966.977 526.734 L966.977 526.734  Z" fill="#c2a4cf" fill-rule="evenodd" fill-opacity="1"/>
<polyline clip-path="url(#clip032)" style="stroke:#000000; stroke-linecap:round; stroke-linejoin:round; stroke-width:0; stroke-opacity:1; fill:none" points="966.977,526.734 966.977,359.575 976.628,359.575 976.628,526.734 966.977,526.734 "/>
<path clip-path="url(#clip032)" d="M1003.17 526.734 L1003.17 359.575 L1012.82 359.575 L1012.82 526.734 L1003.17 526.734 L1003.17 526.734  Z" fill="#c2a4cf" fill-rule="evenodd" fill-opacity="1"/>
<polyline clip-path="url(#clip032)" style="stroke:#000000; stroke-linecap:round; stroke-linejoin:round; stroke-width:0; stroke-opacity:1; fill:none" points="1003.17,526.734 1003.17,359.575 1012.82,359.575 1012.82,526.734 1003.17,526.734 "/>
<path clip-path="url(#clip032)" d="M1039.36 526.734 L1039.36 359.575 L1049.01 359.575 L1049.01 526.734 L1039.36 526.734 L1039.36 526.734  Z" fill="#c2a4cf" fill-rule="evenodd" fill-opacity="1"/>
<polyline clip-path="url(#clip032)" style="stroke:#000000; stroke-linecap:round; stroke-linejoin:round; stroke-width:0; stroke-opacity:1; fill:none" points="1039.36,526.734 1039.36,359.575 1049.01,359.575 1049.01,526.734 1039.36,526.734 "/>
<path clip-path="url(#clip032)" d="M1075.55 526.734 L1075.55 359.575 L1085.2 359.575 L1085.2 526.734 L1075.55 526.734 L1075.55 526.734  Z" fill="#c2a4cf" fill-rule="evenodd" fill-opacity="1"/>
<polyline clip-path="url(#clip032)" style="stroke:#000000; stroke-linecap:round; stroke-linejoin:round; stroke-width:0; stroke-opacity:1; fill:none" points="1075.55,526.734 1075.55,359.575 1085.2,359.575 1085.2,526.734 1075.55,526.734 "/>
<path clip-path="url(#clip032)" d="M1111.74 526.734 L1111.74 359.575 L1121.39 359.575 L1121.39 526.734 L1111.74 526.734 L1111.74 526.734  Z" fill="#c2a4cf" fill-rule="evenodd" fill-opacity="1"/>
<polyline clip-path="url(#clip032)" style="stroke:#000000; stroke-linecap:round; stroke-linejoin:round; stroke-width:0; stroke-opacity:1; fill:none" points="1111.74,526.734 1111.74,359.575 1121.39,359.575 1121.39,526.734 1111.74,526.734 "/>
<circle clip-path="url(#clip032)" style="fill:#c2a4cf; stroke:none; fill-opacity:0" cx="284.179" cy="526.734" r="2"/>
<circle clip-path="url(#clip032)" style="fill:#c2a4cf; stroke:none; fill-opacity:0" cx="320.37" cy="526.734" r="2"/>
<circle clip-path="url(#clip032)" style="fill:#c2a4cf; stroke:none; fill-opacity:0" cx="356.561" cy="526.734" r="2"/>
<circle clip-path="url(#clip032)" style="fill:#c2a4cf; stroke:none; fill-opacity:0" cx="392.752" cy="526.734" r="2"/>
<circle clip-path="url(#clip032)" style="fill:#c2a4cf; stroke:none; fill-opacity:0" cx="428.942" cy="526.734" r="2"/>
<circle clip-path="url(#clip032)" style="fill:#c2a4cf; stroke:none; fill-opacity:0" cx="465.133" cy="526.734" r="2"/>
<circle clip-path="url(#clip032)" style="fill:#c2a4cf; stroke:none; fill-opacity:0" cx="501.324" cy="526.734" r="2"/>
<circle clip-path="url(#clip032)" style="fill:#c2a4cf; stroke:none; fill-opacity:0" cx="537.514" cy="526.734" r="2"/>
<circle clip-path="url(#clip032)" style="fill:#c2a4cf; stroke:none; fill-opacity:0" cx="573.705" cy="526.734" r="2"/>
<circle clip-path="url(#clip032)" style="fill:#c2a4cf; stroke:none; fill-opacity:0" cx="609.896" cy="526.734" r="2"/>
<circle clip-path="url(#clip032)" style="fill:#c2a4cf; stroke:none; fill-opacity:0" cx="646.086" cy="526.734" r="2"/>
<circle clip-path="url(#clip032)" style="fill:#c2a4cf; stroke:none; fill-opacity:0" cx="682.277" cy="526.734" r="2"/>
<circle clip-path="url(#clip032)" style="fill:#c2a4cf; stroke:none; fill-opacity:0" cx="718.468" cy="526.734" r="2"/>
<circle clip-path="url(#clip032)" style="fill:#c2a4cf; stroke:none; fill-opacity:0" cx="754.658" cy="526.734" r="2"/>
<circle clip-path="url(#clip032)" style="fill:#c2a4cf; stroke:none; fill-opacity:0" cx="790.849" cy="526.734" r="2"/>
<circle clip-path="url(#clip032)" style="fill:#c2a4cf; stroke:none; fill-opacity:0" cx="827.04" cy="526.734" r="2"/>
<circle clip-path="url(#clip032)" style="fill:#c2a4cf; stroke:none; fill-opacity:0" cx="863.23" cy="526.734" r="2"/>
<circle clip-path="url(#clip032)" style="fill:#c2a4cf; stroke:none; fill-opacity:0" cx="899.421" cy="526.734" r="2"/>
<circle clip-path="url(#clip032)" style="fill:#c2a4cf; stroke:none; fill-opacity:0" cx="935.612" cy="526.734" r="2"/>
<circle clip-path="url(#clip032)" style="fill:#c2a4cf; stroke:none; fill-opacity:0" cx="971.802" cy="526.734" r="2"/>
<circle clip-path="url(#clip032)" style="fill:#c2a4cf; stroke:none; fill-opacity:0" cx="1007.99" cy="526.734" r="2"/>
<circle clip-path="url(#clip032)" style="fill:#c2a4cf; stroke:none; fill-opacity:0" cx="1044.18" cy="526.734" r="2"/>
<circle clip-path="url(#clip032)" style="fill:#c2a4cf; stroke:none; fill-opacity:0" cx="1080.37" cy="526.734" r="2"/>
<circle clip-path="url(#clip032)" style="fill:#c2a4cf; stroke:none; fill-opacity:0" cx="1116.57" cy="526.734" r="2"/>
<path clip-path="url(#clip032)" d="M289.005 779.166 L289.005 359.575 L298.656 359.575 L298.656 779.166 L289.005 779.166 L289.005 779.166  Z" fill="#a6db9f" fill-rule="evenodd" fill-opacity="1"/>
<polyline clip-path="url(#clip032)" style="stroke:#000000; stroke-linecap:round; stroke-linejoin:round; stroke-width:0; stroke-opacity:1; fill:none" points="289.005,779.166 289.005,359.575 298.656,359.575 298.656,779.166 289.005,779.166 "/>
<path clip-path="url(#clip032)" d="M325.196 779.166 L325.196 359.575 L334.846 359.575 L334.846 779.166 L325.196 779.166 L325.196 779.166  Z" fill="#a6db9f" fill-rule="evenodd" fill-opacity="1"/>
<polyline clip-path="url(#clip032)" style="stroke:#000000; stroke-linecap:round; stroke-linejoin:round; stroke-width:0; stroke-opacity:1; fill:none" points="325.196,779.166 325.196,359.575 334.846,359.575 334.846,779.166 325.196,779.166 "/>
<path clip-path="url(#clip032)" d="M361.386 779.166 L361.386 359.575 L371.037 359.575 L371.037 779.166 L361.386 779.166 L361.386 779.166  Z" fill="#a6db9f" fill-rule="evenodd" fill-opacity="1"/>
<polyline clip-path="url(#clip032)" style="stroke:#000000; stroke-linecap:round; stroke-linejoin:round; stroke-width:0; stroke-opacity:1; fill:none" points="361.386,779.166 361.386,359.575 371.037,359.575 371.037,779.166 361.386,779.166 "/>
<path clip-path="url(#clip032)" d="M397.577 779.166 L397.577 359.575 L407.228 359.575 L407.228 779.166 L397.577 779.166 L397.577 779.166  Z" fill="#a6db9f" fill-rule="evenodd" fill-opacity="1"/>
<polyline clip-path="url(#clip032)" style="stroke:#000000; stroke-linecap:round; stroke-linejoin:round; stroke-width:0; stroke-opacity:1; fill:none" points="397.577,779.166 397.577,359.575 407.228,359.575 407.228,779.166 397.577,779.166 "/>
<path clip-path="url(#clip032)" d="M433.768 779.166 L433.768 359.575 L443.418 359.575 L443.418 779.166 L433.768 779.166 L433.768 779.166  Z" fill="#a6db9f" fill-rule="evenodd" fill-opacity="1"/>
<polyline clip-path="url(#clip032)" style="stroke:#000000; stroke-linecap:round; stroke-linejoin:round; stroke-width:0; stroke-opacity:1; fill:none" points="433.768,779.166 433.768,359.575 443.418,359.575 443.418,779.166 433.768,779.166 "/>
<path clip-path="url(#clip032)" d="M469.958 779.166 L469.958 359.575 L479.609 359.575 L479.609 779.166 L469.958 779.166 L469.958 779.166  Z" fill="#a6db9f" fill-rule="evenodd" fill-opacity="1"/>
<polyline clip-path="url(#clip032)" style="stroke:#000000; stroke-linecap:round; stroke-linejoin:round; stroke-width:0; stroke-opacity:1; fill:none" points="469.958,779.166 469.958,359.575 479.609,359.575 479.609,779.166 469.958,779.166 "/>
<path clip-path="url(#clip032)" d="M506.149 779.166 L506.149 359.575 L515.8 359.575 L515.8 779.166 L506.149 779.166 L506.149 779.166  Z" fill="#a6db9f" fill-rule="evenodd" fill-opacity="1"/>
<polyline clip-path="url(#clip032)" style="stroke:#000000; stroke-linecap:round; stroke-linejoin:round; stroke-width:0; stroke-opacity:1; fill:none" points="506.149,779.166 506.149,359.575 515.8,359.575 515.8,779.166 506.149,779.166 "/>
<path clip-path="url(#clip032)" d="M542.34 779.166 L542.34 359.575 L551.991 359.575 L551.991 779.166 L542.34 779.166 L542.34 779.166  Z" fill="#a6db9f" fill-rule="evenodd" fill-opacity="1"/>
<polyline clip-path="url(#clip032)" style="stroke:#000000; stroke-linecap:round; stroke-linejoin:round; stroke-width:0; stroke-opacity:1; fill:none" points="542.34,779.166 542.34,359.575 551.991,359.575 551.991,779.166 542.34,779.166 "/>
<path clip-path="url(#clip032)" d="M578.53 779.166 L578.53 359.575 L588.181 359.575 L588.181 779.166 L578.53 779.166 L578.53 779.166  Z" fill="#a6db9f" fill-rule="evenodd" fill-opacity="1"/>
<polyline clip-path="url(#clip032)" style="stroke:#000000; stroke-linecap:round; stroke-linejoin:round; stroke-width:0; stroke-opacity:1; fill:none" points="578.53,779.166 578.53,359.575 588.181,359.575 588.181,779.166 578.53,779.166 "/>
<path clip-path="url(#clip032)" d="M614.721 779.166 L614.721 359.575 L624.372 359.575 L624.372 779.166 L614.721 779.166 L614.721 779.166  Z" fill="#a6db9f" fill-rule="evenodd" fill-opacity="1"/>
<polyline clip-path="url(#clip032)" style="stroke:#000000; stroke-linecap:round; stroke-linejoin:round; stroke-width:0; stroke-opacity:1; fill:none" points="614.721,779.166 614.721,359.575 624.372,359.575 624.372,779.166 614.721,779.166 "/>
<path clip-path="url(#clip032)" d="M650.912 563.676 L650.912 359.575 L660.563 359.575 L660.563 563.676 L650.912 563.676 L650.912 563.676  Z" fill="#a6db9f" fill-rule="evenodd" fill-opacity="1"/>
<polyline clip-path="url(#clip032)" style="stroke:#000000; stroke-linecap:round; stroke-linejoin:round; stroke-width:0; stroke-opacity:1; fill:none" points="650.912,563.676 650.912,359.575 660.563,359.575 660.563,563.676 650.912,563.676 "/>
<path clip-path="url(#clip032)" d="M687.102 563.676 L687.102 359.575 L696.753 359.575 L696.753 563.676 L687.102 563.676 L687.102 563.676  Z" fill="#a6db9f" fill-rule="evenodd" fill-opacity="1"/>
<polyline clip-path="url(#clip032)" style="stroke:#000000; stroke-linecap:round; stroke-linejoin:round; stroke-width:0; stroke-opacity:1; fill:none" points="687.102,563.676 687.102,359.575 696.753,359.575 696.753,563.676 687.102,563.676 "/>
<path clip-path="url(#clip032)" d="M723.293 563.676 L723.293 359.575 L732.944 359.575 L732.944 563.676 L723.293 563.676 L723.293 563.676  Z" fill="#a6db9f" fill-rule="evenodd" fill-opacity="1"/>
<polyline clip-path="url(#clip032)" style="stroke:#000000; stroke-linecap:round; stroke-linejoin:round; stroke-width:0; stroke-opacity:1; fill:none" points="723.293,563.676 723.293,359.575 732.944,359.575 732.944,563.676 723.293,563.676 "/>
<path clip-path="url(#clip032)" d="M759.484 563.676 L759.484 359.575 L769.135 359.575 L769.135 563.676 L759.484 563.676 L759.484 563.676  Z" fill="#a6db9f" fill-rule="evenodd" fill-opacity="1"/>
<polyline clip-path="url(#clip032)" style="stroke:#000000; stroke-linecap:round; stroke-linejoin:round; stroke-width:0; stroke-opacity:1; fill:none" points="759.484,563.676 759.484,359.575 769.135,359.575 769.135,563.676 759.484,563.676 "/>
<path clip-path="url(#clip032)" d="M795.674 563.676 L795.674 359.575 L805.325 359.575 L805.325 563.676 L795.674 563.676 L795.674 563.676  Z" fill="#a6db9f" fill-rule="evenodd" fill-opacity="1"/>
<polyline clip-path="url(#clip032)" style="stroke:#000000; stroke-linecap:round; stroke-linejoin:round; stroke-width:0; stroke-opacity:1; fill:none" points="795.674,563.676 795.674,359.575 805.325,359.575 805.325,563.676 795.674,563.676 "/>
<path clip-path="url(#clip032)" d="M831.865 563.676 L831.865 359.575 L841.516 359.575 L841.516 563.676 L831.865 563.676 L831.865 563.676  Z" fill="#a6db9f" fill-rule="evenodd" fill-opacity="1"/>
<polyline clip-path="url(#clip032)" style="stroke:#000000; stroke-linecap:round; stroke-linejoin:round; stroke-width:0; stroke-opacity:1; fill:none" points="831.865,563.676 831.865,359.575 841.516,359.575 841.516,563.676 831.865,563.676 "/>
<path clip-path="url(#clip032)" d="M868.056 779.166 L868.056 359.575 L877.707 359.575 L877.707 779.166 L868.056 779.166 L868.056 779.166  Z" fill="#a6db9f" fill-rule="evenodd" fill-opacity="1"/>
<polyline clip-path="url(#clip032)" style="stroke:#000000; stroke-linecap:round; stroke-linejoin:round; stroke-width:0; stroke-opacity:1; fill:none" points="868.056,779.166 868.056,359.575 877.707,359.575 877.707,779.166 868.056,779.166 "/>
<path clip-path="url(#clip032)" d="M904.247 779.166 L904.247 359.575 L913.897 359.575 L913.897 779.166 L904.247 779.166 L904.247 779.166  Z" fill="#a6db9f" fill-rule="evenodd" fill-opacity="1"/>
<polyline clip-path="url(#clip032)" style="stroke:#000000; stroke-linecap:round; stroke-linejoin:round; stroke-width:0; stroke-opacity:1; fill:none" points="904.247,779.166 904.247,359.575 913.897,359.575 913.897,779.166 904.247,779.166 "/>
<path clip-path="url(#clip032)" d="M940.437 779.166 L940.437 359.575 L950.088 359.575 L950.088 779.166 L940.437 779.166 L940.437 779.166  Z" fill="#a6db9f" fill-rule="evenodd" fill-opacity="1"/>
<polyline clip-path="url(#clip032)" style="stroke:#000000; stroke-linecap:round; stroke-linejoin:round; stroke-width:0; stroke-opacity:1; fill:none" points="940.437,779.166 940.437,359.575 950.088,359.575 950.088,779.166 940.437,779.166 "/>
<path clip-path="url(#clip032)" d="M976.628 779.166 L976.628 359.575 L986.279 359.575 L986.279 779.166 L976.628 779.166 L976.628 779.166  Z" fill="#a6db9f" fill-rule="evenodd" fill-opacity="1"/>
<polyline clip-path="url(#clip032)" style="stroke:#000000; stroke-linecap:round; stroke-linejoin:round; stroke-width:0; stroke-opacity:1; fill:none" points="976.628,779.166 976.628,359.575 986.279,359.575 986.279,779.166 976.628,779.166 "/>
<path clip-path="url(#clip032)" d="M1012.82 779.166 L1012.82 359.575 L1022.47 359.575 L1022.47 779.166 L1012.82 779.166 L1012.82 779.166  Z" fill="#a6db9f" fill-rule="evenodd" fill-opacity="1"/>
<polyline clip-path="url(#clip032)" style="stroke:#000000; stroke-linecap:round; stroke-linejoin:round; stroke-width:0; stroke-opacity:1; fill:none" points="1012.82,779.166 1012.82,359.575 1022.47,359.575 1022.47,779.166 1012.82,779.166 "/>
<path clip-path="url(#clip032)" d="M1049.01 779.166 L1049.01 359.575 L1058.66 359.575 L1058.66 779.166 L1049.01 779.166 L1049.01 779.166  Z" fill="#a6db9f" fill-rule="evenodd" fill-opacity="1"/>
<polyline clip-path="url(#clip032)" style="stroke:#000000; stroke-linecap:round; stroke-linejoin:round; stroke-width:0; stroke-opacity:1; fill:none" points="1049.01,779.166 1049.01,359.575 1058.66,359.575 1058.66,779.166 1049.01,779.166 "/>
<path clip-path="url(#clip032)" d="M1085.2 779.166 L1085.2 359.575 L1094.85 359.575 L1094.85 779.166 L1085.2 779.166 L1085.2 779.166  Z" fill="#a6db9f" fill-rule="evenodd" fill-opacity="1"/>
<polyline clip-path="url(#clip032)" style="stroke:#000000; stroke-linecap:round; stroke-linejoin:round; stroke-width:0; stroke-opacity:1; fill:none" points="1085.2,779.166 1085.2,359.575 1094.85,359.575 1094.85,779.166 1085.2,779.166 "/>
<path clip-path="url(#clip032)" d="M1121.39 779.166 L1121.39 359.575 L1131.04 359.575 L1131.04 779.166 L1121.39 779.166 L1121.39 779.166  Z" fill="#a6db9f" fill-rule="evenodd" fill-opacity="1"/>
<polyline clip-path="url(#clip032)" style="stroke:#000000; stroke-linecap:round; stroke-linejoin:round; stroke-width:0; stroke-opacity:1; fill:none" points="1121.39,779.166 1121.39,359.575 1131.04,359.575 1131.04,779.166 1121.39,779.166 "/>
<circle clip-path="url(#clip032)" style="fill:#a6db9f; stroke:none; fill-opacity:0" cx="293.83" cy="779.166" r="2"/>
<circle clip-path="url(#clip032)" style="fill:#a6db9f; stroke:none; fill-opacity:0" cx="330.021" cy="779.166" r="2"/>
<circle clip-path="url(#clip032)" style="fill:#a6db9f; stroke:none; fill-opacity:0" cx="366.212" cy="779.166" r="2"/>
<circle clip-path="url(#clip032)" style="fill:#a6db9f; stroke:none; fill-opacity:0" cx="402.402" cy="779.166" r="2"/>
<circle clip-path="url(#clip032)" style="fill:#a6db9f; stroke:none; fill-opacity:0" cx="438.593" cy="779.166" r="2"/>
<circle clip-path="url(#clip032)" style="fill:#a6db9f; stroke:none; fill-opacity:0" cx="474.784" cy="779.166" r="2"/>
<circle clip-path="url(#clip032)" style="fill:#a6db9f; stroke:none; fill-opacity:0" cx="510.974" cy="779.166" r="2"/>
<circle clip-path="url(#clip032)" style="fill:#a6db9f; stroke:none; fill-opacity:0" cx="547.165" cy="779.166" r="2"/>
<circle clip-path="url(#clip032)" style="fill:#a6db9f; stroke:none; fill-opacity:0" cx="583.356" cy="779.166" r="2"/>
<circle clip-path="url(#clip032)" style="fill:#a6db9f; stroke:none; fill-opacity:0" cx="619.546" cy="779.166" r="2"/>
<circle clip-path="url(#clip032)" style="fill:#a6db9f; stroke:none; fill-opacity:0" cx="655.737" cy="563.676" r="2"/>
<circle clip-path="url(#clip032)" style="fill:#a6db9f; stroke:none; fill-opacity:0" cx="691.928" cy="563.676" r="2"/>
<circle clip-path="url(#clip032)" style="fill:#a6db9f; stroke:none; fill-opacity:0" cx="728.119" cy="563.676" r="2"/>
<circle clip-path="url(#clip032)" style="fill:#a6db9f; stroke:none; fill-opacity:0" cx="764.309" cy="563.676" r="2"/>
<circle clip-path="url(#clip032)" style="fill:#a6db9f; stroke:none; fill-opacity:0" cx="800.5" cy="563.676" r="2"/>
<circle clip-path="url(#clip032)" style="fill:#a6db9f; stroke:none; fill-opacity:0" cx="836.691" cy="563.676" r="2"/>
<circle clip-path="url(#clip032)" style="fill:#a6db9f; stroke:none; fill-opacity:0" cx="872.881" cy="779.166" r="2"/>
<circle clip-path="url(#clip032)" style="fill:#a6db9f; stroke:none; fill-opacity:0" cx="909.072" cy="779.166" r="2"/>
<circle clip-path="url(#clip032)" style="fill:#a6db9f; stroke:none; fill-opacity:0" cx="945.263" cy="779.166" r="2"/>
<circle clip-path="url(#clip032)" style="fill:#a6db9f; stroke:none; fill-opacity:0" cx="981.453" cy="779.166" r="2"/>
<circle clip-path="url(#clip032)" style="fill:#a6db9f; stroke:none; fill-opacity:0" cx="1017.64" cy="779.166" r="2"/>
<circle clip-path="url(#clip032)" style="fill:#a6db9f; stroke:none; fill-opacity:0" cx="1053.83" cy="779.166" r="2"/>
<circle clip-path="url(#clip032)" style="fill:#a6db9f; stroke:none; fill-opacity:0" cx="1090.03" cy="779.166" r="2"/>
<circle clip-path="url(#clip032)" style="fill:#a6db9f; stroke:none; fill-opacity:0" cx="1126.22" cy="779.166" r="2"/>
<path clip-path="url(#clip030)" d="M812.225 293.45 L1122.6 293.45 L1122.6 78.4772 L812.225 78.4772  Z" fill="#ffffff" fill-rule="evenodd" fill-opacity="1"/>
<polyline clip-path="url(#clip030)" style="stroke:#000000; stroke-linecap:round; stroke-linejoin:round; stroke-width:4; stroke-opacity:1; fill:none" points="812.225,293.45 1122.6,293.45 1122.6,78.4772 812.225,78.4772 812.225,293.45 "/>
<path clip-path="url(#clip030)" d="M822.278 153.718 L882.596 153.718 L882.596 110.723 L822.278 110.723 L822.278 153.718  Z" fill="#7a3193" fill-rule="evenodd" fill-opacity="1"/>
<polyline clip-path="url(#clip030)" style="stroke:#000000; stroke-linecap:round; stroke-linejoin:round; stroke-width:0.8; stroke-opacity:1; fill:none" points="822.278,153.718 882.596,153.718 882.596,110.723 822.278,110.723 822.278,153.718 "/>
<g clip-path="url(#clip030)">
<text style="fill:#000000; fill-opacity:1; font-family:Book Antiqua,Palatino,Palatino Linotype,Palatino LT STD,Georgia,serif; font-size:51px; font-weight:bold; text-anchor:start;" transform="rotate(0, 892.649, 149.72)" x="892.649" y="149.72">CCFDUC</text>
</g>
<path clip-path="url(#clip030)" d="M822.278 207.461 L882.596 207.461 L882.596 164.466 L822.278 164.466 L822.278 207.461  Z" fill="#c2a4cf" fill-rule="evenodd" fill-opacity="1"/>
<polyline clip-path="url(#clip030)" style="stroke:#000000; stroke-linecap:round; stroke-linejoin:round; stroke-width:0.8; stroke-opacity:1; fill:none" points="822.278,207.461 882.596,207.461 882.596,164.466 822.278,164.466 822.278,207.461 "/>
<g clip-path="url(#clip030)">
<text style="fill:#000000; fill-opacity:1; font-family:Book Antiqua,Palatino,Palatino Linotype,Palatino LT STD,Georgia,serif; font-size:51px; font-weight:bold; text-anchor:start;" transform="rotate(0, 892.649, 203.463)" x="892.649" y="203.463">FCUC</text>
</g>
<path clip-path="url(#clip030)" d="M822.278 261.204 L882.596 261.204 L882.596 218.209 L822.278 218.209 L822.278 261.204  Z" fill="#a6db9f" fill-rule="evenodd" fill-opacity="1"/>
<polyline clip-path="url(#clip030)" style="stroke:#000000; stroke-linecap:round; stroke-linejoin:round; stroke-width:0.8; stroke-opacity:1; fill:none" points="822.278,261.204 882.596,261.204 882.596,218.209 822.278,218.209 822.278,261.204 "/>
<g clip-path="url(#clip030)">
<text style="fill:#000000; fill-opacity:1; font-family:Book Antiqua,Palatino,Palatino Linotype,Palatino LT STD,Georgia,serif; font-size:51px; font-weight:bold; text-anchor:start;" transform="rotate(0, 892.649, 257.206)" x="892.649" y="257.206">TUC</text>
</g>
</svg>
