<?xml version="1.0" encoding="utf-8"?>
<svg xmlns="http://www.w3.org/2000/svg" xmlns:xlink="http://www.w3.org/1999/xlink" width="300" height="300" viewBox="0 0 1200 1200">
<defs>
  <clipPath id="clip990">
    <rect x="0" y="0" width="1200" height="1200"/>
  </clipPath>
</defs>
<path clip-path="url(#clip990)" d="M0 1200 L1200 1200 L1200 0 L0 0  Z" fill="#ffffff" fill-rule="evenodd" fill-opacity="1"/>
<defs>
  <clipPath id="clip991">
    <rect x="240" y="120" width="841" height="841"/>
  </clipPath>
</defs>
<path clip-path="url(#clip990)" d="M247.989 984.237 L1152.76 984.237 L1152.76 47.2441 L247.989 47.2441  Z" fill="#ffffff" fill-rule="evenodd" fill-opacity="1"/>
<defs>
  <clipPath id="clip992">
    <rect x="247" y="47" width="906" height="938"/>
  </clipPath>
</defs>
<polyline clip-path="url(#clip992)" style="stroke:#808080; stroke-linecap:round; stroke-linejoin:round; stroke-width:2; stroke-opacity:0.1; fill:none" points="247.989,984.237 247.989,47.2441 "/>
<polyline clip-path="url(#clip992)" style="stroke:#808080; stroke-linecap:round; stroke-linejoin:round; stroke-width:2; stroke-opacity:0.1; fill:none" points="428.942,984.237 428.942,47.2441 "/>
<polyline clip-path="url(#clip992)" style="stroke:#808080; stroke-linecap:round; stroke-linejoin:round; stroke-width:2; stroke-opacity:0.1; fill:none" points="609.896,984.237 609.896,47.2441 "/>
<polyline clip-path="url(#clip992)" style="stroke:#808080; stroke-linecap:round; stroke-linejoin:round; stroke-width:2; stroke-opacity:0.1; fill:none" points="790.849,984.237 790.849,47.2441 "/>
<polyline clip-path="url(#clip992)" style="stroke:#808080; stroke-linecap:round; stroke-linejoin:round; stroke-width:2; stroke-opacity:0.1; fill:none" points="971.802,984.237 971.802,47.2441 "/>
<polyline clip-path="url(#clip992)" style="stroke:#808080; stroke-linecap:round; stroke-linejoin:round; stroke-width:2; stroke-opacity:0.1; fill:none" points="1152.76,984.237 1152.76,47.2441 "/>
<polyline clip-path="url(#clip990)" style="stroke:#000000; stroke-linecap:round; stroke-linejoin:round; stroke-width:4; stroke-opacity:1; fill:none" points="247.989,984.237 1152.76,984.237 "/>
<polyline clip-path="url(#clip990)" style="stroke:#000000; stroke-linecap:round; stroke-linejoin:round; stroke-width:4; stroke-opacity:1; fill:none" points="247.989,47.2441 1152.76,47.2441 "/>
<polyline clip-path="url(#clip990)" style="stroke:#000000; stroke-linecap:round; stroke-linejoin:round; stroke-width:4; stroke-opacity:1; fill:none" points="247.989,984.237 247.989,965.339 "/>
<polyline clip-path="url(#clip990)" style="stroke:#000000; stroke-linecap:round; stroke-linejoin:round; stroke-width:4; stroke-opacity:1; fill:none" points="428.942,984.237 428.942,965.339 "/>
<polyline clip-path="url(#clip990)" style="stroke:#000000; stroke-linecap:round; stroke-linejoin:round; stroke-width:4; stroke-opacity:1; fill:none" points="609.896,984.237 609.896,965.339 "/>
<polyline clip-path="url(#clip990)" style="stroke:#000000; stroke-linecap:round; stroke-linejoin:round; stroke-width:4; stroke-opacity:1; fill:none" points="790.849,984.237 790.849,965.339 "/>
<polyline clip-path="url(#clip990)" style="stroke:#000000; stroke-linecap:round; stroke-linejoin:round; stroke-width:4; stroke-opacity:1; fill:none" points="971.802,984.237 971.802,965.339 "/>
<polyline clip-path="url(#clip990)" style="stroke:#000000; stroke-linecap:round; stroke-linejoin:round; stroke-width:4; stroke-opacity:1; fill:none" points="1152.76,984.237 1152.76,965.339 "/>
<g clip-path="url(#clip990)">
<text style="fill:#000000; fill-opacity:1; font-family:Book Antiqua,Palatino,Palatino Linotype,Palatino LT STD,Georgia,serif; font-size:51px; font-weight:bold; text-anchor:middle;" transform="rotate(0, 247.989, 1038.21)" x="247.989" y="1038.21">0</text>
</g>
<g clip-path="url(#clip990)">
<text style="fill:#000000; fill-opacity:1; font-family:Book Antiqua,Palatino,Palatino Linotype,Palatino LT STD,Georgia,serif; font-size:51px; font-weight:bold; text-anchor:middle;" transform="rotate(0, 428.942, 1038.21)" x="428.942" y="1038.21">5</text>
</g>
<g clip-path="url(#clip990)">
<text style="fill:#000000; fill-opacity:1; font-family:Book Antiqua,Palatino,Palatino Linotype,Palatino LT STD,Georgia,serif; font-size:51px; font-weight:bold; text-anchor:middle;" transform="rotate(0, 609.896, 1038.21)" x="609.896" y="1038.21">10</text>
</g>
<g clip-path="url(#clip990)">
<text style="fill:#000000; fill-opacity:1; font-family:Book Antiqua,Palatino,Palatino Linotype,Palatino LT STD,Georgia,serif; font-size:51px; font-weight:bold; text-anchor:middle;" transform="rotate(0, 790.849, 1038.21)" x="790.849" y="1038.21">15</text>
</g>
<g clip-path="url(#clip990)">
<text style="fill:#000000; fill-opacity:1; font-family:Book Antiqua,Palatino,Palatino Linotype,Palatino LT STD,Georgia,serif; font-size:51px; font-weight:bold; text-anchor:middle;" transform="rotate(0, 971.802, 1038.21)" x="971.802" y="1038.21">20</text>
</g>
<g clip-path="url(#clip990)">
<text style="fill:#000000; fill-opacity:1; font-family:Book Antiqua,Palatino,Palatino Linotype,Palatino LT STD,Georgia,serif; font-size:51px; font-weight:bold; text-anchor:middle;" transform="rotate(0, 1152.76, 1038.21)" x="1152.76" y="1038.21">25</text>
</g>
<path clip-path="url(#clip990)" d="M677.2 1073.13 Q677.2 1074.03 676.781 1074.25 Q676.363 1074.45 675.203 1074.45 L669.02 1074.45 L664.124 1093.9 Q663.738 1095.61 663.738 1097.06 Q663.738 1098.67 664.221 1099.37 Q664.736 1100.08 665.799 1100.08 Q667.893 1100.08 670.147 1098.18 Q672.434 1096.28 674.366 1091.65 Q674.624 1091.03 674.752 1090.9 Q674.913 1090.74 675.332 1090.74 Q676.137 1090.74 676.137 1091.39 Q676.137 1091.61 675.686 1092.64 Q675.268 1093.67 674.334 1095.19 Q673.432 1096.7 672.24 1098.12 Q671.081 1099.54 669.31 1100.57 Q667.538 1101.56 665.638 1101.56 Q662.965 1101.56 661.258 1099.86 Q659.583 1098.15 659.583 1095.48 Q659.583 1094.61 660.26 1091.84 Q660.936 1089.04 664.608 1074.45 L658.778 1074.45 Q657.973 1074.45 657.651 1074.42 Q657.361 1074.38 657.136 1074.22 Q656.943 1074.03 656.943 1073.64 Q656.943 1073.03 657.2 1072.77 Q657.458 1072.48 657.78 1072.45 Q658.134 1072.39 658.939 1072.39 L665.123 1072.39 L667.699 1061.92 Q667.957 1060.89 668.601 1060.31 Q669.277 1059.7 669.664 1059.63 Q670.05 1059.54 670.34 1059.54 Q671.21 1059.54 671.725 1060.02 Q672.24 1060.47 672.24 1061.31 Q672.24 1061.76 669.535 1072.39 L675.332 1072.39 Q676.073 1072.39 676.363 1072.42 Q676.685 1072.45 676.942 1072.61 Q677.2 1072.77 677.2 1073.13 Z" fill="#000000" fill-rule="nonzero" fill-opacity="1" /><path clip-path="url(#clip990)" d="M680.516 1116.38 Q680.516 1116.06 680.773 1115.35 L704.058 1053.13 Q704.058 1053.06 704.219 1052.71 Q704.38 1052.35 704.477 1052.13 Q704.573 1051.87 704.767 1051.68 Q704.992 1051.48 705.25 1051.48 Q705.894 1051.48 705.894 1052.29 Q705.894 1052.35 705.701 1053.13 L682.351 1115.41 Q681.965 1116.54 681.707 1116.86 Q681.482 1117.18 681.095 1117.18 Q680.516 1117.18 680.516 1116.38 Z" fill="#000000" fill-rule="nonzero" fill-opacity="1" /><path clip-path="url(#clip990)" d="M737.463 1077.35 Q737.463 1079.15 736.561 1080.12 Q735.659 1081.05 734.435 1081.05 Q733.437 1081.05 732.89 1080.47 Q732.374 1079.89 732.374 1079.12 Q732.374 1077.99 733.276 1077.09 Q734.21 1076.19 735.563 1076.15 Q735.112 1074.96 733.92 1074.25 Q732.729 1073.51 731.666 1073.32 Q730.635 1073.13 729.605 1073.13 Q727.576 1073.13 726.03 1073.77 Q724.484 1074.42 723.711 1075.41 Q722.938 1076.38 722.584 1077.31 Q722.229 1078.25 722.229 1079.05 Q722.229 1079.76 722.39 1080.34 Q722.584 1080.89 723.035 1081.31 Q723.485 1081.69 723.808 1081.95 Q724.162 1082.21 724.935 1082.43 Q725.708 1082.66 726.03 1082.76 Q726.352 1082.82 727.254 1083.01 Q729.121 1083.4 729.959 1083.63 Q730.796 1083.82 731.891 1084.37 Q733.018 1084.91 733.856 1085.78 Q735.885 1087.81 735.885 1090.61 Q735.885 1091.65 735.53 1092.9 Q735.208 1094.16 734.274 1095.74 Q733.34 1097.31 731.923 1098.57 Q730.506 1099.83 728.059 1100.7 Q725.643 1101.56 722.616 1101.56 Q718.397 1101.56 715.788 1099.79 Q713.18 1097.99 713.18 1095.16 Q713.18 1093.09 714.307 1091.97 Q715.434 1090.81 716.883 1090.81 Q717.978 1090.81 718.655 1091.42 Q719.331 1092 719.331 1093.09 Q719.331 1094.58 718.139 1095.7 Q716.948 1096.83 715.176 1096.6 Q716.69 1100.08 722.68 1100.08 Q724.935 1100.08 726.674 1099.5 Q728.445 1098.89 729.411 1098.05 Q730.41 1097.18 731.054 1096.12 Q731.698 1095.06 731.891 1094.25 Q732.117 1093.45 732.117 1092.84 Q732.117 1091.77 731.698 1090.97 Q731.279 1090.16 730.7 1089.71 Q730.152 1089.23 729.089 1088.84 Q728.059 1088.42 727.318 1088.26 Q726.577 1088.1 725.257 1087.84 Q724.645 1087.72 724.258 1087.65 Q723.872 1087.56 723.067 1087.3 Q722.294 1087.01 721.746 1086.72 Q721.231 1086.43 720.555 1085.91 Q719.878 1085.4 719.46 1084.79 Q719.041 1084.17 718.751 1083.27 Q718.461 1082.37 718.461 1081.31 Q718.461 1080.34 718.751 1079.18 Q719.073 1078.02 719.878 1076.67 Q720.716 1075.32 721.907 1074.22 Q723.099 1073.13 725.096 1072.42 Q727.125 1071.68 729.605 1071.68 Q733.212 1071.68 735.337 1073.35 Q737.463 1074.99 737.463 1077.35 Z" fill="#000000" fill-rule="nonzero" fill-opacity="1" /><polyline clip-path="url(#clip992)" style="stroke:#808080; stroke-linecap:round; stroke-linejoin:round; stroke-width:2; stroke-opacity:0.1; fill:none" points="247.989,867.113 1152.76,867.113 "/>
<polyline clip-path="url(#clip992)" style="stroke:#808080; stroke-linecap:round; stroke-linejoin:round; stroke-width:2; stroke-opacity:0.1; fill:none" points="247.989,632.865 1152.76,632.865 "/>
<polyline clip-path="url(#clip992)" style="stroke:#808080; stroke-linecap:round; stroke-linejoin:round; stroke-width:2; stroke-opacity:0.1; fill:none" points="247.989,398.616 1152.76,398.616 "/>
<polyline clip-path="url(#clip992)" style="stroke:#808080; stroke-linecap:round; stroke-linejoin:round; stroke-width:2; stroke-opacity:0.1; fill:none" points="247.989,164.368 1152.76,164.368 "/>
<polyline clip-path="url(#clip990)" style="stroke:#000000; stroke-linecap:round; stroke-linejoin:round; stroke-width:4; stroke-opacity:1; fill:none" points="247.989,984.237 247.989,47.2441 "/>
<polyline clip-path="url(#clip990)" style="stroke:#000000; stroke-linecap:round; stroke-linejoin:round; stroke-width:4; stroke-opacity:1; fill:none" points="1152.76,984.237 1152.76,47.2441 "/>
<polyline clip-path="url(#clip990)" style="stroke:#000000; stroke-linecap:round; stroke-linejoin:round; stroke-width:4; stroke-opacity:1; fill:none" points="247.989,867.113 266.886,867.113 "/>
<polyline clip-path="url(#clip990)" style="stroke:#000000; stroke-linecap:round; stroke-linejoin:round; stroke-width:4; stroke-opacity:1; fill:none" points="247.989,632.865 266.886,632.865 "/>
<polyline clip-path="url(#clip990)" style="stroke:#000000; stroke-linecap:round; stroke-linejoin:round; stroke-width:4; stroke-opacity:1; fill:none" points="247.989,398.616 266.886,398.616 "/>
<polyline clip-path="url(#clip990)" style="stroke:#000000; stroke-linecap:round; stroke-linejoin:round; stroke-width:4; stroke-opacity:1; fill:none" points="247.989,164.368 266.886,164.368 "/>
<g clip-path="url(#clip990)">
<text style="fill:#000000; fill-opacity:1; font-family:Book Antiqua,Palatino,Palatino Linotype,Palatino LT STD,Georgia,serif; font-size:51px; font-weight:bold; text-anchor:middle;" transform="rotate(0, 187.004, 884.613)" x="187.004" y="884.613">−1.0</text>
</g>
<g clip-path="url(#clip990)">
<text style="fill:#000000; fill-opacity:1; font-family:Book Antiqua,Palatino,Palatino Linotype,Palatino LT STD,Georgia,serif; font-size:51px; font-weight:bold; text-anchor:middle;" transform="rotate(0, 187.004, 650.365)" x="187.004" y="650.365">−0.5</text>
</g>
<g clip-path="url(#clip990)">
<text style="fill:#000000; fill-opacity:1; font-family:Book Antiqua,Palatino,Palatino Linotype,Palatino LT STD,Georgia,serif; font-size:51px; font-weight:bold; text-anchor:middle;" transform="rotate(0, 198.271, 416.116)" x="198.271" y="416.116">0.0</text>
</g>
<g clip-path="url(#clip990)">
<text style="fill:#000000; fill-opacity:1; font-family:Book Antiqua,Palatino,Palatino Linotype,Palatino LT STD,Georgia,serif; font-size:51px; font-weight:bold; text-anchor:middle;" transform="rotate(0, 198.271, 181.868)" x="198.271" y="181.868">0.5</text>
</g>
<path clip-path="url(#clip990)" d="M113.84 731.797 L111.811 731.797 L111.811 730.219 Q111.811 726.644 111.232 725.839 Q110.62 725.001 108.687 725.001 L73.9371 725.001 Q72.037 725.001 71.4573 725.839 Q70.8454 726.676 70.8454 730.219 L70.8454 731.797 L68.7842 731.797 L68.7842 711.088 Q68.7842 703.906 72.3268 698.914 Q75.8373 693.89 80.6682 693.89 Q84.3718 693.89 87.2704 697.143 Q90.1689 700.396 91.4249 705.42 Q93.6793 698.882 99.0577 697.369 L104.339 696.531 Q106.24 696.274 107.206 696.113 Q108.172 695.919 109.492 695.629 Q110.813 695.34 111.457 695.05 Q112.069 694.728 112.745 694.277 Q113.389 693.826 113.615 693.246 Q113.84 692.634 113.84 691.829 Q113.84 690.316 112.488 689.027 Q111.135 687.739 107.979 687.481 Q106.916 687.353 106.916 686.676 Q106.916 685.839 107.979 685.839 Q108.913 685.839 110.008 686.097 Q111.07 686.354 112.327 686.998 Q113.583 687.61 114.42 688.963 Q115.289 690.316 115.289 692.087 Q115.289 697.24 112.52 700.396 Q111.328 701.716 109.782 702.328 Q108.236 702.908 107.013 703.005 Q105.789 703.101 103.083 703.101 Q99.2509 703.101 97.5762 703.52 Q95.9015 703.906 94.259 705.613 Q92.0046 707.932 92.0046 711.765 L92.0046 719.333 L108.687 719.333 Q110.587 719.333 111.199 718.528 Q111.811 717.691 111.811 714.116 L111.811 712.538 L113.84 712.538 Q113.647 714.921 113.647 722.167 Q113.647 729.413 113.84 731.797 M90.5554 719.333 L90.5554 712.022 Q90.5554 708.512 89.718 706.161 Q88.8484 703.778 87.3026 702.65 Q85.7567 701.523 84.2108 701.104 Q82.6327 700.686 80.6682 700.686 Q78.3493 700.686 76.6102 701.201 Q74.8711 701.716 73.8405 702.844 Q72.8099 703.971 72.1658 705.098 Q71.4895 706.225 71.2318 707.964 Q70.9742 709.703 70.9098 710.895 Q70.8454 712.087 70.8454 713.987 Q70.8454 717.207 70.9742 717.884 Q71.0386 718.624 71.3929 718.914 Q71.7471 719.204 72.1658 719.269 Q72.5523 719.333 73.4862 719.333 L90.5554 719.333 Z" fill="#000000" fill-rule="nonzero" fill-opacity="1" /><path clip-path="url(#clip990)" d="M91.4893 685.427 Q81.4089 685.427 74.388 678.986 Q67.3349 672.513 67.3349 663.527 Q67.3349 654.477 74.388 648.036 Q81.4411 641.563 91.4893 641.563 Q101.441 641.563 108.365 648.036 Q115.289 654.51 115.289 663.527 Q115.289 672.416 108.397 678.922 Q101.505 685.427 91.4893 685.427 M90.5554 678.632 Q96.6745 678.632 101.377 677.182 Q106.046 675.733 108.591 673.414 Q111.135 671.063 112.359 668.551 Q113.583 666.039 113.583 663.463 Q113.583 660.951 112.391 658.503 Q111.199 656.023 108.687 653.672 Q106.175 651.321 101.473 649.84 Q96.7711 648.358 90.5554 648.358 Q85.7245 648.358 81.8598 649.389 Q77.9629 650.419 75.6118 652.03 Q73.2608 653.64 71.7149 655.733 Q70.169 657.795 69.5893 659.759 Q68.9774 661.691 68.9774 663.527 Q68.9774 665.846 70.008 668.261 Q71.0386 670.677 73.3252 673.124 Q75.5796 675.54 80.0562 677.086 Q84.5006 678.632 90.5554 678.632 Z" fill="#000000" fill-rule="nonzero" fill-opacity="1" /><path clip-path="url(#clip990)" d="M91.2961 634.149 Q81.3445 634.149 74.3558 627.353 Q67.3349 620.558 67.3349 611.218 Q67.3349 608.32 68.3977 605.743 Q69.4605 603.167 70.3945 601.975 Q71.2962 600.783 73.0032 599.076 L68.1401 595.759 Q67.3349 595.244 67.3349 594.729 Q67.3349 594.181 67.657 594.085 Q67.9468 593.988 68.913 593.988 L84.5651 593.988 Q85.6279 593.988 85.8855 594.117 Q86.1431 594.246 86.1431 595.051 Q86.1431 595.695 85.9499 595.856 Q85.7567 595.985 85.0159 596.114 Q77.8984 597.112 73.6473 601.073 Q69.3961 605.002 69.3961 610.477 Q69.3961 612.055 69.7504 613.827 Q70.1046 615.566 71.4573 618.11 Q72.8099 620.622 75.0643 622.587 Q77.2865 624.519 81.5377 625.936 Q85.7567 627.353 91.3605 627.353 Q96.8999 627.353 101.151 625.936 Q105.402 624.519 107.624 622.587 Q109.814 620.622 111.167 618.11 Q112.52 615.566 112.906 613.795 Q113.26 611.991 113.26 610.413 Q113.26 604.745 109.235 600.397 Q105.209 596.049 98.4136 595.63 Q98.0915 595.566 97.9627 595.566 Q97.8017 595.566 97.6406 595.502 Q97.4796 595.437 97.4152 595.276 Q97.3508 595.115 97.3508 594.857 Q97.3508 593.988 98.478 593.988 Q104.758 593.988 110.04 598.819 Q115.289 603.617 115.289 611.218 Q115.289 620.59 108.333 627.385 Q101.377 634.149 91.2961 634.149 Z" fill="#000000" fill-rule="nonzero" fill-opacity="1" /><path clip-path="url(#clip990)" d="M91.4893 583.966 Q81.4089 583.966 74.388 577.525 Q67.3349 571.052 67.3349 562.066 Q67.3349 553.016 74.388 546.575 Q81.4411 540.102 91.4893 540.102 Q101.441 540.102 108.365 546.575 Q115.289 553.049 115.289 562.066 Q115.289 570.955 108.397 577.461 Q101.505 583.966 91.4893 583.966 M90.5554 577.171 Q96.6745 577.171 101.377 575.721 Q106.046 574.272 108.591 571.953 Q111.135 569.602 112.359 567.09 Q113.583 564.578 113.583 562.002 Q113.583 559.49 112.391 557.042 Q111.199 554.562 108.687 552.211 Q106.175 549.86 101.473 548.379 Q96.7711 546.897 90.5554 546.897 Q85.7245 546.897 81.8598 547.928 Q77.9629 548.958 75.6118 550.569 Q73.2608 552.179 71.7149 554.272 Q70.169 556.334 69.5893 558.298 Q68.9774 560.23 68.9774 562.066 Q68.9774 564.385 70.008 566.8 Q71.0386 569.216 73.3252 571.664 Q75.5796 574.079 80.0562 575.625 Q84.5006 577.171 90.5554 577.171 Z" fill="#000000" fill-rule="nonzero" fill-opacity="1" /><path clip-path="url(#clip990)" d="M113.84 532.688 L111.811 532.688 L111.811 531.11 Q111.811 527.535 111.232 526.73 Q110.62 525.892 108.687 525.892 L74.1304 525.892 Q72.2302 525.892 71.6505 526.73 Q71.0386 527.567 71.0386 531.11 L71.0386 532.688 L68.9774 532.688 L68.9774 496.488 L83.8243 494.653 L83.8243 496.295 Q80.0562 496.746 77.9307 497.358 Q75.7729 497.938 74.0659 499.29 Q72.359 500.643 71.7149 502.929 Q71.0386 505.184 71.0386 508.887 L71.0386 516.81 Q71.0386 519.065 71.5217 519.548 Q71.9726 520.031 73.6795 520.031 L90.3621 520.031 L90.3621 514.362 Q90.3621 509.886 88.7518 508.63 Q87.1415 507.374 82.6327 507.374 L82.6327 505.731 L100.12 505.731 L100.12 507.374 Q95.5795 507.374 94.0014 508.63 Q92.3911 509.886 92.3911 514.362 L92.3911 520.031 L108.623 520.031 Q110.008 520.031 110.555 519.805 Q111.07 519.58 111.457 518.195 Q111.811 516.81 111.811 513.783 L111.811 511.593 L113.84 511.593 Q113.647 513.976 113.647 522.672 Q113.647 530.369 113.84 532.688 Z" fill="#000000" fill-rule="nonzero" fill-opacity="1" /><path clip-path="url(#clip990)" d="M129.396 481.389 Q129.074 481.389 128.365 481.131 L66.1433 457.846 Q66.0789 457.846 65.7246 457.685 Q65.3704 457.524 65.1449 457.428 Q64.8873 457.331 64.694 457.138 Q64.5008 456.912 64.5008 456.655 Q64.5008 456.011 65.306 456.011 Q65.3704 456.011 66.1433 456.204 L128.429 479.553 Q129.557 479.939 129.879 480.197 Q130.201 480.423 130.201 480.809 Q130.201 481.389 129.396 481.389 Z" fill="#000000" fill-rule="nonzero" fill-opacity="1" /><path clip-path="url(#clip990)" d="M113.84 440.01 L111.811 440.01 L111.811 438.432 Q111.811 434.857 111.232 434.052 Q110.62 433.215 108.687 433.215 L73.9371 433.215 Q72.037 433.215 71.4573 434.052 Q70.8454 434.89 70.8454 438.432 L70.8454 440.01 L68.7842 440.01 Q68.9774 437.691 68.9774 430.252 Q68.9774 422.877 68.7842 420.558 L70.8454 420.558 L70.8454 422.136 Q70.8454 425.711 71.4573 426.548 Q72.037 427.353 73.9371 427.353 L89.3637 427.353 L89.3637 407.643 L73.9371 407.643 Q72.037 407.643 71.4573 408.481 Q70.8454 409.286 70.8454 412.861 L70.8454 414.439 L68.7842 414.439 Q68.9774 412.12 68.9774 404.68 Q68.9774 397.305 68.7842 394.986 L70.8454 394.986 L70.8454 396.565 Q70.8454 400.139 71.4573 400.977 Q72.037 401.782 73.9371 401.782 L108.687 401.782 Q110.587 401.782 111.199 400.945 Q111.811 400.107 111.811 396.565 L111.811 394.986 L113.84 394.986 Q113.647 397.305 113.647 404.745 Q113.647 412.12 113.84 414.439 L111.811 414.439 L111.811 412.861 Q111.811 409.286 111.232 408.481 Q110.62 407.643 108.687 407.643 L91.4249 407.643 L91.4249 427.353 L108.687 427.353 Q110.587 427.353 111.199 426.548 Q111.811 425.711 111.811 422.136 L111.811 420.558 L113.84 420.558 Q113.647 422.877 113.647 430.316 Q113.647 437.691 113.84 440.01 Z" fill="#000000" fill-rule="nonzero" fill-opacity="1" /><path clip-path="url(#clip990)" d="M112.906 387.054 Q112.455 387.054 111.715 386.442 L86.8517 368.053 L86.8517 375.557 Q86.8517 380.774 88.784 382.481 Q90.6842 384.156 96.0303 384.478 L96.0303 386.12 L85.4024 385.379 L85.4024 364.285 Q85.4024 363.544 85.4346 363.254 Q85.4668 362.964 85.6923 362.771 Q85.8855 362.578 86.272 362.578 Q86.6584 362.578 87.3992 363.157 L112.198 381.515 L112.198 373.721 Q112.198 368.246 109.911 366.41 Q107.624 364.542 101.505 364.091 L101.505 362.449 L113.84 363.576 L113.84 385.315 Q113.84 386.378 113.711 386.732 Q113.55 387.054 112.906 387.054 Z" fill="#000000" fill-rule="nonzero" fill-opacity="1" /><path clip-path="url(#clip990)" d="M129.396 358.058 Q129.074 358.058 128.365 357.801 L66.1433 334.516 Q66.0789 334.516 65.7246 334.355 Q65.3704 334.194 65.1449 334.097 Q64.8873 334.001 64.694 333.807 Q64.5008 333.582 64.5008 333.324 Q64.5008 332.68 65.306 332.68 Q65.3704 332.68 66.1433 332.873 L128.429 356.223 Q129.557 356.609 129.879 356.867 Q130.201 357.092 130.201 357.479 Q130.201 358.058 129.396 358.058 Z" fill="#000000" fill-rule="nonzero" fill-opacity="1" /><path clip-path="url(#clip990)" d="M112.971 325.394 L104.275 325.394 Q103.534 325.394 103.277 325.362 Q103.019 325.33 102.826 325.137 Q102.633 324.943 102.633 324.557 Q102.633 324.106 102.826 323.945 Q103.019 323.752 103.76 323.623 Q108.301 322.625 110.716 320.499 Q113.099 318.341 113.099 314.444 Q113.099 310.741 111.457 308.873 Q109.814 307.005 107.109 307.005 Q102.278 307.005 101.054 313.865 Q100.249 317.826 99.734 319.468 Q99.1865 321.111 97.9949 322.56 Q95.6761 325.394 92.3911 325.394 Q89.1061 325.394 86.6906 322.915 Q84.2752 320.402 84.2752 314.863 Q84.2752 311.159 86.1431 308.647 Q85.5634 307.907 85.0804 307.52 Q84.2752 306.651 84.2752 306.2 Q84.2752 305.684 84.6295 305.588 Q84.9515 305.491 85.8855 305.491 L92.5199 305.491 Q93.2606 305.491 93.5183 305.523 Q93.7759 305.556 93.9692 305.749 Q94.1302 305.942 94.1302 306.361 Q94.1302 307.101 93.5183 307.134 Q85.5312 307.649 85.5312 314.863 Q85.5312 318.76 87.0449 320.499 Q88.5264 322.238 90.5554 322.238 Q91.6826 322.238 92.5521 321.723 Q93.3895 321.175 93.9048 320.499 Q94.3878 319.791 94.8709 318.502 Q95.3218 317.214 95.4828 316.441 Q95.6439 315.636 95.9659 314.122 Q96.9643 308.841 99.1221 306.618 Q101.892 303.849 105.402 303.849 Q109.299 303.849 111.94 306.49 Q114.581 309.13 114.581 314.444 Q114.581 318.728 111.715 321.723 Q112.101 322.109 112.455 322.399 Q112.777 322.689 112.906 322.818 Q113.035 322.915 113.132 322.947 Q113.196 322.979 113.26 323.043 Q114.581 324.364 114.581 324.686 Q114.581 325.201 114.227 325.298 Q113.905 325.394 112.971 325.394 Z" fill="#000000" fill-rule="nonzero" fill-opacity="1" /><path clip-path="url(#clip992)" d="M269.703 608.887 L269.703 398.616 L279.354 398.616 L279.354 608.887 L269.703 608.887 L269.703 608.887  Z" fill="#7a3193" fill-rule="evenodd" fill-opacity="1"/>
<polyline clip-path="url(#clip992)" style="stroke:#000000; stroke-linecap:round; stroke-linejoin:round; stroke-width:0; stroke-opacity:1; fill:none" points="269.703,608.887 269.703,398.616 279.354,398.616 279.354,608.887 269.703,608.887 "/>
<path clip-path="url(#clip992)" d="M305.894 608.887 L305.894 398.616 L315.545 398.616 L315.545 608.887 L305.894 608.887 L305.894 608.887  Z" fill="#7a3193" fill-rule="evenodd" fill-opacity="1"/>
<polyline clip-path="url(#clip992)" style="stroke:#000000; stroke-linecap:round; stroke-linejoin:round; stroke-width:0; stroke-opacity:1; fill:none" points="305.894,608.887 305.894,398.616 315.545,398.616 315.545,608.887 305.894,608.887 "/>
<path clip-path="url(#clip992)" d="M342.085 608.887 L342.085 398.616 L351.735 398.616 L351.735 608.887 L342.085 608.887 L342.085 608.887  Z" fill="#7a3193" fill-rule="evenodd" fill-opacity="1"/>
<polyline clip-path="url(#clip992)" style="stroke:#000000; stroke-linecap:round; stroke-linejoin:round; stroke-width:0; stroke-opacity:1; fill:none" points="342.085,608.887 342.085,398.616 351.735,398.616 351.735,608.887 342.085,608.887 "/>
<path clip-path="url(#clip992)" d="M378.275 608.887 L378.275 398.616 L387.926 398.616 L387.926 608.887 L378.275 608.887 L378.275 608.887  Z" fill="#7a3193" fill-rule="evenodd" fill-opacity="1"/>
<polyline clip-path="url(#clip992)" style="stroke:#000000; stroke-linecap:round; stroke-linejoin:round; stroke-width:0; stroke-opacity:1; fill:none" points="378.275,608.887 378.275,398.616 387.926,398.616 387.926,608.887 378.275,608.887 "/>
<path clip-path="url(#clip992)" d="M414.466 608.887 L414.466 398.616 L424.117 398.616 L424.117 608.887 L414.466 608.887 L414.466 608.887  Z" fill="#7a3193" fill-rule="evenodd" fill-opacity="1"/>
<polyline clip-path="url(#clip992)" style="stroke:#000000; stroke-linecap:round; stroke-linejoin:round; stroke-width:0; stroke-opacity:1; fill:none" points="414.466,608.887 414.466,398.616 424.117,398.616 424.117,608.887 414.466,608.887 "/>
<path clip-path="url(#clip992)" d="M450.657 608.887 L450.657 398.616 L460.307 398.616 L460.307 608.887 L450.657 608.887 L450.657 608.887  Z" fill="#7a3193" fill-rule="evenodd" fill-opacity="1"/>
<polyline clip-path="url(#clip992)" style="stroke:#000000; stroke-linecap:round; stroke-linejoin:round; stroke-width:0; stroke-opacity:1; fill:none" points="450.657,608.887 450.657,398.616 460.307,398.616 460.307,608.887 450.657,608.887 "/>
<path clip-path="url(#clip992)" d="M486.847 608.887 L486.847 398.616 L496.498 398.616 L496.498 608.887 L486.847 608.887 L486.847 608.887  Z" fill="#7a3193" fill-rule="evenodd" fill-opacity="1"/>
<polyline clip-path="url(#clip992)" style="stroke:#000000; stroke-linecap:round; stroke-linejoin:round; stroke-width:0; stroke-opacity:1; fill:none" points="486.847,608.887 486.847,398.616 496.498,398.616 496.498,608.887 486.847,608.887 "/>
<path clip-path="url(#clip992)" d="M523.038 608.887 L523.038 398.616 L532.689 398.616 L532.689 608.887 L523.038 608.887 L523.038 608.887  Z" fill="#7a3193" fill-rule="evenodd" fill-opacity="1"/>
<polyline clip-path="url(#clip992)" style="stroke:#000000; stroke-linecap:round; stroke-linejoin:round; stroke-width:0; stroke-opacity:1; fill:none" points="523.038,608.887 523.038,398.616 532.689,398.616 532.689,608.887 523.038,608.887 "/>
<path clip-path="url(#clip992)" d="M559.229 608.887 L559.229 398.616 L568.88 398.616 L568.88 608.887 L559.229 608.887 L559.229 608.887  Z" fill="#7a3193" fill-rule="evenodd" fill-opacity="1"/>
<polyline clip-path="url(#clip992)" style="stroke:#000000; stroke-linecap:round; stroke-linejoin:round; stroke-width:0; stroke-opacity:1; fill:none" points="559.229,608.887 559.229,398.616 568.88,398.616 568.88,608.887 559.229,608.887 "/>
<path clip-path="url(#clip992)" d="M595.419 608.887 L595.419 398.616 L605.07 398.616 L605.07 608.887 L595.419 608.887 L595.419 608.887  Z" fill="#7a3193" fill-rule="evenodd" fill-opacity="1"/>
<polyline clip-path="url(#clip992)" style="stroke:#000000; stroke-linecap:round; stroke-linejoin:round; stroke-width:0; stroke-opacity:1; fill:none" points="595.419,608.887 595.419,398.616 605.07,398.616 605.07,608.887 595.419,608.887 "/>
<path clip-path="url(#clip992)" d="M631.61 608.887 L631.61 398.616 L641.261 398.616 L641.261 608.887 L631.61 608.887 L631.61 608.887  Z" fill="#7a3193" fill-rule="evenodd" fill-opacity="1"/>
<polyline clip-path="url(#clip992)" style="stroke:#000000; stroke-linecap:round; stroke-linejoin:round; stroke-width:0; stroke-opacity:1; fill:none" points="631.61,608.887 631.61,398.616 641.261,398.616 641.261,608.887 631.61,608.887 "/>
<path clip-path="url(#clip992)" d="M667.801 608.887 L667.801 398.616 L677.452 398.616 L677.452 608.887 L667.801 608.887 L667.801 608.887  Z" fill="#7a3193" fill-rule="evenodd" fill-opacity="1"/>
<polyline clip-path="url(#clip992)" style="stroke:#000000; stroke-linecap:round; stroke-linejoin:round; stroke-width:0; stroke-opacity:1; fill:none" points="667.801,608.887 667.801,398.616 677.452,398.616 677.452,608.887 667.801,608.887 "/>
<path clip-path="url(#clip992)" d="M703.991 608.887 L703.991 398.616 L713.642 398.616 L713.642 608.887 L703.991 608.887 L703.991 608.887  Z" fill="#7a3193" fill-rule="evenodd" fill-opacity="1"/>
<polyline clip-path="url(#clip992)" style="stroke:#000000; stroke-linecap:round; stroke-linejoin:round; stroke-width:0; stroke-opacity:1; fill:none" points="703.991,608.887 703.991,398.616 713.642,398.616 713.642,608.887 703.991,608.887 "/>
<path clip-path="url(#clip992)" d="M740.182 608.887 L740.182 398.616 L749.833 398.616 L749.833 608.887 L740.182 608.887 L740.182 608.887  Z" fill="#7a3193" fill-rule="evenodd" fill-opacity="1"/>
<polyline clip-path="url(#clip992)" style="stroke:#000000; stroke-linecap:round; stroke-linejoin:round; stroke-width:0; stroke-opacity:1; fill:none" points="740.182,608.887 740.182,398.616 749.833,398.616 749.833,608.887 740.182,608.887 "/>
<path clip-path="url(#clip992)" d="M776.373 608.887 L776.373 398.616 L786.024 398.616 L786.024 608.887 L776.373 608.887 L776.373 608.887  Z" fill="#7a3193" fill-rule="evenodd" fill-opacity="1"/>
<polyline clip-path="url(#clip992)" style="stroke:#000000; stroke-linecap:round; stroke-linejoin:round; stroke-width:0; stroke-opacity:1; fill:none" points="776.373,608.887 776.373,398.616 786.024,398.616 786.024,608.887 776.373,608.887 "/>
<path clip-path="url(#clip992)" d="M812.563 608.887 L812.563 398.616 L822.214 398.616 L822.214 608.887 L812.563 608.887 L812.563 608.887  Z" fill="#7a3193" fill-rule="evenodd" fill-opacity="1"/>
<polyline clip-path="url(#clip992)" style="stroke:#000000; stroke-linecap:round; stroke-linejoin:round; stroke-width:0; stroke-opacity:1; fill:none" points="812.563,608.887 812.563,398.616 822.214,398.616 822.214,608.887 812.563,608.887 "/>
<path clip-path="url(#clip992)" d="M848.754 608.887 L848.754 398.616 L858.405 398.616 L858.405 608.887 L848.754 608.887 L848.754 608.887  Z" fill="#7a3193" fill-rule="evenodd" fill-opacity="1"/>
<polyline clip-path="url(#clip992)" style="stroke:#000000; stroke-linecap:round; stroke-linejoin:round; stroke-width:0; stroke-opacity:1; fill:none" points="848.754,608.887 848.754,398.616 858.405,398.616 858.405,608.887 848.754,608.887 "/>
<path clip-path="url(#clip992)" d="M884.945 608.887 L884.945 398.616 L894.596 398.616 L894.596 608.887 L884.945 608.887 L884.945 608.887  Z" fill="#7a3193" fill-rule="evenodd" fill-opacity="1"/>
<polyline clip-path="url(#clip992)" style="stroke:#000000; stroke-linecap:round; stroke-linejoin:round; stroke-width:0; stroke-opacity:1; fill:none" points="884.945,608.887 884.945,398.616 894.596,398.616 894.596,608.887 884.945,608.887 "/>
<path clip-path="url(#clip992)" d="M921.136 608.887 L921.136 398.616 L930.786 398.616 L930.786 608.887 L921.136 608.887 L921.136 608.887  Z" fill="#7a3193" fill-rule="evenodd" fill-opacity="1"/>
<polyline clip-path="url(#clip992)" style="stroke:#000000; stroke-linecap:round; stroke-linejoin:round; stroke-width:0; stroke-opacity:1; fill:none" points="921.136,608.887 921.136,398.616 930.786,398.616 930.786,608.887 921.136,608.887 "/>
<path clip-path="url(#clip992)" d="M957.326 608.887 L957.326 398.616 L966.977 398.616 L966.977 608.887 L957.326 608.887 L957.326 608.887  Z" fill="#7a3193" fill-rule="evenodd" fill-opacity="1"/>
<polyline clip-path="url(#clip992)" style="stroke:#000000; stroke-linecap:round; stroke-linejoin:round; stroke-width:0; stroke-opacity:1; fill:none" points="957.326,608.887 957.326,398.616 966.977,398.616 966.977,608.887 957.326,608.887 "/>
<path clip-path="url(#clip992)" d="M993.517 608.887 L993.517 398.616 L1003.17 398.616 L1003.17 608.887 L993.517 608.887 L993.517 608.887  Z" fill="#7a3193" fill-rule="evenodd" fill-opacity="1"/>
<polyline clip-path="url(#clip992)" style="stroke:#000000; stroke-linecap:round; stroke-linejoin:round; stroke-width:0; stroke-opacity:1; fill:none" points="993.517,608.887 993.517,398.616 1003.17,398.616 1003.17,608.887 993.517,608.887 "/>
<path clip-path="url(#clip992)" d="M1029.71 608.887 L1029.71 398.616 L1039.36 398.616 L1039.36 608.887 L1029.71 608.887 L1029.71 608.887  Z" fill="#7a3193" fill-rule="evenodd" fill-opacity="1"/>
<polyline clip-path="url(#clip992)" style="stroke:#000000; stroke-linecap:round; stroke-linejoin:round; stroke-width:0; stroke-opacity:1; fill:none" points="1029.71,608.887 1029.71,398.616 1039.36,398.616 1039.36,608.887 1029.71,608.887 "/>
<path clip-path="url(#clip992)" d="M1065.9 608.887 L1065.9 398.616 L1075.55 398.616 L1075.55 608.887 L1065.9 608.887 L1065.9 608.887  Z" fill="#7a3193" fill-rule="evenodd" fill-opacity="1"/>
<polyline clip-path="url(#clip992)" style="stroke:#000000; stroke-linecap:round; stroke-linejoin:round; stroke-width:0; stroke-opacity:1; fill:none" points="1065.9,608.887 1065.9,398.616 1075.55,398.616 1075.55,608.887 1065.9,608.887 "/>
<path clip-path="url(#clip992)" d="M1102.09 608.887 L1102.09 398.616 L1111.74 398.616 L1111.74 608.887 L1102.09 608.887 L1102.09 608.887  Z" fill="#7a3193" fill-rule="evenodd" fill-opacity="1"/>
<polyline clip-path="url(#clip992)" style="stroke:#000000; stroke-linecap:round; stroke-linejoin:round; stroke-width:0; stroke-opacity:1; fill:none" points="1102.09,608.887 1102.09,398.616 1111.74,398.616 1111.74,608.887 1102.09,608.887 "/>
<circle clip-path="url(#clip992)" style="fill:#7a3193; stroke:none; fill-opacity:0" cx="274.529" cy="608.887" r="2"/>
<circle clip-path="url(#clip992)" style="fill:#7a3193; stroke:none; fill-opacity:0" cx="310.719" cy="608.887" r="2"/>
<circle clip-path="url(#clip992)" style="fill:#7a3193; stroke:none; fill-opacity:0" cx="346.91" cy="608.887" r="2"/>
<circle clip-path="url(#clip992)" style="fill:#7a3193; stroke:none; fill-opacity:0" cx="383.101" cy="608.887" r="2"/>
<circle clip-path="url(#clip992)" style="fill:#7a3193; stroke:none; fill-opacity:0" cx="419.291" cy="608.887" r="2"/>
<circle clip-path="url(#clip992)" style="fill:#7a3193; stroke:none; fill-opacity:0" cx="455.482" cy="608.887" r="2"/>
<circle clip-path="url(#clip992)" style="fill:#7a3193; stroke:none; fill-opacity:0" cx="491.673" cy="608.887" r="2"/>
<circle clip-path="url(#clip992)" style="fill:#7a3193; stroke:none; fill-opacity:0" cx="527.863" cy="608.887" r="2"/>
<circle clip-path="url(#clip992)" style="fill:#7a3193; stroke:none; fill-opacity:0" cx="564.054" cy="608.887" r="2"/>
<circle clip-path="url(#clip992)" style="fill:#7a3193; stroke:none; fill-opacity:0" cx="600.245" cy="608.887" r="2"/>
<circle clip-path="url(#clip992)" style="fill:#7a3193; stroke:none; fill-opacity:0" cx="636.435" cy="608.887" r="2"/>
<circle clip-path="url(#clip992)" style="fill:#7a3193; stroke:none; fill-opacity:0" cx="672.626" cy="608.887" r="2"/>
<circle clip-path="url(#clip992)" style="fill:#7a3193; stroke:none; fill-opacity:0" cx="708.817" cy="608.887" r="2"/>
<circle clip-path="url(#clip992)" style="fill:#7a3193; stroke:none; fill-opacity:0" cx="745.008" cy="608.887" r="2"/>
<circle clip-path="url(#clip992)" style="fill:#7a3193; stroke:none; fill-opacity:0" cx="781.198" cy="608.887" r="2"/>
<circle clip-path="url(#clip992)" style="fill:#7a3193; stroke:none; fill-opacity:0" cx="817.389" cy="608.887" r="2"/>
<circle clip-path="url(#clip992)" style="fill:#7a3193; stroke:none; fill-opacity:0" cx="853.58" cy="608.887" r="2"/>
<circle clip-path="url(#clip992)" style="fill:#7a3193; stroke:none; fill-opacity:0" cx="889.77" cy="608.887" r="2"/>
<circle clip-path="url(#clip992)" style="fill:#7a3193; stroke:none; fill-opacity:0" cx="925.961" cy="608.887" r="2"/>
<circle clip-path="url(#clip992)" style="fill:#7a3193; stroke:none; fill-opacity:0" cx="962.152" cy="608.887" r="2"/>
<circle clip-path="url(#clip992)" style="fill:#7a3193; stroke:none; fill-opacity:0" cx="998.342" cy="608.887" r="2"/>
<circle clip-path="url(#clip992)" style="fill:#7a3193; stroke:none; fill-opacity:0" cx="1034.53" cy="608.887" r="2"/>
<circle clip-path="url(#clip992)" style="fill:#7a3193; stroke:none; fill-opacity:0" cx="1070.72" cy="608.887" r="2"/>
<circle clip-path="url(#clip992)" style="fill:#7a3193; stroke:none; fill-opacity:0" cx="1106.91" cy="608.887" r="2"/>
<path clip-path="url(#clip992)" d="M279.354 608.887 L279.354 398.616 L289.005 398.616 L289.005 608.887 L279.354 608.887 L279.354 608.887  Z" fill="#c2a4cf" fill-rule="evenodd" fill-opacity="1"/>
<polyline clip-path="url(#clip992)" style="stroke:#000000; stroke-linecap:round; stroke-linejoin:round; stroke-width:0; stroke-opacity:1; fill:none" points="279.354,608.887 279.354,398.616 289.005,398.616 289.005,608.887 279.354,608.887 "/>
<path clip-path="url(#clip992)" d="M315.545 608.887 L315.545 398.616 L325.196 398.616 L325.196 608.887 L315.545 608.887 L315.545 608.887  Z" fill="#c2a4cf" fill-rule="evenodd" fill-opacity="1"/>
<polyline clip-path="url(#clip992)" style="stroke:#000000; stroke-linecap:round; stroke-linejoin:round; stroke-width:0; stroke-opacity:1; fill:none" points="315.545,608.887 315.545,398.616 325.196,398.616 325.196,608.887 315.545,608.887 "/>
<path clip-path="url(#clip992)" d="M351.735 608.887 L351.735 398.616 L361.386 398.616 L361.386 608.887 L351.735 608.887 L351.735 608.887  Z" fill="#c2a4cf" fill-rule="evenodd" fill-opacity="1"/>
<polyline clip-path="url(#clip992)" style="stroke:#000000; stroke-linecap:round; stroke-linejoin:round; stroke-width:0; stroke-opacity:1; fill:none" points="351.735,608.887 351.735,398.616 361.386,398.616 361.386,608.887 351.735,608.887 "/>
<path clip-path="url(#clip992)" d="M387.926 608.887 L387.926 398.616 L397.577 398.616 L397.577 608.887 L387.926 608.887 L387.926 608.887  Z" fill="#c2a4cf" fill-rule="evenodd" fill-opacity="1"/>
<polyline clip-path="url(#clip992)" style="stroke:#000000; stroke-linecap:round; stroke-linejoin:round; stroke-width:0; stroke-opacity:1; fill:none" points="387.926,608.887 387.926,398.616 397.577,398.616 397.577,608.887 387.926,608.887 "/>
<path clip-path="url(#clip992)" d="M424.117 608.887 L424.117 398.616 L433.768 398.616 L433.768 608.887 L424.117 608.887 L424.117 608.887  Z" fill="#c2a4cf" fill-rule="evenodd" fill-opacity="1"/>
<polyline clip-path="url(#clip992)" style="stroke:#000000; stroke-linecap:round; stroke-linejoin:round; stroke-width:0; stroke-opacity:1; fill:none" points="424.117,608.887 424.117,398.616 433.768,398.616 433.768,608.887 424.117,608.887 "/>
<path clip-path="url(#clip992)" d="M460.307 608.887 L460.307 398.616 L469.958 398.616 L469.958 608.887 L460.307 608.887 L460.307 608.887  Z" fill="#c2a4cf" fill-rule="evenodd" fill-opacity="1"/>
<polyline clip-path="url(#clip992)" style="stroke:#000000; stroke-linecap:round; stroke-linejoin:round; stroke-width:0; stroke-opacity:1; fill:none" points="460.307,608.887 460.307,398.616 469.958,398.616 469.958,608.887 460.307,608.887 "/>
<path clip-path="url(#clip992)" d="M496.498 608.887 L496.498 398.616 L506.149 398.616 L506.149 608.887 L496.498 608.887 L496.498 608.887  Z" fill="#c2a4cf" fill-rule="evenodd" fill-opacity="1"/>
<polyline clip-path="url(#clip992)" style="stroke:#000000; stroke-linecap:round; stroke-linejoin:round; stroke-width:0; stroke-opacity:1; fill:none" points="496.498,608.887 496.498,398.616 506.149,398.616 506.149,608.887 496.498,608.887 "/>
<path clip-path="url(#clip992)" d="M532.689 608.887 L532.689 398.616 L542.34 398.616 L542.34 608.887 L532.689 608.887 L532.689 608.887  Z" fill="#c2a4cf" fill-rule="evenodd" fill-opacity="1"/>
<polyline clip-path="url(#clip992)" style="stroke:#000000; stroke-linecap:round; stroke-linejoin:round; stroke-width:0; stroke-opacity:1; fill:none" points="532.689,608.887 532.689,398.616 542.34,398.616 542.34,608.887 532.689,608.887 "/>
<path clip-path="url(#clip992)" d="M568.88 608.887 L568.88 398.616 L578.53 398.616 L578.53 608.887 L568.88 608.887 L568.88 608.887  Z" fill="#c2a4cf" fill-rule="evenodd" fill-opacity="1"/>
<polyline clip-path="url(#clip992)" style="stroke:#000000; stroke-linecap:round; stroke-linejoin:round; stroke-width:0; stroke-opacity:1; fill:none" points="568.88,608.887 568.88,398.616 578.53,398.616 578.53,608.887 568.88,608.887 "/>
<path clip-path="url(#clip992)" d="M605.07 608.887 L605.07 398.616 L614.721 398.616 L614.721 608.887 L605.07 608.887 L605.07 608.887  Z" fill="#c2a4cf" fill-rule="evenodd" fill-opacity="1"/>
<polyline clip-path="url(#clip992)" style="stroke:#000000; stroke-linecap:round; stroke-linejoin:round; stroke-width:0; stroke-opacity:1; fill:none" points="605.07,608.887 605.07,398.616 614.721,398.616 614.721,608.887 605.07,608.887 "/>
<path clip-path="url(#clip992)" d="M641.261 608.887 L641.261 398.616 L650.912 398.616 L650.912 608.887 L641.261 608.887 L641.261 608.887  Z" fill="#c2a4cf" fill-rule="evenodd" fill-opacity="1"/>
<polyline clip-path="url(#clip992)" style="stroke:#000000; stroke-linecap:round; stroke-linejoin:round; stroke-width:0; stroke-opacity:1; fill:none" points="641.261,608.887 641.261,398.616 650.912,398.616 650.912,608.887 641.261,608.887 "/>
<path clip-path="url(#clip992)" d="M677.452 608.887 L677.452 398.616 L687.102 398.616 L687.102 608.887 L677.452 608.887 L677.452 608.887  Z" fill="#c2a4cf" fill-rule="evenodd" fill-opacity="1"/>
<polyline clip-path="url(#clip992)" style="stroke:#000000; stroke-linecap:round; stroke-linejoin:round; stroke-width:0; stroke-opacity:1; fill:none" points="677.452,608.887 677.452,398.616 687.102,398.616 687.102,608.887 677.452,608.887 "/>
<path clip-path="url(#clip992)" d="M713.642 608.887 L713.642 398.616 L723.293 398.616 L723.293 608.887 L713.642 608.887 L713.642 608.887  Z" fill="#c2a4cf" fill-rule="evenodd" fill-opacity="1"/>
<polyline clip-path="url(#clip992)" style="stroke:#000000; stroke-linecap:round; stroke-linejoin:round; stroke-width:0; stroke-opacity:1; fill:none" points="713.642,608.887 713.642,398.616 723.293,398.616 723.293,608.887 713.642,608.887 "/>
<path clip-path="url(#clip992)" d="M749.833 608.887 L749.833 398.616 L759.484 398.616 L759.484 608.887 L749.833 608.887 L749.833 608.887  Z" fill="#c2a4cf" fill-rule="evenodd" fill-opacity="1"/>
<polyline clip-path="url(#clip992)" style="stroke:#000000; stroke-linecap:round; stroke-linejoin:round; stroke-width:0; stroke-opacity:1; fill:none" points="749.833,608.887 749.833,398.616 759.484,398.616 759.484,608.887 749.833,608.887 "/>
<path clip-path="url(#clip992)" d="M786.024 608.887 L786.024 398.616 L795.674 398.616 L795.674 608.887 L786.024 608.887 L786.024 608.887  Z" fill="#c2a4cf" fill-rule="evenodd" fill-opacity="1"/>
<polyline clip-path="url(#clip992)" style="stroke:#000000; stroke-linecap:round; stroke-linejoin:round; stroke-width:0; stroke-opacity:1; fill:none" points="786.024,608.887 786.024,398.616 795.674,398.616 795.674,608.887 786.024,608.887 "/>
<path clip-path="url(#clip992)" d="M822.214 608.887 L822.214 398.616 L831.865 398.616 L831.865 608.887 L822.214 608.887 L822.214 608.887  Z" fill="#c2a4cf" fill-rule="evenodd" fill-opacity="1"/>
<polyline clip-path="url(#clip992)" style="stroke:#000000; stroke-linecap:round; stroke-linejoin:round; stroke-width:0; stroke-opacity:1; fill:none" points="822.214,608.887 822.214,398.616 831.865,398.616 831.865,608.887 822.214,608.887 "/>
<path clip-path="url(#clip992)" d="M858.405 608.887 L858.405 398.616 L868.056 398.616 L868.056 608.887 L858.405 608.887 L858.405 608.887  Z" fill="#c2a4cf" fill-rule="evenodd" fill-opacity="1"/>
<polyline clip-path="url(#clip992)" style="stroke:#000000; stroke-linecap:round; stroke-linejoin:round; stroke-width:0; stroke-opacity:1; fill:none" points="858.405,608.887 858.405,398.616 868.056,398.616 868.056,608.887 858.405,608.887 "/>
<path clip-path="url(#clip992)" d="M894.596 608.887 L894.596 398.616 L904.247 398.616 L904.247 608.887 L894.596 608.887 L894.596 608.887  Z" fill="#c2a4cf" fill-rule="evenodd" fill-opacity="1"/>
<polyline clip-path="url(#clip992)" style="stroke:#000000; stroke-linecap:round; stroke-linejoin:round; stroke-width:0; stroke-opacity:1; fill:none" points="894.596,608.887 894.596,398.616 904.247,398.616 904.247,608.887 894.596,608.887 "/>
<path clip-path="url(#clip992)" d="M930.786 608.887 L930.786 398.616 L940.437 398.616 L940.437 608.887 L930.786 608.887 L930.786 608.887  Z" fill="#c2a4cf" fill-rule="evenodd" fill-opacity="1"/>
<polyline clip-path="url(#clip992)" style="stroke:#000000; stroke-linecap:round; stroke-linejoin:round; stroke-width:0; stroke-opacity:1; fill:none" points="930.786,608.887 930.786,398.616 940.437,398.616 940.437,608.887 930.786,608.887 "/>
<path clip-path="url(#clip992)" d="M966.977 608.887 L966.977 398.616 L976.628 398.616 L976.628 608.887 L966.977 608.887 L966.977 608.887  Z" fill="#c2a4cf" fill-rule="evenodd" fill-opacity="1"/>
<polyline clip-path="url(#clip992)" style="stroke:#000000; stroke-linecap:round; stroke-linejoin:round; stroke-width:0; stroke-opacity:1; fill:none" points="966.977,608.887 966.977,398.616 976.628,398.616 976.628,608.887 966.977,608.887 "/>
<path clip-path="url(#clip992)" d="M1003.17 608.887 L1003.17 398.616 L1012.82 398.616 L1012.82 608.887 L1003.17 608.887 L1003.17 608.887  Z" fill="#c2a4cf" fill-rule="evenodd" fill-opacity="1"/>
<polyline clip-path="url(#clip992)" style="stroke:#000000; stroke-linecap:round; stroke-linejoin:round; stroke-width:0; stroke-opacity:1; fill:none" points="1003.17,608.887 1003.17,398.616 1012.82,398.616 1012.82,608.887 1003.17,608.887 "/>
<path clip-path="url(#clip992)" d="M1039.36 608.887 L1039.36 398.616 L1049.01 398.616 L1049.01 608.887 L1039.36 608.887 L1039.36 608.887  Z" fill="#c2a4cf" fill-rule="evenodd" fill-opacity="1"/>
<polyline clip-path="url(#clip992)" style="stroke:#000000; stroke-linecap:round; stroke-linejoin:round; stroke-width:0; stroke-opacity:1; fill:none" points="1039.36,608.887 1039.36,398.616 1049.01,398.616 1049.01,608.887 1039.36,608.887 "/>
<path clip-path="url(#clip992)" d="M1075.55 608.887 L1075.55 398.616 L1085.2 398.616 L1085.2 608.887 L1075.55 608.887 L1075.55 608.887  Z" fill="#c2a4cf" fill-rule="evenodd" fill-opacity="1"/>
<polyline clip-path="url(#clip992)" style="stroke:#000000; stroke-linecap:round; stroke-linejoin:round; stroke-width:0; stroke-opacity:1; fill:none" points="1075.55,608.887 1075.55,398.616 1085.2,398.616 1085.2,608.887 1075.55,608.887 "/>
<path clip-path="url(#clip992)" d="M1111.74 608.887 L1111.74 398.616 L1121.39 398.616 L1121.39 608.887 L1111.74 608.887 L1111.74 608.887  Z" fill="#c2a4cf" fill-rule="evenodd" fill-opacity="1"/>
<polyline clip-path="url(#clip992)" style="stroke:#000000; stroke-linecap:round; stroke-linejoin:round; stroke-width:0; stroke-opacity:1; fill:none" points="1111.74,608.887 1111.74,398.616 1121.39,398.616 1121.39,608.887 1111.74,608.887 "/>
<circle clip-path="url(#clip992)" style="fill:#c2a4cf; stroke:none; fill-opacity:0" cx="284.179" cy="608.887" r="2"/>
<circle clip-path="url(#clip992)" style="fill:#c2a4cf; stroke:none; fill-opacity:0" cx="320.37" cy="608.887" r="2"/>
<circle clip-path="url(#clip992)" style="fill:#c2a4cf; stroke:none; fill-opacity:0" cx="356.561" cy="608.887" r="2"/>
<circle clip-path="url(#clip992)" style="fill:#c2a4cf; stroke:none; fill-opacity:0" cx="392.752" cy="608.887" r="2"/>
<circle clip-path="url(#clip992)" style="fill:#c2a4cf; stroke:none; fill-opacity:0" cx="428.942" cy="608.887" r="2"/>
<circle clip-path="url(#clip992)" style="fill:#c2a4cf; stroke:none; fill-opacity:0" cx="465.133" cy="608.887" r="2"/>
<circle clip-path="url(#clip992)" style="fill:#c2a4cf; stroke:none; fill-opacity:0" cx="501.324" cy="608.887" r="2"/>
<circle clip-path="url(#clip992)" style="fill:#c2a4cf; stroke:none; fill-opacity:0" cx="537.514" cy="608.887" r="2"/>
<circle clip-path="url(#clip992)" style="fill:#c2a4cf; stroke:none; fill-opacity:0" cx="573.705" cy="608.887" r="2"/>
<circle clip-path="url(#clip992)" style="fill:#c2a4cf; stroke:none; fill-opacity:0" cx="609.896" cy="608.887" r="2"/>
<circle clip-path="url(#clip992)" style="fill:#c2a4cf; stroke:none; fill-opacity:0" cx="646.086" cy="608.887" r="2"/>
<circle clip-path="url(#clip992)" style="fill:#c2a4cf; stroke:none; fill-opacity:0" cx="682.277" cy="608.887" r="2"/>
<circle clip-path="url(#clip992)" style="fill:#c2a4cf; stroke:none; fill-opacity:0" cx="718.468" cy="608.887" r="2"/>
<circle clip-path="url(#clip992)" style="fill:#c2a4cf; stroke:none; fill-opacity:0" cx="754.658" cy="608.887" r="2"/>
<circle clip-path="url(#clip992)" style="fill:#c2a4cf; stroke:none; fill-opacity:0" cx="790.849" cy="608.887" r="2"/>
<circle clip-path="url(#clip992)" style="fill:#c2a4cf; stroke:none; fill-opacity:0" cx="827.04" cy="608.887" r="2"/>
<circle clip-path="url(#clip992)" style="fill:#c2a4cf; stroke:none; fill-opacity:0" cx="863.23" cy="608.887" r="2"/>
<circle clip-path="url(#clip992)" style="fill:#c2a4cf; stroke:none; fill-opacity:0" cx="899.421" cy="608.887" r="2"/>
<circle clip-path="url(#clip992)" style="fill:#c2a4cf; stroke:none; fill-opacity:0" cx="935.612" cy="608.887" r="2"/>
<circle clip-path="url(#clip992)" style="fill:#c2a4cf; stroke:none; fill-opacity:0" cx="971.802" cy="608.887" r="2"/>
<circle clip-path="url(#clip992)" style="fill:#c2a4cf; stroke:none; fill-opacity:0" cx="1007.99" cy="608.887" r="2"/>
<circle clip-path="url(#clip992)" style="fill:#c2a4cf; stroke:none; fill-opacity:0" cx="1044.18" cy="608.887" r="2"/>
<circle clip-path="url(#clip992)" style="fill:#c2a4cf; stroke:none; fill-opacity:0" cx="1080.37" cy="608.887" r="2"/>
<circle clip-path="url(#clip992)" style="fill:#c2a4cf; stroke:none; fill-opacity:0" cx="1116.57" cy="608.887" r="2"/>
<path clip-path="url(#clip992)" d="M289.005 877 L289.005 398.616 L298.656 398.616 L298.656 877 L289.005 877 L289.005 877  Z" fill="#a6db9f" fill-rule="evenodd" fill-opacity="1"/>
<polyline clip-path="url(#clip992)" style="stroke:#000000; stroke-linecap:round; stroke-linejoin:round; stroke-width:0; stroke-opacity:1; fill:none" points="289.005,877 289.005,398.616 298.656,398.616 298.656,877 289.005,877 "/>
<path clip-path="url(#clip992)" d="M325.196 877 L325.196 398.616 L334.846 398.616 L334.846 877 L325.196 877 L325.196 877  Z" fill="#a6db9f" fill-rule="evenodd" fill-opacity="1"/>
<polyline clip-path="url(#clip992)" style="stroke:#000000; stroke-linecap:round; stroke-linejoin:round; stroke-width:0; stroke-opacity:1; fill:none" points="325.196,877 325.196,398.616 334.846,398.616 334.846,877 325.196,877 "/>
<path clip-path="url(#clip992)" d="M361.386 877 L361.386 398.616 L371.037 398.616 L371.037 877 L361.386 877 L361.386 877  Z" fill="#a6db9f" fill-rule="evenodd" fill-opacity="1"/>
<polyline clip-path="url(#clip992)" style="stroke:#000000; stroke-linecap:round; stroke-linejoin:round; stroke-width:0; stroke-opacity:1; fill:none" points="361.386,877 361.386,398.616 371.037,398.616 371.037,877 361.386,877 "/>
<path clip-path="url(#clip992)" d="M397.577 877 L397.577 398.616 L407.228 398.616 L407.228 877 L397.577 877 L397.577 877  Z" fill="#a6db9f" fill-rule="evenodd" fill-opacity="1"/>
<polyline clip-path="url(#clip992)" style="stroke:#000000; stroke-linecap:round; stroke-linejoin:round; stroke-width:0; stroke-opacity:1; fill:none" points="397.577,877 397.577,398.616 407.228,398.616 407.228,877 397.577,877 "/>
<path clip-path="url(#clip992)" d="M433.768 877 L433.768 398.616 L443.418 398.616 L443.418 877 L433.768 877 L433.768 877  Z" fill="#a6db9f" fill-rule="evenodd" fill-opacity="1"/>
<polyline clip-path="url(#clip992)" style="stroke:#000000; stroke-linecap:round; stroke-linejoin:round; stroke-width:0; stroke-opacity:1; fill:none" points="433.768,877 433.768,398.616 443.418,398.616 443.418,877 433.768,877 "/>
<path clip-path="url(#clip992)" d="M469.958 877 L469.958 398.616 L479.609 398.616 L479.609 877 L469.958 877 L469.958 877  Z" fill="#a6db9f" fill-rule="evenodd" fill-opacity="1"/>
<polyline clip-path="url(#clip992)" style="stroke:#000000; stroke-linecap:round; stroke-linejoin:round; stroke-width:0; stroke-opacity:1; fill:none" points="469.958,877 469.958,398.616 479.609,398.616 479.609,877 469.958,877 "/>
<path clip-path="url(#clip992)" d="M506.149 877 L506.149 398.616 L515.8 398.616 L515.8 877 L506.149 877 L506.149 877  Z" fill="#a6db9f" fill-rule="evenodd" fill-opacity="1"/>
<polyline clip-path="url(#clip992)" style="stroke:#000000; stroke-linecap:round; stroke-linejoin:round; stroke-width:0; stroke-opacity:1; fill:none" points="506.149,877 506.149,398.616 515.8,398.616 515.8,877 506.149,877 "/>
<path clip-path="url(#clip992)" d="M542.34 877 L542.34 398.616 L551.991 398.616 L551.991 877 L542.34 877 L542.34 877  Z" fill="#a6db9f" fill-rule="evenodd" fill-opacity="1"/>
<polyline clip-path="url(#clip992)" style="stroke:#000000; stroke-linecap:round; stroke-linejoin:round; stroke-width:0; stroke-opacity:1; fill:none" points="542.34,877 542.34,398.616 551.991,398.616 551.991,877 542.34,877 "/>
<path clip-path="url(#clip992)" d="M578.53 877 L578.53 398.616 L588.181 398.616 L588.181 877 L578.53 877 L578.53 877  Z" fill="#a6db9f" fill-rule="evenodd" fill-opacity="1"/>
<polyline clip-path="url(#clip992)" style="stroke:#000000; stroke-linecap:round; stroke-linejoin:round; stroke-width:0; stroke-opacity:1; fill:none" points="578.53,877 578.53,398.616 588.181,398.616 588.181,877 578.53,877 "/>
<path clip-path="url(#clip992)" d="M614.721 877 L614.721 398.616 L624.372 398.616 L624.372 877 L614.721 877 L614.721 877  Z" fill="#a6db9f" fill-rule="evenodd" fill-opacity="1"/>
<polyline clip-path="url(#clip992)" style="stroke:#000000; stroke-linecap:round; stroke-linejoin:round; stroke-width:0; stroke-opacity:1; fill:none" points="614.721,877 614.721,398.616 624.372,398.616 624.372,877 614.721,877 "/>
<path clip-path="url(#clip992)" d="M650.912 640.955 L650.912 398.616 L660.563 398.616 L660.563 640.955 L650.912 640.955 L650.912 640.955  Z" fill="#a6db9f" fill-rule="evenodd" fill-opacity="1"/>
<polyline clip-path="url(#clip992)" style="stroke:#000000; stroke-linecap:round; stroke-linejoin:round; stroke-width:0; stroke-opacity:1; fill:none" points="650.912,640.955 650.912,398.616 660.563,398.616 660.563,640.955 650.912,640.955 "/>
<path clip-path="url(#clip992)" d="M687.102 640.955 L687.102 398.616 L696.753 398.616 L696.753 640.955 L687.102 640.955 L687.102 640.955  Z" fill="#a6db9f" fill-rule="evenodd" fill-opacity="1"/>
<polyline clip-path="url(#clip992)" style="stroke:#000000; stroke-linecap:round; stroke-linejoin:round; stroke-width:0; stroke-opacity:1; fill:none" points="687.102,640.955 687.102,398.616 696.753,398.616 696.753,640.955 687.102,640.955 "/>
<path clip-path="url(#clip992)" d="M723.293 640.955 L723.293 398.616 L732.944 398.616 L732.944 640.955 L723.293 640.955 L723.293 640.955  Z" fill="#a6db9f" fill-rule="evenodd" fill-opacity="1"/>
<polyline clip-path="url(#clip992)" style="stroke:#000000; stroke-linecap:round; stroke-linejoin:round; stroke-width:0; stroke-opacity:1; fill:none" points="723.293,640.955 723.293,398.616 732.944,398.616 732.944,640.955 723.293,640.955 "/>
<path clip-path="url(#clip992)" d="M759.484 640.955 L759.484 398.616 L769.135 398.616 L769.135 640.955 L759.484 640.955 L759.484 640.955  Z" fill="#a6db9f" fill-rule="evenodd" fill-opacity="1"/>
<polyline clip-path="url(#clip992)" style="stroke:#000000; stroke-linecap:round; stroke-linejoin:round; stroke-width:0; stroke-opacity:1; fill:none" points="759.484,640.955 759.484,398.616 769.135,398.616 769.135,640.955 759.484,640.955 "/>
<path clip-path="url(#clip992)" d="M795.674 640.955 L795.674 398.616 L805.325 398.616 L805.325 640.955 L795.674 640.955 L795.674 640.955  Z" fill="#a6db9f" fill-rule="evenodd" fill-opacity="1"/>
<polyline clip-path="url(#clip992)" style="stroke:#000000; stroke-linecap:round; stroke-linejoin:round; stroke-width:0; stroke-opacity:1; fill:none" points="795.674,640.955 795.674,398.616 805.325,398.616 805.325,640.955 795.674,640.955 "/>
<path clip-path="url(#clip992)" d="M831.865 640.955 L831.865 398.616 L841.516 398.616 L841.516 640.955 L831.865 640.955 L831.865 640.955  Z" fill="#a6db9f" fill-rule="evenodd" fill-opacity="1"/>
<polyline clip-path="url(#clip992)" style="stroke:#000000; stroke-linecap:round; stroke-linejoin:round; stroke-width:0; stroke-opacity:1; fill:none" points="831.865,640.955 831.865,398.616 841.516,398.616 841.516,640.955 831.865,640.955 "/>
<path clip-path="url(#clip992)" d="M868.056 877 L868.056 398.616 L877.707 398.616 L877.707 877 L868.056 877 L868.056 877  Z" fill="#a6db9f" fill-rule="evenodd" fill-opacity="1"/>
<polyline clip-path="url(#clip992)" style="stroke:#000000; stroke-linecap:round; stroke-linejoin:round; stroke-width:0; stroke-opacity:1; fill:none" points="868.056,877 868.056,398.616 877.707,398.616 877.707,877 868.056,877 "/>
<path clip-path="url(#clip992)" d="M904.247 877 L904.247 398.616 L913.897 398.616 L913.897 877 L904.247 877 L904.247 877  Z" fill="#a6db9f" fill-rule="evenodd" fill-opacity="1"/>
<polyline clip-path="url(#clip992)" style="stroke:#000000; stroke-linecap:round; stroke-linejoin:round; stroke-width:0; stroke-opacity:1; fill:none" points="904.247,877 904.247,398.616 913.897,398.616 913.897,877 904.247,877 "/>
<path clip-path="url(#clip992)" d="M940.437 877 L940.437 398.616 L950.088 398.616 L950.088 877 L940.437 877 L940.437 877  Z" fill="#a6db9f" fill-rule="evenodd" fill-opacity="1"/>
<polyline clip-path="url(#clip992)" style="stroke:#000000; stroke-linecap:round; stroke-linejoin:round; stroke-width:0; stroke-opacity:1; fill:none" points="940.437,877 940.437,398.616 950.088,398.616 950.088,877 940.437,877 "/>
<path clip-path="url(#clip992)" d="M976.628 877 L976.628 398.616 L986.279 398.616 L986.279 877 L976.628 877 L976.628 877  Z" fill="#a6db9f" fill-rule="evenodd" fill-opacity="1"/>
<polyline clip-path="url(#clip992)" style="stroke:#000000; stroke-linecap:round; stroke-linejoin:round; stroke-width:0; stroke-opacity:1; fill:none" points="976.628,877 976.628,398.616 986.279,398.616 986.279,877 976.628,877 "/>
<path clip-path="url(#clip992)" d="M1012.82 877 L1012.82 398.616 L1022.47 398.616 L1022.47 877 L1012.82 877 L1012.82 877  Z" fill="#a6db9f" fill-rule="evenodd" fill-opacity="1"/>
<polyline clip-path="url(#clip992)" style="stroke:#000000; stroke-linecap:round; stroke-linejoin:round; stroke-width:0; stroke-opacity:1; fill:none" points="1012.82,877 1012.82,398.616 1022.47,398.616 1022.47,877 1012.82,877 "/>
<path clip-path="url(#clip992)" d="M1049.01 877 L1049.01 398.616 L1058.66 398.616 L1058.66 877 L1049.01 877 L1049.01 877  Z" fill="#a6db9f" fill-rule="evenodd" fill-opacity="1"/>
<polyline clip-path="url(#clip992)" style="stroke:#000000; stroke-linecap:round; stroke-linejoin:round; stroke-width:0; stroke-opacity:1; fill:none" points="1049.01,877 1049.01,398.616 1058.66,398.616 1058.66,877 1049.01,877 "/>
<path clip-path="url(#clip992)" d="M1085.2 877 L1085.2 398.616 L1094.85 398.616 L1094.85 877 L1085.2 877 L1085.2 877  Z" fill="#a6db9f" fill-rule="evenodd" fill-opacity="1"/>
<polyline clip-path="url(#clip992)" style="stroke:#000000; stroke-linecap:round; stroke-linejoin:round; stroke-width:0; stroke-opacity:1; fill:none" points="1085.2,877 1085.2,398.616 1094.85,398.616 1094.85,877 1085.2,877 "/>
<path clip-path="url(#clip992)" d="M1121.39 877 L1121.39 398.616 L1131.04 398.616 L1131.04 877 L1121.39 877 L1121.39 877  Z" fill="#a6db9f" fill-rule="evenodd" fill-opacity="1"/>
<polyline clip-path="url(#clip992)" style="stroke:#000000; stroke-linecap:round; stroke-linejoin:round; stroke-width:0; stroke-opacity:1; fill:none" points="1121.39,877 1121.39,398.616 1131.04,398.616 1131.04,877 1121.39,877 "/>
<circle clip-path="url(#clip992)" style="fill:#a6db9f; stroke:none; fill-opacity:0" cx="293.83" cy="877" r="2"/>
<circle clip-path="url(#clip992)" style="fill:#a6db9f; stroke:none; fill-opacity:0" cx="330.021" cy="877" r="2"/>
<circle clip-path="url(#clip992)" style="fill:#a6db9f; stroke:none; fill-opacity:0" cx="366.212" cy="877" r="2"/>
<circle clip-path="url(#clip992)" style="fill:#a6db9f; stroke:none; fill-opacity:0" cx="402.402" cy="877" r="2"/>
<circle clip-path="url(#clip992)" style="fill:#a6db9f; stroke:none; fill-opacity:0" cx="438.593" cy="877" r="2"/>
<circle clip-path="url(#clip992)" style="fill:#a6db9f; stroke:none; fill-opacity:0" cx="474.784" cy="877" r="2"/>
<circle clip-path="url(#clip992)" style="fill:#a6db9f; stroke:none; fill-opacity:0" cx="510.974" cy="877" r="2"/>
<circle clip-path="url(#clip992)" style="fill:#a6db9f; stroke:none; fill-opacity:0" cx="547.165" cy="877" r="2"/>
<circle clip-path="url(#clip992)" style="fill:#a6db9f; stroke:none; fill-opacity:0" cx="583.356" cy="877" r="2"/>
<circle clip-path="url(#clip992)" style="fill:#a6db9f; stroke:none; fill-opacity:0" cx="619.546" cy="877" r="2"/>
<circle clip-path="url(#clip992)" style="fill:#a6db9f; stroke:none; fill-opacity:0" cx="655.737" cy="640.955" r="2"/>
<circle clip-path="url(#clip992)" style="fill:#a6db9f; stroke:none; fill-opacity:0" cx="691.928" cy="640.955" r="2"/>
<circle clip-path="url(#clip992)" style="fill:#a6db9f; stroke:none; fill-opacity:0" cx="728.119" cy="640.955" r="2"/>
<circle clip-path="url(#clip992)" style="fill:#a6db9f; stroke:none; fill-opacity:0" cx="764.309" cy="640.955" r="2"/>
<circle clip-path="url(#clip992)" style="fill:#a6db9f; stroke:none; fill-opacity:0" cx="800.5" cy="640.955" r="2"/>
<circle clip-path="url(#clip992)" style="fill:#a6db9f; stroke:none; fill-opacity:0" cx="836.691" cy="640.955" r="2"/>
<circle clip-path="url(#clip992)" style="fill:#a6db9f; stroke:none; fill-opacity:0" cx="872.881" cy="877" r="2"/>
<circle clip-path="url(#clip992)" style="fill:#a6db9f; stroke:none; fill-opacity:0" cx="909.072" cy="877" r="2"/>
<circle clip-path="url(#clip992)" style="fill:#a6db9f; stroke:none; fill-opacity:0" cx="945.263" cy="877" r="2"/>
<circle clip-path="url(#clip992)" style="fill:#a6db9f; stroke:none; fill-opacity:0" cx="981.453" cy="877" r="2"/>
<circle clip-path="url(#clip992)" style="fill:#a6db9f; stroke:none; fill-opacity:0" cx="1017.64" cy="877" r="2"/>
<circle clip-path="url(#clip992)" style="fill:#a6db9f; stroke:none; fill-opacity:0" cx="1053.83" cy="877" r="2"/>
<circle clip-path="url(#clip992)" style="fill:#a6db9f; stroke:none; fill-opacity:0" cx="1090.03" cy="877" r="2"/>
<circle clip-path="url(#clip992)" style="fill:#a6db9f; stroke:none; fill-opacity:0" cx="1126.22" cy="877" r="2"/>
<path clip-path="url(#clip990)" d="M812.225 293.45 L1122.6 293.45 L1122.6 78.4772 L812.225 78.4772  Z" fill="#ffffff" fill-rule="evenodd" fill-opacity="1"/>
<polyline clip-path="url(#clip990)" style="stroke:#000000; stroke-linecap:round; stroke-linejoin:round; stroke-width:4; stroke-opacity:1; fill:none" points="812.225,293.45 1122.6,293.45 1122.6,78.4772 812.225,78.4772 812.225,293.45 "/>
<path clip-path="url(#clip990)" d="M822.278 153.718 L882.596 153.718 L882.596 110.723 L822.278 110.723 L822.278 153.718  Z" fill="#7a3193" fill-rule="evenodd" fill-opacity="1"/>
<polyline clip-path="url(#clip990)" style="stroke:#000000; stroke-linecap:round; stroke-linejoin:round; stroke-width:0.8; stroke-opacity:1; fill:none" points="822.278,153.718 882.596,153.718 882.596,110.723 822.278,110.723 822.278,153.718 "/>
<g clip-path="url(#clip990)">
<text style="fill:#000000; fill-opacity:1; font-family:Book Antiqua,Palatino,Palatino Linotype,Palatino LT STD,Georgia,serif; font-size:51px; font-weight:bold; text-anchor:start;" transform="rotate(0, 892.649, 149.72)" x="892.649" y="149.72">CCFDUC</text>
</g>
<path clip-path="url(#clip990)" d="M822.278 207.461 L882.596 207.461 L882.596 164.466 L822.278 164.466 L822.278 207.461  Z" fill="#c2a4cf" fill-rule="evenodd" fill-opacity="1"/>
<polyline clip-path="url(#clip990)" style="stroke:#000000; stroke-linecap:round; stroke-linejoin:round; stroke-width:0.8; stroke-opacity:1; fill:none" points="822.278,207.461 882.596,207.461 882.596,164.466 822.278,164.466 822.278,207.461 "/>
<g clip-path="url(#clip990)">
<text style="fill:#000000; fill-opacity:1; font-family:Book Antiqua,Palatino,Palatino Linotype,Palatino LT STD,Georgia,serif; font-size:51px; font-weight:bold; text-anchor:start;" transform="rotate(0, 892.649, 203.463)" x="892.649" y="203.463">FCUC</text>
</g>
<path clip-path="url(#clip990)" d="M822.278 261.204 L882.596 261.204 L882.596 218.209 L822.278 218.209 L822.278 261.204  Z" fill="#a6db9f" fill-rule="evenodd" fill-opacity="1"/>
<polyline clip-path="url(#clip990)" style="stroke:#000000; stroke-linecap:round; stroke-linejoin:round; stroke-width:0.8; stroke-opacity:1; fill:none" points="822.278,261.204 882.596,261.204 882.596,218.209 822.278,218.209 822.278,261.204 "/>
<g clip-path="url(#clip990)">
<text style="fill:#000000; fill-opacity:1; font-family:Book Antiqua,Palatino,Palatino Linotype,Palatino LT STD,Georgia,serif; font-size:51px; font-weight:bold; text-anchor:start;" transform="rotate(0, 892.649, 257.206)" x="892.649" y="257.206">TUC</text>
</g>
</svg>
