<?xml version="1.0" encoding="utf-8"?>
<svg xmlns="http://www.w3.org/2000/svg" xmlns:xlink="http://www.w3.org/1999/xlink" width="300" height="300" viewBox="0 0 1200 1200">
<defs>
  <clipPath id="clip510">
    <rect x="0" y="0" width="1200" height="1200"/>
  </clipPath>
</defs>
<path clip-path="url(#clip510)" d="M0 1200 L1200 1200 L1200 0 L0 0  Z" fill="#ffffff" fill-rule="evenodd" fill-opacity="1"/>
<defs>
  <clipPath id="clip511">
    <rect x="240" y="120" width="841" height="841"/>
  </clipPath>
</defs>
<path clip-path="url(#clip510)" d="M247.989 984.237 L1152.76 984.237 L1152.76 47.2441 L247.989 47.2441  Z" fill="#ffffff" fill-rule="evenodd" fill-opacity="1"/>
<defs>
  <clipPath id="clip512">
    <rect x="247" y="47" width="906" height="938"/>
  </clipPath>
</defs>
<polyline clip-path="url(#clip512)" style="stroke:#808080; stroke-linecap:round; stroke-linejoin:round; stroke-width:2; stroke-opacity:0.1; fill:none" points="247.989,984.237 247.989,47.2441 "/>
<polyline clip-path="url(#clip512)" style="stroke:#808080; stroke-linecap:round; stroke-linejoin:round; stroke-width:2; stroke-opacity:0.1; fill:none" points="549.578,984.237 549.578,47.2441 "/>
<polyline clip-path="url(#clip512)" style="stroke:#808080; stroke-linecap:round; stroke-linejoin:round; stroke-width:2; stroke-opacity:0.1; fill:none" points="851.167,984.237 851.167,47.2441 "/>
<polyline clip-path="url(#clip512)" style="stroke:#808080; stroke-linecap:round; stroke-linejoin:round; stroke-width:2; stroke-opacity:0.1; fill:none" points="1152.76,984.237 1152.76,47.2441 "/>
<polyline clip-path="url(#clip512)" style="stroke:#808080; stroke-linecap:round; stroke-linejoin:round; stroke-width:2; stroke-opacity:0.1; fill:none" points="1454.34,984.237 1454.34,47.2441 "/>
<polyline clip-path="url(#clip512)" style="stroke:#808080; stroke-linecap:round; stroke-linejoin:round; stroke-width:2; stroke-opacity:0.1; fill:none" points="1755.93,984.237 1755.93,47.2441 "/>
<polyline clip-path="url(#clip512)" style="stroke:#808080; stroke-linecap:round; stroke-linejoin:round; stroke-width:2; stroke-opacity:0.1; fill:none" points="2057.52,984.237 2057.52,47.2441 "/>
<polyline clip-path="url(#clip510)" style="stroke:#000000; stroke-linecap:round; stroke-linejoin:round; stroke-width:4; stroke-opacity:1; fill:none" points="247.989,984.237 1152.76,984.237 "/>
<polyline clip-path="url(#clip510)" style="stroke:#000000; stroke-linecap:round; stroke-linejoin:round; stroke-width:4; stroke-opacity:1; fill:none" points="247.989,47.2441 1152.76,47.2441 "/>
<polyline clip-path="url(#clip510)" style="stroke:#000000; stroke-linecap:round; stroke-linejoin:round; stroke-width:4; stroke-opacity:1; fill:none" points="247.989,984.237 247.989,965.339 "/>
<polyline clip-path="url(#clip510)" style="stroke:#000000; stroke-linecap:round; stroke-linejoin:round; stroke-width:4; stroke-opacity:1; fill:none" points="549.578,984.237 549.578,965.339 "/>
<polyline clip-path="url(#clip510)" style="stroke:#000000; stroke-linecap:round; stroke-linejoin:round; stroke-width:4; stroke-opacity:1; fill:none" points="851.167,984.237 851.167,965.339 "/>
<polyline clip-path="url(#clip510)" style="stroke:#000000; stroke-linecap:round; stroke-linejoin:round; stroke-width:4; stroke-opacity:1; fill:none" points="1152.76,984.237 1152.76,965.339 "/>
<polyline clip-path="url(#clip510)" style="stroke:#000000; stroke-linecap:round; stroke-linejoin:round; stroke-width:4; stroke-opacity:1; fill:none" points="1454.34,984.237 1454.34,965.339 "/>
<polyline clip-path="url(#clip510)" style="stroke:#000000; stroke-linecap:round; stroke-linejoin:round; stroke-width:4; stroke-opacity:1; fill:none" points="1755.93,984.237 1755.93,965.339 "/>
<polyline clip-path="url(#clip510)" style="stroke:#000000; stroke-linecap:round; stroke-linejoin:round; stroke-width:4; stroke-opacity:1; fill:none" points="2057.52,984.237 2057.52,965.339 "/>
<g clip-path="url(#clip510)">
<text style="fill:#000000; fill-opacity:1; font-family:Book Antiqua,Palatino,Palatino Linotype,Palatino LT STD,Georgia,serif; font-size:51px; font-weight:bold; text-anchor:middle;" transform="rotate(0, 247.989, 1038.21)" x="247.989" y="1038.21">0</text>
</g>
<g clip-path="url(#clip510)">
<text style="fill:#000000; fill-opacity:1; font-family:Book Antiqua,Palatino,Palatino Linotype,Palatino LT STD,Georgia,serif; font-size:51px; font-weight:bold; text-anchor:middle;" transform="rotate(0, 549.578, 1038.21)" x="549.578" y="1038.21">10</text>
</g>
<g clip-path="url(#clip510)">
<text style="fill:#000000; fill-opacity:1; font-family:Book Antiqua,Palatino,Palatino Linotype,Palatino LT STD,Georgia,serif; font-size:51px; font-weight:bold; text-anchor:middle;" transform="rotate(0, 851.167, 1038.21)" x="851.167" y="1038.21">20</text>
</g>
<g clip-path="url(#clip510)">
<text style="fill:#000000; fill-opacity:1; font-family:Book Antiqua,Palatino,Palatino Linotype,Palatino LT STD,Georgia,serif; font-size:51px; font-weight:bold; text-anchor:middle;" transform="rotate(0, 1152.76, 1038.21)" x="1152.76" y="1038.21">30</text>
</g>
<g clip-path="url(#clip510)">
<text style="fill:#000000; fill-opacity:1; font-family:Book Antiqua,Palatino,Palatino Linotype,Palatino LT STD,Georgia,serif; font-size:51px; font-weight:bold; text-anchor:middle;" transform="rotate(0, 1454.34, 1038.21)" x="1454.34" y="1038.21">40</text>
</g>
<g clip-path="url(#clip510)">
<text style="fill:#000000; fill-opacity:1; font-family:Book Antiqua,Palatino,Palatino Linotype,Palatino LT STD,Georgia,serif; font-size:51px; font-weight:bold; text-anchor:middle;" transform="rotate(0, 1755.93, 1038.21)" x="1755.93" y="1038.21">50</text>
</g>
<g clip-path="url(#clip510)">
<text style="fill:#000000; fill-opacity:1; font-family:Book Antiqua,Palatino,Palatino Linotype,Palatino LT STD,Georgia,serif; font-size:51px; font-weight:bold; text-anchor:middle;" transform="rotate(0, 2057.52, 1038.21)" x="2057.52" y="1038.21">60</text>
</g>
<path clip-path="url(#clip510)" d="M677.2 1073.13 Q677.2 1074.03 676.781 1074.25 Q676.363 1074.45 675.203 1074.45 L669.02 1074.45 L664.124 1093.9 Q663.738 1095.61 663.738 1097.06 Q663.738 1098.67 664.221 1099.37 Q664.736 1100.08 665.799 1100.08 Q667.893 1100.08 670.147 1098.18 Q672.434 1096.28 674.366 1091.65 Q674.624 1091.03 674.752 1090.9 Q674.913 1090.74 675.332 1090.74 Q676.137 1090.74 676.137 1091.39 Q676.137 1091.61 675.686 1092.64 Q675.268 1093.67 674.334 1095.19 Q673.432 1096.7 672.24 1098.12 Q671.081 1099.54 669.31 1100.57 Q667.538 1101.56 665.638 1101.56 Q662.965 1101.56 661.258 1099.86 Q659.583 1098.15 659.583 1095.48 Q659.583 1094.61 660.26 1091.84 Q660.936 1089.04 664.608 1074.45 L658.778 1074.45 Q657.973 1074.45 657.651 1074.42 Q657.361 1074.38 657.136 1074.22 Q656.943 1074.03 656.943 1073.64 Q656.943 1073.03 657.2 1072.77 Q657.458 1072.48 657.78 1072.45 Q658.134 1072.39 658.939 1072.39 L665.123 1072.39 L667.699 1061.92 Q667.957 1060.89 668.601 1060.31 Q669.277 1059.7 669.664 1059.63 Q670.05 1059.54 670.34 1059.54 Q671.21 1059.54 671.725 1060.02 Q672.24 1060.47 672.24 1061.31 Q672.24 1061.76 669.535 1072.39 L675.332 1072.39 Q676.073 1072.39 676.363 1072.42 Q676.685 1072.45 676.942 1072.61 Q677.2 1072.77 677.2 1073.13 Z" fill="#000000" fill-rule="nonzero" fill-opacity="1" /><path clip-path="url(#clip510)" d="M680.516 1116.38 Q680.516 1116.06 680.773 1115.35 L704.058 1053.13 Q704.058 1053.06 704.219 1052.71 Q704.38 1052.35 704.477 1052.13 Q704.573 1051.87 704.767 1051.68 Q704.992 1051.48 705.25 1051.48 Q705.894 1051.48 705.894 1052.29 Q705.894 1052.35 705.701 1053.13 L682.351 1115.41 Q681.965 1116.54 681.707 1116.86 Q681.482 1117.18 681.095 1117.18 Q680.516 1117.18 680.516 1116.38 Z" fill="#000000" fill-rule="nonzero" fill-opacity="1" /><path clip-path="url(#clip510)" d="M737.463 1077.35 Q737.463 1079.15 736.561 1080.12 Q735.659 1081.05 734.435 1081.05 Q733.437 1081.05 732.89 1080.47 Q732.374 1079.89 732.374 1079.12 Q732.374 1077.99 733.276 1077.09 Q734.21 1076.19 735.563 1076.15 Q735.112 1074.96 733.92 1074.25 Q732.729 1073.51 731.666 1073.32 Q730.635 1073.13 729.605 1073.13 Q727.576 1073.13 726.03 1073.77 Q724.484 1074.42 723.711 1075.41 Q722.938 1076.38 722.584 1077.31 Q722.229 1078.25 722.229 1079.05 Q722.229 1079.76 722.39 1080.34 Q722.584 1080.89 723.035 1081.31 Q723.485 1081.69 723.808 1081.95 Q724.162 1082.21 724.935 1082.43 Q725.708 1082.66 726.03 1082.76 Q726.352 1082.82 727.254 1083.01 Q729.121 1083.4 729.959 1083.63 Q730.796 1083.82 731.891 1084.37 Q733.018 1084.91 733.856 1085.78 Q735.885 1087.81 735.885 1090.61 Q735.885 1091.65 735.53 1092.9 Q735.208 1094.16 734.274 1095.74 Q733.34 1097.31 731.923 1098.57 Q730.506 1099.83 728.059 1100.7 Q725.643 1101.56 722.616 1101.56 Q718.397 1101.56 715.788 1099.79 Q713.18 1097.99 713.18 1095.16 Q713.18 1093.09 714.307 1091.97 Q715.434 1090.81 716.883 1090.81 Q717.978 1090.81 718.655 1091.42 Q719.331 1092 719.331 1093.09 Q719.331 1094.58 718.139 1095.7 Q716.948 1096.83 715.176 1096.6 Q716.69 1100.08 722.68 1100.08 Q724.935 1100.08 726.674 1099.5 Q728.445 1098.89 729.411 1098.05 Q730.41 1097.18 731.054 1096.12 Q731.698 1095.06 731.891 1094.25 Q732.117 1093.45 732.117 1092.84 Q732.117 1091.77 731.698 1090.97 Q731.279 1090.16 730.7 1089.71 Q730.152 1089.23 729.089 1088.84 Q728.059 1088.42 727.318 1088.26 Q726.577 1088.1 725.257 1087.84 Q724.645 1087.72 724.258 1087.65 Q723.872 1087.56 723.067 1087.3 Q722.294 1087.01 721.746 1086.72 Q721.231 1086.43 720.555 1085.91 Q719.878 1085.4 719.46 1084.79 Q719.041 1084.17 718.751 1083.27 Q718.461 1082.37 718.461 1081.31 Q718.461 1080.34 718.751 1079.18 Q719.073 1078.02 719.878 1076.67 Q720.716 1075.32 721.907 1074.22 Q723.099 1073.13 725.096 1072.42 Q727.125 1071.68 729.605 1071.68 Q733.212 1071.68 735.337 1073.35 Q737.463 1074.99 737.463 1077.35 Z" fill="#000000" fill-rule="nonzero" fill-opacity="1" /><polyline clip-path="url(#clip512)" style="stroke:#808080; stroke-linecap:round; stroke-linejoin:round; stroke-width:2; stroke-opacity:0.1; fill:none" points="247.989,850.381 1152.76,850.381 "/>
<polyline clip-path="url(#clip512)" style="stroke:#808080; stroke-linecap:round; stroke-linejoin:round; stroke-width:2; stroke-opacity:0.1; fill:none" points="247.989,582.668 1152.76,582.668 "/>
<polyline clip-path="url(#clip512)" style="stroke:#808080; stroke-linecap:round; stroke-linejoin:round; stroke-width:2; stroke-opacity:0.1; fill:none" points="247.989,314.956 1152.76,314.956 "/>
<polyline clip-path="url(#clip512)" style="stroke:#808080; stroke-linecap:round; stroke-linejoin:round; stroke-width:2; stroke-opacity:0.1; fill:none" points="247.989,47.2441 1152.76,47.2441 "/>
<polyline clip-path="url(#clip510)" style="stroke:#000000; stroke-linecap:round; stroke-linejoin:round; stroke-width:4; stroke-opacity:1; fill:none" points="247.989,984.237 247.989,47.2441 "/>
<polyline clip-path="url(#clip510)" style="stroke:#000000; stroke-linecap:round; stroke-linejoin:round; stroke-width:4; stroke-opacity:1; fill:none" points="1152.76,984.237 1152.76,47.2441 "/>
<polyline clip-path="url(#clip510)" style="stroke:#000000; stroke-linecap:round; stroke-linejoin:round; stroke-width:4; stroke-opacity:1; fill:none" points="247.989,850.381 266.886,850.381 "/>
<polyline clip-path="url(#clip510)" style="stroke:#000000; stroke-linecap:round; stroke-linejoin:round; stroke-width:4; stroke-opacity:1; fill:none" points="247.989,582.668 266.886,582.668 "/>
<polyline clip-path="url(#clip510)" style="stroke:#000000; stroke-linecap:round; stroke-linejoin:round; stroke-width:4; stroke-opacity:1; fill:none" points="247.989,314.956 266.886,314.956 "/>
<polyline clip-path="url(#clip510)" style="stroke:#000000; stroke-linecap:round; stroke-linejoin:round; stroke-width:4; stroke-opacity:1; fill:none" points="247.989,47.2441 266.886,47.2441 "/>
<g clip-path="url(#clip510)">
<text style="fill:#000000; fill-opacity:1; font-family:Book Antiqua,Palatino,Palatino Linotype,Palatino LT STD,Georgia,serif; font-size:51px; font-weight:bold; text-anchor:middle;" transform="rotate(0, 187.004, 867.881)" x="187.004" y="867.881">−0.4</text>
</g>
<g clip-path="url(#clip510)">
<text style="fill:#000000; fill-opacity:1; font-family:Book Antiqua,Palatino,Palatino Linotype,Palatino LT STD,Georgia,serif; font-size:51px; font-weight:bold; text-anchor:middle;" transform="rotate(0, 187.004, 600.168)" x="187.004" y="600.168">−0.2</text>
</g>
<g clip-path="url(#clip510)">
<text style="fill:#000000; fill-opacity:1; font-family:Book Antiqua,Palatino,Palatino Linotype,Palatino LT STD,Georgia,serif; font-size:51px; font-weight:bold; text-anchor:middle;" transform="rotate(0, 198.271, 332.456)" x="198.271" y="332.456">0.0</text>
</g>
<g clip-path="url(#clip510)">
<text style="fill:#000000; fill-opacity:1; font-family:Book Antiqua,Palatino,Palatino Linotype,Palatino LT STD,Georgia,serif; font-size:51px; font-weight:bold; text-anchor:middle;" transform="rotate(0, 198.271, 64.7441)" x="198.271" y="64.7441">0.2</text>
</g>
<path clip-path="url(#clip510)" d="M113.196 660.102 Q112.938 660.102 111.264 659.233 Q109.557 658.363 103.47 655.304 Q97.3508 652.244 90.9418 649.088 L68.0757 637.719 Q66.6264 636.914 66.6264 635.883 Q66.6264 634.95 67.2061 634.531 Q67.7858 634.112 71.6827 632.18 Q73.5829 631.181 74.8067 630.602 L112.133 611.955 Q112.938 611.632 113.196 611.6 Q113.84 611.6 113.84 612.727 L113.84 658.363 Q113.84 660.102 113.196 660.102 M108.816 655.754 L108.816 620.264 L73.1964 638.009 L108.816 655.754 Z" fill="#000000" fill-rule="nonzero" fill-opacity="1" /><path clip-path="url(#clip510)" d="M71.876 572.569 Q73.6473 572.569 74.7423 573.696 Q75.8373 574.791 75.8373 576.176 Q75.8373 577.175 75.2254 577.915 Q74.6134 578.624 73.5507 578.624 Q72.4557 578.624 71.2962 577.787 Q70.1368 576.949 69.9758 575.049 Q68.7842 576.305 68.7842 578.302 Q68.7842 579.3 69.4283 580.138 Q70.0402 580.943 71.0386 581.394 Q72.0692 581.877 77.8984 582.972 Q79.7986 583.326 81.6343 583.648 Q83.4701 583.97 85.4024 584.357 L85.4024 578.882 Q85.4024 578.173 85.4346 577.883 Q85.4668 577.593 85.6279 577.368 Q85.7889 577.11 86.1431 577.11 Q87.0449 577.11 87.2704 577.529 Q87.4636 577.915 87.4636 579.075 L87.4636 584.743 L108.365 588.704 Q108.977 588.801 110.909 589.22 Q112.81 589.606 115.934 590.54 Q119.09 591.474 120.958 592.408 Q122.02 592.923 123.019 593.6 Q124.049 594.244 125.08 595.178 Q126.111 596.112 126.723 597.335 Q127.367 598.559 127.367 599.848 Q127.367 602.038 126.143 603.744 Q124.919 605.451 122.826 605.451 Q121.054 605.451 119.959 604.356 Q118.864 603.229 118.864 601.844 Q118.864 600.846 119.476 600.137 Q120.088 599.397 121.151 599.397 Q121.602 599.397 122.117 599.558 Q122.632 599.719 123.212 600.073 Q123.824 600.427 124.243 601.2 Q124.661 601.973 124.726 603.036 Q125.917 601.78 125.917 599.848 Q125.917 599.236 125.66 598.688 Q125.434 598.141 124.855 597.69 Q124.275 597.207 123.695 596.852 Q123.148 596.498 122.085 596.144 Q121.054 595.79 120.281 595.564 Q119.508 595.339 118.124 595.049 Q116.739 594.727 115.901 594.566 Q115.096 594.405 113.518 594.115 L87.4636 589.187 L87.4636 593.535 Q87.4636 594.308 87.4314 594.63 Q87.3992 594.92 87.2381 595.145 Q87.0449 595.371 86.6584 595.371 Q86.0465 595.371 85.7889 595.113 Q85.499 594.823 85.4668 594.501 Q85.4024 594.179 85.4024 593.406 L85.4024 588.833 Q77.2543 587.287 75.0643 586.675 Q72.7455 585.967 71.1352 584.872 Q69.4927 583.777 68.7198 582.553 Q67.9468 581.329 67.657 580.331 Q67.3349 579.3 67.3349 578.302 Q67.3349 576.047 68.5587 574.308 Q69.7504 572.569 71.876 572.569 Z" fill="#000000" fill-rule="nonzero" fill-opacity="1" /><path clip-path="url(#clip510)" d="M97.3508 563.689 Q86.2076 563.689 77.2221 559.535 Q73.454 557.763 70.2979 555.283 Q67.1417 552.804 65.7568 551.161 Q64.372 549.519 64.372 549.068 Q64.372 548.424 65.0161 548.391 Q65.3382 548.391 66.1433 549.261 Q76.9645 559.889 97.3508 559.857 Q117.802 559.857 128.204 549.519 Q129.331 548.391 129.685 548.391 Q130.33 548.391 130.33 549.068 Q130.33 549.519 129.009 551.097 Q127.689 552.675 124.661 555.122 Q121.634 557.57 117.93 559.341 Q108.945 563.689 97.3508 563.689 Z" fill="#000000" fill-rule="nonzero" fill-opacity="1" /><path clip-path="url(#clip510)" d="M86.1431 523.12 Q87.0449 523.12 87.2704 523.539 Q87.4636 523.958 87.4636 525.117 L87.4636 531.301 L106.916 536.196 Q108.623 536.582 110.072 536.582 Q111.682 536.582 112.391 536.099 Q113.099 535.584 113.099 534.521 Q113.099 532.428 111.199 530.173 Q109.299 527.887 104.662 525.954 Q104.05 525.697 103.921 525.568 Q103.76 525.407 103.76 524.988 Q103.76 524.183 104.404 524.183 Q104.629 524.183 105.66 524.634 Q106.69 525.053 108.204 525.987 Q109.718 526.888 111.135 528.08 Q112.552 529.239 113.583 531.011 Q114.581 532.782 114.581 534.682 Q114.581 537.355 112.874 539.062 Q111.167 540.737 108.494 540.737 Q107.624 540.737 104.855 540.061 Q102.053 539.384 87.4636 535.713 L87.4636 541.542 Q87.4636 542.347 87.4314 542.669 Q87.3992 542.959 87.2381 543.185 Q87.0449 543.378 86.6584 543.378 Q86.0465 543.378 85.7889 543.12 Q85.499 542.862 85.4668 542.54 Q85.4024 542.186 85.4024 541.381 L85.4024 535.197 L74.9355 532.621 Q73.9049 532.363 73.3252 531.719 Q72.7133 531.043 72.6489 530.656 Q72.5523 530.27 72.5523 529.98 Q72.5523 529.111 73.0354 528.595 Q73.4862 528.08 74.3236 528.08 Q74.7745 528.08 85.4024 530.785 L85.4024 524.988 Q85.4024 524.247 85.4346 523.958 Q85.4668 523.636 85.6279 523.378 Q85.7889 523.12 86.1431 523.12 Z" fill="#000000" fill-rule="nonzero" fill-opacity="1" /><path clip-path="url(#clip510)" d="M129.685 517.957 Q129.363 517.957 128.558 517.119 Q117.737 506.491 97.3508 506.491 Q76.9001 506.491 66.562 516.701 Q65.3704 517.957 65.0161 517.957 Q64.372 517.957 64.372 517.313 Q64.372 516.862 65.6924 515.284 Q67.0129 513.673 70.0402 511.258 Q73.0676 508.81 76.7712 507.007 Q85.7567 502.659 97.3508 502.659 Q108.494 502.659 117.479 506.814 Q121.248 508.585 124.404 511.065 Q127.56 513.545 128.945 515.187 Q130.33 516.83 130.33 517.313 Q130.33 517.957 129.685 517.957 Z" fill="#000000" fill-rule="nonzero" fill-opacity="1" /><path clip-path="url(#clip510)" d="M129.396 492.629 Q129.074 492.629 128.365 492.372 L66.1433 469.087 Q66.0789 469.087 65.7246 468.926 Q65.3704 468.765 65.1449 468.668 Q64.8873 468.572 64.694 468.378 Q64.5008 468.153 64.5008 467.895 Q64.5008 467.251 65.306 467.251 Q65.3704 467.251 66.1433 467.444 L128.429 490.794 Q129.557 491.18 129.879 491.438 Q130.201 491.663 130.201 492.05 Q130.201 492.629 129.396 492.629 Z" fill="#000000" fill-rule="nonzero" fill-opacity="1" /><path clip-path="url(#clip510)" d="M69.5249 404.442 Q70.4589 404.442 70.6521 404.861 Q70.8454 405.248 70.8454 406.665 Q70.8454 409.08 71.1674 410.175 Q71.4573 411.238 71.9726 411.56 Q72.4557 411.85 73.8727 412.204 L109.492 421.125 Q109.525 421.125 109.975 421.222 Q110.394 421.318 110.62 421.318 Q111.038 421.318 111.296 421.061 Q111.554 420.771 111.682 420.062 Q111.779 419.354 111.811 418.806 Q111.811 418.226 111.811 417.035 Q111.811 415.553 112.069 415.328 Q112.23 415.199 112.52 415.199 Q113.132 415.199 113.454 415.457 Q113.744 415.682 113.808 415.908 Q113.84 416.101 113.84 416.487 Q113.84 417.164 113.776 418.613 Q113.711 420.062 113.711 420.803 L113.647 425.022 L113.84 433.395 Q113.84 434.297 113.099 434.297 Q112.455 434.297 112.165 434.072 Q111.876 433.846 111.843 433.621 Q111.811 433.363 111.811 432.719 Q111.811 429.402 111.489 428.307 Q111.135 427.18 109.621 426.729 L91.4249 422.188 L91.4249 442.284 L109.492 446.793 Q109.525 446.793 109.975 446.89 Q110.394 446.986 110.62 446.986 Q111.038 446.986 111.296 446.729 Q111.554 446.439 111.682 445.73 Q111.779 445.022 111.811 444.474 Q111.811 443.895 111.811 442.703 Q111.811 441.221 112.069 440.964 Q112.23 440.835 112.52 440.835 Q112.971 440.835 113.293 440.964 Q113.583 441.06 113.679 441.318 Q113.776 441.544 113.808 441.705 Q113.84 441.866 113.84 442.155 Q113.84 442.832 113.776 444.281 Q113.711 445.698 113.711 446.439 L113.647 450.658 L113.84 459.031 Q113.84 459.965 113.099 459.965 Q112.455 459.965 112.198 459.74 Q111.908 459.514 111.876 459.225 Q111.811 458.935 111.811 458.194 Q111.811 456.584 111.715 455.617 Q111.618 454.651 111.489 454.039 Q111.328 453.395 110.877 453.073 Q110.426 452.719 110.04 452.558 Q109.621 452.397 108.687 452.171 L73.2608 443.347 Q72.198 443.089 72.037 443.089 Q71.4251 443.089 71.264 443.476 Q71.0708 443.83 70.9742 444.861 L70.8454 447.373 Q70.8454 448.146 70.8132 448.468 Q70.781 448.758 70.6199 448.983 Q70.4589 449.209 70.1046 449.209 Q69.6537 449.209 69.3639 449.112 Q69.0418 448.983 68.9452 448.758 Q68.8486 448.532 68.8164 448.371 Q68.7842 448.21 68.7842 447.952 L68.9774 439.45 L68.7842 431.012 Q68.7842 430.078 69.5249 430.078 Q70.4589 430.078 70.6521 430.497 Q70.8454 430.916 70.8454 432.333 Q70.8454 434.684 71.1674 435.779 Q71.4573 436.874 71.9726 437.228 Q72.4879 437.55 73.8727 437.872 L89.3637 441.769 L89.3637 421.64 L73.2608 417.679 Q72.1014 417.421 72.037 417.421 Q71.4251 417.421 71.264 417.808 Q71.0708 418.162 70.9742 419.193 L70.8454 421.705 Q70.8454 422.478 70.8132 422.8 Q70.781 423.09 70.6199 423.347 Q70.4589 423.573 70.1046 423.573 Q69.6537 423.573 69.3639 423.476 Q69.0418 423.347 68.9452 423.122 Q68.8486 422.896 68.8164 422.735 Q68.7842 422.574 68.7842 422.317 L68.9774 413.814 L68.7842 405.344 Q68.7842 404.442 69.5249 404.442 Z" fill="#000000" fill-rule="nonzero" fill-opacity="1" /><path clip-path="url(#clip510)" d="M85.338 373.791 Q85.5634 373.791 86.5296 374.339 Q87.4636 374.854 89.8146 376.754 Q92.1656 378.654 94.9031 381.488 Q95.9659 382.551 97.4474 384.162 Q98.9289 385.772 99.8951 386.867 L100.861 387.962 Q104.404 392.149 108.365 395.82 Q108.269 395.562 108.236 395.112 Q108.172 394.661 108.172 394.339 L108.172 394.017 Q108.172 392.342 109.299 389.411 Q110.137 386.835 110.137 385.514 Q110.137 384.226 109.686 382.809 Q109.235 381.392 107.914 379.846 Q106.594 378.3 104.597 377.592 Q104.275 377.463 104.178 377.398 Q104.05 377.334 103.921 377.141 Q103.76 376.947 103.76 376.69 Q103.76 376.336 103.953 376.11 Q104.146 375.885 104.404 375.885 Q104.984 375.885 106.143 376.336 Q107.302 376.754 108.752 377.688 Q110.201 378.59 111.521 379.782 Q112.81 380.941 113.711 382.68 Q114.581 384.419 114.581 386.255 Q114.581 387.575 113.937 388.542 Q113.325 389.508 112.133 390.474 Q110.62 391.794 110.137 392.503 Q109.621 393.211 109.621 394.306 Q109.621 397.237 113.711 399.91 Q114.291 400.2 114.42 400.393 Q114.581 400.554 114.581 400.941 Q114.549 401.746 113.905 401.746 Q113.647 401.746 112.52 401.037 Q111.36 400.297 109.331 398.654 Q107.302 396.979 105.273 394.951 L99.734 389.025 Q94.1946 382.455 91.0706 379.846 Q91.0706 380.941 91.0384 381.424 Q91.0062 381.875 90.813 382.777 Q90.5876 383.678 90.1045 384.934 Q89.1061 387.865 89.1061 389.089 Q89.1061 389.411 89.1383 389.765 Q89.1705 390.12 89.3315 390.925 Q89.4926 391.698 89.8146 392.342 Q90.1045 392.986 90.7486 393.662 Q91.3605 394.339 92.1978 394.693 Q92.4555 394.789 92.5843 394.854 Q92.7131 394.918 92.842 395.112 Q92.9386 395.273 92.9386 395.53 Q92.9386 395.917 92.7131 396.142 Q92.4877 396.335 92.1978 396.335 Q91.6181 396.335 90.4265 395.756 Q89.2349 395.176 87.9467 394.21 Q86.6262 393.244 85.6601 391.666 Q84.6939 390.087 84.6939 388.348 Q84.6939 387.318 85.1448 386.448 Q85.5956 385.546 86.0787 385.096 Q86.5296 384.612 87.528 383.807 Q88.3009 383.131 88.623 382.809 Q88.9451 382.487 89.2993 381.843 Q89.6214 381.166 89.6214 380.426 Q89.6214 379.202 88.6874 378.075 Q87.7212 376.947 85.4024 375.498 Q84.6939 375.112 84.6939 374.5 Q84.6939 373.791 85.338 373.791 Z" fill="#000000" fill-rule="nonzero" fill-opacity="1" /><polyline clip-path="url(#clip512)" style="stroke:#009af9; stroke-linecap:round; stroke-linejoin:round; stroke-width:8; stroke-opacity:1; fill:none" points="247.989,314.956 249.497,338.987 251.005,362.482 252.513,385.291 254.021,407.42 255.529,428.877 257.036,449.667 258.544,469.798 260.052,489.278 261.56,508.114 263.068,526.314 264.576,543.886 266.084,560.837 267.592,577.178 269.1,592.915 270.608,608.059 272.116,622.617 273.624,636.599 275.132,650.014 276.64,662.871 278.148,675.18 279.656,686.95 281.164,698.19 282.672,708.911 284.179,719.122 285.687,728.832 287.195,738.052 288.703,746.791 290.211,755.059 291.719,762.866 293.227,770.221 294.735,777.135 296.243,783.618 297.751,789.679 299.259,795.329 300.767,800.576 302.275,805.431 303.783,809.903 305.291,814.002 306.799,817.739 308.307,821.121 309.815,824.16 311.322,826.863 312.83,829.242 314.338,831.304 315.846,833.06 317.354,834.517 318.862,835.687 320.37,836.576 321.878,837.195 323.386,837.552 324.894,837.655 326.402,837.514 327.91,837.136 329.418,836.53 330.926,835.704 332.434,834.667 333.942,833.426 335.45,831.988 336.958,830.363 338.466,828.558 339.973,826.579 341.481,824.435 342.989,822.132 344.497,819.678 346.005,817.08 347.513,814.345 349.021,811.479 350.529,808.489 352.037,805.381 353.545,802.162 355.053,798.838 356.561,795.415 358.069,791.898 359.577,788.295 361.085,784.61 362.593,780.849 364.101,777.017 365.609,773.12 367.116,769.163 368.624,765.15 370.132,761.088 371.64,756.979 373.148,752.83 374.656,748.644 376.164,744.427 377.672,740.181 379.18,735.912 380.688,731.623 382.196,727.318 383.704,723.002 385.212,718.677 386.72,714.347 388.228,710.015 389.736,705.686 391.244,701.361 392.752,697.045 394.259,692.739 395.767,688.448 397.275,684.173 398.783,679.918 400.291,675.684 401.799,671.474 403.307,667.291 404.815,663.137 406.323,659.014 407.831,654.924 409.339,650.868 410.847,646.85 412.355,642.87 413.863,638.93 415.371,635.032 416.879,631.177 418.387,627.366 419.895,623.602 421.402,619.885 422.91,616.216 424.418,612.597 425.926,609.029 427.434,605.512 428.942,602.047 430.45,598.636 431.958,595.278 433.466,591.975 434.974,588.727 436.482,585.535 437.99,582.4 439.498,579.321 441.006,576.299 442.514,573.334 444.022,570.428 445.53,567.579 447.038,564.788 448.546,562.055 450.053,559.38 451.561,556.764 453.069,554.206 454.577,551.706 456.085,549.264 457.593,546.88 459.101,544.553 460.609,542.284 462.117,540.073 463.625,537.918 465.133,535.82 466.641,533.778 468.149,531.792 469.657,529.861 471.165,527.985 472.673,526.164 474.181,524.397 475.689,522.684 477.196,521.023 478.704,519.415 480.212,517.859 481.72,516.354 483.228,514.899 484.736,513.495 486.244,512.139 487.752,510.833 489.26,509.574 490.768,508.363 492.276,507.199 493.784,506.08 495.292,505.006 496.8,503.977 498.308,502.992 499.816,502.049 501.324,501.149 502.832,500.29 504.339,499.471 505.847,498.693 507.355,497.954 508.863,497.253 510.371,496.589 511.879,495.962 513.387,495.371 514.895,494.816 516.403,494.295 517.911,493.807 519.419,493.352 520.927,492.93 522.435,492.538 523.943,492.177 525.451,491.846 526.959,491.544 528.467,491.27 529.975,491.024 531.482,490.804 532.99,490.61 534.498,490.442 536.006,490.298 537.514,490.177 539.022,490.08 540.53,490.005 542.038,489.952 543.546,489.92 545.054,489.908 546.562,489.915 548.07,489.942 549.578,489.986 551.086,490.048 552.594,490.128 554.102,490.223 555.61,490.334 557.118,490.46 558.626,490.601 560.133,490.755 561.641,490.923 563.149,491.103 564.657,491.296 566.165,491.5 567.673,491.715 569.181,491.94 570.689,492.176 572.197,492.421 573.705,492.675 575.213,492.937 576.721,493.207 578.229,493.485 579.737,493.77 581.245,494.061 582.753,494.358 584.261,494.661 585.769,494.97 587.276,495.283 588.784,495.601 590.292,495.922 591.8,496.248 593.308,496.577 594.816,496.908 596.324,497.243 597.832,497.579 599.34,497.918 600.848,498.258 602.356,498.599 603.864,498.942 605.372,499.285 606.88,499.629 608.388,499.973 609.896,500.316 611.404,500.66 612.912,501.002 614.419,501.344 615.927,501.685 617.435,502.025 618.943,502.363 620.451,502.699 621.959,503.034 623.467,503.366 624.975,503.697 626.483,504.024 627.991,504.35 629.499,504.672 631.007,504.992 632.515,505.308 634.023,505.622 635.531,505.932 637.039,506.238 638.547,506.541 640.055,506.841 641.562,507.137 643.07,507.429 644.578,507.717 646.086,508.001 647.594,508.281 649.102,508.557 650.61,508.828 652.118,509.096 653.626,509.359 655.134,509.617 656.642,509.872 658.15,510.121 659.658,510.367 661.166,510.607 662.674,510.844 664.182,511.075 665.69,511.302 667.198,511.525 668.705,511.743 670.213,511.956 671.721,512.164 673.229,512.368 674.737,512.568 676.245,512.762 677.753,512.953 679.261,513.138 680.769,513.319 682.277,513.496 683.785,513.667 685.293,513.835 686.801,513.998 688.309,514.156 689.817,514.31 691.325,514.46 692.833,514.606 694.341,514.747 695.849,514.884 697.356,515.016 698.864,515.145 700.372,515.269 701.88,515.389 703.388,515.505 704.896,515.618 706.404,515.726 707.912,515.831 709.42,515.931 710.928,516.028 712.436,516.121 713.944,516.211 715.452,516.297 716.96,516.379 718.468,516.458 719.976,516.533 721.484,516.605 722.992,516.674 724.499,516.74 726.007,516.802 727.515,516.862 729.023,516.918 730.531,516.971 732.039,517.021 733.547,517.069 735.055,517.113 736.563,517.155 738.071,517.195 739.579,517.231 741.087,517.265 742.595,517.297 744.103,517.326 745.611,517.353 747.119,517.377 748.627,517.399 750.135,517.419 751.642,517.437 753.15,517.453 754.658,517.467 756.166,517.478 757.674,517.488 759.182,517.496 760.69,517.503 762.198,517.507 763.706,517.51 765.214,517.511 766.722,517.511 768.23,517.509 769.738,517.506 771.246,517.501 772.754,517.495 774.262,517.488 775.77,517.479 777.278,517.47 778.785,517.459 780.293,517.447 781.801,517.434 783.309,517.419 784.817,517.404 786.325,517.388 787.833,517.371 789.341,517.354 790.849,517.335 792.357,517.316 793.865,517.296 795.373,517.275 796.881,517.254 798.389,517.232 799.897,517.209 801.405,517.186 802.913,517.163 804.421,517.139 805.929,517.114 807.436,517.09 808.944,517.064 810.452,517.039 811.96,517.013 813.468,516.987 814.976,516.961 816.484,516.934 817.992,516.908 819.5,516.881 821.008,516.854 822.516,516.827 824.024,516.8 825.532,516.772 827.04,516.745 828.548,516.718 830.056,516.691 831.564,516.663 833.072,516.636 834.579,516.609 836.087,516.582 837.595,516.555 839.103,516.528 840.611,516.501 842.119,516.475 843.627,516.448 845.135,516.422 846.643,516.396 848.151,516.37 849.659,516.344 851.167,516.319 852.675,516.294 854.183,516.269 855.691,516.244 857.199,516.22 858.707,516.196 860.215,516.172 861.722,516.148 863.23,516.125 864.738,516.102 866.246,516.08 867.754,516.057 869.262,516.035 870.77,516.014 872.278,515.992 873.786,515.971 875.294,515.951 876.802,515.931 878.31,515.911 879.818,515.891 881.326,515.872 882.834,515.853 884.342,515.835 885.85,515.817 887.358,515.799 888.865,515.782 890.373,515.765 891.881,515.748 893.389,515.732 894.897,515.716 896.405,515.7 897.913,515.685 899.421,515.67 900.929,515.656 902.437,515.642 903.945,515.628 905.453,515.615 906.961,515.602 908.469,515.589 909.977,515.577 911.485,515.565 912.993,515.553 914.501,515.542 916.009,515.531 917.516,515.52 919.024,515.51 920.532,515.5 922.04,515.491 923.548,515.481 925.056,515.472 926.564,515.464 928.072,515.455 929.58,515.447 931.088,515.44 932.596,515.432 934.104,515.425 935.612,515.418 937.12,515.411 938.628,515.405 940.136,515.399 941.644,515.393 943.152,515.388 944.659,515.383 946.167,515.378 947.675,515.373 949.183,515.368 950.691,515.364 952.199,515.36 953.707,515.356 955.215,515.353 956.723,515.349 958.231,515.346 959.739,515.343 961.247,515.34 962.755,515.338 964.263,515.335 965.771,515.333 967.279,515.331 968.787,515.33 970.295,515.328 971.802,515.326 973.31,515.325 974.818,515.324 976.326,515.323 977.834,515.322 979.342,515.322 980.85,515.321 982.358,515.321 983.866,515.32 985.374,515.32 986.882,515.32 988.39,515.32 989.898,515.321 991.406,515.321 992.914,515.321 994.422,515.322 995.93,515.323 997.438,515.323 998.945,515.324 1000.45,515.325 1001.96,515.326 1003.47,515.327 1004.98,515.329 1006.49,515.33 1007.99,515.331 1009.5,515.333 1011.01,515.334 1012.52,515.336 1014.02,515.337 1015.53,515.339 1017.04,515.34 1018.55,515.342 1020.06,515.344 1021.56,515.346 1023.07,515.348 1024.58,515.349 1026.09,515.351 1027.6,515.353 1029.1,515.355 1030.61,515.357 1032.12,515.359 1033.63,515.362 1035.14,515.364 1036.64,515.366 1038.15,515.368 1039.66,515.37 1041.17,515.372 1042.68,515.374 1044.18,515.376 1045.69,515.379 1047.2,515.381 1048.71,515.383 1050.22,515.385 1051.72,515.387 1053.23,515.389 1054.74,515.392 1056.25,515.394 1057.76,515.396 1059.26,515.398 1060.77,515.4 1062.28,515.402 1063.79,515.404 1065.3,515.406 1066.8,515.408 1068.31,515.41 1069.82,515.413 1071.33,515.415 1072.83,515.417 1074.34,515.419 1075.85,515.42 1077.36,515.422 1078.87,515.424 1080.37,515.426 1081.88,515.428 1083.39,515.43 1084.9,515.432 1086.41,515.434 1087.91,515.435 1089.42,515.437 1090.93,515.439 1092.44,515.441 1093.95,515.442 1095.45,515.444 1096.96,515.445 1098.47,515.447 1099.98,515.449 1101.49,515.45 1102.99,515.452 1104.5,515.453 1106.01,515.455 1107.52,515.456 1109.03,515.457 1110.53,515.459 1112.04,515.46 1113.55,515.461 1115.06,515.463 1116.57,515.464 1118.07,515.465 1119.58,515.466 1121.09,515.467 1122.6,515.468 1124.1,515.47 1125.61,515.471 1127.12,515.472 1128.63,515.473 1130.14,515.474 1131.64,515.475 1133.15,515.476 1134.66,515.476 1136.17,515.477 1137.68,515.478 1139.18,515.479 1140.69,515.48 1142.2,515.481 1143.71,515.481 1145.22,515.482 1146.72,515.483 1148.23,515.483 1149.74,515.484 1151.25,515.485 1152.76,515.485 1154.26,515.486 1155.77,515.486 1157.28,515.487 1158.79,515.487 1160.3,515.488 1161.8,515.488 1163.31,515.489 1164.82,515.489 1166.33,515.49 1167.84,515.49 1169.34,515.49 1170.85,515.491 1172.36,515.491 1173.87,515.491 1175.38,515.492 1176.88,515.492 1178.39,515.492 1179.9,515.492 1181.41,515.493 1182.91,515.493 1184.42,515.493 1185.93,515.493 1187.44,515.493 1188.95,515.493 1190.45,515.494 1191.96,515.494 1193.47,515.494 1194.98,515.494 1196.49,515.494 1197.99,515.494 1199.5,515.494 1201.01,515.494 1202.52,515.494 1204.03,515.494 1205.53,515.494 1207.04,515.494 1208.55,515.494 1210.06,515.494 1211.57,515.494 1213.07,515.494 1214.58,515.494 1216.09,515.494 1217.6,515.494 1219.11,515.494 1220.61,515.494 1222.12,515.494 1223.63,515.494 1225.14,515.494 1226.65,515.493 1228.15,515.493 1229.66,515.493 1231.17,515.493 1232.68,515.493 1234.18,515.493 1235.69,515.493 1237.2,515.493 1238.71,515.493 1240.22,515.492 1241.72,515.492 1243.23,515.492 1244.74,515.492 1246.25,515.492 1247.76,515.492 1249.26,515.491 1250.77,515.491 1252.28,515.491 1253.79,515.491 1255.3,515.491 1256.8,515.491 1258.31,515.49 1259.82,515.49 1261.33,515.49 1262.84,515.49 1264.34,515.49 1265.85,515.49 1267.36,515.489 1268.87,515.489 1270.38,515.489 1271.88,515.489 1273.39,515.489 1274.9,515.489 1276.41,515.488 1277.92,515.488 1279.42,515.488 1280.93,515.488 1282.44,515.488 1283.95,515.488 1285.46,515.487 1286.96,515.487 1288.47,515.487 1289.98,515.487 1291.49,515.487 1292.99,515.487 1294.5,515.486 1296.01,515.486 1297.52,515.486 1299.03,515.486 1300.53,515.486 1302.04,515.486 1303.55,515.486 1305.06,515.485 1306.57,515.485 1308.07,515.485 1309.58,515.485 1311.09,515.485 1312.6,515.485 1314.11,515.485 1315.61,515.484 1317.12,515.484 1318.63,515.484 1320.14,515.484 1321.65,515.484 1323.15,515.484 1324.66,515.484 1326.17,515.484 1327.68,515.483 1329.19,515.483 1330.69,515.483 1332.2,515.483 1333.71,515.483 1335.22,515.483 1336.73,515.483 1338.23,515.483 1339.74,515.483 1341.25,515.483 1342.76,515.482 1344.26,515.482 1345.77,515.482 1347.28,515.482 1348.79,515.482 1350.3,515.482 1351.8,515.482 1353.31,515.482 1354.82,515.482 1356.33,515.482 1357.84,515.482 1359.34,515.482 1360.85,515.482 1362.36,515.482 1363.87,515.481 1365.38,515.481 1366.88,515.481 1368.39,515.481 1369.9,515.481 1371.41,515.481 1372.92,515.481 1374.42,515.481 1375.93,515.481 1377.44,515.481 1378.95,515.481 1380.46,515.481 1381.96,515.481 1383.47,515.481 1384.98,515.481 1386.49,515.481 1388,515.481 1389.5,515.481 1391.01,515.481 1392.52,515.481 1394.03,515.481 1395.54,515.481 1397.04,515.481 1398.55,515.481 1400.06,515.481 1401.57,515.481 1403.07,515.481 1404.58,515.481 1406.09,515.481 1407.6,515.48 1409.11,515.48 1410.61,515.48 1412.12,515.48 1413.63,515.48 1415.14,515.48 1416.65,515.48 1418.15,515.48 1419.66,515.48 1421.17,515.48 1422.68,515.48 1424.19,515.48 1425.69,515.48 1427.2,515.48 1428.71,515.48 1430.22,515.48 1431.73,515.48 1433.23,515.48 1434.74,515.48 1436.25,515.48 1437.76,515.48 1439.27,515.48 1440.77,515.48 1442.28,515.48 1443.79,515.48 1445.3,515.48 1446.81,515.48 1448.31,515.48 1449.82,515.48 1451.33,515.48 1452.84,515.481 1454.34,515.481 1455.85,515.481 1457.36,515.481 1458.87,515.481 1460.38,515.481 1461.88,515.481 1463.39,515.481 1464.9,515.481 1466.41,515.481 1467.92,515.481 1469.42,515.481 1470.93,515.481 1472.44,515.481 1473.95,515.481 1475.46,515.481 1476.96,515.481 1478.47,515.481 1479.98,515.481 1481.49,515.481 1483,515.481 1484.5,515.481 1486.01,515.481 1487.52,515.481 1489.03,515.481 1490.54,515.481 1492.04,515.481 1493.55,515.481 1495.06,515.481 1496.57,515.481 1498.08,515.481 1499.58,515.481 1501.09,515.481 1502.6,515.481 1504.11,515.481 1505.62,515.481 1507.12,515.481 1508.63,515.481 1510.14,515.481 1511.65,515.481 1513.15,515.481 1514.66,515.481 1516.17,515.481 1517.68,515.481 1519.19,515.481 1520.69,515.481 1522.2,515.481 1523.71,515.481 1525.22,515.481 1526.73,515.481 1528.23,515.481 1529.74,515.481 1531.25,515.481 1532.76,515.481 1534.27,515.481 1535.77,515.481 1537.28,515.481 1538.79,515.481 1540.3,515.481 1541.81,515.481 1543.31,515.481 1544.82,515.481 1546.33,515.481 1547.84,515.481 1549.35,515.481 1550.85,515.481 1552.36,515.481 1553.87,515.481 1555.38,515.481 1556.89,515.481 1558.39,515.481 1559.9,515.481 1561.41,515.481 1562.92,515.481 1564.42,515.481 1565.93,515.481 1567.44,515.481 1568.95,515.481 1570.46,515.481 1571.96,515.481 1573.47,515.481 1574.98,515.481 1576.49,515.481 1578,515.481 1579.5,515.481 1581.01,515.481 1582.52,515.481 1584.03,515.481 1585.54,515.481 1587.04,515.481 1588.55,515.481 1590.06,515.481 1591.57,515.481 1593.08,515.481 1594.58,515.481 1596.09,515.481 1597.6,515.481 1599.11,515.481 1600.62,515.481 1602.12,515.481 1603.63,515.481 1605.14,515.481 1606.65,515.481 1608.16,515.481 1609.66,515.481 1611.17,515.481 1612.68,515.481 1614.19,515.481 1615.7,515.481 1617.2,515.481 1618.71,515.481 1620.22,515.481 1621.73,515.482 1623.23,515.482 1624.74,515.482 1626.25,515.482 1627.76,515.482 1629.27,515.482 1630.77,515.482 1632.28,515.482 1633.79,515.482 1635.3,515.482 1636.81,515.482 1638.31,515.482 1639.82,515.482 1641.33,515.482 1642.84,515.482 1644.35,515.482 1645.85,515.482 1647.36,515.482 1648.87,515.482 1650.38,515.482 1651.89,515.482 1653.39,515.482 1654.9,515.482 1656.41,515.482 1657.92,515.482 1659.43,515.482 1660.93,515.482 1662.44,515.482 1663.95,515.482 1665.46,515.482 1666.97,515.482 1668.47,515.482 1669.98,515.482 1671.49,515.482 1673,515.482 1674.5,515.482 1676.01,515.482 1677.52,515.482 1679.03,515.482 1680.54,515.482 1682.04,515.481 1683.55,515.481 1685.06,515.481 1686.57,515.481 1688.08,515.481 1689.58,515.481 1691.09,515.481 1692.6,515.481 1694.11,515.481 1695.62,515.481 1697.12,515.481 1698.63,515.481 1700.14,515.481 1701.65,515.481 1703.16,515.481 1704.66,515.481 1706.17,515.481 1707.68,515.481 1709.19,515.481 1710.7,515.481 1712.2,515.481 1713.71,515.481 1715.22,515.481 1716.73,515.481 1718.24,515.481 1719.74,515.481 1721.25,515.481 1722.76,515.481 1724.27,515.481 1725.78,515.481 1727.28,515.481 1728.79,515.481 1730.3,515.481 1731.81,515.481 1733.31,515.481 1734.82,515.481 1736.33,515.481 1737.84,515.481 1739.35,515.481 1740.85,515.481 1742.36,515.481 1743.87,515.481 1745.38,515.481 1746.89,515.481 1748.39,515.481 1749.9,515.481 1751.41,515.481 1752.92,515.481 1754.43,515.481 1755.93,515.481 1757.44,515.481 1758.95,515.481 1760.46,515.481 1761.97,515.481 1763.47,515.481 1764.98,515.481 1766.49,515.481 1768,515.481 1769.51,515.481 1771.01,515.481 1772.52,515.481 1774.03,515.481 1775.54,515.481 1777.05,515.481 1778.55,515.481 1780.06,515.481 1781.57,515.481 1783.08,515.481 1784.58,515.481 1786.09,515.481 1787.6,515.481 1789.11,515.481 1790.62,515.481 1792.12,515.481 1793.63,515.481 1795.14,515.481 1796.65,515.481 1798.16,515.481 1799.66,515.481 1801.17,515.481 1802.68,515.481 1804.19,515.481 1805.7,515.481 1807.2,515.481 1808.71,515.481 1810.22,515.481 1811.73,515.481 1813.24,515.481 1814.74,515.481 1816.25,515.481 1817.76,515.481 1819.27,515.481 1820.78,515.481 1822.28,515.481 1823.79,515.481 1825.3,515.481 1826.81,515.481 1828.32,515.481 1829.82,515.481 1831.33,515.481 1832.84,515.481 1834.35,515.481 1835.86,515.481 1837.36,515.481 1838.87,515.481 1840.38,515.481 1841.89,515.481 1843.39,515.481 1844.9,515.481 1846.41,515.481 1847.92,515.481 1849.43,515.481 1850.93,515.481 1852.44,515.481 1853.95,515.481 1855.46,515.481 1856.97,515.481 1858.47,515.481 1859.98,515.481 1861.49,515.481 1863,515.481 1864.51,515.481 1866.01,515.481 1867.52,515.481 1869.03,515.481 1870.54,515.481 1872.05,515.481 1873.55,515.481 1875.06,515.481 1876.57,515.481 1878.08,515.481 1879.59,515.481 1881.09,515.481 1882.6,515.481 1884.11,515.481 1885.62,515.481 1887.13,515.481 1888.63,515.481 1890.14,515.481 1891.65,515.481 1893.16,515.481 1894.66,515.481 1896.17,515.481 1897.68,515.481 1899.19,515.481 1900.7,515.481 1902.2,515.481 1903.71,515.481 1905.22,515.481 1906.73,515.481 1908.24,515.481 1909.74,515.481 1911.25,515.481 1912.76,515.481 1914.27,515.481 1915.78,515.481 1917.28,515.481 1918.79,515.481 1920.3,515.481 1921.81,515.481 1923.32,515.481 1924.82,515.481 1926.33,515.481 1927.84,515.481 1929.35,515.481 1930.86,515.481 1932.36,515.481 1933.87,515.481 1935.38,515.481 1936.89,515.481 1938.4,515.481 1939.9,515.481 1941.41,515.481 1942.92,515.481 1944.43,515.481 1945.94,515.481 1947.44,515.481 1948.95,515.481 1950.46,515.481 1951.97,515.481 1953.47,515.481 1954.98,515.481 1956.49,515.481 1958,515.481 1959.51,515.481 1961.01,515.481 1962.52,515.481 1964.03,515.481 1965.54,515.481 1967.05,515.481 1968.55,515.481 1970.06,515.481 1971.57,515.481 1973.08,515.481 1974.59,515.481 1976.09,515.481 1977.6,515.481 1979.11,515.481 1980.62,515.481 1982.13,515.481 1983.63,515.481 1985.14,515.481 1986.65,515.481 1988.16,515.481 1989.67,515.481 1991.17,515.481 1992.68,515.481 1994.19,515.481 1995.7,515.481 1997.21,515.481 1998.71,515.481 2000.22,515.481 2001.73,515.481 2003.24,515.481 2004.74,515.481 2006.25,515.481 2007.76,515.481 2009.27,515.481 2010.78,515.481 2012.28,515.481 2013.79,515.481 2015.3,515.481 2016.81,515.481 2018.32,515.481 2019.82,515.481 2021.33,515.481 2022.84,515.481 2024.35,515.481 2025.86,515.481 2027.36,515.481 2028.87,515.481 2030.38,515.481 2031.89,515.481 2033.4,515.481 2034.9,515.481 2036.41,515.481 2037.92,515.481 2039.43,515.481 2040.94,515.481 2042.44,515.481 2043.95,515.481 2045.46,515.481 2046.97,515.481 2048.48,515.481 2049.98,515.481 2051.49,515.481 2053,515.481 2054.51,515.481 2056.02,515.481 2057.52,515.481 "/>
<polyline clip-path="url(#clip512)" style="stroke:#e26f46; stroke-linecap:round; stroke-linejoin:round; stroke-width:8; stroke-opacity:1; fill:none" points="247.989,314.956 249.497,335.615 251.005,355.794 252.513,375.367 254.021,394.342 255.529,412.726 257.036,430.529 258.544,447.759 260.052,464.424 261.56,480.533 263.068,496.094 264.576,511.116 266.084,525.608 267.592,539.579 269.1,553.038 270.608,565.992 272.116,578.453 273.624,590.427 275.132,601.925 276.64,612.956 278.148,623.527 279.656,633.649 281.164,643.329 282.672,652.578 284.179,661.404 285.687,669.816 287.195,677.822 288.703,685.432 290.211,692.654 291.719,699.497 293.227,705.97 294.735,712.081 296.243,717.839 297.751,723.253 299.259,728.33 300.767,733.079 302.275,737.509 303.783,741.628 305.291,745.443 306.799,748.963 308.307,752.197 309.815,755.15 311.322,757.833 312.83,760.252 314.338,762.414 315.846,764.328 317.354,766.001 318.862,767.44 320.37,768.653 321.878,769.646 323.386,770.426 324.894,771.001 326.402,771.378 327.91,771.562 329.418,771.561 330.926,771.381 332.434,771.029 333.942,770.51 335.45,769.832 336.958,768.999 338.466,768.019 339.973,766.896 341.481,765.637 342.989,764.247 344.497,762.732 346.005,761.098 347.513,759.348 349.021,757.49 350.529,755.527 352.037,753.465 353.545,751.308 355.053,749.062 356.561,746.731 358.069,744.32 359.577,741.833 361.085,739.274 362.593,736.647 364.101,733.958 365.609,731.209 367.116,728.405 368.624,725.549 370.132,722.646 371.64,719.699 373.148,716.711 374.656,713.686 376.164,710.627 377.672,707.538 379.18,704.421 380.688,701.281 382.196,698.118 383.704,694.938 385.212,691.741 386.72,688.532 388.228,685.312 389.736,682.085 391.244,678.852 392.752,675.616 394.259,672.38 395.767,669.145 397.275,665.914 398.783,662.688 400.291,659.47 401.799,656.262 403.307,653.065 404.815,649.881 406.323,646.712 407.831,643.56 409.339,640.425 410.847,637.31 412.355,634.216 413.863,631.145 415.371,628.096 416.879,625.073 418.387,622.075 419.895,619.105 421.402,616.163 422.91,613.25 424.418,610.366 425.926,607.514 427.434,604.694 428.942,601.906 430.45,599.152 431.958,596.431 433.466,593.746 434.974,591.095 436.482,588.48 437.99,585.902 439.498,583.36 441.006,580.856 442.514,578.389 444.022,575.96 445.53,573.569 447.038,571.217 448.546,568.904 450.053,566.629 451.561,564.394 453.069,562.198 454.577,560.041 456.085,557.924 457.593,555.846 459.101,553.807 460.609,551.809 462.117,549.849 463.625,547.929 465.133,546.048 466.641,544.207 468.149,542.404 469.657,540.641 471.165,538.916 472.673,537.23 474.181,535.582 475.689,533.972 477.196,532.4 478.704,530.865 480.212,529.368 481.72,527.908 483.228,526.484 484.736,525.097 486.244,523.746 487.752,522.43 489.26,521.15 490.768,519.905 492.276,518.694 493.784,517.517 495.292,516.374 496.8,515.265 498.308,514.188 499.816,513.144 501.324,512.132 502.832,511.151 504.339,510.202 505.847,509.283 507.355,508.395 508.863,507.536 510.371,506.707 511.879,505.906 513.387,505.134 514.895,504.39 516.403,503.674 517.911,502.984 519.419,502.32 520.927,501.683 522.435,501.071 523.943,500.484 525.451,499.922 526.959,499.384 528.467,498.869 529.975,498.378 531.482,497.909 532.99,497.462 534.498,497.037 536.006,496.633 537.514,496.25 539.022,495.887 540.53,495.544 542.038,495.22 543.546,494.916 545.054,494.629 546.562,494.361 548.07,494.11 549.578,493.876 551.086,493.658 552.594,493.457 554.102,493.272 555.61,493.102 557.118,492.947 558.626,492.806 560.133,492.679 561.641,492.566 563.149,492.467 564.657,492.38 566.165,492.306 567.673,492.243 569.181,492.193 570.689,492.154 572.197,492.126 573.705,492.108 575.213,492.1 576.721,492.103 578.229,492.115 579.737,492.136 581.245,492.166 582.753,492.205 584.261,492.252 585.769,492.306 587.276,492.368 588.784,492.438 590.292,492.514 591.8,492.597 593.308,492.687 594.816,492.782 596.324,492.884 597.832,492.99 599.34,493.103 600.848,493.22 602.356,493.342 603.864,493.468 605.372,493.599 606.88,493.733 608.388,493.872 609.896,494.014 611.404,494.159 612.912,494.308 614.419,494.459 615.927,494.613 617.435,494.77 618.943,494.929 620.451,495.09 621.959,495.253 623.467,495.418 624.975,495.585 626.483,495.752 627.991,495.922 629.499,496.092 631.007,496.263 632.515,496.435 634.023,496.608 635.531,496.781 637.039,496.955 638.547,497.128 640.055,497.302 641.562,497.476 643.07,497.65 644.578,497.824 646.086,497.997 647.594,498.17 649.102,498.342 650.61,498.514 652.118,498.685 653.626,498.855 655.134,499.024 656.642,499.193 658.15,499.36 659.658,499.526 661.166,499.691 662.674,499.854 664.182,500.016 665.69,500.177 667.198,500.337 668.705,500.494 670.213,500.65 671.721,500.805 673.229,500.958 674.737,501.109 676.245,501.259 677.753,501.406 679.261,501.552 680.769,501.696 682.277,501.838 683.785,501.978 685.293,502.116 686.801,502.252 688.309,502.386 689.817,502.518 691.325,502.649 692.833,502.777 694.341,502.903 695.849,503.026 697.356,503.148 698.864,503.268 700.372,503.385 701.88,503.501 703.388,503.614 704.896,503.725 706.404,503.834 707.912,503.941 709.42,504.046 710.928,504.149 712.436,504.249 713.944,504.348 715.452,504.444 716.96,504.538 718.468,504.631 719.976,504.721 721.484,504.809 722.992,504.895 724.499,504.979 726.007,505.061 727.515,505.141 729.023,505.219 730.531,505.295 732.039,505.369 733.547,505.441 735.055,505.511 736.563,505.58 738.071,505.646 739.579,505.711 741.087,505.774 742.595,505.835 744.103,505.894 745.611,505.951 747.119,506.007 748.627,506.061 750.135,506.113 751.642,506.164 753.15,506.213 754.658,506.26 756.166,506.306 757.674,506.35 759.182,506.393 760.69,506.434 762.198,506.474 763.706,506.512 765.214,506.549 766.722,506.584 768.23,506.618 769.738,506.65 771.246,506.681 772.754,506.711 774.262,506.74 775.77,506.767 777.278,506.793 778.785,506.818 780.293,506.842 781.801,506.865 783.309,506.886 784.817,506.906 786.325,506.926 787.833,506.944 789.341,506.961 790.849,506.977 792.357,506.992 793.865,507.007 795.373,507.02 796.881,507.032 798.389,507.044 799.897,507.054 801.405,507.064 802.913,507.073 804.421,507.081 805.929,507.088 807.436,507.095 808.944,507.101 810.452,507.106 811.96,507.111 813.468,507.114 814.976,507.118 816.484,507.12 817.992,507.122 819.5,507.124 821.008,507.124 822.516,507.125 824.024,507.124 825.532,507.124 827.04,507.122 828.548,507.121 830.056,507.118 831.564,507.116 833.072,507.113 834.579,507.109 836.087,507.105 837.595,507.101 839.103,507.097 840.611,507.092 842.119,507.087 843.627,507.081 845.135,507.075 846.643,507.069 848.151,507.063 849.659,507.056 851.167,507.049 852.675,507.042 854.183,507.035 855.691,507.027 857.199,507.02 858.707,507.012 860.215,507.004 861.722,506.996 863.23,506.987 864.738,506.979 866.246,506.97 867.754,506.962 869.262,506.953 870.77,506.944 872.278,506.935 873.786,506.926 875.294,506.917 876.802,506.908 878.31,506.899 879.818,506.889 881.326,506.88 882.834,506.871 884.342,506.861 885.85,506.852 887.358,506.843 888.865,506.833 890.373,506.824 891.881,506.815 893.389,506.805 894.897,506.796 896.405,506.787 897.913,506.778 899.421,506.768 900.929,506.759 902.437,506.75 903.945,506.741 905.453,506.732 906.961,506.723 908.469,506.714 909.977,506.706 911.485,506.697 912.993,506.688 914.501,506.68 916.009,506.671 917.516,506.663 919.024,506.655 920.532,506.646 922.04,506.638 923.548,506.63 925.056,506.622 926.564,506.615 928.072,506.607 929.58,506.599 931.088,506.592 932.596,506.584 934.104,506.577 935.612,506.57 937.12,506.563 938.628,506.556 940.136,506.549 941.644,506.542 943.152,506.536 944.659,506.529 946.167,506.523 947.675,506.516 949.183,506.51 950.691,506.504 952.199,506.498 953.707,506.492 955.215,506.487 956.723,506.481 958.231,506.476 959.739,506.47 961.247,506.465 962.755,506.46 964.263,506.455 965.771,506.45 967.279,506.445 968.787,506.44 970.295,506.436 971.802,506.431 973.31,506.427 974.818,506.423 976.326,506.418 977.834,506.414 979.342,506.41 980.85,506.406 982.358,506.403 983.866,506.399 985.374,506.396 986.882,506.392 988.39,506.389 989.898,506.385 991.406,506.382 992.914,506.379 994.422,506.376 995.93,506.373 997.438,506.371 998.945,506.368 1000.45,506.365 1001.96,506.363 1003.47,506.36 1004.98,506.358 1006.49,506.356 1007.99,506.354 1009.5,506.351 1011.01,506.349 1012.52,506.347 1014.02,506.346 1015.53,506.344 1017.04,506.342 1018.55,506.34 1020.06,506.339 1021.56,506.337 1023.07,506.336 1024.58,506.334 1026.09,506.333 1027.6,506.332 1029.1,506.331 1030.61,506.329 1032.12,506.328 1033.63,506.327 1035.14,506.326 1036.64,506.325 1038.15,506.325 1039.66,506.324 1041.17,506.323 1042.68,506.322 1044.18,506.322 1045.69,506.321 1047.2,506.321 1048.71,506.32 1050.22,506.32 1051.72,506.319 1053.23,506.319 1054.74,506.318 1056.25,506.318 1057.76,506.318 1059.26,506.318 1060.77,506.317 1062.28,506.317 1063.79,506.317 1065.3,506.317 1066.8,506.317 1068.31,506.317 1069.82,506.317 1071.33,506.317 1072.83,506.317 1074.34,506.317 1075.85,506.317 1077.36,506.317 1078.87,506.317 1080.37,506.318 1081.88,506.318 1083.39,506.318 1084.9,506.318 1086.41,506.318 1087.91,506.319 1089.42,506.319 1090.93,506.319 1092.44,506.32 1093.95,506.32 1095.45,506.32 1096.96,506.321 1098.47,506.321 1099.98,506.321 1101.49,506.322 1102.99,506.322 1104.5,506.323 1106.01,506.323 1107.52,506.324 1109.03,506.324 1110.53,506.324 1112.04,506.325 1113.55,506.325 1115.06,506.326 1116.57,506.326 1118.07,506.327 1119.58,506.327 1121.09,506.328 1122.6,506.328 1124.1,506.329 1125.61,506.329 1127.12,506.33 1128.63,506.33 1130.14,506.331 1131.64,506.331 1133.15,506.332 1134.66,506.332 1136.17,506.333 1137.68,506.333 1139.18,506.334 1140.69,506.334 1142.2,506.335 1143.71,506.335 1145.22,506.336 1146.72,506.336 1148.23,506.337 1149.74,506.337 1151.25,506.338 1152.76,506.338 1154.26,506.339 1155.77,506.339 1157.28,506.34 1158.79,506.34 1160.3,506.34 1161.8,506.341 1163.31,506.341 1164.82,506.342 1166.33,506.342 1167.84,506.343 1169.34,506.343 1170.85,506.344 1172.36,506.344 1173.87,506.344 1175.38,506.345 1176.88,506.345 1178.39,506.346 1179.9,506.346 1181.41,506.346 1182.91,506.347 1184.42,506.347 1185.93,506.348 1187.44,506.348 1188.95,506.348 1190.45,506.349 1191.96,506.349 1193.47,506.349 1194.98,506.35 1196.49,506.35 1197.99,506.35 1199.5,506.351 1201.01,506.351 1202.52,506.351 1204.03,506.352 1205.53,506.352 1207.04,506.352 1208.55,506.352 1210.06,506.353 1211.57,506.353 1213.07,506.353 1214.58,506.354 1216.09,506.354 1217.6,506.354 1219.11,506.354 1220.61,506.354 1222.12,506.355 1223.63,506.355 1225.14,506.355 1226.65,506.355 1228.15,506.356 1229.66,506.356 1231.17,506.356 1232.68,506.356 1234.18,506.356 1235.69,506.357 1237.2,506.357 1238.71,506.357 1240.22,506.357 1241.72,506.357 1243.23,506.357 1244.74,506.357 1246.25,506.358 1247.76,506.358 1249.26,506.358 1250.77,506.358 1252.28,506.358 1253.79,506.358 1255.3,506.358 1256.8,506.359 1258.31,506.359 1259.82,506.359 1261.33,506.359 1262.84,506.359 1264.34,506.359 1265.85,506.359 1267.36,506.359 1268.87,506.359 1270.38,506.359 1271.88,506.359 1273.39,506.359 1274.9,506.36 1276.41,506.36 1277.92,506.36 1279.42,506.36 1280.93,506.36 1282.44,506.36 1283.95,506.36 1285.46,506.36 1286.96,506.36 1288.47,506.36 1289.98,506.36 1291.49,506.36 1292.99,506.36 1294.5,506.36 1296.01,506.36 1297.52,506.36 1299.03,506.36 1300.53,506.36 1302.04,506.36 1303.55,506.36 1305.06,506.36 1306.57,506.36 1308.07,506.36 1309.58,506.36 1311.09,506.36 1312.6,506.36 1314.11,506.36 1315.61,506.36 1317.12,506.36 1318.63,506.36 1320.14,506.36 1321.65,506.36 1323.15,506.36 1324.66,506.36 1326.17,506.36 1327.68,506.36 1329.19,506.36 1330.69,506.36 1332.2,506.36 1333.71,506.36 1335.22,506.36 1336.73,506.36 1338.23,506.36 1339.74,506.36 1341.25,506.36 1342.76,506.36 1344.26,506.36 1345.77,506.36 1347.28,506.36 1348.79,506.36 1350.3,506.36 1351.8,506.36 1353.31,506.36 1354.82,506.36 1356.33,506.36 1357.84,506.36 1359.34,506.36 1360.85,506.36 1362.36,506.36 1363.87,506.36 1365.38,506.36 1366.88,506.36 1368.39,506.36 1369.9,506.36 1371.41,506.36 1372.92,506.36 1374.42,506.36 1375.93,506.36 1377.44,506.36 1378.95,506.36 1380.46,506.36 1381.96,506.36 1383.47,506.359 1384.98,506.359 1386.49,506.359 1388,506.359 1389.5,506.359 1391.01,506.359 1392.52,506.359 1394.03,506.359 1395.54,506.359 1397.04,506.359 1398.55,506.359 1400.06,506.359 1401.57,506.359 1403.07,506.359 1404.58,506.359 1406.09,506.359 1407.6,506.359 1409.11,506.359 1410.61,506.359 1412.12,506.359 1413.63,506.359 1415.14,506.359 1416.65,506.359 1418.15,506.359 1419.66,506.359 1421.17,506.359 1422.68,506.359 1424.19,506.359 1425.69,506.359 1427.2,506.359 1428.71,506.359 1430.22,506.359 1431.73,506.359 1433.23,506.359 1434.74,506.359 1436.25,506.359 1437.76,506.359 1439.27,506.359 1440.77,506.359 1442.28,506.359 1443.79,506.359 1445.3,506.359 1446.81,506.359 1448.31,506.359 1449.82,506.358 1451.33,506.358 1452.84,506.358 1454.34,506.358 1455.85,506.358 1457.36,506.358 1458.87,506.358 1460.38,506.358 1461.88,506.358 1463.39,506.358 1464.9,506.358 1466.41,506.358 1467.92,506.358 1469.42,506.358 1470.93,506.358 1472.44,506.358 1473.95,506.358 1475.46,506.358 1476.96,506.358 1478.47,506.358 1479.98,506.358 1481.49,506.358 1483,506.358 1484.5,506.358 1486.01,506.358 1487.52,506.358 1489.03,506.358 1490.54,506.358 1492.04,506.358 1493.55,506.358 1495.06,506.358 1496.57,506.358 1498.08,506.358 1499.58,506.358 1501.09,506.358 1502.6,506.358 1504.11,506.358 1505.62,506.358 1507.12,506.358 1508.63,506.358 1510.14,506.358 1511.65,506.358 1513.15,506.358 1514.66,506.358 1516.17,506.358 1517.68,506.358 1519.19,506.358 1520.69,506.358 1522.2,506.358 1523.71,506.358 1525.22,506.358 1526.73,506.358 1528.23,506.358 1529.74,506.358 1531.25,506.358 1532.76,506.358 1534.27,506.358 1535.77,506.358 1537.28,506.358 1538.79,506.358 1540.3,506.358 1541.81,506.358 1543.31,506.358 1544.82,506.358 1546.33,506.358 1547.84,506.358 1549.35,506.358 1550.85,506.358 1552.36,506.358 1553.87,506.358 1555.38,506.358 1556.89,506.358 1558.39,506.358 1559.9,506.358 1561.41,506.358 1562.92,506.358 1564.42,506.358 1565.93,506.358 1567.44,506.358 1568.95,506.358 1570.46,506.358 1571.96,506.358 1573.47,506.358 1574.98,506.358 1576.49,506.358 1578,506.358 1579.5,506.358 1581.01,506.358 1582.52,506.358 1584.03,506.358 1585.54,506.358 1587.04,506.358 1588.55,506.358 1590.06,506.358 1591.57,506.358 1593.08,506.358 1594.58,506.358 1596.09,506.358 1597.6,506.358 1599.11,506.358 1600.62,506.358 1602.12,506.358 1603.63,506.358 1605.14,506.358 1606.65,506.358 1608.16,506.358 1609.66,506.358 1611.17,506.358 1612.68,506.358 1614.19,506.358 1615.7,506.358 1617.2,506.358 1618.71,506.358 1620.22,506.358 1621.73,506.358 1623.23,506.358 1624.74,506.358 1626.25,506.358 1627.76,506.358 1629.27,506.358 1630.77,506.358 1632.28,506.358 1633.79,506.358 1635.3,506.358 1636.81,506.358 1638.31,506.358 1639.82,506.358 1641.33,506.358 1642.84,506.358 1644.35,506.358 1645.85,506.358 1647.36,506.358 1648.87,506.358 1650.38,506.358 1651.89,506.358 1653.39,506.358 1654.9,506.358 1656.41,506.358 1657.92,506.358 1659.43,506.358 1660.93,506.358 1662.44,506.358 1663.95,506.358 1665.46,506.358 1666.97,506.358 1668.47,506.358 1669.98,506.358 1671.49,506.358 1673,506.358 1674.5,506.358 1676.01,506.358 1677.52,506.358 1679.03,506.358 1680.54,506.358 1682.04,506.358 1683.55,506.358 1685.06,506.358 1686.57,506.358 1688.08,506.358 1689.58,506.358 1691.09,506.358 1692.6,506.358 1694.11,506.358 1695.62,506.358 1697.12,506.358 1698.63,506.358 1700.14,506.358 1701.65,506.358 1703.16,506.358 1704.66,506.358 1706.17,506.358 1707.68,506.358 1709.19,506.358 1710.7,506.358 1712.2,506.358 1713.71,506.358 1715.22,506.358 1716.73,506.358 1718.24,506.358 1719.74,506.358 1721.25,506.358 1722.76,506.358 1724.27,506.358 1725.78,506.358 1727.28,506.358 1728.79,506.358 1730.3,506.358 1731.81,506.358 1733.31,506.358 1734.82,506.358 1736.33,506.358 1737.84,506.358 1739.35,506.358 1740.85,506.358 1742.36,506.358 1743.87,506.358 1745.38,506.358 1746.89,506.358 1748.39,506.358 1749.9,506.358 1751.41,506.358 1752.92,506.358 1754.43,506.358 1755.93,506.358 1757.44,506.358 1758.95,506.358 1760.46,506.358 1761.97,506.358 1763.47,506.358 1764.98,506.358 1766.49,506.358 1768,506.358 1769.51,506.358 1771.01,506.358 1772.52,506.358 1774.03,506.358 1775.54,506.358 1777.05,506.358 1778.55,506.358 1780.06,506.358 1781.57,506.358 1783.08,506.358 1784.58,506.358 1786.09,506.358 1787.6,506.358 1789.11,506.358 1790.62,506.358 1792.12,506.358 1793.63,506.358 1795.14,506.358 1796.65,506.358 1798.16,506.358 1799.66,506.358 1801.17,506.358 1802.68,506.358 1804.19,506.358 1805.7,506.358 1807.2,506.358 1808.71,506.358 1810.22,506.358 1811.73,506.358 1813.24,506.358 1814.74,506.358 1816.25,506.358 1817.76,506.358 1819.27,506.358 1820.78,506.358 1822.28,506.358 1823.79,506.358 1825.3,506.358 1826.81,506.358 1828.32,506.358 1829.82,506.358 1831.33,506.358 1832.84,506.358 1834.35,506.358 1835.86,506.358 1837.36,506.358 1838.87,506.358 1840.38,506.358 1841.89,506.358 1843.39,506.358 1844.9,506.358 1846.41,506.358 1847.92,506.358 1849.43,506.358 1850.93,506.358 1852.44,506.358 1853.95,506.358 1855.46,506.358 1856.97,506.358 1858.47,506.358 1859.98,506.358 1861.49,506.358 1863,506.358 1864.51,506.358 1866.01,506.358 1867.52,506.358 1869.03,506.358 1870.54,506.358 1872.05,506.358 1873.55,506.358 1875.06,506.358 1876.57,506.358 1878.08,506.358 1879.59,506.358 1881.09,506.358 1882.6,506.358 1884.11,506.358 1885.62,506.358 1887.13,506.358 1888.63,506.358 1890.14,506.358 1891.65,506.358 1893.16,506.358 1894.66,506.358 1896.17,506.358 1897.68,506.358 1899.19,506.358 1900.7,506.358 1902.2,506.358 1903.71,506.358 1905.22,506.358 1906.73,506.358 1908.24,506.358 1909.74,506.358 1911.25,506.358 1912.76,506.358 1914.27,506.358 1915.78,506.358 1917.28,506.358 1918.79,506.358 1920.3,506.358 1921.81,506.358 1923.32,506.358 1924.82,506.358 1926.33,506.358 1927.84,506.358 1929.35,506.358 1930.86,506.358 1932.36,506.358 1933.87,506.358 1935.38,506.358 1936.89,506.358 1938.4,506.358 1939.9,506.358 1941.41,506.358 1942.92,506.358 1944.43,506.358 1945.94,506.358 1947.44,506.358 1948.95,506.358 1950.46,506.358 1951.97,506.358 1953.47,506.358 1954.98,506.358 1956.49,506.358 1958,506.358 1959.51,506.358 1961.01,506.358 1962.52,506.358 1964.03,506.358 1965.54,506.358 1967.05,506.358 1968.55,506.358 1970.06,506.358 1971.57,506.358 1973.08,506.358 1974.59,506.358 1976.09,506.358 1977.6,506.358 1979.11,506.358 1980.62,506.358 1982.13,506.358 1983.63,506.358 1985.14,506.358 1986.65,506.358 1988.16,506.358 1989.67,506.358 1991.17,506.358 1992.68,506.358 1994.19,506.358 1995.7,506.358 1997.21,506.358 1998.71,506.358 2000.22,506.358 2001.73,506.358 2003.24,506.358 2004.74,506.358 2006.25,506.358 2007.76,506.358 2009.27,506.358 2010.78,506.358 2012.28,506.358 2013.79,506.358 2015.3,506.358 2016.81,506.358 2018.32,506.358 2019.82,506.358 2021.33,506.358 2022.84,506.358 2024.35,506.358 2025.86,506.358 2027.36,506.358 2028.87,506.358 2030.38,506.358 2031.89,506.358 2033.4,506.358 2034.9,506.358 2036.41,506.358 2037.92,506.358 2039.43,506.358 2040.94,506.358 2042.44,506.358 2043.95,506.358 2045.46,506.358 2046.97,506.358 2048.48,506.358 2049.98,506.358 2051.49,506.358 2053,506.358 2054.51,506.358 2056.02,506.358 2057.52,506.358 "/>
<polyline clip-path="url(#clip512)" style="stroke:#3da44d; stroke-linecap:round; stroke-linejoin:round; stroke-width:8; stroke-opacity:1; fill:none" points="247.989,314.956 249.497,335.655 251.005,356.454 252.513,376.237 254.021,394.083 255.529,412.836 257.036,431.56 258.544,449.599 260.052,466.104 261.56,481.615 263.068,496.953 264.576,511.955 266.084,527.076 267.592,540.082 269.1,554.027 270.608,566.396 272.116,577.998 273.624,590.161 275.132,602.255 276.64,613.131 278.148,624.312 279.656,635.041 281.164,644.964 282.672,652.329 284.179,660.876 285.687,668.96 287.195,676.757 288.703,683.758 290.211,690.752 291.719,698.161 293.227,704.092 294.735,710.495 296.243,715.489 297.751,720.797 299.259,724.281 300.767,729.976 302.275,733.715 303.783,737.701 305.291,741.107 306.799,744.454 308.307,748.088 309.815,751.715 311.322,754.905 312.83,758.593 314.338,760.369 315.846,762.106 317.354,763.289 318.862,765.343 320.37,766.603 321.878,766.957 323.386,769.229 324.894,770.403 326.402,771.055 327.91,770.764 329.418,770.36 330.926,770.872 332.434,770.338 333.942,769.927 335.45,768.128 336.958,767.471 338.466,765.056 339.973,763.541 341.481,761.257 342.989,759.386 344.497,756.83 346.005,755.247 347.513,753.467 349.021,752.496 350.529,750.884 352.037,748.896 353.545,745.924 355.053,743.449 356.561,740.922 358.069,737.797 359.577,734.361 361.085,731.188 362.593,729.435 364.101,727.324 365.609,722.943 367.116,720.526 368.624,717.684 370.132,715.673 371.64,711.859 373.148,709.722 374.656,707.025 376.164,703.751 377.672,700.155 379.18,697.378 380.688,694.387 382.196,691.197 383.704,690.355 385.212,687.421 386.72,684.297 388.228,682.208 389.736,678.751 391.244,675.385 392.752,671.503 394.259,669.041 395.767,665.865 397.275,661.988 398.783,657.959 400.291,655.015 401.799,652.629 403.307,649.925 404.815,646.888 406.323,644.029 407.831,641.06 409.339,638.152 410.847,634.992 412.355,632.293 413.863,630.157 415.371,627.322 416.879,624.73 418.387,622.28 419.895,619.522 421.402,615.568 422.91,612.718 424.418,610.243 425.926,607.374 427.434,605.257 428.942,602.047 430.45,598.048 431.958,595.633 433.466,593.431 434.974,590.519 436.482,588.889 437.99,586.872 439.498,584.252 441.006,581.417 442.514,578.058 444.022,576.014 445.53,575.175 447.038,574.162 448.546,571.754 450.053,569.358 451.561,566.808 453.069,564.647 454.577,562.326 456.085,559.784 457.593,557.787 459.101,556.449 460.609,555.619 462.117,552.959 463.625,550.866 465.133,549.399 466.641,546.518 468.149,544.547 469.657,543.437 471.165,541.66 472.673,540.031 474.181,538.432 475.689,538.048 477.196,536.23 478.704,534.766 480.212,533.078 481.72,531.646 483.228,530.216 484.736,528.954 486.244,527.01 487.752,526.952 489.26,525.938 490.768,525.04 492.276,523.572 493.784,522.069 495.292,520.805 496.8,519.266 498.308,516.573 499.816,514.335 501.324,512.69 502.832,512.361 504.339,511.086 505.847,511.079 507.355,511.717 508.863,510.27 510.371,509.5 511.879,509.525 513.387,509.308 514.895,508.883 516.403,507.904 517.911,507.631 519.419,506.784 520.927,506.191 522.435,506.47 523.943,507.303 525.451,507.81 526.959,507.681 528.467,508.388 529.975,507.206 531.482,505.776 532.99,506.527 534.498,505.22 536.006,505.992 537.514,505.232 539.022,505.643 540.53,505.27 542.038,503.771 543.546,501.879 545.054,501.036 546.562,500.987 548.07,500.806 549.578,500.896 551.086,500.421 552.594,500.701 554.102,499.91 555.61,500.084 557.118,499.309 558.626,498.933 560.133,499.975 561.641,500.262 563.149,499.531 564.657,499.041 566.165,499.165 567.673,498.182 569.181,498.586 570.689,498.653 572.197,498.738 573.705,499.187 575.213,499.934 576.721,499.668 578.229,499.548 579.737,498.438 581.245,498.249 582.753,498.566 584.261,498.165 585.769,497.691 587.276,497.274 588.784,497.548 590.292,496.218 591.8,496.486 593.308,496.983 594.816,496.988 596.324,496.981 597.832,497.136 599.34,496.913 600.848,497.049 602.356,498.05 603.864,498.002 605.372,498.385 606.88,498.065 608.388,498.183 609.896,497.825 611.404,497.346 612.912,497.76 614.419,498.045 615.927,498.656 617.435,499.296 618.943,500.679 620.451,501.801 621.959,502.329 623.467,502.377 624.975,501.917 626.483,501.754 627.991,501.463 629.499,502.263 631.007,502.743 632.515,501.852 634.023,502.324 635.531,503.204 637.039,504.749 638.547,504.327 640.055,504.389 641.562,504.451 643.07,505.322 644.578,505.847 646.086,505.662 647.594,505.138 649.102,504.703 650.61,504.043 652.118,504.257 653.626,503.647 655.134,502.571 656.642,502.693 658.15,503.138 659.658,504.046 661.166,504.445 662.674,505.843 664.182,504.855 665.69,506.197 667.198,506.835 668.705,507.465 670.213,506.615 671.721,506.627 673.229,507.235 674.737,505.697 676.245,505.931 677.753,506.354 679.261,505.682 680.769,505.608 682.277,505.034 683.785,504.41 685.293,505.345 686.801,505.871 688.309,506.758 689.817,506.35 691.325,506.237 692.833,505.619 694.341,505.451 695.849,504.296 697.356,504.297 698.864,504.333 700.372,505.327 701.88,505.859 703.388,504.333 704.896,504.644 706.404,504.486 707.912,504.914 709.42,503.65 710.928,503.563 712.436,502.373 713.944,503.263 715.452,503.216 716.96,502.909 718.468,503.059 719.976,502.179 721.484,501.598 722.992,501.7 724.499,503.008 726.007,502.421 727.515,503.172 729.023,503.05 730.531,503.485 732.039,504.147 733.547,504.487 735.055,503.361 736.563,503.358 738.071,504.709 739.579,505.065 741.087,505.72 742.595,505.3 744.103,504.768 745.611,504.516 747.119,503.305 748.627,502.484 750.135,503.006 751.642,503.128 753.15,502.023 754.658,500.953 756.166,501.945 757.674,502.6 759.182,502.614 760.69,502.497 762.198,501.046 763.706,500.962 765.214,501.382 766.722,500.398 768.23,500.605 769.738,499.904 771.246,499.048 772.754,498.518 774.262,497.503 775.77,497.719 777.278,497.467 778.785,497.737 780.293,498.107 781.801,498.291 783.309,499.242 784.817,498.983 786.325,498.405 787.833,498.032 789.341,497.074 790.849,497.727 792.357,497.369 793.865,496.864 795.373,496.383 796.881,496.876 798.389,497.438 799.897,498.216 801.405,497.714 802.913,498.684 804.421,498.363 805.929,499.076 807.436,498.883 808.944,499.554 810.452,499.551 811.96,498.68 813.468,499.6 814.976,498.86 816.484,498.607 817.992,498.276 819.5,497.232 821.008,497.084 822.516,495.891 824.024,495.248 825.532,494.522 827.04,495.616 828.548,495.533 830.056,496.073 831.564,495.662 833.072,496.629 834.579,496.641 836.087,497.567 837.595,497.822 839.103,498.122 840.611,498.575 842.119,499.424 843.627,498.667 845.135,498.35 846.643,498.255 848.151,498.415 849.659,498.683 851.167,498.677 852.675,499.358 854.183,499.771 855.691,499.786 857.199,499.736 858.707,498.877 860.215,499.112 861.722,498.556 863.23,499.702 864.738,500.229 866.246,501.194 867.754,501.82 869.262,502.174 870.77,501.96 872.278,502.94 873.786,503.014 875.294,502.858 876.802,502.246 878.31,502.419 879.818,502.419 881.326,503.56 882.834,504.164 884.342,504.245 885.85,503.188 887.358,502.066 888.865,503.002 890.373,503.289 891.881,503.022 893.389,503.455 894.897,504.393 896.405,504.632 897.913,504.258 899.421,504.74 900.929,505.676 902.437,505.342 903.945,505.372 905.453,504.21 906.961,503.369 908.469,504.373 909.977,504.674 911.485,504.922 912.993,504.858 914.501,504.901 916.009,505.785 917.516,505.493 919.024,504.649 920.532,504.311 922.04,503.569 923.548,503.957 925.056,504.869 926.564,504.085 928.072,503.436 929.58,503.457 931.088,504.165 932.596,505.074 934.104,504.765 935.612,504.572 937.12,503.872 938.628,504.761 940.136,503.658 941.644,503.804 943.152,503.545 944.659,502.88 946.167,502.027 947.675,501.575 949.183,501.679 950.691,501.421 952.199,500.926 953.707,501.748 955.215,501.428 956.723,501.601 958.231,502.234 959.739,501.633 961.247,501.725 962.755,502.044 964.263,501.884 965.771,502.078 967.279,502.807 968.787,503.126 970.295,502.639 971.802,502.432 973.31,502.212 974.818,501.783 976.326,501.356 977.834,501.768 979.342,502.213 980.85,501.514 982.358,501.763 983.866,502.039 985.374,501.888 986.882,502.444 988.39,501.555 989.898,502.103 991.406,502.273 992.914,502.889 994.422,503.913 995.93,503.015 997.438,503.007 998.945,503.79 1000.45,504.886 1001.96,506.447 1003.47,505.801 1004.98,505.813 1006.49,506.396 1007.99,506.448 1009.5,507.18 1011.01,507.015 1012.52,507.508 1014.02,507.5 1015.53,507.522 1017.04,508.246 1018.55,507.678 1020.06,507.158 1021.56,507.724 1023.07,507.128 1024.58,506.723 1026.09,507.413 1027.6,506.548 1029.1,507.23 1030.61,505.64 1032.12,505.63 1033.63,506.358 1035.14,505.998 1036.64,506.655 1038.15,507.024 1039.66,507.249 1041.17,507.891 1042.68,507.78 1044.18,508.077 1045.69,508.061 1047.2,509.379 1048.71,508.783 1050.22,508.332 1051.72,508.108 1053.23,508.049 1054.74,508.752 1056.25,509.061 1057.76,508.403 1059.26,507.636 1060.77,506.84 1062.28,507.239 1063.79,507.768 1065.3,507.605 1066.8,507.241 1068.31,507.513 1069.82,506.943 1071.33,505.673 1072.83,505.955 1074.34,504.283 1075.85,504.648 1077.36,504.048 1078.87,502.976 1080.37,502.508 1081.88,502.399 1083.39,502.767 1084.9,502.501 1086.41,502.274 1087.91,502.989 1089.42,501.715 1090.93,500.829 1092.44,500.775 1093.95,500.7 1095.45,499.937 1096.96,500.186 1098.47,499.762 1099.98,498.598 1101.49,497.717 1102.99,498.623 1104.5,499.89 1106.01,500.606 1107.52,500.609 1109.03,501.179 1110.53,501.618 1112.04,503.153 1113.55,503.47 1115.06,503.835 1116.57,504.037 1118.07,503.885 1119.58,504.411 1121.09,504.528 1122.6,505.605 1124.1,504.84 1125.61,504.856 1127.12,505.154 1128.63,505.796 1130.14,506.377 1131.64,506.558 1133.15,506.337 1134.66,507.082 1136.17,506.948 1137.68,506.887 1139.18,507.323 1140.69,507.243 1142.2,507.817 1143.71,508.455 1145.22,508.961 1146.72,507.265 1148.23,506.554 1149.74,506.901 1151.25,506.538 1152.76,506.371 1154.26,506.333 1155.77,506.586 1157.28,505.662 1158.79,505.74 1160.3,504.707 1161.8,503.919 1163.31,503.458 1164.82,503.717 1166.33,503.071 1167.84,502.392 1169.34,502.137 1170.85,501.905 1172.36,501.705 1173.87,502.295 1175.38,502.351 1176.88,503.588 1178.39,504.847 1179.9,504.82 1181.41,505.163 1182.91,502.147 1184.42,501.154 1185.93,500.306 1187.44,501.524 1188.95,501.734 1190.45,502.848 1191.96,501.859 1193.47,502.591 1194.98,501.831 1196.49,502.592 1197.99,503.351 1199.5,503.534 1201.01,504.441 1202.52,503.969 1204.03,504.173 1205.53,504.469 1207.04,505.047 1208.55,504.791 1210.06,504.043 1211.57,504.907 1213.07,504.048 1214.58,504.264 1216.09,504.301 1217.6,504.28 1219.11,504.887 1220.61,505.77 1222.12,506.727 1223.63,507.395 1225.14,507.229 1226.65,508.127 1228.15,508.553 1229.66,509.671 1231.17,508.631 1232.68,509.807 1234.18,510.282 1235.69,510.004 1237.2,510.422 1238.71,510.118 1240.22,510.493 1241.72,509.065 1243.23,508.679 1244.74,508.838 1246.25,509.188 1247.76,509.47 1249.26,509.197 1250.77,510.069 1252.28,509.129 1253.79,509.761 1255.3,509.024 1256.8,508.603 1258.31,508.237 1259.82,508.193 1261.33,507.466 1262.84,507.281 1264.34,506.999 1265.85,506.632 1267.36,507.31 1268.87,508.176 1270.38,508.245 1271.88,508.337 1273.39,509.674 1274.9,510.701 1276.41,511.7 1277.92,511.683 1279.42,512.18 1280.93,512.355 1282.44,510.908 1283.95,510.837 1285.46,510.302 1286.96,511.022 1288.47,510.881 1289.98,510.762 1291.49,510.159 1292.99,510.384 1294.5,511.409 1296.01,511.087 1297.52,510.786 1299.03,509.707 1300.53,510.418 1302.04,509.961 1303.55,510.592 1305.06,510.678 1306.57,510.417 1308.07,509.896 1309.58,510.567 1311.09,509.973 1312.6,511.735 1314.11,511.025 1315.61,511.377 1317.12,511.302 1318.63,510.943 1320.14,510.921 1321.65,510.916 1323.15,510.827 1324.66,510.938 1326.17,510.639 1327.68,509.58 1329.19,508.491 1330.69,509.291 1332.2,510.441 1333.71,511.577 1335.22,510.861 1336.73,509.175 1338.23,508.972 1339.74,509.635 1341.25,510.282 1342.76,511.412 1344.26,511.662 1345.77,511.33 1347.28,511.46 1348.79,510.88 1350.3,510.784 1351.8,510.21 1353.31,509.616 1354.82,509.025 1356.33,508.375 1357.84,508.192 1359.34,508.853 1360.85,509.706 1362.36,508.815 1363.87,509.209 1365.38,508.299 1366.88,508.307 1368.39,508.841 1369.9,508.2 1371.41,508.811 1372.92,508.336 1374.42,508.338 1375.93,508.718 1377.44,507.558 1378.95,507.455 1380.46,507.952 1381.96,508.388 1383.47,508.602 1384.98,509.322 1386.49,509.775 1388,509.3 1389.5,508.798 1391.01,509.17 1392.52,509.104 1394.03,508.151 1395.54,508.122 1397.04,508.539 1398.55,508.792 1400.06,508.995 1401.57,509.686 1403.07,510.643 1404.58,511.392 1406.09,511.351 1407.6,512.543 1409.11,513.865 1410.61,514.152 1412.12,514.108 1413.63,514.281 1415.14,513.965 1416.65,514.738 1418.15,514.12 1419.66,514.012 1421.17,513.247 1422.68,514.262 1424.19,513.916 1425.69,513.615 1427.2,513.375 1428.71,513.099 1430.22,513.97 1431.73,514.638 1433.23,514.999 1434.74,515.38 1436.25,515.615 1437.76,515.423 1439.27,514.262 1440.77,514.483 1442.28,515.095 1443.79,514.389 1445.3,513.4 1446.81,513.543 1448.31,512.754 1449.82,512.135 1451.33,511.787 1452.84,512.51 1454.34,512.508 1455.85,511.716 1457.36,511.118 1458.87,510.369 1460.38,510.813 1461.88,510.785 1463.39,511.321 1464.9,512.085 1466.41,512.676 1467.92,511.288 1469.42,511.063 1470.93,511.175 1472.44,511.035 1473.95,510.993 1475.46,510.83 1476.96,510.763 1478.47,509.743 1479.98,510.208 1481.49,510.237 1483,510.507 1484.5,511.399 1486.01,512.197 1487.52,513.094 1489.03,512.848 1490.54,513.099 1492.04,512.438 1493.55,512.652 1495.06,513.17 1496.57,511.976 1498.08,511.361 1499.58,512.551 1501.09,512.846 1502.6,513.001 1504.11,512.594 1505.62,513.121 1507.12,512.942 1508.63,512.65 1510.14,512.872 1511.65,512.653 1513.15,513.162 1514.66,513.83 1516.17,515.339 1517.68,515.055 1519.19,516.251 1520.69,515.616 1522.2,515.219 1523.71,515.12 1525.22,514.85 1526.73,513.923 1528.23,514.08 1529.74,514 1531.25,514.676 1532.76,514.913 1534.27,513.143 1535.77,513.508 1537.28,513.72 1538.79,512.321 1540.3,513.492 1541.81,514.056 1543.31,513.817 1544.82,515.742 1546.33,515.703 1547.84,516.485 1549.35,517.416 1550.85,517.696 1552.36,517.714 1553.87,517.46 1555.38,518.538 1556.89,518.688 1558.39,517.019 1559.9,516.129 1561.41,515.458 1562.92,514.703 1564.42,514.295 1565.93,514.209 1567.44,515.088 1568.95,514.371 1570.46,514.268 1571.96,514.028 1573.47,514.369 1574.98,514.733 1576.49,514.513 1578,513.767 1579.5,513.72 1581.01,513.94 1582.52,513.775 1584.03,513.96 1585.54,514.362 1587.04,514.825 1588.55,516.02 1590.06,516.621 1591.57,517.752 1593.08,518.315 1594.58,519.049 1596.09,517.822 1597.6,518.122 1599.11,518.207 1600.62,517.35 1602.12,515.772 1603.63,514.36 1605.14,514.135 1606.65,513.57 1608.16,513.004 1609.66,512.76 1611.17,512.201 1612.68,512.309 1614.19,511.015 1615.7,510.295 1617.2,510.244 1618.71,509.551 1620.22,510.573 1621.73,510.401 1623.23,509.803 1624.74,509.649 1626.25,508.916 1627.76,508.791 1629.27,508.645 1630.77,508.536 1632.28,508.56 1633.79,508.712 1635.3,508.694 1636.81,508.767 1638.31,508.363 1639.82,508.142 1641.33,508.194 1642.84,508.116 1644.35,508.189 1645.85,508.662 1647.36,509.135 1648.87,509.447 1650.38,509.88 1651.89,509.274 1653.39,509.738 1654.9,510.249 1656.41,510.148 1657.92,508.785 1659.43,508.633 1660.93,508.151 1662.44,508.664 1663.95,508.87 1665.46,508.844 1666.97,509.493 1668.47,509.438 1669.98,508.776 1671.49,509.284 1673,510.357 1674.5,510.619 1676.01,510.509 1677.52,510.189 1679.03,510.734 1680.54,509.978 1682.04,510.236 1683.55,509.565 1685.06,508.925 1686.57,508.476 1688.08,509.015 1689.58,508.539 1691.09,508.955 1692.6,508.619 1694.11,508.97 1695.62,508.587 1697.12,507.442 1698.63,507.502 1700.14,506.339 1701.65,505.39 1703.16,505.2 1704.66,505.393 1706.17,504.005 1707.68,504.183 1709.19,503.274 1710.7,503.89 1712.2,503.792 1713.71,504.063 1715.22,502.99 1716.73,503.634 1718.24,504.093 1719.74,503.955 1721.25,505.348 1722.76,505.901 1724.27,505.6 1725.78,506.709 1727.28,506.142 1728.79,505.337 1730.3,505.346 1731.81,505.748 1733.31,506.543 1734.82,505.848 1736.33,505.686 1737.84,506.144 1739.35,506.169 1740.85,505.367 1742.36,505.478 1743.87,506.181 1745.38,505.331 1746.89,504.696 1748.39,504.84 1749.9,504.41 1751.41,504.429 1752.92,504.823 1754.43,504.929 1755.93,505.713 1757.44,504.824 1758.95,505.024 1760.46,506.156 1761.97,506.12 1763.47,506.424 1764.98,505.945 1766.49,505.819 1768,505.863 1769.51,506.257 1771.01,505.821 1772.52,505.836 1774.03,506.376 1775.54,506.692 1777.05,506.406 1778.55,506.688 1780.06,505.953 1781.57,506.856 1783.08,506.183 1784.58,506.608 1786.09,507.504 1787.6,507.661 1789.11,507.71 1790.62,507.291 1792.12,507.413 1793.63,507.941 1795.14,507.434 1796.65,507.817 1798.16,508.765 1799.66,508.795 1801.17,509.02 1802.68,508.073 1804.19,509.025 1805.7,509.279 1807.2,509.662 1808.71,510.207 1810.22,511.001 1811.73,510.656 1813.24,510.835 1814.74,510.742 1816.25,510.201 1817.76,509.686 1819.27,508.53 1820.78,507.669 1822.28,507.62 1823.79,506.699 1825.3,507.323 1826.81,507.806 1828.32,507.12 1829.82,506.746 1831.33,508.049 1832.84,508.472 1834.35,507.597 1835.86,507.064 1837.36,506.649 1838.87,506.982 1840.38,506.157 1841.89,506.8 1843.39,506.954 1844.9,507.539 1846.41,507.505 1847.92,506.433 1849.43,506.492 1850.93,506.181 1852.44,504.802 1853.95,503.751 1855.46,503.528 1856.97,504.028 1858.47,503.879 1859.98,503.302 1861.49,502.737 1863,502.531 1864.51,501.788 1866.01,502.158 1867.52,502.316 1869.03,502.825 1870.54,503.461 1872.05,503.184 1873.55,503.103 1875.06,503.214 1876.57,502.668 1878.08,503.322 1879.59,502.647 1881.09,503.198 1882.6,502.755 1884.11,502.798 1885.62,502.846 1887.13,504.072 1888.63,503.613 1890.14,504.259 1891.65,504.807 1893.16,504.823 1894.66,504.5 1896.17,504.27 1897.68,504.555 1899.19,505.397 1900.7,505.902 1902.2,506.425 1903.71,505.931 1905.22,506.158 1906.73,507.113 1908.24,505.853 1909.74,505.969 1911.25,505.999 1912.76,506.452 1914.27,508.319 1915.78,508.572 1917.28,508.144 1918.79,507.952 1920.3,507.194 1921.81,506.939 1923.32,506.941 1924.82,506.872 1926.33,506.839 1927.84,505.498 1929.35,505.482 1930.86,504.097 1932.36,504.434 1933.87,504.251 1935.38,503.793 1936.89,502.571 1938.4,502.442 1939.9,503.188 1941.41,503.412 1942.92,502.981 1944.43,502.591 1945.94,502.507 1947.44,501.831 1948.95,502.448 1950.46,502.53 1951.97,502.502 1953.47,503.058 1954.98,503.702 1956.49,503.658 1958,503.222 1959.51,503.451 1961.01,504.225 1962.52,505.074 1964.03,505.329 1965.54,505.203 1967.05,503.463 1968.55,504.037 1970.06,504.488 1971.57,504.006 1973.08,504.294 1974.59,504.3 1976.09,504.514 1977.6,504.958 1979.11,504.182 1980.62,505.315 1982.13,503.912 1983.63,503.833 1985.14,502.799 1986.65,503.568 1988.16,503.863 1989.67,504.213 1991.17,503.37 1992.68,503.528 1994.19,503.186 1995.7,502.391 1997.21,502.493 1998.71,503.295 2000.22,502.979 2001.73,503.062 2003.24,503.661 2004.74,503.389 2006.25,501.607 2007.76,502.021 2009.27,502.662 2010.78,502.14 2012.28,502.736 2013.79,502.531 2015.3,501.143 2016.81,500.742 2018.32,500.477 2019.82,499.242 2021.33,499.071 2022.84,498.932 2024.35,499.144 2025.86,498.851 2027.36,498.157 2028.87,497.329 2030.38,497.234 2031.89,498.145 2033.4,497.75 2034.9,497.887 2036.41,499.672 2037.92,499.065 2039.43,499.294 2040.94,499.98 2042.44,499.237 2043.95,498.782 2045.46,499.302 2046.97,498.266 2048.48,498.875 2049.98,499.261 2051.49,499.419 2053,499.162 2054.51,499.784 2056.02,500.355 2057.52,500.29 "/>
<path clip-path="url(#clip510)" d="M812.225 293.45 L1122.6 293.45 L1122.6 78.4772 L812.225 78.4772  Z" fill="#ffffff" fill-rule="evenodd" fill-opacity="1"/>
<polyline clip-path="url(#clip510)" style="stroke:#000000; stroke-linecap:round; stroke-linejoin:round; stroke-width:4; stroke-opacity:1; fill:none" points="812.225,293.45 1122.6,293.45 1122.6,78.4772 812.225,78.4772 812.225,293.45 "/>
<polyline clip-path="url(#clip510)" style="stroke:#009af9; stroke-linecap:round; stroke-linejoin:round; stroke-width:8; stroke-opacity:1; fill:none" points="822.278,132.22 882.596,132.22 "/>
<g clip-path="url(#clip510)">
<text style="fill:#000000; fill-opacity:1; font-family:Book Antiqua,Palatino,Palatino Linotype,Palatino LT STD,Georgia,serif; font-size:51px; font-weight:bold; text-anchor:start;" transform="rotate(0, 892.649, 149.72)" x="892.649" y="149.72">TUC</text>
</g>
<polyline clip-path="url(#clip510)" style="stroke:#e26f46; stroke-linecap:round; stroke-linejoin:round; stroke-width:8; stroke-opacity:1; fill:none" points="822.278,185.963 882.596,185.963 "/>
<g clip-path="url(#clip510)">
<text style="fill:#000000; fill-opacity:1; font-family:Book Antiqua,Palatino,Palatino Linotype,Palatino LT STD,Georgia,serif; font-size:51px; font-weight:bold; text-anchor:start;" transform="rotate(0, 892.649, 203.463)" x="892.649" y="203.463">FDUC</text>
</g>
<polyline clip-path="url(#clip510)" style="stroke:#3da44d; stroke-linecap:round; stroke-linejoin:round; stroke-width:8; stroke-opacity:1; fill:none" points="822.278,239.706 882.596,239.706 "/>
<g clip-path="url(#clip510)">
<text style="fill:#000000; fill-opacity:1; font-family:Book Antiqua,Palatino,Palatino Linotype,Palatino LT STD,Georgia,serif; font-size:51px; font-weight:bold; text-anchor:start;" transform="rotate(0, 892.649, 257.206)" x="892.649" y="257.206">CCFDUC</text>
</g>
</svg>
