<?xml version="1.0" encoding="utf-8"?>
<svg xmlns="http://www.w3.org/2000/svg" xmlns:xlink="http://www.w3.org/1999/xlink" width="300" height="280" viewBox="0 0 1200 1120">
<defs>
  <clipPath id="clip550">
    <rect x="0" y="0" width="1200" height="1120"/>
  </clipPath>
</defs>
<path clip-path="url(#clip550)" d="M0 1120 L1200 1120 L1200 0 L0 0  Z" fill="#ffffff" fill-rule="evenodd" fill-opacity="1"/>
<defs>
  <clipPath id="clip551">
    <rect x="240" y="40" width="841" height="841"/>
  </clipPath>
</defs>
<path clip-path="url(#clip550)" d="M208.017 913.372 L1152.76 913.372 L1152.76 47.2441 L208.017 47.2441  Z" fill="#ffffff" fill-rule="evenodd" fill-opacity="1"/>
<defs>
  <clipPath id="clip552">
    <rect x="208" y="47" width="946" height="867"/>
  </clipPath>
</defs>
<polyline clip-path="url(#clip552)" style="stroke:#808080; stroke-linecap:round; stroke-linejoin:round; stroke-width:4; stroke-opacity:0.1; fill:none" points="208.017,913.372 208.017,47.2441 "/>
<polyline clip-path="url(#clip552)" style="stroke:#808080; stroke-linecap:round; stroke-linejoin:round; stroke-width:4; stroke-opacity:0.1; fill:none" points="396.965,913.372 396.965,47.2441 "/>
<polyline clip-path="url(#clip552)" style="stroke:#808080; stroke-linecap:round; stroke-linejoin:round; stroke-width:4; stroke-opacity:0.1; fill:none" points="585.913,913.372 585.913,47.2441 "/>
<polyline clip-path="url(#clip552)" style="stroke:#808080; stroke-linecap:round; stroke-linejoin:round; stroke-width:4; stroke-opacity:0.1; fill:none" points="774.86,913.372 774.86,47.2441 "/>
<polyline clip-path="url(#clip552)" style="stroke:#808080; stroke-linecap:round; stroke-linejoin:round; stroke-width:4; stroke-opacity:0.1; fill:none" points="963.808,913.372 963.808,47.2441 "/>
<polyline clip-path="url(#clip552)" style="stroke:#808080; stroke-linecap:round; stroke-linejoin:round; stroke-width:4; stroke-opacity:0.1; fill:none" points="1152.76,913.372 1152.76,47.2441 "/>
<polyline clip-path="url(#clip550)" style="stroke:#000000; stroke-linecap:round; stroke-linejoin:round; stroke-width:4; stroke-opacity:1; fill:none" points="208.017,913.372 1152.76,913.372 "/>
<polyline clip-path="url(#clip550)" style="stroke:#000000; stroke-linecap:round; stroke-linejoin:round; stroke-width:4; stroke-opacity:1; fill:none" points="208.017,47.2441 1152.76,47.2441 "/>
<polyline clip-path="url(#clip550)" style="stroke:#000000; stroke-linecap:round; stroke-linejoin:round; stroke-width:4; stroke-opacity:1; fill:none" points="208.017,913.372 208.017,894.474 "/>
<polyline clip-path="url(#clip550)" style="stroke:#000000; stroke-linecap:round; stroke-linejoin:round; stroke-width:4; stroke-opacity:1; fill:none" points="396.965,913.372 396.965,894.474 "/>
<polyline clip-path="url(#clip550)" style="stroke:#000000; stroke-linecap:round; stroke-linejoin:round; stroke-width:4; stroke-opacity:1; fill:none" points="585.913,913.372 585.913,894.474 "/>
<polyline clip-path="url(#clip550)" style="stroke:#000000; stroke-linecap:round; stroke-linejoin:round; stroke-width:4; stroke-opacity:1; fill:none" points="774.86,913.372 774.86,894.474 "/>
<polyline clip-path="url(#clip550)" style="stroke:#000000; stroke-linecap:round; stroke-linejoin:round; stroke-width:4; stroke-opacity:1; fill:none" points="963.808,913.372 963.808,894.474 "/>
<polyline clip-path="url(#clip550)" style="stroke:#000000; stroke-linecap:round; stroke-linejoin:round; stroke-width:4; stroke-opacity:1; fill:none" points="1152.76,913.372 1152.76,894.474 "/>
<g clip-path="url(#clip550)">
<text style="fill:#000000; fill-opacity:1; font-family:Book Antiqua,Palatino,Palatino Linotype,Palatino LT STD,Georgia,serif; font-size:51px; font-weight:bold; text-anchor:middle;" transform="rotate(0, 208.017, 967.343)" x="208.017" y="967.343">0</text>
</g>
<g clip-path="url(#clip550)">
<text style="fill:#000000; fill-opacity:1; font-family:Book Antiqua,Palatino,Palatino Linotype,Palatino LT STD,Georgia,serif; font-size:51px; font-weight:bold; text-anchor:middle;" transform="rotate(0, 396.965, 967.343)" x="396.965" y="967.343">5</text>
</g>
<g clip-path="url(#clip550)">
<text style="fill:#000000; fill-opacity:1; font-family:Book Antiqua,Palatino,Palatino Linotype,Palatino LT STD,Georgia,serif; font-size:51px; font-weight:bold; text-anchor:middle;" transform="rotate(0, 585.913, 967.343)" x="585.913" y="967.343">10</text>
</g>
<g clip-path="url(#clip550)">
<text style="fill:#000000; fill-opacity:1; font-family:Book Antiqua,Palatino,Palatino Linotype,Palatino LT STD,Georgia,serif; font-size:51px; font-weight:bold; text-anchor:middle;" transform="rotate(0, 774.86, 967.343)" x="774.86" y="967.343">15</text>
</g>
<g clip-path="url(#clip550)">
<text style="fill:#000000; fill-opacity:1; font-family:Book Antiqua,Palatino,Palatino Linotype,Palatino LT STD,Georgia,serif; font-size:51px; font-weight:bold; text-anchor:middle;" transform="rotate(0, 963.808, 967.343)" x="963.808" y="967.343">20</text>
</g>
<g clip-path="url(#clip550)">
<text style="fill:#000000; fill-opacity:1; font-family:Book Antiqua,Palatino,Palatino Linotype,Palatino LT STD,Georgia,serif; font-size:51px; font-weight:bold; text-anchor:middle;" transform="rotate(0, 1152.76, 967.343)" x="1152.76" y="967.343">25</text>
</g>
<path clip-path="url(#clip550)" d="M653.721 1002.26 Q653.721 1003.16 653.303 1003.39 Q652.884 1003.58 651.725 1003.58 L645.541 1003.58 L640.646 1023.03 Q640.259 1024.74 640.259 1026.19 Q640.259 1027.8 640.742 1028.51 Q641.258 1029.22 642.32 1029.22 Q644.414 1029.22 646.668 1027.32 Q648.955 1025.42 650.887 1020.78 Q651.145 1020.17 651.274 1020.04 Q651.435 1019.88 651.853 1019.88 Q652.658 1019.88 652.658 1020.52 Q652.658 1020.75 652.208 1021.78 Q651.789 1022.81 650.855 1024.32 Q649.953 1025.84 648.762 1027.25 Q647.602 1028.67 645.831 1029.7 Q644.06 1030.7 642.159 1030.7 Q639.486 1030.7 637.779 1028.99 Q636.105 1027.29 636.105 1024.61 Q636.105 1023.74 636.781 1020.97 Q637.457 1018.17 641.129 1003.58 L635.3 1003.58 Q634.494 1003.58 634.172 1003.55 Q633.882 1003.52 633.657 1003.36 Q633.464 1003.16 633.464 1002.78 Q633.464 1002.17 633.721 1001.91 Q633.979 1001.62 634.301 1001.59 Q634.655 1001.52 635.461 1001.52 L641.644 1001.52 L644.221 991.054 Q644.478 990.023 645.122 989.444 Q645.799 988.832 646.185 988.767 Q646.572 988.671 646.861 988.671 Q647.731 988.671 648.246 989.154 Q648.762 989.605 648.762 990.442 Q648.762 990.893 646.056 1001.52 L651.853 1001.52 Q652.594 1001.52 652.884 1001.55 Q653.206 1001.59 653.464 1001.75 Q653.721 1001.91 653.721 1002.26 Z" fill="#000000" fill-rule="nonzero" fill-opacity="1" /><path clip-path="url(#clip550)" d="M657.037 1045.51 Q657.037 1045.19 657.294 1044.48 L680.579 982.262 Q680.579 982.197 680.74 981.843 Q680.901 981.489 680.998 981.263 Q681.095 981.006 681.288 980.813 Q681.513 980.619 681.771 980.619 Q682.415 980.619 682.415 981.425 Q682.415 981.489 682.222 982.262 L658.873 1044.55 Q658.486 1045.68 658.228 1046 Q658.003 1046.32 657.616 1046.32 Q657.037 1046.32 657.037 1045.51 Z" fill="#000000" fill-rule="nonzero" fill-opacity="1" /><path clip-path="url(#clip550)" d="M722.068 1020.52 Q722.068 1020.78 721.778 1021.78 Q721.488 1022.78 720.779 1024.32 Q720.103 1025.87 719.169 1027.29 Q718.235 1028.67 716.689 1029.7 Q715.176 1030.7 713.437 1030.7 Q711.118 1030.7 709.572 1029.15 Q708.026 1027.61 708.026 1025.29 Q708.026 1024.97 708.058 1024.64 Q708.09 1024.32 708.123 1024.13 Q708.155 1023.9 708.251 1023.55 Q708.38 1023.16 708.412 1023 Q708.477 1022.84 708.638 1022.36 Q708.831 1021.84 708.896 1021.65 Q712.986 1011.21 712.986 1006.87 Q712.986 1002.26 709.411 1002.26 Q706.222 1002.26 703.066 1004.58 Q701.617 1005.74 700.232 1007.8 Q698.847 1009.86 698.59 1010.64 Q698.3 1012.31 697.881 1013.6 Q697.688 1014.5 696.754 1018.01 L695.305 1023.97 L694.049 1028.96 Q693.791 1029.67 693.082 1030.18 Q692.374 1030.7 691.601 1030.7 Q690.957 1030.7 690.313 1030.25 Q689.701 1029.83 689.701 1028.83 Q689.701 1028.32 689.958 1027.38 L699.524 989.379 L699.717 988.091 Q699.717 987.705 699.556 987.511 Q699.427 987.286 698.654 987.125 Q697.913 986.964 696.432 986.964 Q695.82 986.964 695.53 986.932 Q695.272 986.9 695.047 986.738 Q694.822 986.545 694.822 986.159 Q694.822 985.611 695.047 985.321 Q695.305 984.999 695.498 984.935 Q695.691 984.871 696.078 984.838 Q696.625 984.806 698.461 984.645 Q700.297 984.452 701.875 984.323 Q703.453 984.194 704.129 984.194 Q704.516 984.194 704.709 984.387 Q704.934 984.548 704.966 984.742 L704.999 984.903 L699.846 1005.87 Q703.936 1000.81 709.604 1000.81 Q713.276 1000.81 715.24 1002.71 Q717.205 1004.58 717.205 1007.87 Q717.205 1011.63 713.179 1022.36 Q711.987 1025.35 711.987 1027.06 Q711.987 1028.19 712.342 1028.7 Q712.728 1029.22 713.565 1029.22 Q714.854 1029.22 715.981 1028.48 Q717.14 1027.7 717.945 1026.45 Q718.751 1025.16 719.298 1023.87 Q719.878 1022.55 720.296 1021.07 Q720.554 1020.26 720.683 1020.07 Q720.844 1019.88 721.295 1019.88 Q722.068 1019.88 722.068 1020.52 Z" fill="#000000" fill-rule="nonzero" fill-opacity="1" /><polyline clip-path="url(#clip552)" style="stroke:#808080; stroke-linecap:round; stroke-linejoin:round; stroke-width:4; stroke-opacity:0.1; fill:none" points="208.017,913.372 1152.76,913.372 "/>
<polyline clip-path="url(#clip552)" style="stroke:#808080; stroke-linecap:round; stroke-linejoin:round; stroke-width:4; stroke-opacity:0.1; fill:none" points="208.017,789.639 1152.76,789.639 "/>
<polyline clip-path="url(#clip552)" style="stroke:#808080; stroke-linecap:round; stroke-linejoin:round; stroke-width:4; stroke-opacity:0.1; fill:none" points="208.017,665.907 1152.76,665.907 "/>
<polyline clip-path="url(#clip552)" style="stroke:#808080; stroke-linecap:round; stroke-linejoin:round; stroke-width:4; stroke-opacity:0.1; fill:none" points="208.017,542.174 1152.76,542.174 "/>
<polyline clip-path="url(#clip552)" style="stroke:#808080; stroke-linecap:round; stroke-linejoin:round; stroke-width:4; stroke-opacity:0.1; fill:none" points="208.017,418.442 1152.76,418.442 "/>
<polyline clip-path="url(#clip552)" style="stroke:#808080; stroke-linecap:round; stroke-linejoin:round; stroke-width:4; stroke-opacity:0.1; fill:none" points="208.017,294.709 1152.76,294.709 "/>
<polyline clip-path="url(#clip552)" style="stroke:#808080; stroke-linecap:round; stroke-linejoin:round; stroke-width:4; stroke-opacity:0.1; fill:none" points="208.017,170.977 1152.76,170.977 "/>
<polyline clip-path="url(#clip552)" style="stroke:#808080; stroke-linecap:round; stroke-linejoin:round; stroke-width:4; stroke-opacity:0.1; fill:none" points="208.017,47.2441 1152.76,47.2441 "/>
<polyline clip-path="url(#clip550)" style="stroke:#000000; stroke-linecap:round; stroke-linejoin:round; stroke-width:4; stroke-opacity:1; fill:none" points="208.017,913.372 208.017,47.2441 "/>
<polyline clip-path="url(#clip550)" style="stroke:#000000; stroke-linecap:round; stroke-linejoin:round; stroke-width:4; stroke-opacity:1; fill:none" points="1152.76,913.372 1152.76,47.2441 "/>
<polyline clip-path="url(#clip550)" style="stroke:#000000; stroke-linecap:round; stroke-linejoin:round; stroke-width:4; stroke-opacity:1; fill:none" points="208.017,913.372 226.915,913.372 "/>
<polyline clip-path="url(#clip550)" style="stroke:#000000; stroke-linecap:round; stroke-linejoin:round; stroke-width:4; stroke-opacity:1; fill:none" points="208.017,789.639 226.915,789.639 "/>
<polyline clip-path="url(#clip550)" style="stroke:#000000; stroke-linecap:round; stroke-linejoin:round; stroke-width:4; stroke-opacity:1; fill:none" points="208.017,665.907 226.915,665.907 "/>
<polyline clip-path="url(#clip550)" style="stroke:#000000; stroke-linecap:round; stroke-linejoin:round; stroke-width:4; stroke-opacity:1; fill:none" points="208.017,542.174 226.915,542.174 "/>
<polyline clip-path="url(#clip550)" style="stroke:#000000; stroke-linecap:round; stroke-linejoin:round; stroke-width:4; stroke-opacity:1; fill:none" points="208.017,418.442 226.915,418.442 "/>
<polyline clip-path="url(#clip550)" style="stroke:#000000; stroke-linecap:round; stroke-linejoin:round; stroke-width:4; stroke-opacity:1; fill:none" points="208.017,294.709 226.915,294.709 "/>
<polyline clip-path="url(#clip550)" style="stroke:#000000; stroke-linecap:round; stroke-linejoin:round; stroke-width:4; stroke-opacity:1; fill:none" points="208.017,170.977 226.915,170.977 "/>
<polyline clip-path="url(#clip550)" style="stroke:#000000; stroke-linecap:round; stroke-linejoin:round; stroke-width:4; stroke-opacity:1; fill:none" points="208.017,47.2441 226.915,47.2441 "/>
<g clip-path="url(#clip550)">
<text style="fill:#000000; fill-opacity:1; font-family:Book Antiqua,Palatino,Palatino Linotype,Palatino LT STD,Georgia,serif; font-size:51px; font-weight:bold; text-anchor:middle;" transform="rotate(0, 177.33, 930.872)" x="177.33" y="930.872">0</text>
</g>
<g clip-path="url(#clip550)">
<text style="fill:#000000; fill-opacity:1; font-family:Book Antiqua,Palatino,Palatino Linotype,Palatino LT STD,Georgia,serif; font-size:51px; font-weight:bold; text-anchor:middle;" transform="rotate(0, 164.643, 807.139)" x="164.643" y="807.139">10</text>
</g>
<g clip-path="url(#clip550)">
<text style="fill:#000000; fill-opacity:1; font-family:Book Antiqua,Palatino,Palatino Linotype,Palatino LT STD,Georgia,serif; font-size:51px; font-weight:bold; text-anchor:middle;" transform="rotate(0, 164.643, 683.407)" x="164.643" y="683.407">20</text>
</g>
<g clip-path="url(#clip550)">
<text style="fill:#000000; fill-opacity:1; font-family:Book Antiqua,Palatino,Palatino Linotype,Palatino LT STD,Georgia,serif; font-size:51px; font-weight:bold; text-anchor:middle;" transform="rotate(0, 164.643, 559.674)" x="164.643" y="559.674">30</text>
</g>
<g clip-path="url(#clip550)">
<text style="fill:#000000; fill-opacity:1; font-family:Book Antiqua,Palatino,Palatino Linotype,Palatino LT STD,Georgia,serif; font-size:51px; font-weight:bold; text-anchor:middle;" transform="rotate(0, 164.643, 435.942)" x="164.643" y="435.942">40</text>
</g>
<g clip-path="url(#clip550)">
<text style="fill:#000000; fill-opacity:1; font-family:Book Antiqua,Palatino,Palatino Linotype,Palatino LT STD,Georgia,serif; font-size:51px; font-weight:bold; text-anchor:middle;" transform="rotate(0, 164.643, 312.209)" x="164.643" y="312.209">50</text>
</g>
<g clip-path="url(#clip550)">
<text style="fill:#000000; fill-opacity:1; font-family:Book Antiqua,Palatino,Palatino Linotype,Palatino LT STD,Georgia,serif; font-size:51px; font-weight:bold; text-anchor:middle;" transform="rotate(0, 164.643, 188.477)" x="164.643" y="188.477">60</text>
</g>
<g clip-path="url(#clip550)">
<text style="fill:#000000; fill-opacity:1; font-family:Book Antiqua,Palatino,Palatino Linotype,Palatino LT STD,Georgia,serif; font-size:51px; font-weight:bold; text-anchor:middle;" transform="rotate(0, 164.643, 64.7441)" x="164.643" y="64.7441">70</text>
</g>
<path clip-path="url(#clip550)" d="M86.7373 682.782 Q76.6569 682.782 69.636 676.341 Q62.5829 669.868 62.5829 660.882 Q62.5829 651.833 69.636 645.391 Q76.6891 638.918 86.7373 638.918 Q96.6889 638.918 103.613 645.391 Q110.537 651.865 110.537 660.882 Q110.537 669.771 103.645 676.277 Q96.7533 682.782 86.7373 682.782 M85.8034 675.987 Q91.9225 675.987 96.6245 674.538 Q101.294 673.088 103.839 670.77 Q106.383 668.419 107.607 665.907 Q108.831 663.394 108.831 660.818 Q108.831 658.306 107.639 655.858 Q106.447 653.378 103.935 651.027 Q101.423 648.676 96.7211 647.195 Q92.0191 645.713 85.8034 645.713 Q80.9725 645.713 77.1078 646.744 Q73.2109 647.775 70.8598 649.385 Q68.5088 650.995 66.9629 653.089 Q65.417 655.15 64.8373 657.114 Q64.2254 659.047 64.2254 660.882 Q64.2254 663.201 65.256 665.617 Q66.2866 668.032 68.5732 670.48 Q70.8276 672.895 75.3042 674.441 Q79.7486 675.987 85.8034 675.987 Z" fill="#000000" fill-rule="nonzero" fill-opacity="1" /><path clip-path="url(#clip550)" d="M82.7116 632.56 L80.6504 632.56 L79.9419 622.866 L101.842 622.866 Q103.42 622.866 104.354 622.737 Q105.256 622.608 106.318 622.093 Q107.381 621.546 107.864 620.322 Q108.347 619.066 108.347 617.069 Q108.347 613.494 105.417 611.304 Q102.486 609.082 98.1382 609.082 L86.3831 609.082 Q83.9354 609.082 83.3235 609.951 Q82.7116 610.821 82.7116 614.235 L80.6504 614.235 L79.9419 604.541 L103.356 604.541 Q105.803 604.541 106.447 603.703 Q107.059 602.834 107.059 599.388 L109.088 599.388 L109.829 608.889 L103.871 608.889 Q109.797 611.658 109.829 617.391 Q109.829 620.289 109.088 622.286 Q108.347 624.251 107.446 625.249 Q106.512 626.248 104.74 626.795 Q102.969 627.31 101.874 627.375 Q100.779 627.439 98.6535 627.439 L88.7663 627.439 Q84.2897 627.439 83.5167 628.083 Q82.7116 628.727 82.7116 632.56 Z" fill="#000000" fill-rule="nonzero" fill-opacity="1" /><path clip-path="url(#clip550)" d="M82.7116 597.115 L81.2623 597.115 Q81.1335 594.088 79.0079 592.091 Q76.8501 590.062 74.2092 589.386 Q71.5684 588.677 68.5088 588.613 L68.5088 586.97 L80.6504 586.97 L80.6504 577.534 L82.7116 577.534 L82.7116 586.97 L101.037 586.97 Q108.154 586.97 108.154 582.526 Q108.154 580.626 106.222 579.37 Q104.257 578.114 100.779 578.114 L97.1398 578.114 L97.1398 576.471 L100.908 576.471 Q104.483 576.471 107.156 578.114 Q109.829 579.756 109.829 583.009 Q109.829 584.201 109.507 585.392 Q109.217 586.552 108.444 588.098 Q107.639 589.611 105.707 590.577 Q103.742 591.511 100.908 591.511 L82.7116 591.511 L82.7116 597.115 Z" fill="#000000" fill-rule="nonzero" fill-opacity="1" /><path clip-path="url(#clip550)" d="M119.845 576.276 Q119.845 572.765 119.394 571.96 Q118.975 571.123 116.882 571.123 L85.9966 571.123 Q83.8066 571.123 83.2591 571.96 Q82.7116 572.765 82.7116 576.276 L80.6504 576.276 L79.9419 566.775 L84.2897 566.775 Q79.9419 562.814 79.9419 557.532 Q79.9419 551.928 84.2897 547.838 Q88.6375 543.748 94.8532 543.748 Q101.133 543.748 105.481 548.096 Q109.829 552.443 109.829 558.466 Q109.829 561.751 108.154 563.973 Q106.447 566.163 105.191 566.582 L105.803 566.582 L116.882 566.582 Q119.008 566.582 119.426 565.744 Q119.845 564.907 119.845 561.429 L121.874 561.429 Q121.681 568.353 121.681 568.868 Q121.681 569.513 121.874 576.276 L119.845 576.276 M101.584 566.582 Q102.583 566.582 102.937 566.453 Q103.291 566.292 104.354 565.648 Q108.347 563.039 108.347 558.788 Q108.347 558.756 108.347 558.724 Q108.347 554.956 104.515 552.089 Q100.65 549.223 94.8532 549.223 Q89.3138 549.223 85.4491 551.832 Q81.5844 554.44 81.5844 558.047 Q81.5844 560.624 82.9692 562.878 Q84.3541 565.133 86.8661 566.582 L101.584 566.582 Z" fill="#000000" fill-rule="nonzero" fill-opacity="1" /><path clip-path="url(#clip550)" d="M82.7116 535.815 L80.6504 535.815 L79.9419 526.121 L101.842 526.121 Q103.42 526.121 104.354 525.992 Q105.256 525.864 106.318 525.348 Q107.381 524.801 107.864 523.577 Q108.347 522.321 108.347 520.324 Q108.347 516.749 105.417 514.559 Q102.486 512.337 98.1382 512.337 L86.3831 512.337 Q83.9354 512.337 83.3235 513.207 Q82.7116 514.076 82.7116 517.49 L80.6504 517.49 L79.9419 507.796 L103.356 507.796 Q105.803 507.796 106.447 506.959 Q107.059 506.089 107.059 502.643 L109.088 502.643 L109.829 512.144 L103.871 512.144 Q109.797 514.914 109.829 520.646 Q109.829 523.545 109.088 525.541 Q108.347 527.506 107.446 528.504 Q106.512 529.503 104.74 530.05 Q102.969 530.566 101.874 530.63 Q100.779 530.694 98.6535 530.694 L88.7663 530.694 Q84.2897 530.694 83.5167 531.338 Q82.7116 531.983 82.7116 535.815 Z" fill="#000000" fill-rule="nonzero" fill-opacity="1" /><path clip-path="url(#clip550)" d="M82.7116 500.37 L81.2623 500.37 Q81.1335 497.343 79.0079 495.346 Q76.8501 493.317 74.2092 492.641 Q71.5684 491.932 68.5088 491.868 L68.5088 490.226 L80.6504 490.226 L80.6504 480.789 L82.7116 480.789 L82.7116 490.226 L101.037 490.226 Q108.154 490.226 108.154 485.781 Q108.154 483.881 106.222 482.625 Q104.257 481.369 100.779 481.369 L97.1398 481.369 L97.1398 479.726 L100.908 479.726 Q104.483 479.726 107.156 481.369 Q109.829 483.011 109.829 486.264 Q109.829 487.456 109.507 488.647 Q109.217 489.807 108.444 491.353 Q107.639 492.866 105.707 493.833 Q103.742 494.767 100.908 494.767 L82.7116 494.767 L82.7116 500.37 Z" fill="#000000" fill-rule="nonzero" fill-opacity="1" /><path clip-path="url(#clip550)" d="M124.644 457.614 Q124.322 457.614 123.613 457.357 L61.3913 434.072 Q61.3269 434.072 60.9726 433.911 Q60.6184 433.75 60.3929 433.653 Q60.1353 433.556 59.942 433.363 Q59.7488 433.138 59.7488 432.88 Q59.7488 432.236 60.554 432.236 Q60.6184 432.236 61.3913 432.429 L123.677 455.778 Q124.805 456.165 125.127 456.423 Q125.449 456.648 125.449 457.034 Q125.449 457.614 124.644 457.614 Z" fill="#000000" fill-rule="nonzero" fill-opacity="1" /><path clip-path="url(#clip550)" d="M119.845 407.521 Q119.845 404.011 119.394 403.206 Q118.975 402.368 116.882 402.368 L85.9966 402.368 Q83.8066 402.368 83.2591 403.206 Q82.7116 404.011 82.7116 407.521 L80.6504 407.521 L79.9419 398.021 L84.2897 398.021 Q79.9419 394.059 79.9419 388.778 Q79.9419 383.174 84.2897 379.084 Q88.6375 374.993 94.8532 374.993 Q101.133 374.993 105.481 379.341 Q109.829 383.689 109.829 389.711 Q109.829 392.996 108.154 395.219 Q106.447 397.409 105.191 397.827 L105.803 397.827 L116.882 397.827 Q119.008 397.827 119.426 396.99 Q119.845 396.153 119.845 392.674 L121.874 392.674 Q121.681 399.599 121.681 400.114 Q121.681 400.758 121.874 407.521 L119.845 407.521 M101.584 397.827 Q102.583 397.827 102.937 397.699 Q103.291 397.538 104.354 396.893 Q108.347 394.285 108.347 390.034 Q108.347 390.001 108.347 389.969 Q108.347 386.201 104.515 383.335 Q100.65 380.468 94.8532 380.468 Q89.3138 380.468 85.4491 383.077 Q81.5844 385.686 81.5844 389.293 Q81.5844 391.869 82.9692 394.124 Q84.3541 396.378 86.8661 397.827 L101.584 397.827 Z" fill="#000000" fill-rule="nonzero" fill-opacity="1" /><path clip-path="url(#clip550)" d="M108.025 370.286 Q106.963 371.285 105.578 371.285 Q104.193 371.285 103.195 370.286 Q102.164 369.288 102.164 367.774 Q102.164 366.325 103.13 365.359 Q104.064 364.36 105.61 364.36 Q107.124 364.36 108.122 365.423 Q109.088 366.454 109.088 367.774 Q109.088 369.288 108.025 370.286 Z" fill="#000000" fill-rule="nonzero" fill-opacity="1" /><path clip-path="url(#clip550)" d="M82.7116 342.677 L80.6504 342.677 L79.9419 332.983 L101.842 332.983 Q103.42 332.983 104.354 332.855 Q105.256 332.726 106.318 332.21 Q107.381 331.663 107.864 330.439 Q108.347 329.183 108.347 327.186 Q108.347 323.611 105.417 321.421 Q102.486 319.199 98.1382 319.199 L86.3831 319.199 Q83.9354 319.199 83.3235 320.069 Q82.7116 320.938 82.7116 324.352 L80.6504 324.352 L79.9419 314.658 L103.356 314.658 Q105.803 314.658 106.447 313.821 Q107.059 312.951 107.059 309.505 L109.088 309.505 L109.829 319.006 L103.871 319.006 Q109.797 321.776 109.829 327.508 Q109.829 330.407 109.088 332.404 Q108.347 334.368 107.446 335.367 Q106.512 336.365 104.74 336.912 Q102.969 337.428 101.874 337.492 Q100.779 337.557 98.6535 337.557 L88.7663 337.557 Q84.2897 337.557 83.5167 338.201 Q82.7116 338.845 82.7116 342.677 Z" fill="#000000" fill-rule="nonzero" fill-opacity="1" /><path clip-path="url(#clip550)" d="M108.025 305.442 Q106.963 306.441 105.578 306.441 Q104.193 306.441 103.195 305.442 Q102.164 304.444 102.164 302.93 Q102.164 301.481 103.13 300.515 Q104.064 299.516 105.61 299.516 Q107.124 299.516 108.122 300.579 Q109.088 301.61 109.088 302.93 Q109.088 304.444 108.025 305.442 Z" fill="#000000" fill-rule="nonzero" fill-opacity="1" /><path clip-path="url(#clip552)" d="M236.359 493.879 L236.359 913.372 L255.254 913.372 L255.254 493.879 L236.359 493.879 L236.359 493.879  Z" fill="#969696" fill-rule="evenodd" fill-opacity="1"/>
<polyline clip-path="url(#clip552)" style="stroke:#969696; stroke-linecap:round; stroke-linejoin:round; stroke-width:4; stroke-opacity:1; fill:none" points="236.359,493.879 236.359,913.372 255.254,913.372 255.254,493.879 236.359,493.879 "/>
<path clip-path="url(#clip552)" d="M274.149 522.06 L274.149 913.372 L293.044 913.372 L293.044 522.06 L274.149 522.06 L274.149 522.06  Z" fill="#969696" fill-rule="evenodd" fill-opacity="1"/>
<polyline clip-path="url(#clip552)" style="stroke:#969696; stroke-linecap:round; stroke-linejoin:round; stroke-width:4; stroke-opacity:1; fill:none" points="274.149,522.06 274.149,913.372 293.044,913.372 293.044,522.06 274.149,522.06 "/>
<path clip-path="url(#clip552)" d="M311.938 578.423 L311.938 913.372 L330.833 913.372 L330.833 578.423 L311.938 578.423 L311.938 578.423  Z" fill="#969696" fill-rule="evenodd" fill-opacity="1"/>
<polyline clip-path="url(#clip552)" style="stroke:#969696; stroke-linecap:round; stroke-linejoin:round; stroke-width:4; stroke-opacity:1; fill:none" points="311.938,578.423 311.938,913.372 330.833,913.372 330.833,578.423 311.938,578.423 "/>
<path clip-path="url(#clip552)" d="M349.728 700.542 L349.728 913.372 L368.623 913.372 L368.623 700.542 L349.728 700.542 L349.728 700.542  Z" fill="#969696" fill-rule="evenodd" fill-opacity="1"/>
<polyline clip-path="url(#clip552)" style="stroke:#969696; stroke-linecap:round; stroke-linejoin:round; stroke-width:4; stroke-opacity:1; fill:none" points="349.728,700.542 349.728,913.372 368.623,913.372 368.623,700.542 349.728,700.542 "/>
<path clip-path="url(#clip552)" d="M387.517 738.117 L387.517 913.372 L406.412 913.372 L406.412 738.117 L387.517 738.117 L387.517 738.117  Z" fill="#969696" fill-rule="evenodd" fill-opacity="1"/>
<polyline clip-path="url(#clip552)" style="stroke:#969696; stroke-linecap:round; stroke-linejoin:round; stroke-width:4; stroke-opacity:1; fill:none" points="387.517,738.117 387.517,913.372 406.412,913.372 406.412,738.117 387.517,738.117 "/>
<path clip-path="url(#clip552)" d="M425.307 644.179 L425.307 913.372 L444.202 913.372 L444.202 644.179 L425.307 644.179 L425.307 644.179  Z" fill="#969696" fill-rule="evenodd" fill-opacity="1"/>
<polyline clip-path="url(#clip552)" style="stroke:#969696; stroke-linecap:round; stroke-linejoin:round; stroke-width:4; stroke-opacity:1; fill:none" points="425.307,644.179 425.307,913.372 444.202,913.372 444.202,644.179 425.307,644.179 "/>
<path clip-path="url(#clip552)" d="M463.097 550.241 L463.097 913.372 L481.991 913.372 L481.991 550.241 L463.097 550.241 L463.097 550.241  Z" fill="#969696" fill-rule="evenodd" fill-opacity="1"/>
<polyline clip-path="url(#clip552)" style="stroke:#969696; stroke-linecap:round; stroke-linejoin:round; stroke-width:4; stroke-opacity:1; fill:none" points="463.097,550.241 463.097,913.372 481.991,913.372 481.991,550.241 463.097,550.241 "/>
<path clip-path="url(#clip552)" d="M500.886 465.698 L500.886 913.372 L519.781 913.372 L519.781 465.698 L500.886 465.698 L500.886 465.698  Z" fill="#969696" fill-rule="evenodd" fill-opacity="1"/>
<polyline clip-path="url(#clip552)" style="stroke:#969696; stroke-linecap:round; stroke-linejoin:round; stroke-width:4; stroke-opacity:1; fill:none" points="500.886,465.698 500.886,913.372 519.781,913.372 519.781,465.698 500.886,465.698 "/>
<path clip-path="url(#clip552)" d="M538.676 409.335 L538.676 913.372 L557.57 913.372 L557.57 409.335 L538.676 409.335 L538.676 409.335  Z" fill="#969696" fill-rule="evenodd" fill-opacity="1"/>
<polyline clip-path="url(#clip552)" style="stroke:#969696; stroke-linecap:round; stroke-linejoin:round; stroke-width:4; stroke-opacity:1; fill:none" points="538.676,409.335 538.676,913.372 557.57,913.372 557.57,409.335 538.676,409.335 "/>
<path clip-path="url(#clip552)" d="M576.465 362.366 L576.465 913.372 L595.36 913.372 L595.36 362.366 L576.465 362.366 L576.465 362.366  Z" fill="#969696" fill-rule="evenodd" fill-opacity="1"/>
<polyline clip-path="url(#clip552)" style="stroke:#969696; stroke-linecap:round; stroke-linejoin:round; stroke-width:4; stroke-opacity:1; fill:none" points="576.465,362.366 576.465,913.372 595.36,913.372 595.36,362.366 576.465,362.366 "/>
<path clip-path="url(#clip552)" d="M614.255 329.488 L614.255 913.372 L633.15 913.372 L633.15 329.488 L614.255 329.488 L614.255 329.488  Z" fill="#969696" fill-rule="evenodd" fill-opacity="1"/>
<polyline clip-path="url(#clip552)" style="stroke:#969696; stroke-linecap:round; stroke-linejoin:round; stroke-width:4; stroke-opacity:1; fill:none" points="614.255,329.488 614.255,913.372 633.15,913.372 633.15,329.488 614.255,329.488 "/>
<path clip-path="url(#clip552)" d="M652.044 348.275 L652.044 913.372 L670.939 913.372 L670.939 348.275 L652.044 348.275 L652.044 348.275  Z" fill="#969696" fill-rule="evenodd" fill-opacity="1"/>
<polyline clip-path="url(#clip552)" style="stroke:#969696; stroke-linecap:round; stroke-linejoin:round; stroke-width:4; stroke-opacity:1; fill:none" points="652.044,348.275 652.044,913.372 670.939,913.372 670.939,348.275 652.044,348.275 "/>
<path clip-path="url(#clip552)" d="M689.834 390.547 L689.834 913.372 L708.729 913.372 L708.729 390.547 L689.834 390.547 L689.834 390.547  Z" fill="#969696" fill-rule="evenodd" fill-opacity="1"/>
<polyline clip-path="url(#clip552)" style="stroke:#969696; stroke-linecap:round; stroke-linejoin:round; stroke-width:4; stroke-opacity:1; fill:none" points="689.834,390.547 689.834,913.372 708.729,913.372 708.729,390.547 689.834,390.547 "/>
<path clip-path="url(#clip552)" d="M727.623 428.122 L727.623 913.372 L746.518 913.372 L746.518 428.122 L727.623 428.122 L727.623 428.122  Z" fill="#969696" fill-rule="evenodd" fill-opacity="1"/>
<polyline clip-path="url(#clip552)" style="stroke:#969696; stroke-linecap:round; stroke-linejoin:round; stroke-width:4; stroke-opacity:1; fill:none" points="727.623,428.122 727.623,913.372 746.518,913.372 746.518,428.122 727.623,428.122 "/>
<path clip-path="url(#clip552)" d="M765.413 390.547 L765.413 913.372 L784.308 913.372 L784.308 390.547 L765.413 390.547 L765.413 390.547  Z" fill="#969696" fill-rule="evenodd" fill-opacity="1"/>
<polyline clip-path="url(#clip552)" style="stroke:#969696; stroke-linecap:round; stroke-linejoin:round; stroke-width:4; stroke-opacity:1; fill:none" points="765.413,390.547 765.413,913.372 784.308,913.372 784.308,390.547 765.413,390.547 "/>
<path clip-path="url(#clip552)" d="M803.203 324.791 L803.203 913.372 L822.097 913.372 L822.097 324.791 L803.203 324.791 L803.203 324.791  Z" fill="#969696" fill-rule="evenodd" fill-opacity="1"/>
<polyline clip-path="url(#clip552)" style="stroke:#969696; stroke-linecap:round; stroke-linejoin:round; stroke-width:4; stroke-opacity:1; fill:none" points="803.203,324.791 803.203,913.372 822.097,913.372 822.097,324.791 803.203,324.791 "/>
<path clip-path="url(#clip552)" d="M840.992 338.882 L840.992 913.372 L859.887 913.372 L859.887 338.882 L840.992 338.882 L840.992 338.882  Z" fill="#969696" fill-rule="evenodd" fill-opacity="1"/>
<polyline clip-path="url(#clip552)" style="stroke:#969696; stroke-linecap:round; stroke-linejoin:round; stroke-width:4; stroke-opacity:1; fill:none" points="840.992,338.882 840.992,913.372 859.887,913.372 859.887,338.882 840.992,338.882 "/>
<path clip-path="url(#clip552)" d="M878.782 343.578 L878.782 913.372 L897.676 913.372 L897.676 343.578 L878.782 343.578 L878.782 343.578  Z" fill="#969696" fill-rule="evenodd" fill-opacity="1"/>
<polyline clip-path="url(#clip552)" style="stroke:#969696; stroke-linecap:round; stroke-linejoin:round; stroke-width:4; stroke-opacity:1; fill:none" points="878.782,343.578 878.782,913.372 897.676,913.372 897.676,343.578 878.782,343.578 "/>
<path clip-path="url(#clip552)" d="M916.571 301.307 L916.571 913.372 L935.466 913.372 L935.466 301.307 L916.571 301.307 L916.571 301.307  Z" fill="#969696" fill-rule="evenodd" fill-opacity="1"/>
<polyline clip-path="url(#clip552)" style="stroke:#969696; stroke-linecap:round; stroke-linejoin:round; stroke-width:4; stroke-opacity:1; fill:none" points="916.571,301.307 916.571,913.372 935.466,913.372 935.466,301.307 916.571,301.307 "/>
<path clip-path="url(#clip552)" d="M954.361 259.035 L954.361 913.372 L973.256 913.372 L973.256 259.035 L954.361 259.035 L954.361 259.035  Z" fill="#969696" fill-rule="evenodd" fill-opacity="1"/>
<polyline clip-path="url(#clip552)" style="stroke:#969696; stroke-linecap:round; stroke-linejoin:round; stroke-width:4; stroke-opacity:1; fill:none" points="954.361,259.035 954.361,913.372 973.256,913.372 973.256,259.035 954.361,259.035 "/>
<path clip-path="url(#clip552)" d="M992.15 230.853 L992.15 913.372 L1011.05 913.372 L1011.05 230.853 L992.15 230.853 L992.15 230.853  Z" fill="#969696" fill-rule="evenodd" fill-opacity="1"/>
<polyline clip-path="url(#clip552)" style="stroke:#969696; stroke-linecap:round; stroke-linejoin:round; stroke-width:4; stroke-opacity:1; fill:none" points="992.15,230.853 992.15,913.372 1011.05,913.372 1011.05,230.853 992.15,230.853 "/>
<path clip-path="url(#clip552)" d="M1029.94 268.428 L1029.94 913.372 L1048.83 913.372 L1048.83 268.428 L1029.94 268.428 L1029.94 268.428  Z" fill="#969696" fill-rule="evenodd" fill-opacity="1"/>
<polyline clip-path="url(#clip552)" style="stroke:#969696; stroke-linecap:round; stroke-linejoin:round; stroke-width:4; stroke-opacity:1; fill:none" points="1029.94,268.428 1029.94,913.372 1048.83,913.372 1048.83,268.428 1029.94,268.428 "/>
<path clip-path="url(#clip552)" d="M1067.73 329.488 L1067.73 913.372 L1086.62 913.372 L1086.62 329.488 L1067.73 329.488 L1067.73 329.488  Z" fill="#969696" fill-rule="evenodd" fill-opacity="1"/>
<polyline clip-path="url(#clip552)" style="stroke:#969696; stroke-linecap:round; stroke-linejoin:round; stroke-width:4; stroke-opacity:1; fill:none" points="1067.73,329.488 1067.73,913.372 1086.62,913.372 1086.62,329.488 1067.73,329.488 "/>
<path clip-path="url(#clip552)" d="M1105.52 367.063 L1105.52 913.372 L1124.41 913.372 L1124.41 367.063 L1105.52 367.063 L1105.52 367.063  Z" fill="#969696" fill-rule="evenodd" fill-opacity="1"/>
<polyline clip-path="url(#clip552)" style="stroke:#969696; stroke-linecap:round; stroke-linejoin:round; stroke-width:4; stroke-opacity:1; fill:none" points="1105.52,367.063 1105.52,913.372 1124.41,913.372 1124.41,367.063 1105.52,367.063 "/>
<circle clip-path="url(#clip552)" style="fill:#009af9; stroke:none; fill-opacity:0" cx="245.807" cy="493.879" r="2"/>
<circle clip-path="url(#clip552)" style="fill:#009af9; stroke:none; fill-opacity:0" cx="283.596" cy="522.06" r="2"/>
<circle clip-path="url(#clip552)" style="fill:#009af9; stroke:none; fill-opacity:0" cx="321.386" cy="578.423" r="2"/>
<circle clip-path="url(#clip552)" style="fill:#009af9; stroke:none; fill-opacity:0" cx="359.175" cy="700.542" r="2"/>
<circle clip-path="url(#clip552)" style="fill:#009af9; stroke:none; fill-opacity:0" cx="396.965" cy="738.117" r="2"/>
<circle clip-path="url(#clip552)" style="fill:#009af9; stroke:none; fill-opacity:0" cx="434.754" cy="644.179" r="2"/>
<circle clip-path="url(#clip552)" style="fill:#009af9; stroke:none; fill-opacity:0" cx="472.544" cy="550.241" r="2"/>
<circle clip-path="url(#clip552)" style="fill:#009af9; stroke:none; fill-opacity:0" cx="510.333" cy="465.698" r="2"/>
<circle clip-path="url(#clip552)" style="fill:#009af9; stroke:none; fill-opacity:0" cx="548.123" cy="409.335" r="2"/>
<circle clip-path="url(#clip552)" style="fill:#009af9; stroke:none; fill-opacity:0" cx="585.913" cy="362.366" r="2"/>
<circle clip-path="url(#clip552)" style="fill:#009af9; stroke:none; fill-opacity:0" cx="623.702" cy="329.488" r="2"/>
<circle clip-path="url(#clip552)" style="fill:#009af9; stroke:none; fill-opacity:0" cx="661.492" cy="348.275" r="2"/>
<circle clip-path="url(#clip552)" style="fill:#009af9; stroke:none; fill-opacity:0" cx="699.281" cy="390.547" r="2"/>
<circle clip-path="url(#clip552)" style="fill:#009af9; stroke:none; fill-opacity:0" cx="737.071" cy="428.122" r="2"/>
<circle clip-path="url(#clip552)" style="fill:#009af9; stroke:none; fill-opacity:0" cx="774.86" cy="390.547" r="2"/>
<circle clip-path="url(#clip552)" style="fill:#009af9; stroke:none; fill-opacity:0" cx="812.65" cy="324.791" r="2"/>
<circle clip-path="url(#clip552)" style="fill:#009af9; stroke:none; fill-opacity:0" cx="850.439" cy="338.882" r="2"/>
<circle clip-path="url(#clip552)" style="fill:#009af9; stroke:none; fill-opacity:0" cx="888.229" cy="343.578" r="2"/>
<circle clip-path="url(#clip552)" style="fill:#009af9; stroke:none; fill-opacity:0" cx="926.019" cy="301.307" r="2"/>
<circle clip-path="url(#clip552)" style="fill:#009af9; stroke:none; fill-opacity:0" cx="963.808" cy="259.035" r="2"/>
<circle clip-path="url(#clip552)" style="fill:#009af9; stroke:none; fill-opacity:0" cx="1001.6" cy="230.853" r="2"/>
<circle clip-path="url(#clip552)" style="fill:#009af9; stroke:none; fill-opacity:0" cx="1039.39" cy="268.428" r="2"/>
<circle clip-path="url(#clip552)" style="fill:#009af9; stroke:none; fill-opacity:0" cx="1077.18" cy="329.488" r="2"/>
<circle clip-path="url(#clip552)" style="fill:#009af9; stroke:none; fill-opacity:0" cx="1114.97" cy="367.063" r="2"/>
<path clip-path="url(#clip550)" d="M776.674 179.795 L1121.26 179.795 L1121.26 76.115 L776.674 76.115  Z" fill="#ffffff" fill-rule="evenodd" fill-opacity="1"/>
<polyline clip-path="url(#clip550)" style="stroke:#000000; stroke-linecap:round; stroke-linejoin:round; stroke-width:4; stroke-opacity:1; fill:none" points="776.674,179.795 1121.26,179.795 1121.26,76.115 776.674,76.115 776.674,179.795 "/>
<path clip-path="url(#clip550)" d="M787.172 148.691 L850.154 148.691 L850.154 107.219 L787.172 107.219 L787.172 148.691  Z" fill="#969696" fill-rule="evenodd" fill-opacity="1"/>
<polyline clip-path="url(#clip550)" style="stroke:#969696; stroke-linecap:round; stroke-linejoin:round; stroke-width:4; stroke-opacity:1; fill:none" points="787.172,148.691 850.154,148.691 850.154,107.219 787.172,107.219 787.172,148.691 "/>
<path clip-path="url(#clip550)" d="M860.651 139.74 L860.651 130.137 Q860.651 129.598 860.675 129.411 Q860.698 129.224 860.839 129.083 Q860.979 128.942 861.26 128.942 Q861.799 128.942 861.846 129.434 Q861.986 134.189 864.82 136.812 Q867.608 139.412 872.386 139.412 Q875.267 139.412 877.047 137.351 Q878.827 135.267 878.827 132.55 Q878.827 129.95 877.328 128.123 Q876.696 127.303 875.899 126.788 Q875.126 126.249 874.634 126.085 Q874.166 125.921 873.253 125.687 Q867.303 124.258 866.928 124.094 Q864.094 123.134 862.361 120.721 Q860.651 118.285 860.651 115.311 Q860.651 111.469 863.345 108.752 Q866.062 106.012 869.997 106.012 Q871.964 106.012 873.604 106.644 Q875.267 107.253 875.946 107.815 Q876.625 108.378 877.679 109.385 L879.342 106.644 Q879.717 106.012 880.068 106.012 Q880.443 106.012 880.513 106.246 Q880.607 106.457 880.607 107.16 L880.607 116.81 Q880.607 117.348 880.584 117.536 Q880.56 117.723 880.396 117.84 Q880.256 117.957 879.975 117.957 Q879.506 117.957 879.389 117.395 Q878.054 107.37 870.044 107.37 Q867.303 107.37 865.5 109.221 Q863.72 111.048 863.72 113.648 Q863.72 115.756 865.031 117.489 Q866.343 119.199 868.568 119.737 L874.705 121.213 Q877.773 121.939 879.834 124.656 Q881.895 127.373 881.895 130.91 Q881.895 134.985 879.225 137.937 Q876.578 140.888 872.433 140.888 Q869.458 140.888 867.163 139.904 Q864.867 138.92 863.626 137.539 Q862.666 139.131 862.033 140.021 L861.893 140.256 Q861.518 140.888 861.167 140.888 Q860.792 140.888 860.721 140.654 Q860.651 140.419 860.651 139.74 Z" fill="#000000" fill-rule="nonzero" fill-opacity="1" /><path clip-path="url(#clip550)" d="M889.115 145.783 Q889.115 144.776 889.701 144.237 Q890.31 143.722 891.13 143.722 Q891.996 143.722 892.558 144.261 Q893.144 144.823 893.144 145.736 Q893.144 147.516 891.27 147.751 Q892.184 148.617 893.519 148.617 Q894.947 148.617 896.095 147.563 Q897.266 146.509 897.758 145.502 Q898.273 144.495 898.999 142.668 Q899.679 141.239 900.194 139.834 L893.003 122.314 Q892.535 121.166 891.809 120.909 Q891.083 120.651 889.115 120.651 L889.115 119.152 Q891.27 119.292 893.776 119.292 Q895.252 119.292 898.999 119.152 L898.999 120.651 Q896.306 120.651 896.306 121.892 Q896.306 122.033 896.587 122.759 L901.927 135.665 L906.776 123.86 Q907.057 123.181 907.057 122.712 Q907.057 120.745 904.808 120.651 L904.808 119.152 Q907.97 119.292 908.977 119.292 Q910.945 119.292 912.561 119.152 L912.561 120.651 Q909.352 120.651 908.111 123.719 L899.655 144.19 Q897.36 149.648 893.519 149.671 Q891.692 149.671 890.403 148.547 Q889.115 147.423 889.115 145.783 Z" fill="#000000" fill-rule="nonzero" fill-opacity="1" /><path clip-path="url(#clip550)" d="M915.583 139.202 L915.583 132.877 Q915.583 132.339 915.606 132.151 Q915.63 131.964 915.77 131.823 Q915.911 131.683 916.192 131.683 Q916.52 131.683 916.637 131.823 Q916.778 131.964 916.871 132.503 Q917.597 135.805 919.143 137.562 Q920.712 139.295 923.547 139.295 Q926.24 139.295 927.599 138.101 Q928.957 136.906 928.957 134.939 Q928.957 131.425 923.968 130.535 Q921.087 129.95 919.893 129.575 Q918.698 129.177 917.644 128.31 Q915.583 126.624 915.583 124.235 Q915.583 121.845 917.386 120.089 Q919.213 118.332 923.242 118.332 Q925.936 118.332 927.763 119.691 Q928.301 119.269 928.582 118.918 Q929.215 118.332 929.543 118.332 Q929.918 118.332 929.988 118.59 Q930.058 118.824 930.058 119.503 L930.058 124.328 Q930.058 124.867 930.035 125.054 Q930.011 125.242 929.871 125.382 Q929.73 125.499 929.426 125.499 Q928.887 125.499 928.863 125.054 Q928.489 119.246 923.242 119.246 Q920.408 119.246 919.143 120.346 Q917.878 121.424 917.878 122.899 Q917.878 123.719 918.253 124.352 Q918.651 124.961 919.143 125.335 Q919.658 125.687 920.595 126.038 Q921.532 126.366 922.094 126.483 Q922.68 126.6 923.781 126.834 Q927.622 127.561 929.238 129.13 Q931.253 131.144 931.253 133.697 Q931.253 136.531 929.332 138.452 Q927.411 140.373 923.547 140.373 Q920.431 140.373 918.253 138.288 Q917.972 138.569 917.761 138.827 Q917.55 139.061 917.457 139.155 Q917.386 139.248 917.363 139.319 Q917.34 139.365 917.293 139.412 Q916.332 140.373 916.098 140.373 Q915.724 140.373 915.653 140.115 Q915.583 139.881 915.583 139.202 Z" fill="#000000" fill-rule="nonzero" fill-opacity="1" /><path clip-path="url(#clip550)" d="M932.565 120.651 L932.565 119.597 Q934.767 119.503 936.219 117.957 Q937.695 116.388 938.187 114.467 Q938.702 112.547 938.749 110.322 L939.943 110.322 L939.943 119.152 L946.806 119.152 L946.806 120.651 L939.943 120.651 L939.943 133.978 Q939.943 139.155 943.176 139.155 Q944.558 139.155 945.471 137.749 Q946.385 136.321 946.385 133.791 L946.385 131.144 L947.579 131.144 L947.579 133.885 Q947.579 136.485 946.385 138.429 Q945.19 140.373 942.824 140.373 Q941.958 140.373 941.091 140.138 Q940.248 139.928 939.124 139.365 Q938.023 138.78 937.32 137.375 Q936.641 135.946 936.641 133.885 L936.641 120.651 L932.565 120.651 Z" fill="#000000" fill-rule="nonzero" fill-opacity="1" /><path clip-path="url(#clip550)" d="M949.868 129.27 Q949.868 124.75 952.772 121.541 Q955.677 118.332 959.846 118.332 Q964.062 118.332 966.24 121.073 Q968.442 123.813 968.442 127.748 Q968.442 128.474 968.255 128.615 Q968.067 128.755 967.247 128.755 L953.85 128.755 Q953.85 133.65 955.302 135.946 Q957.316 139.155 960.713 139.155 Q961.181 139.155 961.743 139.061 Q962.305 138.967 963.453 138.569 Q964.601 138.148 965.608 137.047 Q966.615 135.946 967.201 134.213 Q967.341 133.533 967.81 133.557 Q968.442 133.557 968.442 134.119 Q968.442 134.54 967.973 135.501 Q967.528 136.438 966.662 137.562 Q965.795 138.686 964.109 139.529 Q962.446 140.373 960.431 140.373 Q956.215 140.373 953.03 137.187 Q949.868 133.978 949.868 129.27 M953.897 127.748 L965.28 127.748 Q965.28 126.741 965.093 125.616 Q964.929 124.492 964.413 122.946 Q963.921 121.377 962.75 120.393 Q961.579 119.41 959.846 119.41 Q959.073 119.41 958.23 119.737 Q957.41 120.065 956.403 120.862 Q955.396 121.658 954.693 123.462 Q953.99 125.265 953.897 127.748 Z" fill="#000000" fill-rule="nonzero" fill-opacity="1" /><path clip-path="url(#clip550)" d="M969.994 139.834 L969.994 138.358 Q972.547 138.358 973.133 138.054 Q973.718 137.726 973.718 136.18 L973.718 123.321 Q973.718 121.541 973.086 121.096 Q972.477 120.651 969.994 120.651 L969.994 119.152 L976.74 118.637 L976.74 123.672 Q978.988 118.637 983.837 118.637 Q989.458 118.637 990.231 123.321 Q991.051 121.494 992.761 120.065 Q994.494 118.637 997.188 118.637 Q1000.79 118.637 1002.22 120.417 Q1003.28 121.611 1003.49 122.946 Q1003.7 124.281 1003.7 127.748 L1003.7 136.906 Q1003.75 137.913 1004.52 138.148 Q1005.29 138.358 1007.45 138.358 L1007.45 139.834 Q1002.55 139.693 1002.08 139.693 Q1001.71 139.693 996.649 139.834 L996.649 138.358 Q999.202 138.358 999.788 138.054 Q1000.4 137.726 1000.4 136.18 L1000.4 125.008 Q1000.4 122.572 999.647 121.143 Q998.897 119.691 996.836 119.691 Q994.354 119.691 992.363 121.775 Q990.372 123.86 990.372 127.373 L990.372 136.18 Q990.372 137.726 990.957 138.054 Q991.566 138.358 994.119 138.358 L994.119 139.834 Q989.224 139.693 988.732 139.693 Q988.357 139.693 983.322 139.834 L983.322 138.358 Q985.875 138.358 986.46 138.054 Q987.069 137.726 987.069 136.18 L987.069 125.008 Q987.069 122.572 986.32 121.143 Q985.57 119.691 983.509 119.691 Q981.026 119.691 979.035 121.775 Q977.044 123.86 977.044 127.373 L977.044 136.18 Q977.044 137.726 977.63 138.054 Q978.239 138.358 980.768 138.358 L980.768 139.834 Q975.873 139.693 975.405 139.693 Q975.03 139.693 969.994 139.834 Z" fill="#000000" fill-rule="nonzero" fill-opacity="1" /><path clip-path="url(#clip550)" d="M1022.22 139.834 L1022.22 138.358 Q1024.77 138.358 1025.36 138.054 Q1025.94 137.726 1025.94 136.18 L1025.94 111.235 Q1025.94 109.455 1025.31 109.01 Q1024.7 108.565 1022.22 108.565 L1022.22 107.066 L1029.11 106.551 L1029.11 136.18 Q1029.11 137.726 1029.71 138.054 Q1030.32 138.358 1032.85 138.358 L1032.85 139.834 Q1032.27 139.834 1031.05 139.787 Q1029.83 139.74 1028.94 139.717 Q1028.05 139.693 1027.54 139.693 Q1026.97 139.693 1022.22 139.834 Z" fill="#000000" fill-rule="nonzero" fill-opacity="1" /><path clip-path="url(#clip550)" d="M1040.07 137.257 Q1036.91 134.119 1036.91 129.575 Q1036.91 125.008 1040 121.682 Q1043.11 118.332 1047.56 118.332 Q1051.92 118.332 1055.04 121.658 Q1058.18 124.961 1058.18 129.575 Q1058.18 134.095 1055.01 137.234 Q1051.87 140.373 1047.52 140.373 Q1043.26 140.373 1040.07 137.257 M1040.89 129.177 Q1040.89 133.838 1042.11 135.946 Q1043.98 139.155 1047.56 139.155 Q1049.35 139.155 1050.82 138.194 Q1052.32 137.234 1053.14 135.618 Q1054.19 133.51 1054.19 129.177 Q1054.19 124.562 1052.93 122.525 Q1051.05 119.41 1047.52 119.41 Q1045.97 119.41 1044.45 120.229 Q1042.95 121.026 1042.04 122.618 Q1040.89 124.726 1040.89 129.177 Z" fill="#000000" fill-rule="nonzero" fill-opacity="1" /><path clip-path="url(#clip550)" d="M1060.66 135.267 Q1060.66 131.191 1065.46 129.036 Q1068.34 127.654 1074.29 127.303 L1074.29 125.546 Q1074.29 122.572 1072.72 121.002 Q1071.18 119.41 1069.21 119.41 Q1065.7 119.41 1064.01 121.611 Q1065.44 121.658 1065.96 122.384 Q1066.47 123.087 1066.47 123.813 Q1066.47 124.773 1065.86 125.406 Q1065.28 126.015 1064.27 126.015 Q1063.31 126.015 1062.68 125.429 Q1062.04 124.82 1062.04 123.766 Q1062.04 121.424 1064.15 119.878 Q1066.28 118.332 1069.3 118.332 Q1073.24 118.332 1075.86 120.979 Q1076.68 121.799 1077.08 122.853 Q1077.5 123.907 1077.55 124.609 Q1077.6 125.289 1077.6 126.647 L1077.6 136.227 Q1077.6 136.508 1077.69 136.976 Q1077.78 137.445 1078.21 138.054 Q1078.65 138.639 1079.38 138.639 Q1081.11 138.639 1081.09 135.571 L1081.09 132.877 L1082.3 132.877 L1082.3 135.571 Q1082.3 138.124 1080.95 139.131 Q1079.61 140.115 1078.37 140.115 Q1076.78 140.115 1075.77 138.944 Q1074.76 137.773 1074.62 136.18 Q1073.9 138.007 1072.23 139.202 Q1070.59 140.373 1068.34 140.373 Q1066.61 140.373 1064.97 139.928 Q1063.36 139.506 1062 138.311 Q1060.66 137.093 1060.66 135.267 M1064.36 135.22 Q1064.36 137 1065.63 138.148 Q1066.89 139.295 1068.67 139.295 Q1070.69 139.295 1072.49 137.749 Q1074.29 136.18 1074.29 133.112 L1074.29 128.31 Q1068.98 128.497 1066.66 130.629 Q1064.36 132.737 1064.36 135.22 Z" fill="#000000" fill-rule="nonzero" fill-opacity="1" /><path clip-path="url(#clip550)" d="M1084.42 129.528 Q1084.42 124.961 1087.6 121.799 Q1090.79 118.637 1095.1 118.637 Q1098.75 118.637 1101.14 121.611 L1101.14 111.235 Q1101.14 109.455 1100.51 109.01 Q1099.9 108.565 1097.41 108.565 L1097.41 107.066 L1104.32 106.551 L1104.32 135.665 Q1104.32 137.445 1104.93 137.913 Q1105.57 138.358 1108.05 138.358 L1108.05 139.834 L1101 140.373 L1101 137.187 Q1098.52 140.349 1094.58 140.373 Q1090.46 140.373 1087.44 137.211 Q1084.42 134.049 1084.42 129.528 M1088.4 129.575 Q1088.4 134.025 1089.78 136.227 Q1091.7 139.295 1094.82 139.295 Q1098.38 139.295 1100.48 135.946 Q1101.02 135.126 1101 134.166 L1101 124.328 Q1101 123.368 1100.48 122.572 Q1098.52 119.691 1095.31 119.691 Q1091.96 119.691 1089.87 122.759 Q1088.4 125.054 1088.4 129.575 Z" fill="#000000" fill-rule="nonzero" fill-opacity="1" /></svg>
