<?xml version="1.0" encoding="utf-8"?>
<svg xmlns="http://www.w3.org/2000/svg" xmlns:xlink="http://www.w3.org/1999/xlink" width="300" height="280" viewBox="0 0 1200 1120">
<defs>
  <clipPath id="clip480">
    <rect x="0" y="0" width="1200" height="1120"/>
  </clipPath>
</defs>
<path clip-path="url(#clip480)" d="M0 1120 L1200 1120 L1200 0 L0 0  Z" fill="#ffffff" fill-rule="evenodd" fill-opacity="1"/>
<defs>
  <clipPath id="clip481">
    <rect x="240" y="40" width="841" height="841"/>
  </clipPath>
</defs>
<path clip-path="url(#clip480)" d="M243.237 913.372 L1152.76 913.372 L1152.76 47.2441 L243.237 47.2441  Z" fill="#ffffff" fill-rule="evenodd" fill-opacity="1"/>
<defs>
  <clipPath id="clip482">
    <rect x="243" y="47" width="911" height="867"/>
  </clipPath>
</defs>
<polyline clip-path="url(#clip482)" style="stroke:#808080; stroke-linecap:round; stroke-linejoin:round; stroke-width:4; stroke-opacity:0.1; fill:none" points="243.237,913.372 243.237,47.2441 "/>
<polyline clip-path="url(#clip482)" style="stroke:#808080; stroke-linecap:round; stroke-linejoin:round; stroke-width:4; stroke-opacity:0.1; fill:none" points="425.141,913.372 425.141,47.2441 "/>
<polyline clip-path="url(#clip482)" style="stroke:#808080; stroke-linecap:round; stroke-linejoin:round; stroke-width:4; stroke-opacity:0.1; fill:none" points="607.044,913.372 607.044,47.2441 "/>
<polyline clip-path="url(#clip482)" style="stroke:#808080; stroke-linecap:round; stroke-linejoin:round; stroke-width:4; stroke-opacity:0.1; fill:none" points="788.948,913.372 788.948,47.2441 "/>
<polyline clip-path="url(#clip482)" style="stroke:#808080; stroke-linecap:round; stroke-linejoin:round; stroke-width:4; stroke-opacity:0.1; fill:none" points="970.852,913.372 970.852,47.2441 "/>
<polyline clip-path="url(#clip482)" style="stroke:#808080; stroke-linecap:round; stroke-linejoin:round; stroke-width:4; stroke-opacity:0.1; fill:none" points="1152.76,913.372 1152.76,47.2441 "/>
<polyline clip-path="url(#clip480)" style="stroke:#000000; stroke-linecap:round; stroke-linejoin:round; stroke-width:4; stroke-opacity:1; fill:none" points="243.237,913.372 1152.76,913.372 "/>
<polyline clip-path="url(#clip480)" style="stroke:#000000; stroke-linecap:round; stroke-linejoin:round; stroke-width:4; stroke-opacity:1; fill:none" points="243.237,47.2441 1152.76,47.2441 "/>
<polyline clip-path="url(#clip480)" style="stroke:#000000; stroke-linecap:round; stroke-linejoin:round; stroke-width:4; stroke-opacity:1; fill:none" points="243.237,913.372 243.237,894.474 "/>
<polyline clip-path="url(#clip480)" style="stroke:#000000; stroke-linecap:round; stroke-linejoin:round; stroke-width:4; stroke-opacity:1; fill:none" points="425.141,913.372 425.141,894.474 "/>
<polyline clip-path="url(#clip480)" style="stroke:#000000; stroke-linecap:round; stroke-linejoin:round; stroke-width:4; stroke-opacity:1; fill:none" points="607.044,913.372 607.044,894.474 "/>
<polyline clip-path="url(#clip480)" style="stroke:#000000; stroke-linecap:round; stroke-linejoin:round; stroke-width:4; stroke-opacity:1; fill:none" points="788.948,913.372 788.948,894.474 "/>
<polyline clip-path="url(#clip480)" style="stroke:#000000; stroke-linecap:round; stroke-linejoin:round; stroke-width:4; stroke-opacity:1; fill:none" points="970.852,913.372 970.852,894.474 "/>
<polyline clip-path="url(#clip480)" style="stroke:#000000; stroke-linecap:round; stroke-linejoin:round; stroke-width:4; stroke-opacity:1; fill:none" points="1152.76,913.372 1152.76,894.474 "/>
<g clip-path="url(#clip480)">
<text style="fill:#000000; fill-opacity:1; font-family:Book Antiqua,Palatino,Palatino Linotype,Palatino LT STD,Georgia,serif; font-size:51px; font-weight:bold; text-anchor:middle;" transform="rotate(0, 243.237, 967.343)" x="243.237" y="967.343">0</text>
</g>
<g clip-path="url(#clip480)">
<text style="fill:#000000; fill-opacity:1; font-family:Book Antiqua,Palatino,Palatino Linotype,Palatino LT STD,Georgia,serif; font-size:51px; font-weight:bold; text-anchor:middle;" transform="rotate(0, 425.141, 967.343)" x="425.141" y="967.343">5</text>
</g>
<g clip-path="url(#clip480)">
<text style="fill:#000000; fill-opacity:1; font-family:Book Antiqua,Palatino,Palatino Linotype,Palatino LT STD,Georgia,serif; font-size:51px; font-weight:bold; text-anchor:middle;" transform="rotate(0, 607.044, 967.343)" x="607.044" y="967.343">10</text>
</g>
<g clip-path="url(#clip480)">
<text style="fill:#000000; fill-opacity:1; font-family:Book Antiqua,Palatino,Palatino Linotype,Palatino LT STD,Georgia,serif; font-size:51px; font-weight:bold; text-anchor:middle;" transform="rotate(0, 788.948, 967.343)" x="788.948" y="967.343">15</text>
</g>
<g clip-path="url(#clip480)">
<text style="fill:#000000; fill-opacity:1; font-family:Book Antiqua,Palatino,Palatino Linotype,Palatino LT STD,Georgia,serif; font-size:51px; font-weight:bold; text-anchor:middle;" transform="rotate(0, 970.852, 967.343)" x="970.852" y="967.343">20</text>
</g>
<g clip-path="url(#clip480)">
<text style="fill:#000000; fill-opacity:1; font-family:Book Antiqua,Palatino,Palatino Linotype,Palatino LT STD,Georgia,serif; font-size:51px; font-weight:bold; text-anchor:middle;" transform="rotate(0, 1152.76, 967.343)" x="1152.76" y="967.343">25</text>
</g>
<path clip-path="url(#clip480)" d="M674.824 1002.26 Q674.824 1003.16 674.405 1003.39 Q673.987 1003.58 672.827 1003.58 L666.644 1003.58 L661.748 1023.03 Q661.362 1024.74 661.362 1026.19 Q661.362 1027.8 661.845 1028.51 Q662.36 1029.22 663.423 1029.22 Q665.517 1029.22 667.771 1027.32 Q670.058 1025.42 671.99 1020.78 Q672.248 1020.17 672.376 1020.04 Q672.537 1019.88 672.956 1019.88 Q673.761 1019.88 673.761 1020.52 Q673.761 1020.75 673.31 1021.78 Q672.892 1022.81 671.958 1024.32 Q671.056 1025.84 669.864 1027.25 Q668.705 1028.67 666.934 1029.7 Q665.162 1030.7 663.262 1030.7 Q660.589 1030.7 658.882 1028.99 Q657.207 1027.29 657.207 1024.61 Q657.207 1023.74 657.884 1020.97 Q658.56 1018.17 662.232 1003.58 L656.402 1003.58 Q655.597 1003.58 655.275 1003.55 Q654.985 1003.52 654.76 1003.36 Q654.567 1003.16 654.567 1002.78 Q654.567 1002.17 654.824 1001.91 Q655.082 1001.62 655.404 1001.59 Q655.758 1001.52 656.563 1001.52 L662.747 1001.52 L665.323 991.054 Q665.581 990.023 666.225 989.444 Q666.901 988.832 667.288 988.767 Q667.674 988.671 667.964 988.671 Q668.834 988.671 669.349 989.154 Q669.864 989.605 669.864 990.442 Q669.864 990.893 667.159 1001.52 L672.956 1001.52 Q673.697 1001.52 673.987 1001.55 Q674.309 1001.59 674.566 1001.75 Q674.824 1001.91 674.824 1002.26 Z" fill="#000000" fill-rule="nonzero" fill-opacity="1" /><path clip-path="url(#clip480)" d="M678.14 1045.51 Q678.14 1045.19 678.397 1044.48 L701.682 982.262 Q701.682 982.197 701.843 981.843 Q702.004 981.489 702.101 981.263 Q702.197 981.006 702.391 980.813 Q702.616 980.619 702.874 980.619 Q703.518 980.619 703.518 981.425 Q703.518 981.489 703.325 982.262 L679.975 1044.55 Q679.589 1045.68 679.331 1046 Q679.106 1046.32 678.719 1046.32 Q678.14 1046.32 678.14 1045.51 Z" fill="#000000" fill-rule="nonzero" fill-opacity="1" /><path clip-path="url(#clip480)" d="M735.087 1006.48 Q735.087 1008.28 734.185 1009.25 Q733.283 1010.18 732.059 1010.18 Q731.061 1010.18 730.514 1009.6 Q729.998 1009.02 729.998 1008.25 Q729.998 1007.12 730.9 1006.22 Q731.834 1005.32 733.187 1005.29 Q732.736 1004.1 731.544 1003.39 Q730.353 1002.65 729.29 1002.45 Q728.259 1002.26 727.229 1002.26 Q725.2 1002.26 723.654 1002.91 Q722.108 1003.55 721.335 1004.55 Q720.562 1005.51 720.208 1006.45 Q719.853 1007.38 719.853 1008.19 Q719.853 1008.9 720.014 1009.48 Q720.208 1010.02 720.659 1010.44 Q721.109 1010.83 721.432 1011.09 Q721.786 1011.34 722.559 1011.57 Q723.332 1011.79 723.654 1011.89 Q723.976 1011.96 724.878 1012.15 Q726.745 1012.54 727.583 1012.76 Q728.42 1012.95 729.515 1013.5 Q730.642 1014.05 731.48 1014.92 Q733.509 1016.95 733.509 1019.75 Q733.509 1020.78 733.154 1022.04 Q732.832 1023.29 731.898 1024.87 Q730.964 1026.45 729.547 1027.7 Q728.13 1028.96 725.683 1029.83 Q723.267 1030.7 720.24 1030.7 Q716.021 1030.7 713.412 1028.93 Q710.804 1027.12 710.804 1024.29 Q710.804 1022.23 711.931 1021.1 Q713.058 1019.94 714.507 1019.94 Q715.602 1019.94 716.279 1020.55 Q716.955 1021.13 716.955 1022.23 Q716.955 1023.71 715.763 1024.84 Q714.572 1025.97 712.8 1025.74 Q714.314 1029.22 720.304 1029.22 Q722.559 1029.22 724.298 1028.64 Q726.069 1028.03 727.035 1027.19 Q728.034 1026.32 728.678 1025.26 Q729.322 1024.19 729.515 1023.39 Q729.741 1022.58 729.741 1021.97 Q729.741 1020.91 729.322 1020.1 Q728.903 1019.3 728.324 1018.85 Q727.776 1018.36 726.713 1017.98 Q725.683 1017.56 724.942 1017.4 Q724.201 1017.24 722.881 1016.98 Q722.269 1016.85 721.882 1016.79 Q721.496 1016.69 720.691 1016.43 Q719.918 1016.14 719.37 1015.85 Q718.855 1015.56 718.179 1015.05 Q717.502 1014.53 717.084 1013.92 Q716.665 1013.31 716.375 1012.41 Q716.085 1011.5 716.085 1010.44 Q716.085 1009.48 716.375 1008.32 Q716.697 1007.16 717.502 1005.8 Q718.34 1004.45 719.531 1003.36 Q720.723 1002.26 722.72 1001.55 Q724.749 1000.81 727.229 1000.81 Q730.836 1000.81 732.961 1002.49 Q735.087 1004.13 735.087 1006.48 Z" fill="#000000" fill-rule="nonzero" fill-opacity="1" /><polyline clip-path="url(#clip482)" style="stroke:#808080; stroke-linecap:round; stroke-linejoin:round; stroke-width:4; stroke-opacity:0.1; fill:none" points="243.237,913.372 1152.76,913.372 "/>
<polyline clip-path="url(#clip482)" style="stroke:#808080; stroke-linecap:round; stroke-linejoin:round; stroke-width:4; stroke-opacity:0.1; fill:none" points="243.237,766.57 1152.76,766.57 "/>
<polyline clip-path="url(#clip482)" style="stroke:#808080; stroke-linecap:round; stroke-linejoin:round; stroke-width:4; stroke-opacity:0.1; fill:none" points="243.237,619.769 1152.76,619.769 "/>
<polyline clip-path="url(#clip482)" style="stroke:#808080; stroke-linecap:round; stroke-linejoin:round; stroke-width:4; stroke-opacity:0.1; fill:none" points="243.237,472.968 1152.76,472.968 "/>
<polyline clip-path="url(#clip482)" style="stroke:#808080; stroke-linecap:round; stroke-linejoin:round; stroke-width:4; stroke-opacity:0.1; fill:none" points="243.237,326.167 1152.76,326.167 "/>
<polyline clip-path="url(#clip482)" style="stroke:#808080; stroke-linecap:round; stroke-linejoin:round; stroke-width:4; stroke-opacity:0.1; fill:none" points="243.237,179.365 1152.76,179.365 "/>
<polyline clip-path="url(#clip480)" style="stroke:#000000; stroke-linecap:round; stroke-linejoin:round; stroke-width:4; stroke-opacity:1; fill:none" points="243.237,913.372 243.237,47.2441 "/>
<polyline clip-path="url(#clip480)" style="stroke:#000000; stroke-linecap:round; stroke-linejoin:round; stroke-width:4; stroke-opacity:1; fill:none" points="1152.76,913.372 1152.76,47.2441 "/>
<polyline clip-path="url(#clip480)" style="stroke:#000000; stroke-linecap:round; stroke-linejoin:round; stroke-width:4; stroke-opacity:1; fill:none" points="243.237,913.372 262.134,913.372 "/>
<polyline clip-path="url(#clip480)" style="stroke:#000000; stroke-linecap:round; stroke-linejoin:round; stroke-width:4; stroke-opacity:1; fill:none" points="243.237,766.57 262.134,766.57 "/>
<polyline clip-path="url(#clip480)" style="stroke:#000000; stroke-linecap:round; stroke-linejoin:round; stroke-width:4; stroke-opacity:1; fill:none" points="243.237,619.769 262.134,619.769 "/>
<polyline clip-path="url(#clip480)" style="stroke:#000000; stroke-linecap:round; stroke-linejoin:round; stroke-width:4; stroke-opacity:1; fill:none" points="243.237,472.968 262.134,472.968 "/>
<polyline clip-path="url(#clip480)" style="stroke:#000000; stroke-linecap:round; stroke-linejoin:round; stroke-width:4; stroke-opacity:1; fill:none" points="243.237,326.167 262.134,326.167 "/>
<polyline clip-path="url(#clip480)" style="stroke:#000000; stroke-linecap:round; stroke-linejoin:round; stroke-width:4; stroke-opacity:1; fill:none" points="243.237,179.365 262.134,179.365 "/>
<g clip-path="url(#clip480)">
<text style="fill:#000000; fill-opacity:1; font-family:Book Antiqua,Palatino,Palatino Linotype,Palatino LT STD,Georgia,serif; font-size:51px; font-weight:bold; text-anchor:middle;" transform="rotate(0, 182.252, 930.872)" x="182.252" y="930.872">−2.0</text>
</g>
<g clip-path="url(#clip480)">
<text style="fill:#000000; fill-opacity:1; font-family:Book Antiqua,Palatino,Palatino Linotype,Palatino LT STD,Georgia,serif; font-size:51px; font-weight:bold; text-anchor:middle;" transform="rotate(0, 182.252, 784.07)" x="182.252" y="784.07">−1.5</text>
</g>
<g clip-path="url(#clip480)">
<text style="fill:#000000; fill-opacity:1; font-family:Book Antiqua,Palatino,Palatino Linotype,Palatino LT STD,Georgia,serif; font-size:51px; font-weight:bold; text-anchor:middle;" transform="rotate(0, 182.252, 637.269)" x="182.252" y="637.269">−1.0</text>
</g>
<g clip-path="url(#clip480)">
<text style="fill:#000000; fill-opacity:1; font-family:Book Antiqua,Palatino,Palatino Linotype,Palatino LT STD,Georgia,serif; font-size:51px; font-weight:bold; text-anchor:middle;" transform="rotate(0, 182.252, 490.468)" x="182.252" y="490.468">−0.5</text>
</g>
<g clip-path="url(#clip480)">
<text style="fill:#000000; fill-opacity:1; font-family:Book Antiqua,Palatino,Palatino Linotype,Palatino LT STD,Georgia,serif; font-size:51px; font-weight:bold; text-anchor:middle;" transform="rotate(0, 193.519, 343.667)" x="193.519" y="343.667">0.0</text>
</g>
<g clip-path="url(#clip480)">
<text style="fill:#000000; fill-opacity:1; font-family:Book Antiqua,Palatino,Palatino Linotype,Palatino LT STD,Georgia,serif; font-size:51px; font-weight:bold; text-anchor:middle;" transform="rotate(0, 193.519, 196.865)" x="193.519" y="196.865">0.5</text>
</g>
<path clip-path="url(#clip480)" d="M109.088 638.432 L107.059 638.432 Q107.059 636.049 106.608 634.536 Q106.125 633.022 105.256 632.474 Q104.354 631.927 103.774 631.798 Q103.162 631.637 102.164 631.637 L67.7359 631.637 Q66.8019 631.637 66.5765 631.895 Q66.351 632.12 66.2222 633.247 Q66.0934 635.212 66.0934 636.532 L66.0934 638.432 L64.0322 638.432 L64.0322 627.225 Q64.0322 626.291 64.161 626.033 Q64.2898 625.776 64.9017 625.325 L99.1366 602.04 L70.9564 602.04 Q69.9581 602.04 69.3784 602.169 Q68.7987 602.297 67.8969 602.877 Q66.9951 603.425 66.5442 604.938 Q66.0934 606.452 66.0934 608.835 L64.0322 608.835 Q64.2254 601.911 64.2254 601.138 Q64.2254 600.333 64.0322 593.409 L66.0934 593.409 Q66.0934 595.792 66.5442 597.306 Q66.9951 598.819 67.8969 599.367 Q68.7987 599.914 69.4106 600.075 Q69.9903 600.204 70.9564 600.204 L107.381 600.204 Q108.444 600.204 108.766 600.333 Q109.088 600.462 109.088 601.106 Q109.088 601.557 108.219 602.233 L68.6698 629.157 Q68.2834 629.415 67.8647 629.801 L102.164 629.801 Q103.162 629.801 103.774 629.672 Q104.354 629.544 105.256 628.996 Q106.125 628.416 106.608 626.903 Q107.059 625.389 107.059 623.006 L109.088 623.006 Q108.895 629.93 108.895 630.735 Q108.895 631.508 109.088 638.432 Z" fill="#000000" fill-rule="nonzero" fill-opacity="1" /><path clip-path="url(#clip480)" d="M102.808 583.371 Q97.2042 583.371 94.2413 576.769 Q92.3411 572.807 91.8581 564.627 L89.4426 564.627 Q85.3525 564.627 83.1947 566.785 Q81.0047 568.91 81.0047 571.616 Q81.0047 576.447 84.032 578.765 Q84.0964 576.801 85.0948 576.092 Q86.061 575.384 87.0594 575.384 Q88.3798 575.384 89.2494 576.221 Q90.0867 577.026 90.0867 578.411 Q90.0867 579.732 89.2816 580.601 Q88.4442 581.471 86.995 581.471 Q83.7744 581.471 81.6488 578.572 Q79.5232 575.641 79.5232 571.487 Q79.5232 566.076 83.1625 562.469 Q84.2897 561.342 85.7389 560.795 Q87.1882 560.215 88.1544 560.15 Q89.0883 560.086 90.9563 560.086 L104.128 560.086 Q104.515 560.086 105.159 559.957 Q105.803 559.828 106.641 559.249 Q107.446 558.637 107.446 557.638 Q107.446 555.255 103.227 555.287 L99.523 555.287 L99.523 553.613 L103.227 553.613 Q106.737 553.613 108.122 555.481 Q109.475 557.316 109.475 559.023 Q109.475 561.213 107.864 562.598 Q106.254 563.983 104.064 564.176 Q106.576 565.175 108.219 567.461 Q109.829 569.716 109.829 572.807 Q109.829 575.191 109.217 577.445 Q108.637 579.667 106.995 581.535 Q105.32 583.371 102.808 583.371 M102.744 578.282 Q105.191 578.282 106.769 576.543 Q108.347 574.804 108.347 572.356 Q108.347 569.587 106.222 567.107 Q104.064 564.627 99.8451 564.627 L93.2429 564.627 Q93.5006 571.938 96.4313 575.126 Q99.3298 578.282 102.744 578.282 Z" fill="#000000" fill-rule="nonzero" fill-opacity="1" /><path clip-path="url(#clip480)" d="M94.9176 550.707 Q88.6375 550.707 84.2897 546.327 Q79.9419 541.947 79.9419 536.021 Q79.9419 530.997 84.032 527.712 L69.7648 527.712 Q67.3172 527.712 66.7053 528.581 Q66.0934 529.419 66.0934 532.833 L64.0322 532.833 L63.3237 523.332 L103.356 523.332 Q105.803 523.332 106.447 522.494 Q107.059 521.625 107.059 518.211 L109.088 518.211 L109.829 527.905 L105.449 527.905 Q109.797 531.319 109.829 536.729 Q109.829 542.398 105.481 546.552 Q101.133 550.707 94.9176 550.707 M94.982 545.232 Q101.101 545.232 104.128 543.332 Q108.347 540.691 108.347 536.407 Q108.347 531.512 103.742 528.614 Q102.615 527.873 101.294 527.905 L87.7679 527.905 Q86.4475 527.905 85.3525 528.614 Q81.3911 531.319 81.3911 535.731 Q81.3911 540.336 85.6101 543.203 Q88.7663 545.232 94.982 545.232 Z" fill="#000000" fill-rule="nonzero" fill-opacity="1" /><path clip-path="url(#clip480)" d="M109.088 515.79 L107.059 515.79 Q107.059 512.28 106.641 511.474 Q106.19 510.669 104.064 510.669 L86.3186 510.669 Q83.871 510.669 83.2913 511.507 Q82.7116 512.312 82.7116 515.532 L80.6504 515.532 L79.9419 506.322 L104.128 506.322 Q106.093 506.322 106.576 505.613 Q107.059 504.904 107.059 501.684 L109.088 501.684 Q108.895 508.415 108.895 508.544 Q108.895 509.446 109.088 515.79 M68.4444 513.02 Q67.124 513.02 66.0612 512.022 Q64.9662 510.991 64.9662 509.542 Q64.9662 508.093 65.9645 507.062 Q66.9307 506.032 68.4766 506.032 Q69.9903 506.032 70.9887 507.062 Q71.9548 508.093 71.9548 509.542 Q71.9548 511.056 70.892 512.054 Q69.8292 513.02 68.4444 513.02 Z" fill="#000000" fill-rule="nonzero" fill-opacity="1" /><path clip-path="url(#clip480)" d="M109.088 497.176 L107.059 497.176 Q107.059 493.665 106.641 492.86 Q106.19 492.023 104.064 492.023 L86.3831 492.023 Q83.9354 492.023 83.3235 492.892 Q82.7116 493.73 82.7116 497.176 L80.6504 497.176 L79.9419 487.997 L87.1882 487.997 Q84.3541 487.063 82.1641 485.098 Q79.9419 483.102 79.9419 479.881 Q79.9419 477.755 81.1335 476.403 Q82.3251 475.018 83.9676 475.018 Q85.4169 475.018 86.1576 475.92 Q86.8661 476.789 86.8661 477.852 Q86.8661 479.044 86.1254 479.881 Q85.3525 480.686 84.032 480.686 Q83.2269 480.686 82.615 480.332 Q81.9709 479.945 81.7454 479.656 Q81.52 479.366 81.4556 479.173 Q81.3911 479.301 81.3911 479.881 Q81.3911 483.52 85.0304 485.614 Q88.6375 487.675 93.7904 487.675 L103.935 487.675 Q105.835 487.675 106.447 486.902 Q107.059 486.097 107.059 482.651 L107.059 481.266 L109.088 481.266 Q108.895 483.907 108.895 489.639 Q108.895 490.445 108.927 491.701 Q108.959 492.957 109.024 494.599 Q109.088 496.242 109.088 497.176 Z" fill="#000000" fill-rule="nonzero" fill-opacity="1" /><path clip-path="url(#clip480)" d="M124.644 454.228 Q124.322 454.228 123.613 453.97 L61.3913 430.686 Q61.3269 430.686 60.9726 430.524 Q60.6184 430.363 60.3929 430.267 Q60.1353 430.17 59.942 429.977 Q59.7488 429.752 59.7488 429.494 Q59.7488 428.85 60.554 428.85 Q60.6184 428.85 61.3913 429.043 L123.677 452.392 Q124.805 452.779 125.127 453.036 Q125.449 453.262 125.449 453.648 Q125.449 454.228 124.644 454.228 Z" fill="#000000" fill-rule="nonzero" fill-opacity="1" /><path clip-path="url(#clip480)" d="M109.088 404.135 L107.059 404.135 L107.059 402.557 Q107.059 398.982 106.48 398.177 Q105.868 397.34 103.935 397.34 L69.1851 397.34 Q67.285 397.34 66.7053 398.177 Q66.0934 399.014 66.0934 402.557 L66.0934 404.135 L64.0322 404.135 Q64.2254 401.816 64.2254 394.377 Q64.2254 387.002 64.0322 384.683 L66.0934 384.683 L66.0934 386.261 Q66.0934 389.836 66.7053 390.673 Q67.285 391.478 69.1851 391.478 L84.6117 391.478 L84.6117 371.768 L69.1851 371.768 Q67.285 371.768 66.7053 372.606 Q66.0934 373.411 66.0934 376.986 L66.0934 378.564 L64.0322 378.564 Q64.2254 376.245 64.2254 368.805 Q64.2254 361.43 64.0322 359.111 L66.0934 359.111 L66.0934 360.689 Q66.0934 364.264 66.7053 365.102 Q67.285 365.907 69.1851 365.907 L103.935 365.907 Q105.835 365.907 106.447 365.069 Q107.059 364.232 107.059 360.689 L107.059 359.111 L109.088 359.111 Q108.895 361.43 108.895 368.87 Q108.895 376.245 109.088 378.564 L107.059 378.564 L107.059 376.986 Q107.059 373.411 106.48 372.606 Q105.868 371.768 103.935 371.768 L86.6729 371.768 L86.6729 391.478 L103.935 391.478 Q105.835 391.478 106.447 390.673 Q107.059 389.836 107.059 386.261 L107.059 384.683 L109.088 384.683 Q108.895 387.002 108.895 394.441 Q108.895 401.816 109.088 404.135 Z" fill="#000000" fill-rule="nonzero" fill-opacity="1" /><path clip-path="url(#clip480)" d="M108.154 351.179 Q107.703 351.179 106.963 350.567 L82.0997 332.178 L82.0997 339.682 Q82.0997 344.899 84.032 346.606 Q85.9322 348.281 91.2783 348.603 L91.2783 350.245 L80.6504 349.504 L80.6504 328.41 Q80.6504 327.669 80.6826 327.379 Q80.7148 327.089 80.9403 326.896 Q81.1335 326.703 81.52 326.703 Q81.9064 326.703 82.6472 327.282 L107.446 345.64 L107.446 337.846 Q107.446 332.371 105.159 330.535 Q102.872 328.667 96.7533 328.216 L96.7533 326.574 L109.088 327.701 L109.088 349.44 Q109.088 350.503 108.959 350.857 Q108.798 351.179 108.154 351.179 Z" fill="#000000" fill-rule="nonzero" fill-opacity="1" /><path clip-path="url(#clip482)" d="M265.065 438.661 L265.065 326.167 L274.767 326.167 L274.767 438.661 L265.065 438.661 L265.065 438.661  Z" fill="#7a3193" fill-rule="evenodd" fill-opacity="1"/>
<polyline clip-path="url(#clip482)" style="stroke:#000000; stroke-linecap:round; stroke-linejoin:round; stroke-width:0; stroke-opacity:1; fill:none" points="265.065,438.661 265.065,326.167 274.767,326.167 274.767,438.661 265.065,438.661 "/>
<path clip-path="url(#clip482)" d="M301.446 439.222 L301.446 326.167 L311.148 326.167 L311.148 439.222 L301.446 439.222 L301.446 439.222  Z" fill="#7a3193" fill-rule="evenodd" fill-opacity="1"/>
<polyline clip-path="url(#clip482)" style="stroke:#000000; stroke-linecap:round; stroke-linejoin:round; stroke-width:0; stroke-opacity:1; fill:none" points="301.446,439.222 301.446,326.167 311.148,326.167 311.148,439.222 301.446,439.222 "/>
<path clip-path="url(#clip482)" d="M337.827 438.249 L337.827 326.167 L347.528 326.167 L347.528 438.249 L337.827 438.249 L337.827 438.249  Z" fill="#7a3193" fill-rule="evenodd" fill-opacity="1"/>
<polyline clip-path="url(#clip482)" style="stroke:#000000; stroke-linecap:round; stroke-linejoin:round; stroke-width:0; stroke-opacity:1; fill:none" points="337.827,438.249 337.827,326.167 347.528,326.167 347.528,438.249 337.827,438.249 "/>
<path clip-path="url(#clip482)" d="M374.208 439.846 L374.208 326.167 L383.909 326.167 L383.909 439.846 L374.208 439.846 L374.208 439.846  Z" fill="#7a3193" fill-rule="evenodd" fill-opacity="1"/>
<polyline clip-path="url(#clip482)" style="stroke:#000000; stroke-linecap:round; stroke-linejoin:round; stroke-width:0; stroke-opacity:1; fill:none" points="374.208,439.846 374.208,326.167 383.909,326.167 383.909,439.846 374.208,439.846 "/>
<path clip-path="url(#clip482)" d="M410.588 439.133 L410.588 326.167 L420.29 326.167 L420.29 439.133 L410.588 439.133 L410.588 439.133  Z" fill="#7a3193" fill-rule="evenodd" fill-opacity="1"/>
<polyline clip-path="url(#clip482)" style="stroke:#000000; stroke-linecap:round; stroke-linejoin:round; stroke-width:0; stroke-opacity:1; fill:none" points="410.588,439.133 410.588,326.167 420.29,326.167 420.29,439.133 410.588,439.133 "/>
<path clip-path="url(#clip482)" d="M446.969 430.462 L446.969 326.167 L456.671 326.167 L456.671 430.462 L446.969 430.462 L446.969 430.462  Z" fill="#7a3193" fill-rule="evenodd" fill-opacity="1"/>
<polyline clip-path="url(#clip482)" style="stroke:#000000; stroke-linecap:round; stroke-linejoin:round; stroke-width:0; stroke-opacity:1; fill:none" points="446.969,430.462 446.969,326.167 456.671,326.167 456.671,430.462 446.969,430.462 "/>
<path clip-path="url(#clip482)" d="M483.35 429.99 L483.35 326.167 L493.051 326.167 L493.051 429.99 L483.35 429.99 L483.35 429.99  Z" fill="#7a3193" fill-rule="evenodd" fill-opacity="1"/>
<polyline clip-path="url(#clip482)" style="stroke:#000000; stroke-linecap:round; stroke-linejoin:round; stroke-width:0; stroke-opacity:1; fill:none" points="483.35,429.99 483.35,326.167 493.051,326.167 493.051,429.99 483.35,429.99 "/>
<path clip-path="url(#clip482)" d="M519.731 415.369 L519.731 326.167 L529.432 326.167 L529.432 415.369 L519.731 415.369 L519.731 415.369  Z" fill="#7a3193" fill-rule="evenodd" fill-opacity="1"/>
<polyline clip-path="url(#clip482)" style="stroke:#000000; stroke-linecap:round; stroke-linejoin:round; stroke-width:0; stroke-opacity:1; fill:none" points="519.731,415.369 519.731,326.167 529.432,326.167 529.432,415.369 519.731,415.369 "/>
<path clip-path="url(#clip482)" d="M556.111 431.825 L556.111 326.167 L565.813 326.167 L565.813 431.825 L556.111 431.825 L556.111 431.825  Z" fill="#7a3193" fill-rule="evenodd" fill-opacity="1"/>
<polyline clip-path="url(#clip482)" style="stroke:#000000; stroke-linecap:round; stroke-linejoin:round; stroke-width:0; stroke-opacity:1; fill:none" points="556.111,431.825 556.111,326.167 565.813,326.167 565.813,431.825 556.111,431.825 "/>
<path clip-path="url(#clip482)" d="M592.492 430.434 L592.492 326.167 L602.194 326.167 L602.194 430.434 L592.492 430.434 L592.492 430.434  Z" fill="#7a3193" fill-rule="evenodd" fill-opacity="1"/>
<polyline clip-path="url(#clip482)" style="stroke:#000000; stroke-linecap:round; stroke-linejoin:round; stroke-width:0; stroke-opacity:1; fill:none" points="592.492,430.434 592.492,326.167 602.194,326.167 602.194,430.434 592.492,430.434 "/>
<path clip-path="url(#clip482)" d="M628.873 429.859 L628.873 326.167 L638.574 326.167 L638.574 429.859 L628.873 429.859 L628.873 429.859  Z" fill="#7a3193" fill-rule="evenodd" fill-opacity="1"/>
<polyline clip-path="url(#clip482)" style="stroke:#000000; stroke-linecap:round; stroke-linejoin:round; stroke-width:0; stroke-opacity:1; fill:none" points="628.873,429.859 628.873,326.167 638.574,326.167 638.574,429.859 628.873,429.859 "/>
<path clip-path="url(#clip482)" d="M665.254 430.334 L665.254 326.167 L674.955 326.167 L674.955 430.334 L665.254 430.334 L665.254 430.334  Z" fill="#7a3193" fill-rule="evenodd" fill-opacity="1"/>
<polyline clip-path="url(#clip482)" style="stroke:#000000; stroke-linecap:round; stroke-linejoin:round; stroke-width:0; stroke-opacity:1; fill:none" points="665.254,430.334 665.254,326.167 674.955,326.167 674.955,430.334 665.254,430.334 "/>
<path clip-path="url(#clip482)" d="M701.634 429.852 L701.634 326.167 L711.336 326.167 L711.336 429.852 L701.634 429.852 L701.634 429.852  Z" fill="#7a3193" fill-rule="evenodd" fill-opacity="1"/>
<polyline clip-path="url(#clip482)" style="stroke:#000000; stroke-linecap:round; stroke-linejoin:round; stroke-width:0; stroke-opacity:1; fill:none" points="701.634,429.852 701.634,326.167 711.336,326.167 711.336,429.852 701.634,429.852 "/>
<path clip-path="url(#clip482)" d="M738.015 430.099 L738.015 326.167 L747.717 326.167 L747.717 430.099 L738.015 430.099 L738.015 430.099  Z" fill="#7a3193" fill-rule="evenodd" fill-opacity="1"/>
<polyline clip-path="url(#clip482)" style="stroke:#000000; stroke-linecap:round; stroke-linejoin:round; stroke-width:0; stroke-opacity:1; fill:none" points="738.015,430.099 738.015,326.167 747.717,326.167 747.717,430.099 738.015,430.099 "/>
<path clip-path="url(#clip482)" d="M774.396 430.503 L774.396 326.167 L784.097 326.167 L784.097 430.503 L774.396 430.503 L774.396 430.503  Z" fill="#7a3193" fill-rule="evenodd" fill-opacity="1"/>
<polyline clip-path="url(#clip482)" style="stroke:#000000; stroke-linecap:round; stroke-linejoin:round; stroke-width:0; stroke-opacity:1; fill:none" points="774.396,430.503 774.396,326.167 784.097,326.167 784.097,430.503 774.396,430.503 "/>
<path clip-path="url(#clip482)" d="M810.777 429.408 L810.777 326.167 L820.478 326.167 L820.478 429.408 L810.777 429.408 L810.777 429.408  Z" fill="#7a3193" fill-rule="evenodd" fill-opacity="1"/>
<polyline clip-path="url(#clip482)" style="stroke:#000000; stroke-linecap:round; stroke-linejoin:round; stroke-width:0; stroke-opacity:1; fill:none" points="810.777,429.408 810.777,326.167 820.478,326.167 820.478,429.408 810.777,429.408 "/>
<path clip-path="url(#clip482)" d="M847.157 429.964 L847.157 326.167 L856.859 326.167 L856.859 429.964 L847.157 429.964 L847.157 429.964  Z" fill="#7a3193" fill-rule="evenodd" fill-opacity="1"/>
<polyline clip-path="url(#clip482)" style="stroke:#000000; stroke-linecap:round; stroke-linejoin:round; stroke-width:0; stroke-opacity:1; fill:none" points="847.157,429.964 847.157,326.167 856.859,326.167 856.859,429.964 847.157,429.964 "/>
<path clip-path="url(#clip482)" d="M883.538 429.846 L883.538 326.167 L893.24 326.167 L893.24 429.846 L883.538 429.846 L883.538 429.846  Z" fill="#7a3193" fill-rule="evenodd" fill-opacity="1"/>
<polyline clip-path="url(#clip482)" style="stroke:#000000; stroke-linecap:round; stroke-linejoin:round; stroke-width:0; stroke-opacity:1; fill:none" points="883.538,429.846 883.538,326.167 893.24,326.167 893.24,429.846 883.538,429.846 "/>
<path clip-path="url(#clip482)" d="M919.919 417.816 L919.919 326.167 L929.621 326.167 L929.621 417.816 L919.919 417.816 L919.919 417.816  Z" fill="#7a3193" fill-rule="evenodd" fill-opacity="1"/>
<polyline clip-path="url(#clip482)" style="stroke:#000000; stroke-linecap:round; stroke-linejoin:round; stroke-width:0; stroke-opacity:1; fill:none" points="919.919,417.816 919.919,326.167 929.621,326.167 929.621,417.816 919.919,417.816 "/>
<path clip-path="url(#clip482)" d="M956.3 414.376 L956.3 326.167 L966.001 326.167 L966.001 414.376 L956.3 414.376 L956.3 414.376  Z" fill="#7a3193" fill-rule="evenodd" fill-opacity="1"/>
<polyline clip-path="url(#clip482)" style="stroke:#000000; stroke-linecap:round; stroke-linejoin:round; stroke-width:0; stroke-opacity:1; fill:none" points="956.3,414.376 956.3,326.167 966.001,326.167 966.001,414.376 956.3,414.376 "/>
<path clip-path="url(#clip482)" d="M992.681 412.029 L992.681 326.167 L1002.38 326.167 L1002.38 412.029 L992.681 412.029 L992.681 412.029  Z" fill="#7a3193" fill-rule="evenodd" fill-opacity="1"/>
<polyline clip-path="url(#clip482)" style="stroke:#000000; stroke-linecap:round; stroke-linejoin:round; stroke-width:0; stroke-opacity:1; fill:none" points="992.681,412.029 992.681,326.167 1002.38,326.167 1002.38,412.029 992.681,412.029 "/>
<path clip-path="url(#clip482)" d="M1029.06 412.9 L1029.06 326.167 L1038.76 326.167 L1038.76 412.9 L1029.06 412.9 L1029.06 412.9  Z" fill="#7a3193" fill-rule="evenodd" fill-opacity="1"/>
<polyline clip-path="url(#clip482)" style="stroke:#000000; stroke-linecap:round; stroke-linejoin:round; stroke-width:0; stroke-opacity:1; fill:none" points="1029.06,412.9 1029.06,326.167 1038.76,326.167 1038.76,412.9 1029.06,412.9 "/>
<path clip-path="url(#clip482)" d="M1065.44 413.549 L1065.44 326.167 L1075.14 326.167 L1075.14 413.549 L1065.44 413.549 L1065.44 413.549  Z" fill="#7a3193" fill-rule="evenodd" fill-opacity="1"/>
<polyline clip-path="url(#clip482)" style="stroke:#000000; stroke-linecap:round; stroke-linejoin:round; stroke-width:0; stroke-opacity:1; fill:none" points="1065.44,413.549 1065.44,326.167 1075.14,326.167 1075.14,413.549 1065.44,413.549 "/>
<path clip-path="url(#clip482)" d="M1101.82 418.169 L1101.82 326.167 L1111.52 326.167 L1111.52 418.169 L1101.82 418.169 L1101.82 418.169  Z" fill="#7a3193" fill-rule="evenodd" fill-opacity="1"/>
<polyline clip-path="url(#clip482)" style="stroke:#000000; stroke-linecap:round; stroke-linejoin:round; stroke-width:0; stroke-opacity:1; fill:none" points="1101.82,418.169 1101.82,326.167 1111.52,326.167 1111.52,418.169 1101.82,418.169 "/>
<circle clip-path="url(#clip482)" style="fill:#7a3193; stroke:none; fill-opacity:0" cx="269.916" cy="438.661" r="2"/>
<circle clip-path="url(#clip482)" style="fill:#7a3193; stroke:none; fill-opacity:0" cx="306.297" cy="439.222" r="2"/>
<circle clip-path="url(#clip482)" style="fill:#7a3193; stroke:none; fill-opacity:0" cx="342.678" cy="438.249" r="2"/>
<circle clip-path="url(#clip482)" style="fill:#7a3193; stroke:none; fill-opacity:0" cx="379.058" cy="439.846" r="2"/>
<circle clip-path="url(#clip482)" style="fill:#7a3193; stroke:none; fill-opacity:0" cx="415.439" cy="439.133" r="2"/>
<circle clip-path="url(#clip482)" style="fill:#7a3193; stroke:none; fill-opacity:0" cx="451.82" cy="430.462" r="2"/>
<circle clip-path="url(#clip482)" style="fill:#7a3193; stroke:none; fill-opacity:0" cx="488.201" cy="429.99" r="2"/>
<circle clip-path="url(#clip482)" style="fill:#7a3193; stroke:none; fill-opacity:0" cx="524.581" cy="415.369" r="2"/>
<circle clip-path="url(#clip482)" style="fill:#7a3193; stroke:none; fill-opacity:0" cx="560.962" cy="431.825" r="2"/>
<circle clip-path="url(#clip482)" style="fill:#7a3193; stroke:none; fill-opacity:0" cx="597.343" cy="430.434" r="2"/>
<circle clip-path="url(#clip482)" style="fill:#7a3193; stroke:none; fill-opacity:0" cx="633.724" cy="429.859" r="2"/>
<circle clip-path="url(#clip482)" style="fill:#7a3193; stroke:none; fill-opacity:0" cx="670.104" cy="430.334" r="2"/>
<circle clip-path="url(#clip482)" style="fill:#7a3193; stroke:none; fill-opacity:0" cx="706.485" cy="429.852" r="2"/>
<circle clip-path="url(#clip482)" style="fill:#7a3193; stroke:none; fill-opacity:0" cx="742.866" cy="430.099" r="2"/>
<circle clip-path="url(#clip482)" style="fill:#7a3193; stroke:none; fill-opacity:0" cx="779.247" cy="430.503" r="2"/>
<circle clip-path="url(#clip482)" style="fill:#7a3193; stroke:none; fill-opacity:0" cx="815.627" cy="429.408" r="2"/>
<circle clip-path="url(#clip482)" style="fill:#7a3193; stroke:none; fill-opacity:0" cx="852.008" cy="429.964" r="2"/>
<circle clip-path="url(#clip482)" style="fill:#7a3193; stroke:none; fill-opacity:0" cx="888.389" cy="429.846" r="2"/>
<circle clip-path="url(#clip482)" style="fill:#7a3193; stroke:none; fill-opacity:0" cx="924.77" cy="417.816" r="2"/>
<circle clip-path="url(#clip482)" style="fill:#7a3193; stroke:none; fill-opacity:0" cx="961.151" cy="414.376" r="2"/>
<circle clip-path="url(#clip482)" style="fill:#7a3193; stroke:none; fill-opacity:0" cx="997.531" cy="412.029" r="2"/>
<circle clip-path="url(#clip482)" style="fill:#7a3193; stroke:none; fill-opacity:0" cx="1033.91" cy="412.9" r="2"/>
<circle clip-path="url(#clip482)" style="fill:#7a3193; stroke:none; fill-opacity:0" cx="1070.29" cy="413.549" r="2"/>
<circle clip-path="url(#clip482)" style="fill:#7a3193; stroke:none; fill-opacity:0" cx="1106.67" cy="418.169" r="2"/>
<path clip-path="url(#clip482)" d="M274.767 676.842 L274.767 326.167 L284.468 326.167 L284.468 676.842 L274.767 676.842 L274.767 676.842  Z" fill="#c2a4cf" fill-rule="evenodd" fill-opacity="1"/>
<polyline clip-path="url(#clip482)" style="stroke:#000000; stroke-linecap:round; stroke-linejoin:round; stroke-width:0; stroke-opacity:1; fill:none" points="274.767,676.842 274.767,326.167 284.468,326.167 284.468,676.842 274.767,676.842 "/>
<path clip-path="url(#clip482)" d="M311.148 676.842 L311.148 326.167 L320.849 326.167 L320.849 676.842 L311.148 676.842 L311.148 676.842  Z" fill="#c2a4cf" fill-rule="evenodd" fill-opacity="1"/>
<polyline clip-path="url(#clip482)" style="stroke:#000000; stroke-linecap:round; stroke-linejoin:round; stroke-width:0; stroke-opacity:1; fill:none" points="311.148,676.842 311.148,326.167 320.849,326.167 320.849,676.842 311.148,676.842 "/>
<path clip-path="url(#clip482)" d="M347.528 679.959 L347.528 326.167 L357.23 326.167 L357.23 679.959 L347.528 679.959 L347.528 679.959  Z" fill="#c2a4cf" fill-rule="evenodd" fill-opacity="1"/>
<polyline clip-path="url(#clip482)" style="stroke:#000000; stroke-linecap:round; stroke-linejoin:round; stroke-width:0; stroke-opacity:1; fill:none" points="347.528,679.959 347.528,326.167 357.23,326.167 357.23,679.959 347.528,679.959 "/>
<path clip-path="url(#clip482)" d="M383.909 679.959 L383.909 326.167 L393.611 326.167 L393.611 679.959 L383.909 679.959 L383.909 679.959  Z" fill="#c2a4cf" fill-rule="evenodd" fill-opacity="1"/>
<polyline clip-path="url(#clip482)" style="stroke:#000000; stroke-linecap:round; stroke-linejoin:round; stroke-width:0; stroke-opacity:1; fill:none" points="383.909,679.959 383.909,326.167 393.611,326.167 393.611,679.959 383.909,679.959 "/>
<path clip-path="url(#clip482)" d="M420.29 679.959 L420.29 326.167 L429.991 326.167 L429.991 679.959 L420.29 679.959 L420.29 679.959  Z" fill="#c2a4cf" fill-rule="evenodd" fill-opacity="1"/>
<polyline clip-path="url(#clip482)" style="stroke:#000000; stroke-linecap:round; stroke-linejoin:round; stroke-width:0; stroke-opacity:1; fill:none" points="420.29,679.959 420.29,326.167 429.991,326.167 429.991,679.959 420.29,679.959 "/>
<path clip-path="url(#clip482)" d="M456.671 630.402 L456.671 326.167 L466.372 326.167 L466.372 630.402 L456.671 630.402 L456.671 630.402  Z" fill="#c2a4cf" fill-rule="evenodd" fill-opacity="1"/>
<polyline clip-path="url(#clip482)" style="stroke:#000000; stroke-linecap:round; stroke-linejoin:round; stroke-width:0; stroke-opacity:1; fill:none" points="456.671,630.402 456.671,326.167 466.372,326.167 466.372,630.402 456.671,630.402 "/>
<path clip-path="url(#clip482)" d="M493.051 630.402 L493.051 326.167 L502.753 326.167 L502.753 630.402 L493.051 630.402 L493.051 630.402  Z" fill="#c2a4cf" fill-rule="evenodd" fill-opacity="1"/>
<polyline clip-path="url(#clip482)" style="stroke:#000000; stroke-linecap:round; stroke-linejoin:round; stroke-width:0; stroke-opacity:1; fill:none" points="493.051,630.402 493.051,326.167 502.753,326.167 502.753,630.402 493.051,630.402 "/>
<path clip-path="url(#clip482)" d="M529.432 602.187 L529.432 326.167 L539.134 326.167 L539.134 602.187 L529.432 602.187 L529.432 602.187  Z" fill="#c2a4cf" fill-rule="evenodd" fill-opacity="1"/>
<polyline clip-path="url(#clip482)" style="stroke:#000000; stroke-linecap:round; stroke-linejoin:round; stroke-width:0; stroke-opacity:1; fill:none" points="529.432,602.187 529.432,326.167 539.134,326.167 539.134,602.187 529.432,602.187 "/>
<path clip-path="url(#clip482)" d="M565.813 714.667 L565.813 326.167 L575.514 326.167 L575.514 714.667 L565.813 714.667 L565.813 714.667  Z" fill="#c2a4cf" fill-rule="evenodd" fill-opacity="1"/>
<polyline clip-path="url(#clip482)" style="stroke:#000000; stroke-linecap:round; stroke-linejoin:round; stroke-width:0; stroke-opacity:1; fill:none" points="565.813,714.667 565.813,326.167 575.514,326.167 575.514,714.667 565.813,714.667 "/>
<path clip-path="url(#clip482)" d="M602.194 623.012 L602.194 326.167 L611.895 326.167 L611.895 623.012 L602.194 623.012 L602.194 623.012  Z" fill="#c2a4cf" fill-rule="evenodd" fill-opacity="1"/>
<polyline clip-path="url(#clip482)" style="stroke:#000000; stroke-linecap:round; stroke-linejoin:round; stroke-width:0; stroke-opacity:1; fill:none" points="602.194,623.012 602.194,326.167 611.895,326.167 611.895,623.012 602.194,623.012 "/>
<path clip-path="url(#clip482)" d="M638.574 623.012 L638.574 326.167 L648.276 326.167 L648.276 623.012 L638.574 623.012 L638.574 623.012  Z" fill="#c2a4cf" fill-rule="evenodd" fill-opacity="1"/>
<polyline clip-path="url(#clip482)" style="stroke:#000000; stroke-linecap:round; stroke-linejoin:round; stroke-width:0; stroke-opacity:1; fill:none" points="638.574,623.012 638.574,326.167 648.276,326.167 648.276,623.012 638.574,623.012 "/>
<path clip-path="url(#clip482)" d="M674.955 623.012 L674.955 326.167 L684.657 326.167 L684.657 623.012 L674.955 623.012 L674.955 623.012  Z" fill="#c2a4cf" fill-rule="evenodd" fill-opacity="1"/>
<polyline clip-path="url(#clip482)" style="stroke:#000000; stroke-linecap:round; stroke-linejoin:round; stroke-width:0; stroke-opacity:1; fill:none" points="674.955,623.012 674.955,326.167 684.657,326.167 684.657,623.012 674.955,623.012 "/>
<path clip-path="url(#clip482)" d="M711.336 623.012 L711.336 326.167 L721.037 326.167 L721.037 623.012 L711.336 623.012 L711.336 623.012  Z" fill="#c2a4cf" fill-rule="evenodd" fill-opacity="1"/>
<polyline clip-path="url(#clip482)" style="stroke:#000000; stroke-linecap:round; stroke-linejoin:round; stroke-width:0; stroke-opacity:1; fill:none" points="711.336,623.012 711.336,326.167 721.037,326.167 721.037,623.012 711.336,623.012 "/>
<path clip-path="url(#clip482)" d="M747.717 623.012 L747.717 326.167 L757.418 326.167 L757.418 623.012 L747.717 623.012 L747.717 623.012  Z" fill="#c2a4cf" fill-rule="evenodd" fill-opacity="1"/>
<polyline clip-path="url(#clip482)" style="stroke:#000000; stroke-linecap:round; stroke-linejoin:round; stroke-width:0; stroke-opacity:1; fill:none" points="747.717,623.012 747.717,326.167 757.418,326.167 757.418,623.012 747.717,623.012 "/>
<path clip-path="url(#clip482)" d="M784.097 623.012 L784.097 326.167 L793.799 326.167 L793.799 623.012 L784.097 623.012 L784.097 623.012  Z" fill="#c2a4cf" fill-rule="evenodd" fill-opacity="1"/>
<polyline clip-path="url(#clip482)" style="stroke:#000000; stroke-linecap:round; stroke-linejoin:round; stroke-width:0; stroke-opacity:1; fill:none" points="784.097,623.012 784.097,326.167 793.799,326.167 793.799,623.012 784.097,623.012 "/>
<path clip-path="url(#clip482)" d="M820.478 623.012 L820.478 326.167 L830.18 326.167 L830.18 623.012 L820.478 623.012 L820.478 623.012  Z" fill="#c2a4cf" fill-rule="evenodd" fill-opacity="1"/>
<polyline clip-path="url(#clip482)" style="stroke:#000000; stroke-linecap:round; stroke-linejoin:round; stroke-width:0; stroke-opacity:1; fill:none" points="820.478,623.012 820.478,326.167 830.18,326.167 830.18,623.012 820.478,623.012 "/>
<path clip-path="url(#clip482)" d="M856.859 623.012 L856.859 326.167 L866.561 326.167 L866.561 623.012 L856.859 623.012 L856.859 623.012  Z" fill="#c2a4cf" fill-rule="evenodd" fill-opacity="1"/>
<polyline clip-path="url(#clip482)" style="stroke:#000000; stroke-linecap:round; stroke-linejoin:round; stroke-width:0; stroke-opacity:1; fill:none" points="856.859,623.012 856.859,326.167 866.561,326.167 866.561,623.012 856.859,623.012 "/>
<path clip-path="url(#clip482)" d="M893.24 623.012 L893.24 326.167 L902.941 326.167 L902.941 623.012 L893.24 623.012 L893.24 623.012  Z" fill="#c2a4cf" fill-rule="evenodd" fill-opacity="1"/>
<polyline clip-path="url(#clip482)" style="stroke:#000000; stroke-linecap:round; stroke-linejoin:round; stroke-width:0; stroke-opacity:1; fill:none" points="893.24,623.012 893.24,326.167 902.941,326.167 902.941,623.012 893.24,623.012 "/>
<path clip-path="url(#clip482)" d="M929.621 623.012 L929.621 326.167 L939.322 326.167 L939.322 623.012 L929.621 623.012 L929.621 623.012  Z" fill="#c2a4cf" fill-rule="evenodd" fill-opacity="1"/>
<polyline clip-path="url(#clip482)" style="stroke:#000000; stroke-linecap:round; stroke-linejoin:round; stroke-width:0; stroke-opacity:1; fill:none" points="929.621,623.012 929.621,326.167 939.322,326.167 939.322,623.012 929.621,623.012 "/>
<path clip-path="url(#clip482)" d="M966.001 623.012 L966.001 326.167 L975.703 326.167 L975.703 623.012 L966.001 623.012 L966.001 623.012  Z" fill="#c2a4cf" fill-rule="evenodd" fill-opacity="1"/>
<polyline clip-path="url(#clip482)" style="stroke:#000000; stroke-linecap:round; stroke-linejoin:round; stroke-width:0; stroke-opacity:1; fill:none" points="966.001,623.012 966.001,326.167 975.703,326.167 975.703,623.012 966.001,623.012 "/>
<path clip-path="url(#clip482)" d="M1002.38 623.012 L1002.38 326.167 L1012.08 326.167 L1012.08 623.012 L1002.38 623.012 L1002.38 623.012  Z" fill="#c2a4cf" fill-rule="evenodd" fill-opacity="1"/>
<polyline clip-path="url(#clip482)" style="stroke:#000000; stroke-linecap:round; stroke-linejoin:round; stroke-width:0; stroke-opacity:1; fill:none" points="1002.38,623.012 1002.38,326.167 1012.08,326.167 1012.08,623.012 1002.38,623.012 "/>
<path clip-path="url(#clip482)" d="M1038.76 623.012 L1038.76 326.167 L1048.46 326.167 L1048.46 623.012 L1038.76 623.012 L1038.76 623.012  Z" fill="#c2a4cf" fill-rule="evenodd" fill-opacity="1"/>
<polyline clip-path="url(#clip482)" style="stroke:#000000; stroke-linecap:round; stroke-linejoin:round; stroke-width:0; stroke-opacity:1; fill:none" points="1038.76,623.012 1038.76,326.167 1048.46,326.167 1048.46,623.012 1038.76,623.012 "/>
<path clip-path="url(#clip482)" d="M1075.14 623.012 L1075.14 326.167 L1084.85 326.167 L1084.85 623.012 L1075.14 623.012 L1075.14 623.012  Z" fill="#c2a4cf" fill-rule="evenodd" fill-opacity="1"/>
<polyline clip-path="url(#clip482)" style="stroke:#000000; stroke-linecap:round; stroke-linejoin:round; stroke-width:0; stroke-opacity:1; fill:none" points="1075.14,623.012 1075.14,326.167 1084.85,326.167 1084.85,623.012 1075.14,623.012 "/>
<path clip-path="url(#clip482)" d="M1111.52 666.259 L1111.52 326.167 L1121.23 326.167 L1121.23 666.259 L1111.52 666.259 L1111.52 666.259  Z" fill="#c2a4cf" fill-rule="evenodd" fill-opacity="1"/>
<polyline clip-path="url(#clip482)" style="stroke:#000000; stroke-linecap:round; stroke-linejoin:round; stroke-width:0; stroke-opacity:1; fill:none" points="1111.52,666.259 1111.52,326.167 1121.23,326.167 1121.23,666.259 1111.52,666.259 "/>
<circle clip-path="url(#clip482)" style="fill:#c2a4cf; stroke:none; fill-opacity:0" cx="279.618" cy="676.842" r="2"/>
<circle clip-path="url(#clip482)" style="fill:#c2a4cf; stroke:none; fill-opacity:0" cx="315.998" cy="676.842" r="2"/>
<circle clip-path="url(#clip482)" style="fill:#c2a4cf; stroke:none; fill-opacity:0" cx="352.379" cy="679.959" r="2"/>
<circle clip-path="url(#clip482)" style="fill:#c2a4cf; stroke:none; fill-opacity:0" cx="388.76" cy="679.959" r="2"/>
<circle clip-path="url(#clip482)" style="fill:#c2a4cf; stroke:none; fill-opacity:0" cx="425.141" cy="679.959" r="2"/>
<circle clip-path="url(#clip482)" style="fill:#c2a4cf; stroke:none; fill-opacity:0" cx="461.521" cy="630.402" r="2"/>
<circle clip-path="url(#clip482)" style="fill:#c2a4cf; stroke:none; fill-opacity:0" cx="497.902" cy="630.402" r="2"/>
<circle clip-path="url(#clip482)" style="fill:#c2a4cf; stroke:none; fill-opacity:0" cx="534.283" cy="602.187" r="2"/>
<circle clip-path="url(#clip482)" style="fill:#c2a4cf; stroke:none; fill-opacity:0" cx="570.664" cy="714.667" r="2"/>
<circle clip-path="url(#clip482)" style="fill:#c2a4cf; stroke:none; fill-opacity:0" cx="607.044" cy="623.012" r="2"/>
<circle clip-path="url(#clip482)" style="fill:#c2a4cf; stroke:none; fill-opacity:0" cx="643.425" cy="623.012" r="2"/>
<circle clip-path="url(#clip482)" style="fill:#c2a4cf; stroke:none; fill-opacity:0" cx="679.806" cy="623.012" r="2"/>
<circle clip-path="url(#clip482)" style="fill:#c2a4cf; stroke:none; fill-opacity:0" cx="716.187" cy="623.012" r="2"/>
<circle clip-path="url(#clip482)" style="fill:#c2a4cf; stroke:none; fill-opacity:0" cx="752.567" cy="623.012" r="2"/>
<circle clip-path="url(#clip482)" style="fill:#c2a4cf; stroke:none; fill-opacity:0" cx="788.948" cy="623.012" r="2"/>
<circle clip-path="url(#clip482)" style="fill:#c2a4cf; stroke:none; fill-opacity:0" cx="825.329" cy="623.012" r="2"/>
<circle clip-path="url(#clip482)" style="fill:#c2a4cf; stroke:none; fill-opacity:0" cx="861.71" cy="623.012" r="2"/>
<circle clip-path="url(#clip482)" style="fill:#c2a4cf; stroke:none; fill-opacity:0" cx="898.091" cy="623.012" r="2"/>
<circle clip-path="url(#clip482)" style="fill:#c2a4cf; stroke:none; fill-opacity:0" cx="934.471" cy="623.012" r="2"/>
<circle clip-path="url(#clip482)" style="fill:#c2a4cf; stroke:none; fill-opacity:0" cx="970.852" cy="623.012" r="2"/>
<circle clip-path="url(#clip482)" style="fill:#c2a4cf; stroke:none; fill-opacity:0" cx="1007.23" cy="623.012" r="2"/>
<circle clip-path="url(#clip482)" style="fill:#c2a4cf; stroke:none; fill-opacity:0" cx="1043.61" cy="623.012" r="2"/>
<circle clip-path="url(#clip482)" style="fill:#c2a4cf; stroke:none; fill-opacity:0" cx="1079.99" cy="623.012" r="2"/>
<circle clip-path="url(#clip482)" style="fill:#c2a4cf; stroke:none; fill-opacity:0" cx="1116.38" cy="666.259" r="2"/>
<path clip-path="url(#clip482)" d="M284.468 734.456 L284.468 326.167 L294.17 326.167 L294.17 734.456 L284.468 734.456 L284.468 734.456  Z" fill="#a6db9f" fill-rule="evenodd" fill-opacity="1"/>
<polyline clip-path="url(#clip482)" style="stroke:#000000; stroke-linecap:round; stroke-linejoin:round; stroke-width:0; stroke-opacity:1; fill:none" points="284.468,734.456 284.468,326.167 294.17,326.167 294.17,734.456 284.468,734.456 "/>
<path clip-path="url(#clip482)" d="M320.849 804.321 L320.849 326.167 L330.551 326.167 L330.551 804.321 L320.849 804.321 L320.849 804.321  Z" fill="#a6db9f" fill-rule="evenodd" fill-opacity="1"/>
<polyline clip-path="url(#clip482)" style="stroke:#000000; stroke-linecap:round; stroke-linejoin:round; stroke-width:0; stroke-opacity:1; fill:none" points="320.849,804.321 320.849,326.167 330.551,326.167 330.551,804.321 320.849,804.321 "/>
<path clip-path="url(#clip482)" d="M357.23 914.6 L357.23 326.167 L366.931 326.167 L366.931 914.6 L357.23 914.6 L357.23 914.6  Z" fill="#a6db9f" fill-rule="evenodd" fill-opacity="1"/>
<polyline clip-path="url(#clip482)" style="stroke:#000000; stroke-linecap:round; stroke-linejoin:round; stroke-width:0; stroke-opacity:1; fill:none" points="357.23,914.6 357.23,326.167 366.931,326.167 366.931,914.6 357.23,914.6 "/>
<path clip-path="url(#clip482)" d="M393.611 914.6 L393.611 326.167 L403.312 326.167 L403.312 914.6 L393.611 914.6 L393.611 914.6  Z" fill="#a6db9f" fill-rule="evenodd" fill-opacity="1"/>
<polyline clip-path="url(#clip482)" style="stroke:#000000; stroke-linecap:round; stroke-linejoin:round; stroke-width:0; stroke-opacity:1; fill:none" points="393.611,914.6 393.611,326.167 403.312,326.167 403.312,914.6 393.611,914.6 "/>
<path clip-path="url(#clip482)" d="M429.991 914.6 L429.991 326.167 L439.693 326.167 L439.693 914.6 L429.991 914.6 L429.991 914.6  Z" fill="#a6db9f" fill-rule="evenodd" fill-opacity="1"/>
<polyline clip-path="url(#clip482)" style="stroke:#000000; stroke-linecap:round; stroke-linejoin:round; stroke-width:0; stroke-opacity:1; fill:none" points="429.991,914.6 429.991,326.167 439.693,326.167 439.693,914.6 429.991,914.6 "/>
<path clip-path="url(#clip482)" d="M466.372 804.321 L466.372 326.167 L476.074 326.167 L476.074 804.321 L466.372 804.321 L466.372 804.321  Z" fill="#a6db9f" fill-rule="evenodd" fill-opacity="1"/>
<polyline clip-path="url(#clip482)" style="stroke:#000000; stroke-linecap:round; stroke-linejoin:round; stroke-width:0; stroke-opacity:1; fill:none" points="466.372,804.321 466.372,326.167 476.074,326.167 476.074,804.321 466.372,804.321 "/>
<path clip-path="url(#clip482)" d="M502.753 804.321 L502.753 326.167 L512.454 326.167 L512.454 804.321 L502.753 804.321 L502.753 804.321  Z" fill="#a6db9f" fill-rule="evenodd" fill-opacity="1"/>
<polyline clip-path="url(#clip482)" style="stroke:#000000; stroke-linecap:round; stroke-linejoin:round; stroke-width:0; stroke-opacity:1; fill:none" points="502.753,804.321 502.753,326.167 512.454,326.167 512.454,804.321 502.753,804.321 "/>
<path clip-path="url(#clip482)" d="M539.134 804.321 L539.134 326.167 L548.835 326.167 L548.835 804.321 L539.134 804.321 L539.134 804.321  Z" fill="#a6db9f" fill-rule="evenodd" fill-opacity="1"/>
<polyline clip-path="url(#clip482)" style="stroke:#000000; stroke-linecap:round; stroke-linejoin:round; stroke-width:0; stroke-opacity:1; fill:none" points="539.134,804.321 539.134,326.167 548.835,326.167 548.835,804.321 539.134,804.321 "/>
<path clip-path="url(#clip482)" d="M575.514 744.673 L575.514 326.167 L585.216 326.167 L585.216 744.673 L575.514 744.673 L575.514 744.673  Z" fill="#a6db9f" fill-rule="evenodd" fill-opacity="1"/>
<polyline clip-path="url(#clip482)" style="stroke:#000000; stroke-linecap:round; stroke-linejoin:round; stroke-width:0; stroke-opacity:1; fill:none" points="575.514,744.673 575.514,326.167 585.216,326.167 585.216,744.673 575.514,744.673 "/>
<path clip-path="url(#clip482)" d="M611.895 688.452 L611.895 326.167 L621.597 326.167 L621.597 688.452 L611.895 688.452 L611.895 688.452  Z" fill="#a6db9f" fill-rule="evenodd" fill-opacity="1"/>
<polyline clip-path="url(#clip482)" style="stroke:#000000; stroke-linecap:round; stroke-linejoin:round; stroke-width:0; stroke-opacity:1; fill:none" points="611.895,688.452 611.895,326.167 621.597,326.167 621.597,688.452 611.895,688.452 "/>
<path clip-path="url(#clip482)" d="M648.276 637.013 L648.276 326.167 L657.978 326.167 L657.978 637.013 L648.276 637.013 L648.276 637.013  Z" fill="#a6db9f" fill-rule="evenodd" fill-opacity="1"/>
<polyline clip-path="url(#clip482)" style="stroke:#000000; stroke-linecap:round; stroke-linejoin:round; stroke-width:0; stroke-opacity:1; fill:none" points="648.276,637.013 648.276,326.167 657.978,326.167 657.978,637.013 648.276,637.013 "/>
<path clip-path="url(#clip482)" d="M684.657 637.013 L684.657 326.167 L694.358 326.167 L694.358 637.013 L684.657 637.013 L684.657 637.013  Z" fill="#a6db9f" fill-rule="evenodd" fill-opacity="1"/>
<polyline clip-path="url(#clip482)" style="stroke:#000000; stroke-linecap:round; stroke-linejoin:round; stroke-width:0; stroke-opacity:1; fill:none" points="684.657,637.013 684.657,326.167 694.358,326.167 694.358,637.013 684.657,637.013 "/>
<path clip-path="url(#clip482)" d="M721.037 637.013 L721.037 326.167 L730.739 326.167 L730.739 637.013 L721.037 637.013 L721.037 637.013  Z" fill="#a6db9f" fill-rule="evenodd" fill-opacity="1"/>
<polyline clip-path="url(#clip482)" style="stroke:#000000; stroke-linecap:round; stroke-linejoin:round; stroke-width:0; stroke-opacity:1; fill:none" points="721.037,637.013 721.037,326.167 730.739,326.167 730.739,637.013 721.037,637.013 "/>
<path clip-path="url(#clip482)" d="M757.418 637.013 L757.418 326.167 L767.12 326.167 L767.12 637.013 L757.418 637.013 L757.418 637.013  Z" fill="#a6db9f" fill-rule="evenodd" fill-opacity="1"/>
<polyline clip-path="url(#clip482)" style="stroke:#000000; stroke-linecap:round; stroke-linejoin:round; stroke-width:0; stroke-opacity:1; fill:none" points="757.418,637.013 757.418,326.167 767.12,326.167 767.12,637.013 757.418,637.013 "/>
<path clip-path="url(#clip482)" d="M793.799 637.013 L793.799 326.167 L803.501 326.167 L803.501 637.013 L793.799 637.013 L793.799 637.013  Z" fill="#a6db9f" fill-rule="evenodd" fill-opacity="1"/>
<polyline clip-path="url(#clip482)" style="stroke:#000000; stroke-linecap:round; stroke-linejoin:round; stroke-width:0; stroke-opacity:1; fill:none" points="793.799,637.013 793.799,326.167 803.501,326.167 803.501,637.013 793.799,637.013 "/>
<path clip-path="url(#clip482)" d="M830.18 624.625 L830.18 326.167 L839.881 326.167 L839.881 624.625 L830.18 624.625 L830.18 624.625  Z" fill="#a6db9f" fill-rule="evenodd" fill-opacity="1"/>
<polyline clip-path="url(#clip482)" style="stroke:#000000; stroke-linecap:round; stroke-linejoin:round; stroke-width:0; stroke-opacity:1; fill:none" points="830.18,624.625 830.18,326.167 839.881,326.167 839.881,624.625 830.18,624.625 "/>
<path clip-path="url(#clip482)" d="M866.561 624.625 L866.561 326.167 L876.262 326.167 L876.262 624.625 L866.561 624.625 L866.561 624.625  Z" fill="#a6db9f" fill-rule="evenodd" fill-opacity="1"/>
<polyline clip-path="url(#clip482)" style="stroke:#000000; stroke-linecap:round; stroke-linejoin:round; stroke-width:0; stroke-opacity:1; fill:none" points="866.561,624.625 866.561,326.167 876.262,326.167 876.262,624.625 866.561,624.625 "/>
<path clip-path="url(#clip482)" d="M902.941 624.625 L902.941 326.167 L912.643 326.167 L912.643 624.625 L902.941 624.625 L902.941 624.625  Z" fill="#a6db9f" fill-rule="evenodd" fill-opacity="1"/>
<polyline clip-path="url(#clip482)" style="stroke:#000000; stroke-linecap:round; stroke-linejoin:round; stroke-width:0; stroke-opacity:1; fill:none" points="902.941,624.625 902.941,326.167 912.643,326.167 912.643,624.625 902.941,624.625 "/>
<path clip-path="url(#clip482)" d="M939.322 624.625 L939.322 326.167 L949.024 326.167 L949.024 624.625 L939.322 624.625 L939.322 624.625  Z" fill="#a6db9f" fill-rule="evenodd" fill-opacity="1"/>
<polyline clip-path="url(#clip482)" style="stroke:#000000; stroke-linecap:round; stroke-linejoin:round; stroke-width:0; stroke-opacity:1; fill:none" points="939.322,624.625 939.322,326.167 949.024,326.167 949.024,624.625 939.322,624.625 "/>
<path clip-path="url(#clip482)" d="M975.703 624.625 L975.703 326.167 L985.404 326.167 L985.404 624.625 L975.703 624.625 L975.703 624.625  Z" fill="#a6db9f" fill-rule="evenodd" fill-opacity="1"/>
<polyline clip-path="url(#clip482)" style="stroke:#000000; stroke-linecap:round; stroke-linejoin:round; stroke-width:0; stroke-opacity:1; fill:none" points="975.703,624.625 975.703,326.167 985.404,326.167 985.404,624.625 975.703,624.625 "/>
<path clip-path="url(#clip482)" d="M1012.08 624.625 L1012.08 326.167 L1021.79 326.167 L1021.79 624.625 L1012.08 624.625 L1012.08 624.625  Z" fill="#a6db9f" fill-rule="evenodd" fill-opacity="1"/>
<polyline clip-path="url(#clip482)" style="stroke:#000000; stroke-linecap:round; stroke-linejoin:round; stroke-width:0; stroke-opacity:1; fill:none" points="1012.08,624.625 1012.08,326.167 1021.79,326.167 1021.79,624.625 1012.08,624.625 "/>
<path clip-path="url(#clip482)" d="M1048.46 624.625 L1048.46 326.167 L1058.17 326.167 L1058.17 624.625 L1048.46 624.625 L1048.46 624.625  Z" fill="#a6db9f" fill-rule="evenodd" fill-opacity="1"/>
<polyline clip-path="url(#clip482)" style="stroke:#000000; stroke-linecap:round; stroke-linejoin:round; stroke-width:0; stroke-opacity:1; fill:none" points="1048.46,624.625 1048.46,326.167 1058.17,326.167 1058.17,624.625 1048.46,624.625 "/>
<path clip-path="url(#clip482)" d="M1084.85 624.625 L1084.85 326.167 L1094.55 326.167 L1094.55 624.625 L1084.85 624.625 L1084.85 624.625  Z" fill="#a6db9f" fill-rule="evenodd" fill-opacity="1"/>
<polyline clip-path="url(#clip482)" style="stroke:#000000; stroke-linecap:round; stroke-linejoin:round; stroke-width:0; stroke-opacity:1; fill:none" points="1084.85,624.625 1084.85,326.167 1094.55,326.167 1094.55,624.625 1084.85,624.625 "/>
<path clip-path="url(#clip482)" d="M1121.23 624.625 L1121.23 326.167 L1130.93 326.167 L1130.93 624.625 L1121.23 624.625 L1121.23 624.625  Z" fill="#a6db9f" fill-rule="evenodd" fill-opacity="1"/>
<polyline clip-path="url(#clip482)" style="stroke:#000000; stroke-linecap:round; stroke-linejoin:round; stroke-width:0; stroke-opacity:1; fill:none" points="1121.23,624.625 1121.23,326.167 1130.93,326.167 1130.93,624.625 1121.23,624.625 "/>
<circle clip-path="url(#clip482)" style="fill:#a6db9f; stroke:none; fill-opacity:0" cx="289.319" cy="734.456" r="2"/>
<circle clip-path="url(#clip482)" style="fill:#a6db9f; stroke:none; fill-opacity:0" cx="325.7" cy="804.321" r="2"/>
<circle clip-path="url(#clip482)" style="fill:#a6db9f; stroke:none; fill-opacity:0" cx="471.223" cy="804.321" r="2"/>
<circle clip-path="url(#clip482)" style="fill:#a6db9f; stroke:none; fill-opacity:0" cx="507.604" cy="804.321" r="2"/>
<circle clip-path="url(#clip482)" style="fill:#a6db9f; stroke:none; fill-opacity:0" cx="543.984" cy="804.321" r="2"/>
<circle clip-path="url(#clip482)" style="fill:#a6db9f; stroke:none; fill-opacity:0" cx="580.365" cy="744.673" r="2"/>
<circle clip-path="url(#clip482)" style="fill:#a6db9f; stroke:none; fill-opacity:0" cx="616.746" cy="688.452" r="2"/>
<circle clip-path="url(#clip482)" style="fill:#a6db9f; stroke:none; fill-opacity:0" cx="653.127" cy="637.013" r="2"/>
<circle clip-path="url(#clip482)" style="fill:#a6db9f; stroke:none; fill-opacity:0" cx="689.508" cy="637.013" r="2"/>
<circle clip-path="url(#clip482)" style="fill:#a6db9f; stroke:none; fill-opacity:0" cx="725.888" cy="637.013" r="2"/>
<circle clip-path="url(#clip482)" style="fill:#a6db9f; stroke:none; fill-opacity:0" cx="762.269" cy="637.013" r="2"/>
<circle clip-path="url(#clip482)" style="fill:#a6db9f; stroke:none; fill-opacity:0" cx="798.65" cy="637.013" r="2"/>
<circle clip-path="url(#clip482)" style="fill:#a6db9f; stroke:none; fill-opacity:0" cx="835.031" cy="624.625" r="2"/>
<circle clip-path="url(#clip482)" style="fill:#a6db9f; stroke:none; fill-opacity:0" cx="871.411" cy="624.625" r="2"/>
<circle clip-path="url(#clip482)" style="fill:#a6db9f; stroke:none; fill-opacity:0" cx="907.792" cy="624.625" r="2"/>
<circle clip-path="url(#clip482)" style="fill:#a6db9f; stroke:none; fill-opacity:0" cx="944.173" cy="624.625" r="2"/>
<circle clip-path="url(#clip482)" style="fill:#a6db9f; stroke:none; fill-opacity:0" cx="980.554" cy="624.625" r="2"/>
<circle clip-path="url(#clip482)" style="fill:#a6db9f; stroke:none; fill-opacity:0" cx="1016.93" cy="624.625" r="2"/>
<circle clip-path="url(#clip482)" style="fill:#a6db9f; stroke:none; fill-opacity:0" cx="1053.32" cy="624.625" r="2"/>
<circle clip-path="url(#clip482)" style="fill:#a6db9f; stroke:none; fill-opacity:0" cx="1089.7" cy="624.625" r="2"/>
<circle clip-path="url(#clip482)" style="fill:#a6db9f; stroke:none; fill-opacity:0" cx="1126.08" cy="624.625" r="2"/>
<path clip-path="url(#clip480)" d="M819.981 294.462 L1122.44 294.462 L1122.44 76.115 L819.981 76.115  Z" fill="#ffffff" fill-rule="evenodd" fill-opacity="1"/>
<polyline clip-path="url(#clip480)" style="stroke:#000000; stroke-linecap:round; stroke-linejoin:round; stroke-width:4; stroke-opacity:1; fill:none" points="819.981,294.462 1122.44,294.462 1122.44,76.115 819.981,76.115 819.981,294.462 "/>
<path clip-path="url(#clip480)" d="M830.087 152.537 L890.722 152.537 L890.722 108.867 L830.087 108.867 L830.087 152.537  Z" fill="#7a3193" fill-rule="evenodd" fill-opacity="1"/>
<polyline clip-path="url(#clip480)" style="stroke:#000000; stroke-linecap:round; stroke-linejoin:round; stroke-width:0.8; stroke-opacity:1; fill:none" points="830.087,152.537 890.722,152.537 890.722,108.867 830.087,108.867 830.087,152.537 "/>
<g clip-path="url(#clip480)">
<text style="fill:#000000; fill-opacity:1; font-family:Book Antiqua,Palatino,Palatino Linotype,Palatino LT STD,Georgia,serif; font-size:50px; text-anchor:start;" transform="rotate(0, 900.828, 148.202)" x="900.828" y="148.202">CCFDUC</text>
</g>
<path clip-path="url(#clip480)" d="M830.087 207.123 L890.722 207.123 L890.722 163.454 L830.087 163.454 L830.087 207.123  Z" fill="#c2a4cf" fill-rule="evenodd" fill-opacity="1"/>
<polyline clip-path="url(#clip480)" style="stroke:#000000; stroke-linecap:round; stroke-linejoin:round; stroke-width:0.8; stroke-opacity:1; fill:none" points="830.087,207.123 890.722,207.123 890.722,163.454 830.087,163.454 830.087,207.123 "/>
<g clip-path="url(#clip480)">
<text style="fill:#000000; fill-opacity:1; font-family:Book Antiqua,Palatino,Palatino Linotype,Palatino LT STD,Georgia,serif; font-size:50px; text-anchor:start;" transform="rotate(0, 900.828, 202.789)" x="900.828" y="202.789">FDUC</text>
</g>
<path clip-path="url(#clip480)" d="M830.087 261.71 L890.722 261.71 L890.722 218.041 L830.087 218.041 L830.087 261.71  Z" fill="#a6db9f" fill-rule="evenodd" fill-opacity="1"/>
<polyline clip-path="url(#clip480)" style="stroke:#000000; stroke-linecap:round; stroke-linejoin:round; stroke-width:0.8; stroke-opacity:1; fill:none" points="830.087,261.71 890.722,261.71 890.722,218.041 830.087,218.041 830.087,261.71 "/>
<g clip-path="url(#clip480)">
<text style="fill:#000000; fill-opacity:1; font-family:Book Antiqua,Palatino,Palatino Linotype,Palatino LT STD,Georgia,serif; font-size:50px; text-anchor:start;" transform="rotate(0, 900.828, 257.375)" x="900.828" y="257.375">TUC</text>
</g>
</svg>
