<?xml version="1.0" encoding="utf-8"?>
<svg xmlns="http://www.w3.org/2000/svg" xmlns:xlink="http://www.w3.org/1999/xlink" width="300" height="280" viewBox="0 0 1200 1120">
<defs>
  <clipPath id="clip590">
    <rect x="0" y="0" width="1200" height="1120"/>
  </clipPath>
</defs>
<path clip-path="url(#clip590)" d="M0 1120 L1200 1120 L1200 0 L0 0  Z" fill="#ffffff" fill-rule="evenodd" fill-opacity="1"/>
<defs>
  <clipPath id="clip591">
    <rect x="240" y="40" width="841" height="841"/>
  </clipPath>
</defs>
<path clip-path="url(#clip590)" d="M246.079 913.372 L1152.76 913.372 L1152.76 47.2441 L246.079 47.2441  Z" fill="#ffffff" fill-rule="evenodd" fill-opacity="1"/>
<defs>
  <clipPath id="clip592">
    <rect x="246" y="47" width="908" height="867"/>
  </clipPath>
</defs>
<polyline clip-path="url(#clip592)" style="stroke:#808080; stroke-linecap:round; stroke-linejoin:round; stroke-width:4; stroke-opacity:0.1; fill:none" points="234.55,913.372 234.55,47.2441 "/>
<polyline clip-path="url(#clip592)" style="stroke:#808080; stroke-linecap:round; stroke-linejoin:round; stroke-width:4; stroke-opacity:0.1; fill:none" points="420.497,913.372 420.497,47.2441 "/>
<polyline clip-path="url(#clip592)" style="stroke:#808080; stroke-linecap:round; stroke-linejoin:round; stroke-width:4; stroke-opacity:0.1; fill:none" points="606.444,913.372 606.444,47.2441 "/>
<polyline clip-path="url(#clip592)" style="stroke:#808080; stroke-linecap:round; stroke-linejoin:round; stroke-width:4; stroke-opacity:0.1; fill:none" points="792.391,913.372 792.391,47.2441 "/>
<polyline clip-path="url(#clip592)" style="stroke:#808080; stroke-linecap:round; stroke-linejoin:round; stroke-width:4; stroke-opacity:0.1; fill:none" points="978.338,913.372 978.338,47.2441 "/>
<polyline clip-path="url(#clip592)" style="stroke:#808080; stroke-linecap:round; stroke-linejoin:round; stroke-width:4; stroke-opacity:0.1; fill:none" points="1164.28,913.372 1164.28,47.2441 "/>
<polyline clip-path="url(#clip590)" style="stroke:#000000; stroke-linecap:round; stroke-linejoin:round; stroke-width:4; stroke-opacity:1; fill:none" points="246.079,913.372 1152.76,913.372 "/>
<polyline clip-path="url(#clip590)" style="stroke:#000000; stroke-linecap:round; stroke-linejoin:round; stroke-width:4; stroke-opacity:1; fill:none" points="246.079,47.2441 1152.76,47.2441 "/>
<polyline clip-path="url(#clip590)" style="stroke:#000000; stroke-linecap:round; stroke-linejoin:round; stroke-width:4; stroke-opacity:1; fill:none" points="234.55,913.372 234.55,894.474 "/>
<polyline clip-path="url(#clip590)" style="stroke:#000000; stroke-linecap:round; stroke-linejoin:round; stroke-width:4; stroke-opacity:1; fill:none" points="420.497,913.372 420.497,894.474 "/>
<polyline clip-path="url(#clip590)" style="stroke:#000000; stroke-linecap:round; stroke-linejoin:round; stroke-width:4; stroke-opacity:1; fill:none" points="606.444,913.372 606.444,894.474 "/>
<polyline clip-path="url(#clip590)" style="stroke:#000000; stroke-linecap:round; stroke-linejoin:round; stroke-width:4; stroke-opacity:1; fill:none" points="792.391,913.372 792.391,894.474 "/>
<polyline clip-path="url(#clip590)" style="stroke:#000000; stroke-linecap:round; stroke-linejoin:round; stroke-width:4; stroke-opacity:1; fill:none" points="978.338,913.372 978.338,894.474 "/>
<polyline clip-path="url(#clip590)" style="stroke:#000000; stroke-linecap:round; stroke-linejoin:round; stroke-width:4; stroke-opacity:1; fill:none" points="1164.28,913.372 1164.28,894.474 "/>
<g clip-path="url(#clip590)">
<text style="fill:#000000; fill-opacity:1; font-family:Book Antiqua,Palatino,Palatino Linotype,Palatino LT STD,Georgia,serif; font-size:51px; font-weight:bold; text-anchor:middle;" transform="rotate(0, 234.55, 967.343)" x="234.55" y="967.343">0</text>
</g>
<g clip-path="url(#clip590)">
<text style="fill:#000000; fill-opacity:1; font-family:Book Antiqua,Palatino,Palatino Linotype,Palatino LT STD,Georgia,serif; font-size:51px; font-weight:bold; text-anchor:middle;" transform="rotate(0, 420.497, 967.343)" x="420.497" y="967.343">5</text>
</g>
<g clip-path="url(#clip590)">
<text style="fill:#000000; fill-opacity:1; font-family:Book Antiqua,Palatino,Palatino Linotype,Palatino LT STD,Georgia,serif; font-size:51px; font-weight:bold; text-anchor:middle;" transform="rotate(0, 606.444, 967.343)" x="606.444" y="967.343">10</text>
</g>
<g clip-path="url(#clip590)">
<text style="fill:#000000; fill-opacity:1; font-family:Book Antiqua,Palatino,Palatino Linotype,Palatino LT STD,Georgia,serif; font-size:51px; font-weight:bold; text-anchor:middle;" transform="rotate(0, 792.391, 967.343)" x="792.391" y="967.343">15</text>
</g>
<g clip-path="url(#clip590)">
<text style="fill:#000000; fill-opacity:1; font-family:Book Antiqua,Palatino,Palatino Linotype,Palatino LT STD,Georgia,serif; font-size:51px; font-weight:bold; text-anchor:middle;" transform="rotate(0, 978.338, 967.343)" x="978.338" y="967.343">20</text>
</g>
<g clip-path="url(#clip590)">
<text style="fill:#000000; fill-opacity:1; font-family:Book Antiqua,Palatino,Palatino Linotype,Palatino LT STD,Georgia,serif; font-size:51px; font-weight:bold; text-anchor:middle;" transform="rotate(0, 1164.28, 967.343)" x="1164.28" y="967.343">25</text>
</g>
<path clip-path="url(#clip590)" d="M672.752 1002.26 Q672.752 1003.16 672.333 1003.39 Q671.915 1003.58 670.755 1003.58 L664.572 1003.58 L659.677 1023.03 Q659.29 1024.74 659.29 1026.19 Q659.29 1027.8 659.773 1028.51 Q660.288 1029.22 661.351 1029.22 Q663.445 1029.22 665.699 1027.32 Q667.986 1025.42 669.918 1020.78 Q670.176 1020.17 670.304 1020.04 Q670.465 1019.88 670.884 1019.88 Q671.689 1019.88 671.689 1020.52 Q671.689 1020.75 671.238 1021.78 Q670.82 1022.81 669.886 1024.32 Q668.984 1025.84 667.792 1027.25 Q666.633 1028.67 664.862 1029.7 Q663.09 1030.7 661.19 1030.7 Q658.517 1030.7 656.81 1028.99 Q655.136 1027.29 655.136 1024.61 Q655.136 1023.74 655.812 1020.97 Q656.488 1018.17 660.16 1003.58 L654.33 1003.58 Q653.525 1003.58 653.203 1003.55 Q652.913 1003.52 652.688 1003.36 Q652.495 1003.16 652.495 1002.78 Q652.495 1002.17 652.752 1001.91 Q653.01 1001.62 653.332 1001.59 Q653.686 1001.52 654.491 1001.52 L660.675 1001.52 L663.251 991.054 Q663.509 990.023 664.153 989.444 Q664.829 988.832 665.216 988.767 Q665.602 988.671 665.892 988.671 Q666.762 988.671 667.277 989.154 Q667.792 989.605 667.792 990.442 Q667.792 990.893 665.087 1001.52 L670.884 1001.52 Q671.625 1001.52 671.915 1001.55 Q672.237 1001.59 672.494 1001.75 Q672.752 1001.91 672.752 1002.26 Z" fill="#000000" fill-rule="nonzero" fill-opacity="1" /><path clip-path="url(#clip590)" d="M676.068 1045.51 Q676.068 1045.19 676.325 1044.48 L699.61 982.262 Q699.61 982.197 699.771 981.843 Q699.932 981.489 700.029 981.263 Q700.125 981.006 700.319 980.813 Q700.544 980.619 700.802 980.619 Q701.446 980.619 701.446 981.425 Q701.446 981.489 701.253 982.262 L677.903 1044.55 Q677.517 1045.68 677.259 1046 Q677.034 1046.32 676.647 1046.32 Q676.068 1046.32 676.068 1045.51 Z" fill="#000000" fill-rule="nonzero" fill-opacity="1" /><path clip-path="url(#clip590)" d="M741.099 1020.52 Q741.099 1020.78 740.809 1021.78 Q740.519 1022.78 739.81 1024.32 Q739.134 1025.87 738.2 1027.29 Q737.266 1028.67 735.72 1029.7 Q734.207 1030.7 732.467 1030.7 Q730.149 1030.7 728.603 1029.15 Q727.057 1027.61 727.057 1025.29 Q727.057 1024.97 727.089 1024.64 Q727.121 1024.32 727.153 1024.13 Q727.186 1023.9 727.282 1023.55 Q727.411 1023.16 727.443 1023 Q727.508 1022.84 727.669 1022.36 Q727.862 1021.84 727.926 1021.65 Q732.017 1011.21 732.017 1006.87 Q732.017 1002.26 728.442 1002.26 Q725.253 1002.26 722.097 1004.58 Q720.648 1005.74 719.263 1007.8 Q717.878 1009.86 717.62 1010.64 Q717.331 1012.31 716.912 1013.6 Q716.719 1014.5 715.785 1018.01 L714.335 1023.97 L713.079 1028.96 Q712.822 1029.67 712.113 1030.18 Q711.405 1030.7 710.632 1030.7 Q709.988 1030.7 709.344 1030.25 Q708.732 1029.83 708.732 1028.83 Q708.732 1028.32 708.989 1027.38 L718.554 989.379 L718.748 988.091 Q718.748 987.705 718.587 987.511 Q718.458 987.286 717.685 987.125 Q716.944 986.964 715.463 986.964 Q714.851 986.964 714.561 986.932 Q714.303 986.9 714.078 986.738 Q713.852 986.545 713.852 986.159 Q713.852 985.611 714.078 985.321 Q714.335 984.999 714.529 984.935 Q714.722 984.871 715.108 984.838 Q715.656 984.806 717.492 984.645 Q719.327 984.452 720.905 984.323 Q722.484 984.194 723.16 984.194 Q723.546 984.194 723.74 984.387 Q723.965 984.548 723.997 984.742 L724.029 984.903 L718.877 1005.87 Q722.967 1000.81 728.635 1000.81 Q732.306 1000.81 734.271 1002.71 Q736.235 1004.58 736.235 1007.87 Q736.235 1011.63 732.21 1022.36 Q731.018 1025.35 731.018 1027.06 Q731.018 1028.19 731.372 1028.7 Q731.759 1029.22 732.596 1029.22 Q733.884 1029.22 735.012 1028.48 Q736.171 1027.7 736.976 1026.45 Q737.781 1025.16 738.329 1023.87 Q738.909 1022.55 739.327 1021.07 Q739.585 1020.26 739.714 1020.07 Q739.875 1019.88 740.326 1019.88 Q741.099 1019.88 741.099 1020.52 Z" fill="#000000" fill-rule="nonzero" fill-opacity="1" /><polyline clip-path="url(#clip592)" style="stroke:#808080; stroke-linecap:round; stroke-linejoin:round; stroke-width:4; stroke-opacity:0.1; fill:none" points="246.079,820.572 1152.76,820.572 "/>
<polyline clip-path="url(#clip592)" style="stroke:#808080; stroke-linecap:round; stroke-linejoin:round; stroke-width:4; stroke-opacity:0.1; fill:none" points="246.079,665.907 1152.76,665.907 "/>
<polyline clip-path="url(#clip592)" style="stroke:#808080; stroke-linecap:round; stroke-linejoin:round; stroke-width:4; stroke-opacity:0.1; fill:none" points="246.079,511.241 1152.76,511.241 "/>
<polyline clip-path="url(#clip592)" style="stroke:#808080; stroke-linecap:round; stroke-linejoin:round; stroke-width:4; stroke-opacity:0.1; fill:none" points="246.079,356.575 1152.76,356.575 "/>
<polyline clip-path="url(#clip592)" style="stroke:#808080; stroke-linecap:round; stroke-linejoin:round; stroke-width:4; stroke-opacity:0.1; fill:none" points="246.079,201.91 1152.76,201.91 "/>
<polyline clip-path="url(#clip590)" style="stroke:#000000; stroke-linecap:round; stroke-linejoin:round; stroke-width:4; stroke-opacity:1; fill:none" points="246.079,913.372 246.079,47.2441 "/>
<polyline clip-path="url(#clip590)" style="stroke:#000000; stroke-linecap:round; stroke-linejoin:round; stroke-width:4; stroke-opacity:1; fill:none" points="1152.76,913.372 1152.76,47.2441 "/>
<polyline clip-path="url(#clip590)" style="stroke:#000000; stroke-linecap:round; stroke-linejoin:round; stroke-width:4; stroke-opacity:1; fill:none" points="246.079,820.572 264.976,820.572 "/>
<polyline clip-path="url(#clip590)" style="stroke:#000000; stroke-linecap:round; stroke-linejoin:round; stroke-width:4; stroke-opacity:1; fill:none" points="246.079,665.907 264.976,665.907 "/>
<polyline clip-path="url(#clip590)" style="stroke:#000000; stroke-linecap:round; stroke-linejoin:round; stroke-width:4; stroke-opacity:1; fill:none" points="246.079,511.241 264.976,511.241 "/>
<polyline clip-path="url(#clip590)" style="stroke:#000000; stroke-linecap:round; stroke-linejoin:round; stroke-width:4; stroke-opacity:1; fill:none" points="246.079,356.575 264.976,356.575 "/>
<polyline clip-path="url(#clip590)" style="stroke:#000000; stroke-linecap:round; stroke-linejoin:round; stroke-width:4; stroke-opacity:1; fill:none" points="246.079,201.91 264.976,201.91 "/>
<g clip-path="url(#clip590)">
<text style="fill:#000000; fill-opacity:1; font-family:Book Antiqua,Palatino,Palatino Linotype,Palatino LT STD,Georgia,serif; font-size:51px; font-weight:bold; text-anchor:middle;" transform="rotate(0, 183.673, 838.072)" x="183.673" y="838.072">0.35</text>
</g>
<g clip-path="url(#clip590)">
<text style="fill:#000000; fill-opacity:1; font-family:Book Antiqua,Palatino,Palatino Linotype,Palatino LT STD,Georgia,serif; font-size:51px; font-weight:bold; text-anchor:middle;" transform="rotate(0, 183.673, 683.407)" x="183.673" y="683.407">0.40</text>
</g>
<g clip-path="url(#clip590)">
<text style="fill:#000000; fill-opacity:1; font-family:Book Antiqua,Palatino,Palatino Linotype,Palatino LT STD,Georgia,serif; font-size:51px; font-weight:bold; text-anchor:middle;" transform="rotate(0, 183.673, 528.741)" x="183.673" y="528.741">0.45</text>
</g>
<g clip-path="url(#clip590)">
<text style="fill:#000000; fill-opacity:1; font-family:Book Antiqua,Palatino,Palatino Linotype,Palatino LT STD,Georgia,serif; font-size:51px; font-weight:bold; text-anchor:middle;" transform="rotate(0, 183.673, 374.075)" x="183.673" y="374.075">0.50</text>
</g>
<g clip-path="url(#clip590)">
<text style="fill:#000000; fill-opacity:1; font-family:Book Antiqua,Palatino,Palatino Linotype,Palatino LT STD,Georgia,serif; font-size:51px; font-weight:bold; text-anchor:middle;" transform="rotate(0, 183.673, 219.41)" x="183.673" y="219.41">0.55</text>
</g>
<path clip-path="url(#clip590)" d="M86.7373 682.782 Q76.6569 682.782 69.636 676.341 Q62.5829 669.868 62.5829 660.882 Q62.5829 651.833 69.636 645.391 Q76.6891 638.918 86.7373 638.918 Q96.6889 638.918 103.613 645.391 Q110.537 651.865 110.537 660.882 Q110.537 669.771 103.645 676.277 Q96.7533 682.782 86.7373 682.782 M85.8034 675.987 Q91.9225 675.987 96.6245 674.538 Q101.294 673.088 103.839 670.77 Q106.383 668.419 107.607 665.907 Q108.831 663.394 108.831 660.818 Q108.831 658.306 107.639 655.858 Q106.447 653.378 103.935 651.027 Q101.423 648.676 96.7211 647.195 Q92.0191 645.713 85.8034 645.713 Q80.9725 645.713 77.1078 646.744 Q73.2109 647.775 70.8598 649.385 Q68.5088 650.995 66.9629 653.089 Q65.417 655.15 64.8373 657.114 Q64.2254 659.047 64.2254 660.882 Q64.2254 663.201 65.256 665.617 Q66.2866 668.032 68.5732 670.48 Q70.8276 672.895 75.3042 674.441 Q79.7486 675.987 85.8034 675.987 Z" fill="#000000" fill-rule="nonzero" fill-opacity="1" /><path clip-path="url(#clip590)" d="M82.7116 632.56 L80.6504 632.56 L79.9419 622.866 L101.842 622.866 Q103.42 622.866 104.354 622.737 Q105.256 622.608 106.318 622.093 Q107.381 621.546 107.864 620.322 Q108.347 619.066 108.347 617.069 Q108.347 613.494 105.417 611.304 Q102.486 609.082 98.1382 609.082 L86.3831 609.082 Q83.9354 609.082 83.3235 609.951 Q82.7116 610.821 82.7116 614.235 L80.6504 614.235 L79.9419 604.541 L103.356 604.541 Q105.803 604.541 106.447 603.703 Q107.059 602.834 107.059 599.388 L109.088 599.388 L109.829 608.889 L103.871 608.889 Q109.797 611.658 109.829 617.391 Q109.829 620.289 109.088 622.286 Q108.347 624.251 107.446 625.249 Q106.512 626.248 104.74 626.795 Q102.969 627.31 101.874 627.375 Q100.779 627.439 98.6535 627.439 L88.7663 627.439 Q84.2897 627.439 83.5167 628.083 Q82.7116 628.727 82.7116 632.56 Z" fill="#000000" fill-rule="nonzero" fill-opacity="1" /><path clip-path="url(#clip590)" d="M82.7116 597.115 L81.2623 597.115 Q81.1335 594.088 79.0079 592.091 Q76.8501 590.062 74.2092 589.386 Q71.5684 588.677 68.5088 588.613 L68.5088 586.97 L80.6504 586.97 L80.6504 577.534 L82.7116 577.534 L82.7116 586.97 L101.037 586.97 Q108.154 586.97 108.154 582.526 Q108.154 580.626 106.222 579.37 Q104.257 578.114 100.779 578.114 L97.1398 578.114 L97.1398 576.471 L100.908 576.471 Q104.483 576.471 107.156 578.114 Q109.829 579.756 109.829 583.009 Q109.829 584.201 109.507 585.392 Q109.217 586.552 108.444 588.098 Q107.639 589.611 105.707 590.577 Q103.742 591.511 100.908 591.511 L82.7116 591.511 L82.7116 597.115 Z" fill="#000000" fill-rule="nonzero" fill-opacity="1" /><path clip-path="url(#clip590)" d="M119.845 576.276 Q119.845 572.765 119.394 571.96 Q118.975 571.123 116.882 571.123 L85.9966 571.123 Q83.8066 571.123 83.2591 571.96 Q82.7116 572.765 82.7116 576.276 L80.6504 576.276 L79.9419 566.775 L84.2897 566.775 Q79.9419 562.814 79.9419 557.532 Q79.9419 551.928 84.2897 547.838 Q88.6375 543.748 94.8532 543.748 Q101.133 543.748 105.481 548.096 Q109.829 552.443 109.829 558.466 Q109.829 561.751 108.154 563.973 Q106.447 566.163 105.191 566.582 L105.803 566.582 L116.882 566.582 Q119.008 566.582 119.426 565.744 Q119.845 564.907 119.845 561.429 L121.874 561.429 Q121.681 568.353 121.681 568.868 Q121.681 569.513 121.874 576.276 L119.845 576.276 M101.584 566.582 Q102.583 566.582 102.937 566.453 Q103.291 566.292 104.354 565.648 Q108.347 563.039 108.347 558.788 Q108.347 558.756 108.347 558.724 Q108.347 554.956 104.515 552.089 Q100.65 549.223 94.8532 549.223 Q89.3138 549.223 85.4491 551.832 Q81.5844 554.44 81.5844 558.047 Q81.5844 560.624 82.9692 562.878 Q84.3541 565.133 86.8661 566.582 L101.584 566.582 Z" fill="#000000" fill-rule="nonzero" fill-opacity="1" /><path clip-path="url(#clip590)" d="M82.7116 535.815 L80.6504 535.815 L79.9419 526.121 L101.842 526.121 Q103.42 526.121 104.354 525.992 Q105.256 525.864 106.318 525.348 Q107.381 524.801 107.864 523.577 Q108.347 522.321 108.347 520.324 Q108.347 516.749 105.417 514.559 Q102.486 512.337 98.1382 512.337 L86.3831 512.337 Q83.9354 512.337 83.3235 513.207 Q82.7116 514.076 82.7116 517.49 L80.6504 517.49 L79.9419 507.796 L103.356 507.796 Q105.803 507.796 106.447 506.959 Q107.059 506.089 107.059 502.643 L109.088 502.643 L109.829 512.144 L103.871 512.144 Q109.797 514.914 109.829 520.646 Q109.829 523.545 109.088 525.541 Q108.347 527.506 107.446 528.504 Q106.512 529.503 104.74 530.05 Q102.969 530.566 101.874 530.63 Q100.779 530.694 98.6535 530.694 L88.7663 530.694 Q84.2897 530.694 83.5167 531.338 Q82.7116 531.983 82.7116 535.815 Z" fill="#000000" fill-rule="nonzero" fill-opacity="1" /><path clip-path="url(#clip590)" d="M82.7116 500.37 L81.2623 500.37 Q81.1335 497.343 79.0079 495.346 Q76.8501 493.317 74.2092 492.641 Q71.5684 491.932 68.5088 491.868 L68.5088 490.226 L80.6504 490.226 L80.6504 480.789 L82.7116 480.789 L82.7116 490.226 L101.037 490.226 Q108.154 490.226 108.154 485.781 Q108.154 483.881 106.222 482.625 Q104.257 481.369 100.779 481.369 L97.1398 481.369 L97.1398 479.726 L100.908 479.726 Q104.483 479.726 107.156 481.369 Q109.829 483.011 109.829 486.264 Q109.829 487.456 109.507 488.647 Q109.217 489.807 108.444 491.353 Q107.639 492.866 105.707 493.833 Q103.742 494.767 100.908 494.767 L82.7116 494.767 L82.7116 500.37 Z" fill="#000000" fill-rule="nonzero" fill-opacity="1" /><path clip-path="url(#clip590)" d="M124.644 457.614 Q124.322 457.614 123.613 457.357 L61.3913 434.072 Q61.3269 434.072 60.9726 433.911 Q60.6184 433.75 60.3929 433.653 Q60.1353 433.556 59.942 433.363 Q59.7488 433.138 59.7488 432.88 Q59.7488 432.236 60.554 432.236 Q60.6184 432.236 61.3913 432.429 L123.677 455.778 Q124.805 456.165 125.127 456.423 Q125.449 456.648 125.449 457.034 Q125.449 457.614 124.644 457.614 Z" fill="#000000" fill-rule="nonzero" fill-opacity="1" /><path clip-path="url(#clip590)" d="M119.845 407.521 Q119.845 404.011 119.394 403.206 Q118.975 402.368 116.882 402.368 L85.9966 402.368 Q83.8066 402.368 83.2591 403.206 Q82.7116 404.011 82.7116 407.521 L80.6504 407.521 L79.9419 398.021 L84.2897 398.021 Q79.9419 394.059 79.9419 388.778 Q79.9419 383.174 84.2897 379.084 Q88.6375 374.993 94.8532 374.993 Q101.133 374.993 105.481 379.341 Q109.829 383.689 109.829 389.711 Q109.829 392.996 108.154 395.219 Q106.447 397.409 105.191 397.827 L105.803 397.827 L116.882 397.827 Q119.008 397.827 119.426 396.99 Q119.845 396.153 119.845 392.674 L121.874 392.674 Q121.681 399.599 121.681 400.114 Q121.681 400.758 121.874 407.521 L119.845 407.521 M101.584 397.827 Q102.583 397.827 102.937 397.699 Q103.291 397.538 104.354 396.893 Q108.347 394.285 108.347 390.034 Q108.347 390.001 108.347 389.969 Q108.347 386.201 104.515 383.335 Q100.65 380.468 94.8532 380.468 Q89.3138 380.468 85.4491 383.077 Q81.5844 385.686 81.5844 389.293 Q81.5844 391.869 82.9692 394.124 Q84.3541 396.378 86.8661 397.827 L101.584 397.827 Z" fill="#000000" fill-rule="nonzero" fill-opacity="1" /><path clip-path="url(#clip590)" d="M108.025 370.286 Q106.963 371.285 105.578 371.285 Q104.193 371.285 103.195 370.286 Q102.164 369.288 102.164 367.774 Q102.164 366.325 103.13 365.359 Q104.064 364.36 105.61 364.36 Q107.124 364.36 108.122 365.423 Q109.088 366.454 109.088 367.774 Q109.088 369.288 108.025 370.286 Z" fill="#000000" fill-rule="nonzero" fill-opacity="1" /><path clip-path="url(#clip590)" d="M82.7116 342.677 L80.6504 342.677 L79.9419 332.983 L101.842 332.983 Q103.42 332.983 104.354 332.855 Q105.256 332.726 106.318 332.21 Q107.381 331.663 107.864 330.439 Q108.347 329.183 108.347 327.186 Q108.347 323.611 105.417 321.421 Q102.486 319.199 98.1382 319.199 L86.3831 319.199 Q83.9354 319.199 83.3235 320.069 Q82.7116 320.938 82.7116 324.352 L80.6504 324.352 L79.9419 314.658 L103.356 314.658 Q105.803 314.658 106.447 313.821 Q107.059 312.951 107.059 309.505 L109.088 309.505 L109.829 319.006 L103.871 319.006 Q109.797 321.776 109.829 327.508 Q109.829 330.407 109.088 332.404 Q108.347 334.368 107.446 335.367 Q106.512 336.365 104.74 336.912 Q102.969 337.428 101.874 337.492 Q100.779 337.557 98.6535 337.557 L88.7663 337.557 Q84.2897 337.557 83.5167 338.201 Q82.7116 338.845 82.7116 342.677 Z" fill="#000000" fill-rule="nonzero" fill-opacity="1" /><path clip-path="url(#clip590)" d="M108.025 305.442 Q106.963 306.441 105.578 306.441 Q104.193 306.441 103.195 305.442 Q102.164 304.444 102.164 302.93 Q102.164 301.481 103.13 300.515 Q104.064 299.516 105.61 299.516 Q107.124 299.516 108.122 300.579 Q109.088 301.61 109.088 302.93 Q109.088 304.444 108.025 305.442 Z" fill="#000000" fill-rule="nonzero" fill-opacity="1" /><polyline clip-path="url(#clip592)" style="stroke:#6495ed; stroke-linecap:round; stroke-linejoin:round; stroke-width:1; stroke-opacity:1; fill:none" points="271.739,582.718 308.929,425.475 346.118,656.875 383.308,616.332 420.497,665.766 457.686,783.726 494.876,568.497 532.065,570.822 569.254,517.775 606.444,493.83 643.633,493.274 680.823,538.416 718.012,478.645 755.201,588.519 792.391,490.111 829.58,505.208 866.77,490.91 903.959,534.436 941.148,624.386 978.338,626.916 1015.53,447.32 1052.72,537.165 1089.91,522.88 1127.1,624.762 "/>
<polyline clip-path="url(#clip592)" style="stroke:#6495ed; stroke-linecap:round; stroke-linejoin:round; stroke-width:1; stroke-opacity:1; fill:none" points="271.739,541.655 308.929,535.571 346.118,532.164 383.308,572.098 420.497,597.926 457.686,766.97 494.876,426.831 532.065,578.016 569.254,490.417 606.444,542.651 643.633,555.36 680.823,518.746 718.012,500.605 755.201,542.648 792.391,412.087 829.58,444.304 866.77,548.614 903.959,576.887 941.148,585.772 978.338,623.694 1015.53,376.377 1052.72,515.178 1089.91,527.356 1127.1,485.459 "/>
<polyline clip-path="url(#clip592)" style="stroke:#6495ed; stroke-linecap:round; stroke-linejoin:round; stroke-width:1; stroke-opacity:1; fill:none" points="271.739,561.804 308.929,614.051 346.118,510.148 383.308,575.431 420.497,622.984 457.686,734.954 494.876,657.088 532.065,443.68 569.254,518.168 606.444,472.561 643.633,534.395 680.823,507.118 718.012,544.397 755.201,559.895 792.391,443.082 829.58,513.467 866.77,534.589 903.959,534.318 941.148,572.364 978.338,452.647 1015.53,424.379 1052.72,419.146 1089.91,503.834 1127.1,544.54 "/>
<polyline clip-path="url(#clip592)" style="stroke:#6495ed; stroke-linecap:round; stroke-linejoin:round; stroke-width:1; stroke-opacity:1; fill:none" points="271.739,526.128 308.929,475.242 346.118,533.956 383.308,586.825 420.497,562.989 457.686,699.038 494.876,560.356 532.065,558.532 569.254,518.228 606.444,516.657 643.633,561.916 680.823,574.764 718.012,494.766 755.201,545.178 792.391,496.877 829.58,510.971 866.77,478.158 903.959,604.133 941.148,585.804 978.338,609.07 1015.53,409.393 1052.72,499.854 1089.91,493.86 1127.1,577.424 "/>
<polyline clip-path="url(#clip592)" style="stroke:#6495ed; stroke-linecap:round; stroke-linejoin:round; stroke-width:1; stroke-opacity:1; fill:none" points="271.739,487.862 308.929,567.958 346.118,629.286 383.308,638.277 420.497,522.794 457.686,720.51 494.876,553.376 532.065,559.04 569.254,505.552 606.444,530.229 643.633,577.93 680.823,545.338 718.012,548.804 755.201,582.361 792.391,502.765 829.58,516.384 866.77,574.907 903.959,601.12 941.148,578.357 978.338,515.202 1015.53,479.747 1052.72,514.761 1089.91,493.743 1127.1,600.788 "/>
<polyline clip-path="url(#clip592)" style="stroke:#6495ed; stroke-linecap:round; stroke-linejoin:round; stroke-width:1; stroke-opacity:1; fill:none" points="271.739,524.558 308.929,501.606 346.118,549.876 383.308,500.579 420.497,588.097 457.686,698.777 494.876,567.241 532.065,572.003 569.254,466.436 606.444,597.062 643.633,542.584 680.823,595.412 718.012,476.26 755.201,620.534 792.391,509.996 829.58,446.998 866.77,521.79 903.959,567.591 941.148,584.189 978.338,583.57 1015.53,397.152 1052.72,561.464 1089.91,523.042 1127.1,588.063 "/>
<polyline clip-path="url(#clip592)" style="stroke:#6495ed; stroke-linecap:round; stroke-linejoin:round; stroke-width:1; stroke-opacity:1; fill:none" points="271.739,571.616 308.929,556.856 346.118,558.098 383.308,507.144 420.497,597.203 457.686,777.67 494.876,574.945 532.065,565.646 569.254,535.817 606.444,576.098 643.633,583.111 680.823,579.419 718.012,520.315 755.201,559.029 792.391,500.499 829.58,463.347 866.77,566.024 903.959,577.915 941.148,554.519 978.338,542.494 1015.53,429.433 1052.72,509.414 1089.91,530.514 1127.1,591.98 "/>
<polyline clip-path="url(#clip592)" style="stroke:#6495ed; stroke-linecap:round; stroke-linejoin:round; stroke-width:1; stroke-opacity:1; fill:none" points="271.739,499.19 308.929,509.106 346.118,559.55 383.308,579.273 420.497,636.627 457.686,762.081 494.876,533.481 532.065,593.228 569.254,539.089 606.444,561.451 643.633,564.366 680.823,602.232 718.012,469.716 755.201,466.099 792.391,464.905 829.58,467.725 866.77,547.607 903.959,567.442 941.148,590.839 978.338,543.447 1015.53,375.689 1052.72,515.283 1089.91,513.641 1127.1,661.634 "/>
<polyline clip-path="url(#clip592)" style="stroke:#6495ed; stroke-linecap:round; stroke-linejoin:round; stroke-width:1; stroke-opacity:1; fill:none" points="271.739,523.192 308.929,476.565 346.118,550.061 383.308,561.213 420.497,639.092 457.686,693.484 494.876,590.49 532.065,637.19 569.254,517.102 606.444,510.203 643.633,543.442 680.823,460.838 718.012,499.375 755.201,613.039 792.391,529.314 829.58,502.53 866.77,498.749 903.959,525.079 941.148,579.032 978.338,579.914 1015.53,434.359 1052.72,558.608 1089.91,531.147 1127.1,461.84 "/>
<polyline clip-path="url(#clip592)" style="stroke:#6495ed; stroke-linecap:round; stroke-linejoin:round; stroke-width:1; stroke-opacity:1; fill:none" points="271.739,539.756 308.929,559.499 346.118,580.774 383.308,578.011 420.497,605.146 457.686,767.177 494.876,514.607 532.065,591.331 569.254,552.438 606.444,517.056 643.633,571.649 680.823,602.196 718.012,405.924 755.201,598.645 792.391,467.073 829.58,511.037 866.77,532.798 903.959,600.161 941.148,640.824 978.338,611.897 1015.53,427.424 1052.72,515.972 1089.91,518.71 1127.1,602.58 "/>
<polyline clip-path="url(#clip592)" style="stroke:#6495ed; stroke-linecap:round; stroke-linejoin:round; stroke-width:1; stroke-opacity:1; fill:none" points="271.739,562.848 308.929,502.072 346.118,551.889 383.308,543.396 420.497,569.413 457.686,742.003 494.876,662.054 532.065,551.866 569.254,510.512 606.444,498.195 643.633,633.855 680.823,564.715 718.012,447.155 755.201,480.203 792.391,406.445 829.58,495.439 866.77,584.223 903.959,527.116 941.148,618.412 978.338,599.863 1015.53,460.034 1052.72,416.231 1089.91,531.338 1127.1,586.671 "/>
<polyline clip-path="url(#clip592)" style="stroke:#6495ed; stroke-linecap:round; stroke-linejoin:round; stroke-width:1; stroke-opacity:1; fill:none" points="271.739,540.984 308.929,490.429 346.118,477.264 383.308,445.365 420.497,579.601 457.686,722.861 494.876,585.284 532.065,551.119 569.254,528.877 606.444,488.98 643.633,589.193 680.823,579.62 718.012,545.397 755.201,561.322 792.391,497.635 829.58,504.37 866.77,548.87 903.959,563.483 941.148,522.331 978.338,611.24 1015.53,386.129 1052.72,494.566 1089.91,553.192 1127.1,561.502 "/>
<polyline clip-path="url(#clip592)" style="stroke:#6495ed; stroke-linecap:round; stroke-linejoin:round; stroke-width:1; stroke-opacity:1; fill:none" points="271.739,546.62 308.929,594.392 346.118,487.693 383.308,580.382 420.497,601.75 457.686,666.526 494.876,617.464 532.065,535.831 569.254,503.629 606.444,487.467 643.633,616.119 680.823,519.399 718.012,488.13 755.201,563.016 792.391,487.525 829.58,537.729 866.77,544.354 903.959,589.335 941.148,585.726 978.338,630.223 1015.53,458.005 1052.72,541.666 1089.91,519.962 1127.1,621.645 "/>
<polyline clip-path="url(#clip592)" style="stroke:#6495ed; stroke-linecap:round; stroke-linejoin:round; stroke-width:1; stroke-opacity:1; fill:none" points="271.739,620.422 308.929,519.59 346.118,580.378 383.308,703.823 420.497,621.989 457.686,827.848 494.876,671.135 532.065,528.273 569.254,513.145 606.444,581.508 643.633,529.479 680.823,578.58 718.012,516.278 755.201,566.499 792.391,499.619 829.58,491.943 866.77,556.25 903.959,594.211 941.148,514.314 978.338,602.025 1015.53,520.775 1052.72,411.365 1089.91,430.633 1127.1,602.942 "/>
<polyline clip-path="url(#clip592)" style="stroke:#6495ed; stroke-linecap:round; stroke-linejoin:round; stroke-width:1; stroke-opacity:1; fill:none" points="271.739,544.855 308.929,574.803 346.118,548.257 383.308,547.105 420.497,620.04 457.686,715.561 494.876,629.449 532.065,606.056 569.254,550.858 606.444,522.961 643.633,581.862 680.823,559.09 718.012,490.476 755.201,621.541 792.391,502.399 829.58,462.046 866.77,578.367 903.959,601.447 941.148,530.3 978.338,607.73 1015.53,338.809 1052.72,577.005 1089.91,507.537 1127.1,529.761 "/>
<polyline clip-path="url(#clip592)" style="stroke:#6495ed; stroke-linecap:round; stroke-linejoin:round; stroke-width:1; stroke-opacity:1; fill:none" points="271.739,554.063 308.929,631.796 346.118,604.148 383.308,568.788 420.497,575.065 457.686,779.699 494.876,573.793 532.065,551.489 569.254,525.996 606.444,499.722 643.633,569.753 680.823,494.33 718.012,453.513 755.201,527.343 792.391,493.077 829.58,521.345 866.77,478.173 903.959,725.883 941.148,517.459 978.338,587.316 1015.53,486.439 1052.72,554.953 1089.91,537.09 1127.1,581.487 "/>
<polyline clip-path="url(#clip592)" style="stroke:#6495ed; stroke-linecap:round; stroke-linejoin:round; stroke-width:1; stroke-opacity:1; fill:none" points="271.739,640.032 308.929,790.117 346.118,541.701 383.308,528.517 420.497,618.881 457.686,736.723 494.876,604.035 532.065,563.674 569.254,504.044 606.444,503.632 643.633,637.785 680.823,550.084 718.012,523.965 755.201,642.301 792.391,484.082 829.58,406.204 866.77,524.649 903.959,578.961 941.148,597.97 978.338,637.517 1015.53,414.744 1052.72,519.899 1089.91,595.292 1127.1,634.368 "/>
<polyline clip-path="url(#clip592)" style="stroke:#6495ed; stroke-linecap:round; stroke-linejoin:round; stroke-width:1; stroke-opacity:1; fill:none" points="271.739,515.4 308.929,597.313 346.118,561.815 383.308,627.11 420.497,540.914 457.686,689.801 494.876,618.125 532.065,564.686 569.254,497.286 606.444,468.121 643.633,561.526 680.823,566.631 718.012,499.16 755.201,572.305 792.391,441.156 829.58,489.336 866.77,579.138 903.959,576.553 941.148,601.968 978.338,586.683 1015.53,423.881 1052.72,565.978 1089.91,527.658 1127.1,583.957 "/>
<polyline clip-path="url(#clip592)" style="stroke:#6495ed; stroke-linecap:round; stroke-linejoin:round; stroke-width:1; stroke-opacity:1; fill:none" points="271.739,493.202 308.929,535.327 346.118,564.425 383.308,590.101 420.497,614.861 457.686,718.903 494.876,585.855 532.065,527.074 569.254,513.287 606.444,481.101 643.633,701.281 680.823,570.398 718.012,576.417 755.201,537.872 792.391,475.768 829.58,484.418 866.77,636.175 903.959,454.958 941.148,511.957 978.338,677.741 1015.53,440.273 1052.72,527.847 1089.91,500.209 1127.1,644.944 "/>
<polyline clip-path="url(#clip592)" style="stroke:#6495ed; stroke-linecap:round; stroke-linejoin:round; stroke-width:1; stroke-opacity:1; fill:none" points="271.739,598.373 308.929,489.505 346.118,635.012 383.308,606.422 420.497,587.92 457.686,790.696 494.876,605.448 532.065,541.479 569.254,491.345 606.444,458.668 643.633,680.592 680.823,514.78 718.012,451.299 755.201,598.158 792.391,444.135 829.58,435.427 866.77,528.945 903.959,573.524 941.148,637.901 978.338,549.731 1015.53,427.851 1052.72,538.159 1089.91,549.262 1127.1,582.34 "/>
<polyline clip-path="url(#clip592)" style="stroke:#6495ed; stroke-linecap:round; stroke-linejoin:round; stroke-width:1; stroke-opacity:1; fill:none" points="271.739,527.607 308.929,482.308 346.118,436.195 383.308,485.418 420.497,598.918 457.686,747.307 494.876,554.108 532.065,607.032 569.254,507.059 606.444,505.495 643.633,529.781 680.823,561.915 718.012,486.876 755.201,568.574 792.391,434.638 829.58,512.183 866.77,633.415 903.959,574.122 941.148,573.082 978.338,574.555 1015.53,440.21 1052.72,541.757 1089.91,350.464 1127.1,580.248 "/>
<polyline clip-path="url(#clip592)" style="stroke:#6495ed; stroke-linecap:round; stroke-linejoin:round; stroke-width:1; stroke-opacity:1; fill:none" points="271.739,418.921 308.929,543.581 346.118,488.773 383.308,577.859 420.497,611.645 457.686,693.504 494.876,596.213 532.065,527.745 569.254,515.404 606.444,416.277 643.633,562.726 680.823,513.88 718.012,479.263 755.201,582.768 792.391,532.207 829.58,590.148 866.77,590.352 903.959,554.377 941.148,639.827 978.338,572.358 1015.53,380.566 1052.72,501.627 1089.91,548.959 1127.1,581.712 "/>
<polyline clip-path="url(#clip592)" style="stroke:#6495ed; stroke-linecap:round; stroke-linejoin:round; stroke-width:1; stroke-opacity:1; fill:none" points="271.739,565.957 308.929,501.609 346.118,554.523 383.308,594.097 420.497,569.608 457.686,831.253 494.876,612.396 532.065,542.968 569.254,501.601 606.444,464.805 643.633,593.543 680.823,514.789 718.012,522.007 755.201,599.97 792.391,437.007 829.58,495.99 866.77,440.604 903.959,583.491 941.148,581.123 978.338,594.928 1015.53,441.973 1052.72,520.997 1089.91,501.051 1127.1,604.74 "/>
<polyline clip-path="url(#clip592)" style="stroke:#6495ed; stroke-linecap:round; stroke-linejoin:round; stroke-width:1; stroke-opacity:1; fill:none" points="271.739,476.617 308.929,516.121 346.118,572.843 383.308,634.45 420.497,673.7 457.686,829.521 494.876,605.846 532.065,537.88 569.254,493.046 606.444,534.128 643.633,592.735 680.823,550.679 718.012,391.614 755.201,653.225 792.391,456.697 829.58,533.604 866.77,606.61 903.959,559.107 941.148,583.953 978.338,579.795 1015.53,429.294 1052.72,652.137 1089.91,494.742 1127.1,577.103 "/>
<polyline clip-path="url(#clip592)" style="stroke:#6495ed; stroke-linecap:round; stroke-linejoin:round; stroke-width:1; stroke-opacity:1; fill:none" points="271.739,573.959 308.929,518.928 346.118,542.282 383.308,550.341 420.497,620.032 457.686,755.564 494.876,525.779 532.065,409.872 569.254,660.026 606.444,550.413 643.633,591.386 680.823,563.975 718.012,493.061 755.201,575.854 792.391,466.083 829.58,498.536 866.77,495.708 903.959,523.675 941.148,598.827 978.338,593.366 1015.53,412.352 1052.72,429.15 1089.91,587.987 1127.1,623.947 "/>
<polyline clip-path="url(#clip592)" style="stroke:#6495ed; stroke-linecap:round; stroke-linejoin:round; stroke-width:1; stroke-opacity:1; fill:none" points="271.739,466.377 308.929,517.445 346.118,516.547 383.308,562.437 420.497,543.842 457.686,774.831 494.876,603.912 532.065,582.446 569.254,494.608 606.444,436.735 643.633,532.858 680.823,609.818 718.012,542.773 755.201,584.432 792.391,423.462 829.58,433.87 866.77,513.221 903.959,578.101 941.148,559.83 978.338,600.057 1015.53,405.49 1052.72,563.054 1089.91,554.441 1127.1,589.869 "/>
<polyline clip-path="url(#clip592)" style="stroke:#6495ed; stroke-linecap:round; stroke-linejoin:round; stroke-width:1; stroke-opacity:1; fill:none" points="271.739,575.566 308.929,458.849 346.118,570.924 383.308,582.023 420.497,609.015 457.686,722.104 494.876,513.196 532.065,555.533 569.254,504.572 606.444,490.592 643.633,673.066 680.823,541.952 718.012,508.797 755.201,576.99 792.391,518.544 829.58,526.607 866.77,546.122 903.959,537.081 941.148,577.41 978.338,515.211 1015.53,370.535 1052.72,514.806 1089.91,485.831 1127.1,665.75 "/>
<polyline clip-path="url(#clip592)" style="stroke:#6495ed; stroke-linecap:round; stroke-linejoin:round; stroke-width:1; stroke-opacity:1; fill:none" points="271.739,505.088 308.929,523.565 346.118,516.659 383.308,580.847 420.497,581.862 457.686,696.923 494.876,630.712 532.065,531.873 569.254,536.645 606.444,536.83 643.633,531.451 680.823,570.196 718.012,507.497 755.201,558.917 792.391,489.077 829.58,481.2 866.77,546.283 903.959,508.034 941.148,576.154 978.338,599.667 1015.53,361.867 1052.72,539.287 1089.91,519.444 1127.1,471.195 "/>
<polyline clip-path="url(#clip592)" style="stroke:#6495ed; stroke-linecap:round; stroke-linejoin:round; stroke-width:1; stroke-opacity:1; fill:none" points="271.739,532.238 308.929,542.587 346.118,503.193 383.308,625.533 420.497,554.698 457.686,725.571 494.876,635.518 532.065,557.104 569.254,505.256 606.444,542.924 643.633,574.889 680.823,548.625 718.012,493.011 755.201,535.403 792.391,440.281 829.58,583.815 866.77,535.789 903.959,572.956 941.148,588.134 978.338,582.844 1015.53,432.303 1052.72,570.266 1089.91,480.655 1127.1,556.683 "/>
<polyline clip-path="url(#clip592)" style="stroke:#6495ed; stroke-linecap:round; stroke-linejoin:round; stroke-width:1; stroke-opacity:1; fill:none" points="271.739,526.949 308.929,595.698 346.118,550.532 383.308,583.835 420.497,671.409 457.686,760.918 494.876,600.582 532.065,544.221 569.254,472.283 606.444,550.646 643.633,492.595 680.823,531.108 718.012,517.687 755.201,647.755 792.391,464.184 829.58,546.015 866.77,530.883 903.959,571.294 941.148,607.926 978.338,674.597 1015.53,426.445 1052.72,430.33 1089.91,558.328 1127.1,603.425 "/>
<polyline clip-path="url(#clip592)" style="stroke:#ffa500; stroke-linecap:round; stroke-linejoin:round; stroke-width:16; stroke-opacity:1; fill:none" points="271.739,418.921 308.929,425.475 346.118,436.195 383.308,445.365 420.497,522.794 457.686,666.526 494.876,426.831 532.065,409.872 569.254,466.436 606.444,416.277 643.633,492.595 680.823,460.838 718.012,391.614 755.201,466.099 792.391,406.445 829.58,406.204 866.77,440.604 903.959,454.958 941.148,511.957 978.338,452.647 1015.53,338.809 1052.72,411.365 1089.91,350.464 1127.1,461.84 "/>
<circle clip-path="url(#clip592)" cx="271.739" cy="418.921" r="7.2" fill="#dd64b5" fill-rule="evenodd" fill-opacity="1" stroke="#000000" stroke-opacity="1" stroke-width="2.24"/>
<circle clip-path="url(#clip592)" cx="308.929" cy="425.475" r="7.2" fill="#dd64b5" fill-rule="evenodd" fill-opacity="1" stroke="#000000" stroke-opacity="1" stroke-width="2.24"/>
<circle clip-path="url(#clip592)" cx="346.118" cy="436.195" r="7.2" fill="#dd64b5" fill-rule="evenodd" fill-opacity="1" stroke="#000000" stroke-opacity="1" stroke-width="2.24"/>
<circle clip-path="url(#clip592)" cx="383.308" cy="445.365" r="7.2" fill="#dd64b5" fill-rule="evenodd" fill-opacity="1" stroke="#000000" stroke-opacity="1" stroke-width="2.24"/>
<circle clip-path="url(#clip592)" cx="420.497" cy="522.794" r="7.2" fill="#dd64b5" fill-rule="evenodd" fill-opacity="1" stroke="#000000" stroke-opacity="1" stroke-width="2.24"/>
<circle clip-path="url(#clip592)" cx="457.686" cy="666.526" r="7.2" fill="#dd64b5" fill-rule="evenodd" fill-opacity="1" stroke="#000000" stroke-opacity="1" stroke-width="2.24"/>
<circle clip-path="url(#clip592)" cx="494.876" cy="426.831" r="7.2" fill="#dd64b5" fill-rule="evenodd" fill-opacity="1" stroke="#000000" stroke-opacity="1" stroke-width="2.24"/>
<circle clip-path="url(#clip592)" cx="532.065" cy="409.872" r="7.2" fill="#dd64b5" fill-rule="evenodd" fill-opacity="1" stroke="#000000" stroke-opacity="1" stroke-width="2.24"/>
<circle clip-path="url(#clip592)" cx="569.254" cy="466.436" r="7.2" fill="#dd64b5" fill-rule="evenodd" fill-opacity="1" stroke="#000000" stroke-opacity="1" stroke-width="2.24"/>
<circle clip-path="url(#clip592)" cx="606.444" cy="416.277" r="7.2" fill="#dd64b5" fill-rule="evenodd" fill-opacity="1" stroke="#000000" stroke-opacity="1" stroke-width="2.24"/>
<circle clip-path="url(#clip592)" cx="643.633" cy="492.595" r="7.2" fill="#dd64b5" fill-rule="evenodd" fill-opacity="1" stroke="#000000" stroke-opacity="1" stroke-width="2.24"/>
<circle clip-path="url(#clip592)" cx="680.823" cy="460.838" r="7.2" fill="#dd64b5" fill-rule="evenodd" fill-opacity="1" stroke="#000000" stroke-opacity="1" stroke-width="2.24"/>
<circle clip-path="url(#clip592)" cx="718.012" cy="391.614" r="7.2" fill="#dd64b5" fill-rule="evenodd" fill-opacity="1" stroke="#000000" stroke-opacity="1" stroke-width="2.24"/>
<circle clip-path="url(#clip592)" cx="755.201" cy="466.099" r="7.2" fill="#dd64b5" fill-rule="evenodd" fill-opacity="1" stroke="#000000" stroke-opacity="1" stroke-width="2.24"/>
<circle clip-path="url(#clip592)" cx="792.391" cy="406.445" r="7.2" fill="#dd64b5" fill-rule="evenodd" fill-opacity="1" stroke="#000000" stroke-opacity="1" stroke-width="2.24"/>
<circle clip-path="url(#clip592)" cx="829.58" cy="406.204" r="7.2" fill="#dd64b5" fill-rule="evenodd" fill-opacity="1" stroke="#000000" stroke-opacity="1" stroke-width="2.24"/>
<circle clip-path="url(#clip592)" cx="866.77" cy="440.604" r="7.2" fill="#dd64b5" fill-rule="evenodd" fill-opacity="1" stroke="#000000" stroke-opacity="1" stroke-width="2.24"/>
<circle clip-path="url(#clip592)" cx="903.959" cy="454.958" r="7.2" fill="#dd64b5" fill-rule="evenodd" fill-opacity="1" stroke="#000000" stroke-opacity="1" stroke-width="2.24"/>
<circle clip-path="url(#clip592)" cx="941.148" cy="511.957" r="7.2" fill="#dd64b5" fill-rule="evenodd" fill-opacity="1" stroke="#000000" stroke-opacity="1" stroke-width="2.24"/>
<circle clip-path="url(#clip592)" cx="978.338" cy="452.647" r="7.2" fill="#dd64b5" fill-rule="evenodd" fill-opacity="1" stroke="#000000" stroke-opacity="1" stroke-width="2.24"/>
<circle clip-path="url(#clip592)" cx="1015.53" cy="338.809" r="7.2" fill="#dd64b5" fill-rule="evenodd" fill-opacity="1" stroke="#000000" stroke-opacity="1" stroke-width="2.24"/>
<circle clip-path="url(#clip592)" cx="1052.72" cy="411.365" r="7.2" fill="#dd64b5" fill-rule="evenodd" fill-opacity="1" stroke="#000000" stroke-opacity="1" stroke-width="2.24"/>
<circle clip-path="url(#clip592)" cx="1089.91" cy="350.464" r="7.2" fill="#dd64b5" fill-rule="evenodd" fill-opacity="1" stroke="#000000" stroke-opacity="1" stroke-width="2.24"/>
<circle clip-path="url(#clip592)" cx="1127.1" cy="461.84" r="7.2" fill="#dd64b5" fill-rule="evenodd" fill-opacity="1" stroke="#000000" stroke-opacity="1" stroke-width="2.24"/>
<polyline clip-path="url(#clip592)" style="stroke:#ffa500; stroke-linecap:round; stroke-linejoin:round; stroke-width:16; stroke-opacity:1; fill:none" points="271.739,640.032 308.929,790.117 346.118,656.875 383.308,703.823 420.497,673.7 457.686,831.253 494.876,671.135 532.065,637.19 569.254,660.026 606.444,597.062 643.633,701.281 680.823,609.818 718.012,576.417 755.201,653.225 792.391,532.207 829.58,590.148 866.77,636.175 903.959,725.883 941.148,640.824 978.338,677.741 1015.53,520.775 1052.72,652.137 1089.91,595.292 1127.1,665.75 "/>
<circle clip-path="url(#clip592)" cx="271.739" cy="640.032" r="7.2" fill="#6b9e32" fill-rule="evenodd" fill-opacity="1" stroke="#000000" stroke-opacity="1" stroke-width="2.24"/>
<circle clip-path="url(#clip592)" cx="308.929" cy="790.117" r="7.2" fill="#6b9e32" fill-rule="evenodd" fill-opacity="1" stroke="#000000" stroke-opacity="1" stroke-width="2.24"/>
<circle clip-path="url(#clip592)" cx="346.118" cy="656.875" r="7.2" fill="#6b9e32" fill-rule="evenodd" fill-opacity="1" stroke="#000000" stroke-opacity="1" stroke-width="2.24"/>
<circle clip-path="url(#clip592)" cx="383.308" cy="703.823" r="7.2" fill="#6b9e32" fill-rule="evenodd" fill-opacity="1" stroke="#000000" stroke-opacity="1" stroke-width="2.24"/>
<circle clip-path="url(#clip592)" cx="420.497" cy="673.7" r="7.2" fill="#6b9e32" fill-rule="evenodd" fill-opacity="1" stroke="#000000" stroke-opacity="1" stroke-width="2.24"/>
<circle clip-path="url(#clip592)" cx="457.686" cy="831.253" r="7.2" fill="#6b9e32" fill-rule="evenodd" fill-opacity="1" stroke="#000000" stroke-opacity="1" stroke-width="2.24"/>
<circle clip-path="url(#clip592)" cx="494.876" cy="671.135" r="7.2" fill="#6b9e32" fill-rule="evenodd" fill-opacity="1" stroke="#000000" stroke-opacity="1" stroke-width="2.24"/>
<circle clip-path="url(#clip592)" cx="532.065" cy="637.19" r="7.2" fill="#6b9e32" fill-rule="evenodd" fill-opacity="1" stroke="#000000" stroke-opacity="1" stroke-width="2.24"/>
<circle clip-path="url(#clip592)" cx="569.254" cy="660.026" r="7.2" fill="#6b9e32" fill-rule="evenodd" fill-opacity="1" stroke="#000000" stroke-opacity="1" stroke-width="2.24"/>
<circle clip-path="url(#clip592)" cx="606.444" cy="597.062" r="7.2" fill="#6b9e32" fill-rule="evenodd" fill-opacity="1" stroke="#000000" stroke-opacity="1" stroke-width="2.24"/>
<circle clip-path="url(#clip592)" cx="643.633" cy="701.281" r="7.2" fill="#6b9e32" fill-rule="evenodd" fill-opacity="1" stroke="#000000" stroke-opacity="1" stroke-width="2.24"/>
<circle clip-path="url(#clip592)" cx="680.823" cy="609.818" r="7.2" fill="#6b9e32" fill-rule="evenodd" fill-opacity="1" stroke="#000000" stroke-opacity="1" stroke-width="2.24"/>
<circle clip-path="url(#clip592)" cx="718.012" cy="576.417" r="7.2" fill="#6b9e32" fill-rule="evenodd" fill-opacity="1" stroke="#000000" stroke-opacity="1" stroke-width="2.24"/>
<circle clip-path="url(#clip592)" cx="755.201" cy="653.225" r="7.2" fill="#6b9e32" fill-rule="evenodd" fill-opacity="1" stroke="#000000" stroke-opacity="1" stroke-width="2.24"/>
<circle clip-path="url(#clip592)" cx="792.391" cy="532.207" r="7.2" fill="#6b9e32" fill-rule="evenodd" fill-opacity="1" stroke="#000000" stroke-opacity="1" stroke-width="2.24"/>
<circle clip-path="url(#clip592)" cx="829.58" cy="590.148" r="7.2" fill="#6b9e32" fill-rule="evenodd" fill-opacity="1" stroke="#000000" stroke-opacity="1" stroke-width="2.24"/>
<circle clip-path="url(#clip592)" cx="866.77" cy="636.175" r="7.2" fill="#6b9e32" fill-rule="evenodd" fill-opacity="1" stroke="#000000" stroke-opacity="1" stroke-width="2.24"/>
<circle clip-path="url(#clip592)" cx="903.959" cy="725.883" r="7.2" fill="#6b9e32" fill-rule="evenodd" fill-opacity="1" stroke="#000000" stroke-opacity="1" stroke-width="2.24"/>
<circle clip-path="url(#clip592)" cx="941.148" cy="640.824" r="7.2" fill="#6b9e32" fill-rule="evenodd" fill-opacity="1" stroke="#000000" stroke-opacity="1" stroke-width="2.24"/>
<circle clip-path="url(#clip592)" cx="978.338" cy="677.741" r="7.2" fill="#6b9e32" fill-rule="evenodd" fill-opacity="1" stroke="#000000" stroke-opacity="1" stroke-width="2.24"/>
<circle clip-path="url(#clip592)" cx="1015.53" cy="520.775" r="7.2" fill="#6b9e32" fill-rule="evenodd" fill-opacity="1" stroke="#000000" stroke-opacity="1" stroke-width="2.24"/>
<circle clip-path="url(#clip592)" cx="1052.72" cy="652.137" r="7.2" fill="#6b9e32" fill-rule="evenodd" fill-opacity="1" stroke="#000000" stroke-opacity="1" stroke-width="2.24"/>
<circle clip-path="url(#clip592)" cx="1089.91" cy="595.292" r="7.2" fill="#6b9e32" fill-rule="evenodd" fill-opacity="1" stroke="#000000" stroke-opacity="1" stroke-width="2.24"/>
<circle clip-path="url(#clip592)" cx="1127.1" cy="665.75" r="7.2" fill="#6b9e32" fill-rule="evenodd" fill-opacity="1" stroke="#000000" stroke-opacity="1" stroke-width="2.24"/>
</svg>
