<?xml version="1.0" encoding="utf-8"?>
<svg xmlns="http://www.w3.org/2000/svg" xmlns:xlink="http://www.w3.org/1999/xlink" width="300" height="300" viewBox="0 0 1200 1200">
<defs>
  <clipPath id="clip970">
    <rect x="0" y="0" width="1200" height="1200"/>
  </clipPath>
</defs>
<path clip-path="url(#clip970)" d="M0 1200 L1200 1200 L1200 0 L0 0  Z" fill="#ffffff" fill-rule="evenodd" fill-opacity="1"/>
<defs>
  <clipPath id="clip971">
    <rect x="240" y="120" width="841" height="841"/>
  </clipPath>
</defs>
<path clip-path="url(#clip970)" d="M225.456 984.237 L1152.76 984.237 L1152.76 47.2441 L225.456 47.2441  Z" fill="#ffffff" fill-rule="evenodd" fill-opacity="1"/>
<defs>
  <clipPath id="clip972">
    <rect x="225" y="47" width="928" height="938"/>
  </clipPath>
</defs>
<polyline clip-path="url(#clip972)" style="stroke:#808080; stroke-linecap:round; stroke-linejoin:round; stroke-width:2; stroke-opacity:0.1; fill:none" points="225.456,984.237 225.456,47.2441 "/>
<polyline clip-path="url(#clip972)" style="stroke:#808080; stroke-linecap:round; stroke-linejoin:round; stroke-width:2; stroke-opacity:0.1; fill:none" points="534.556,984.237 534.556,47.2441 "/>
<polyline clip-path="url(#clip972)" style="stroke:#808080; stroke-linecap:round; stroke-linejoin:round; stroke-width:2; stroke-opacity:0.1; fill:none" points="843.656,984.237 843.656,47.2441 "/>
<polyline clip-path="url(#clip972)" style="stroke:#808080; stroke-linecap:round; stroke-linejoin:round; stroke-width:2; stroke-opacity:0.1; fill:none" points="1152.76,984.237 1152.76,47.2441 "/>
<polyline clip-path="url(#clip972)" style="stroke:#808080; stroke-linecap:round; stroke-linejoin:round; stroke-width:2; stroke-opacity:0.1; fill:none" points="225.456,984.237 225.456,47.2441 "/>
<polyline clip-path="url(#clip972)" style="stroke:#808080; stroke-linecap:round; stroke-linejoin:round; stroke-width:2; stroke-opacity:0.1; fill:none" points="534.556,984.237 534.556,47.2441 "/>
<polyline clip-path="url(#clip972)" style="stroke:#808080; stroke-linecap:round; stroke-linejoin:round; stroke-width:2; stroke-opacity:0.1; fill:none" points="843.656,984.237 843.656,47.2441 "/>
<polyline clip-path="url(#clip972)" style="stroke:#808080; stroke-linecap:round; stroke-linejoin:round; stroke-width:2; stroke-opacity:0.1; fill:none" points="1152.76,984.237 1152.76,47.2441 "/>
<polyline clip-path="url(#clip970)" style="stroke:#000000; stroke-linecap:round; stroke-linejoin:round; stroke-width:4; stroke-opacity:1; fill:none" points="225.456,984.237 1152.76,984.237 "/>
<polyline clip-path="url(#clip970)" style="stroke:#000000; stroke-linecap:round; stroke-linejoin:round; stroke-width:4; stroke-opacity:1; fill:none" points="225.456,47.2441 1152.76,47.2441 "/>
<polyline clip-path="url(#clip970)" style="stroke:#000000; stroke-linecap:round; stroke-linejoin:round; stroke-width:4; stroke-opacity:1; fill:none" points="225.456,984.237 225.456,965.339 "/>
<polyline clip-path="url(#clip970)" style="stroke:#000000; stroke-linecap:round; stroke-linejoin:round; stroke-width:4; stroke-opacity:1; fill:none" points="534.556,984.237 534.556,965.339 "/>
<polyline clip-path="url(#clip970)" style="stroke:#000000; stroke-linecap:round; stroke-linejoin:round; stroke-width:4; stroke-opacity:1; fill:none" points="843.656,984.237 843.656,965.339 "/>
<polyline clip-path="url(#clip970)" style="stroke:#000000; stroke-linecap:round; stroke-linejoin:round; stroke-width:4; stroke-opacity:1; fill:none" points="1152.76,984.237 1152.76,965.339 "/>
<polyline clip-path="url(#clip970)" style="stroke:#000000; stroke-linecap:round; stroke-linejoin:round; stroke-width:4; stroke-opacity:1; fill:none" points="225.456,47.2441 225.456,66.1417 "/>
<polyline clip-path="url(#clip970)" style="stroke:#000000; stroke-linecap:round; stroke-linejoin:round; stroke-width:4; stroke-opacity:1; fill:none" points="534.556,47.2441 534.556,66.1417 "/>
<polyline clip-path="url(#clip970)" style="stroke:#000000; stroke-linecap:round; stroke-linejoin:round; stroke-width:4; stroke-opacity:1; fill:none" points="843.656,47.2441 843.656,66.1417 "/>
<polyline clip-path="url(#clip970)" style="stroke:#000000; stroke-linecap:round; stroke-linejoin:round; stroke-width:4; stroke-opacity:1; fill:none" points="1152.76,47.2441 1152.76,66.1417 "/>
<g clip-path="url(#clip970)">
<text style="fill:#000000; fill-opacity:1; font-family:Book Antiqua,Palatino,Palatino Linotype,Palatino LT STD,Georgia,serif; font-size:51px; font-weight:bold; text-anchor:middle;" transform="rotate(0, 225.456, 1038.21)" x="225.456" y="1038.21">0</text>
</g>
<g clip-path="url(#clip970)">
<text style="fill:#000000; fill-opacity:1; font-family:Book Antiqua,Palatino,Palatino Linotype,Palatino LT STD,Georgia,serif; font-size:51px; font-weight:bold; text-anchor:middle;" transform="rotate(0, 534.556, 1038.21)" x="534.556" y="1038.21">10</text>
</g>
<g clip-path="url(#clip970)">
<text style="fill:#000000; fill-opacity:1; font-family:Book Antiqua,Palatino,Palatino Linotype,Palatino LT STD,Georgia,serif; font-size:51px; font-weight:bold; text-anchor:middle;" transform="rotate(0, 843.656, 1038.21)" x="843.656" y="1038.21">20</text>
</g>
<g clip-path="url(#clip970)">
<text style="fill:#000000; fill-opacity:1; font-family:Book Antiqua,Palatino,Palatino Linotype,Palatino LT STD,Georgia,serif; font-size:51px; font-weight:bold; text-anchor:middle;" transform="rotate(0, 1152.76, 1038.21)" x="1152.76" y="1038.21">30</text>
</g>
<path clip-path="url(#clip970)" d="M665.934 1073.13 Q665.934 1074.03 665.515 1074.25 Q665.096 1074.45 663.937 1074.45 L657.753 1074.45 L652.858 1093.9 Q652.472 1095.61 652.472 1097.06 Q652.472 1098.67 652.955 1099.37 Q653.47 1100.08 654.533 1100.08 Q656.626 1100.08 658.881 1098.18 Q661.167 1096.28 663.1 1091.65 Q663.357 1091.03 663.486 1090.9 Q663.647 1090.74 664.066 1090.74 Q664.871 1090.74 664.871 1091.39 Q664.871 1091.61 664.42 1092.64 Q664.001 1093.67 663.067 1095.19 Q662.166 1096.7 660.974 1098.12 Q659.815 1099.54 658.043 1100.57 Q656.272 1101.56 654.372 1101.56 Q651.699 1101.56 649.992 1099.86 Q648.317 1098.15 648.317 1095.48 Q648.317 1094.61 648.993 1091.84 Q649.67 1089.04 653.341 1074.45 L647.512 1074.45 Q646.707 1074.45 646.385 1074.42 Q646.095 1074.38 645.87 1074.22 Q645.676 1074.03 645.676 1073.64 Q645.676 1073.03 645.934 1072.77 Q646.192 1072.48 646.514 1072.45 Q646.868 1072.39 647.673 1072.39 L653.857 1072.39 L656.433 1061.92 Q656.691 1060.89 657.335 1060.31 Q658.011 1059.7 658.398 1059.63 Q658.784 1059.54 659.074 1059.54 Q659.943 1059.54 660.459 1060.02 Q660.974 1060.47 660.974 1061.31 Q660.974 1061.76 658.269 1072.39 L664.066 1072.39 Q664.807 1072.39 665.096 1072.42 Q665.418 1072.45 665.676 1072.61 Q665.934 1072.77 665.934 1073.13 Z" fill="#000000" fill-rule="nonzero" fill-opacity="1" /><path clip-path="url(#clip970)" d="M669.249 1116.38 Q669.249 1116.06 669.507 1115.35 L692.792 1053.13 Q692.792 1053.06 692.953 1052.71 Q693.114 1052.35 693.21 1052.13 Q693.307 1051.87 693.5 1051.68 Q693.726 1051.48 693.983 1051.48 Q694.627 1051.48 694.627 1052.29 Q694.627 1052.35 694.434 1053.13 L671.085 1115.41 Q670.699 1116.54 670.441 1116.86 Q670.215 1117.18 669.829 1117.18 Q669.249 1117.18 669.249 1116.38 Z" fill="#000000" fill-rule="nonzero" fill-opacity="1" /><path clip-path="url(#clip970)" d="M726.197 1077.35 Q726.197 1079.15 725.295 1080.12 Q724.393 1081.05 723.169 1081.05 Q722.171 1081.05 721.623 1080.47 Q721.108 1079.89 721.108 1079.12 Q721.108 1077.99 722.01 1077.09 Q722.944 1076.19 724.296 1076.15 Q723.846 1074.96 722.654 1074.25 Q721.462 1073.51 720.4 1073.32 Q719.369 1073.13 718.338 1073.13 Q716.309 1073.13 714.763 1073.77 Q713.218 1074.42 712.445 1075.41 Q711.672 1076.38 711.317 1077.31 Q710.963 1078.25 710.963 1079.05 Q710.963 1079.76 711.124 1080.34 Q711.317 1080.89 711.768 1081.31 Q712.219 1081.69 712.541 1081.95 Q712.896 1082.21 713.668 1082.43 Q714.441 1082.66 714.763 1082.76 Q715.086 1082.82 715.987 1083.01 Q717.855 1083.4 718.693 1083.63 Q719.53 1083.82 720.625 1084.37 Q721.752 1084.91 722.59 1085.78 Q724.618 1087.81 724.618 1090.61 Q724.618 1091.65 724.264 1092.9 Q723.942 1094.16 723.008 1095.74 Q722.074 1097.31 720.657 1098.57 Q719.24 1099.83 716.792 1100.7 Q714.377 1101.56 711.35 1101.56 Q707.131 1101.56 704.522 1099.79 Q701.913 1097.99 701.913 1095.16 Q701.913 1093.09 703.041 1091.97 Q704.168 1090.81 705.617 1090.81 Q706.712 1090.81 707.388 1091.42 Q708.065 1092 708.065 1093.09 Q708.065 1094.58 706.873 1095.7 Q705.681 1096.83 703.91 1096.6 Q705.424 1100.08 711.414 1100.08 Q713.668 1100.08 715.408 1099.5 Q717.179 1098.89 718.145 1098.05 Q719.143 1097.18 719.788 1096.12 Q720.432 1095.06 720.625 1094.25 Q720.85 1093.45 720.85 1092.84 Q720.85 1091.77 720.432 1090.97 Q720.013 1090.16 719.433 1089.71 Q718.886 1089.23 717.823 1088.84 Q716.792 1088.42 716.052 1088.26 Q715.311 1088.1 713.991 1087.84 Q713.379 1087.72 712.992 1087.65 Q712.606 1087.56 711.801 1087.3 Q711.028 1087.01 710.48 1086.72 Q709.965 1086.43 709.288 1085.91 Q708.612 1085.4 708.193 1084.79 Q707.775 1084.17 707.485 1083.27 Q707.195 1082.37 707.195 1081.31 Q707.195 1080.34 707.485 1079.18 Q707.807 1078.02 708.612 1076.67 Q709.45 1075.32 710.641 1074.22 Q711.833 1073.13 713.83 1072.42 Q715.858 1071.68 718.338 1071.68 Q721.945 1071.68 724.071 1073.35 Q726.197 1074.99 726.197 1077.35 Z" fill="#000000" fill-rule="nonzero" fill-opacity="1" /><polyline clip-path="url(#clip972)" style="stroke:#808080; stroke-linecap:round; stroke-linejoin:round; stroke-width:2; stroke-opacity:0.1; fill:none" points="225.456,984.237 1152.76,984.237 "/>
<polyline clip-path="url(#clip972)" style="stroke:#808080; stroke-linecap:round; stroke-linejoin:round; stroke-width:2; stroke-opacity:0.1; fill:none" points="225.456,716.525 1152.76,716.525 "/>
<polyline clip-path="url(#clip972)" style="stroke:#808080; stroke-linecap:round; stroke-linejoin:round; stroke-width:2; stroke-opacity:0.1; fill:none" points="225.456,448.812 1152.76,448.812 "/>
<polyline clip-path="url(#clip972)" style="stroke:#808080; stroke-linecap:round; stroke-linejoin:round; stroke-width:2; stroke-opacity:0.1; fill:none" points="225.456,181.1 1152.76,181.1 "/>
<polyline clip-path="url(#clip972)" style="stroke:#808080; stroke-linecap:round; stroke-linejoin:round; stroke-width:2; stroke-opacity:0.1; fill:none" points="225.456,984.237 1152.76,984.237 "/>
<polyline clip-path="url(#clip972)" style="stroke:#808080; stroke-linecap:round; stroke-linejoin:round; stroke-width:2; stroke-opacity:0.1; fill:none" points="225.456,716.525 1152.76,716.525 "/>
<polyline clip-path="url(#clip972)" style="stroke:#808080; stroke-linecap:round; stroke-linejoin:round; stroke-width:2; stroke-opacity:0.1; fill:none" points="225.456,448.812 1152.76,448.812 "/>
<polyline clip-path="url(#clip972)" style="stroke:#808080; stroke-linecap:round; stroke-linejoin:round; stroke-width:2; stroke-opacity:0.1; fill:none" points="225.456,181.1 1152.76,181.1 "/>
<polyline clip-path="url(#clip970)" style="stroke:#000000; stroke-linecap:round; stroke-linejoin:round; stroke-width:4; stroke-opacity:1; fill:none" points="225.456,984.237 225.456,47.2441 "/>
<polyline clip-path="url(#clip970)" style="stroke:#000000; stroke-linecap:round; stroke-linejoin:round; stroke-width:4; stroke-opacity:1; fill:none" points="1152.76,984.237 1152.76,47.2441 "/>
<polyline clip-path="url(#clip970)" style="stroke:#000000; stroke-linecap:round; stroke-linejoin:round; stroke-width:4; stroke-opacity:1; fill:none" points="225.456,984.237 244.354,984.237 "/>
<polyline clip-path="url(#clip970)" style="stroke:#000000; stroke-linecap:round; stroke-linejoin:round; stroke-width:4; stroke-opacity:1; fill:none" points="225.456,716.525 244.354,716.525 "/>
<polyline clip-path="url(#clip970)" style="stroke:#000000; stroke-linecap:round; stroke-linejoin:round; stroke-width:4; stroke-opacity:1; fill:none" points="225.456,448.812 244.354,448.812 "/>
<polyline clip-path="url(#clip970)" style="stroke:#000000; stroke-linecap:round; stroke-linejoin:round; stroke-width:4; stroke-opacity:1; fill:none" points="225.456,181.1 244.354,181.1 "/>
<polyline clip-path="url(#clip970)" style="stroke:#000000; stroke-linecap:round; stroke-linejoin:round; stroke-width:4; stroke-opacity:1; fill:none" points="1152.76,984.237 1133.86,984.237 "/>
<polyline clip-path="url(#clip970)" style="stroke:#000000; stroke-linecap:round; stroke-linejoin:round; stroke-width:4; stroke-opacity:1; fill:none" points="1152.76,716.525 1133.86,716.525 "/>
<polyline clip-path="url(#clip970)" style="stroke:#000000; stroke-linecap:round; stroke-linejoin:round; stroke-width:4; stroke-opacity:1; fill:none" points="1152.76,448.812 1133.86,448.812 "/>
<polyline clip-path="url(#clip970)" style="stroke:#000000; stroke-linecap:round; stroke-linejoin:round; stroke-width:4; stroke-opacity:1; fill:none" points="1152.76,181.1 1133.86,181.1 "/>
<g clip-path="url(#clip970)">
<text style="fill:#000000; fill-opacity:1; font-family:Book Antiqua,Palatino,Palatino Linotype,Palatino LT STD,Georgia,serif; font-size:51px; font-weight:bold; text-anchor:middle;" transform="rotate(0, 175.738, 1001.74)" x="175.738" y="1001.74">0.0</text>
</g>
<g clip-path="url(#clip970)">
<text style="fill:#000000; fill-opacity:1; font-family:Book Antiqua,Palatino,Palatino Linotype,Palatino LT STD,Georgia,serif; font-size:51px; font-weight:bold; text-anchor:middle;" transform="rotate(0, 175.738, 734.025)" x="175.738" y="734.025">0.1</text>
</g>
<g clip-path="url(#clip970)">
<text style="fill:#000000; fill-opacity:1; font-family:Book Antiqua,Palatino,Palatino Linotype,Palatino LT STD,Georgia,serif; font-size:51px; font-weight:bold; text-anchor:middle;" transform="rotate(0, 175.738, 466.312)" x="175.738" y="466.312">0.2</text>
</g>
<g clip-path="url(#clip970)">
<text style="fill:#000000; fill-opacity:1; font-family:Book Antiqua,Palatino,Palatino Linotype,Palatino LT STD,Georgia,serif; font-size:51px; font-weight:bold; text-anchor:middle;" transform="rotate(0, 175.738, 198.6)" x="175.738" y="198.6">0.3</text>
</g>
<path clip-path="url(#clip970)" d="M91.4893 709.501 Q81.4089 709.501 74.388 703.059 Q67.3349 696.586 67.3349 687.601 Q67.3349 678.551 74.388 672.11 Q81.4411 665.636 91.4893 665.636 Q101.441 665.636 108.365 672.11 Q115.289 678.583 115.289 687.601 Q115.289 696.489 108.397 702.995 Q101.505 709.501 91.4893 709.501 M90.5554 702.705 Q96.6745 702.705 101.377 701.256 Q106.046 699.807 108.591 697.488 Q111.135 695.137 112.359 692.625 Q113.583 690.113 113.583 687.536 Q113.583 685.024 112.391 682.576 Q111.199 680.097 108.687 677.746 Q106.175 675.395 101.473 673.913 Q96.7711 672.432 90.5554 672.432 Q85.7245 672.432 81.8598 673.462 Q77.9629 674.493 75.6118 676.103 Q73.2608 677.713 71.7149 679.807 Q70.169 681.868 69.5893 683.833 Q68.9774 685.765 68.9774 687.601 Q68.9774 689.919 70.008 692.335 Q71.0386 694.75 73.3252 697.198 Q75.5796 699.613 80.0562 701.159 Q84.5006 702.705 90.5554 702.705 Z" fill="#000000" fill-rule="nonzero" fill-opacity="1" /><path clip-path="url(#clip970)" d="M87.4636 659.278 L85.4024 659.278 L84.6939 649.584 L106.594 649.584 Q108.172 649.584 109.106 649.455 Q110.008 649.326 111.07 648.811 Q112.133 648.264 112.616 647.04 Q113.099 645.784 113.099 643.787 Q113.099 640.212 110.169 638.022 Q107.238 635.8 102.89 635.8 L91.1351 635.8 Q88.6874 635.8 88.0755 636.67 Q87.4636 637.539 87.4636 640.953 L85.4024 640.953 L84.6939 631.259 L108.108 631.259 Q110.555 631.259 111.199 630.422 Q111.811 629.552 111.811 626.106 L113.84 626.106 L114.581 635.607 L108.623 635.607 Q114.549 638.376 114.581 644.109 Q114.581 647.008 113.84 649.004 Q113.099 650.969 112.198 651.967 Q111.264 652.966 109.492 653.513 Q107.721 654.029 106.626 654.093 Q105.531 654.157 103.405 654.157 L93.5183 654.157 Q89.0417 654.157 88.2687 654.801 Q87.4636 655.446 87.4636 659.278 Z" fill="#000000" fill-rule="nonzero" fill-opacity="1" /><path clip-path="url(#clip970)" d="M87.4636 623.833 L86.0143 623.833 Q85.8855 620.806 83.7599 618.809 Q81.6021 616.78 78.9612 616.104 Q76.3204 615.395 73.2608 615.331 L73.2608 613.689 L85.4024 613.689 L85.4024 604.252 L87.4636 604.252 L87.4636 613.689 L105.789 613.689 Q112.906 613.689 112.906 609.244 Q112.906 607.344 110.974 606.088 Q109.009 604.832 105.531 604.832 L101.892 604.832 L101.892 603.189 L105.66 603.189 Q109.235 603.189 111.908 604.832 Q114.581 606.474 114.581 609.727 Q114.581 610.919 114.259 612.11 Q113.969 613.27 113.196 614.816 Q112.391 616.329 110.459 617.296 Q108.494 618.23 105.66 618.23 L87.4636 618.23 L87.4636 623.833 Z" fill="#000000" fill-rule="nonzero" fill-opacity="1" /><path clip-path="url(#clip970)" d="M124.597 602.994 Q124.597 599.484 124.146 598.678 Q123.727 597.841 121.634 597.841 L90.7486 597.841 Q88.5586 597.841 88.0111 598.678 Q87.4636 599.484 87.4636 602.994 L85.4024 602.994 L84.6939 593.493 L89.0417 593.493 Q84.6939 589.532 84.6939 584.25 Q84.6939 578.646 89.0417 574.556 Q93.3895 570.466 99.6052 570.466 Q105.885 570.466 110.233 574.814 Q114.581 579.162 114.581 585.184 Q114.581 588.469 112.906 590.691 Q111.199 592.881 109.943 593.3 L110.555 593.3 L121.634 593.3 Q123.76 593.3 124.178 592.463 Q124.597 591.625 124.597 588.147 L126.626 588.147 Q126.433 595.071 126.433 595.587 Q126.433 596.231 126.626 602.994 L124.597 602.994 M106.336 593.3 Q107.335 593.3 107.689 593.171 Q108.043 593.01 109.106 592.366 Q113.099 589.757 113.099 585.506 Q113.099 585.474 113.099 585.442 Q113.099 581.674 109.267 578.807 Q105.402 575.941 99.6052 575.941 Q94.0658 575.941 90.2011 578.55 Q86.3364 581.158 86.3364 584.765 Q86.3364 587.342 87.7212 589.596 Q89.1061 591.851 91.6181 593.3 L106.336 593.3 Z" fill="#000000" fill-rule="nonzero" fill-opacity="1" /><path clip-path="url(#clip970)" d="M87.4636 562.533 L85.4024 562.533 L84.6939 552.839 L106.594 552.839 Q108.172 552.839 109.106 552.71 Q110.008 552.582 111.07 552.066 Q112.133 551.519 112.616 550.295 Q113.099 549.039 113.099 547.042 Q113.099 543.467 110.169 541.277 Q107.238 539.055 102.89 539.055 L91.1351 539.055 Q88.6874 539.055 88.0755 539.925 Q87.4636 540.794 87.4636 544.208 L85.4024 544.208 L84.6939 534.514 L108.108 534.514 Q110.555 534.514 111.199 533.677 Q111.811 532.807 111.811 529.361 L113.84 529.361 L114.581 538.862 L108.623 538.862 Q114.549 541.632 114.581 547.364 Q114.581 550.263 113.84 552.26 Q113.099 554.224 112.198 555.223 Q111.264 556.221 109.492 556.768 Q107.721 557.284 106.626 557.348 Q105.531 557.413 103.405 557.413 L93.5183 557.413 Q89.0417 557.413 88.2687 558.057 Q87.4636 558.701 87.4636 562.533 Z" fill="#000000" fill-rule="nonzero" fill-opacity="1" /><path clip-path="url(#clip970)" d="M87.4636 527.089 L86.0143 527.089 Q85.8855 524.061 83.7599 522.064 Q81.6021 520.035 78.9612 519.359 Q76.3204 518.651 73.2608 518.586 L73.2608 516.944 L85.4024 516.944 L85.4024 507.507 L87.4636 507.507 L87.4636 516.944 L105.789 516.944 Q112.906 516.944 112.906 512.499 Q112.906 510.599 110.974 509.343 Q109.009 508.087 105.531 508.087 L101.892 508.087 L101.892 506.445 L105.66 506.445 Q109.235 506.445 111.908 508.087 Q114.581 509.73 114.581 512.982 Q114.581 514.174 114.259 515.366 Q113.969 516.525 113.196 518.071 Q112.391 519.585 110.459 520.551 Q108.494 521.485 105.66 521.485 L87.4636 521.485 L87.4636 527.089 Z" fill="#000000" fill-rule="nonzero" fill-opacity="1" /><path clip-path="url(#clip970)" d="M129.396 493.047 Q129.074 493.047 128.365 492.789 L66.1433 469.504 Q66.0789 469.504 65.7246 469.343 Q65.3704 469.182 65.1449 469.086 Q64.8873 468.989 64.694 468.796 Q64.5008 468.57 64.5008 468.313 Q64.5008 467.669 65.306 467.669 Q65.3704 467.669 66.1433 467.862 L128.429 491.211 Q129.557 491.598 129.879 491.855 Q130.201 492.081 130.201 492.467 Q130.201 493.047 129.396 493.047 Z" fill="#000000" fill-rule="nonzero" fill-opacity="1" /><path clip-path="url(#clip970)" d="M124.597 451.668 Q124.597 448.158 124.146 447.353 Q123.727 446.515 121.634 446.515 L90.7486 446.515 Q88.5586 446.515 88.0111 447.353 Q87.4636 448.158 87.4636 451.668 L85.4024 451.668 L84.6939 442.168 L89.0417 442.168 Q84.6939 438.206 84.6939 432.924 Q84.6939 427.321 89.0417 423.231 Q93.3895 419.14 99.6052 419.14 Q105.885 419.14 110.233 423.488 Q114.581 427.836 114.581 433.858 Q114.581 437.143 112.906 439.366 Q111.199 441.556 109.943 441.974 L110.555 441.974 L121.634 441.974 Q123.76 441.974 124.178 441.137 Q124.597 440.3 124.597 436.821 L126.626 436.821 Q126.433 443.746 126.433 444.261 Q126.433 444.905 126.626 451.668 L124.597 451.668 M106.336 441.974 Q107.335 441.974 107.689 441.846 Q108.043 441.684 109.106 441.04 Q113.099 438.432 113.099 434.181 Q113.099 434.148 113.099 434.116 Q113.099 430.348 109.267 427.482 Q105.402 424.615 99.6052 424.615 Q94.0658 424.615 90.2011 427.224 Q86.3364 429.833 86.3364 433.44 Q86.3364 436.016 87.7212 438.271 Q89.1061 440.525 91.6181 441.974 L106.336 441.974 Z" fill="#000000" fill-rule="nonzero" fill-opacity="1" /><path clip-path="url(#clip970)" d="M112.777 414.433 Q111.715 415.432 110.33 415.432 Q108.945 415.432 107.947 414.433 Q106.916 413.435 106.916 411.921 Q106.916 410.472 107.882 409.506 Q108.816 408.507 110.362 408.507 Q111.876 408.507 112.874 409.57 Q113.84 410.601 113.84 411.921 Q113.84 413.435 112.777 414.433 Z" fill="#000000" fill-rule="nonzero" fill-opacity="1" /><path clip-path="url(#clip970)" d="M87.4636 386.824 L85.4024 386.824 L84.6939 377.13 L106.594 377.13 Q108.172 377.13 109.106 377.001 Q110.008 376.873 111.07 376.357 Q112.133 375.81 112.616 374.586 Q113.099 373.33 113.099 371.333 Q113.099 367.758 110.169 365.568 Q107.238 363.346 102.89 363.346 L91.1351 363.346 Q88.6874 363.346 88.0755 364.216 Q87.4636 365.085 87.4636 368.499 L85.4024 368.499 L84.6939 358.805 L108.108 358.805 Q110.555 358.805 111.199 357.968 Q111.811 357.098 111.811 353.652 L113.84 353.652 L114.581 363.153 L108.623 363.153 Q114.549 365.923 114.581 371.655 Q114.581 374.554 113.84 376.551 Q113.099 378.515 112.198 379.514 Q111.264 380.512 109.492 381.059 Q107.721 381.575 106.626 381.639 Q105.531 381.704 103.405 381.704 L93.5183 381.704 Q89.0417 381.704 88.2687 382.348 Q87.4636 382.992 87.4636 386.824 Z" fill="#000000" fill-rule="nonzero" fill-opacity="1" /><path clip-path="url(#clip970)" d="M112.777 349.589 Q111.715 350.588 110.33 350.588 Q108.945 350.588 107.947 349.589 Q106.916 348.591 106.916 347.077 Q106.916 345.628 107.882 344.662 Q108.816 343.663 110.362 343.663 Q111.876 343.663 112.874 344.726 Q113.84 345.757 113.84 347.077 Q113.84 348.591 112.777 349.589 Z" fill="#000000" fill-rule="nonzero" fill-opacity="1" /><polyline clip-path="url(#clip972)" style="stroke:#ffa500; stroke-linecap:round; stroke-linejoin:round; stroke-width:12; stroke-opacity:0.75; fill:none" points="225.456,984.237 227.002,955.159 228.547,926.819 230.093,899.39 231.638,872.857 233.184,847.206 234.729,822.421 236.275,798.487 237.82,775.389 239.366,753.112 240.911,731.64 242.457,710.958 244.002,691.051 245.548,671.905 247.093,653.503 248.639,635.831 250.184,618.874 251.73,602.617 253.275,587.045 254.821,572.144 256.366,557.898 257.912,544.293 259.457,531.315 261.003,518.95 262.548,507.182 264.094,495.998 265.639,485.384 267.185,475.326 268.73,465.81 270.276,456.823 271.821,448.351 273.367,440.38 274.912,432.899 276.458,425.893 278.003,419.349 279.549,413.256 281.094,407.6 282.64,402.369 284.185,397.552 285.731,393.135 287.276,389.107 288.822,385.456 290.367,382.172 291.913,379.241 293.458,376.654 295.004,374.399 296.549,372.466 298.095,370.844 299.64,369.522 301.186,368.49 302.731,367.739 304.277,367.257 305.822,367.037 307.368,367.067 308.913,367.338 310.459,367.842 312.004,368.57 313.55,369.512 315.095,370.66 316.641,372.006 318.186,373.541 319.732,375.257 321.277,377.147 322.823,379.202 324.368,381.415 325.914,383.779 327.459,386.286 329.005,388.929 330.55,391.702 332.096,394.597 333.641,397.609 335.187,400.73 336.732,403.955 338.278,407.277 339.823,410.691 341.369,414.191 342.914,417.771 344.46,421.425 346.005,425.149 347.551,428.938 349.096,432.786 350.642,436.688 352.187,440.64 353.733,444.637 355.278,448.675 356.824,452.749 358.369,456.856 359.915,460.991 361.46,465.15 363.006,469.33 364.551,473.527 366.097,477.738 367.642,481.958 369.188,486.186 370.733,490.417 372.279,494.648 373.824,498.878 375.37,503.102 376.915,507.318 378.461,511.524 380.006,515.716 381.552,519.894 383.097,524.053 384.643,528.193 386.188,532.311 387.734,536.405 389.279,540.472 390.825,544.512 392.37,548.523 393.916,552.502 395.461,556.449 397.007,560.361 398.552,564.238 400.098,568.077 401.643,571.879 403.189,575.641 404.734,579.362 406.28,583.042 407.825,586.679 409.371,590.272 410.916,593.822 412.462,597.326 414.007,600.784 415.553,604.195 417.098,607.559 418.644,610.876 420.189,614.144 421.735,617.364 423.28,620.534 424.826,623.655 426.371,626.726 427.917,629.748 429.462,632.718 431.008,635.639 432.553,638.509 434.099,641.328 435.644,644.097 437.19,646.814 438.735,649.482 440.281,652.098 441.826,654.664 443.372,657.179 444.917,659.644 446.463,662.059 448.008,664.424 449.554,666.739 451.099,669.005 452.645,671.222 454.19,673.39 455.736,675.509 457.281,677.58 458.827,679.603 460.372,681.579 461.918,683.507 463.463,685.39 465.009,687.225 466.554,689.016 468.1,690.761 469.645,692.461 471.191,694.117 472.736,695.729 474.282,697.298 475.827,698.824 477.373,700.308 478.918,701.75 480.464,703.151 482.009,704.512 483.555,705.833 485.1,707.114 486.646,708.357 488.191,709.562 489.737,710.728 491.282,711.858 492.828,712.952 494.373,714.009 495.919,715.032 497.464,716.019 499.01,716.973 500.555,717.894 502.101,718.781 503.646,719.637 505.192,720.461 506.737,721.254 508.283,722.016 509.828,722.749 511.374,723.453 512.919,724.128 514.465,724.775 516.01,725.395 517.556,725.988 519.101,726.555 520.647,727.096 522.192,727.613 523.738,728.105 525.283,728.573 526.829,729.017 528.374,729.439 529.92,729.839 531.465,730.217 533.011,730.574 534.556,730.911 536.102,731.227 537.647,731.524 539.193,731.802 540.738,732.062 542.284,732.304 543.829,732.528 545.375,732.735 546.92,732.926 548.466,733.1 550.011,733.26 551.557,733.404 553.102,733.533 554.648,733.649 556.193,733.751 557.739,733.839 559.284,733.915 560.83,733.978 562.375,734.03 563.921,734.069 565.466,734.098 567.012,734.116 568.557,734.123 570.103,734.121 571.648,734.109 573.194,734.087 574.739,734.057 576.285,734.018 577.83,733.971 579.376,733.916 580.921,733.854 582.467,733.784 584.012,733.707 585.558,733.624 587.103,733.535 588.649,733.439 590.194,733.338 591.74,733.232 593.285,733.12 594.831,733.003 596.376,732.882 597.922,732.757 599.467,732.627 601.013,732.494 602.558,732.356 604.104,732.216 605.649,732.072 607.195,731.925 608.74,731.776 610.286,731.624 611.831,731.469 613.377,731.313 614.922,731.154 616.468,730.994 618.013,730.832 619.559,730.669 621.104,730.504 622.65,730.339 624.195,730.172 625.741,730.005 627.286,729.836 628.832,729.668 630.377,729.499 631.923,729.329 633.468,729.16 635.014,728.991 636.559,728.821 638.105,728.652 639.65,728.483 641.196,728.315 642.741,728.147 644.287,727.98 645.832,727.814 647.378,727.648 648.923,727.483 650.469,727.319 652.014,727.157 653.56,726.995 655.105,726.835 656.651,726.676 658.196,726.518 659.742,726.361 661.287,726.206 662.833,726.053 664.378,725.901 665.924,725.75 667.469,725.601 669.015,725.454 670.56,725.309 672.106,725.165 673.651,725.023 675.197,724.883 676.742,724.745 678.288,724.609 679.833,724.474 681.379,724.342 682.924,724.211 684.47,724.083 686.015,723.956 687.561,723.831 689.106,723.709 690.652,723.588 692.197,723.469 693.743,723.352 695.288,723.238 696.834,723.125 698.379,723.015 699.925,722.906 701.47,722.8 703.016,722.695 704.561,722.593 706.107,722.492 707.652,722.394 709.198,722.297 710.743,722.203 712.289,722.11 713.834,722.02 715.38,721.931 716.925,721.845 718.471,721.76 720.016,721.678 721.562,721.597 723.107,721.518 724.653,721.441 726.198,721.366 727.744,721.293 729.289,721.221 730.835,721.152 732.38,721.084 733.926,721.018 735.471,720.953 737.017,720.891 738.562,720.83 740.108,720.771 741.653,720.713 743.199,720.657 744.744,720.603 746.29,720.55 747.835,720.499 749.381,720.45 750.926,720.402 752.472,720.355 754.017,720.31 755.563,720.267 757.108,720.224 758.654,720.184 760.199,720.144 761.745,720.106 763.29,720.07 764.836,720.034 766.381,720 767.927,719.967 769.472,719.936 771.018,719.905 772.563,719.876 774.109,719.848 775.654,719.821 777.2,719.796 778.745,719.771 780.291,719.747 781.836,719.725 783.382,719.703 784.927,719.683 786.473,719.663 788.018,719.644 789.564,719.627 791.109,719.61 792.655,719.594 794.2,719.579 795.746,719.565 797.291,719.552 798.837,719.539 800.382,719.527 801.928,719.516 803.473,719.506 805.019,719.496 806.564,719.487 808.11,719.479 809.655,719.472 811.201,719.465 812.746,719.458 814.292,719.453 815.837,719.448 817.383,719.443 818.928,719.439 820.474,719.436 822.019,719.433 823.565,719.43 825.11,719.428 826.656,719.427 828.201,719.426 829.747,719.425 831.292,719.425 832.838,719.425 834.383,719.425 835.929,719.426 837.474,719.427 839.02,719.429 840.565,719.431 842.111,719.433 843.656,719.436 845.202,719.439 846.747,719.442 848.293,719.445 849.838,719.449 851.384,719.453 852.929,719.457 854.475,719.461 856.02,719.465 857.566,719.47 859.111,719.475 860.657,719.48 862.202,719.485 863.748,719.491 865.293,719.496 866.839,719.502 868.384,719.508 869.93,719.513 871.475,719.519 873.021,719.526 874.566,719.532 876.112,719.538 877.657,719.544 879.203,719.551 880.748,719.557 882.294,719.564 883.839,719.57 885.385,719.577 886.93,719.584 888.476,719.59 890.021,719.597 891.567,719.604 893.112,719.611 894.658,719.617 896.203,719.624 897.749,719.631 899.294,719.638 900.84,719.645 902.385,719.651 903.931,719.658 905.476,719.665 907.022,719.672 908.567,719.678 910.113,719.685 911.658,719.691 913.204,719.698 914.749,719.704 916.295,719.711 917.84,719.717 919.385,719.724 920.931,719.73 922.476,719.736 924.022,719.742 925.567,719.749 927.113,719.755 928.658,719.761 930.204,719.767 931.749,719.773 933.295,719.778 934.84,719.784 936.386,719.79 937.931,719.795 939.477,719.801 941.022,719.806 942.568,719.812 944.113,719.817 945.659,719.822 947.204,719.827 948.75,719.832 950.295,719.837 951.841,719.842 953.386,719.847 954.932,719.852 956.477,719.857 958.023,719.861 959.568,719.866 961.114,719.87 962.659,719.874 964.205,719.879 965.75,719.883 967.296,719.887 968.841,719.891 970.387,719.895 971.932,719.899 973.478,719.902 975.023,719.906 976.569,719.91 978.114,719.913 979.66,719.917 981.205,719.92 982.751,719.923 984.296,719.927 985.842,719.93 987.387,719.933 988.933,719.936 990.478,719.939 992.024,719.942 993.569,719.944 995.115,719.947 996.66,719.95 998.206,719.952 999.751,719.955 1001.3,719.957 1002.84,719.96 1004.39,719.962 1005.93,719.964 1007.48,719.966 1009.02,719.968 1010.57,719.97 1012.12,719.972 1013.66,719.974 1015.21,719.976 1016.75,719.978 1018.3,719.98 1019.84,719.981 1021.39,719.983 1022.93,719.985 1024.48,719.986 1026.02,719.988 1027.57,719.989 1029.12,719.99 1030.66,719.992 1032.21,719.993 1033.75,719.994 1035.3,719.995 1036.84,719.996 1038.39,719.997 1039.93,719.998 1041.48,719.999 1043.03,720 1044.57,720.001 1046.12,720.002 1047.66,720.003 1049.21,720.004 1050.75,720.004 1052.3,720.005 1053.84,720.006 1055.39,720.006 1056.93,720.007 1058.48,720.008 1060.03,720.008 1061.57,720.009 1063.12,720.009 1064.66,720.01 1066.21,720.01 1067.75,720.01 1069.3,720.011 1070.84,720.011 1072.39,720.011 1073.94,720.012 1075.48,720.012 1077.03,720.012 1078.57,720.012 1080.12,720.012 1081.66,720.013 1083.21,720.013 1084.75,720.013 1086.3,720.013 1087.84,720.013 1089.39,720.013 1090.94,720.013 1092.48,720.013 1094.03,720.013 1095.57,720.013 1097.12,720.013 1098.66,720.013 1100.21,720.013 1101.75,720.013 1103.3,720.013 1104.85,720.013 1106.39,720.013 1107.94,720.013 1109.48,720.012 1111.03,720.012 1112.57,720.012 1114.12,720.012 1115.66,720.012 1117.21,720.012 1118.75,720.012 1120.3,720.011 1121.85,720.011 1123.39,720.011 1124.94,720.011 1126.48,720.011 1128.03,720.01 1129.57,720.01 1131.12,720.01 1132.66,720.01 1134.21,720.009 1135.76,720.009 1137.3,720.009 1138.85,720.009 1140.39,720.008 1141.94,720.008 1143.48,720.008 1145.03,720.008 1146.57,720.007 1148.12,720.007 1149.66,720.007 1151.21,720.007 1152.76,720.006 "/>
<polyline clip-path="url(#clip972)" style="stroke:#0000ff; stroke-linecap:round; stroke-linejoin:round; stroke-width:12; stroke-opacity:0.5; fill:none" points="225.456,984.237 227.002,955.127 228.547,926.874 230.093,899.663 231.638,873.443 233.184,848.185 234.729,823.846 236.275,800.408 237.82,777.806 239.366,756.218 240.911,735.42 242.457,715.425 244.002,696.327 245.548,678.013 247.093,660.494 248.639,643.646 250.184,627.581 251.73,612.244 253.275,597.528 254.821,583.61 256.366,570.414 257.912,557.801 259.457,545.803 261.003,534.345 262.548,523.561 264.094,513.316 265.639,503.652 267.185,494.596 268.73,486.068 270.276,478.003 271.821,470.405 273.367,463.351 274.912,456.763 276.458,450.715 278.003,445.146 279.549,440.008 281.094,435.294 282.64,430.938 284.185,426.946 285.731,423.36 287.276,420.152 288.822,417.372 290.367,414.745 291.913,412.533 293.458,410.641 295.004,409.101 296.549,407.792 298.095,406.944 299.64,406.199 301.186,405.599 302.731,405.414 304.277,405.439 305.822,405.776 307.368,406.093 308.913,406.885 310.459,407.76 312.004,408.978 313.55,410.572 315.095,412.063 316.641,413.761 318.186,415.604 319.732,417.477 321.277,419.677 322.823,422.103 324.368,424.743 325.914,427.402 327.459,430.149 329.005,432.983 330.55,436.051 332.096,439.154 333.641,442.35 335.187,445.456 336.732,448.861 338.278,452.289 339.823,455.621 341.369,459.006 342.914,462.583 344.46,466.349 346.005,469.932 347.551,473.811 349.096,477.618 350.642,481.483 352.187,485.436 353.733,489.53 355.278,493.654 356.824,497.585 358.369,501.426 359.915,505.265 361.46,509.277 363.006,513.368 364.551,517.339 366.097,521.31 367.642,525.331 369.188,529.332 370.733,533.192 372.279,537.024 373.824,541.082 375.37,545.067 376.915,549.005 378.461,552.962 380.006,556.905 381.552,560.766 383.097,564.632 384.643,568.295 386.188,572.072 387.734,575.725 389.279,579.388 390.825,583.081 392.37,586.573 393.916,590.162 395.461,593.71 397.007,597.037 398.552,600.245 400.098,603.536 401.643,606.795 403.189,609.955 404.734,613.009 406.28,616.338 407.825,619.404 409.371,622.517 410.916,625.544 412.462,628.619 414.007,631.663 415.553,634.465 417.098,637.389 418.644,640.132 420.189,642.847 421.735,645.483 423.28,648.055 424.826,650.835 426.371,653.397 427.917,655.962 429.462,658.35 431.008,660.643 432.553,662.758 434.099,665.042 435.644,667.386 437.19,669.652 438.735,671.953 440.281,674.166 441.826,676.304 443.372,678.433 444.917,680.503 446.463,682.483 448.008,684.49 449.554,686.33 451.099,688.21 452.645,690.07 454.19,691.847 455.736,693.495 457.281,695.203 458.827,696.819 460.372,698.133 461.918,699.718 463.463,701.375 465.009,702.955 466.554,704.352 468.1,705.903 469.645,707.587 471.191,708.972 472.736,710.354 474.282,711.51 475.827,712.58 477.373,713.782 478.918,714.86 480.464,715.973 482.009,716.987 483.555,717.917 485.1,718.893 486.646,719.975 488.191,721.209 489.737,722.263 491.282,723.503 492.828,724.502 494.373,725.252 495.919,726.215 497.464,727.054 499.01,727.82 500.555,728.625 502.101,729.159 503.646,729.983 505.192,730.563 506.737,731.044 508.283,731.5 509.828,731.926 511.374,732.345 512.919,732.693 514.465,733.054 516.01,733.562 517.556,734.065 519.101,734.648 520.647,735.082 522.192,735.382 523.738,735.773 525.283,736.253 526.829,736.68 528.374,737.05 529.92,737.16 531.465,737.377 533.011,737.582 534.556,737.654 536.102,737.832 537.647,737.975 539.193,738.13 540.738,738.323 542.284,738.559 543.829,738.664 545.375,738.855 546.92,738.972 548.466,739.32 550.011,739.36 551.557,739.601 553.102,739.805 554.648,739.929 556.193,739.904 557.739,740.016 559.284,739.815 560.83,739.967 562.375,740.065 563.921,740.076 565.466,739.967 567.012,740.011 568.557,739.879 570.103,739.948 571.648,739.903 573.194,739.731 574.739,739.594 576.285,739.58 577.83,739.458 579.376,739.26 580.921,739.162 582.467,739.018 584.012,738.913 585.558,738.919 587.103,738.973 588.649,738.862 590.194,738.685 591.74,738.519 593.285,738.502 594.831,738.51 596.376,738.636 597.922,738.347 599.467,738.416 601.013,738.489 602.558,738.375 604.104,738.482 605.649,738.196 607.195,738.025 608.74,737.961 610.286,737.956 611.831,737.709 613.377,737.633 614.922,737.449 616.468,737.47 618.013,737.277 619.559,737.098 621.104,737.095 622.65,736.962 624.195,736.492 625.741,736.151 627.286,735.66 628.832,735.493 630.377,735.303 631.923,734.973 633.468,734.559 635.014,734.272 636.559,733.928 638.105,733.896 639.65,733.766 641.196,733.545 642.741,733.077 644.287,732.53 645.832,732.438 647.378,732.182 648.923,731.995 650.469,732.087 652.014,731.98 653.56,732.109 655.105,731.746 656.651,731.627 658.196,731.259 659.742,731.103 661.287,731.151 662.833,730.896 664.378,730.85 665.924,730.548 667.469,730.359 669.015,730.02 670.56,729.91 672.106,730.002 673.651,729.71 675.197,729.618 676.742,729.496 678.288,729.19 679.833,729.19 681.379,728.865 682.924,728.623 684.47,728.578 686.015,728.279 687.561,727.995 689.106,727.683 690.652,727.466 692.197,727.044 693.743,726.962 695.288,726.845 696.834,726.544 698.379,726.329 699.925,726.303 701.47,726.29 703.016,726.245 704.561,725.939 706.107,725.748 707.652,725.611 709.198,725.371 710.743,725.297 712.289,725.258 713.834,725.107 715.38,725.04 716.925,725.054 718.471,724.862 720.016,724.735 721.562,724.738 723.107,724.669 724.653,724.645 726.198,724.453 727.744,724.59 729.289,724.389 730.835,724.4 732.38,724.28 733.926,724.284 735.471,724.239 737.017,724.236 738.562,724.292 740.108,724.327 741.653,724.321 743.199,724.171 744.744,724.299 746.29,724.306 747.835,724.253 749.381,724.271 750.926,724.243 752.472,723.945 754.017,723.923 755.563,723.74 757.108,723.585 758.654,723.245 760.199,723.288 761.745,723.288 763.29,723.22 764.836,723.238 766.381,723.237 767.927,723.043 769.472,723.256 771.018,723.255 772.563,723.3 774.109,723.22 775.654,723.287 777.2,723.296 778.745,723.36 780.291,723.494 781.836,723.8 783.382,723.816 784.927,724.008 786.473,724.127 788.018,724.222 789.564,724.324 791.109,724.529 792.655,724.786 794.2,724.895 795.746,725.064 797.291,725.158 798.837,725.077 800.382,725.301 801.928,725.365 803.473,725.462 805.019,725.462 806.564,725.597 808.11,725.699 809.655,725.792 811.201,725.923 812.746,726.146 814.292,726.419 815.837,726.496 817.383,726.666 818.928,726.731 820.474,726.88 822.019,727.005 823.565,727.022 825.11,727.146 826.656,727.467 828.201,727.565 829.747,727.579 831.292,727.725 832.838,727.79 834.383,727.823 835.929,727.916 837.474,727.73 839.02,727.707 840.565,727.596 842.111,727.614 843.656,727.49 845.202,727.395 846.747,727.443 848.293,727.384 849.838,727.484 851.384,727.59 852.929,727.424 854.475,727.485 856.02,727.554 857.566,727.36 859.111,727.276 860.657,727.183 862.202,727.088 863.748,726.969 865.293,726.974 866.839,726.742 868.384,726.574 869.93,726.537 871.475,726.418 873.021,726.423 874.566,726.42 876.112,726.31 877.657,726.175 879.203,726.025 880.748,726.072 882.294,726.209 883.839,726.061 885.385,725.882 886.93,725.741 888.476,725.74 890.021,725.658 891.567,725.648 893.112,725.534 894.658,725.397 896.203,725.397 897.749,725.334 899.294,725.237 900.84,725.033 902.385,724.807 903.931,724.703 905.476,724.646 907.022,724.337 908.567,724.212 910.113,724.106 911.658,723.934 913.204,723.942 914.749,723.911 916.295,723.847 917.84,723.764 919.385,723.738 920.931,723.759 922.476,723.798 924.022,723.868 925.567,723.906 927.113,724.021 928.658,723.936 930.204,724.062 931.749,724.054 933.295,724.06 934.84,724.02 936.386,723.972 937.931,723.957 939.477,723.989 941.022,724.026 942.568,724.237 944.113,724.315 945.659,724.362 947.204,724.476 948.75,724.298 950.295,724.312 951.841,724.386 953.386,724.613 954.932,724.462 956.477,724.47 958.023,724.813 959.568,724.963 961.114,725.248 962.659,725.452 964.205,725.574 965.75,725.793 967.296,725.824 968.841,726.026 970.387,726.406 971.932,726.587 973.478,726.626 975.023,726.556 976.569,726.611 978.114,726.686 979.66,726.652 981.205,726.53 982.751,726.562 984.296,726.33 985.842,726.326 987.387,726.425 988.933,726.278 990.478,726.297 992.024,726.376 993.569,726.163 995.115,726.228 996.66,726.414 998.206,726.296 999.751,726.211 1001.3,726.043 1002.84,726.106 1004.39,726.045 1005.93,726.077 1007.48,726.032 1009.02,725.943 1010.57,725.936 1012.12,725.933 1013.66,725.809 1015.21,725.662 1016.75,725.503 1018.3,725.453 1019.84,725.436 1021.39,725.22 1022.93,725.284 1024.48,725.525 1026.02,725.402 1027.57,725.496 1029.12,725.449 1030.66,725.435 1032.21,725.495 1033.75,725.592 1035.3,725.578 1036.84,725.465 1038.39,725.595 1039.93,725.757 1041.48,725.864 1043.03,726.202 1044.57,726.235 1046.12,726.192 1047.66,726.316 1049.21,726.435 1050.75,726.467 1052.3,726.579 1053.84,726.874 1055.39,727.049 1056.93,727.189 1058.48,727.249 1060.03,727.335 1061.57,727.488 1063.12,727.58 1064.66,727.644 1066.21,727.887 1067.75,728.202 1069.3,728.243 1070.84,728.345 1072.39,728.294 1073.94,728.413 1075.48,728.576 1077.03,728.679 1078.57,729.013 1080.12,729.24 1081.66,729.345 1083.21,729.482 1084.75,729.611 1086.3,729.795 1087.84,729.896 1089.39,729.887 1090.94,729.699 1092.48,729.567 1094.03,729.508 1095.57,729.366 1097.12,729.267 1098.66,729.058 1100.21,729.013 1101.75,728.99 1103.3,728.875 1104.85,728.703 1106.39,728.653 1107.94,728.639 1109.48,728.619 1111.03,728.42 1112.57,728.284 1114.12,728.181 1115.66,727.85 1117.21,727.66 1118.75,727.461 1120.3,727.302 1121.85,726.922 1123.39,726.772 1124.94,726.56 1126.48,726.418 1128.03,726.308 1129.57,726.172 1131.12,726.059 1132.66,726.001 1134.21,725.78 1135.76,725.701 1137.3,725.698 1138.85,725.769 1140.39,725.804 1141.94,725.745 1143.48,725.835 1145.03,725.777 1146.57,725.899 1148.12,725.874 1149.66,725.965 1151.21,725.9 1152.76,725.86 1154.3,725.641 1155.85,725.535 1157.39,725.648 1158.94,725.62 1160.48,725.708 1162.03,725.637 1163.57,725.609 1165.12,725.667 1166.67,725.668 1168.21,725.663 1169.76,725.645 1171.3,725.581 1172.85,725.591 1174.39,725.551 1175.94,725.509 1177.48,725.42 1179.03,725.449 1180.57,725.609 1182.12,725.677 1183.67,725.603 1185.21,725.758 1186.76,725.773 1188.3,725.626 1189.85,725.714 1191.39,725.821 1192.94,726.027 1194.48,726.211 1196.03,726.437 1197.58,726.655 1199.12,726.85 1200.67,727.02 1202.21,727.107 1203.76,727.37 1205.3,727.51 1206.85,727.684 1208.39,727.925 1209.94,727.98 1211.48,728.116 1213.03,728.277 1214.58,728.494 1216.12,728.552 1217.67,728.572 1219.21,728.597 1220.76,728.695 1222.3,728.837 1223.85,728.955 1225.39,728.91 1226.94,729.079 1228.49,728.952 1230.03,728.932 1231.58,728.82 1233.12,728.796 1234.67,728.621 1236.21,728.784 1237.76,728.806 1239.3,728.683 1240.85,728.646 1242.39,728.631 1243.94,728.714 1245.49,728.95 1247.03,729.104 1248.58,729.134 1250.12,728.992 1251.67,729.069 1253.21,729.254 1254.76,729.275 1256.3,729.364 1257.85,729.32 1259.4,729.231 1260.94,729.17 1262.49,728.997 1264.03,729.023 1265.58,728.952 1267.12,729.003 1268.67,729.017 1270.21,729.07 1271.76,729.134 1273.3,729.133 1274.85,729.175 1276.4,729.122 1277.94,729.001 1279.49,728.84 1281.03,728.836 1282.58,728.78 1284.12,728.726 1285.67,728.606 1287.21,728.465 1288.76,728.279 1290.31,728.195 1291.85,728.065 1293.4,727.907 1294.94,727.889 1296.49,728.003 1298.03,727.851 1299.58,727.777 1301.12,727.68 1302.67,727.523 1304.21,727.475 1305.76,727.376 1307.31,727.169 1308.85,727.065 1310.4,727.1 1311.94,727.217 1313.49,727.368 1315.03,727.545 1316.58,727.536 1318.12,727.574 1319.67,727.685 1321.22,727.871 1322.76,727.986 1324.31,728.031 1325.85,728.133 1327.4,728.263 1328.94,728.418 1330.49,728.379 1332.03,728.446 1333.58,728.521 1335.12,728.696 1336.67,728.861 1338.22,729.107 1339.76,729.269 1341.31,729.338 1342.85,729.575 1344.4,729.712 1345.94,729.827 1347.49,730.043 1349.03,730.293 1350.58,730.444 1352.13,730.676 1353.67,730.813 1355.22,730.996 1356.76,731.183 1358.31,731.12 1359.85,731.194 1361.4,731.173 1362.94,731.192 1364.49,731.08 1366.03,731.173 1367.58,731.395 1369.13,731.404 1370.67,731.408 1372.22,731.288 1373.76,731.527 1375.31,731.735 1376.85,731.687 1378.4,731.659 1379.94,731.682 1381.49,731.684 1383.04,731.391 1384.58,731.35 1386.13,731.285 1387.67,731.066 1389.22,730.938 1390.76,730.797 1392.31,730.67 1393.85,730.4 1395.4,729.889 1396.94,729.967 1398.49,729.825 1400.04,729.76 1401.58,729.837 1403.13,729.744 1404.67,729.396 1406.22,729.227 1407.76,729.101 1409.31,729.001 1410.85,729.128 1412.4,728.982 1413.95,728.94 1415.49,728.935 1417.04,728.812 1418.58,728.985 1420.13,729.015 1421.67,729.279 1423.22,729.489 1424.76,729.803 1426.31,729.706 1427.85,729.897 1429.4,729.928 1430.95,729.852 1432.49,729.924 1434.04,730.357 1435.58,730.411 1437.13,730.499 1438.67,730.412 1440.22,730.642 1441.76,730.558 1443.31,730.58 1444.86,730.392 1446.4,730.41 1447.95,730.311 1449.49,730.111 1451.04,729.945 1452.58,729.593 1454.13,729.247 1455.67,729.013 1457.22,728.876 1458.76,728.676 1460.31,728.427 1461.86,728.272 1463.4,728.145 1464.95,728.052 1466.49,727.985 1468.04,727.741 1469.58,727.512 1471.13,727.548 1472.67,727.378 1474.22,727.239 1475.77,727.209 1477.31,727.313 1478.86,727.165 1480.4,727.103 1481.95,727.071 1483.49,727.255 1485.04,727.493 1486.58,727.58 1488.13,727.792 1489.67,727.656 1491.22,727.643 1492.77,727.618 1494.31,727.518 1495.86,727.459 1497.4,727.798 1498.95,728.058 1500.49,728.093 1502.04,728.274 1503.58,728.418 1505.13,728.624 1506.68,728.699 1508.22,728.852 1509.77,728.884 1511.31,729.084 1512.86,729.267 1514.4,729.516 1515.95,729.566 1517.49,729.568 1519.04,730.001 1520.58,730.138 1522.13,730.283 1523.68,730.57 1525.22,730.754 1526.77,730.993 1528.31,731.219 1529.86,731.398 1531.4,731.489 1532.95,731.495 1534.49,731.824 1536.04,732.14 1537.59,732.21 1539.13,732.472 1540.68,732.673 1542.22,732.723 1543.77,732.811 1545.31,732.93 1546.86,732.851 1548.4,732.894 1549.95,732.985 1551.49,733.007 1553.04,733.069 1554.59,732.898 1556.13,732.948 1557.68,733.072 1559.22,733.027 1560.77,732.909 1562.31,732.987 1563.86,732.963 1565.4,733.023 1566.95,733.186 1568.5,733.065 1570.04,733.209 1571.59,733.354 1573.13,733.55 1574.68,733.672 1576.22,733.679 1577.77,733.658 1579.31,733.641 1580.86,733.778 1582.4,733.701 1583.95,733.655 1585.5,733.644 1587.04,733.559 1588.59,733.482 1590.13,733.356 1591.68,733.394 1593.22,733.325 1594.77,733.331 1596.31,733.175 1597.86,733.058 1599.41,732.935 1600.95,732.814 1602.5,732.84 1604.04,732.782 1605.59,732.678 1607.13,732.526 1608.68,732.264 1610.22,732.028 1611.77,731.917 1613.31,731.689 1614.86,731.546 1616.41,731.338 1617.95,731.094 1619.5,730.859 1621.04,730.777 1622.59,730.573 1624.13,730.56 1625.68,730.384 1627.22,730.332 1628.77,730.279 1630.32,730.273 1631.86,730.178 1633.41,730.163 1634.95,729.978 1636.5,729.899 1638.04,729.688 1639.59,729.7 1641.13,729.542 1642.68,729.434 1644.22,729.408 1645.77,729.413 1647.32,729.252 1648.86,729.357 1650.41,729.235 1651.95,729.392 1653.5,729.325 1655.04,729.203 1656.59,729.072 1658.13,729.137 1659.68,729.174 1661.23,729.318 1662.77,729.069 1664.32,729.006 1665.86,728.741 1667.41,728.715 1668.95,728.632 1670.5,728.732 1672.04,728.738 1673.59,728.591 1675.13,728.464 1676.68,728.246 1678.23,728.197 1679.77,728.085 1681.32,728.052 1682.86,727.805 1684.41,727.862 1685.95,727.774 1687.5,727.923 1689.04,727.944 1690.59,727.749 1692.14,727.763 1693.68,727.607 1695.23,727.519 1696.77,727.651 1698.32,727.682 1699.86,727.509 1701.41,727.386 1702.95,727.314 1704.5,727.247 1706.04,727.082 1707.59,727.031 1709.14,726.945 1710.68,726.724 1712.23,726.927 1713.77,726.808 1715.32,726.896 1716.86,726.932 1718.41,726.71 1719.95,726.701 1721.5,726.842 1723.05,726.61 1724.59,726.817 1726.14,726.741 1727.68,726.583 1729.23,726.562 1730.77,726.482 1732.32,726.66 1733.86,726.603 1735.41,726.662 1736.95,726.627 1738.5,726.65 1740.05,726.406 1741.59,726.406 1743.14,726.345 1744.68,726.264 1746.23,726.052 1747.77,725.939 1749.32,725.957 1750.86,725.911 1752.41,725.884 1753.96,725.976 1755.5,725.947 1757.05,725.838 1758.59,725.805 1760.14,725.948 1761.68,726.077 1763.23,726.121 1764.77,726.176 1766.32,726.653 1767.86,726.419 1769.41,726.419 1770.96,726.538 1772.5,726.281 1774.05,726.202 1775.59,726.419 1777.14,726.418 1778.68,726.443 1780.23,726.313 1781.77,726.168 1783.32,726.156 1784.87,726.223 1786.41,726.096 1787.96,725.849 1789.5,725.732 1791.05,725.701 1792.59,725.661 1794.14,725.699 1795.68,725.751 1797.23,725.652 1798.77,725.665 1800.32,725.705 1801.87,725.578 1803.41,725.604 1804.96,725.54 1806.5,725.587 1808.05,725.465 1809.59,725.289 1811.14,725.418 1812.68,725.46 1814.23,725.579 1815.78,725.629 1817.32,725.589 1818.87,725.628 1820.41,725.578 1821.96,725.555 1823.5,725.51 1825.05,725.611 1826.59,725.58 1828.14,725.547 1829.68,725.589 1831.23,725.63 1832.78,725.543 1834.32,725.484 1835.87,725.505 1837.41,725.436 1838.96,725.341 1840.5,725.292 1842.05,725.466 1843.59,725.498 1845.14,725.827 1846.69,726.041 1848.23,726.251 1849.78,726.26 1851.32,726.553 1852.87,726.666 1854.41,726.897 1855.96,726.974 1857.5,727.241 1859.05,727.272 1860.59,727.384 1862.14,727.479 1863.69,727.452 1865.23,727.576 1866.78,727.905 1868.32,727.865 1869.87,728.104 1871.41,728.152 1872.96,728.363 1874.5,728.661 1876.05,728.853 1877.6,728.984 1879.14,729.244 1880.69,729.369 1882.23,729.365 1883.78,729.485 1885.32,729.527 1886.87,729.628 1888.41,729.779 1889.96,729.791 1891.5,729.878 1893.05,730.028 1894.6,729.929 1896.14,730.049 1897.69,730.281 1899.23,730.336 1900.78,730.35 1902.32,730.406 1903.87,730.398 1905.41,730.475 1906.96,730.656 1908.51,730.777 1910.05,731.047 1911.6,731.218 1913.14,731.037 1914.69,730.993 1916.23,730.734 1917.78,730.726 1919.32,730.442 1920.87,730.439 1922.41,730.595 1923.96,730.478 1925.51,730.351 1927.05,730.212 1928.6,730.277 1930.14,730.218 1931.69,730.189 1933.23,730.364 1934.78,730.492 1936.32,730.369 1937.87,730.474 1939.42,730.381 1940.96,730.657 1942.51,730.582 1944.05,730.34 1945.6,730.105 1947.14,730.122 1948.69,729.803 1950.23,729.499 1951.78,729.521 1953.32,729.343 1954.87,729.161 1956.42,728.994 1957.96,728.831 1959.51,728.526 1961.05,728.44 1962.6,728.244 1964.14,728.269 1965.69,728.185 1967.23,728.288 1968.78,728.095 1970.33,727.888 1971.87,727.888 1973.42,727.775 1974.96,727.519 1976.51,727.212 1978.05,727.006 1979.6,726.695 1981.14,726.542 1982.69,726.303 1984.23,726.321 1985.78,726.197 1987.33,726.146 1988.87,725.854 1990.42,725.656 1991.96,725.403 1993.51,725.109 1995.05,725.074 1996.6,724.914 1998.14,724.728 1999.69,724.552 2001.24,724.293 2002.78,724.111 2004.33,723.943 2005.87,723.814 2007.42,723.659 2008.96,723.373 2010.51,723.338 2012.05,723.107 2013.6,723.066 2015.14,722.842 2016.69,722.878 2018.24,722.762 2019.78,722.661 2021.33,722.58 2022.87,722.462 2024.42,722.05 2025.96,721.84 2027.51,721.533 2029.05,721.272 2030.6,721.263 2032.15,721.126 2033.69,720.71 2035.24,720.027 2036.78,719.631 2038.33,719.037 2039.87,718.898 2041.42,718.586 2042.96,718.334 2044.51,718.255 2046.05,718.066 2047.6,717.748 2049.15,717.603 2050.69,717.269 2052.24,717.11 2053.78,717.074 2055.33,716.937 2056.87,716.844 2058.42,716.634 2059.96,716.436 2061.51,716.365 2063.06,716.216 2064.6,716.093 2066.15,716.144 2067.69,716.217 2069.24,716.097 2070.78,716.032 2072.33,715.813 2073.87,715.721 2075.42,715.646 2076.96,715.641 2078.51,715.769 2080.06,715.88 "/>
<path clip-path="url(#clip970)" d="M809.221 239.706 L1121.85 239.706 L1121.85 78.4772 L809.221 78.4772  Z" fill="#ffffff" fill-rule="evenodd" fill-opacity="1"/>
<polyline clip-path="url(#clip970)" style="stroke:#000000; stroke-linecap:round; stroke-linejoin:round; stroke-width:4; stroke-opacity:1; fill:none" points="809.221,239.706 1121.85,239.706 1121.85,78.4772 809.221,78.4772 809.221,239.706 "/>
<polyline clip-path="url(#clip970)" style="stroke:#ffa500; stroke-linecap:round; stroke-linejoin:round; stroke-width:12; stroke-opacity:0.75; fill:none" points="819.524,132.22 881.344,132.22 "/>
<g clip-path="url(#clip970)">
<text style="fill:#000000; fill-opacity:1; font-family:Book Antiqua,Palatino,Palatino Linotype,Palatino LT STD,Georgia,serif; font-size:51px; font-weight:bold; text-anchor:start;" transform="rotate(0, 891.648, 149.72)" x="891.648" y="149.72">FDUC</text>
</g>
<polyline clip-path="url(#clip970)" style="stroke:#0000ff; stroke-linecap:round; stroke-linejoin:round; stroke-width:12; stroke-opacity:0.5; fill:none" points="819.524,185.963 881.344,185.963 "/>
<g clip-path="url(#clip970)">
<text style="fill:#000000; fill-opacity:1; font-family:Book Antiqua,Palatino,Palatino Linotype,Palatino LT STD,Georgia,serif; font-size:51px; font-weight:bold; text-anchor:start;" transform="rotate(0, 891.648, 203.463)" x="891.648" y="203.463">CCFDUC</text>
</g>
</svg>
