<svg class="main-svg" xmlns="http://www.w3.org/2000/svg" xmlns:xlink="http://www.w3.org/1999/xlink" width="700" height="500" style="" viewBox="0 0 700 500"><rect x="0" y="0" width="700" height="500" style="fill: rgb(255, 255, 255); fill-opacity: 1;"/><defs id="defs-c80471"><g class="clips"><clipPath id="clipc80471xyplot" class="plotclip"><rect width="503.14085739282586" height="347.26377952755905"/></clipPath><clipPath class="axesclip" id="clipc80471x"><rect x="138.9851268591426" y="0" width="503.14085739282586" height="500"/></clipPath><clipPath class="axesclip" id="clipc80471y"><rect x="0" y="65.11811023622047" width="700" height="347.26377952755905"/></clipPath><clipPath class="axesclip" id="clipc80471xy"><rect x="138.9851268591426" y="65.11811023622047" width="503.14085739282586" height="347.26377952755905"/></clipPath></g><g class="gradients"/><g class="patterns"/></defs><g class="bglayer"/><g class="layer-below"><g class="imagelayer"/><g class="shapelayer"/></g><g class="cartesianlayer"><g class="subplot xy"><g class="layer-subplot"><g class="shapelayer"/><g class="imagelayer"/></g><g class="gridlayer"><g class="x"><path class="xgrid crisp" transform="translate(306.69512685914265,0)" d="M0,65.11811023622047v347.26377952755905" style="stroke: rgb(128, 128, 128); stroke-opacity: 0.1; stroke-width: 0.5px;"/><path class="xgrid crisp" transform="translate(474.4151268591426,0)" d="M0,65.11811023622047v347.26377952755905" style="stroke: rgb(128, 128, 128); stroke-opacity: 0.1; stroke-width: 0.5px;"/></g><g class="y"><path class="ygrid crisp" transform="translate(0,313.1681102362205)" d="M138.9851268591426,0h503.14085739282586" style="stroke: rgb(128, 128, 128); stroke-opacity: 0.1; stroke-width: 0.5px;"/><path class="ygrid crisp" transform="translate(0,213.9481102362205)" d="M138.9851268591426,0h503.14085739282586" style="stroke: rgb(128, 128, 128); stroke-opacity: 0.1; stroke-width: 0.5px;"/><path class="ygrid crisp" transform="translate(0,114.72811023622047)" d="M138.9851268591426,0h503.14085739282586" style="stroke: rgb(128, 128, 128); stroke-opacity: 0.1; stroke-width: 0.5px;"/></g></g><g class="zerolinelayer"/><path class="xlines-below"/><path class="ylines-below"/><g class="overlines-below"/><g class="xaxislayer-below"/><g class="yaxislayer-below"/><g class="overaxes-below"/><g class="plot" transform="translate(138.9851268591426,65.11811023622047)" clip-path="url(#clipc80471xyplot)"><g class="scatterlayer mlayer"><g class="trace scatter trace054c60" style="stroke-miterlimit: 2; opacity: 1;"><g class="fills"/><g class="errorbars"/><g class="lines"><path class="js-line" d="M0,347.26L6.71,269.86L7.55,261.61L13.42,211.85L14.26,205.83L19.29,174.82L20.13,170.46L25.16,148.66L26,145.7L30.19,133.55L31.03,131.61L35.22,124.13L36.06,123.04L39.41,119.93L40.25,119.44L43.61,118.52L44.44,118.53L47.8,119.44L48.64,119.86L52.83,123.03L53.67,123.85L58.7,129.85L59.54,131.01L67.09,142.89L67.92,144.33L84.7,175.17L85.53,176.71L98.95,199.92L99.79,201.25L110.69,216.99L111.53,218.07L121.59,229.59L122.43,230.43L131.66,238.5L132.49,239.13L141.72,245.02L142.56,245.46L151.78,249.5L152.62,249.8L163.52,252.68L164.36,252.83L176.1,254.25L176.94,254.3L192.03,254.49L192.87,254.47L221.38,252.73L222.22,252.67L259.12,250.33L259.96,250.29L311.11,249.16L311.95,249.16L370.65,249.21L371.49,249.22L503.14,249.34" style="vector-effect: non-scaling-stroke; fill: none; stroke: rgb(26, 128, 187); stroke-opacity: 0.95; stroke-width: 3px; opacity: 1;"/></g><g class="points"/><g class="text"/></g><g class="trace scatter tracef84ad4" style="stroke-miterlimit: 2; opacity: 1;"><g class="fills"/><g class="errorbars"/><g class="lines"><path class="js-line" d="M0,347.26L5.87,279.25L6.71,270.92L12.58,221.6L13.42,215.73L18.45,185.81L19.29,181.63L24.32,160.96L25.16,158.24L29.35,147.09L30.19,145.34L34.38,138.73L35.22,137.81L38.57,135.18L39.41,134.84L42.77,134.42L43.61,134.49L47.8,135.92L48.64,136.37L53.67,140.62L54.51,141.53L60.38,148.6L61.22,149.75L78.83,176.29L79.66,177.64L96.44,202.83L97.27,203.95L108.18,218.35L109.01,219.33L122.43,233.26L123.27,233.96L131.66,239.81L132.49,240.33L149.27,248.77L150.1,249.09L166.04,253.2L166.88,253.34L183.65,255.73L184.48,255.74L199.58,255.46L200.42,255.35L211.32,254.39L212.16,254.41L234.8,252.43L235.64,252.58L251.57,252.87L252.41,252.91L266.66,252.86L267.5,252.8L278.4,252.52L279.24,252.41L291.82,251.71L292.66,251.74L319.49,252.95L320.33,252.99L336.27,254.03L337.1,254.1L358.07,255.49L358.91,255.5L384.9,255.11L385.74,255.03L400.84,253.77L401.67,253.66L425.99,251.98L426.83,251.99L441.09,252.5L441.93,252.58L457.02,252.98L457.86,252.86L477.15,252.38L477.98,252.27L523.27,250.26L524.11,250.31L617.19,253.6L618.02,253.54L645.7,251.39L646.54,251.32L702.72,249.59L703.56,249.58L956.81,254.15L957.64,254.13L1006.28,253.36" style="vector-effect: non-scaling-stroke; fill: none; stroke: rgb(160, 0, 0); stroke-opacity: 0.95; stroke-width: 3px; opacity: 1;"/></g><g class="points"/><g class="text"/></g></g></g><g class="overplot"/><path class="xlines-above crisp" d="M137.9851268591426,412.88188976377955H643.1259842519685M137.9851268591426,64.61811023622047H643.1259842519685" style="fill: none; stroke-width: 1px; stroke: rgb(0, 0, 0); stroke-opacity: 1;"/><path class="ylines-above crisp" d="M138.4851268591426,65.11811023622047V412.38188976377955M642.6259842519685,65.11811023622047V412.38188976377955" style="fill: none; stroke-width: 1px; stroke: rgb(0, 0, 0); stroke-opacity: 1;"/><g class="overlines-above"/><g class="xaxislayer-above"><path class="xtick ticks crisp" d="M0,412.38188976377955v-5" transform="translate(306.69512685914265,0)" style="stroke: rgb(0, 0, 0); stroke-opacity: 1; stroke-width: 1px;"/><path class="xtick ticks crisp" d="M0,412.38188976377955v-5" transform="translate(474.4151268591426,0)" style="stroke: rgb(0, 0, 0); stroke-opacity: 1; stroke-width: 1px;"/><g class="xtick"><text text-anchor="middle" x="0" y="426.58188976377954" transform="translate(138.9851268591426,0)" style="font-family: Helvetica; font-size: 11px; fill: rgb(0, 0, 0); fill-opacity: 1; white-space: pre; opacity: 1;">0</text></g><g class="xtick"><text text-anchor="middle" x="0" y="426.58188976377954" style="font-family: Helvetica; font-size: 11px; fill: rgb(0, 0, 0); fill-opacity: 1; white-space: pre; opacity: 1;" transform="translate(306.69512685914265,0)">10</text></g><g class="xtick"><text text-anchor="middle" x="0" y="426.58188976377954" style="font-family: Helvetica; font-size: 11px; fill: rgb(0, 0, 0); fill-opacity: 1; white-space: pre; opacity: 1;" transform="translate(474.4151268591426,0)">20</text></g><g class="xtick"><text text-anchor="middle" x="0" y="426.58188976377954" style="font-family: Helvetica; font-size: 11px; fill: rgb(0, 0, 0); fill-opacity: 1; white-space: pre; opacity: 1;" transform="translate(642.1251268591426,0)">30</text></g></g><g class="yaxislayer-above"><path class="ytick ticks crisp" d="M138.9851268591426,0h5" transform="translate(0,313.1681102362205)" style="stroke: rgb(0, 0, 0); stroke-opacity: 1; stroke-width: 1px;"/><path class="ytick ticks crisp" d="M138.9851268591426,0h5" transform="translate(0,213.9481102362205)" style="stroke: rgb(0, 0, 0); stroke-opacity: 1; stroke-width: 1px;"/><path class="ytick ticks crisp" d="M138.9851268591426,0h5" transform="translate(0,114.72811023622047)" style="stroke: rgb(0, 0, 0); stroke-opacity: 1; stroke-width: 1px;"/><g class="ytick"><text text-anchor="end" x="135.78512685914262" y="3.8499999999999996" transform="translate(0,412.37811023622044)" style="font-family: Helvetica; font-size: 11px; fill: rgb(0, 0, 0); fill-opacity: 1; white-space: pre; opacity: 1;">0.0</text></g><g class="ytick"><text text-anchor="end" x="135.78512685914262" y="3.8499999999999996" style="font-family: Helvetica; font-size: 11px; fill: rgb(0, 0, 0); fill-opacity: 1; white-space: pre; opacity: 1;" transform="translate(0,313.1681102362205)">0.1</text></g><g class="ytick"><text text-anchor="end" x="135.78512685914262" y="3.8499999999999996" style="font-family: Helvetica; font-size: 11px; fill: rgb(0, 0, 0); fill-opacity: 1; white-space: pre; opacity: 1;" transform="translate(0,213.9481102362205)">0.2</text></g><g class="ytick"><text text-anchor="end" x="135.78512685914262" y="3.8499999999999996" style="font-family: Helvetica; font-size: 11px; fill: rgb(0, 0, 0); fill-opacity: 1; white-space: pre; opacity: 1;" transform="translate(0,114.72811023622047)">0.3</text></g></g><g class="overaxes-above"/></g></g><g class="polarlayer"/><g class="ternarylayer"/><g class="geolayer"/><g class="funnelarealayer"/><g class="pielayer"/><g class="iciclelayer"/><g class="treemaplayer"/><g class="sunburstlayer"/><g class="glimages"/><defs id="topdefs-c80471"><g class="clips"/><clipPath id="legendc80471"><rect width="83" height="48" x="1" y="1"/></clipPath></defs><g class="layer-above"><g class="imagelayer"/><g class="shapelayer"/></g><g class="infolayer"><g class="legend" pointer-events="all" transform="translate(565,60)"><rect class="bg" shape-rendering="crispEdges" style="stroke: rgb(0, 0, 0); stroke-opacity: 0; fill: rgb(255, 255, 255); fill-opacity: 1; stroke-width: 1px;" width="84" height="49" x="0.5" y="0.5"/><g class="scrollbox" transform="" clip-path="url(#legendc80471)"><g class="groups"><g class="traces" transform="translate(1,15.5)" style="opacity: 1;"><text class="legendtext" text-anchor="start" x="40" y="4.29" style="font-family: Helvetica; font-size: 11px; fill: rgb(0, 0, 0); fill-opacity: 1; white-space: pre;">FCUC</text><g class="layers" style="opacity: 1;"><g class="legendfill"/><g class="legendlines"><path class="js-line" d="M5,0h30" style="fill: none; stroke: rgb(26, 128, 187); stroke-opacity: 0.95; stroke-width: 3px;"/></g><g class="legendsymbols"><g class="legendpoints"/></g></g><rect class="legendtoggle" x="0" y="-9.5" width="77.890625" height="19" style="fill: rgb(0, 0, 0); fill-opacity: 0;"/></g><g class="traces" transform="translate(1,34.5)" style="opacity: 1;"><text class="legendtext" text-anchor="start" x="40" y="4.29" style="font-family: Helvetica; font-size: 11px; fill: rgb(0, 0, 0); fill-opacity: 1; white-space: pre;">r-FCUC</text><g class="layers" style="opacity: 1;"><g class="legendfill"/><g class="legendlines"><path class="js-line" d="M5,0h30" style="fill: none; stroke: rgb(160, 0, 0); stroke-opacity: 0.95; stroke-width: 3px;"/></g><g class="legendsymbols"><g class="legendpoints"/></g></g><rect class="legendtoggle" x="0" y="-9.5" width="77.890625" height="19" style="fill: rgb(0, 0, 0); fill-opacity: 0;"/></g></g></g><rect class="scrollbar" rx="20" ry="3" width="0" height="0" style="fill: rgb(128, 139, 164); fill-opacity: 1;" x="0" y="0"/></g><g class="g-gtitle"/><g class="g-xtitle"><text class="xtitle" x="390.55555555555554" y="453.89375" text-anchor="middle" style="font-family: sans-serif; font-size: 14px; fill: rgb(0, 0, 0); opacity: 1; font-weight: normal; white-space: pre;">t / s</text></g><g class="g-ytitle"><text class="ytitle" transform="rotate(-90,95.684375,238.75)" x="95.684375" y="238.75" text-anchor="middle" style="font-family: sans-serif; font-size: 14px; fill: rgb(0, 0, 0); opacity: 1; font-weight: normal; white-space: pre;">Output / p.u.</text></g></g></svg>