<?xml version="1.0" encoding="utf-8"?>
<svg xmlns="http://www.w3.org/2000/svg" xmlns:xlink="http://www.w3.org/1999/xlink" width="300" height="300" viewBox="0 0 1200 1200">
<defs>
  <clipPath id="clip560">
    <rect x="0" y="0" width="1200" height="1200"/>
  </clipPath>
</defs>
<path clip-path="url(#clip560)" d="M0 1200 L1200 1200 L1200 0 L0 0  Z" fill="#ffffff" fill-rule="evenodd" fill-opacity="1"/>
<defs>
  <clipPath id="clip561">
    <rect x="240" y="120" width="841" height="841"/>
  </clipPath>
</defs>
<path clip-path="url(#clip560)" d="M225.456 984.237 L1152.76 984.237 L1152.76 47.2441 L225.456 47.2441  Z" fill="#ffffff" fill-rule="evenodd" fill-opacity="1"/>
<defs>
  <clipPath id="clip562">
    <rect x="225" y="47" width="928" height="938"/>
  </clipPath>
</defs>
<polyline clip-path="url(#clip562)" style="stroke:#808080; stroke-linecap:round; stroke-linejoin:round; stroke-width:2; stroke-opacity:0.1; fill:none" points="225.456,984.237 225.456,47.2441 "/>
<polyline clip-path="url(#clip562)" style="stroke:#808080; stroke-linecap:round; stroke-linejoin:round; stroke-width:2; stroke-opacity:0.1; fill:none" points="534.556,984.237 534.556,47.2441 "/>
<polyline clip-path="url(#clip562)" style="stroke:#808080; stroke-linecap:round; stroke-linejoin:round; stroke-width:2; stroke-opacity:0.1; fill:none" points="843.656,984.237 843.656,47.2441 "/>
<polyline clip-path="url(#clip562)" style="stroke:#808080; stroke-linecap:round; stroke-linejoin:round; stroke-width:2; stroke-opacity:0.1; fill:none" points="1152.76,984.237 1152.76,47.2441 "/>
<polyline clip-path="url(#clip560)" style="stroke:#000000; stroke-linecap:round; stroke-linejoin:round; stroke-width:4; stroke-opacity:1; fill:none" points="225.456,984.237 1152.76,984.237 "/>
<polyline clip-path="url(#clip560)" style="stroke:#000000; stroke-linecap:round; stroke-linejoin:round; stroke-width:4; stroke-opacity:1; fill:none" points="225.456,47.2441 1152.76,47.2441 "/>
<polyline clip-path="url(#clip560)" style="stroke:#000000; stroke-linecap:round; stroke-linejoin:round; stroke-width:4; stroke-opacity:1; fill:none" points="225.456,984.237 225.456,965.339 "/>
<polyline clip-path="url(#clip560)" style="stroke:#000000; stroke-linecap:round; stroke-linejoin:round; stroke-width:4; stroke-opacity:1; fill:none" points="534.556,984.237 534.556,965.339 "/>
<polyline clip-path="url(#clip560)" style="stroke:#000000; stroke-linecap:round; stroke-linejoin:round; stroke-width:4; stroke-opacity:1; fill:none" points="843.656,984.237 843.656,965.339 "/>
<polyline clip-path="url(#clip560)" style="stroke:#000000; stroke-linecap:round; stroke-linejoin:round; stroke-width:4; stroke-opacity:1; fill:none" points="1152.76,984.237 1152.76,965.339 "/>
<g clip-path="url(#clip560)">
<text style="fill:#000000; fill-opacity:1; font-family:Book Antiqua,Palatino,Palatino Linotype,Palatino LT STD,Georgia,serif; font-size:51px; font-weight:bold; text-anchor:middle;" transform="rotate(0, 225.456, 1038.21)" x="225.456" y="1038.21">0</text>
</g>
<g clip-path="url(#clip560)">
<text style="fill:#000000; fill-opacity:1; font-family:Book Antiqua,Palatino,Palatino Linotype,Palatino LT STD,Georgia,serif; font-size:51px; font-weight:bold; text-anchor:middle;" transform="rotate(0, 534.556, 1038.21)" x="534.556" y="1038.21">10</text>
</g>
<g clip-path="url(#clip560)">
<text style="fill:#000000; fill-opacity:1; font-family:Book Antiqua,Palatino,Palatino Linotype,Palatino LT STD,Georgia,serif; font-size:51px; font-weight:bold; text-anchor:middle;" transform="rotate(0, 843.656, 1038.21)" x="843.656" y="1038.21">20</text>
</g>
<g clip-path="url(#clip560)">
<text style="fill:#000000; fill-opacity:1; font-family:Book Antiqua,Palatino,Palatino Linotype,Palatino LT STD,Georgia,serif; font-size:51px; font-weight:bold; text-anchor:middle;" transform="rotate(0, 1152.76, 1038.21)" x="1152.76" y="1038.21">30</text>
</g>
<path clip-path="url(#clip560)" d="M665.934 1073.13 Q665.934 1074.03 665.515 1074.25 Q665.096 1074.45 663.937 1074.45 L657.753 1074.45 L652.858 1093.9 Q652.472 1095.61 652.472 1097.06 Q652.472 1098.67 652.955 1099.37 Q653.47 1100.08 654.533 1100.08 Q656.626 1100.08 658.881 1098.18 Q661.167 1096.28 663.1 1091.65 Q663.357 1091.03 663.486 1090.9 Q663.647 1090.74 664.066 1090.74 Q664.871 1090.74 664.871 1091.39 Q664.871 1091.61 664.42 1092.64 Q664.001 1093.67 663.067 1095.19 Q662.166 1096.7 660.974 1098.12 Q659.815 1099.54 658.043 1100.57 Q656.272 1101.56 654.372 1101.56 Q651.699 1101.56 649.992 1099.86 Q648.317 1098.15 648.317 1095.48 Q648.317 1094.61 648.993 1091.84 Q649.67 1089.04 653.341 1074.45 L647.512 1074.45 Q646.707 1074.45 646.385 1074.42 Q646.095 1074.38 645.87 1074.22 Q645.676 1074.03 645.676 1073.64 Q645.676 1073.03 645.934 1072.77 Q646.192 1072.48 646.514 1072.45 Q646.868 1072.39 647.673 1072.39 L653.857 1072.39 L656.433 1061.92 Q656.691 1060.89 657.335 1060.31 Q658.011 1059.7 658.398 1059.63 Q658.784 1059.54 659.074 1059.54 Q659.943 1059.54 660.459 1060.02 Q660.974 1060.47 660.974 1061.31 Q660.974 1061.76 658.269 1072.39 L664.066 1072.39 Q664.807 1072.39 665.096 1072.42 Q665.418 1072.45 665.676 1072.61 Q665.934 1072.77 665.934 1073.13 Z" fill="#000000" fill-rule="nonzero" fill-opacity="1" /><path clip-path="url(#clip560)" d="M669.249 1116.38 Q669.249 1116.06 669.507 1115.35 L692.792 1053.13 Q692.792 1053.06 692.953 1052.71 Q693.114 1052.35 693.21 1052.13 Q693.307 1051.87 693.5 1051.68 Q693.726 1051.48 693.983 1051.48 Q694.627 1051.48 694.627 1052.29 Q694.627 1052.35 694.434 1053.13 L671.085 1115.41 Q670.699 1116.54 670.441 1116.86 Q670.215 1117.18 669.829 1117.18 Q669.249 1117.18 669.249 1116.38 Z" fill="#000000" fill-rule="nonzero" fill-opacity="1" /><path clip-path="url(#clip560)" d="M726.197 1077.35 Q726.197 1079.15 725.295 1080.12 Q724.393 1081.05 723.169 1081.05 Q722.171 1081.05 721.623 1080.47 Q721.108 1079.89 721.108 1079.12 Q721.108 1077.99 722.01 1077.09 Q722.944 1076.19 724.296 1076.15 Q723.846 1074.96 722.654 1074.25 Q721.462 1073.51 720.4 1073.32 Q719.369 1073.13 718.338 1073.13 Q716.309 1073.13 714.763 1073.77 Q713.218 1074.42 712.445 1075.41 Q711.672 1076.38 711.317 1077.31 Q710.963 1078.25 710.963 1079.05 Q710.963 1079.76 711.124 1080.34 Q711.317 1080.89 711.768 1081.31 Q712.219 1081.69 712.541 1081.95 Q712.896 1082.21 713.668 1082.43 Q714.441 1082.66 714.763 1082.76 Q715.086 1082.82 715.987 1083.01 Q717.855 1083.4 718.693 1083.63 Q719.53 1083.82 720.625 1084.37 Q721.752 1084.91 722.59 1085.78 Q724.618 1087.81 724.618 1090.61 Q724.618 1091.65 724.264 1092.9 Q723.942 1094.16 723.008 1095.74 Q722.074 1097.31 720.657 1098.57 Q719.24 1099.83 716.792 1100.7 Q714.377 1101.56 711.35 1101.56 Q707.131 1101.56 704.522 1099.79 Q701.913 1097.99 701.913 1095.16 Q701.913 1093.09 703.041 1091.97 Q704.168 1090.81 705.617 1090.81 Q706.712 1090.81 707.388 1091.42 Q708.065 1092 708.065 1093.09 Q708.065 1094.58 706.873 1095.7 Q705.681 1096.83 703.91 1096.6 Q705.424 1100.08 711.414 1100.08 Q713.668 1100.08 715.408 1099.5 Q717.179 1098.89 718.145 1098.05 Q719.143 1097.18 719.788 1096.12 Q720.432 1095.06 720.625 1094.25 Q720.85 1093.45 720.85 1092.84 Q720.85 1091.77 720.432 1090.97 Q720.013 1090.16 719.433 1089.71 Q718.886 1089.23 717.823 1088.84 Q716.792 1088.42 716.052 1088.26 Q715.311 1088.1 713.991 1087.84 Q713.379 1087.72 712.992 1087.65 Q712.606 1087.56 711.801 1087.3 Q711.028 1087.01 710.48 1086.72 Q709.965 1086.43 709.288 1085.91 Q708.612 1085.4 708.193 1084.79 Q707.775 1084.17 707.485 1083.27 Q707.195 1082.37 707.195 1081.31 Q707.195 1080.34 707.485 1079.18 Q707.807 1078.02 708.612 1076.67 Q709.45 1075.32 710.641 1074.22 Q711.833 1073.13 713.83 1072.42 Q715.858 1071.68 718.338 1071.68 Q721.945 1071.68 724.071 1073.35 Q726.197 1074.99 726.197 1077.35 Z" fill="#000000" fill-rule="nonzero" fill-opacity="1" /><polyline clip-path="url(#clip562)" style="stroke:#808080; stroke-linecap:round; stroke-linejoin:round; stroke-width:2; stroke-opacity:0.1; fill:none" points="225.456,984.237 1152.76,984.237 "/>
<polyline clip-path="url(#clip562)" style="stroke:#808080; stroke-linecap:round; stroke-linejoin:round; stroke-width:2; stroke-opacity:0.1; fill:none" points="225.456,716.525 1152.76,716.525 "/>
<polyline clip-path="url(#clip562)" style="stroke:#808080; stroke-linecap:round; stroke-linejoin:round; stroke-width:2; stroke-opacity:0.1; fill:none" points="225.456,448.812 1152.76,448.812 "/>
<polyline clip-path="url(#clip562)" style="stroke:#808080; stroke-linecap:round; stroke-linejoin:round; stroke-width:2; stroke-opacity:0.1; fill:none" points="225.456,181.1 1152.76,181.1 "/>
<polyline clip-path="url(#clip560)" style="stroke:#000000; stroke-linecap:round; stroke-linejoin:round; stroke-width:4; stroke-opacity:1; fill:none" points="225.456,984.237 225.456,47.2441 "/>
<polyline clip-path="url(#clip560)" style="stroke:#000000; stroke-linecap:round; stroke-linejoin:round; stroke-width:4; stroke-opacity:1; fill:none" points="1152.76,984.237 1152.76,47.2441 "/>
<polyline clip-path="url(#clip560)" style="stroke:#000000; stroke-linecap:round; stroke-linejoin:round; stroke-width:4; stroke-opacity:1; fill:none" points="225.456,984.237 244.354,984.237 "/>
<polyline clip-path="url(#clip560)" style="stroke:#000000; stroke-linecap:round; stroke-linejoin:round; stroke-width:4; stroke-opacity:1; fill:none" points="225.456,716.525 244.354,716.525 "/>
<polyline clip-path="url(#clip560)" style="stroke:#000000; stroke-linecap:round; stroke-linejoin:round; stroke-width:4; stroke-opacity:1; fill:none" points="225.456,448.812 244.354,448.812 "/>
<polyline clip-path="url(#clip560)" style="stroke:#000000; stroke-linecap:round; stroke-linejoin:round; stroke-width:4; stroke-opacity:1; fill:none" points="225.456,181.1 244.354,181.1 "/>
<g clip-path="url(#clip560)">
<text style="fill:#000000; fill-opacity:1; font-family:Book Antiqua,Palatino,Palatino Linotype,Palatino LT STD,Georgia,serif; font-size:51px; font-weight:bold; text-anchor:middle;" transform="rotate(0, 175.738, 1001.74)" x="175.738" y="1001.74">0.0</text>
</g>
<g clip-path="url(#clip560)">
<text style="fill:#000000; fill-opacity:1; font-family:Book Antiqua,Palatino,Palatino Linotype,Palatino LT STD,Georgia,serif; font-size:51px; font-weight:bold; text-anchor:middle;" transform="rotate(0, 175.738, 734.025)" x="175.738" y="734.025">0.1</text>
</g>
<g clip-path="url(#clip560)">
<text style="fill:#000000; fill-opacity:1; font-family:Book Antiqua,Palatino,Palatino Linotype,Palatino LT STD,Georgia,serif; font-size:51px; font-weight:bold; text-anchor:middle;" transform="rotate(0, 175.738, 466.312)" x="175.738" y="466.312">0.2</text>
</g>
<g clip-path="url(#clip560)">
<text style="fill:#000000; fill-opacity:1; font-family:Book Antiqua,Palatino,Palatino Linotype,Palatino LT STD,Georgia,serif; font-size:51px; font-weight:bold; text-anchor:middle;" transform="rotate(0, 175.738, 198.6)" x="175.738" y="198.6">0.3</text>
</g>
<path clip-path="url(#clip560)" d="M91.4893 709.501 Q81.4089 709.501 74.388 703.059 Q67.3349 696.586 67.3349 687.601 Q67.3349 678.551 74.388 672.11 Q81.4411 665.636 91.4893 665.636 Q101.441 665.636 108.365 672.11 Q115.289 678.583 115.289 687.601 Q115.289 696.489 108.397 702.995 Q101.505 709.501 91.4893 709.501 M90.5554 702.705 Q96.6745 702.705 101.377 701.256 Q106.046 699.807 108.591 697.488 Q111.135 695.137 112.359 692.625 Q113.583 690.113 113.583 687.536 Q113.583 685.024 112.391 682.576 Q111.199 680.097 108.687 677.746 Q106.175 675.395 101.473 673.913 Q96.7711 672.432 90.5554 672.432 Q85.7245 672.432 81.8598 673.462 Q77.9629 674.493 75.6118 676.103 Q73.2608 677.713 71.7149 679.807 Q70.169 681.868 69.5893 683.833 Q68.9774 685.765 68.9774 687.601 Q68.9774 689.919 70.008 692.335 Q71.0386 694.75 73.3252 697.198 Q75.5796 699.613 80.0562 701.159 Q84.5006 702.705 90.5554 702.705 Z" fill="#000000" fill-rule="nonzero" fill-opacity="1" /><path clip-path="url(#clip560)" d="M87.4636 659.278 L85.4024 659.278 L84.6939 649.584 L106.594 649.584 Q108.172 649.584 109.106 649.455 Q110.008 649.326 111.07 648.811 Q112.133 648.264 112.616 647.04 Q113.099 645.784 113.099 643.787 Q113.099 640.212 110.169 638.022 Q107.238 635.8 102.89 635.8 L91.1351 635.8 Q88.6874 635.8 88.0755 636.67 Q87.4636 637.539 87.4636 640.953 L85.4024 640.953 L84.6939 631.259 L108.108 631.259 Q110.555 631.259 111.199 630.422 Q111.811 629.552 111.811 626.106 L113.84 626.106 L114.581 635.607 L108.623 635.607 Q114.549 638.376 114.581 644.109 Q114.581 647.008 113.84 649.004 Q113.099 650.969 112.198 651.967 Q111.264 652.966 109.492 653.513 Q107.721 654.029 106.626 654.093 Q105.531 654.157 103.405 654.157 L93.5183 654.157 Q89.0417 654.157 88.2687 654.801 Q87.4636 655.446 87.4636 659.278 Z" fill="#000000" fill-rule="nonzero" fill-opacity="1" /><path clip-path="url(#clip560)" d="M87.4636 623.833 L86.0143 623.833 Q85.8855 620.806 83.7599 618.809 Q81.6021 616.78 78.9612 616.104 Q76.3204 615.395 73.2608 615.331 L73.2608 613.689 L85.4024 613.689 L85.4024 604.252 L87.4636 604.252 L87.4636 613.689 L105.789 613.689 Q112.906 613.689 112.906 609.244 Q112.906 607.344 110.974 606.088 Q109.009 604.832 105.531 604.832 L101.892 604.832 L101.892 603.189 L105.66 603.189 Q109.235 603.189 111.908 604.832 Q114.581 606.474 114.581 609.727 Q114.581 610.919 114.259 612.11 Q113.969 613.27 113.196 614.816 Q112.391 616.329 110.459 617.296 Q108.494 618.23 105.66 618.23 L87.4636 618.23 L87.4636 623.833 Z" fill="#000000" fill-rule="nonzero" fill-opacity="1" /><path clip-path="url(#clip560)" d="M124.597 602.994 Q124.597 599.484 124.146 598.678 Q123.727 597.841 121.634 597.841 L90.7486 597.841 Q88.5586 597.841 88.0111 598.678 Q87.4636 599.484 87.4636 602.994 L85.4024 602.994 L84.6939 593.493 L89.0417 593.493 Q84.6939 589.532 84.6939 584.25 Q84.6939 578.646 89.0417 574.556 Q93.3895 570.466 99.6052 570.466 Q105.885 570.466 110.233 574.814 Q114.581 579.162 114.581 585.184 Q114.581 588.469 112.906 590.691 Q111.199 592.881 109.943 593.3 L110.555 593.3 L121.634 593.3 Q123.76 593.3 124.178 592.463 Q124.597 591.625 124.597 588.147 L126.626 588.147 Q126.433 595.071 126.433 595.587 Q126.433 596.231 126.626 602.994 L124.597 602.994 M106.336 593.3 Q107.335 593.3 107.689 593.171 Q108.043 593.01 109.106 592.366 Q113.099 589.757 113.099 585.506 Q113.099 585.474 113.099 585.442 Q113.099 581.674 109.267 578.807 Q105.402 575.941 99.6052 575.941 Q94.0658 575.941 90.2011 578.55 Q86.3364 581.158 86.3364 584.765 Q86.3364 587.342 87.7212 589.596 Q89.1061 591.851 91.6181 593.3 L106.336 593.3 Z" fill="#000000" fill-rule="nonzero" fill-opacity="1" /><path clip-path="url(#clip560)" d="M87.4636 562.533 L85.4024 562.533 L84.6939 552.839 L106.594 552.839 Q108.172 552.839 109.106 552.71 Q110.008 552.582 111.07 552.066 Q112.133 551.519 112.616 550.295 Q113.099 549.039 113.099 547.042 Q113.099 543.467 110.169 541.277 Q107.238 539.055 102.89 539.055 L91.1351 539.055 Q88.6874 539.055 88.0755 539.925 Q87.4636 540.794 87.4636 544.208 L85.4024 544.208 L84.6939 534.514 L108.108 534.514 Q110.555 534.514 111.199 533.677 Q111.811 532.807 111.811 529.361 L113.84 529.361 L114.581 538.862 L108.623 538.862 Q114.549 541.632 114.581 547.364 Q114.581 550.263 113.84 552.26 Q113.099 554.224 112.198 555.223 Q111.264 556.221 109.492 556.768 Q107.721 557.284 106.626 557.348 Q105.531 557.413 103.405 557.413 L93.5183 557.413 Q89.0417 557.413 88.2687 558.057 Q87.4636 558.701 87.4636 562.533 Z" fill="#000000" fill-rule="nonzero" fill-opacity="1" /><path clip-path="url(#clip560)" d="M87.4636 527.089 L86.0143 527.089 Q85.8855 524.061 83.7599 522.064 Q81.6021 520.035 78.9612 519.359 Q76.3204 518.651 73.2608 518.586 L73.2608 516.944 L85.4024 516.944 L85.4024 507.507 L87.4636 507.507 L87.4636 516.944 L105.789 516.944 Q112.906 516.944 112.906 512.499 Q112.906 510.599 110.974 509.343 Q109.009 508.087 105.531 508.087 L101.892 508.087 L101.892 506.445 L105.66 506.445 Q109.235 506.445 111.908 508.087 Q114.581 509.73 114.581 512.982 Q114.581 514.174 114.259 515.366 Q113.969 516.525 113.196 518.071 Q112.391 519.585 110.459 520.551 Q108.494 521.485 105.66 521.485 L87.4636 521.485 L87.4636 527.089 Z" fill="#000000" fill-rule="nonzero" fill-opacity="1" /><path clip-path="url(#clip560)" d="M129.396 493.047 Q129.074 493.047 128.365 492.789 L66.1433 469.504 Q66.0789 469.504 65.7246 469.343 Q65.3704 469.182 65.1449 469.086 Q64.8873 468.989 64.694 468.796 Q64.5008 468.57 64.5008 468.313 Q64.5008 467.669 65.306 467.669 Q65.3704 467.669 66.1433 467.862 L128.429 491.211 Q129.557 491.598 129.879 491.855 Q130.201 492.081 130.201 492.467 Q130.201 493.047 129.396 493.047 Z" fill="#000000" fill-rule="nonzero" fill-opacity="1" /><path clip-path="url(#clip560)" d="M124.597 451.668 Q124.597 448.158 124.146 447.353 Q123.727 446.515 121.634 446.515 L90.7486 446.515 Q88.5586 446.515 88.0111 447.353 Q87.4636 448.158 87.4636 451.668 L85.4024 451.668 L84.6939 442.168 L89.0417 442.168 Q84.6939 438.206 84.6939 432.924 Q84.6939 427.321 89.0417 423.231 Q93.3895 419.14 99.6052 419.14 Q105.885 419.14 110.233 423.488 Q114.581 427.836 114.581 433.858 Q114.581 437.143 112.906 439.366 Q111.199 441.556 109.943 441.974 L110.555 441.974 L121.634 441.974 Q123.76 441.974 124.178 441.137 Q124.597 440.3 124.597 436.821 L126.626 436.821 Q126.433 443.746 126.433 444.261 Q126.433 444.905 126.626 451.668 L124.597 451.668 M106.336 441.974 Q107.335 441.974 107.689 441.846 Q108.043 441.684 109.106 441.04 Q113.099 438.432 113.099 434.181 Q113.099 434.148 113.099 434.116 Q113.099 430.348 109.267 427.482 Q105.402 424.615 99.6052 424.615 Q94.0658 424.615 90.2011 427.224 Q86.3364 429.833 86.3364 433.44 Q86.3364 436.016 87.7212 438.271 Q89.1061 440.525 91.6181 441.974 L106.336 441.974 Z" fill="#000000" fill-rule="nonzero" fill-opacity="1" /><path clip-path="url(#clip560)" d="M112.777 414.433 Q111.715 415.432 110.33 415.432 Q108.945 415.432 107.947 414.433 Q106.916 413.435 106.916 411.921 Q106.916 410.472 107.882 409.506 Q108.816 408.507 110.362 408.507 Q111.876 408.507 112.874 409.57 Q113.84 410.601 113.84 411.921 Q113.84 413.435 112.777 414.433 Z" fill="#000000" fill-rule="nonzero" fill-opacity="1" /><path clip-path="url(#clip560)" d="M87.4636 386.824 L85.4024 386.824 L84.6939 377.13 L106.594 377.13 Q108.172 377.13 109.106 377.001 Q110.008 376.873 111.07 376.357 Q112.133 375.81 112.616 374.586 Q113.099 373.33 113.099 371.333 Q113.099 367.758 110.169 365.568 Q107.238 363.346 102.89 363.346 L91.1351 363.346 Q88.6874 363.346 88.0755 364.216 Q87.4636 365.085 87.4636 368.499 L85.4024 368.499 L84.6939 358.805 L108.108 358.805 Q110.555 358.805 111.199 357.968 Q111.811 357.098 111.811 353.652 L113.84 353.652 L114.581 363.153 L108.623 363.153 Q114.549 365.923 114.581 371.655 Q114.581 374.554 113.84 376.551 Q113.099 378.515 112.198 379.514 Q111.264 380.512 109.492 381.059 Q107.721 381.575 106.626 381.639 Q105.531 381.704 103.405 381.704 L93.5183 381.704 Q89.0417 381.704 88.2687 382.348 Q87.4636 382.992 87.4636 386.824 Z" fill="#000000" fill-rule="nonzero" fill-opacity="1" /><path clip-path="url(#clip560)" d="M112.777 349.589 Q111.715 350.588 110.33 350.588 Q108.945 350.588 107.947 349.589 Q106.916 348.591 106.916 347.077 Q106.916 345.628 107.882 344.662 Q108.816 343.663 110.362 343.663 Q111.876 343.663 112.874 344.726 Q113.84 345.757 113.84 347.077 Q113.84 348.591 112.777 349.589 Z" fill="#000000" fill-rule="nonzero" fill-opacity="1" /><polyline clip-path="url(#clip562)" style="stroke:#ffa500; stroke-linecap:round; stroke-linejoin:round; stroke-width:12; stroke-opacity:0.75; fill:none" points="225.456,984.237 227.002,955.159 228.547,926.819 230.093,899.39 231.638,872.857 233.184,847.206 234.729,822.421 236.275,798.487 237.82,775.389 239.366,753.112 240.911,731.64 242.457,710.958 244.002,691.051 245.548,671.905 247.093,653.503 248.639,635.831 250.184,618.874 251.73,602.617 253.275,587.045 254.821,572.144 256.366,557.898 257.912,544.293 259.457,531.315 261.003,518.95 262.548,507.182 264.094,495.998 265.639,485.384 267.185,475.326 268.73,465.81 270.276,456.823 271.821,448.351 273.367,440.38 274.912,432.899 276.458,425.893 278.003,419.349 279.549,413.256 281.094,407.6 282.64,402.369 284.185,397.552 285.731,393.135 287.276,389.107 288.822,385.456 290.367,382.172 291.913,379.241 293.458,376.654 295.004,374.399 296.549,372.466 298.095,370.844 299.64,369.522 301.186,368.49 302.731,367.739 304.277,367.257 305.822,367.037 307.368,367.067 308.913,367.338 310.459,367.842 312.004,368.57 313.55,369.512 315.095,370.66 316.641,372.006 318.186,373.541 319.732,375.257 321.277,377.147 322.823,379.202 324.368,381.415 325.914,383.779 327.459,386.286 329.005,388.929 330.55,391.702 332.096,394.597 333.641,397.609 335.187,400.73 336.732,403.955 338.278,407.277 339.823,410.691 341.369,414.191 342.914,417.771 344.46,421.425 346.005,425.149 347.551,428.938 349.096,432.786 350.642,436.688 352.187,440.64 353.733,444.637 355.278,448.675 356.824,452.749 358.369,456.856 359.915,460.991 361.46,465.15 363.006,469.33 364.551,473.527 366.097,477.738 367.642,481.958 369.188,486.186 370.733,490.417 372.279,494.648 373.824,498.878 375.37,503.102 376.915,507.318 378.461,511.524 380.006,515.716 381.552,519.894 383.097,524.053 384.643,528.193 386.188,532.311 387.734,536.405 389.279,540.472 390.825,544.512 392.37,548.523 393.916,552.502 395.461,556.449 397.007,560.361 398.552,564.238 400.098,568.077 401.643,571.879 403.189,575.641 404.734,579.362 406.28,583.042 407.825,586.679 409.371,590.272 410.916,593.822 412.462,597.326 414.007,600.784 415.553,604.195 417.098,607.559 418.644,610.876 420.189,614.144 421.735,617.364 423.28,620.534 424.826,623.655 426.371,626.726 427.917,629.748 429.462,632.718 431.008,635.639 432.553,638.509 434.099,641.328 435.644,644.097 437.19,646.814 438.735,649.482 440.281,652.098 441.826,654.664 443.372,657.179 444.917,659.644 446.463,662.059 448.008,664.424 449.554,666.739 451.099,669.005 452.645,671.222 454.19,673.39 455.736,675.509 457.281,677.58 458.827,679.603 460.372,681.579 461.918,683.507 463.463,685.39 465.009,687.225 466.554,689.016 468.1,690.761 469.645,692.461 471.191,694.117 472.736,695.729 474.282,697.298 475.827,698.824 477.373,700.308 478.918,701.75 480.464,703.151 482.009,704.512 483.555,705.833 485.1,707.114 486.646,708.357 488.191,709.562 489.737,710.728 491.282,711.858 492.828,712.952 494.373,714.009 495.919,715.032 497.464,716.019 499.01,716.973 500.555,717.894 502.101,718.781 503.646,719.637 505.192,720.461 506.737,721.254 508.283,722.016 509.828,722.749 511.374,723.453 512.919,724.128 514.465,724.775 516.01,725.395 517.556,725.988 519.101,726.555 520.647,727.096 522.192,727.613 523.738,728.105 525.283,728.573 526.829,729.017 528.374,729.439 529.92,729.839 531.465,730.217 533.011,730.574 534.556,730.911 536.102,731.227 537.647,731.524 539.193,731.802 540.738,732.062 542.284,732.304 543.829,732.528 545.375,732.735 546.92,732.926 548.466,733.1 550.011,733.26 551.557,733.404 553.102,733.533 554.648,733.649 556.193,733.751 557.739,733.839 559.284,733.915 560.83,733.978 562.375,734.03 563.921,734.069 565.466,734.098 567.012,734.116 568.557,734.123 570.103,734.121 571.648,734.109 573.194,734.087 574.739,734.057 576.285,734.018 577.83,733.971 579.376,733.916 580.921,733.854 582.467,733.784 584.012,733.707 585.558,733.624 587.103,733.535 588.649,733.439 590.194,733.338 591.74,733.232 593.285,733.12 594.831,733.003 596.376,732.882 597.922,732.757 599.467,732.627 601.013,732.494 602.558,732.356 604.104,732.216 605.649,732.072 607.195,731.925 608.74,731.776 610.286,731.624 611.831,731.469 613.377,731.313 614.922,731.154 616.468,730.994 618.013,730.832 619.559,730.669 621.104,730.504 622.65,730.339 624.195,730.172 625.741,730.005 627.286,729.836 628.832,729.668 630.377,729.499 631.923,729.329 633.468,729.16 635.014,728.991 636.559,728.821 638.105,728.652 639.65,728.483 641.196,728.315 642.741,728.147 644.287,727.98 645.832,727.814 647.378,727.648 648.923,727.483 650.469,727.319 652.014,727.157 653.56,726.995 655.105,726.835 656.651,726.676 658.196,726.518 659.742,726.361 661.287,726.206 662.833,726.053 664.378,725.901 665.924,725.75 667.469,725.601 669.015,725.454 670.56,725.309 672.106,725.165 673.651,725.023 675.197,724.883 676.742,724.745 678.288,724.609 679.833,724.474 681.379,724.342 682.924,724.211 684.47,724.083 686.015,723.956 687.561,723.831 689.106,723.709 690.652,723.588 692.197,723.469 693.743,723.352 695.288,723.238 696.834,723.125 698.379,723.015 699.925,722.906 701.47,722.8 703.016,722.695 704.561,722.593 706.107,722.492 707.652,722.394 709.198,722.297 710.743,722.203 712.289,722.11 713.834,722.02 715.38,721.931 716.925,721.845 718.471,721.76 720.016,721.678 721.562,721.597 723.107,721.518 724.653,721.441 726.198,721.366 727.744,721.293 729.289,721.221 730.835,721.152 732.38,721.084 733.926,721.018 735.471,720.953 737.017,720.891 738.562,720.83 740.108,720.771 741.653,720.713 743.199,720.657 744.744,720.603 746.29,720.55 747.835,720.499 749.381,720.45 750.926,720.402 752.472,720.355 754.017,720.31 755.563,720.267 757.108,720.224 758.654,720.184 760.199,720.144 761.745,720.106 763.29,720.07 764.836,720.034 766.381,720 767.927,719.967 769.472,719.936 771.018,719.905 772.563,719.876 774.109,719.848 775.654,719.821 777.2,719.796 778.745,719.771 780.291,719.747 781.836,719.725 783.382,719.703 784.927,719.683 786.473,719.663 788.018,719.644 789.564,719.627 791.109,719.61 792.655,719.594 794.2,719.579 795.746,719.565 797.291,719.552 798.837,719.539 800.382,719.527 801.928,719.516 803.473,719.506 805.019,719.496 806.564,719.487 808.11,719.479 809.655,719.472 811.201,719.465 812.746,719.458 814.292,719.453 815.837,719.448 817.383,719.443 818.928,719.439 820.474,719.436 822.019,719.433 823.565,719.43 825.11,719.428 826.656,719.427 828.201,719.426 829.747,719.425 831.292,719.425 832.838,719.425 834.383,719.425 835.929,719.426 837.474,719.427 839.02,719.429 840.565,719.431 842.111,719.433 843.656,719.436 845.202,719.439 846.747,719.442 848.293,719.445 849.838,719.449 851.384,719.453 852.929,719.457 854.475,719.461 856.02,719.465 857.566,719.47 859.111,719.475 860.657,719.48 862.202,719.485 863.748,719.491 865.293,719.496 866.839,719.502 868.384,719.508 869.93,719.513 871.475,719.519 873.021,719.526 874.566,719.532 876.112,719.538 877.657,719.544 879.203,719.551 880.748,719.557 882.294,719.564 883.839,719.57 885.385,719.577 886.93,719.584 888.476,719.59 890.021,719.597 891.567,719.604 893.112,719.611 894.658,719.617 896.203,719.624 897.749,719.631 899.294,719.638 900.84,719.645 902.385,719.651 903.931,719.658 905.476,719.665 907.022,719.672 908.567,719.678 910.113,719.685 911.658,719.691 913.204,719.698 914.749,719.704 916.295,719.711 917.84,719.717 919.385,719.724 920.931,719.73 922.476,719.736 924.022,719.742 925.567,719.749 927.113,719.755 928.658,719.761 930.204,719.767 931.749,719.773 933.295,719.778 934.84,719.784 936.386,719.79 937.931,719.795 939.477,719.801 941.022,719.806 942.568,719.812 944.113,719.817 945.659,719.822 947.204,719.827 948.75,719.832 950.295,719.837 951.841,719.842 953.386,719.847 954.932,719.852 956.477,719.857 958.023,719.861 959.568,719.866 961.114,719.87 962.659,719.874 964.205,719.879 965.75,719.883 967.296,719.887 968.841,719.891 970.387,719.895 971.932,719.899 973.478,719.902 975.023,719.906 976.569,719.91 978.114,719.913 979.66,719.917 981.205,719.92 982.751,719.923 984.296,719.927 985.842,719.93 987.387,719.933 988.933,719.936 990.478,719.939 992.024,719.942 993.569,719.944 995.115,719.947 996.66,719.95 998.206,719.952 999.751,719.955 1001.3,719.957 1002.84,719.96 1004.39,719.962 1005.93,719.964 1007.48,719.966 1009.02,719.968 1010.57,719.97 1012.12,719.972 1013.66,719.974 1015.21,719.976 1016.75,719.978 1018.3,719.98 1019.84,719.981 1021.39,719.983 1022.93,719.985 1024.48,719.986 1026.02,719.988 1027.57,719.989 1029.12,719.99 1030.66,719.992 1032.21,719.993 1033.75,719.994 1035.3,719.995 1036.84,719.996 1038.39,719.997 1039.93,719.998 1041.48,719.999 1043.03,720 1044.57,720.001 1046.12,720.002 1047.66,720.003 1049.21,720.004 1050.75,720.004 1052.3,720.005 1053.84,720.006 1055.39,720.006 1056.93,720.007 1058.48,720.008 1060.03,720.008 1061.57,720.009 1063.12,720.009 1064.66,720.01 1066.21,720.01 1067.75,720.01 1069.3,720.011 1070.84,720.011 1072.39,720.011 1073.94,720.012 1075.48,720.012 1077.03,720.012 1078.57,720.012 1080.12,720.012 1081.66,720.013 1083.21,720.013 1084.75,720.013 1086.3,720.013 1087.84,720.013 1089.39,720.013 1090.94,720.013 1092.48,720.013 1094.03,720.013 1095.57,720.013 1097.12,720.013 1098.66,720.013 1100.21,720.013 1101.75,720.013 1103.3,720.013 1104.85,720.013 1106.39,720.013 1107.94,720.013 1109.48,720.012 1111.03,720.012 1112.57,720.012 1114.12,720.012 1115.66,720.012 1117.21,720.012 1118.75,720.012 1120.3,720.011 1121.85,720.011 1123.39,720.011 1124.94,720.011 1126.48,720.011 1128.03,720.01 1129.57,720.01 1131.12,720.01 1132.66,720.01 1134.21,720.009 1135.76,720.009 1137.3,720.009 1138.85,720.009 1140.39,720.008 1141.94,720.008 1143.48,720.008 1145.03,720.008 1146.57,720.007 1148.12,720.007 1149.66,720.007 1151.21,720.007 1152.76,720.006 "/>
<polyline clip-path="url(#clip562)" style="stroke:#0000ff; stroke-linecap:round; stroke-linejoin:round; stroke-width:12; stroke-opacity:0.5; fill:none" points="225.456,984.237 227.002,955.213 228.547,927.008 230.093,899.761 231.638,873.533 233.184,848.272 234.729,823.973 236.275,800.59 237.82,778.143 239.366,756.711 240.911,736.097 242.457,716.352 244.002,697.331 245.548,679.224 247.093,661.774 248.639,645.142 250.184,629.249 251.73,613.958 253.275,599.447 254.821,585.656 256.366,572.413 257.912,559.973 259.457,548.09 261.003,536.862 262.548,526.206 264.094,516.125 265.639,506.763 267.185,497.849 268.73,489.59 270.276,481.74 271.821,474.494 273.367,467.689 274.912,461.22 276.458,455.109 278.003,449.719 279.549,444.493 281.094,439.862 282.64,435.334 284.185,431.508 285.731,427.899 287.276,424.779 288.822,422.019 290.367,419.569 291.913,417.461 293.458,415.522 295.004,414.064 296.549,412.791 298.095,411.903 299.64,411.289 301.186,410.739 302.731,410.424 304.277,410.558 305.822,410.936 307.368,411.483 308.913,412.156 310.459,413.039 312.004,414.15 313.55,415.397 315.095,416.848 316.641,418.489 318.186,420.166 319.732,421.848 321.277,423.895 322.823,426.232 324.368,428.577 325.914,430.931 327.459,433.474 329.005,436.229 330.55,438.881 332.096,441.91 333.641,444.725 335.187,447.98 336.732,451.088 338.278,454.352 339.823,457.583 341.369,460.853 342.914,464.321 344.46,467.752 346.005,471.141 347.551,474.66 349.096,478.038 350.642,481.558 352.187,485.199 353.733,488.76 355.278,492.424 356.824,496.164 358.369,499.629 359.915,503.28 361.46,506.928 363.006,510.636 364.551,514.332 366.097,517.91 367.642,521.567 369.188,525.175 370.733,528.733 372.279,532.275 373.824,535.987 375.37,539.586 376.915,543.179 378.461,546.738 380.006,550.454 381.552,554.033 383.097,557.696 384.643,561.342 386.188,564.691 387.734,568.257 389.279,571.836 390.825,575.277 392.37,578.785 393.916,582.193 395.461,585.497 397.007,588.697 398.552,591.824 400.098,594.887 401.643,598.055 403.189,600.898 404.734,604.121 406.28,607.284 407.825,609.883 409.371,612.769 410.916,615.605 412.462,618.382 414.007,621.08 415.553,623.968 417.098,626.621 418.644,629.276 420.189,632.099 421.735,634.774 423.28,637.255 424.826,639.675 426.371,642.113 427.917,644.535 429.462,646.818 431.008,649.054 432.553,651.469 434.099,653.789 435.644,656.017 437.19,658.225 438.735,660.353 440.281,662.575 441.826,664.619 443.372,666.678 444.917,668.702 446.463,670.56 448.008,672.677 449.554,674.8 451.099,676.689 452.645,678.451 454.19,680.028 455.736,681.68 457.281,683.358 458.827,685.012 460.372,686.718 461.918,688.246 463.463,689.709 465.009,691.155 466.554,692.631 468.1,694.133 469.645,695.513 471.191,696.936 472.736,698.393 474.282,699.798 475.827,701.074 477.373,702.569 478.918,704.017 480.464,705.341 482.009,706.117 483.555,707.162 485.1,708.24 486.646,708.933 488.191,709.841 489.737,710.917 491.282,712.17 492.828,712.886 494.373,713.635 495.919,714.544 497.464,715.274 499.01,716.38 500.555,717.58 502.101,718.523 503.646,719.366 505.192,720.094 506.737,720.551 508.283,720.909 509.828,721.783 511.374,722.511 512.919,723.428 514.465,724.389 516.01,724.989 517.556,725.287 519.101,725.612 520.647,726.413 522.192,726.957 523.738,727.444 525.283,727.778 526.829,728.263 528.374,728.568 529.92,728.964 531.465,729.44 533.011,729.919 534.556,730.146 536.102,730.433 537.647,730.622 539.193,730.762 540.738,730.718 542.284,730.864 543.829,730.914 545.375,730.827 546.92,730.829 548.466,730.766 550.011,730.656 551.557,730.502 553.102,730.671 554.648,730.717 556.193,730.687 557.739,730.619 559.284,730.648 560.83,730.61 562.375,730.713 563.921,730.661 565.466,730.627 567.012,730.665 568.557,730.695 570.103,730.715 571.648,730.694 573.194,730.589 574.739,730.474 576.285,730.398 577.83,730.274 579.376,730.143 580.921,729.931 582.467,729.899 584.012,729.684 585.558,729.728 587.103,729.603 588.649,729.56 590.194,729.293 591.74,729.1 593.285,728.903 594.831,728.768 596.376,728.675 597.922,728.42 599.467,728.385 601.013,728.217 602.558,728.018 604.104,727.954 605.649,727.867 607.195,727.807 608.74,727.627 610.286,727.64 611.831,727.55 613.377,727.518 614.922,727.469 616.468,727.414 618.013,727.424 619.559,727.34 621.104,727.284 622.65,727.208 624.195,727.059 625.741,727.014 627.286,726.809 628.832,726.764 630.377,726.744 631.923,726.585 633.468,726.554 635.014,726.624 636.559,726.66 638.105,726.658 639.65,726.611 641.196,726.582 642.741,726.557 644.287,726.513 645.832,726.482 647.378,726.527 648.923,726.506 650.469,726.418 652.014,726.377 653.56,726.323 655.105,726.232 656.651,726.07 658.196,725.984 659.742,726.035 661.287,725.999 662.833,725.972 664.378,725.861 665.924,725.886 667.469,725.781 669.015,725.653 670.56,725.707 672.106,725.49 673.651,725.645 675.197,725.698 676.742,725.779 678.288,725.827 679.833,726.038 681.379,726.139 682.924,726.029 684.47,726.191 686.015,726.293 687.561,726.342 689.106,726.328 690.652,726.347 692.197,726.363 693.743,726.456 695.288,726.555 696.834,726.534 698.379,726.64 699.925,726.559 701.47,726.633 703.016,726.713 704.561,726.759 706.107,726.689 707.652,726.727 709.198,726.744 710.743,726.787 712.289,726.694 713.834,726.674 715.38,726.573 716.925,726.497 718.471,726.264 720.016,726.208 721.562,726.05 723.107,726.214 724.653,726.184 726.198,726.252 727.744,726.275 729.289,726.376 730.835,726.41 732.38,726.422 733.926,726.516 735.471,726.729 737.017,726.847 738.562,726.857 740.108,726.851 741.653,726.691 743.199,726.654 744.744,726.655 746.29,726.632 747.835,726.641 749.381,726.607 750.926,726.59 752.472,726.571 754.017,726.651 755.563,726.628 757.108,726.45 758.654,726.475 760.199,726.452 761.745,726.234 763.29,726.084 764.836,726.025 766.381,726.07 767.927,726.135 769.472,726.113 771.018,726.183 772.563,725.912 774.109,725.726 775.654,725.557 777.2,725.349 778.745,725.337 780.291,725.314 781.836,725.21 783.382,725.247 784.927,725.388 786.473,725.454 788.018,725.436 789.564,725.484 791.109,725.517 792.655,725.349 794.2,725.339 795.746,725.147 797.291,725.035 798.837,725.091 800.382,724.941 801.928,724.993 803.473,724.871 805.019,724.781 806.564,724.806 808.11,724.777 809.655,724.544 811.201,724.547 812.746,724.454 814.292,724.372 815.837,724.269 817.383,724.297 818.928,724.365 820.474,724.301 822.019,724.081 823.565,723.959 825.11,723.908 826.656,723.837 828.201,723.65 829.747,723.665 831.292,723.597 832.838,723.688 834.383,723.55 835.929,723.485 837.474,723.535 839.02,723.501 840.565,723.445 842.111,723.26 843.656,723.1 845.202,723.206 846.747,723.203 848.293,723.302 849.838,723.323 851.384,723.325 852.929,723.274 854.475,723.322 856.02,723.537 857.566,723.758 859.111,723.841 860.657,723.777 862.202,723.817 863.748,724.036 865.293,724.227 866.839,724.505 868.384,724.756 869.93,724.863 871.475,725.095 873.021,725.412 874.566,725.84 876.112,726.034 877.657,726.055 879.203,726.127 880.748,726.187 882.294,726.265 883.839,726.392 885.385,726.391 886.93,726.487 888.476,726.651 890.021,726.634 891.567,726.537 893.112,726.457 894.658,726.408 896.203,726.45 897.749,726.477 899.294,726.677 900.84,726.734 902.385,726.675 903.931,726.701 905.476,726.669 907.022,726.724 908.567,726.775 910.113,726.712 911.658,726.719 913.204,727.025 914.749,726.997 916.295,727.007 917.84,726.984 919.385,726.856 920.931,726.874 922.476,726.877 924.022,726.927 925.567,726.864 927.113,726.826 928.658,726.817 930.204,726.77 931.749,726.733 933.295,726.811 934.84,726.833 936.386,726.838 937.931,726.71 939.477,726.832 941.022,726.704 942.568,726.736 944.113,726.605 945.659,726.329 947.204,726.408 948.75,726.392 950.295,726.337 951.841,726.208 953.386,726.394 954.932,726.416 956.477,726.307 958.023,726.212 959.568,726.112 961.114,726.23 962.659,726.216 964.205,726.212 965.75,726.278 967.296,726.212 968.841,726.059 970.387,726.024 971.932,725.905 973.478,725.737 975.023,725.656 976.569,725.433 978.114,725.453 979.66,725.396 981.205,725.551 982.751,725.343 984.296,725.276 985.842,725.396 987.387,725.216 988.933,725.28 990.478,725.283 992.024,725.337 993.569,725.298 995.115,725.365 996.66,725.492 998.206,725.541 999.751,725.67 1001.3,725.567 1002.84,725.515 1004.39,725.613 1005.93,725.627 1007.48,725.616 1009.02,725.569 1010.57,725.624 1012.12,725.545 1013.66,725.515 1015.21,725.404 1016.75,725.533 1018.3,725.579 1019.84,725.543 1021.39,725.529 1022.93,725.463 1024.48,725.393 1026.02,725.407 1027.57,725.453 1029.12,725.601 1030.66,725.782 1032.21,725.93 1033.75,725.958 1035.3,726.2 1036.84,726.27 1038.39,726.284 1039.93,726.422 1041.48,726.51 1043.03,726.42 1044.57,726.519 1046.12,726.479 1047.66,726.359 1049.21,726.294 1050.75,726.291 1052.3,726.327 1053.84,726.449 1055.39,726.538 1056.93,726.615 1058.48,726.655 1060.03,726.669 1061.57,726.84 1063.12,727.01 1064.66,726.995 1066.21,727.178 1067.75,727.059 1069.3,727.191 1070.84,727.213 1072.39,727.222 1073.94,727.328 1075.48,727.335 1077.03,727.449 1078.57,727.484 1080.12,727.374 1081.66,727.292 1083.21,727.293 1084.75,727.416 1086.3,727.363 1087.84,727.217 1089.39,727.208 1090.94,727.261 1092.48,727.357 1094.03,727.314 1095.57,727.163 1097.12,727.007 1098.66,726.996 1100.21,726.855 1101.75,726.588 1103.3,726.53 1104.85,726.416 1106.39,726.331 1107.94,726.351 1109.48,726.467 1111.03,726.579 1112.57,726.522 1114.12,726.438 1115.66,726.35 1117.21,726.143 1118.75,725.973 1120.3,726.059 1121.85,726.118 1123.39,725.887 1124.94,725.905 1126.48,725.738 1128.03,725.808 1129.57,725.621 1131.12,725.6 1132.66,725.578 1134.21,725.643 1135.76,725.6 1137.3,725.611 1138.85,725.674 1140.39,725.879 1141.94,725.918 1143.48,725.708 1145.03,725.471 1146.57,725.634 1148.12,725.556 1149.66,725.408 1151.21,725.405 1152.76,725.386 1154.3,725.515 1155.85,725.963 1157.39,725.939 1158.94,726.008 1160.48,726.098 1162.03,726.132 1163.57,726.269 1165.12,726.267 1166.67,726.165 1168.21,726.113 1169.76,726.131 1171.3,726.148 1172.85,726.262 1174.39,726.436 1175.94,726.312 1177.48,726.2 1179.03,726.304 1180.57,726.217 1182.12,726.186 1183.67,726.018 1185.21,725.729 1186.76,725.892 1188.3,725.804 1189.85,725.727 1191.39,725.785 1192.94,725.806 1194.48,725.648 1196.03,725.611 1197.58,725.43 1199.12,725.264 1200.67,725.028 1202.21,724.903 1203.76,724.727 1205.3,724.51 1206.85,724.417 1208.39,724.002 1209.94,723.857 1211.48,723.819 1213.03,723.646 1214.58,723.54 1216.12,723.444 1217.67,723.272 1219.21,723.008 1220.76,722.856 1222.3,722.728 1223.85,722.416 1225.39,722.265 1226.94,722.128 1228.49,721.871 1230.03,721.847 1231.58,721.94 1233.12,722.109 1234.67,722.037 1236.21,722.256 1237.76,722.195 1239.3,722.034 1240.85,721.861 1242.39,721.661 1243.94,721.435 1245.49,721.24 1247.03,721.226 1248.58,721.087 1250.12,720.892 1251.67,721.036 1253.21,721.181 1254.76,721.079 1256.3,721.249 1257.85,721.125 1259.4,720.913 1260.94,720.772 1262.49,720.634 1264.03,720.592 1265.58,720.454 1267.12,720.4 1268.67,720.37 1270.21,720.589 1271.76,720.672 1273.3,720.22 1274.85,720.437 1276.4,720.65 1277.94,720.499 1279.49,721.029 1281.03,721.077 1282.58,721.098 1284.12,721.066 1285.67,721.263 1287.21,721.449 1288.76,721.46 1290.31,721.595 1291.85,721.45 1293.4,721.61 1294.94,721.145 1296.49,721.202 1298.03,721.209 1299.58,721.405 1301.12,721.506 1302.67,721.405 1304.21,721.014 1305.76,721.112 1307.31,721.149 1308.85,721.299 1310.4,720.95 1311.94,720.994 1313.49,720.93 1315.03,720.874 1316.58,720.85 1318.12,720.859 1319.67,720.878 1321.22,720.865 1322.76,720.982 1324.31,721.011 1325.85,720.768 1327.4,720.785 1328.94,720.858 1330.49,720.968 1332.03,720.969 1333.58,720.845 1335.12,720.87 1336.67,720.959 1338.22,721.018 1339.76,721.022 1341.31,721.132 1342.85,720.973 1344.4,720.949 1345.94,721.069 1347.49,721.171 1349.03,721.169 1350.58,721.296 1352.13,721.477 1353.67,721.493 1355.22,721.597 1356.76,721.789 1358.31,721.905 1359.85,722.103 1361.4,722.008 1362.94,722.069 1364.49,722.03 1366.03,722.282 1367.58,722.445 1369.13,722.547 1370.67,722.708 1372.22,722.852 1373.76,723.046 1375.31,723.051 1376.85,723.323 1378.4,723.517 1379.94,723.63 1381.49,723.688 1383.04,723.715 1384.58,723.923 1386.13,723.944 1387.67,723.943 1389.22,723.997 1390.76,724.008 1392.31,723.874 1393.85,723.935 1395.4,723.866 1396.94,723.901 1398.49,723.989 1400.04,724.128 1401.58,724.217 1403.13,724.253 1404.67,724.454 1406.22,724.35 1407.76,724.354 1409.31,724.426 1410.85,724.365 1412.4,724.294 1413.95,724.309 1415.49,724.246 1417.04,724.306 1418.58,724.39 1420.13,724.377 1421.67,724.451 1423.22,724.509 1424.76,724.517 1426.31,724.404 1427.85,724.369 1429.4,724.278 1430.95,724.333 1432.49,724.195 1434.04,724.095 1435.58,723.903 1437.13,723.922 1438.67,723.654 1440.22,723.513 1441.76,723.516 1443.31,723.452 1444.86,723.384 1446.4,723.147 1447.95,722.933 1449.49,722.767 1451.04,722.678 1452.58,722.573 1454.13,722.285 1455.67,722.274 1457.22,722.05 1458.76,722.028 1460.31,721.884 1461.86,721.677 1463.4,721.458 1464.95,721.268 1466.49,721.058 1468.04,721.027 1469.58,720.902 1471.13,720.779 1472.67,720.756 1474.22,720.575 1475.77,720.456 1477.31,720.429 1478.86,720.206 1480.4,720.225 1481.95,720.09 1483.49,720.016 1485.04,720.003 1486.58,719.884 1488.13,719.733 1489.67,719.727 1491.22,719.681 1492.77,719.633 1494.31,719.615 1495.86,719.61 1497.4,719.694 1498.95,719.727 1500.49,719.684 1502.04,719.623 1503.58,719.573 1505.13,719.509 1506.68,719.475 1508.22,719.328 1509.77,719.178 1511.31,719.081 1512.86,718.892 1514.4,719.056 1515.95,718.955 1517.49,718.966 1519.04,718.849 1520.58,718.768 1522.13,718.734 1523.68,718.602 1525.22,718.592 1526.77,718.505 1528.31,718.504 1529.86,718.491 1531.4,718.622 1532.95,718.778 1534.49,718.825 1536.04,718.967 1537.59,719.212 1539.13,719.369 1540.68,719.344 1542.22,719.527 1543.77,719.478 1545.31,719.739 1546.86,719.538 1548.4,719.449 1549.95,719.553 1551.49,719.641 1553.04,719.715 1554.59,719.69 1556.13,719.637 1557.68,719.613 1559.22,719.872 1560.77,719.894 1562.31,719.609 1563.86,719.522 1565.4,719.502 1566.95,719.624 1568.5,719.61 1570.04,719.614 1571.59,719.856 1573.13,720.138 1574.68,720.403 1576.22,720.618 1577.77,720.842 1579.31,720.929 1580.86,720.83 1582.4,720.95 1583.95,721.242 1585.5,721.504 1587.04,721.976 1588.59,722.209 1590.13,722.46 1591.68,722.735 1593.22,723.04 1594.77,723.295 1596.31,723.427 1597.86,723.713 1599.41,723.914 1600.95,724.107 1602.5,724.361 1604.04,724.664 1605.59,724.802 1607.13,724.928 1608.68,725.135 1610.22,725.193 1611.77,725.46 1613.31,725.643 1614.86,725.798 1616.41,726.186 1617.95,726.243 1619.5,726.36 1621.04,726.413 1622.59,726.343 1624.13,726.47 1625.68,726.542 1627.22,726.51 1628.77,726.215 1630.32,726.22 1631.86,726.293 1633.41,726.323 1634.95,726.327 1636.5,726.369 1638.04,726.42 1639.59,726.342 1641.13,726.475 1642.68,726.528 1644.22,726.49 1645.77,726.435 1647.32,726.41 1648.86,726.293 1650.41,726.161 1651.95,725.959 1653.5,725.891 1655.04,725.818 1656.59,725.553 1658.13,725.47 1659.68,725.292 1661.23,725.132 1662.77,724.974 1664.32,724.833 1665.86,724.724 1667.41,724.508 1668.95,724.43 1670.5,724.426 1672.04,724.282 1673.59,724.202 1675.13,724.009 1676.68,723.717 1678.23,723.573 1679.77,723.438 1681.32,723.379 1682.86,723.173 1684.41,723.112 1685.95,722.953 1687.5,722.794 1689.04,722.661 1690.59,722.553 1692.14,722.389 1693.68,722.33 1695.23,722.322 1696.77,722.237 1698.32,722.024 1699.86,721.912 1701.41,721.86 1702.95,721.709 1704.5,721.494 1706.04,721.279 1707.59,721.167 1709.14,721.004 1710.68,720.903 1712.23,720.824 1713.77,720.885 1715.32,720.813 1716.86,720.666 1718.41,720.538 1719.95,720.455 1721.5,720.432 1723.05,720.296 1724.59,720.262 1726.14,720.424 1727.68,720.587 1729.23,720.587 1730.77,720.488 1732.32,720.484 1733.86,720.519 1735.41,720.631 1736.95,720.581 1738.5,720.507 1740.05,720.311 1741.59,720.407 1743.14,720.393 1744.68,720.358 1746.23,720.376 1747.77,720.384 1749.32,720.465 1750.86,720.565 1752.41,720.522 1753.96,720.56 1755.5,720.643 1757.05,720.624 1758.59,720.634 1760.14,720.529 1761.68,720.476 1763.23,720.455 1764.77,720.37 1766.32,720.218 1767.86,720.029 1769.41,719.834 1770.96,719.807 1772.5,719.653 1774.05,719.669 1775.59,719.503 1777.14,719.384 1778.68,719.301 1780.23,719.196 1781.77,719.229 1783.32,719.264 1784.87,719.299 1786.41,719.276 1787.96,719.242 1789.5,719.287 1791.05,719.066 1792.59,719.081 1794.14,719.029 1795.68,718.897 1797.23,719.209 1798.77,719.301 1800.32,719.274 1801.87,719.347 1803.41,719.137 1804.96,719.177 1806.5,719.418 1808.05,719.441 1809.59,719.663 1811.14,719.68 1812.68,719.791 1814.23,720.067 1815.78,720.341 1817.32,720.593 1818.87,720.82 1820.41,721.013 1821.96,721.378 1823.5,721.69 1825.05,721.853 1826.59,721.913 1828.14,722.068 1829.68,722.297 1831.23,722.283 1832.78,722.55 1834.32,722.618 1835.87,722.711 1837.41,722.823 1838.96,723.014 1840.5,723.124 1842.05,723.163 1843.59,723.17 1845.14,723.419 1846.69,723.724 1848.23,724.011 1849.78,724.156 1851.32,724.287 1852.87,724.351 1854.41,724.484 1855.96,724.61 1857.5,724.932 1859.05,725.151 1860.59,725.265 1862.14,725.368 1863.69,725.559 1865.23,725.581 1866.78,725.67 1868.32,725.559 1869.87,725.862 1871.41,725.792 1872.96,726.108 1874.5,726.241 1876.05,726.319 1877.6,726.5 1879.14,726.874 1880.69,726.91 1882.23,727.22 1883.78,727.225 1885.32,727.499 1886.87,727.735 1888.41,728.111 1889.96,728.376 1891.5,728.526 1893.05,728.598 1894.6,728.625 1896.14,728.658 1897.69,728.549 1899.23,728.555 1900.78,728.603 1902.32,728.576 1903.87,728.755 1905.41,728.816 1906.96,728.942 1908.51,729.299 1910.05,729.347 1911.6,729.55 1913.14,729.815 1914.69,730.06 1916.23,730.196 1917.78,730.122 1919.32,730.385 1920.87,730.346 1922.41,730.513 1923.96,730.693 1925.51,731.009 1927.05,731.127 1928.6,731.12 1930.14,731.286 1931.69,731.717 1933.23,731.917 1934.78,731.955 1936.32,732.195 1937.87,732.292 1939.42,732.328 1940.96,732.415 1942.51,732.37 1944.05,732.362 1945.6,732.48 1947.14,732.58 1948.69,732.773 1950.23,732.74 1951.78,732.752 1953.32,732.881 1954.87,732.718 1956.42,732.735 1957.96,732.806 1959.51,732.765 1961.05,732.784 1962.6,732.885 1964.14,733.009 1965.69,733.123 1967.23,733.394 1968.78,733.91 1970.33,734.034 1971.87,734.207 1973.42,734.316 1974.96,734.312 1976.51,734.543 1978.05,734.745 1979.6,735.018 1981.14,735.223 1982.69,735.434 1984.23,735.77 1985.78,736.027 1987.33,736.231 1988.87,736.557 1990.42,736.904 1991.96,737.057 1993.51,737.304 1995.05,737.698 1996.6,737.883 1998.14,738.002 1999.69,738.156 2001.24,738.244 2002.78,738.358 2004.33,738.399 2005.87,738.328 2007.42,738.401 2008.96,738.583 2010.51,738.5 2012.05,738.752 2013.6,738.809 2015.14,738.904 2016.69,739.021 2018.24,739.117 2019.78,739.214 2021.33,739.386 2022.87,739.484 2024.42,739.615 2025.96,739.574 2027.51,739.652 2029.05,739.656 2030.6,739.719 2032.15,739.761 2033.69,739.922 2035.24,740.067 2036.78,740.296 2038.33,740.48 2039.87,740.471 2041.42,740.329 2042.96,740.413 2044.51,740.396 2046.05,740.267 2047.6,740.238 2049.15,740.257 2050.69,740.315 2052.24,740.329 2053.78,740.4 2055.33,740.331 2056.87,740.34 2058.42,740.413 2059.96,740.427 2061.51,740.491 2063.06,740.619 2064.6,740.6 2066.15,740.605 2067.69,740.698 2069.24,740.808 2070.78,740.875 2072.33,740.771 2073.87,740.699 2075.42,740.754 2076.96,740.611 2078.51,740.823 2080.06,740.908 "/>
<path clip-path="url(#clip560)" d="M809.221 239.706 L1121.85 239.706 L1121.85 78.4772 L809.221 78.4772  Z" fill="#ffffff" fill-rule="evenodd" fill-opacity="1"/>
<polyline clip-path="url(#clip560)" style="stroke:#000000; stroke-linecap:round; stroke-linejoin:round; stroke-width:4; stroke-opacity:1; fill:none" points="809.221,239.706 1121.85,239.706 1121.85,78.4772 809.221,78.4772 809.221,239.706 "/>
<polyline clip-path="url(#clip560)" style="stroke:#ffa500; stroke-linecap:round; stroke-linejoin:round; stroke-width:12; stroke-opacity:0.75; fill:none" points="819.524,132.22 881.344,132.22 "/>
<g clip-path="url(#clip560)">
<text style="fill:#000000; fill-opacity:1; font-family:Book Antiqua,Palatino,Palatino Linotype,Palatino LT STD,Georgia,serif; font-size:51px; font-weight:bold; text-anchor:start;" transform="rotate(0, 891.648, 149.72)" x="891.648" y="149.72">FDUC</text>
</g>
<polyline clip-path="url(#clip560)" style="stroke:#0000ff; stroke-linecap:round; stroke-linejoin:round; stroke-width:12; stroke-opacity:0.5; fill:none" points="819.524,185.963 881.344,185.963 "/>
<g clip-path="url(#clip560)">
<text style="fill:#000000; fill-opacity:1; font-family:Book Antiqua,Palatino,Palatino Linotype,Palatino LT STD,Georgia,serif; font-size:51px; font-weight:bold; text-anchor:start;" transform="rotate(0, 891.648, 203.463)" x="891.648" y="203.463">CCFDUC</text>
</g>
</svg>
