<?xml version="1.0" encoding="utf-8"?>
<svg xmlns="http://www.w3.org/2000/svg" xmlns:xlink="http://www.w3.org/1999/xlink" width="300" height="300" viewBox="0 0 1200 1200">
<defs>
  <clipPath id="clip660">
    <rect x="0" y="0" width="1200" height="1200"/>
  </clipPath>
</defs>
<path clip-path="url(#clip660)" d="M0 1200 L1200 1200 L1200 0 L0 0  Z" fill="#ffffff" fill-rule="evenodd" fill-opacity="1"/>
<defs>
  <clipPath id="clip661">
    <rect x="240" y="119" width="841" height="841"/>
  </clipPath>
</defs>
<path clip-path="url(#clip660)" d="M222.446 994.16 L1152.76 994.16 L1152.76 47.2441 L222.446 47.2441  Z" fill="#ffffff" fill-rule="evenodd" fill-opacity="1"/>
<defs>
  <clipPath id="clip662">
    <rect x="222" y="47" width="931" height="948"/>
  </clipPath>
</defs>
<polyline clip-path="url(#clip662)" style="stroke:#808080; stroke-linecap:round; stroke-linejoin:round; stroke-width:2; stroke-opacity:0.1; fill:none" points="222.446,994.16 222.446,47.2441 "/>
<polyline clip-path="url(#clip662)" style="stroke:#808080; stroke-linecap:round; stroke-linejoin:round; stroke-width:2; stroke-opacity:0.1; fill:none" points="532.549,994.16 532.549,47.2441 "/>
<polyline clip-path="url(#clip662)" style="stroke:#808080; stroke-linecap:round; stroke-linejoin:round; stroke-width:2; stroke-opacity:0.1; fill:none" points="842.653,994.16 842.653,47.2441 "/>
<polyline clip-path="url(#clip662)" style="stroke:#808080; stroke-linecap:round; stroke-linejoin:round; stroke-width:2; stroke-opacity:0.1; fill:none" points="1152.76,994.16 1152.76,47.2441 "/>
<polyline clip-path="url(#clip662)" style="stroke:#808080; stroke-linecap:round; stroke-linejoin:round; stroke-width:2; stroke-opacity:0.1; fill:none" points="222.446,994.16 222.446,47.2441 "/>
<polyline clip-path="url(#clip662)" style="stroke:#808080; stroke-linecap:round; stroke-linejoin:round; stroke-width:2; stroke-opacity:0.1; fill:none" points="532.549,994.16 532.549,47.2441 "/>
<polyline clip-path="url(#clip662)" style="stroke:#808080; stroke-linecap:round; stroke-linejoin:round; stroke-width:2; stroke-opacity:0.1; fill:none" points="842.653,994.16 842.653,47.2441 "/>
<polyline clip-path="url(#clip662)" style="stroke:#808080; stroke-linecap:round; stroke-linejoin:round; stroke-width:2; stroke-opacity:0.1; fill:none" points="1152.76,994.16 1152.76,47.2441 "/>
<polyline clip-path="url(#clip662)" style="stroke:#808080; stroke-linecap:round; stroke-linejoin:round; stroke-width:2; stroke-opacity:0.1; fill:none" points="222.446,994.16 1152.76,994.16 "/>
<polyline clip-path="url(#clip662)" style="stroke:#808080; stroke-linecap:round; stroke-linejoin:round; stroke-width:2; stroke-opacity:0.1; fill:none" points="222.446,723.613 1152.76,723.613 "/>
<polyline clip-path="url(#clip662)" style="stroke:#808080; stroke-linecap:round; stroke-linejoin:round; stroke-width:2; stroke-opacity:0.1; fill:none" points="222.446,453.065 1152.76,453.065 "/>
<polyline clip-path="url(#clip662)" style="stroke:#808080; stroke-linecap:round; stroke-linejoin:round; stroke-width:2; stroke-opacity:0.1; fill:none" points="222.446,182.518 1152.76,182.518 "/>
<polyline clip-path="url(#clip662)" style="stroke:#808080; stroke-linecap:round; stroke-linejoin:round; stroke-width:2; stroke-opacity:0.1; fill:none" points="222.446,994.16 1152.76,994.16 "/>
<polyline clip-path="url(#clip662)" style="stroke:#808080; stroke-linecap:round; stroke-linejoin:round; stroke-width:2; stroke-opacity:0.1; fill:none" points="222.446,723.613 1152.76,723.613 "/>
<polyline clip-path="url(#clip662)" style="stroke:#808080; stroke-linecap:round; stroke-linejoin:round; stroke-width:2; stroke-opacity:0.1; fill:none" points="222.446,453.065 1152.76,453.065 "/>
<polyline clip-path="url(#clip662)" style="stroke:#808080; stroke-linecap:round; stroke-linejoin:round; stroke-width:2; stroke-opacity:0.1; fill:none" points="222.446,182.518 1152.76,182.518 "/>
<polyline clip-path="url(#clip660)" style="stroke:#000000; stroke-linecap:round; stroke-linejoin:round; stroke-width:4; stroke-opacity:1; fill:none" points="222.446,994.16 1152.76,994.16 "/>
<polyline clip-path="url(#clip660)" style="stroke:#000000; stroke-linecap:round; stroke-linejoin:round; stroke-width:4; stroke-opacity:1; fill:none" points="222.446,47.2441 1152.76,47.2441 "/>
<polyline clip-path="url(#clip660)" style="stroke:#000000; stroke-linecap:round; stroke-linejoin:round; stroke-width:4; stroke-opacity:1; fill:none" points="222.446,994.16 222.446,975.262 "/>
<polyline clip-path="url(#clip660)" style="stroke:#000000; stroke-linecap:round; stroke-linejoin:round; stroke-width:4; stroke-opacity:1; fill:none" points="532.549,994.16 532.549,975.262 "/>
<polyline clip-path="url(#clip660)" style="stroke:#000000; stroke-linecap:round; stroke-linejoin:round; stroke-width:4; stroke-opacity:1; fill:none" points="842.653,994.16 842.653,975.262 "/>
<polyline clip-path="url(#clip660)" style="stroke:#000000; stroke-linecap:round; stroke-linejoin:round; stroke-width:4; stroke-opacity:1; fill:none" points="1152.76,994.16 1152.76,975.262 "/>
<polyline clip-path="url(#clip660)" style="stroke:#000000; stroke-linecap:round; stroke-linejoin:round; stroke-width:4; stroke-opacity:1; fill:none" points="222.446,47.2441 222.446,66.1417 "/>
<polyline clip-path="url(#clip660)" style="stroke:#000000; stroke-linecap:round; stroke-linejoin:round; stroke-width:4; stroke-opacity:1; fill:none" points="532.549,47.2441 532.549,66.1417 "/>
<polyline clip-path="url(#clip660)" style="stroke:#000000; stroke-linecap:round; stroke-linejoin:round; stroke-width:4; stroke-opacity:1; fill:none" points="842.653,47.2441 842.653,66.1417 "/>
<polyline clip-path="url(#clip660)" style="stroke:#000000; stroke-linecap:round; stroke-linejoin:round; stroke-width:4; stroke-opacity:1; fill:none" points="1152.76,47.2441 1152.76,66.1417 "/>
<g clip-path="url(#clip660)">
<text style="fill:#000000; fill-opacity:1; font-family:Arial,Helvetica Neue,Helvetica,sans-serif; font-size:48px; text-anchor:middle;" transform="rotate(0, 222.446, 1046.41)" x="222.446" y="1046.41">0</text>
</g>
<g clip-path="url(#clip660)">
<text style="fill:#000000; fill-opacity:1; font-family:Arial,Helvetica Neue,Helvetica,sans-serif; font-size:48px; text-anchor:middle;" transform="rotate(0, 532.549, 1046.41)" x="532.549" y="1046.41">10</text>
</g>
<g clip-path="url(#clip660)">
<text style="fill:#000000; fill-opacity:1; font-family:Arial,Helvetica Neue,Helvetica,sans-serif; font-size:48px; text-anchor:middle;" transform="rotate(0, 842.653, 1046.41)" x="842.653" y="1046.41">20</text>
</g>
<g clip-path="url(#clip660)">
<text style="fill:#000000; fill-opacity:1; font-family:Arial,Helvetica Neue,Helvetica,sans-serif; font-size:48px; text-anchor:middle;" transform="rotate(0, 1152.76, 1046.41)" x="1152.76" y="1046.41">30</text>
</g>
<path clip-path="url(#clip660)" d="M643.229 1072.69 L643.229 1081.89 L654.195 1081.89 L654.195 1086.03 L643.229 1086.03 L643.229 1103.62 Q643.229 1107.59 644.3 1108.72 Q645.399 1109.84 648.727 1109.84 L654.195 1109.84 L654.195 1114.3 L648.727 1114.3 Q642.564 1114.3 640.22 1112.01 Q637.876 1109.7 637.876 1103.62 L637.876 1086.03 L633.97 1086.03 L633.97 1081.89 L637.876 1081.89 L637.876 1072.69 L643.229 1072.69 Z" fill="#000000" fill-rule="nonzero" fill-opacity="1" /><path clip-path="url(#clip660)" d="M689.496 1071.1 L694.415 1071.1 L679.369 1119.8 L674.45 1119.8 L689.496 1071.1 Z" fill="#000000" fill-rule="nonzero" fill-opacity="1" /><path clip-path="url(#clip660)" d="M739.496 1082.85 L739.496 1087.88 Q737.239 1086.72 734.808 1086.15 Q732.378 1085.57 729.774 1085.57 Q725.81 1085.57 723.813 1086.78 Q721.846 1088 721.846 1090.43 Q721.846 1092.28 723.263 1093.35 Q724.681 1094.39 728.964 1095.35 L730.786 1095.75 Q736.458 1096.97 738.83 1099.2 Q741.232 1101.39 741.232 1105.36 Q741.232 1109.87 737.644 1112.51 Q734.085 1115.14 727.835 1115.14 Q725.231 1115.14 722.395 1114.62 Q719.589 1114.13 716.464 1113.11 L716.464 1107.62 Q719.415 1109.15 722.28 1109.93 Q725.144 1110.68 727.951 1110.68 Q731.712 1110.68 733.738 1109.41 Q735.763 1108.11 735.763 1105.76 Q735.763 1103.59 734.288 1102.44 Q732.841 1101.28 727.893 1100.21 L726.041 1099.77 Q721.093 1098.73 718.894 1096.59 Q716.695 1094.42 716.695 1090.66 Q716.695 1086.09 719.936 1083.6 Q723.177 1081.11 729.137 1081.11 Q732.089 1081.11 734.693 1081.55 Q737.297 1081.98 739.496 1082.85 Z" fill="#000000" fill-rule="nonzero" fill-opacity="1" /><polyline clip-path="url(#clip660)" style="stroke:#000000; stroke-linecap:round; stroke-linejoin:round; stroke-width:4; stroke-opacity:1; fill:none" points="222.446,994.16 222.446,47.2441 "/>
<polyline clip-path="url(#clip660)" style="stroke:#000000; stroke-linecap:round; stroke-linejoin:round; stroke-width:4; stroke-opacity:1; fill:none" points="1152.76,994.16 1152.76,47.2441 "/>
<polyline clip-path="url(#clip660)" style="stroke:#000000; stroke-linecap:round; stroke-linejoin:round; stroke-width:4; stroke-opacity:1; fill:none" points="222.446,994.16 241.344,994.16 "/>
<polyline clip-path="url(#clip660)" style="stroke:#000000; stroke-linecap:round; stroke-linejoin:round; stroke-width:4; stroke-opacity:1; fill:none" points="222.446,723.613 241.344,723.613 "/>
<polyline clip-path="url(#clip660)" style="stroke:#000000; stroke-linecap:round; stroke-linejoin:round; stroke-width:4; stroke-opacity:1; fill:none" points="222.446,453.065 241.344,453.065 "/>
<polyline clip-path="url(#clip660)" style="stroke:#000000; stroke-linecap:round; stroke-linejoin:round; stroke-width:4; stroke-opacity:1; fill:none" points="222.446,182.518 241.344,182.518 "/>
<polyline clip-path="url(#clip660)" style="stroke:#000000; stroke-linecap:round; stroke-linejoin:round; stroke-width:4; stroke-opacity:1; fill:none" points="1152.76,994.16 1133.86,994.16 "/>
<polyline clip-path="url(#clip660)" style="stroke:#000000; stroke-linecap:round; stroke-linejoin:round; stroke-width:4; stroke-opacity:1; fill:none" points="1152.76,723.613 1133.86,723.613 "/>
<polyline clip-path="url(#clip660)" style="stroke:#000000; stroke-linecap:round; stroke-linejoin:round; stroke-width:4; stroke-opacity:1; fill:none" points="1152.76,453.065 1133.86,453.065 "/>
<polyline clip-path="url(#clip660)" style="stroke:#000000; stroke-linecap:round; stroke-linejoin:round; stroke-width:4; stroke-opacity:1; fill:none" points="1152.76,182.518 1133.86,182.518 "/>
<g clip-path="url(#clip660)">
<text style="fill:#000000; fill-opacity:1; font-family:Arial,Helvetica Neue,Helvetica,sans-serif; font-size:48px; text-anchor:middle;" transform="rotate(0, 170.993, 1011.66)" x="170.993" y="1011.66">0.0</text>
</g>
<g clip-path="url(#clip660)">
<text style="fill:#000000; fill-opacity:1; font-family:Arial,Helvetica Neue,Helvetica,sans-serif; font-size:48px; text-anchor:middle;" transform="rotate(0, 170.993, 741.113)" x="170.993" y="741.113">0.1</text>
</g>
<g clip-path="url(#clip660)">
<text style="fill:#000000; fill-opacity:1; font-family:Arial,Helvetica Neue,Helvetica,sans-serif; font-size:48px; text-anchor:middle;" transform="rotate(0, 170.993, 470.565)" x="170.993" y="470.565">0.2</text>
</g>
<g clip-path="url(#clip660)">
<text style="fill:#000000; fill-opacity:1; font-family:Arial,Helvetica Neue,Helvetica,sans-serif; font-size:48px; text-anchor:middle;" transform="rotate(0, 170.993, 200.018)" x="170.993" y="200.018">0.3</text>
</g>
<path clip-path="url(#clip660)" d="M67.3443 683.982 Q67.3443 690.348 72.0896 694.11 Q76.8349 697.842 85.0236 697.842 Q93.1832 697.842 97.9286 694.11 Q102.674 690.348 102.674 683.982 Q102.674 677.617 97.9286 673.913 Q93.1832 670.18 85.0236 670.18 Q76.8349 670.18 72.0896 673.913 Q67.3443 677.617 67.3443 683.982 M62.5989 683.982 Q62.5989 674.897 68.7042 669.457 Q74.7806 664.017 85.0236 664.017 Q95.2376 664.017 101.343 669.457 Q107.419 674.897 107.419 683.982 Q107.419 693.097 101.343 698.566 Q95.2666 704.006 85.0236 704.006 Q74.7806 704.006 68.7042 698.566 Q62.5989 693.097 62.5989 683.982 Z" fill="#000000" fill-rule="nonzero" fill-opacity="1" /><path clip-path="url(#clip660)" d="M93.7909 655.655 L74.1729 655.655 L74.1729 650.331 L93.5883 650.331 Q98.189 650.331 100.504 648.537 Q102.79 646.743 102.79 643.155 Q102.79 638.844 100.041 636.355 Q97.292 633.838 92.5467 633.838 L74.1729 633.838 L74.1729 628.514 L106.58 628.514 L106.58 633.838 L101.603 633.838 Q104.555 635.777 106.001 638.352 Q107.419 640.898 107.419 644.284 Q107.419 649.868 103.947 652.762 Q100.475 655.655 93.7909 655.655 M73.3917 642.258 L73.3917 642.258 Z" fill="#000000" fill-rule="nonzero" fill-opacity="1" /><path clip-path="url(#clip660)" d="M64.9716 612.281 L74.1729 612.281 L74.1729 601.315 L78.3106 601.315 L78.3106 612.281 L95.9031 612.281 Q99.8672 612.281 100.996 611.211 Q102.124 610.111 102.124 606.784 L102.124 601.315 L106.58 601.315 L106.58 606.784 Q106.58 612.947 104.294 615.291 Q101.979 617.634 95.9031 617.634 L78.3106 617.634 L78.3106 621.541 L74.1729 621.541 L74.1729 617.634 L64.9716 617.634 L64.9716 612.281 Z" fill="#000000" fill-rule="nonzero" fill-opacity="1" /><path clip-path="url(#clip660)" d="M101.719 589.162 L118.906 589.162 L118.906 594.515 L74.1729 594.515 L74.1729 589.162 L79.0919 589.162 Q76.1984 587.484 74.8095 584.938 Q73.3917 582.363 73.3917 578.804 Q73.3917 572.901 78.0792 569.226 Q82.7666 565.522 90.4055 565.522 Q98.0443 565.522 102.732 569.226 Q107.419 572.901 107.419 578.804 Q107.419 582.363 106.03 584.938 Q104.613 587.484 101.719 589.162 M90.4055 571.049 Q84.5317 571.049 81.2041 573.48 Q77.8477 575.881 77.8477 580.106 Q77.8477 584.33 81.2041 586.761 Q84.5317 589.162 90.4055 589.162 Q96.2793 589.162 99.6358 586.761 Q102.963 584.33 102.963 580.106 Q102.963 575.881 99.6358 573.48 Q96.2793 571.049 90.4055 571.049 Z" fill="#000000" fill-rule="nonzero" fill-opacity="1" /><path clip-path="url(#clip660)" d="M93.7909 557.247 L74.1729 557.247 L74.1729 551.923 L93.5883 551.923 Q98.189 551.923 100.504 550.129 Q102.79 548.335 102.79 544.747 Q102.79 540.436 100.041 537.947 Q97.292 535.43 92.5467 535.43 L74.1729 535.43 L74.1729 530.106 L106.58 530.106 L106.58 535.43 L101.603 535.43 Q104.555 537.369 106.001 539.944 Q107.419 542.49 107.419 545.876 Q107.419 551.46 103.947 554.354 Q100.475 557.247 93.7909 557.247 M73.3917 543.85 L73.3917 543.85 Z" fill="#000000" fill-rule="nonzero" fill-opacity="1" /><path clip-path="url(#clip660)" d="M64.9716 513.873 L74.1729 513.873 L74.1729 502.907 L78.3106 502.907 L78.3106 513.873 L95.9031 513.873 Q99.8672 513.873 100.996 512.803 Q102.124 511.703 102.124 508.376 L102.124 502.907 L106.58 502.907 L106.58 508.376 Q106.58 514.539 104.294 516.883 Q101.979 519.226 95.9031 519.226 L78.3106 519.226 L78.3106 523.133 L74.1729 523.133 L74.1729 519.226 L64.9716 519.226 L64.9716 513.873 Z" fill="#000000" fill-rule="nonzero" fill-opacity="1" /><path clip-path="url(#clip660)" d="M63.3802 467.606 L63.3802 462.687 L112.078 477.734 L112.078 482.653 L63.3802 467.606 Z" fill="#000000" fill-rule="nonzero" fill-opacity="1" /><path clip-path="url(#clip660)" d="M101.719 433.116 L118.906 433.116 L118.906 438.469 L74.1729 438.469 L74.1729 433.116 L79.0919 433.116 Q76.1984 431.438 74.8095 428.891 Q73.3917 426.316 73.3917 422.757 Q73.3917 416.854 78.0792 413.18 Q82.7666 409.476 90.4055 409.476 Q98.0443 409.476 102.732 413.18 Q107.419 416.854 107.419 422.757 Q107.419 426.316 106.03 428.891 Q104.613 431.438 101.719 433.116 M90.4055 415.002 Q84.5317 415.002 81.2041 417.433 Q77.8477 419.835 77.8477 424.059 Q77.8477 428.284 81.2041 430.714 Q84.5317 433.116 90.4055 433.116 Q96.2793 433.116 99.6358 430.714 Q102.963 428.284 102.963 424.059 Q102.963 419.835 99.6358 417.433 Q96.2793 415.002 90.4055 415.002 Z" fill="#000000" fill-rule="nonzero" fill-opacity="1" /><path clip-path="url(#clip660)" d="M99.2307 399.898 L99.2307 393.793 L106.58 393.793 L106.58 399.898 L99.2307 399.898 Z" fill="#000000" fill-rule="nonzero" fill-opacity="1" /><path clip-path="url(#clip660)" d="M93.7909 382.364 L74.1729 382.364 L74.1729 377.04 L93.5883 377.04 Q98.189 377.04 100.504 375.246 Q102.79 373.452 102.79 369.864 Q102.79 365.552 100.041 363.064 Q97.292 360.547 92.5467 360.547 L74.1729 360.547 L74.1729 355.223 L106.58 355.223 L106.58 360.547 L101.603 360.547 Q104.555 362.485 106.001 365.061 Q107.419 367.607 107.419 370.992 Q107.419 376.577 103.947 379.47 Q100.475 382.364 93.7909 382.364 M73.3917 368.967 L73.3917 368.967 Z" fill="#000000" fill-rule="nonzero" fill-opacity="1" /><path clip-path="url(#clip660)" d="M99.2307 343.504 L99.2307 337.399 L106.58 337.399 L106.58 343.504 L99.2307 343.504 Z" fill="#000000" fill-rule="nonzero" fill-opacity="1" /><polyline clip-path="url(#clip662)" style="stroke:#1a80bb; stroke-linecap:round; stroke-linejoin:round; stroke-width:12; stroke-opacity:0.95; fill:none" points="222.446,994.16 223.997,964.774 225.547,936.134 227.098,908.415 228.648,881.601 230.199,855.678 231.749,830.631 233.3,806.443 234.85,783.101 236.401,760.587 237.951,738.888 239.502,717.987 241.052,697.87 242.603,678.52 244.153,659.924 245.704,642.065 247.254,624.928 248.805,608.499 250.355,592.762 251.906,577.703 253.456,563.306 255.007,549.558 256.557,536.442 258.108,523.945 259.658,512.053 261.209,500.751 262.759,490.024 264.31,479.86 265.86,470.243 267.411,461.161 268.962,452.599 270.512,444.544 272.063,436.983 273.613,429.903 275.164,423.29 276.714,417.132 278.265,411.417 279.815,406.13 281.366,401.262 282.916,396.798 284.467,392.727 286.017,389.038 287.568,385.719 289.118,382.757 290.669,380.143 292.219,377.864 293.77,375.911 295.32,374.271 296.871,372.935 298.421,371.893 299.972,371.133 301.522,370.647 303.073,370.423 304.623,370.454 306.174,370.728 307.724,371.238 309.275,371.973 310.825,372.925 312.376,374.086 313.926,375.446 315.477,376.997 317.028,378.731 318.578,380.641 320.129,382.718 321.679,384.954 323.23,387.343 324.78,389.877 326.331,392.548 327.881,395.35 329.432,398.276 330.982,401.319 332.533,404.474 334.083,407.733 335.634,411.09 337.184,414.54 338.735,418.077 340.285,421.695 341.836,425.388 343.386,429.152 344.937,432.98 346.487,436.869 348.038,440.812 349.588,444.806 351.139,448.846 352.689,452.926 354.24,457.044 355.79,461.194 357.341,465.373 358.891,469.576 360.442,473.801 361.992,478.042 363.543,482.297 365.094,486.562 366.644,490.835 368.195,495.11 369.745,499.387 371.296,503.661 372.846,507.93 374.397,512.19 375.947,516.441 377.498,520.678 379.048,524.899 380.599,529.103 382.149,533.287 383.7,537.448 385.25,541.585 386.801,545.696 388.351,549.779 389.902,553.832 391.452,557.853 393.003,561.842 394.553,565.795 396.104,569.713 397.654,573.593 399.205,577.435 400.755,581.237 402.306,584.998 403.856,588.716 405.407,592.392 406.957,596.023 408.508,599.61 410.059,603.151 411.609,606.646 413.16,610.094 414.71,613.494 416.261,616.845 417.811,620.148 419.362,623.402 420.912,626.606 422.463,629.76 424.013,632.864 425.564,635.917 427.114,638.919 428.665,641.87 430.215,644.771 431.766,647.62 433.316,650.418 434.867,653.164 436.417,655.86 437.968,658.504 439.518,661.097 441.069,663.639 442.619,666.13 444.17,668.57 445.72,670.96 447.271,673.3 448.821,675.59 450.372,677.83 451.922,680.021 453.473,682.163 455.023,684.255 456.574,686.3 458.125,688.297 459.675,690.246 461.226,692.148 462.776,694.003 464.327,695.812 465.877,697.576 467.428,699.294 468.978,700.968 470.529,702.597 472.079,704.182 473.63,705.725 475.18,707.224 476.731,708.682 478.281,710.098 479.832,711.473 481.382,712.808 482.933,714.103 484.483,715.359 486.034,716.576 487.584,717.755 489.135,718.897 490.685,720.002 492.236,721.071 493.786,722.104 495.337,723.102 496.887,724.066 498.438,724.996 499.988,725.893 501.539,726.758 503.089,727.59 504.64,728.392 506.191,729.163 507.741,729.903 509.292,730.614 510.842,731.297 512.393,731.951 513.943,732.577 515.494,733.177 517.044,733.749 518.595,734.297 520.145,734.818 521.696,735.315 523.246,735.788 524.797,736.238 526.347,736.664 527.898,737.068 529.448,737.45 530.999,737.811 532.549,738.151 534.1,738.471 535.65,738.771 537.201,739.052 538.751,739.315 540.302,739.559 541.852,739.785 543.403,739.995 544.953,740.187 546.504,740.364 548.054,740.525 549.605,740.671 551.156,740.802 552.706,740.918 554.257,741.021 555.807,741.111 557.358,741.187 558.908,741.251 560.459,741.303 562.009,741.343 563.56,741.372 565.11,741.39 566.661,741.398 568.211,741.395 569.762,741.383 571.312,741.361 572.863,741.331 574.413,741.291 575.964,741.244 577.514,741.188 579.065,741.125 580.615,741.055 582.166,740.978 583.716,740.893 585.267,740.803 586.817,740.707 588.368,740.604 589.918,740.497 591.469,740.384 593.019,740.266 594.57,740.144 596.12,740.017 597.671,739.886 599.222,739.751 600.772,739.612 602.323,739.47 603.873,739.325 605.424,739.177 606.974,739.025 608.525,738.872 610.075,738.716 611.626,738.558 613.176,738.398 614.727,738.236 616.277,738.072 617.828,737.907 619.378,737.741 620.929,737.573 622.479,737.405 624.03,737.235 625.58,737.066 627.131,736.895 628.681,736.724 630.232,736.553 631.782,736.382 633.333,736.211 634.883,736.04 636.434,735.869 637.984,735.698 639.535,735.528 641.085,735.358 642.636,735.19 644.186,735.021 645.737,734.854 647.288,734.687 648.838,734.522 650.389,734.357 651.939,734.194 653.49,734.032 655.04,733.871 656.591,733.712 658.141,733.554 659.692,733.397 661.242,733.242 662.793,733.088 664.343,732.936 665.894,732.786 667.444,732.637 668.995,732.49 670.545,732.345 672.096,732.202 673.646,732.06 675.197,731.92 676.747,731.783 678.298,731.647 679.848,731.513 681.399,731.381 682.949,731.251 684.5,731.123 686.05,730.997 687.601,730.873 689.151,730.751 690.702,730.631 692.253,730.513 693.803,730.397 695.354,730.283 696.904,730.171 698.455,730.062 700.005,729.954 701.556,729.849 703.106,729.745 704.657,729.643 706.207,729.544 707.758,729.447 709.308,729.351 710.859,729.258 712.409,729.166 713.96,729.077 715.51,728.989 717.061,728.904 718.611,728.82 720.162,728.739 721.712,728.659 723.263,728.581 724.813,728.505 726.364,728.431 727.914,728.359 729.465,728.289 731.015,728.22 732.566,728.153 734.116,728.088 735.667,728.025 737.217,727.964 738.768,727.904 740.319,727.846 741.869,727.789 743.42,727.734 744.97,727.681 746.521,727.63 748.071,727.579 749.622,727.531 751.172,727.484 752.723,727.438 754.273,727.394 755.824,727.352 757.374,727.311 758.925,727.271 760.475,727.232 762.026,727.195 763.576,727.16 765.127,727.125 766.677,727.092 768.228,727.06 769.778,727.029 771.329,727 772.879,726.972 774.43,726.944 775.98,726.918 777.531,726.893 779.081,726.87 780.632,726.847 782.182,726.825 783.733,726.804 785.283,726.784 786.834,726.766 788.385,726.748 789.935,726.731 791.486,726.715 793.036,726.7 794.587,726.685 796.137,726.672 797.688,726.659 799.238,726.647 800.789,726.636 802.339,726.626 803.89,726.616 805.44,726.607 806.991,726.599 808.541,726.591 810.092,726.584 811.642,726.578 813.193,726.572 814.743,726.567 816.294,726.562 817.844,726.558 819.395,726.555 820.945,726.552 822.496,726.549 824.046,726.547 825.597,726.545 827.147,726.544 828.698,726.544 830.248,726.543 831.799,726.544 833.35,726.544 834.9,726.545 836.451,726.546 838.001,726.548 839.552,726.55 841.102,726.552 842.653,726.555 844.203,726.558 845.754,726.561 847.304,726.564 848.855,726.568 850.405,726.572 851.956,726.576 853.506,726.58 855.057,726.585 856.607,726.589 858.158,726.594 859.708,726.599 861.259,726.605 862.809,726.61 864.36,726.616 865.91,726.621 867.461,726.627 869.011,726.633 870.562,726.639 872.112,726.645 873.663,726.652 875.213,726.658 876.764,726.664 878.314,726.671 879.865,726.678 881.416,726.684 882.966,726.691 884.517,726.698 886.067,726.704 887.618,726.711 889.168,726.718 890.719,726.725 892.269,726.732 893.82,726.738 895.37,726.745 896.921,726.752 898.471,726.759 900.022,726.766 901.572,726.773 903.123,726.779 904.673,726.786 906.224,726.793 907.774,726.8 909.325,726.806 910.875,726.813 912.426,726.82 913.976,726.826 915.527,726.833 917.077,726.839 918.628,726.846 920.178,726.852 921.729,726.858 923.279,726.865 924.83,726.871 926.38,726.877 927.931,726.883 929.482,726.889 931.032,726.895 932.583,726.901 934.133,726.907 935.684,726.912 937.234,726.918 938.785,726.924 940.335,726.929 941.886,726.935 943.436,726.94 944.987,726.945 946.537,726.95 948.088,726.956 949.638,726.961 951.189,726.966 952.739,726.97 954.29,726.975 955.84,726.98 957.391,726.985 958.941,726.989 960.492,726.994 962.042,726.998 963.593,727.002 965.143,727.006 966.694,727.011 968.244,727.015 969.795,727.019 971.345,727.023 972.896,727.026 974.447,727.03 975.997,727.034 977.548,727.037 979.098,727.041 980.649,727.044 982.199,727.048 983.75,727.051 985.3,727.054 986.851,727.057 988.401,727.06 989.952,727.063 991.502,727.066 993.053,727.069 994.603,727.071 996.154,727.074 997.704,727.077 999.255,727.079 1000.81,727.082 1002.36,727.084 1003.91,727.086 1005.46,727.089 1007.01,727.091 1008.56,727.093 1010.11,727.095 1011.66,727.097 1013.21,727.099 1014.76,727.101 1016.31,727.103 1017.86,727.104 1019.41,727.106 1020.96,727.108 1022.51,727.109 1024.06,727.111 1025.61,727.112 1027.16,727.114 1028.71,727.115 1030.27,727.116 1031.82,727.118 1033.37,727.119 1034.92,727.12 1036.47,727.121 1038.02,727.122 1039.57,727.123 1041.12,727.124 1042.67,727.125 1044.22,727.126 1045.77,727.127 1047.32,727.128 1048.87,727.129 1050.42,727.129 1051.97,727.13 1053.52,727.131 1055.07,727.131 1056.62,727.132 1058.17,727.133 1059.72,727.133 1061.28,727.134 1062.83,727.134 1064.38,727.135 1065.93,727.135 1067.48,727.135 1069.03,727.136 1070.58,727.136 1072.13,727.136 1073.68,727.137 1075.23,727.137 1076.78,727.137 1078.33,727.137 1079.88,727.138 1081.43,727.138 1082.98,727.138 1084.53,727.138 1086.08,727.138 1087.63,727.138 1089.18,727.138 1090.74,727.138 1092.29,727.138 1093.84,727.138 1095.39,727.138 1096.94,727.138 1098.49,727.138 1100.04,727.138 1101.59,727.138 1103.14,727.138 1104.69,727.138 1106.24,727.138 1107.79,727.138 1109.34,727.138 1110.89,727.137 1112.44,727.137 1113.99,727.137 1115.54,727.137 1117.09,727.137 1118.64,727.137 1120.2,727.136 1121.75,727.136 1123.3,727.136 1124.85,727.136 1126.4,727.136 1127.95,727.135 1129.5,727.135 1131.05,727.135 1132.6,727.135 1134.15,727.134 1135.7,727.134 1137.25,727.134 1138.8,727.134 1140.35,727.133 1141.9,727.133 1143.45,727.133 1145,727.133 1146.55,727.132 1148.1,727.132 1149.65,727.132 1151.21,727.131 1152.76,727.131 "/>
<polyline clip-path="url(#clip662)" style="stroke:#a00000; stroke-linecap:round; stroke-linejoin:round; stroke-width:12; stroke-opacity:0.95; fill:none" points="222.446,994.16 223.997,964.797 225.547,936.273 227.098,908.72 228.648,882.241 230.199,856.698 231.749,832.074 233.3,808.363 234.85,785.697 236.401,763.939 237.951,743.032 239.502,723.023 241.052,703.856 242.603,685.511 244.153,667.868 245.704,650.979 247.254,634.908 248.805,619.56 250.355,604.682 251.906,590.642 253.456,577.295 255.007,564.648 256.557,552.575 258.108,541.163 259.658,530.293 261.209,519.911 262.759,510.207 264.31,500.952 265.86,492.164 267.411,484.16 268.962,476.418 270.512,469.169 272.063,462.459 273.613,456.24 275.164,450.389 276.714,444.965 278.265,440.05 279.815,435.458 281.366,431.284 282.916,427.481 284.467,424.153 286.017,421.222 287.568,418.565 289.118,416.252 290.669,414.399 292.219,412.682 293.77,411.189 295.32,410.03 296.871,409.144 298.421,408.662 299.972,408.353 301.522,408.032 303.073,408.291 304.623,408.688 306.174,409.041 307.724,409.746 309.275,410.792 310.825,412.007 312.376,413.125 313.926,414.729 315.477,416.378 317.028,418.056 318.578,419.957 320.129,421.896 321.679,424.03 323.23,426.138 324.78,428.364 326.331,430.67 327.881,433.381 329.432,436.144 330.982,439.228 332.533,442.067 334.083,445.107 335.634,448.167 337.184,451.25 338.735,454.271 340.285,457.515 341.836,460.907 343.386,464.292 344.937,467.87 346.487,471.613 348.038,475.038 349.588,478.814 351.139,482.652 352.689,486.166 354.24,490.073 355.79,493.822 357.341,497.831 358.891,501.48 360.442,505.174 361.992,508.722 363.543,512.234 365.094,515.919 366.644,519.818 368.195,523.738 369.745,527.483 371.296,531.309 372.846,535.116 374.397,539.023 375.947,542.934 377.498,547.094 379.048,550.777 380.599,554.42 382.149,558.306 383.7,562.055 385.25,565.52 386.801,569.313 388.351,572.877 389.902,576.277 391.452,579.799 393.003,583.352 394.553,586.896 396.104,590.432 397.654,594.058 399.205,597.127 400.755,600.626 402.306,603.787 403.856,607.015 405.407,609.951 406.957,613.293 408.508,616.462 410.059,619.465 411.609,622.593 413.16,625.631 414.71,628.653 416.261,631.403 417.811,634.266 419.362,636.916 420.912,639.734 422.463,642.271 424.013,644.825 425.564,647.401 427.114,649.919 428.665,652.465 430.215,654.854 431.766,657.222 433.316,659.571 434.867,661.871 436.417,664.129 437.968,666.338 439.518,668.431 441.069,670.623 442.619,672.781 444.17,674.779 445.72,676.848 447.271,678.81 448.821,680.693 450.372,682.496 451.922,684.215 453.473,686.041 455.023,688.02 456.574,689.799 458.125,691.491 459.675,693.06 461.226,694.599 462.776,696.227 464.327,697.653 465.877,699.174 467.428,700.682 468.978,702.095 470.529,703.414 472.079,704.821 473.63,706.36 475.18,707.859 476.731,709.379 478.281,710.867 479.832,712.274 481.382,713.652 482.933,714.893 484.483,716.185 486.034,717.514 487.584,718.896 489.135,720.225 490.685,721.425 492.236,722.406 493.786,723.507 495.337,724.517 496.887,725.651 498.438,726.619 499.988,727.578 501.539,728.429 503.089,729.256 504.64,729.987 506.191,730.81 507.741,731.539 509.292,732.358 510.842,733.093 512.393,733.8 513.943,734.765 515.494,735.524 517.044,736.076 518.595,736.628 520.145,737.366 521.696,737.84 523.246,738.356 524.797,738.757 526.347,738.948 527.898,739.308 529.448,739.69 530.999,739.992 532.549,740.514 534.1,740.802 535.65,741.006 537.201,741.394 538.751,741.655 540.302,742.086 541.852,742.29 543.403,742.479 544.953,742.692 546.504,742.669 548.054,742.98 549.605,743.24 551.156,743.243 552.706,743.581 554.257,743.854 555.807,743.974 557.358,744.23 558.908,744.461 560.459,744.733 562.009,744.865 563.56,745.015 565.11,745.206 566.661,745.376 568.211,745.407 569.762,745.604 571.312,745.794 572.863,745.964 574.413,746.275 575.964,746.648 577.514,746.836 579.065,746.985 580.615,747.323 582.166,747.386 583.716,747.567 585.267,747.695 586.817,747.837 588.368,747.847 589.918,747.791 591.469,748.015 593.019,747.845 594.57,747.896 596.12,747.868 597.671,747.952 599.222,748.005 600.772,747.915 602.323,747.832 603.873,747.904 605.424,747.783 606.974,747.762 608.525,747.688 610.075,747.488 611.626,747.431 613.176,747.399 614.727,747.324 616.277,747.215 617.828,747.074 619.378,746.856 620.929,746.762 622.479,746.666 624.03,746.473 625.58,746.371 627.131,746.224 628.681,746.13 630.232,745.839 631.782,745.752 633.333,745.612 634.883,745.47 636.434,745.552 637.984,745.38 639.535,745.221 641.085,745.077 642.636,744.877 644.186,744.63 645.737,744.355 647.288,744.156 648.838,743.812 650.389,743.505 651.939,743.19 653.49,743.019 655.04,742.789 656.591,742.752 658.141,742.807 659.692,742.645 661.242,742.399 662.793,742.038 664.343,741.834 665.894,741.631 667.444,741.537 668.995,741.268 670.545,741.017 672.096,740.757 673.646,740.587 675.197,740.253 676.747,740.113 678.298,739.917 679.848,739.587 681.399,739.456 682.949,739.403 684.5,739.202 686.05,738.978 687.601,738.708 689.151,738.595 690.702,738.211 692.253,737.862 693.803,737.322 695.354,736.952 696.904,736.784 698.455,736.532 700.005,736.26 701.556,735.955 703.106,735.79 704.657,735.615 706.207,735.369 707.758,735.054 709.308,734.854 710.859,734.657 712.409,734.691 713.96,734.52 715.51,734.493 717.061,734.467 718.611,734.363 720.162,734.155 721.712,733.977 723.263,733.729 724.813,733.602 726.364,733.534 727.914,733.35 729.465,733.187 731.015,733.052 732.566,732.732 734.116,732.628 735.667,732.64 737.217,732.525 738.768,732.318 740.319,732.296 741.869,732.226 743.42,732.146 744.97,732.028 746.521,731.853 748.071,731.732 749.622,731.627 751.172,731.533 752.723,731.528 754.273,731.386 755.824,731.285 757.374,731.467 758.925,731.331 760.475,731.513 762.026,731.385 763.576,731.38 765.127,731.419 766.677,731.38 768.228,731.589 769.778,731.757 771.329,731.786 772.879,731.791 774.43,731.791 775.98,731.889 777.531,731.915 779.081,731.911 780.632,732.103 782.182,732.287 783.733,732.024 785.283,731.753 786.834,731.505 788.385,731.475 789.935,731.663 791.486,731.569 793.036,731.826 794.587,731.852 796.137,731.854 797.688,731.814 799.238,731.635 800.789,731.575 802.339,731.686 803.89,731.637 805.44,731.702 806.991,731.757 808.541,731.953 810.092,732.202 811.642,732.242 813.193,732.501 814.743,732.714 816.294,732.683 817.844,732.798 819.395,732.8 820.945,732.81 822.496,732.827 824.046,732.915 825.597,732.942 827.147,733.036 828.698,733.055 830.248,733.051 831.799,733.114 833.35,733.239 834.9,733.311 836.451,733.307 838.001,733.341 839.552,733.476 841.102,733.571 842.653,733.528 844.203,733.506 845.754,733.417 847.304,733.512 848.855,733.516 850.405,733.487 851.956,733.504 853.506,733.579 855.057,733.568 856.607,733.418 858.158,733.187 859.708,733.057 861.259,733.015 862.809,733.122 864.36,733.1 865.91,733.119 867.461,733.098 869.011,733.175 870.562,733.23 872.112,733.112 873.663,733.127 875.213,733.265 876.764,733.342 878.314,733.301 879.865,733.451 881.416,733.466 882.966,733.525 884.517,733.753 886.067,733.93 887.618,734.095 889.168,734.249 890.719,734.417 892.269,734.446 893.82,734.531 895.37,734.476 896.921,734.642 898.471,734.751 900.022,734.877 901.572,735.147 903.123,735.152 904.673,735.239 906.224,735.42 907.774,735.249 909.325,735.261 910.875,735.289 912.426,735.46 913.976,735.536 915.527,735.634 917.077,735.716 918.628,735.708 920.178,735.827 921.729,735.913 923.279,735.863 924.83,735.762 926.38,735.795 927.931,735.788 929.482,735.813 931.032,735.833 932.583,736.013 934.133,736.147 935.684,736.393 937.234,736.358 938.785,736.559 940.335,736.596 941.886,736.845 943.436,736.968 944.987,737.026 946.537,736.883 948.088,736.839 949.638,736.915 951.189,736.986 952.739,737.17 954.29,737.141 955.84,737.279 957.391,737.276 958.941,737.381 960.492,737.229 962.042,737.225 963.593,737.29 965.143,737.473 966.694,737.51 968.244,737.44 969.795,737.376 971.345,737.15 972.896,736.874 974.447,736.744 975.997,736.47 977.548,736.308 979.098,736.242 980.649,736.086 982.199,735.959 983.75,735.72 985.3,735.786 986.851,735.73 988.401,735.705 989.952,735.694 991.502,735.57 993.053,735.493 994.603,735.329 996.154,735.068 997.704,734.971 999.255,735.007 1000.81,734.892 1002.36,734.872 1003.91,734.824 1005.46,734.749 1007.01,734.452 1008.56,734.413 1010.11,734.444 1011.66,734.385 1013.21,734.262 1014.76,734.238 1016.31,734.167 1017.86,734.164 1019.41,733.974 1020.96,734.096 1022.51,733.953 1024.06,733.96 1025.61,733.993 1027.16,733.966 1028.71,734.032 1030.27,734.193 1031.82,734.409 1033.37,734.521 1034.92,734.603 1036.47,734.728 1038.02,734.72 1039.57,734.86 1041.12,734.969 1042.67,735.063 1044.22,735.157 1045.77,735.219 1047.32,735.176 1048.87,735.155 1050.42,735.139 1051.97,735.097 1053.52,735.007 1055.07,734.919 1056.62,734.833 1058.17,734.546 1059.72,734.285 1061.28,734.27 1062.83,734.132 1064.38,733.943 1065.93,733.629 1067.48,733.372 1069.03,733.107 1070.58,732.921 1072.13,732.829 1073.68,732.694 1075.23,732.612 1076.78,732.513 1078.33,732.424 1079.88,732.374 1081.43,732.316 1082.98,732.23 1084.53,732.064 1086.08,731.956 1087.63,731.837 1089.18,731.701 1090.74,731.672 1092.29,731.476 1093.84,731.275 1095.39,731.076 1096.94,730.828 1098.49,730.559 1100.04,730.549 1101.59,730.484 1103.14,730.403 1104.69,730.291 1106.24,730.141 1107.79,729.928 1109.34,729.731 1110.89,729.6 1112.44,729.391 1113.99,729.129 1115.54,728.936 1117.09,728.765 1118.64,728.657 1120.2,728.527 1121.75,728.191 1123.3,728.025 1124.85,728.176 1126.4,728.137 1127.95,728.06 1129.5,728.092 1131.05,728.132 1132.6,728.227 1134.15,728.308 1135.7,728.233 1137.25,728.125 1138.8,727.983 1140.35,727.842 1141.9,728.025 1143.45,727.949 1145,727.817 1146.55,727.847 1148.1,727.847 1149.65,727.858 1151.21,727.801 1152.76,727.657 1154.31,727.502 1155.86,727.384 1157.41,727.133 1158.96,727.047 1160.51,727.127 1162.06,727.106 1163.61,727.084 1165.16,727.04 1166.71,727.115 1168.26,727.146 1169.81,727.16 1171.36,727.237 1172.91,727.316 1174.46,727.348 1176.01,727.321 1177.56,727.552 1179.11,727.678 1180.67,727.91 1182.22,727.94 1183.77,728.087 1185.32,728.071 1186.87,728.105 1188.42,728.113 1189.97,728.164 1191.52,728.366 1193.07,728.326 1194.62,728.341 1196.17,728.357 1197.72,728.479 1199.27,728.516 1200.82,728.7 1202.37,728.664 1203.92,728.502 1205.47,728.342 1207.02,728.383 1208.57,728.33 1210.13,728.305 1211.68,728.308 1213.23,728.364 1214.78,728.619 1216.33,728.75 1217.88,728.871 1219.43,729.047 1220.98,729.23 1222.53,729.147 1224.08,729.153 1225.63,729.277 1227.18,729.544 1228.73,729.658 1230.28,729.604 1231.83,729.677 1233.38,729.997 1234.93,730.143 1236.48,730.229 1238.03,730.225 1239.58,730.422 1241.14,730.518 1242.69,730.888 1244.24,730.934 1245.79,731.057 1247.34,731.383 1248.89,731.361 1250.44,731.607 1251.99,731.808 1253.54,731.934 1255.09,731.821 1256.64,731.863 1258.19,731.818 1259.74,731.768 1261.29,731.684 1262.84,731.466 1264.39,731.361 1265.94,731.109 1267.49,730.986 1269.04,730.981 1270.6,730.851 1272.15,730.81 1273.7,730.965 1275.25,730.991 1276.8,731.054 1278.35,731.252 1279.9,731.089 1281.45,731.015 1283,731.048 1284.55,731.03 1286.1,730.872 1287.65,731.152 1289.2,730.948 1290.75,731.044 1292.3,730.86 1293.85,730.855 1295.4,730.647 1296.95,730.677 1298.5,730.656 1300.05,730.846 1301.61,730.792 1303.16,730.848 1304.71,730.852 1306.26,730.933 1307.81,731.151 1309.36,731.157 1310.91,731.094 1312.46,731.052 1314.01,731.118 1315.56,731.038 1317.11,731.131 1318.66,731.171 1320.21,731.36 1321.76,731.31 1323.31,731.382 1324.86,731.488 1326.41,731.585 1327.96,731.644 1329.51,731.547 1331.07,731.597 1332.62,731.785 1334.17,731.855 1335.72,731.934 1337.27,732.006 1338.82,732.009 1340.37,732.121 1341.92,731.926 1343.47,731.897 1345.02,731.918 1346.57,732.056 1348.12,732.11 1349.67,732.044 1351.22,731.997 1352.77,731.914 1354.32,731.96 1355.87,731.929 1357.42,731.953 1358.97,731.973 1360.53,732.004 1362.08,731.864 1363.63,731.74 1365.18,731.724 1366.73,731.723 1368.28,731.666 1369.83,731.611 1371.38,731.56 1372.93,731.601 1374.48,731.582 1376.03,731.571 1377.58,731.527 1379.13,731.452 1380.68,731.336 1382.23,731.313 1383.78,731.074 1385.33,730.973 1386.88,731.011 1388.43,730.854 1389.98,730.767 1391.54,730.585 1393.09,730.48 1394.64,730.4 1396.19,730.482 1397.74,730.463 1399.29,730.404 1400.84,730.367 1402.39,730.401 1403.94,730.408 1405.49,730.636 1407.04,730.768 1408.59,730.919 1410.14,730.964 1411.69,731.071 1413.24,731.33 1414.79,731.628 1416.34,731.809 1417.89,731.891 1419.44,732.073 1421,732.157 1422.55,732.191 1424.1,732.252 1425.65,732.447 1427.2,732.818 1428.75,733.079 1430.3,733.057 1431.85,733.031 1433.4,733.105 1434.95,733.208 1436.5,733.47 1438.05,733.777 1439.6,733.773 1441.15,733.84 1442.7,734.004 1444.25,734.081 1445.8,734.089 1447.35,734.344 1448.9,734.62 1450.46,734.833 1452.01,734.992 1453.56,735.096 1455.11,735.047 1456.66,735.003 1458.21,735.341 1459.76,735.363 1461.31,735.558 1462.86,735.534 1464.41,735.633 1465.96,735.853 1467.51,735.892 1469.06,735.765 1470.61,735.795 1472.16,735.926 1473.71,735.869 1475.26,735.923 1476.81,735.995 1478.36,735.906 1479.91,736.127 1481.47,736.073 1483.02,736.134 1484.57,736.439 1486.12,736.651 1487.67,736.884 1489.22,736.973 1490.77,736.974 1492.32,736.906 1493.87,737.125 1495.42,737.119 1496.97,737.113 1498.52,737.231 1500.07,737.006 1501.62,736.735 1503.17,736.764 1504.72,736.63 1506.27,736.523 1507.82,736.509 1509.37,736.474 1510.93,736.435 1512.48,736.319 1514.03,736.194 1515.58,736.308 1517.13,736.343 1518.68,736.208 1520.23,736.221 1521.78,735.971 1523.33,735.93 1524.88,735.905 1526.43,735.9 1527.98,735.933 1529.53,735.991 1531.08,736.002 1532.63,735.924 1534.18,735.785 1535.73,735.841 1537.28,735.839 1538.83,735.97 1540.39,735.978 1541.94,736.17 1543.49,736.181 1545.04,736.189 1546.59,736.166 1548.14,736.321 1549.69,736.264 1551.24,736.216 1552.79,735.941 1554.34,735.796 1555.89,735.805 1557.44,735.785 1558.99,735.793 1560.54,735.85 1562.09,735.93 1563.64,736.034 1565.19,736.121 1566.74,736 1568.29,736.022 1569.84,736.014 1571.4,736.025 1572.95,735.886 1574.5,735.767 1576.05,735.685 1577.6,735.685 1579.15,735.722 1580.7,735.653 1582.25,735.624 1583.8,735.364 1585.35,735.305 1586.9,735.378 1588.45,735.369 1590,735.269 1591.55,735.353 1593.1,735.294 1594.65,735.167 1596.2,735.108 1597.75,735.131 1599.3,735.105 1600.86,735.081 1602.41,735.037 1603.96,735.121 1605.51,735.074 1607.06,735.121 1608.61,735.051 1610.16,735.071 1611.71,734.973 1613.26,734.913 1614.81,734.961 1616.36,734.9 1617.91,735.075 1619.46,735.318 1621.01,735.272 1622.56,735.381 1624.11,735.374 1625.66,735.446 1627.21,735.564 1628.76,735.592 1630.31,735.785 1631.87,735.945 1633.42,736.036 1634.97,736.231 1636.52,736.309 1638.07,736.401 1639.62,736.423 1641.17,736.524 1642.72,736.606 1644.27,736.617 1645.82,736.595 1647.37,736.55 1648.92,736.675 1650.47,736.71 1652.02,736.644 1653.57,736.624 1655.12,736.564 1656.67,736.524 1658.22,736.427 1659.77,736.342 1661.33,736.226 1662.88,736.027 1664.43,735.927 1665.98,735.907 1667.53,735.924 1669.08,735.84 1670.63,735.854 1672.18,735.897 1673.73,735.912 1675.28,735.936 1676.83,735.805 1678.38,735.681 1679.93,735.669 1681.48,735.658 1683.03,735.482 1684.58,735.452 1686.13,735.383 1687.68,735.384 1689.23,735.428 1690.79,735.404 1692.34,735.411 1693.89,735.208 1695.44,735.201 1696.99,735.112 1698.54,734.812 1700.09,734.623 1701.64,734.648 1703.19,734.463 1704.74,734.569 1706.29,734.623 1707.84,734.722 1709.39,734.828 1710.94,734.826 1712.49,734.909 1714.04,734.886 1715.59,734.73 1717.14,734.524 1718.69,734.415 1720.24,734.353 1721.8,734.202 1723.35,734.067 1724.9,733.906 1726.45,734.022 1728,733.944 1729.55,733.994 1731.1,733.832 1732.65,733.573 1734.2,733.607 1735.75,733.36 1737.3,733.401 1738.85,733.413 1740.4,733.373 1741.95,733.364 1743.5,733.263 1745.05,733.259 1746.6,733.248 1748.15,733.321 1749.7,733.227 1751.26,733.143 1752.81,733.161 1754.36,733.166 1755.91,733.1 1757.46,733.044 1759.01,732.974 1760.56,732.976 1762.11,733.15 1763.66,733.163 1765.21,733.173 1766.76,733.261 1768.31,733.27 1769.86,733.133 1771.41,732.959 1772.96,732.884 1774.51,732.889 1776.06,732.798 1777.61,732.721 1779.16,732.856 1780.72,732.958 1782.27,733.048 1783.82,733.106 1785.37,732.966 1786.92,732.868 1788.47,732.813 1790.02,732.837 1791.57,732.605 1793.12,732.491 1794.67,732.517 1796.22,732.489 1797.77,732.498 1799.32,732.517 1800.87,732.48 1802.42,732.576 1803.97,732.472 1805.52,732.488 1807.07,732.404 1808.62,732.502 1810.17,732.491 1811.73,732.651 1813.28,732.787 1814.83,732.979 1816.38,733.243 1817.93,733.41 1819.48,733.571 1821.03,733.853 1822.58,734.022 1824.13,733.973 1825.68,733.992 1827.23,734.035 1828.78,734.243 1830.33,734.259 1831.88,734.303 1833.43,734.442 1834.98,734.651 1836.53,734.754 1838.08,734.93 1839.63,735.257 1841.19,735.405 1842.74,735.576 1844.29,735.556 1845.84,735.639 1847.39,735.832 1848.94,735.843 1850.49,735.899 1852.04,735.939 1853.59,735.815 1855.14,735.733 1856.69,735.539 1858.24,735.343 1859.79,735.246 1861.34,735.251 1862.89,735.085 1864.44,734.945 1865.99,734.74 1867.54,734.599 1869.09,734.361 1870.65,734.266 1872.2,734.029 1873.75,733.933 1875.3,733.895 1876.85,733.786 1878.4,733.641 1879.95,733.491 1881.5,733.441 1883.05,733.561 1884.6,733.464 1886.15,733.426 1887.7,733.401 1889.25,733.174 1890.8,732.969 1892.35,732.819 1893.9,732.703 1895.45,732.617 1897,732.642 1898.55,732.614 1900.1,732.558 1901.66,732.534 1903.21,732.56 1904.76,732.368 1906.31,732.381 1907.86,732.369 1909.41,732.393 1910.96,732.504 1912.51,732.494 1914.06,732.564 1915.61,732.689 1917.16,732.632 1918.71,732.632 1920.26,732.651 1921.81,732.648 1923.36,732.722 1924.91,732.651 1926.46,732.704 1928.01,732.934 1929.56,732.981 1931.12,733.037 1932.67,733.016 1934.22,733.009 1935.77,733.232 1937.32,733.333 1938.87,733.503 1940.42,733.6 1941.97,733.515 1943.52,733.36 1945.07,733.375 1946.62,733.489 1948.17,733.811 1949.72,733.75 1951.27,733.666 1952.82,733.519 1954.37,733.335 1955.92,733.534 1957.47,733.377 1959.02,733.34 1960.58,733.347 1962.13,733.402 1963.68,733.471 1965.23,733.367 1966.78,733.682 1968.33,733.735 1969.88,733.688 1971.43,734.113 1972.98,734.446 1974.53,734.326 1976.08,733.812 1977.63,734.094 1979.18,734.139 1980.73,734.277 1982.28,734.373 1983.83,734.621 1985.38,734.723 1986.93,734.598 1988.48,734.572 1990.03,734.725 1991.59,734.798 1993.14,735.059 1994.69,735.209 1996.24,735.498 1997.79,735.475 1999.34,735.621 2000.89,735.914 2002.44,736.064 2003.99,736.253 2005.54,736.52 2007.09,736.441 2008.64,736.469 2010.19,736.457 2011.74,736.303 2013.29,735.992 2014.84,736.001 2016.39,735.683 2017.94,735.895 2019.49,735.997 2021.05,735.783 2022.6,735.914 2024.15,735.854 2025.7,736.06 2027.25,735.877 2028.8,736.33 2030.35,736.436 2031.9,736.417 2033.45,736.498 2035,736.605 2036.55,736.799 2038.1,736.901 2039.65,736.958 2041.2,737.098 2042.75,737.129 2044.3,737.442 2045.85,737.704 2047.4,737.741 2048.95,737.754 2050.5,737.914 2052.06,738.071 2053.61,738.173 2055.16,738.159 2056.71,738.453 2058.26,738.621 2059.81,738.696 2061.36,738.904 2062.91,738.971 2064.46,739.039 2066.01,739.184 2067.56,739.191 2069.11,739.306 2070.66,739.417 2072.21,739.464 2073.76,739.634 2075.31,739.695 2076.86,739.77 2078.41,739.798 2079.96,739.796 2081.52,739.942 2083.07,739.755 "/>
<path clip-path="url(#clip660)" d="M850.909 229.707 L1121.75 229.707 L1121.75 78.808 L850.909 78.808  Z" fill="#ffffff" fill-rule="evenodd" fill-opacity="1"/>
<polyline clip-path="url(#clip660)" style="stroke:#000000; stroke-linecap:round; stroke-linejoin:round; stroke-width:4; stroke-opacity:0; fill:none" points="850.909,229.707 1121.75,229.707 1121.75,78.808 850.909,78.808 850.909,229.707 "/>
<polyline clip-path="url(#clip660)" style="stroke:#1a80bb; stroke-linecap:round; stroke-linejoin:round; stroke-width:12; stroke-opacity:0.95; fill:none" points="861.245,129.108 923.266,129.108 "/>
<g clip-path="url(#clip660)">
<text style="fill:#000000; fill-opacity:1; font-family:Arial,Helvetica Neue,Helvetica,sans-serif; font-size:48px; text-anchor:start;" transform="rotate(0, 933.603, 146.608)" x="933.603" y="146.608">FCUC</text>
</g>
<polyline clip-path="url(#clip660)" style="stroke:#a00000; stroke-linecap:round; stroke-linejoin:round; stroke-width:12; stroke-opacity:0.95; fill:none" points="861.245,179.407 923.266,179.407 "/>
<g clip-path="url(#clip660)">
<text style="fill:#000000; fill-opacity:1; font-family:Arial,Helvetica Neue,Helvetica,sans-serif; font-size:48px; text-anchor:start;" transform="rotate(0, 933.603, 196.907)" x="933.603" y="196.907">r-FCUC</text>
</g>
</svg>
