<?xml version="1.0" encoding="utf-8"?>
<svg xmlns="http://www.w3.org/2000/svg" xmlns:xlink="http://www.w3.org/1999/xlink" width="300" height="300" viewBox="0 0 1200 1200">
<defs>
  <clipPath id="clip810">
    <rect x="0" y="0" width="1200" height="1200"/>
  </clipPath>
</defs>
<path clip-path="url(#clip810)" d="M0 1200 L1200 1200 L1200 0 L0 0  Z" fill="#ffffff" fill-rule="evenodd" fill-opacity="1"/>
<defs>
  <clipPath id="clip811">
    <rect x="240" y="119" width="841" height="841"/>
  </clipPath>
</defs>
<defs>
  <clipPath id="clip812">
    <rect x="222" y="47" width="931" height="948"/>
  </clipPath>
</defs>
<polyline clip-path="url(#clip812)" style="stroke:#787878; stroke-linecap:round; stroke-linejoin:round; stroke-width:4; stroke-opacity:0.1; fill:none" points="222.446,994.16 222.446,47.2441 "/>
<polyline clip-path="url(#clip812)" style="stroke:#787878; stroke-linecap:round; stroke-linejoin:round; stroke-width:4; stroke-opacity:0.1; fill:none" points="408.508,994.16 408.508,47.2441 "/>
<polyline clip-path="url(#clip812)" style="stroke:#787878; stroke-linecap:round; stroke-linejoin:round; stroke-width:4; stroke-opacity:0.1; fill:none" points="594.57,994.16 594.57,47.2441 "/>
<polyline clip-path="url(#clip812)" style="stroke:#787878; stroke-linecap:round; stroke-linejoin:round; stroke-width:4; stroke-opacity:0.1; fill:none" points="780.632,994.16 780.632,47.2441 "/>
<polyline clip-path="url(#clip812)" style="stroke:#787878; stroke-linecap:round; stroke-linejoin:round; stroke-width:4; stroke-opacity:0.1; fill:none" points="966.694,994.16 966.694,47.2441 "/>
<polyline clip-path="url(#clip812)" style="stroke:#787878; stroke-linecap:round; stroke-linejoin:round; stroke-width:4; stroke-opacity:0.1; fill:none" points="1152.76,994.16 1152.76,47.2441 "/>
<polyline clip-path="url(#clip812)" style="stroke:#787878; stroke-linecap:round; stroke-linejoin:round; stroke-width:4; stroke-opacity:0.1; fill:none" points="222.446,994.16 222.446,47.2441 "/>
<polyline clip-path="url(#clip812)" style="stroke:#787878; stroke-linecap:round; stroke-linejoin:round; stroke-width:4; stroke-opacity:0.1; fill:none" points="408.508,994.16 408.508,47.2441 "/>
<polyline clip-path="url(#clip812)" style="stroke:#787878; stroke-linecap:round; stroke-linejoin:round; stroke-width:4; stroke-opacity:0.1; fill:none" points="594.57,994.16 594.57,47.2441 "/>
<polyline clip-path="url(#clip812)" style="stroke:#787878; stroke-linecap:round; stroke-linejoin:round; stroke-width:4; stroke-opacity:0.1; fill:none" points="780.632,994.16 780.632,47.2441 "/>
<polyline clip-path="url(#clip812)" style="stroke:#787878; stroke-linecap:round; stroke-linejoin:round; stroke-width:4; stroke-opacity:0.1; fill:none" points="966.694,994.16 966.694,47.2441 "/>
<polyline clip-path="url(#clip812)" style="stroke:#787878; stroke-linecap:round; stroke-linejoin:round; stroke-width:4; stroke-opacity:0.1; fill:none" points="1152.76,994.16 1152.76,47.2441 "/>
<polyline clip-path="url(#clip812)" style="stroke:#787878; stroke-linecap:round; stroke-linejoin:round; stroke-width:4; stroke-opacity:0.1; fill:none" points="222.446,994.16 1152.76,994.16 "/>
<polyline clip-path="url(#clip812)" style="stroke:#787878; stroke-linecap:round; stroke-linejoin:round; stroke-width:4; stroke-opacity:0.1; fill:none" points="222.446,757.431 1152.76,757.431 "/>
<polyline clip-path="url(#clip812)" style="stroke:#787878; stroke-linecap:round; stroke-linejoin:round; stroke-width:4; stroke-opacity:0.1; fill:none" points="222.446,520.702 1152.76,520.702 "/>
<polyline clip-path="url(#clip812)" style="stroke:#787878; stroke-linecap:round; stroke-linejoin:round; stroke-width:4; stroke-opacity:0.1; fill:none" points="222.446,283.973 1152.76,283.973 "/>
<polyline clip-path="url(#clip812)" style="stroke:#787878; stroke-linecap:round; stroke-linejoin:round; stroke-width:4; stroke-opacity:0.1; fill:none" points="222.446,994.16 1152.76,994.16 "/>
<polyline clip-path="url(#clip812)" style="stroke:#787878; stroke-linecap:round; stroke-linejoin:round; stroke-width:4; stroke-opacity:0.1; fill:none" points="222.446,757.431 1152.76,757.431 "/>
<polyline clip-path="url(#clip812)" style="stroke:#787878; stroke-linecap:round; stroke-linejoin:round; stroke-width:4; stroke-opacity:0.1; fill:none" points="222.446,520.702 1152.76,520.702 "/>
<polyline clip-path="url(#clip812)" style="stroke:#787878; stroke-linecap:round; stroke-linejoin:round; stroke-width:4; stroke-opacity:0.1; fill:none" points="222.446,283.973 1152.76,283.973 "/>
<polyline clip-path="url(#clip810)" style="stroke:#000000; stroke-linecap:round; stroke-linejoin:round; stroke-width:4; stroke-opacity:1; fill:none" points="222.446,994.16 1152.76,994.16 "/>
<polyline clip-path="url(#clip810)" style="stroke:#000000; stroke-linecap:round; stroke-linejoin:round; stroke-width:4; stroke-opacity:1; fill:none" points="222.446,47.2441 1152.76,47.2441 "/>
<polyline clip-path="url(#clip810)" style="stroke:#000000; stroke-linecap:round; stroke-linejoin:round; stroke-width:4; stroke-opacity:1; fill:none" points="222.446,994.16 222.446,975.262 "/>
<polyline clip-path="url(#clip810)" style="stroke:#000000; stroke-linecap:round; stroke-linejoin:round; stroke-width:4; stroke-opacity:1; fill:none" points="408.508,994.16 408.508,975.262 "/>
<polyline clip-path="url(#clip810)" style="stroke:#000000; stroke-linecap:round; stroke-linejoin:round; stroke-width:4; stroke-opacity:1; fill:none" points="594.57,994.16 594.57,975.262 "/>
<polyline clip-path="url(#clip810)" style="stroke:#000000; stroke-linecap:round; stroke-linejoin:round; stroke-width:4; stroke-opacity:1; fill:none" points="780.632,994.16 780.632,975.262 "/>
<polyline clip-path="url(#clip810)" style="stroke:#000000; stroke-linecap:round; stroke-linejoin:round; stroke-width:4; stroke-opacity:1; fill:none" points="966.694,994.16 966.694,975.262 "/>
<polyline clip-path="url(#clip810)" style="stroke:#000000; stroke-linecap:round; stroke-linejoin:round; stroke-width:4; stroke-opacity:1; fill:none" points="1152.76,994.16 1152.76,975.262 "/>
<polyline clip-path="url(#clip810)" style="stroke:#000000; stroke-linecap:round; stroke-linejoin:round; stroke-width:4; stroke-opacity:1; fill:none" points="222.446,47.2441 222.446,66.1417 "/>
<polyline clip-path="url(#clip810)" style="stroke:#000000; stroke-linecap:round; stroke-linejoin:round; stroke-width:4; stroke-opacity:1; fill:none" points="408.508,47.2441 408.508,66.1417 "/>
<polyline clip-path="url(#clip810)" style="stroke:#000000; stroke-linecap:round; stroke-linejoin:round; stroke-width:4; stroke-opacity:1; fill:none" points="594.57,47.2441 594.57,66.1417 "/>
<polyline clip-path="url(#clip810)" style="stroke:#000000; stroke-linecap:round; stroke-linejoin:round; stroke-width:4; stroke-opacity:1; fill:none" points="780.632,47.2441 780.632,66.1417 "/>
<polyline clip-path="url(#clip810)" style="stroke:#000000; stroke-linecap:round; stroke-linejoin:round; stroke-width:4; stroke-opacity:1; fill:none" points="966.694,47.2441 966.694,66.1417 "/>
<polyline clip-path="url(#clip810)" style="stroke:#000000; stroke-linecap:round; stroke-linejoin:round; stroke-width:4; stroke-opacity:1; fill:none" points="1152.76,47.2441 1152.76,66.1417 "/>
<g clip-path="url(#clip810)">
<text style="fill:#000000; fill-opacity:1; font-family:Arial,Helvetica Neue,Helvetica,sans-serif; font-size:48px; text-anchor:middle;" transform="rotate(0, 222.446, 1046.41)" x="222.446" y="1046.41">0</text>
</g>
<g clip-path="url(#clip810)">
<text style="fill:#000000; fill-opacity:1; font-family:Arial,Helvetica Neue,Helvetica,sans-serif; font-size:48px; text-anchor:middle;" transform="rotate(0, 408.508, 1046.41)" x="408.508" y="1046.41">5</text>
</g>
<g clip-path="url(#clip810)">
<text style="fill:#000000; fill-opacity:1; font-family:Arial,Helvetica Neue,Helvetica,sans-serif; font-size:48px; text-anchor:middle;" transform="rotate(0, 594.57, 1046.41)" x="594.57" y="1046.41">10</text>
</g>
<g clip-path="url(#clip810)">
<text style="fill:#000000; fill-opacity:1; font-family:Arial,Helvetica Neue,Helvetica,sans-serif; font-size:48px; text-anchor:middle;" transform="rotate(0, 780.632, 1046.41)" x="780.632" y="1046.41">15</text>
</g>
<g clip-path="url(#clip810)">
<text style="fill:#000000; fill-opacity:1; font-family:Arial,Helvetica Neue,Helvetica,sans-serif; font-size:48px; text-anchor:middle;" transform="rotate(0, 966.694, 1046.41)" x="966.694" y="1046.41">20</text>
</g>
<g clip-path="url(#clip810)">
<text style="fill:#000000; fill-opacity:1; font-family:Arial,Helvetica Neue,Helvetica,sans-serif; font-size:48px; text-anchor:middle;" transform="rotate(0, 1152.76, 1046.41)" x="1152.76" y="1046.41">25</text>
</g>
<path clip-path="url(#clip810)" d="M640.958 1072.69 L640.958 1081.89 L651.924 1081.89 L651.924 1086.03 L640.958 1086.03 L640.958 1103.62 Q640.958 1107.59 642.028 1108.72 Q643.128 1109.84 646.455 1109.84 L651.924 1109.84 L651.924 1114.3 L646.455 1114.3 Q640.292 1114.3 637.948 1112.01 Q635.605 1109.7 635.605 1103.62 L635.605 1086.03 L631.698 1086.03 L631.698 1081.89 L635.605 1081.89 L635.605 1072.69 L640.958 1072.69 Z" fill="#000000" fill-rule="nonzero" fill-opacity="1" /><path clip-path="url(#clip810)" d="M687.225 1071.1 L692.144 1071.1 L677.098 1119.8 L672.179 1119.8 L687.225 1071.1 Z" fill="#000000" fill-rule="nonzero" fill-opacity="1" /><path clip-path="url(#clip810)" d="M743.503 1094.74 L743.503 1114.3 L738.179 1114.3 L738.179 1094.91 Q738.179 1090.31 736.385 1088.03 Q734.591 1085.74 731.004 1085.74 Q726.692 1085.74 724.204 1088.49 Q721.715 1091.24 721.715 1095.98 L721.715 1114.3 L716.362 1114.3 L716.362 1069.28 L721.715 1069.28 L721.715 1086.93 Q723.625 1084 726.2 1082.56 Q728.804 1081.11 732.19 1081.11 Q737.774 1081.11 740.639 1084.58 Q743.503 1088.03 743.503 1094.74 Z" fill="#000000" fill-rule="nonzero" fill-opacity="1" /><polyline clip-path="url(#clip810)" style="stroke:#000000; stroke-linecap:round; stroke-linejoin:round; stroke-width:4; stroke-opacity:1; fill:none" points="222.446,994.16 222.446,47.2441 "/>
<polyline clip-path="url(#clip810)" style="stroke:#000000; stroke-linecap:round; stroke-linejoin:round; stroke-width:4; stroke-opacity:1; fill:none" points="1152.76,994.16 1152.76,47.2441 "/>
<polyline clip-path="url(#clip810)" style="stroke:#000000; stroke-linecap:round; stroke-linejoin:round; stroke-width:4; stroke-opacity:1; fill:none" points="222.446,994.16 241.344,994.16 "/>
<polyline clip-path="url(#clip810)" style="stroke:#000000; stroke-linecap:round; stroke-linejoin:round; stroke-width:4; stroke-opacity:1; fill:none" points="222.446,757.431 241.344,757.431 "/>
<polyline clip-path="url(#clip810)" style="stroke:#000000; stroke-linecap:round; stroke-linejoin:round; stroke-width:4; stroke-opacity:1; fill:none" points="222.446,520.702 241.344,520.702 "/>
<polyline clip-path="url(#clip810)" style="stroke:#000000; stroke-linecap:round; stroke-linejoin:round; stroke-width:4; stroke-opacity:1; fill:none" points="222.446,283.973 241.344,283.973 "/>
<polyline clip-path="url(#clip810)" style="stroke:#000000; stroke-linecap:round; stroke-linejoin:round; stroke-width:4; stroke-opacity:1; fill:none" points="1152.76,994.16 1133.86,994.16 "/>
<polyline clip-path="url(#clip810)" style="stroke:#000000; stroke-linecap:round; stroke-linejoin:round; stroke-width:4; stroke-opacity:1; fill:none" points="1152.76,757.431 1133.86,757.431 "/>
<polyline clip-path="url(#clip810)" style="stroke:#000000; stroke-linecap:round; stroke-linejoin:round; stroke-width:4; stroke-opacity:1; fill:none" points="1152.76,520.702 1133.86,520.702 "/>
<polyline clip-path="url(#clip810)" style="stroke:#000000; stroke-linecap:round; stroke-linejoin:round; stroke-width:4; stroke-opacity:1; fill:none" points="1152.76,283.973 1133.86,283.973 "/>
<g clip-path="url(#clip810)">
<text style="fill:#000000; fill-opacity:1; font-family:Arial,Helvetica Neue,Helvetica,sans-serif; font-size:48px; text-anchor:middle;" transform="rotate(0, 170.993, 1011.66)" x="170.993" y="1011.66">2.0</text>
</g>
<g clip-path="url(#clip810)">
<text style="fill:#000000; fill-opacity:1; font-family:Arial,Helvetica Neue,Helvetica,sans-serif; font-size:48px; text-anchor:middle;" transform="rotate(0, 170.993, 774.931)" x="170.993" y="774.931">2.5</text>
</g>
<g clip-path="url(#clip810)">
<text style="fill:#000000; fill-opacity:1; font-family:Arial,Helvetica Neue,Helvetica,sans-serif; font-size:48px; text-anchor:middle;" transform="rotate(0, 170.993, 538.202)" x="170.993" y="538.202">3.0</text>
</g>
<g clip-path="url(#clip810)">
<text style="fill:#000000; fill-opacity:1; font-family:Arial,Helvetica Neue,Helvetica,sans-serif; font-size:48px; text-anchor:middle;" transform="rotate(0, 170.993, 301.473)" x="170.993" y="301.473">3.5</text>
</g>
<path clip-path="url(#clip810)" d="M67.3443 683.982 Q67.3443 690.348 72.0896 694.11 Q76.8349 697.842 85.0236 697.842 Q93.1832 697.842 97.9286 694.11 Q102.674 690.348 102.674 683.982 Q102.674 677.617 97.9286 673.913 Q93.1832 670.18 85.0236 670.18 Q76.8349 670.18 72.0896 673.913 Q67.3443 677.617 67.3443 683.982 M62.5989 683.982 Q62.5989 674.897 68.7042 669.457 Q74.7806 664.017 85.0236 664.017 Q95.2376 664.017 101.343 669.457 Q107.419 674.897 107.419 683.982 Q107.419 693.097 101.343 698.566 Q95.2666 704.006 85.0236 704.006 Q74.7806 704.006 68.7042 698.566 Q62.5989 693.097 62.5989 683.982 Z" fill="#000000" fill-rule="nonzero" fill-opacity="1" /><path clip-path="url(#clip810)" d="M93.7909 655.655 L74.1729 655.655 L74.1729 650.331 L93.5883 650.331 Q98.189 650.331 100.504 648.537 Q102.79 646.743 102.79 643.155 Q102.79 638.844 100.041 636.355 Q97.292 633.838 92.5467 633.838 L74.1729 633.838 L74.1729 628.514 L106.58 628.514 L106.58 633.838 L101.603 633.838 Q104.555 635.777 106.001 638.352 Q107.419 640.898 107.419 644.284 Q107.419 649.868 103.947 652.762 Q100.475 655.655 93.7909 655.655 M73.3917 642.258 L73.3917 642.258 Z" fill="#000000" fill-rule="nonzero" fill-opacity="1" /><path clip-path="url(#clip810)" d="M64.9716 612.281 L74.1729 612.281 L74.1729 601.315 L78.3106 601.315 L78.3106 612.281 L95.9031 612.281 Q99.8672 612.281 100.996 611.211 Q102.124 610.111 102.124 606.784 L102.124 601.315 L106.58 601.315 L106.58 606.784 Q106.58 612.947 104.294 615.291 Q101.979 617.634 95.9031 617.634 L78.3106 617.634 L78.3106 621.541 L74.1729 621.541 L74.1729 617.634 L64.9716 617.634 L64.9716 612.281 Z" fill="#000000" fill-rule="nonzero" fill-opacity="1" /><path clip-path="url(#clip810)" d="M101.719 589.162 L118.906 589.162 L118.906 594.515 L74.1729 594.515 L74.1729 589.162 L79.0919 589.162 Q76.1984 587.484 74.8095 584.938 Q73.3917 582.363 73.3917 578.804 Q73.3917 572.901 78.0792 569.226 Q82.7666 565.522 90.4055 565.522 Q98.0443 565.522 102.732 569.226 Q107.419 572.901 107.419 578.804 Q107.419 582.363 106.03 584.938 Q104.613 587.484 101.719 589.162 M90.4055 571.049 Q84.5317 571.049 81.2041 573.48 Q77.8477 575.881 77.8477 580.106 Q77.8477 584.33 81.2041 586.761 Q84.5317 589.162 90.4055 589.162 Q96.2793 589.162 99.6358 586.761 Q102.963 584.33 102.963 580.106 Q102.963 575.881 99.6358 573.48 Q96.2793 571.049 90.4055 571.049 Z" fill="#000000" fill-rule="nonzero" fill-opacity="1" /><path clip-path="url(#clip810)" d="M93.7909 557.247 L74.1729 557.247 L74.1729 551.923 L93.5883 551.923 Q98.189 551.923 100.504 550.129 Q102.79 548.335 102.79 544.747 Q102.79 540.436 100.041 537.947 Q97.292 535.43 92.5467 535.43 L74.1729 535.43 L74.1729 530.106 L106.58 530.106 L106.58 535.43 L101.603 535.43 Q104.555 537.369 106.001 539.944 Q107.419 542.49 107.419 545.876 Q107.419 551.46 103.947 554.354 Q100.475 557.247 93.7909 557.247 M73.3917 543.85 L73.3917 543.85 Z" fill="#000000" fill-rule="nonzero" fill-opacity="1" /><path clip-path="url(#clip810)" d="M64.9716 513.873 L74.1729 513.873 L74.1729 502.907 L78.3106 502.907 L78.3106 513.873 L95.9031 513.873 Q99.8672 513.873 100.996 512.803 Q102.124 511.703 102.124 508.376 L102.124 502.907 L106.58 502.907 L106.58 508.376 Q106.58 514.539 104.294 516.883 Q101.979 519.226 95.9031 519.226 L78.3106 519.226 L78.3106 523.133 L74.1729 523.133 L74.1729 519.226 L64.9716 519.226 L64.9716 513.873 Z" fill="#000000" fill-rule="nonzero" fill-opacity="1" /><path clip-path="url(#clip810)" d="M63.3802 467.606 L63.3802 462.687 L112.078 477.734 L112.078 482.653 L63.3802 467.606 Z" fill="#000000" fill-rule="nonzero" fill-opacity="1" /><path clip-path="url(#clip810)" d="M101.719 433.116 L118.906 433.116 L118.906 438.469 L74.1729 438.469 L74.1729 433.116 L79.0919 433.116 Q76.1984 431.438 74.8095 428.891 Q73.3917 426.316 73.3917 422.757 Q73.3917 416.854 78.0792 413.18 Q82.7666 409.476 90.4055 409.476 Q98.0443 409.476 102.732 413.18 Q107.419 416.854 107.419 422.757 Q107.419 426.316 106.03 428.891 Q104.613 431.438 101.719 433.116 M90.4055 415.002 Q84.5317 415.002 81.2041 417.433 Q77.8477 419.835 77.8477 424.059 Q77.8477 428.284 81.2041 430.714 Q84.5317 433.116 90.4055 433.116 Q96.2793 433.116 99.6358 430.714 Q102.963 428.284 102.963 424.059 Q102.963 419.835 99.6358 417.433 Q96.2793 415.002 90.4055 415.002 Z" fill="#000000" fill-rule="nonzero" fill-opacity="1" /><path clip-path="url(#clip810)" d="M99.2307 399.898 L99.2307 393.793 L106.58 393.793 L106.58 399.898 L99.2307 399.898 Z" fill="#000000" fill-rule="nonzero" fill-opacity="1" /><path clip-path="url(#clip810)" d="M93.7909 382.364 L74.1729 382.364 L74.1729 377.04 L93.5883 377.04 Q98.189 377.04 100.504 375.246 Q102.79 373.452 102.79 369.864 Q102.79 365.552 100.041 363.064 Q97.292 360.547 92.5467 360.547 L74.1729 360.547 L74.1729 355.223 L106.58 355.223 L106.58 360.547 L101.603 360.547 Q104.555 362.485 106.001 365.061 Q107.419 367.607 107.419 370.992 Q107.419 376.577 103.947 379.47 Q100.475 382.364 93.7909 382.364 M73.3917 368.967 L73.3917 368.967 Z" fill="#000000" fill-rule="nonzero" fill-opacity="1" /><path clip-path="url(#clip810)" d="M99.2307 343.504 L99.2307 337.399 L106.58 337.399 L106.58 343.504 L99.2307 343.504 Z" fill="#000000" fill-rule="nonzero" fill-opacity="1" /><path clip-path="url(#clip812)" d="M243.843 903.304 L243.843 1941.08 L275.474 1941.08 L275.474 903.304 L243.843 903.304 L243.843 903.304  Z" fill="#1a80bb" fill-rule="evenodd" fill-opacity="1"/>
<polyline clip-path="url(#clip812)" style="stroke:#787878; stroke-linecap:round; stroke-linejoin:round; stroke-width:0; stroke-opacity:0.75; fill:none" points="243.843,903.304 243.843,1941.08 275.474,1941.08 275.474,903.304 243.843,903.304 "/>
<path clip-path="url(#clip812)" d="M281.056 826.793 L281.056 1941.08 L312.686 1941.08 L312.686 826.793 L281.056 826.793 L281.056 826.793  Z" fill="#1a80bb" fill-rule="evenodd" fill-opacity="1"/>
<polyline clip-path="url(#clip812)" style="stroke:#787878; stroke-linecap:round; stroke-linejoin:round; stroke-width:0; stroke-opacity:0.75; fill:none" points="281.056,826.793 281.056,1941.08 312.686,1941.08 312.686,826.793 281.056,826.793 "/>
<path clip-path="url(#clip812)" d="M318.268 830.012 L318.268 1941.08 L349.898 1941.08 L349.898 830.012 L318.268 830.012 L318.268 830.012  Z" fill="#1a80bb" fill-rule="evenodd" fill-opacity="1"/>
<polyline clip-path="url(#clip812)" style="stroke:#787878; stroke-linecap:round; stroke-linejoin:round; stroke-width:0; stroke-opacity:0.75; fill:none" points="318.268,830.012 318.268,1941.08 349.898,1941.08 349.898,830.012 318.268,830.012 "/>
<path clip-path="url(#clip812)" d="M355.48 820.259 L355.48 1941.08 L387.111 1941.08 L387.111 820.259 L355.48 820.259 L355.48 820.259  Z" fill="#1a80bb" fill-rule="evenodd" fill-opacity="1"/>
<polyline clip-path="url(#clip812)" style="stroke:#787878; stroke-linecap:round; stroke-linejoin:round; stroke-width:0; stroke-opacity:0.75; fill:none" points="355.48,820.259 355.48,1941.08 387.111,1941.08 387.111,820.259 355.48,820.259 "/>
<path clip-path="url(#clip812)" d="M392.693 809.227 L392.693 1941.08 L424.323 1941.08 L424.323 809.227 L392.693 809.227 L392.693 809.227  Z" fill="#1a80bb" fill-rule="evenodd" fill-opacity="1"/>
<polyline clip-path="url(#clip812)" style="stroke:#787878; stroke-linecap:round; stroke-linejoin:round; stroke-width:0; stroke-opacity:0.75; fill:none" points="392.693,809.227 392.693,1941.08 424.323,1941.08 424.323,809.227 392.693,809.227 "/>
<path clip-path="url(#clip812)" d="M429.905 783.566 L429.905 1941.08 L461.536 1941.08 L461.536 783.566 L429.905 783.566 L429.905 783.566  Z" fill="#1a80bb" fill-rule="evenodd" fill-opacity="1"/>
<polyline clip-path="url(#clip812)" style="stroke:#787878; stroke-linecap:round; stroke-linejoin:round; stroke-width:0; stroke-opacity:0.75; fill:none" points="429.905,783.566 429.905,1941.08 461.536,1941.08 461.536,783.566 429.905,783.566 "/>
<path clip-path="url(#clip812)" d="M467.118 646.689 L467.118 1941.08 L498.748 1941.08 L498.748 646.689 L467.118 646.689 L467.118 646.689  Z" fill="#1a80bb" fill-rule="evenodd" fill-opacity="1"/>
<polyline clip-path="url(#clip812)" style="stroke:#787878; stroke-linecap:round; stroke-linejoin:round; stroke-width:0; stroke-opacity:0.75; fill:none" points="467.118,646.689 467.118,1941.08 498.748,1941.08 498.748,646.689 467.118,646.689 "/>
<path clip-path="url(#clip812)" d="M504.33 566.154 L504.33 1941.08 L535.96 1941.08 L535.96 566.154 L504.33 566.154 L504.33 566.154  Z" fill="#1a80bb" fill-rule="evenodd" fill-opacity="1"/>
<polyline clip-path="url(#clip812)" style="stroke:#787878; stroke-linecap:round; stroke-linejoin:round; stroke-width:0; stroke-opacity:0.75; fill:none" points="504.33,566.154 504.33,1941.08 535.96,1941.08 535.96,566.154 504.33,566.154 "/>
<path clip-path="url(#clip812)" d="M541.542 598.539 L541.542 1941.08 L573.173 1941.08 L573.173 598.539 L541.542 598.539 L541.542 598.539  Z" fill="#1a80bb" fill-rule="evenodd" fill-opacity="1"/>
<polyline clip-path="url(#clip812)" style="stroke:#787878; stroke-linecap:round; stroke-linejoin:round; stroke-width:0; stroke-opacity:0.75; fill:none" points="541.542,598.539 541.542,1941.08 573.173,1941.08 573.173,598.539 541.542,598.539 "/>
<path clip-path="url(#clip812)" d="M578.755 609.712 L578.755 1941.08 L610.385 1941.08 L610.385 609.712 L578.755 609.712 L578.755 609.712  Z" fill="#1a80bb" fill-rule="evenodd" fill-opacity="1"/>
<polyline clip-path="url(#clip812)" style="stroke:#787878; stroke-linecap:round; stroke-linejoin:round; stroke-width:0; stroke-opacity:0.75; fill:none" points="578.755,609.712 578.755,1941.08 610.385,1941.08 610.385,609.712 578.755,609.712 "/>
<path clip-path="url(#clip812)" d="M615.967 385.246 L615.967 1941.08 L647.598 1941.08 L647.598 385.246 L615.967 385.246 L615.967 385.246  Z" fill="#1a80bb" fill-rule="evenodd" fill-opacity="1"/>
<polyline clip-path="url(#clip812)" style="stroke:#787878; stroke-linecap:round; stroke-linejoin:round; stroke-width:0; stroke-opacity:0.75; fill:none" points="615.967,385.246 615.967,1941.08 647.598,1941.08 647.598,385.246 615.967,385.246 "/>
<path clip-path="url(#clip812)" d="M653.179 387.66 L653.179 1941.08 L684.81 1941.08 L684.81 387.66 L653.179 387.66 L653.179 387.66  Z" fill="#1a80bb" fill-rule="evenodd" fill-opacity="1"/>
<polyline clip-path="url(#clip812)" style="stroke:#787878; stroke-linecap:round; stroke-linejoin:round; stroke-width:0; stroke-opacity:0.75; fill:none" points="653.179,387.66 653.179,1941.08 684.81,1941.08 684.81,387.66 653.179,387.66 "/>
<path clip-path="url(#clip812)" d="M690.392 396.751 L690.392 1941.08 L722.022 1941.08 L722.022 396.751 L690.392 396.751 L690.392 396.751  Z" fill="#1a80bb" fill-rule="evenodd" fill-opacity="1"/>
<polyline clip-path="url(#clip812)" style="stroke:#787878; stroke-linecap:round; stroke-linejoin:round; stroke-width:0; stroke-opacity:0.75; fill:none" points="690.392,396.751 690.392,1941.08 722.022,1941.08 722.022,396.751 690.392,396.751 "/>
<path clip-path="url(#clip812)" d="M727.604 408.966 L727.604 1941.08 L759.235 1941.08 L759.235 408.966 L727.604 408.966 L727.604 408.966  Z" fill="#1a80bb" fill-rule="evenodd" fill-opacity="1"/>
<polyline clip-path="url(#clip812)" style="stroke:#787878; stroke-linecap:round; stroke-linejoin:round; stroke-width:0; stroke-opacity:0.75; fill:none" points="727.604,408.966 727.604,1941.08 759.235,1941.08 759.235,408.966 727.604,408.966 "/>
<path clip-path="url(#clip812)" d="M764.817 393.531 L764.817 1941.08 L796.447 1941.08 L796.447 393.531 L764.817 393.531 L764.817 393.531  Z" fill="#1a80bb" fill-rule="evenodd" fill-opacity="1"/>
<polyline clip-path="url(#clip812)" style="stroke:#787878; stroke-linecap:round; stroke-linejoin:round; stroke-width:0; stroke-opacity:0.75; fill:none" points="764.817,393.531 764.817,1941.08 796.447,1941.08 796.447,393.531 764.817,393.531 "/>
<path clip-path="url(#clip812)" d="M802.029 578.511 L802.029 1941.08 L833.66 1941.08 L833.66 578.511 L802.029 578.511 L802.029 578.511  Z" fill="#1a80bb" fill-rule="evenodd" fill-opacity="1"/>
<polyline clip-path="url(#clip812)" style="stroke:#787878; stroke-linecap:round; stroke-linejoin:round; stroke-width:0; stroke-opacity:0.75; fill:none" points="802.029,578.511 802.029,1941.08 833.66,1941.08 833.66,578.511 802.029,578.511 "/>
<path clip-path="url(#clip812)" d="M839.241 710.085 L839.241 1941.08 L870.872 1941.08 L870.872 710.085 L839.241 710.085 L839.241 710.085  Z" fill="#1a80bb" fill-rule="evenodd" fill-opacity="1"/>
<polyline clip-path="url(#clip812)" style="stroke:#787878; stroke-linecap:round; stroke-linejoin:round; stroke-width:0; stroke-opacity:0.75; fill:none" points="839.241,710.085 839.241,1941.08 870.872,1941.08 870.872,710.085 839.241,710.085 "/>
<path clip-path="url(#clip812)" d="M876.454 772.866 L876.454 1941.08 L908.084 1941.08 L908.084 772.866 L876.454 772.866 L876.454 772.866  Z" fill="#1a80bb" fill-rule="evenodd" fill-opacity="1"/>
<polyline clip-path="url(#clip812)" style="stroke:#787878; stroke-linecap:round; stroke-linejoin:round; stroke-width:0; stroke-opacity:0.75; fill:none" points="876.454,772.866 876.454,1941.08 908.084,1941.08 908.084,772.866 876.454,772.866 "/>
<path clip-path="url(#clip812)" d="M913.666 729.166 L913.666 1941.08 L945.297 1941.08 L945.297 729.166 L913.666 729.166 L913.666 729.166  Z" fill="#1a80bb" fill-rule="evenodd" fill-opacity="1"/>
<polyline clip-path="url(#clip812)" style="stroke:#787878; stroke-linecap:round; stroke-linejoin:round; stroke-width:0; stroke-opacity:0.75; fill:none" points="913.666,729.166 913.666,1941.08 945.297,1941.08 945.297,729.166 913.666,729.166 "/>
<path clip-path="url(#clip812)" d="M950.879 817.324 L950.879 1941.08 L982.509 1941.08 L982.509 817.324 L950.879 817.324 L950.879 817.324  Z" fill="#1a80bb" fill-rule="evenodd" fill-opacity="1"/>
<polyline clip-path="url(#clip812)" style="stroke:#787878; stroke-linecap:round; stroke-linejoin:round; stroke-width:0; stroke-opacity:0.75; fill:none" points="950.879,817.324 950.879,1941.08 982.509,1941.08 982.509,817.324 950.879,817.324 "/>
<path clip-path="url(#clip812)" d="M988.091 789.105 L988.091 1941.08 L1019.72 1941.08 L1019.72 789.105 L988.091 789.105 L988.091 789.105  Z" fill="#1a80bb" fill-rule="evenodd" fill-opacity="1"/>
<polyline clip-path="url(#clip812)" style="stroke:#787878; stroke-linecap:round; stroke-linejoin:round; stroke-width:0; stroke-opacity:0.75; fill:none" points="988.091,789.105 988.091,1941.08 1019.72,1941.08 1019.72,789.105 988.091,789.105 "/>
<path clip-path="url(#clip812)" d="M1025.3 600.527 L1025.3 1941.08 L1056.93 1941.08 L1056.93 600.527 L1025.3 600.527 L1025.3 600.527  Z" fill="#1a80bb" fill-rule="evenodd" fill-opacity="1"/>
<polyline clip-path="url(#clip812)" style="stroke:#787878; stroke-linecap:round; stroke-linejoin:round; stroke-width:0; stroke-opacity:0.75; fill:none" points="1025.3,600.527 1025.3,1941.08 1056.93,1941.08 1056.93,600.527 1025.3,600.527 "/>
<path clip-path="url(#clip812)" d="M1062.52 600.953 L1062.52 1941.08 L1094.15 1941.08 L1094.15 600.953 L1062.52 600.953 L1062.52 600.953  Z" fill="#1a80bb" fill-rule="evenodd" fill-opacity="1"/>
<polyline clip-path="url(#clip812)" style="stroke:#787878; stroke-linecap:round; stroke-linejoin:round; stroke-width:0; stroke-opacity:0.75; fill:none" points="1062.52,600.953 1062.52,1941.08 1094.15,1941.08 1094.15,600.953 1062.52,600.953 "/>
<path clip-path="url(#clip812)" d="M1099.73 763.349 L1099.73 1941.08 L1131.36 1941.08 L1131.36 763.349 L1099.73 763.349 L1099.73 763.349  Z" fill="#1a80bb" fill-rule="evenodd" fill-opacity="1"/>
<polyline clip-path="url(#clip812)" style="stroke:#787878; stroke-linecap:round; stroke-linejoin:round; stroke-width:0; stroke-opacity:0.75; fill:none" points="1099.73,763.349 1099.73,1941.08 1131.36,1941.08 1131.36,763.349 1099.73,763.349 "/>
<circle clip-path="url(#clip812)" style="fill:#009af9; stroke:none; fill-opacity:0" cx="259.658" cy="903.304" r="2"/>
<circle clip-path="url(#clip812)" style="fill:#009af9; stroke:none; fill-opacity:0" cx="296.871" cy="826.793" r="2"/>
<circle clip-path="url(#clip812)" style="fill:#009af9; stroke:none; fill-opacity:0" cx="334.083" cy="830.012" r="2"/>
<circle clip-path="url(#clip812)" style="fill:#009af9; stroke:none; fill-opacity:0" cx="371.296" cy="820.259" r="2"/>
<circle clip-path="url(#clip812)" style="fill:#009af9; stroke:none; fill-opacity:0" cx="408.508" cy="809.227" r="2"/>
<circle clip-path="url(#clip812)" style="fill:#009af9; stroke:none; fill-opacity:0" cx="445.72" cy="783.566" r="2"/>
<circle clip-path="url(#clip812)" style="fill:#009af9; stroke:none; fill-opacity:0" cx="482.933" cy="646.689" r="2"/>
<circle clip-path="url(#clip812)" style="fill:#009af9; stroke:none; fill-opacity:0" cx="520.145" cy="566.154" r="2"/>
<circle clip-path="url(#clip812)" style="fill:#009af9; stroke:none; fill-opacity:0" cx="557.358" cy="598.539" r="2"/>
<circle clip-path="url(#clip812)" style="fill:#009af9; stroke:none; fill-opacity:0" cx="594.57" cy="609.712" r="2"/>
<circle clip-path="url(#clip812)" style="fill:#009af9; stroke:none; fill-opacity:0" cx="631.782" cy="385.246" r="2"/>
<circle clip-path="url(#clip812)" style="fill:#009af9; stroke:none; fill-opacity:0" cx="668.995" cy="387.66" r="2"/>
<circle clip-path="url(#clip812)" style="fill:#009af9; stroke:none; fill-opacity:0" cx="706.207" cy="396.751" r="2"/>
<circle clip-path="url(#clip812)" style="fill:#009af9; stroke:none; fill-opacity:0" cx="743.42" cy="408.966" r="2"/>
<circle clip-path="url(#clip812)" style="fill:#009af9; stroke:none; fill-opacity:0" cx="780.632" cy="393.531" r="2"/>
<circle clip-path="url(#clip812)" style="fill:#009af9; stroke:none; fill-opacity:0" cx="817.844" cy="578.511" r="2"/>
<circle clip-path="url(#clip812)" style="fill:#009af9; stroke:none; fill-opacity:0" cx="855.057" cy="710.085" r="2"/>
<circle clip-path="url(#clip812)" style="fill:#009af9; stroke:none; fill-opacity:0" cx="892.269" cy="772.866" r="2"/>
<circle clip-path="url(#clip812)" style="fill:#009af9; stroke:none; fill-opacity:0" cx="929.482" cy="729.166" r="2"/>
<circle clip-path="url(#clip812)" style="fill:#009af9; stroke:none; fill-opacity:0" cx="966.694" cy="817.324" r="2"/>
<circle clip-path="url(#clip812)" style="fill:#009af9; stroke:none; fill-opacity:0" cx="1003.91" cy="789.105" r="2"/>
<circle clip-path="url(#clip812)" style="fill:#009af9; stroke:none; fill-opacity:0" cx="1041.12" cy="600.527" r="2"/>
<circle clip-path="url(#clip812)" style="fill:#009af9; stroke:none; fill-opacity:0" cx="1078.33" cy="600.953" r="2"/>
<circle clip-path="url(#clip812)" style="fill:#009af9; stroke:none; fill-opacity:0" cx="1115.54" cy="763.349" r="2"/>
<path clip-path="url(#clip810)" d="M763.883 179.407 L1121.75 179.407 L1121.75 78.808 L763.883 78.808  Z" fill="#ffffff" fill-rule="evenodd" fill-opacity="1"/>
<polyline clip-path="url(#clip810)" style="stroke:#000000; stroke-linecap:round; stroke-linejoin:round; stroke-width:4; stroke-opacity:0; fill:none" points="763.883,179.407 1121.75,179.407 1121.75,78.808 763.883,78.808 763.883,179.407 "/>
<path clip-path="url(#clip810)" d="M774.22 149.228 L836.24 149.228 L836.24 108.988 L774.22 108.988 L774.22 149.228  Z" fill="#1a80bb" fill-rule="evenodd" fill-opacity="1"/>
<polyline clip-path="url(#clip810)" style="stroke:#787878; stroke-linecap:round; stroke-linejoin:round; stroke-width:0.8; stroke-opacity:1; fill:none" points="774.22,149.228 836.24,149.228 836.24,108.988 774.22,108.988 774.22,149.228 "/>
<g clip-path="url(#clip810)">
<text style="fill:#000000; fill-opacity:1; font-family:Arial,Helvetica Neue,Helvetica,sans-serif; font-size:48px; text-anchor:start;" transform="rotate(0, 846.577, 146.608)" x="846.577" y="146.608">System load</text>
</g>
</svg>
