<?xml version="1.0" encoding="utf-8"?>
<svg xmlns="http://www.w3.org/2000/svg" xmlns:xlink="http://www.w3.org/1999/xlink" width="600" height="300" viewBox="0 0 2400 1200">
<defs>
  <clipPath id="clip890">
    <rect x="0" y="0" width="2400" height="1200"/>
  </clipPath>
</defs>
<path clip-path="url(#clip890)" d="M0 1200 L2400 1200 L2400 0 L0 0  Z" fill="#ffffff" fill-rule="evenodd" fill-opacity="1"/>
<defs>
  <clipPath id="clip891">
    <rect x="480" y="0" width="1681" height="1200"/>
  </clipPath>
</defs>
<defs>
  <clipPath id="clip892">
    <rect x="202" y="47" width="938" height="1005"/>
  </clipPath>
</defs>
<polyline clip-path="url(#clip892)" style="stroke:#787878; stroke-linecap:round; stroke-linejoin:round; stroke-width:4; stroke-opacity:0.1; fill:none" points="202.046,1051.71 202.046,47.2441 "/>
<polyline clip-path="url(#clip892)" style="stroke:#787878; stroke-linecap:round; stroke-linejoin:round; stroke-width:4; stroke-opacity:0.1; fill:none" points="389.512,1051.71 389.512,47.2441 "/>
<polyline clip-path="url(#clip892)" style="stroke:#787878; stroke-linecap:round; stroke-linejoin:round; stroke-width:4; stroke-opacity:0.1; fill:none" points="576.977,1051.71 576.977,47.2441 "/>
<polyline clip-path="url(#clip892)" style="stroke:#787878; stroke-linecap:round; stroke-linejoin:round; stroke-width:4; stroke-opacity:0.1; fill:none" points="764.443,1051.71 764.443,47.2441 "/>
<polyline clip-path="url(#clip892)" style="stroke:#787878; stroke-linecap:round; stroke-linejoin:round; stroke-width:4; stroke-opacity:0.1; fill:none" points="951.909,1051.71 951.909,47.2441 "/>
<polyline clip-path="url(#clip892)" style="stroke:#787878; stroke-linecap:round; stroke-linejoin:round; stroke-width:4; stroke-opacity:0.1; fill:none" points="1139.37,1051.71 1139.37,47.2441 "/>
<polyline clip-path="url(#clip892)" style="stroke:#787878; stroke-linecap:round; stroke-linejoin:round; stroke-width:4; stroke-opacity:0.1; fill:none" points="202.046,1051.71 202.046,47.2441 "/>
<polyline clip-path="url(#clip892)" style="stroke:#787878; stroke-linecap:round; stroke-linejoin:round; stroke-width:4; stroke-opacity:0.1; fill:none" points="389.512,1051.71 389.512,47.2441 "/>
<polyline clip-path="url(#clip892)" style="stroke:#787878; stroke-linecap:round; stroke-linejoin:round; stroke-width:4; stroke-opacity:0.1; fill:none" points="576.977,1051.71 576.977,47.2441 "/>
<polyline clip-path="url(#clip892)" style="stroke:#787878; stroke-linecap:round; stroke-linejoin:round; stroke-width:4; stroke-opacity:0.1; fill:none" points="764.443,1051.71 764.443,47.2441 "/>
<polyline clip-path="url(#clip892)" style="stroke:#787878; stroke-linecap:round; stroke-linejoin:round; stroke-width:4; stroke-opacity:0.1; fill:none" points="951.909,1051.71 951.909,47.2441 "/>
<polyline clip-path="url(#clip892)" style="stroke:#787878; stroke-linecap:round; stroke-linejoin:round; stroke-width:4; stroke-opacity:0.1; fill:none" points="1139.37,1051.71 1139.37,47.2441 "/>
<polyline clip-path="url(#clip892)" style="stroke:#787878; stroke-linecap:round; stroke-linejoin:round; stroke-width:4; stroke-opacity:0.1; fill:none" points="202.046,1051.71 1139.37,1051.71 "/>
<polyline clip-path="url(#clip892)" style="stroke:#787878; stroke-linecap:round; stroke-linejoin:round; stroke-width:4; stroke-opacity:0.1; fill:none" points="202.046,800.594 1139.37,800.594 "/>
<polyline clip-path="url(#clip892)" style="stroke:#787878; stroke-linecap:round; stroke-linejoin:round; stroke-width:4; stroke-opacity:0.1; fill:none" points="202.046,549.477 1139.37,549.477 "/>
<polyline clip-path="url(#clip892)" style="stroke:#787878; stroke-linecap:round; stroke-linejoin:round; stroke-width:4; stroke-opacity:0.1; fill:none" points="202.046,298.361 1139.37,298.361 "/>
<polyline clip-path="url(#clip892)" style="stroke:#787878; stroke-linecap:round; stroke-linejoin:round; stroke-width:4; stroke-opacity:0.1; fill:none" points="202.046,1051.71 1139.37,1051.71 "/>
<polyline clip-path="url(#clip892)" style="stroke:#787878; stroke-linecap:round; stroke-linejoin:round; stroke-width:4; stroke-opacity:0.1; fill:none" points="202.046,800.594 1139.37,800.594 "/>
<polyline clip-path="url(#clip892)" style="stroke:#787878; stroke-linecap:round; stroke-linejoin:round; stroke-width:4; stroke-opacity:0.1; fill:none" points="202.046,549.477 1139.37,549.477 "/>
<polyline clip-path="url(#clip892)" style="stroke:#787878; stroke-linecap:round; stroke-linejoin:round; stroke-width:4; stroke-opacity:0.1; fill:none" points="202.046,298.361 1139.37,298.361 "/>
<polyline clip-path="url(#clip890)" style="stroke:#000000; stroke-linecap:round; stroke-linejoin:round; stroke-width:4; stroke-opacity:1; fill:none" points="202.046,1051.71 1139.37,1051.71 "/>
<polyline clip-path="url(#clip890)" style="stroke:#000000; stroke-linecap:round; stroke-linejoin:round; stroke-width:4; stroke-opacity:1; fill:none" points="202.046,47.2441 1139.37,47.2441 "/>
<polyline clip-path="url(#clip890)" style="stroke:#000000; stroke-linecap:round; stroke-linejoin:round; stroke-width:4; stroke-opacity:1; fill:none" points="202.046,1051.71 202.046,1032.81 "/>
<polyline clip-path="url(#clip890)" style="stroke:#000000; stroke-linecap:round; stroke-linejoin:round; stroke-width:4; stroke-opacity:1; fill:none" points="389.512,1051.71 389.512,1032.81 "/>
<polyline clip-path="url(#clip890)" style="stroke:#000000; stroke-linecap:round; stroke-linejoin:round; stroke-width:4; stroke-opacity:1; fill:none" points="576.977,1051.71 576.977,1032.81 "/>
<polyline clip-path="url(#clip890)" style="stroke:#000000; stroke-linecap:round; stroke-linejoin:round; stroke-width:4; stroke-opacity:1; fill:none" points="764.443,1051.71 764.443,1032.81 "/>
<polyline clip-path="url(#clip890)" style="stroke:#000000; stroke-linecap:round; stroke-linejoin:round; stroke-width:4; stroke-opacity:1; fill:none" points="951.909,1051.71 951.909,1032.81 "/>
<polyline clip-path="url(#clip890)" style="stroke:#000000; stroke-linecap:round; stroke-linejoin:round; stroke-width:4; stroke-opacity:1; fill:none" points="1139.37,1051.71 1139.37,1032.81 "/>
<polyline clip-path="url(#clip890)" style="stroke:#000000; stroke-linecap:round; stroke-linejoin:round; stroke-width:4; stroke-opacity:1; fill:none" points="202.046,47.2441 202.046,66.1417 "/>
<polyline clip-path="url(#clip890)" style="stroke:#000000; stroke-linecap:round; stroke-linejoin:round; stroke-width:4; stroke-opacity:1; fill:none" points="389.512,47.2441 389.512,66.1417 "/>
<polyline clip-path="url(#clip890)" style="stroke:#000000; stroke-linecap:round; stroke-linejoin:round; stroke-width:4; stroke-opacity:1; fill:none" points="576.977,47.2441 576.977,66.1417 "/>
<polyline clip-path="url(#clip890)" style="stroke:#000000; stroke-linecap:round; stroke-linejoin:round; stroke-width:4; stroke-opacity:1; fill:none" points="764.443,47.2441 764.443,66.1417 "/>
<polyline clip-path="url(#clip890)" style="stroke:#000000; stroke-linecap:round; stroke-linejoin:round; stroke-width:4; stroke-opacity:1; fill:none" points="951.909,47.2441 951.909,66.1417 "/>
<polyline clip-path="url(#clip890)" style="stroke:#000000; stroke-linecap:round; stroke-linejoin:round; stroke-width:4; stroke-opacity:1; fill:none" points="1139.37,47.2441 1139.37,66.1417 "/>
<g clip-path="url(#clip890)">
<text style="fill:#000000; fill-opacity:1; font-family:Arial,Helvetica Neue,Helvetica,sans-serif; font-size:48px; text-anchor:middle;" transform="rotate(0, 202.046, 1113.56)" x="202.046" y="1113.56">0</text>
</g>
<g clip-path="url(#clip890)">
<text style="fill:#000000; fill-opacity:1; font-family:Arial,Helvetica Neue,Helvetica,sans-serif; font-size:48px; text-anchor:middle;" transform="rotate(0, 389.512, 1113.56)" x="389.512" y="1113.56">5</text>
</g>
<g clip-path="url(#clip890)">
<text style="fill:#000000; fill-opacity:1; font-family:Arial,Helvetica Neue,Helvetica,sans-serif; font-size:48px; text-anchor:middle;" transform="rotate(0, 576.977, 1113.56)" x="576.977" y="1113.56">10</text>
</g>
<g clip-path="url(#clip890)">
<text style="fill:#000000; fill-opacity:1; font-family:Arial,Helvetica Neue,Helvetica,sans-serif; font-size:48px; text-anchor:middle;" transform="rotate(0, 764.443, 1113.56)" x="764.443" y="1113.56">15</text>
</g>
<g clip-path="url(#clip890)">
<text style="fill:#000000; fill-opacity:1; font-family:Arial,Helvetica Neue,Helvetica,sans-serif; font-size:48px; text-anchor:middle;" transform="rotate(0, 951.909, 1113.56)" x="951.909" y="1113.56">20</text>
</g>
<g clip-path="url(#clip890)">
<text style="fill:#000000; fill-opacity:1; font-family:Arial,Helvetica Neue,Helvetica,sans-serif; font-size:48px; text-anchor:middle;" transform="rotate(0, 1139.37, 1113.56)" x="1139.37" y="1113.56">25</text>
</g>
<path clip-path="url(#clip890)" d="M624.067 1148.24 L624.067 1157.44 L635.033 1157.44 L635.033 1161.58 L624.067 1161.58 L624.067 1179.17 Q624.067 1183.14 625.138 1184.27 Q626.237 1185.39 629.565 1185.39 L635.033 1185.39 L635.033 1189.85 L629.565 1189.85 Q623.402 1189.85 621.058 1187.56 Q618.714 1185.25 618.714 1179.17 L618.714 1161.58 L614.808 1161.58 L614.808 1157.44 L618.714 1157.44 L618.714 1148.24 L624.067 1148.24 Z" fill="#000000" fill-rule="nonzero" fill-opacity="1" /><path clip-path="url(#clip890)" d="M670.334 1146.65 L675.253 1146.65 L660.207 1195.35 L655.288 1195.35 L670.334 1146.65 Z" fill="#000000" fill-rule="nonzero" fill-opacity="1" /><path clip-path="url(#clip890)" d="M726.613 1170.29 L726.613 1189.85 L721.289 1189.85 L721.289 1170.46 Q721.289 1165.86 719.495 1163.58 Q717.701 1161.29 714.113 1161.29 Q709.802 1161.29 707.313 1164.04 Q704.825 1166.79 704.825 1171.53 L704.825 1189.85 L699.472 1189.85 L699.472 1144.83 L704.825 1144.83 L704.825 1162.48 Q706.734 1159.55 709.31 1158.11 Q711.914 1156.66 715.299 1156.66 Q720.884 1156.66 723.748 1160.13 Q726.613 1163.58 726.613 1170.29 Z" fill="#000000" fill-rule="nonzero" fill-opacity="1" /><polyline clip-path="url(#clip890)" style="stroke:#000000; stroke-linecap:round; stroke-linejoin:round; stroke-width:4; stroke-opacity:1; fill:none" points="202.046,1051.71 202.046,47.2441 "/>
<polyline clip-path="url(#clip890)" style="stroke:#000000; stroke-linecap:round; stroke-linejoin:round; stroke-width:4; stroke-opacity:1; fill:none" points="1139.37,1051.71 1139.37,47.2441 "/>
<polyline clip-path="url(#clip890)" style="stroke:#000000; stroke-linecap:round; stroke-linejoin:round; stroke-width:4; stroke-opacity:1; fill:none" points="202.046,1051.71 220.944,1051.71 "/>
<polyline clip-path="url(#clip890)" style="stroke:#000000; stroke-linecap:round; stroke-linejoin:round; stroke-width:4; stroke-opacity:1; fill:none" points="202.046,800.594 220.944,800.594 "/>
<polyline clip-path="url(#clip890)" style="stroke:#000000; stroke-linecap:round; stroke-linejoin:round; stroke-width:4; stroke-opacity:1; fill:none" points="202.046,549.477 220.944,549.477 "/>
<polyline clip-path="url(#clip890)" style="stroke:#000000; stroke-linecap:round; stroke-linejoin:round; stroke-width:4; stroke-opacity:1; fill:none" points="202.046,298.361 220.944,298.361 "/>
<polyline clip-path="url(#clip890)" style="stroke:#000000; stroke-linecap:round; stroke-linejoin:round; stroke-width:4; stroke-opacity:1; fill:none" points="1139.37,1051.71 1120.48,1051.71 "/>
<polyline clip-path="url(#clip890)" style="stroke:#000000; stroke-linecap:round; stroke-linejoin:round; stroke-width:4; stroke-opacity:1; fill:none" points="1139.37,800.594 1120.48,800.594 "/>
<polyline clip-path="url(#clip890)" style="stroke:#000000; stroke-linecap:round; stroke-linejoin:round; stroke-width:4; stroke-opacity:1; fill:none" points="1139.37,549.477 1120.48,549.477 "/>
<polyline clip-path="url(#clip890)" style="stroke:#000000; stroke-linecap:round; stroke-linejoin:round; stroke-width:4; stroke-opacity:1; fill:none" points="1139.37,298.361 1120.48,298.361 "/>
<g clip-path="url(#clip890)">
<text style="fill:#000000; fill-opacity:1; font-family:Arial,Helvetica Neue,Helvetica,sans-serif; font-size:48px; text-anchor:middle;" transform="rotate(0, 132.593, 1069.21)" x="132.593" y="1069.21">2.0</text>
</g>
<g clip-path="url(#clip890)">
<text style="fill:#000000; fill-opacity:1; font-family:Arial,Helvetica Neue,Helvetica,sans-serif; font-size:48px; text-anchor:middle;" transform="rotate(0, 132.593, 818.094)" x="132.593" y="818.094">2.5</text>
</g>
<g clip-path="url(#clip890)">
<text style="fill:#000000; fill-opacity:1; font-family:Arial,Helvetica Neue,Helvetica,sans-serif; font-size:48px; text-anchor:middle;" transform="rotate(0, 132.593, 566.977)" x="132.593" y="566.977">3.0</text>
</g>
<g clip-path="url(#clip890)">
<text style="fill:#000000; fill-opacity:1; font-family:Arial,Helvetica Neue,Helvetica,sans-serif; font-size:48px; text-anchor:middle;" transform="rotate(0, 132.593, 315.861)" x="132.593" y="315.861">3.5</text>
</g>
<path clip-path="url(#clip890)" d="M10.9443 712.757 Q10.9443 719.123 15.6896 722.885 Q20.4349 726.617 28.6236 726.617 Q36.7832 726.617 41.5286 722.885 Q46.2739 719.123 46.2739 712.757 Q46.2739 706.392 41.5286 702.688 Q36.7832 698.955 28.6236 698.955 Q20.4349 698.955 15.6896 702.688 Q10.9443 706.392 10.9443 712.757 M6.19891 712.757 Q6.19891 703.672 12.3042 698.232 Q18.3806 692.792 28.6236 692.792 Q38.8376 692.792 44.9429 698.232 Q51.0193 703.672 51.0193 712.757 Q51.0193 721.872 44.9429 727.341 Q38.8666 732.78 28.6236 732.78 Q18.3806 732.78 12.3042 727.341 Q6.19891 721.872 6.19891 712.757 Z" fill="#000000" fill-rule="nonzero" fill-opacity="1" /><path clip-path="url(#clip890)" d="M37.3909 684.43 L17.7729 684.43 L17.7729 679.106 L37.1883 679.106 Q41.789 679.106 44.1038 677.312 Q46.3897 675.518 46.3897 671.93 Q46.3897 667.619 43.6408 665.13 Q40.892 662.613 36.1467 662.613 L17.7729 662.613 L17.7729 657.289 L50.1802 657.289 L50.1802 662.613 L45.2033 662.613 Q48.1547 664.552 49.6015 667.127 Q51.0193 669.673 51.0193 673.059 Q51.0193 678.643 47.5471 681.537 Q44.0749 684.43 37.3909 684.43 M16.9917 671.033 L16.9917 671.033 Z" fill="#000000" fill-rule="nonzero" fill-opacity="1" /><path clip-path="url(#clip890)" d="M8.57158 641.056 L17.7729 641.056 L17.7729 630.09 L21.9106 630.09 L21.9106 641.056 L39.5031 641.056 Q43.4672 641.056 44.5957 639.986 Q45.7242 638.886 45.7242 635.559 L45.7242 630.09 L50.1802 630.09 L50.1802 635.559 Q50.1802 641.722 47.8943 644.066 Q45.5795 646.409 39.5031 646.409 L21.9106 646.409 L21.9106 650.316 L17.7729 650.316 L17.7729 646.409 L8.57158 646.409 L8.57158 641.056 Z" fill="#000000" fill-rule="nonzero" fill-opacity="1" /><path clip-path="url(#clip890)" d="M45.3191 617.937 L62.5065 617.937 L62.5065 623.29 L17.7729 623.29 L17.7729 617.937 L22.6919 617.937 Q19.7984 616.259 18.4095 613.713 Q16.9917 611.138 16.9917 607.579 Q16.9917 601.676 21.6792 598.001 Q26.3666 594.297 34.0055 594.297 Q41.6443 594.297 46.3318 598.001 Q51.0193 601.676 51.0193 607.579 Q51.0193 611.138 49.6304 613.713 Q48.2126 616.259 45.3191 617.937 M34.0055 599.824 Q28.1317 599.824 24.8041 602.255 Q21.4477 604.656 21.4477 608.881 Q21.4477 613.105 24.8041 615.536 Q28.1317 617.937 34.0055 617.937 Q39.8793 617.937 43.2358 615.536 Q46.5633 613.105 46.5633 608.881 Q46.5633 604.656 43.2358 602.255 Q39.8793 599.824 34.0055 599.824 Z" fill="#000000" fill-rule="nonzero" fill-opacity="1" /><path clip-path="url(#clip890)" d="M37.3909 586.022 L17.7729 586.022 L17.7729 580.698 L37.1883 580.698 Q41.789 580.698 44.1038 578.904 Q46.3897 577.11 46.3897 573.522 Q46.3897 569.211 43.6408 566.722 Q40.892 564.205 36.1467 564.205 L17.7729 564.205 L17.7729 558.881 L50.1802 558.881 L50.1802 564.205 L45.2033 564.205 Q48.1547 566.144 49.6015 568.719 Q51.0193 571.265 51.0193 574.651 Q51.0193 580.235 47.5471 583.128 Q44.0749 586.022 37.3909 586.022 M16.9917 572.625 L16.9917 572.625 Z" fill="#000000" fill-rule="nonzero" fill-opacity="1" /><path clip-path="url(#clip890)" d="M8.57158 542.648 L17.7729 542.648 L17.7729 531.682 L21.9106 531.682 L21.9106 542.648 L39.5031 542.648 Q43.4672 542.648 44.5957 541.578 Q45.7242 540.478 45.7242 537.151 L45.7242 531.682 L50.1802 531.682 L50.1802 537.151 Q50.1802 543.314 47.8943 545.658 Q45.5795 548.001 39.5031 548.001 L21.9106 548.001 L21.9106 551.908 L17.7729 551.908 L17.7729 548.001 L8.57158 548.001 L8.57158 542.648 Z" fill="#000000" fill-rule="nonzero" fill-opacity="1" /><path clip-path="url(#clip890)" d="M6.98016 496.381 L6.98016 491.462 L55.6778 506.509 L55.6778 511.427 L6.98016 496.381 Z" fill="#000000" fill-rule="nonzero" fill-opacity="1" /><path clip-path="url(#clip890)" d="M45.3191 461.891 L62.5065 461.891 L62.5065 467.244 L17.7729 467.244 L17.7729 461.891 L22.6919 461.891 Q19.7984 460.212 18.4095 457.666 Q16.9917 455.091 16.9917 451.532 Q16.9917 445.629 21.6792 441.954 Q26.3666 438.251 34.0055 438.251 Q41.6443 438.251 46.3318 441.954 Q51.0193 445.629 51.0193 451.532 Q51.0193 455.091 49.6304 457.666 Q48.2126 460.212 45.3191 461.891 M34.0055 443.777 Q28.1317 443.777 24.8041 446.208 Q21.4477 448.61 21.4477 452.834 Q21.4477 457.059 24.8041 459.489 Q28.1317 461.891 34.0055 461.891 Q39.8793 461.891 43.2358 459.489 Q46.5633 457.059 46.5633 452.834 Q46.5633 448.61 43.2358 446.208 Q39.8793 443.777 34.0055 443.777 Z" fill="#000000" fill-rule="nonzero" fill-opacity="1" /><path clip-path="url(#clip890)" d="M42.8307 428.673 L42.8307 422.568 L50.1802 422.568 L50.1802 428.673 L42.8307 428.673 Z" fill="#000000" fill-rule="nonzero" fill-opacity="1" /><path clip-path="url(#clip890)" d="M37.3909 411.139 L17.7729 411.139 L17.7729 405.815 L37.1883 405.815 Q41.789 405.815 44.1038 404.021 Q46.3897 402.227 46.3897 398.639 Q46.3897 394.327 43.6408 391.839 Q40.892 389.322 36.1467 389.322 L17.7729 389.322 L17.7729 383.998 L50.1802 383.998 L50.1802 389.322 L45.2033 389.322 Q48.1547 391.26 49.6015 393.836 Q51.0193 396.382 51.0193 399.767 Q51.0193 405.352 47.5471 408.245 Q44.0749 411.139 37.3909 411.139 M16.9917 397.742 L16.9917 397.742 Z" fill="#000000" fill-rule="nonzero" fill-opacity="1" /><path clip-path="url(#clip890)" d="M42.8307 372.279 L42.8307 366.174 L50.1802 366.174 L50.1802 372.279 L42.8307 372.279 Z" fill="#000000" fill-rule="nonzero" fill-opacity="1" /><path clip-path="url(#clip892)" d="M223.605 955.331 L223.605 2056.18 L255.474 2056.18 L255.474 955.331 L223.605 955.331 L223.605 955.331  Z" fill="#1a80bb" fill-rule="evenodd" fill-opacity="1"/>
<polyline clip-path="url(#clip892)" style="stroke:#787878; stroke-linecap:round; stroke-linejoin:round; stroke-width:0; stroke-opacity:0.75; fill:none" points="223.605,955.331 223.605,2056.18 255.474,2056.18 255.474,955.331 223.605,955.331 "/>
<path clip-path="url(#clip892)" d="M261.098 874.171 L261.098 2056.18 L292.967 2056.18 L292.967 874.171 L261.098 874.171 L261.098 874.171  Z" fill="#1a80bb" fill-rule="evenodd" fill-opacity="1"/>
<polyline clip-path="url(#clip892)" style="stroke:#787878; stroke-linecap:round; stroke-linejoin:round; stroke-width:0; stroke-opacity:0.75; fill:none" points="261.098,874.171 261.098,2056.18 292.967,2056.18 292.967,874.171 261.098,874.171 "/>
<path clip-path="url(#clip892)" d="M298.591 877.586 L298.591 2056.18 L330.46 2056.18 L330.46 877.586 L298.591 877.586 L298.591 877.586  Z" fill="#1a80bb" fill-rule="evenodd" fill-opacity="1"/>
<polyline clip-path="url(#clip892)" style="stroke:#787878; stroke-linecap:round; stroke-linejoin:round; stroke-width:0; stroke-opacity:0.75; fill:none" points="298.591,877.586 298.591,2056.18 330.46,2056.18 330.46,877.586 298.591,877.586 "/>
<path clip-path="url(#clip892)" d="M336.084 867.24 L336.084 2056.18 L367.953 2056.18 L367.953 867.24 L336.084 867.24 L336.084 867.24  Z" fill="#1a80bb" fill-rule="evenodd" fill-opacity="1"/>
<polyline clip-path="url(#clip892)" style="stroke:#787878; stroke-linecap:round; stroke-linejoin:round; stroke-width:0; stroke-opacity:0.75; fill:none" points="336.084,867.24 336.084,2056.18 367.953,2056.18 367.953,867.24 336.084,867.24 "/>
<path clip-path="url(#clip892)" d="M373.577 855.538 L373.577 2056.18 L405.446 2056.18 L405.446 855.538 L373.577 855.538 L373.577 855.538  Z" fill="#1a80bb" fill-rule="evenodd" fill-opacity="1"/>
<polyline clip-path="url(#clip892)" style="stroke:#787878; stroke-linecap:round; stroke-linejoin:round; stroke-width:0; stroke-opacity:0.75; fill:none" points="373.577,855.538 373.577,2056.18 405.446,2056.18 405.446,855.538 373.577,855.538 "/>
<path clip-path="url(#clip892)" d="M411.07 828.317 L411.07 2056.18 L442.939 2056.18 L442.939 828.317 L411.07 828.317 L411.07 828.317  Z" fill="#1a80bb" fill-rule="evenodd" fill-opacity="1"/>
<polyline clip-path="url(#clip892)" style="stroke:#787878; stroke-linecap:round; stroke-linejoin:round; stroke-width:0; stroke-opacity:0.75; fill:none" points="411.07,828.317 411.07,2056.18 442.939,2056.18 442.939,828.317 411.07,828.317 "/>
<path clip-path="url(#clip892)" d="M448.563 683.121 L448.563 2056.18 L480.433 2056.18 L480.433 683.121 L448.563 683.121 L448.563 683.121  Z" fill="#1a80bb" fill-rule="evenodd" fill-opacity="1"/>
<polyline clip-path="url(#clip892)" style="stroke:#787878; stroke-linecap:round; stroke-linejoin:round; stroke-width:0; stroke-opacity:0.75; fill:none" points="448.563,683.121 448.563,2056.18 480.433,2056.18 480.433,683.121 448.563,683.121 "/>
<path clip-path="url(#clip892)" d="M486.057 597.691 L486.057 2056.18 L517.926 2056.18 L517.926 597.691 L486.057 597.691 L486.057 597.691  Z" fill="#1a80bb" fill-rule="evenodd" fill-opacity="1"/>
<polyline clip-path="url(#clip892)" style="stroke:#787878; stroke-linecap:round; stroke-linejoin:round; stroke-width:0; stroke-opacity:0.75; fill:none" points="486.057,597.691 486.057,2056.18 517.926,2056.18 517.926,597.691 486.057,597.691 "/>
<path clip-path="url(#clip892)" d="M523.55 632.044 L523.55 2056.18 L555.419 2056.18 L555.419 632.044 L523.55 632.044 L523.55 632.044  Z" fill="#1a80bb" fill-rule="evenodd" fill-opacity="1"/>
<polyline clip-path="url(#clip892)" style="stroke:#787878; stroke-linecap:round; stroke-linejoin:round; stroke-width:0; stroke-opacity:0.75; fill:none" points="523.55,632.044 523.55,2056.18 555.419,2056.18 555.419,632.044 523.55,632.044 "/>
<path clip-path="url(#clip892)" d="M561.043 643.897 L561.043 2056.18 L592.912 2056.18 L592.912 643.897 L561.043 643.897 L561.043 643.897  Z" fill="#1a80bb" fill-rule="evenodd" fill-opacity="1"/>
<polyline clip-path="url(#clip892)" style="stroke:#787878; stroke-linecap:round; stroke-linejoin:round; stroke-width:0; stroke-opacity:0.75; fill:none" points="561.043,643.897 561.043,2056.18 592.912,2056.18 592.912,643.897 561.043,643.897 "/>
<path clip-path="url(#clip892)" d="M598.536 405.788 L598.536 2056.18 L630.405 2056.18 L630.405 405.788 L598.536 405.788 L598.536 405.788  Z" fill="#1a80bb" fill-rule="evenodd" fill-opacity="1"/>
<polyline clip-path="url(#clip892)" style="stroke:#787878; stroke-linecap:round; stroke-linejoin:round; stroke-width:0; stroke-opacity:0.75; fill:none" points="598.536,405.788 598.536,2056.18 630.405,2056.18 630.405,405.788 598.536,405.788 "/>
<path clip-path="url(#clip892)" d="M636.029 408.35 L636.029 2056.18 L667.898 2056.18 L667.898 408.35 L636.029 408.35 L636.029 408.35  Z" fill="#1a80bb" fill-rule="evenodd" fill-opacity="1"/>
<polyline clip-path="url(#clip892)" style="stroke:#787878; stroke-linecap:round; stroke-linejoin:round; stroke-width:0; stroke-opacity:0.75; fill:none" points="636.029,408.35 636.029,2056.18 667.898,2056.18 667.898,408.35 636.029,408.35 "/>
<path clip-path="url(#clip892)" d="M673.522 417.992 L673.522 2056.18 L705.392 2056.18 L705.392 417.992 L673.522 417.992 L673.522 417.992  Z" fill="#1a80bb" fill-rule="evenodd" fill-opacity="1"/>
<polyline clip-path="url(#clip892)" style="stroke:#787878; stroke-linecap:round; stroke-linejoin:round; stroke-width:0; stroke-opacity:0.75; fill:none" points="673.522,417.992 673.522,2056.18 705.392,2056.18 705.392,417.992 673.522,417.992 "/>
<path clip-path="url(#clip892)" d="M711.016 430.95 L711.016 2056.18 L742.885 2056.18 L742.885 430.95 L711.016 430.95 L711.016 430.95  Z" fill="#1a80bb" fill-rule="evenodd" fill-opacity="1"/>
<polyline clip-path="url(#clip892)" style="stroke:#787878; stroke-linecap:round; stroke-linejoin:round; stroke-width:0; stroke-opacity:0.75; fill:none" points="711.016,430.95 711.016,2056.18 742.885,2056.18 742.885,430.95 711.016,430.95 "/>
<path clip-path="url(#clip892)" d="M748.509 414.577 L748.509 2056.18 L780.378 2056.18 L780.378 414.577 L748.509 414.577 L748.509 414.577  Z" fill="#1a80bb" fill-rule="evenodd" fill-opacity="1"/>
<polyline clip-path="url(#clip892)" style="stroke:#787878; stroke-linecap:round; stroke-linejoin:round; stroke-width:0; stroke-opacity:0.75; fill:none" points="748.509,414.577 748.509,2056.18 780.378,2056.18 780.378,414.577 748.509,414.577 "/>
<path clip-path="url(#clip892)" d="M786.002 610.8 L786.002 2056.18 L817.871 2056.18 L817.871 610.8 L786.002 610.8 L786.002 610.8  Z" fill="#1a80bb" fill-rule="evenodd" fill-opacity="1"/>
<polyline clip-path="url(#clip892)" style="stroke:#787878; stroke-linecap:round; stroke-linejoin:round; stroke-width:0; stroke-opacity:0.75; fill:none" points="786.002,610.8 786.002,2056.18 817.871,2056.18 817.871,610.8 786.002,610.8 "/>
<path clip-path="url(#clip892)" d="M823.495 750.37 L823.495 2056.18 L855.364 2056.18 L855.364 750.37 L823.495 750.37 L823.495 750.37  Z" fill="#1a80bb" fill-rule="evenodd" fill-opacity="1"/>
<polyline clip-path="url(#clip892)" style="stroke:#787878; stroke-linecap:round; stroke-linejoin:round; stroke-width:0; stroke-opacity:0.75; fill:none" points="823.495,750.37 823.495,2056.18 855.364,2056.18 855.364,750.37 823.495,750.37 "/>
<path clip-path="url(#clip892)" d="M860.988 816.966 L860.988 2056.18 L892.857 2056.18 L892.857 816.966 L860.988 816.966 L860.988 816.966  Z" fill="#1a80bb" fill-rule="evenodd" fill-opacity="1"/>
<polyline clip-path="url(#clip892)" style="stroke:#787878; stroke-linecap:round; stroke-linejoin:round; stroke-width:0; stroke-opacity:0.75; fill:none" points="860.988,816.966 860.988,2056.18 892.857,2056.18 892.857,816.966 860.988,816.966 "/>
<path clip-path="url(#clip892)" d="M898.481 770.61 L898.481 2056.18 L930.35 2056.18 L930.35 770.61 L898.481 770.61 L898.481 770.61  Z" fill="#1a80bb" fill-rule="evenodd" fill-opacity="1"/>
<polyline clip-path="url(#clip892)" style="stroke:#787878; stroke-linecap:round; stroke-linejoin:round; stroke-width:0; stroke-opacity:0.75; fill:none" points="898.481,770.61 898.481,2056.18 930.35,2056.18 930.35,770.61 898.481,770.61 "/>
<path clip-path="url(#clip892)" d="M935.974 864.126 L935.974 2056.18 L967.844 2056.18 L967.844 864.126 L935.974 864.126 L935.974 864.126  Z" fill="#1a80bb" fill-rule="evenodd" fill-opacity="1"/>
<polyline clip-path="url(#clip892)" style="stroke:#787878; stroke-linecap:round; stroke-linejoin:round; stroke-width:0; stroke-opacity:0.75; fill:none" points="935.974,864.126 935.974,2056.18 967.844,2056.18 967.844,864.126 935.974,864.126 "/>
<path clip-path="url(#clip892)" d="M973.468 834.193 L973.468 2056.18 L1005.34 2056.18 L1005.34 834.193 L973.468 834.193 L973.468 834.193  Z" fill="#1a80bb" fill-rule="evenodd" fill-opacity="1"/>
<polyline clip-path="url(#clip892)" style="stroke:#787878; stroke-linecap:round; stroke-linejoin:round; stroke-width:0; stroke-opacity:0.75; fill:none" points="973.468,834.193 973.468,2056.18 1005.34,2056.18 1005.34,834.193 973.468,834.193 "/>
<path clip-path="url(#clip892)" d="M1010.96 634.154 L1010.96 2056.18 L1042.83 2056.18 L1042.83 634.154 L1010.96 634.154 L1010.96 634.154  Z" fill="#1a80bb" fill-rule="evenodd" fill-opacity="1"/>
<polyline clip-path="url(#clip892)" style="stroke:#787878; stroke-linecap:round; stroke-linejoin:round; stroke-width:0; stroke-opacity:0.75; fill:none" points="1010.96,634.154 1010.96,2056.18 1042.83,2056.18 1042.83,634.154 1010.96,634.154 "/>
<path clip-path="url(#clip892)" d="M1048.45 634.606 L1048.45 2056.18 L1080.32 2056.18 L1080.32 634.606 L1048.45 634.606 L1048.45 634.606  Z" fill="#1a80bb" fill-rule="evenodd" fill-opacity="1"/>
<polyline clip-path="url(#clip892)" style="stroke:#787878; stroke-linecap:round; stroke-linejoin:round; stroke-width:0; stroke-opacity:0.75; fill:none" points="1048.45,634.606 1048.45,2056.18 1080.32,2056.18 1080.32,634.606 1048.45,634.606 "/>
<path clip-path="url(#clip892)" d="M1085.95 806.871 L1085.95 2056.18 L1117.82 2056.18 L1117.82 806.871 L1085.95 806.871 L1085.95 806.871  Z" fill="#1a80bb" fill-rule="evenodd" fill-opacity="1"/>
<polyline clip-path="url(#clip892)" style="stroke:#787878; stroke-linecap:round; stroke-linejoin:round; stroke-width:0; stroke-opacity:0.75; fill:none" points="1085.95,806.871 1085.95,2056.18 1117.82,2056.18 1117.82,806.871 1085.95,806.871 "/>
<circle clip-path="url(#clip892)" style="fill:#009af9; stroke:none; fill-opacity:0" cx="239.539" cy="955.331" r="2"/>
<circle clip-path="url(#clip892)" style="fill:#009af9; stroke:none; fill-opacity:0" cx="277.032" cy="874.171" r="2"/>
<circle clip-path="url(#clip892)" style="fill:#009af9; stroke:none; fill-opacity:0" cx="314.525" cy="877.586" r="2"/>
<circle clip-path="url(#clip892)" style="fill:#009af9; stroke:none; fill-opacity:0" cx="352.019" cy="867.24" r="2"/>
<circle clip-path="url(#clip892)" style="fill:#009af9; stroke:none; fill-opacity:0" cx="389.512" cy="855.538" r="2"/>
<circle clip-path="url(#clip892)" style="fill:#009af9; stroke:none; fill-opacity:0" cx="427.005" cy="828.317" r="2"/>
<circle clip-path="url(#clip892)" style="fill:#009af9; stroke:none; fill-opacity:0" cx="464.498" cy="683.121" r="2"/>
<circle clip-path="url(#clip892)" style="fill:#009af9; stroke:none; fill-opacity:0" cx="501.991" cy="597.691" r="2"/>
<circle clip-path="url(#clip892)" style="fill:#009af9; stroke:none; fill-opacity:0" cx="539.484" cy="632.044" r="2"/>
<circle clip-path="url(#clip892)" style="fill:#009af9; stroke:none; fill-opacity:0" cx="576.977" cy="643.897" r="2"/>
<circle clip-path="url(#clip892)" style="fill:#009af9; stroke:none; fill-opacity:0" cx="614.471" cy="405.788" r="2"/>
<circle clip-path="url(#clip892)" style="fill:#009af9; stroke:none; fill-opacity:0" cx="651.964" cy="408.35" r="2"/>
<circle clip-path="url(#clip892)" style="fill:#009af9; stroke:none; fill-opacity:0" cx="689.457" cy="417.992" r="2"/>
<circle clip-path="url(#clip892)" style="fill:#009af9; stroke:none; fill-opacity:0" cx="726.95" cy="430.95" r="2"/>
<circle clip-path="url(#clip892)" style="fill:#009af9; stroke:none; fill-opacity:0" cx="764.443" cy="414.577" r="2"/>
<circle clip-path="url(#clip892)" style="fill:#009af9; stroke:none; fill-opacity:0" cx="801.936" cy="610.8" r="2"/>
<circle clip-path="url(#clip892)" style="fill:#009af9; stroke:none; fill-opacity:0" cx="839.43" cy="750.37" r="2"/>
<circle clip-path="url(#clip892)" style="fill:#009af9; stroke:none; fill-opacity:0" cx="876.923" cy="816.966" r="2"/>
<circle clip-path="url(#clip892)" style="fill:#009af9; stroke:none; fill-opacity:0" cx="914.416" cy="770.61" r="2"/>
<circle clip-path="url(#clip892)" style="fill:#009af9; stroke:none; fill-opacity:0" cx="951.909" cy="864.126" r="2"/>
<circle clip-path="url(#clip892)" style="fill:#009af9; stroke:none; fill-opacity:0" cx="989.402" cy="834.193" r="2"/>
<circle clip-path="url(#clip892)" style="fill:#009af9; stroke:none; fill-opacity:0" cx="1026.9" cy="634.154" r="2"/>
<circle clip-path="url(#clip892)" style="fill:#009af9; stroke:none; fill-opacity:0" cx="1064.39" cy="634.606" r="2"/>
<circle clip-path="url(#clip892)" style="fill:#009af9; stroke:none; fill-opacity:0" cx="1101.88" cy="806.871" r="2"/>
<path clip-path="url(#clip890)" d="M749.566 181.326 L1108.13 181.326 L1108.13 80.7263 L749.566 80.7263  Z" fill="#ffffff" fill-rule="evenodd" fill-opacity="1"/>
<polyline clip-path="url(#clip890)" style="stroke:#000000; stroke-linecap:round; stroke-linejoin:round; stroke-width:4; stroke-opacity:0; fill:none" points="749.566,181.326 1108.13,181.326 1108.13,80.7263 749.566,80.7263 749.566,181.326 "/>
<path clip-path="url(#clip890)" d="M759.981 151.146 L822.469 151.146 L822.469 110.906 L759.981 110.906 L759.981 151.146  Z" fill="#1a80bb" fill-rule="evenodd" fill-opacity="1"/>
<polyline clip-path="url(#clip890)" style="stroke:#787878; stroke-linecap:round; stroke-linejoin:round; stroke-width:0.8; stroke-opacity:1; fill:none" points="759.981,151.146 822.469,151.146 822.469,110.906 759.981,110.906 759.981,151.146 "/>
<g clip-path="url(#clip890)">
<text style="fill:#000000; fill-opacity:1; font-family:Arial,Helvetica Neue,Helvetica,sans-serif; font-size:48px; text-anchor:start;" transform="rotate(0, 832.884, 148.526)" x="832.884" y="148.526">System load</text>
</g>
<path clip-path="url(#clip890)" d="M1415.43 1051.71 L2352.76 1051.71 L2352.76 47.2441 L1415.43 47.2441  Z" fill="#ffffff" fill-rule="evenodd" fill-opacity="1"/>
<defs>
  <clipPath id="clip893">
    <rect x="1415" y="47" width="938" height="1005"/>
  </clipPath>
</defs>
<polyline clip-path="url(#clip893)" style="stroke:#808080; stroke-linecap:round; stroke-linejoin:round; stroke-width:4; stroke-opacity:0.1; fill:none" points="1403.51,1051.71 1403.51,47.2441 "/>
<polyline clip-path="url(#clip893)" style="stroke:#808080; stroke-linecap:round; stroke-linejoin:round; stroke-width:4; stroke-opacity:0.1; fill:none" points="1595.74,1051.71 1595.74,47.2441 "/>
<polyline clip-path="url(#clip893)" style="stroke:#808080; stroke-linecap:round; stroke-linejoin:round; stroke-width:4; stroke-opacity:0.1; fill:none" points="1787.97,1051.71 1787.97,47.2441 "/>
<polyline clip-path="url(#clip893)" style="stroke:#808080; stroke-linecap:round; stroke-linejoin:round; stroke-width:4; stroke-opacity:0.1; fill:none" points="1980.21,1051.71 1980.21,47.2441 "/>
<polyline clip-path="url(#clip893)" style="stroke:#808080; stroke-linecap:round; stroke-linejoin:round; stroke-width:4; stroke-opacity:0.1; fill:none" points="2172.44,1051.71 2172.44,47.2441 "/>
<polyline clip-path="url(#clip893)" style="stroke:#808080; stroke-linecap:round; stroke-linejoin:round; stroke-width:4; stroke-opacity:0.1; fill:none" points="2364.67,1051.71 2364.67,47.2441 "/>
<polyline clip-path="url(#clip893)" style="stroke:#808080; stroke-linecap:round; stroke-linejoin:round; stroke-width:4; stroke-opacity:0.1; fill:none" points="1403.51,1051.71 1403.51,47.2441 "/>
<polyline clip-path="url(#clip893)" style="stroke:#808080; stroke-linecap:round; stroke-linejoin:round; stroke-width:4; stroke-opacity:0.1; fill:none" points="1595.74,1051.71 1595.74,47.2441 "/>
<polyline clip-path="url(#clip893)" style="stroke:#808080; stroke-linecap:round; stroke-linejoin:round; stroke-width:4; stroke-opacity:0.1; fill:none" points="1787.97,1051.71 1787.97,47.2441 "/>
<polyline clip-path="url(#clip893)" style="stroke:#808080; stroke-linecap:round; stroke-linejoin:round; stroke-width:4; stroke-opacity:0.1; fill:none" points="1980.21,1051.71 1980.21,47.2441 "/>
<polyline clip-path="url(#clip893)" style="stroke:#808080; stroke-linecap:round; stroke-linejoin:round; stroke-width:4; stroke-opacity:0.1; fill:none" points="2172.44,1051.71 2172.44,47.2441 "/>
<polyline clip-path="url(#clip893)" style="stroke:#808080; stroke-linecap:round; stroke-linejoin:round; stroke-width:4; stroke-opacity:0.1; fill:none" points="2364.67,1051.71 2364.67,47.2441 "/>
<polyline clip-path="url(#clip893)" style="stroke:#808080; stroke-linecap:round; stroke-linejoin:round; stroke-width:4; stroke-opacity:0.1; fill:none" points="1415.43,944.089 2352.76,944.089 "/>
<polyline clip-path="url(#clip893)" style="stroke:#808080; stroke-linecap:round; stroke-linejoin:round; stroke-width:4; stroke-opacity:0.1; fill:none" points="1415.43,764.72 2352.76,764.72 "/>
<polyline clip-path="url(#clip893)" style="stroke:#808080; stroke-linecap:round; stroke-linejoin:round; stroke-width:4; stroke-opacity:0.1; fill:none" points="1415.43,585.351 2352.76,585.351 "/>
<polyline clip-path="url(#clip893)" style="stroke:#808080; stroke-linecap:round; stroke-linejoin:round; stroke-width:4; stroke-opacity:0.1; fill:none" points="1415.43,405.982 2352.76,405.982 "/>
<polyline clip-path="url(#clip893)" style="stroke:#808080; stroke-linecap:round; stroke-linejoin:round; stroke-width:4; stroke-opacity:0.1; fill:none" points="1415.43,226.613 2352.76,226.613 "/>
<polyline clip-path="url(#clip893)" style="stroke:#808080; stroke-linecap:round; stroke-linejoin:round; stroke-width:4; stroke-opacity:0.1; fill:none" points="1415.43,944.089 2352.76,944.089 "/>
<polyline clip-path="url(#clip893)" style="stroke:#808080; stroke-linecap:round; stroke-linejoin:round; stroke-width:4; stroke-opacity:0.1; fill:none" points="1415.43,764.72 2352.76,764.72 "/>
<polyline clip-path="url(#clip893)" style="stroke:#808080; stroke-linecap:round; stroke-linejoin:round; stroke-width:4; stroke-opacity:0.1; fill:none" points="1415.43,585.351 2352.76,585.351 "/>
<polyline clip-path="url(#clip893)" style="stroke:#808080; stroke-linecap:round; stroke-linejoin:round; stroke-width:4; stroke-opacity:0.1; fill:none" points="1415.43,405.982 2352.76,405.982 "/>
<polyline clip-path="url(#clip893)" style="stroke:#808080; stroke-linecap:round; stroke-linejoin:round; stroke-width:4; stroke-opacity:0.1; fill:none" points="1415.43,226.613 2352.76,226.613 "/>
<polyline clip-path="url(#clip890)" style="stroke:#000000; stroke-linecap:round; stroke-linejoin:round; stroke-width:4; stroke-opacity:1; fill:none" points="1415.43,1051.71 2352.76,1051.71 "/>
<polyline clip-path="url(#clip890)" style="stroke:#000000; stroke-linecap:round; stroke-linejoin:round; stroke-width:4; stroke-opacity:1; fill:none" points="1415.43,47.2441 2352.76,47.2441 "/>
<polyline clip-path="url(#clip890)" style="stroke:#000000; stroke-linecap:round; stroke-linejoin:round; stroke-width:4; stroke-opacity:1; fill:none" points="1403.51,1051.71 1403.51,1032.81 "/>
<polyline clip-path="url(#clip890)" style="stroke:#000000; stroke-linecap:round; stroke-linejoin:round; stroke-width:4; stroke-opacity:1; fill:none" points="1595.74,1051.71 1595.74,1032.81 "/>
<polyline clip-path="url(#clip890)" style="stroke:#000000; stroke-linecap:round; stroke-linejoin:round; stroke-width:4; stroke-opacity:1; fill:none" points="1787.97,1051.71 1787.97,1032.81 "/>
<polyline clip-path="url(#clip890)" style="stroke:#000000; stroke-linecap:round; stroke-linejoin:round; stroke-width:4; stroke-opacity:1; fill:none" points="1980.21,1051.71 1980.21,1032.81 "/>
<polyline clip-path="url(#clip890)" style="stroke:#000000; stroke-linecap:round; stroke-linejoin:round; stroke-width:4; stroke-opacity:1; fill:none" points="2172.44,1051.71 2172.44,1032.81 "/>
<polyline clip-path="url(#clip890)" style="stroke:#000000; stroke-linecap:round; stroke-linejoin:round; stroke-width:4; stroke-opacity:1; fill:none" points="2364.67,1051.71 2364.67,1032.81 "/>
<polyline clip-path="url(#clip890)" style="stroke:#000000; stroke-linecap:round; stroke-linejoin:round; stroke-width:4; stroke-opacity:1; fill:none" points="1403.51,47.2441 1403.51,66.1417 "/>
<polyline clip-path="url(#clip890)" style="stroke:#000000; stroke-linecap:round; stroke-linejoin:round; stroke-width:4; stroke-opacity:1; fill:none" points="1595.74,47.2441 1595.74,66.1417 "/>
<polyline clip-path="url(#clip890)" style="stroke:#000000; stroke-linecap:round; stroke-linejoin:round; stroke-width:4; stroke-opacity:1; fill:none" points="1787.97,47.2441 1787.97,66.1417 "/>
<polyline clip-path="url(#clip890)" style="stroke:#000000; stroke-linecap:round; stroke-linejoin:round; stroke-width:4; stroke-opacity:1; fill:none" points="1980.21,47.2441 1980.21,66.1417 "/>
<polyline clip-path="url(#clip890)" style="stroke:#000000; stroke-linecap:round; stroke-linejoin:round; stroke-width:4; stroke-opacity:1; fill:none" points="2172.44,47.2441 2172.44,66.1417 "/>
<polyline clip-path="url(#clip890)" style="stroke:#000000; stroke-linecap:round; stroke-linejoin:round; stroke-width:4; stroke-opacity:1; fill:none" points="2364.67,47.2441 2364.67,66.1417 "/>
<g clip-path="url(#clip890)">
<text style="fill:#000000; fill-opacity:1; font-family:Arial,Helvetica Neue,Helvetica,sans-serif; font-size:48px; text-anchor:middle;" transform="rotate(0, 1403.51, 1113.56)" x="1403.51" y="1113.56">0</text>
</g>
<g clip-path="url(#clip890)">
<text style="fill:#000000; fill-opacity:1; font-family:Arial,Helvetica Neue,Helvetica,sans-serif; font-size:48px; text-anchor:middle;" transform="rotate(0, 1595.74, 1113.56)" x="1595.74" y="1113.56">5</text>
</g>
<g clip-path="url(#clip890)">
<text style="fill:#000000; fill-opacity:1; font-family:Arial,Helvetica Neue,Helvetica,sans-serif; font-size:48px; text-anchor:middle;" transform="rotate(0, 1787.97, 1113.56)" x="1787.97" y="1113.56">10</text>
</g>
<g clip-path="url(#clip890)">
<text style="fill:#000000; fill-opacity:1; font-family:Arial,Helvetica Neue,Helvetica,sans-serif; font-size:48px; text-anchor:middle;" transform="rotate(0, 1980.21, 1113.56)" x="1980.21" y="1113.56">15</text>
</g>
<g clip-path="url(#clip890)">
<text style="fill:#000000; fill-opacity:1; font-family:Arial,Helvetica Neue,Helvetica,sans-serif; font-size:48px; text-anchor:middle;" transform="rotate(0, 2172.44, 1113.56)" x="2172.44" y="1113.56">20</text>
</g>
<g clip-path="url(#clip890)">
<text style="fill:#000000; fill-opacity:1; font-family:Arial,Helvetica Neue,Helvetica,sans-serif; font-size:48px; text-anchor:middle;" transform="rotate(0, 2364.67, 1113.56)" x="2364.67" y="1113.56">25</text>
</g>
<path clip-path="url(#clip890)" d="M1837.45 1148.24 L1837.45 1157.44 L1848.41 1157.44 L1848.41 1161.58 L1837.45 1161.58 L1837.45 1179.17 Q1837.45 1183.14 1838.52 1184.27 Q1839.62 1185.39 1842.95 1185.39 L1848.41 1185.39 L1848.41 1189.85 L1842.95 1189.85 Q1836.78 1189.85 1834.44 1187.56 Q1832.1 1185.25 1832.1 1179.17 L1832.1 1161.58 L1828.19 1161.58 L1828.19 1157.44 L1832.1 1157.44 L1832.1 1148.24 L1837.45 1148.24 Z" fill="#000000" fill-rule="nonzero" fill-opacity="1" /><path clip-path="url(#clip890)" d="M1883.72 1146.65 L1888.63 1146.65 L1873.59 1195.35 L1868.67 1195.35 L1883.72 1146.65 Z" fill="#000000" fill-rule="nonzero" fill-opacity="1" /><path clip-path="url(#clip890)" d="M1939.99 1170.29 L1939.99 1189.85 L1934.67 1189.85 L1934.67 1170.46 Q1934.67 1165.86 1932.88 1163.58 Q1931.08 1161.29 1927.49 1161.29 Q1923.18 1161.29 1920.69 1164.04 Q1918.21 1166.79 1918.21 1171.53 L1918.21 1189.85 L1912.85 1189.85 L1912.85 1144.83 L1918.21 1144.83 L1918.21 1162.48 Q1920.12 1159.55 1922.69 1158.11 Q1925.3 1156.66 1928.68 1156.66 Q1934.26 1156.66 1937.13 1160.13 Q1939.99 1163.58 1939.99 1170.29 Z" fill="#000000" fill-rule="nonzero" fill-opacity="1" /><polyline clip-path="url(#clip890)" style="stroke:#000000; stroke-linecap:round; stroke-linejoin:round; stroke-width:4; stroke-opacity:1; fill:none" points="1415.43,1051.71 1415.43,47.2441 "/>
<polyline clip-path="url(#clip890)" style="stroke:#000000; stroke-linecap:round; stroke-linejoin:round; stroke-width:4; stroke-opacity:1; fill:none" points="2352.76,1051.71 2352.76,47.2441 "/>
<polyline clip-path="url(#clip890)" style="stroke:#000000; stroke-linecap:round; stroke-linejoin:round; stroke-width:4; stroke-opacity:1; fill:none" points="1415.43,944.089 1434.32,944.089 "/>
<polyline clip-path="url(#clip890)" style="stroke:#000000; stroke-linecap:round; stroke-linejoin:round; stroke-width:4; stroke-opacity:1; fill:none" points="1415.43,764.72 1434.32,764.72 "/>
<polyline clip-path="url(#clip890)" style="stroke:#000000; stroke-linecap:round; stroke-linejoin:round; stroke-width:4; stroke-opacity:1; fill:none" points="1415.43,585.351 1434.32,585.351 "/>
<polyline clip-path="url(#clip890)" style="stroke:#000000; stroke-linecap:round; stroke-linejoin:round; stroke-width:4; stroke-opacity:1; fill:none" points="1415.43,405.982 1434.32,405.982 "/>
<polyline clip-path="url(#clip890)" style="stroke:#000000; stroke-linecap:round; stroke-linejoin:round; stroke-width:4; stroke-opacity:1; fill:none" points="1415.43,226.613 1434.32,226.613 "/>
<polyline clip-path="url(#clip890)" style="stroke:#000000; stroke-linecap:round; stroke-linejoin:round; stroke-width:4; stroke-opacity:1; fill:none" points="2352.76,944.089 2333.86,944.089 "/>
<polyline clip-path="url(#clip890)" style="stroke:#000000; stroke-linecap:round; stroke-linejoin:round; stroke-width:4; stroke-opacity:1; fill:none" points="2352.76,764.72 2333.86,764.72 "/>
<polyline clip-path="url(#clip890)" style="stroke:#000000; stroke-linecap:round; stroke-linejoin:round; stroke-width:4; stroke-opacity:1; fill:none" points="2352.76,585.351 2333.86,585.351 "/>
<polyline clip-path="url(#clip890)" style="stroke:#000000; stroke-linecap:round; stroke-linejoin:round; stroke-width:4; stroke-opacity:1; fill:none" points="2352.76,405.982 2333.86,405.982 "/>
<polyline clip-path="url(#clip890)" style="stroke:#000000; stroke-linecap:round; stroke-linejoin:round; stroke-width:4; stroke-opacity:1; fill:none" points="2352.76,226.613 2333.86,226.613 "/>
<g clip-path="url(#clip890)">
<text style="fill:#000000; fill-opacity:1; font-family:Arial,Helvetica Neue,Helvetica,sans-serif; font-size:48px; text-anchor:middle;" transform="rotate(0, 1332.59, 961.589)" x="1332.59" y="961.589">0.35</text>
</g>
<g clip-path="url(#clip890)">
<text style="fill:#000000; fill-opacity:1; font-family:Arial,Helvetica Neue,Helvetica,sans-serif; font-size:48px; text-anchor:middle;" transform="rotate(0, 1332.59, 782.22)" x="1332.59" y="782.22">0.40</text>
</g>
<g clip-path="url(#clip890)">
<text style="fill:#000000; fill-opacity:1; font-family:Arial,Helvetica Neue,Helvetica,sans-serif; font-size:48px; text-anchor:middle;" transform="rotate(0, 1332.59, 602.851)" x="1332.59" y="602.851">0.45</text>
</g>
<g clip-path="url(#clip890)">
<text style="fill:#000000; fill-opacity:1; font-family:Arial,Helvetica Neue,Helvetica,sans-serif; font-size:48px; text-anchor:middle;" transform="rotate(0, 1332.59, 423.482)" x="1332.59" y="423.482">0.50</text>
</g>
<g clip-path="url(#clip890)">
<text style="fill:#000000; fill-opacity:1; font-family:Arial,Helvetica Neue,Helvetica,sans-serif; font-size:48px; text-anchor:middle;" transform="rotate(0, 1332.59, 244.113)" x="1332.59" y="244.113">0.55</text>
</g>
<path clip-path="url(#clip890)" d="M1197.56 712.757 Q1197.56 719.123 1202.31 722.885 Q1207.05 726.617 1215.24 726.617 Q1223.4 726.617 1228.15 722.885 Q1232.89 719.123 1232.89 712.757 Q1232.89 706.392 1228.15 702.688 Q1223.4 698.955 1215.24 698.955 Q1207.05 698.955 1202.31 702.688 Q1197.56 706.392 1197.56 712.757 M1192.82 712.757 Q1192.82 703.672 1198.92 698.232 Q1205 692.792 1215.24 692.792 Q1225.46 692.792 1231.56 698.232 Q1237.64 703.672 1237.64 712.757 Q1237.64 721.872 1231.56 727.341 Q1225.49 732.78 1215.24 732.78 Q1205 732.78 1198.92 727.341 Q1192.82 721.872 1192.82 712.757 Z" fill="#000000" fill-rule="nonzero" fill-opacity="1" /><path clip-path="url(#clip890)" d="M1224.01 684.43 L1204.39 684.43 L1204.39 679.106 L1223.81 679.106 Q1228.41 679.106 1230.72 677.312 Q1233.01 675.518 1233.01 671.93 Q1233.01 667.619 1230.26 665.13 Q1227.51 662.613 1222.77 662.613 L1204.39 662.613 L1204.39 657.289 L1236.8 657.289 L1236.8 662.613 L1231.82 662.613 Q1234.77 664.552 1236.22 667.127 Q1237.64 669.673 1237.64 673.059 Q1237.64 678.643 1234.17 681.537 Q1230.69 684.43 1224.01 684.43 M1203.61 671.033 L1203.61 671.033 Z" fill="#000000" fill-rule="nonzero" fill-opacity="1" /><path clip-path="url(#clip890)" d="M1195.19 641.056 L1204.39 641.056 L1204.39 630.09 L1208.53 630.09 L1208.53 641.056 L1226.12 641.056 Q1230.09 641.056 1231.21 639.986 Q1232.34 638.886 1232.34 635.559 L1232.34 630.09 L1236.8 630.09 L1236.8 635.559 Q1236.8 641.722 1234.51 644.066 Q1232.2 646.409 1226.12 646.409 L1208.53 646.409 L1208.53 650.316 L1204.39 650.316 L1204.39 646.409 L1195.19 646.409 L1195.19 641.056 Z" fill="#000000" fill-rule="nonzero" fill-opacity="1" /><path clip-path="url(#clip890)" d="M1231.94 617.937 L1249.13 617.937 L1249.13 623.29 L1204.39 623.29 L1204.39 617.937 L1209.31 617.937 Q1206.42 616.259 1205.03 613.713 Q1203.61 611.138 1203.61 607.579 Q1203.61 601.676 1208.3 598.001 Q1212.99 594.297 1220.62 594.297 Q1228.26 594.297 1232.95 598.001 Q1237.64 601.676 1237.64 607.579 Q1237.64 611.138 1236.25 613.713 Q1234.83 616.259 1231.94 617.937 M1220.62 599.824 Q1214.75 599.824 1211.42 602.255 Q1208.07 604.656 1208.07 608.881 Q1208.07 613.105 1211.42 615.536 Q1214.75 617.937 1220.62 617.937 Q1226.5 617.937 1229.85 615.536 Q1233.18 613.105 1233.18 608.881 Q1233.18 604.656 1229.85 602.255 Q1226.5 599.824 1220.62 599.824 Z" fill="#000000" fill-rule="nonzero" fill-opacity="1" /><path clip-path="url(#clip890)" d="M1224.01 586.022 L1204.39 586.022 L1204.39 580.698 L1223.81 580.698 Q1228.41 580.698 1230.72 578.904 Q1233.01 577.11 1233.01 573.522 Q1233.01 569.211 1230.26 566.722 Q1227.51 564.205 1222.77 564.205 L1204.39 564.205 L1204.39 558.881 L1236.8 558.881 L1236.8 564.205 L1231.82 564.205 Q1234.77 566.144 1236.22 568.719 Q1237.64 571.265 1237.64 574.651 Q1237.64 580.235 1234.17 583.128 Q1230.69 586.022 1224.01 586.022 M1203.61 572.625 L1203.61 572.625 Z" fill="#000000" fill-rule="nonzero" fill-opacity="1" /><path clip-path="url(#clip890)" d="M1195.19 542.648 L1204.39 542.648 L1204.39 531.682 L1208.53 531.682 L1208.53 542.648 L1226.12 542.648 Q1230.09 542.648 1231.21 541.578 Q1232.34 540.478 1232.34 537.151 L1232.34 531.682 L1236.8 531.682 L1236.8 537.151 Q1236.8 543.314 1234.51 545.658 Q1232.2 548.001 1226.12 548.001 L1208.53 548.001 L1208.53 551.908 L1204.39 551.908 L1204.39 548.001 L1195.19 548.001 L1195.19 542.648 Z" fill="#000000" fill-rule="nonzero" fill-opacity="1" /><path clip-path="url(#clip890)" d="M1193.6 496.381 L1193.6 491.462 L1242.3 506.509 L1242.3 511.427 L1193.6 496.381 Z" fill="#000000" fill-rule="nonzero" fill-opacity="1" /><path clip-path="url(#clip890)" d="M1231.94 461.891 L1249.13 461.891 L1249.13 467.244 L1204.39 467.244 L1204.39 461.891 L1209.31 461.891 Q1206.42 460.212 1205.03 457.666 Q1203.61 455.091 1203.61 451.532 Q1203.61 445.629 1208.3 441.954 Q1212.99 438.251 1220.62 438.251 Q1228.26 438.251 1232.95 441.954 Q1237.64 445.629 1237.64 451.532 Q1237.64 455.091 1236.25 457.666 Q1234.83 460.212 1231.94 461.891 M1220.62 443.777 Q1214.75 443.777 1211.42 446.208 Q1208.07 448.61 1208.07 452.834 Q1208.07 457.059 1211.42 459.489 Q1214.75 461.891 1220.62 461.891 Q1226.5 461.891 1229.85 459.489 Q1233.18 457.059 1233.18 452.834 Q1233.18 448.61 1229.85 446.208 Q1226.5 443.777 1220.62 443.777 Z" fill="#000000" fill-rule="nonzero" fill-opacity="1" /><path clip-path="url(#clip890)" d="M1229.45 428.673 L1229.45 422.568 L1236.8 422.568 L1236.8 428.673 L1229.45 428.673 Z" fill="#000000" fill-rule="nonzero" fill-opacity="1" /><path clip-path="url(#clip890)" d="M1224.01 411.139 L1204.39 411.139 L1204.39 405.815 L1223.81 405.815 Q1228.41 405.815 1230.72 404.021 Q1233.01 402.227 1233.01 398.639 Q1233.01 394.327 1230.26 391.839 Q1227.51 389.322 1222.77 389.322 L1204.39 389.322 L1204.39 383.998 L1236.8 383.998 L1236.8 389.322 L1231.82 389.322 Q1234.77 391.26 1236.22 393.836 Q1237.64 396.382 1237.64 399.767 Q1237.64 405.352 1234.17 408.245 Q1230.69 411.139 1224.01 411.139 M1203.61 397.742 L1203.61 397.742 Z" fill="#000000" fill-rule="nonzero" fill-opacity="1" /><path clip-path="url(#clip890)" d="M1229.45 372.279 L1229.45 366.174 L1236.8 366.174 L1236.8 372.279 L1229.45 372.279 Z" fill="#000000" fill-rule="nonzero" fill-opacity="1" /><polyline clip-path="url(#clip893)" style="stroke:#ea801c; stroke-linecap:round; stroke-linejoin:round; stroke-width:4.2; stroke-opacity:0.75; fill:none" stroke-dasharray="2, 4" points="1441.96,630.055 1480.4,595.749 1518.85,688.076 1557.3,636.821 1595.74,735.329 1634.19,896.68 1672.64,687.939 1711.08,686.436 1749.53,579.291 1787.97,653.894 1826.42,635.183 1864.87,634.486 1903.31,530.481 1941.76,672.939 1980.21,541.675 2018.65,587.312 2057.1,626.832 2095.55,658.631 2133.99,635.497 2172.44,596.853 2210.89,415.657 2249.33,571.197 2287.78,516.244 2326.23,645.398 "/>
<polyline clip-path="url(#clip893)" style="stroke:#ea801c; stroke-linecap:round; stroke-linejoin:round; stroke-width:4.2; stroke-opacity:0.75; fill:none" stroke-dasharray="2, 4" points="1441.96,658.888 1480.4,607.921 1518.85,628.249 1557.3,635.791 1595.74,746.699 1634.19,812.422 1672.64,722.027 1711.08,665.177 1749.53,487.205 1787.97,670.795 1826.42,704.819 1864.87,605.382 1903.31,570.338 1941.76,724.824 1980.21,654.688 2018.65,577.187 2057.1,622.797 2095.55,732.335 2133.99,704.694 2172.44,628.79 2210.89,512.248 2249.33,541.167 2287.78,499.197 2326.23,676.324 "/>
<polyline clip-path="url(#clip893)" style="stroke:#ea801c; stroke-linecap:round; stroke-linejoin:round; stroke-width:4.2; stroke-opacity:0.75; fill:none" stroke-dasharray="2, 4" points="1441.96,614.679 1480.4,596.982 1518.85,574.411 1557.3,644.299 1595.74,701.282 1634.19,789.722 1672.64,684.509 1711.08,633.014 1749.53,603.038 1787.97,616.097 1826.42,635.283 1864.87,646.304 1903.31,503.813 1941.76,644.958 1980.21,570.976 2018.65,587.265 2057.1,670.274 2095.55,641.965 2133.99,658.862 2172.44,680.38 2210.89,462.76 2249.33,704.849 2287.78,632.563 2326.23,666.278 "/>
<polyline clip-path="url(#clip893)" style="stroke:#ea801c; stroke-linecap:round; stroke-linejoin:round; stroke-width:4.2; stroke-opacity:0.75; fill:none" stroke-dasharray="2, 4" points="1441.96,690.844 1480.4,715.458 1518.85,637.238 1557.3,679.024 1595.74,716.035 1634.19,806.481 1672.64,667.848 1711.08,690.437 1749.53,596.185 1787.97,613.977 1826.42,568.155 1864.87,568.402 1903.31,523.723 1941.76,720.187 1980.21,438.439 2018.65,606.094 2057.1,653.259 2095.55,626.594 2133.99,686.439 2172.44,676.195 2210.89,423.283 2249.33,643.242 2287.78,459.737 2326.23,663.013 "/>
<polyline clip-path="url(#clip893)" style="stroke:#ea801c; stroke-linecap:round; stroke-linejoin:round; stroke-width:4.2; stroke-opacity:0.75; fill:none" stroke-dasharray="2, 4" points="1441.96,617.11 1480.4,600.551 1518.85,677.201 1557.3,697.354 1595.74,730.187 1634.19,882.923 1672.64,643.355 1711.08,695.998 1749.53,541.165 1787.97,536.654 1826.42,773.538 1864.87,616.79 1903.31,569.761 1941.76,534.283 1980.21,496.847 2018.65,574.154 2057.1,682.304 2095.55,716.888 2133.99,664.028 2172.44,659.362 2210.89,499.149 2249.33,681.529 2287.78,716.444 2326.23,771.545 "/>
<polyline clip-path="url(#clip893)" style="stroke:#ea801c; stroke-linecap:round; stroke-linejoin:round; stroke-width:4.2; stroke-opacity:0.75; fill:none" stroke-dasharray="2, 4" points="1441.96,657.585 1480.4,533.823 1518.85,640.899 1557.3,655.827 1595.74,644.472 1634.19,932.25 1672.64,743.675 1711.08,527.56 1749.53,596.688 1787.97,546.642 1826.42,616.452 1864.87,685.166 1903.31,557.768 1941.76,600.977 1980.21,533.299 2018.65,466.147 2057.1,623.809 2095.55,736.571 2133.99,666.979 2172.44,650.112 2210.89,447.041 2249.33,734.844 2287.78,491.42 2326.23,574.924 "/>
<polyline clip-path="url(#clip893)" style="stroke:#ea801c; stroke-linecap:round; stroke-linejoin:round; stroke-width:4.2; stroke-opacity:0.75; fill:none" stroke-dasharray="2, 4" points="1441.96,666.519 1480.4,662.5 1518.85,601.645 1557.3,754.132 1595.74,740.392 1634.19,810.742 1672.64,720.676 1711.08,657.976 1749.53,579.936 1787.97,587.241 1826.42,619.101 1864.87,669.743 1903.31,593.752 1941.76,579.519 1980.21,745.774 2018.65,605.473 2057.1,651.408 2095.55,761.825 2133.99,679.303 2172.44,693.973 2210.89,485.764 2249.33,579.484 2287.78,597.477 2326.23,644.958 "/>
<polyline clip-path="url(#clip893)" style="stroke:#ea801c; stroke-linecap:round; stroke-linejoin:round; stroke-width:4.2; stroke-opacity:0.75; fill:none" stroke-dasharray="2, 4" points="1441.96,556.448 1480.4,601.437 1518.85,660.356 1557.3,572.845 1595.74,668.786 1634.19,912.367 1672.64,693.762 1711.08,735.697 1749.53,601.198 1787.97,587.642 1826.42,711.315 1864.87,643.024 1903.31,613.615 1941.76,636.154 1980.21,525.05 2018.65,551.677 2057.1,607.71 2095.55,641.483 2133.99,710.971 2172.44,611.859 2210.89,472.98 2249.33,558.334 2287.78,608.894 2326.23,666.612 "/>
<polyline clip-path="url(#clip893)" style="stroke:#ea801c; stroke-linecap:round; stroke-linejoin:round; stroke-width:4.2; stroke-opacity:0.75; fill:none" stroke-dasharray="2, 4" points="1441.96,599.671 1480.4,622.245 1518.85,663.365 1557.3,640.059 1595.74,557.402 1634.19,870.472 1672.64,681.087 1711.08,644.305 1749.53,598.869 1787.97,604.693 1826.42,640.091 1864.87,608.327 1903.31,631.358 1941.76,665.58 1980.21,561.153 2018.65,560.927 2057.1,568.494 2095.55,705.366 2133.99,621.095 2172.44,709.389 2210.89,485.332 2249.33,613.783 2287.78,615.279 2326.23,679.413 "/>
<polyline clip-path="url(#clip893)" style="stroke:#ea801c; stroke-linecap:round; stroke-linejoin:round; stroke-width:4.2; stroke-opacity:0.75; fill:none" stroke-dasharray="2, 4" points="1441.96,538.434 1480.4,668.958 1518.85,596.624 1557.3,656.573 1595.74,695.094 1634.19,862.217 1672.64,621.503 1711.08,622.688 1749.53,593.679 1787.97,582.878 1826.42,620.397 1864.87,651.38 1903.31,588.939 1941.76,604.562 1980.21,691.262 2018.65,544.218 2057.1,588.011 2095.55,626.434 2133.99,635.615 2172.44,655.156 2210.89,519.539 2249.33,634.098 2287.78,558.126 2326.23,677.105 "/>
<polyline clip-path="url(#clip893)" style="stroke:#ea801c; stroke-linecap:round; stroke-linejoin:round; stroke-width:4.2; stroke-opacity:0.75; fill:none" stroke-dasharray="2, 4" points="1441.96,641.383 1480.4,528.116 1518.85,656 1557.3,581.821 1595.74,671.193 1634.19,870.693 1672.64,719.027 1711.08,678.535 1749.53,583.305 1787.97,572.44 1826.42,652.015 1864.87,661.468 1903.31,589.987 1941.76,533.515 1980.21,548.843 2018.65,561.223 2057.1,614.739 2095.55,612.458 2133.99,671.414 2172.44,679.654 2210.89,446.716 2249.33,652.816 2287.78,544.006 2326.23,666.335 "/>
<polyline clip-path="url(#clip893)" style="stroke:#ea801c; stroke-linecap:round; stroke-linejoin:round; stroke-width:4.2; stroke-opacity:0.75; fill:none" stroke-dasharray="2, 4" points="1441.96,672.007 1480.4,692.354 1518.85,668.91 1557.3,667.735 1595.74,713.09 1634.19,884.342 1672.64,700.066 1711.08,757.675 1749.53,585.169 1787.97,587.213 1826.42,624.698 1864.87,640.713 1903.31,597.353 1941.76,608.157 1980.21,468.22 2018.65,537.704 2057.1,650.47 2095.55,578.604 2133.99,588.239 2172.44,726.751 2210.89,445.831 2249.33,655.134 2287.78,633.375 2326.23,550.032 "/>
<polyline clip-path="url(#clip893)" style="stroke:#ea801c; stroke-linecap:round; stroke-linejoin:round; stroke-width:4.2; stroke-opacity:0.75; fill:none" stroke-dasharray="2, 4" points="1441.96,654.202 1480.4,660.093 1518.85,530.189 1557.3,670.803 1595.74,692.321 1634.19,827.974 1672.64,653.492 1711.08,592.359 1749.53,518.531 1787.97,702.195 1826.42,613.081 1864.87,562.248 1903.31,524.926 1941.76,658.998 1980.21,530.887 2018.65,495.87 2057.1,780.555 2095.55,731.996 2133.99,698.529 2172.44,658.299 2210.89,480.487 2249.33,563.828 2287.78,602.651 2326.23,661.528 "/>
<polyline clip-path="url(#clip893)" style="stroke:#ea801c; stroke-linecap:round; stroke-linejoin:round; stroke-width:4.2; stroke-opacity:0.75; fill:none" stroke-dasharray="2, 4" points="1441.96,714.581 1480.4,606.116 1518.85,672.984 1557.3,686.96 1595.74,775.146 1634.19,852.829 1672.64,644.504 1711.08,656.113 1749.53,508.963 1787.97,563.198 1826.42,644.761 1864.87,646.39 1903.31,549.717 1941.76,627.749 1980.21,553.273 2018.65,544.297 2057.1,664.429 2095.55,586.287 2133.99,612.169 2172.44,772.243 2210.89,572.987 2249.33,669.971 2287.78,553.099 2326.23,684.541 "/>
<polyline clip-path="url(#clip893)" style="stroke:#ea801c; stroke-linecap:round; stroke-linejoin:round; stroke-width:4.2; stroke-opacity:0.75; fill:none" stroke-dasharray="2, 4" points="1441.96,698.03 1480.4,586.996 1518.85,645.296 1557.3,624.927 1595.74,691.911 1634.19,831.685 1672.64,562.946 1711.08,635.403 1749.53,628.901 1787.97,545.869 1826.42,725.835 1864.87,624.382 1903.31,568.694 1941.76,650.887 1980.21,538.229 2018.65,548.597 2057.1,610.151 2095.55,652.431 2133.99,608.58 2172.44,686.382 2210.89,494.012 2249.33,588.322 2287.78,684.137 2326.23,639.404 "/>
<polyline clip-path="url(#clip893)" style="stroke:#ea801c; stroke-linecap:round; stroke-linejoin:round; stroke-width:4.2; stroke-opacity:0.75; fill:none" stroke-dasharray="2, 4" points="1441.96,606.647 1480.4,648.382 1518.85,613.137 1557.3,592.118 1595.74,691.643 1634.19,844.245 1672.64,656.424 1711.08,633.804 1749.53,445.018 1787.97,528.375 1826.42,650.51 1864.87,596.676 1903.31,632.899 1941.76,595.536 1980.21,524.457 2018.65,622.018 2057.1,760.23 2095.55,595.312 2133.99,703.398 2172.44,672.18 2210.89,503.529 2249.33,564.625 2287.78,597.126 2326.23,661.804 "/>
<polyline clip-path="url(#clip893)" style="stroke:#ea801c; stroke-linecap:round; stroke-linejoin:round; stroke-width:4.2; stroke-opacity:0.75; fill:none" stroke-dasharray="2, 4" points="1441.96,728.304 1480.4,694.89 1518.85,658.547 1557.3,707.98 1595.74,714.936 1634.19,861.118 1672.64,699.854 1711.08,662.046 1749.53,605.073 1787.97,601.414 1826.42,698.724 1864.87,605.932 1903.31,632.873 1941.76,643.565 1980.21,522.735 2018.65,579.365 2057.1,713.231 2095.55,641.403 2133.99,679.058 2172.44,612.986 2210.89,429.775 2249.33,656.938 2287.78,634.474 2326.23,672.591 "/>
<polyline clip-path="url(#clip893)" style="stroke:#ea801c; stroke-linecap:round; stroke-linejoin:round; stroke-width:4.2; stroke-opacity:0.75; fill:none" stroke-dasharray="2, 4" points="1441.96,650.535 1480.4,579.61 1518.85,637.36 1557.3,649.696 1595.74,655.673 1634.19,886.402 1672.64,702.124 1711.08,668.239 1749.53,558.719 1787.97,608.729 1826.42,608.853 1864.87,595.67 1903.31,554.658 1941.76,666.083 1980.21,539.971 2018.65,433.772 2057.1,473.933 2095.55,602.85 2133.99,649.526 2172.44,644.775 2210.89,502.512 2249.33,622.601 2287.78,570.734 2326.23,802.28 "/>
<polyline clip-path="url(#clip893)" style="stroke:#ea801c; stroke-linecap:round; stroke-linejoin:round; stroke-width:4.2; stroke-opacity:0.75; fill:none" stroke-dasharray="2, 4" points="1441.96,561.338 1480.4,625.57 1518.85,772.045 1557.3,647.388 1595.74,736.43 1634.19,855.674 1672.64,668.117 1711.08,638.119 1749.53,669.345 1787.97,593.892 1826.42,658.454 1864.87,633.189 1903.31,642.863 1941.76,660.766 1980.21,487.366 2018.65,533.965 2057.1,638.38 2095.55,637.803 2133.99,753.599 2172.44,551.684 2210.89,542.695 2249.33,583.036 2287.78,585.481 2326.23,618.628 "/>
<polyline clip-path="url(#clip893)" style="stroke:#ea801c; stroke-linecap:round; stroke-linejoin:round; stroke-width:4.2; stroke-opacity:0.75; fill:none" stroke-dasharray="2, 4" points="1441.96,631.912 1480.4,599.091 1518.85,629.521 1557.3,674.417 1595.74,704.972 1634.19,921.7 1672.64,730.134 1711.08,581.355 1749.53,590.854 1787.97,596.453 1826.42,677.326 1864.87,631.739 1903.31,580.289 1941.76,601.542 1980.21,548.571 2018.65,548.308 2057.1,617.783 2095.55,672.934 2133.99,645.261 2172.44,678.893 2210.89,434.762 2249.33,530.575 2287.78,653.922 2326.23,619.354 "/>
<polyline clip-path="url(#clip893)" style="stroke:#ea801c; stroke-linecap:round; stroke-linejoin:round; stroke-width:4.2; stroke-opacity:0.75; fill:none" stroke-dasharray="2, 4" points="1441.96,640.972 1480.4,588.446 1518.85,635.884 1557.3,667.498 1595.74,684.433 1634.19,911.15 1672.64,676.715 1711.08,660.727 1749.53,581.766 1787.97,643.184 1826.42,663.193 1864.87,653.572 1903.31,559.168 1941.76,614.043 1980.21,566.302 2018.65,674.845 2057.1,686.265 2095.55,605.775 2133.99,682.983 2172.44,705.58 2210.89,524.095 2249.33,584.157 2287.78,593.798 2326.23,704.362 "/>
<polyline clip-path="url(#clip893)" style="stroke:#ea801c; stroke-linecap:round; stroke-linejoin:round; stroke-width:4.2; stroke-opacity:0.75; fill:none" stroke-dasharray="2, 4" points="1441.96,420.021 1480.4,561.535 1518.85,671.889 1557.3,642.919 1595.74,686.345 1634.19,932.188 1672.64,670.333 1711.08,638.719 1749.53,589.116 1787.97,558.001 1826.42,721.906 1864.87,681.537 1903.31,511.072 1941.76,626.649 1980.21,505.692 2018.65,559.915 2057.1,709.564 2095.55,569.467 2133.99,683.951 2172.44,577.839 2210.89,380.692 2249.33,612.4 2287.78,595.869 2326.23,665.965 "/>
<polyline clip-path="url(#clip893)" style="stroke:#ea801c; stroke-linecap:round; stroke-linejoin:round; stroke-width:4.2; stroke-opacity:0.75; fill:none" stroke-dasharray="2, 4" points="1441.96,549.571 1480.4,788.68 1518.85,624.632 1557.3,654.458 1595.74,812.112 1634.19,833.927 1672.64,658.409 1711.08,621.669 1749.53,574.329 1787.97,604.898 1826.42,651.259 1864.87,637.635 1903.31,511.645 1941.76,637.627 1980.21,510.573 2018.65,590.468 2057.1,637.335 2095.55,664.476 2133.99,656.712 2172.44,630.676 2210.89,506.344 2249.33,623.818 2287.78,608.513 2326.23,694.15 "/>
<polyline clip-path="url(#clip893)" style="stroke:#ea801c; stroke-linecap:round; stroke-linejoin:round; stroke-width:4.2; stroke-opacity:0.75; fill:none" stroke-dasharray="2, 4" points="1441.96,648.144 1480.4,575.268 1518.85,634.172 1557.3,652.364 1595.74,704.47 1634.19,903.62 1672.64,684.342 1711.08,615.08 1749.53,493.585 1787.97,725.942 1826.42,630.171 1864.87,682.811 1903.31,559.837 1941.76,686.198 1980.21,545.068 2018.65,569.697 2057.1,607.114 2095.55,668.128 2133.99,632.806 2172.44,687.581 2210.89,491.81 2249.33,569.601 2287.78,658.506 2326.23,617.916 "/>
<polyline clip-path="url(#clip893)" style="stroke:#ea801c; stroke-linecap:round; stroke-linejoin:round; stroke-width:4.2; stroke-opacity:0.75; fill:none" stroke-dasharray="2, 4" points="1441.96,635.524 1480.4,635.25 1518.85,661.974 1557.3,648.722 1595.74,740.014 1634.19,826.366 1672.64,652.153 1711.08,607.487 1749.53,566.19 1787.97,434.958 1826.42,629.921 1864.87,639.457 1903.31,541.298 1941.76,647.711 1980.21,525.38 2018.65,620.516 2057.1,668.483 2095.55,703.544 2133.99,729.741 2172.44,664.51 2210.89,484.052 2249.33,611.366 2287.78,614.396 2326.23,648.068 "/>
<polyline clip-path="url(#clip893)" style="stroke:#ea801c; stroke-linecap:round; stroke-linejoin:round; stroke-width:4.2; stroke-opacity:0.75; fill:none" stroke-dasharray="2, 4" points="1441.96,542.814 1480.4,632.271 1518.85,617.829 1557.3,671.817 1595.74,742.545 1634.19,833.38 1672.64,679.367 1711.08,625.608 1749.53,611.797 1787.97,620.061 1826.42,666.42 1864.87,629.228 1903.31,595.169 1941.76,495.526 1980.21,570.352 2018.65,564.159 2057.1,688.299 2095.55,715.223 2133.99,655.491 2172.44,679.318 2210.89,358.975 2249.33,637.626 2287.78,604.052 2326.23,610.019 "/>
<polyline clip-path="url(#clip893)" style="stroke:#ea801c; stroke-linecap:round; stroke-linejoin:round; stroke-width:4.2; stroke-opacity:0.75; fill:none" stroke-dasharray="2, 4" points="1441.96,624.361 1480.4,529.02 1518.85,603.724 1557.3,673.106 1595.74,801.769 1634.19,920.315 1672.64,680.671 1711.08,565.5 1749.53,592.891 1787.97,599.121 1826.42,738.529 1864.87,607.083 1903.31,571.325 1941.76,601.667 1980.21,432.374 2018.65,551.422 2057.1,710.403 2095.55,665.492 2133.99,588.143 2172.44,566.997 2210.89,473.088 2249.33,588.994 2287.78,397.923 2326.23,693.526 "/>
<polyline clip-path="url(#clip893)" style="stroke:#ea801c; stroke-linecap:round; stroke-linejoin:round; stroke-width:4.2; stroke-opacity:0.75; fill:none" stroke-dasharray="2, 4" points="1441.96,651.241 1480.4,622.036 1518.85,658.92 1557.3,751.529 1595.74,698.872 1634.19,899.967 1672.64,725.633 1711.08,623.864 1749.53,628.624 1787.97,596.864 1826.42,693.16 1864.87,644.74 1903.31,633.676 1941.76,669.513 1980.21,575.947 2018.65,548.19 2057.1,644.081 2095.55,689.95 2133.99,680.921 2172.44,662.601 2210.89,412.956 2249.33,596.676 2287.78,598.449 2326.23,663.515 "/>
<polyline clip-path="url(#clip893)" style="stroke:#ea801c; stroke-linecap:round; stroke-linejoin:round; stroke-width:4.2; stroke-opacity:0.75; fill:none" stroke-dasharray="2, 4" points="1441.96,686.002 1480.4,603.045 1518.85,637.818 1557.3,668.772 1595.74,662.201 1634.19,866.505 1672.64,712.9 1711.08,704.467 1749.53,594.547 1787.97,606.852 1826.42,711.132 1864.87,600.83 1903.31,579.292 1941.76,656.976 1980.21,578.113 2018.65,545.609 2057.1,611.528 2095.55,510.695 2133.99,651.197 2172.44,747.433 2210.89,471.635 2249.33,472.441 2287.78,578.275 2326.23,562.196 "/>
<polyline clip-path="url(#clip893)" style="stroke:#ea801c; stroke-linecap:round; stroke-linejoin:round; stroke-width:4.2; stroke-opacity:0.75; fill:none" stroke-dasharray="2, 4" points="1441.96,632.377 1480.4,573.008 1518.85,624.744 1557.3,748.491 1595.74,720.994 1634.19,900.682 1672.64,813.735 1711.08,616.55 1749.53,686.193 1787.97,581.903 1826.42,723.24 1864.87,609.486 1903.31,622.67 1941.76,751.693 1980.21,628.5 2018.65,563.555 2057.1,596.357 2095.55,681.927 2133.99,619.109 2172.44,618.876 2210.89,428.59 2249.33,620.873 2287.78,588.767 2326.23,667.131 "/>
<polyline clip-path="url(#clip893)" style="stroke:#a00000; stroke-linecap:round; stroke-linejoin:round; stroke-width:8; stroke-opacity:1; fill:none" stroke-dasharray="4, 8" points="1441.96,420.021 1480.4,528.116 1518.85,530.189 1557.3,572.845 1595.74,557.402 1634.19,789.722 1672.64,562.946 1711.08,527.56 1749.53,445.018 1787.97,434.958 1826.42,568.155 1864.87,562.248 1903.31,503.813 1941.76,495.526 1980.21,432.374 2018.65,433.772 2057.1,473.933 2095.55,510.695 2133.99,588.143 2172.44,551.684 2210.89,358.975 2249.33,472.441 2287.78,397.923 2326.23,550.032 "/>
<circle clip-path="url(#clip893)" cx="1441.96" cy="420.021" r="10.8" fill="#a00000" fill-rule="evenodd" fill-opacity="1" stroke="#000000" stroke-opacity="1" stroke-width="2.4"/>
<circle clip-path="url(#clip893)" cx="1480.4" cy="528.116" r="10.8" fill="#a00000" fill-rule="evenodd" fill-opacity="1" stroke="#000000" stroke-opacity="1" stroke-width="2.4"/>
<circle clip-path="url(#clip893)" cx="1518.85" cy="530.189" r="10.8" fill="#a00000" fill-rule="evenodd" fill-opacity="1" stroke="#000000" stroke-opacity="1" stroke-width="2.4"/>
<circle clip-path="url(#clip893)" cx="1557.3" cy="572.845" r="10.8" fill="#a00000" fill-rule="evenodd" fill-opacity="1" stroke="#000000" stroke-opacity="1" stroke-width="2.4"/>
<circle clip-path="url(#clip893)" cx="1595.74" cy="557.402" r="10.8" fill="#a00000" fill-rule="evenodd" fill-opacity="1" stroke="#000000" stroke-opacity="1" stroke-width="2.4"/>
<circle clip-path="url(#clip893)" cx="1634.19" cy="789.722" r="10.8" fill="#a00000" fill-rule="evenodd" fill-opacity="1" stroke="#000000" stroke-opacity="1" stroke-width="2.4"/>
<circle clip-path="url(#clip893)" cx="1672.64" cy="562.946" r="10.8" fill="#a00000" fill-rule="evenodd" fill-opacity="1" stroke="#000000" stroke-opacity="1" stroke-width="2.4"/>
<circle clip-path="url(#clip893)" cx="1711.08" cy="527.56" r="10.8" fill="#a00000" fill-rule="evenodd" fill-opacity="1" stroke="#000000" stroke-opacity="1" stroke-width="2.4"/>
<circle clip-path="url(#clip893)" cx="1749.53" cy="445.018" r="10.8" fill="#a00000" fill-rule="evenodd" fill-opacity="1" stroke="#000000" stroke-opacity="1" stroke-width="2.4"/>
<circle clip-path="url(#clip893)" cx="1787.97" cy="434.958" r="10.8" fill="#a00000" fill-rule="evenodd" fill-opacity="1" stroke="#000000" stroke-opacity="1" stroke-width="2.4"/>
<circle clip-path="url(#clip893)" cx="1826.42" cy="568.155" r="10.8" fill="#a00000" fill-rule="evenodd" fill-opacity="1" stroke="#000000" stroke-opacity="1" stroke-width="2.4"/>
<circle clip-path="url(#clip893)" cx="1864.87" cy="562.248" r="10.8" fill="#a00000" fill-rule="evenodd" fill-opacity="1" stroke="#000000" stroke-opacity="1" stroke-width="2.4"/>
<circle clip-path="url(#clip893)" cx="1903.31" cy="503.813" r="10.8" fill="#a00000" fill-rule="evenodd" fill-opacity="1" stroke="#000000" stroke-opacity="1" stroke-width="2.4"/>
<circle clip-path="url(#clip893)" cx="1941.76" cy="495.526" r="10.8" fill="#a00000" fill-rule="evenodd" fill-opacity="1" stroke="#000000" stroke-opacity="1" stroke-width="2.4"/>
<circle clip-path="url(#clip893)" cx="1980.21" cy="432.374" r="10.8" fill="#a00000" fill-rule="evenodd" fill-opacity="1" stroke="#000000" stroke-opacity="1" stroke-width="2.4"/>
<circle clip-path="url(#clip893)" cx="2018.65" cy="433.772" r="10.8" fill="#a00000" fill-rule="evenodd" fill-opacity="1" stroke="#000000" stroke-opacity="1" stroke-width="2.4"/>
<circle clip-path="url(#clip893)" cx="2057.1" cy="473.933" r="10.8" fill="#a00000" fill-rule="evenodd" fill-opacity="1" stroke="#000000" stroke-opacity="1" stroke-width="2.4"/>
<circle clip-path="url(#clip893)" cx="2095.55" cy="510.695" r="10.8" fill="#a00000" fill-rule="evenodd" fill-opacity="1" stroke="#000000" stroke-opacity="1" stroke-width="2.4"/>
<circle clip-path="url(#clip893)" cx="2133.99" cy="588.143" r="10.8" fill="#a00000" fill-rule="evenodd" fill-opacity="1" stroke="#000000" stroke-opacity="1" stroke-width="2.4"/>
<circle clip-path="url(#clip893)" cx="2172.44" cy="551.684" r="10.8" fill="#a00000" fill-rule="evenodd" fill-opacity="1" stroke="#000000" stroke-opacity="1" stroke-width="2.4"/>
<circle clip-path="url(#clip893)" cx="2210.89" cy="358.975" r="10.8" fill="#a00000" fill-rule="evenodd" fill-opacity="1" stroke="#000000" stroke-opacity="1" stroke-width="2.4"/>
<circle clip-path="url(#clip893)" cx="2249.33" cy="472.441" r="10.8" fill="#a00000" fill-rule="evenodd" fill-opacity="1" stroke="#000000" stroke-opacity="1" stroke-width="2.4"/>
<circle clip-path="url(#clip893)" cx="2287.78" cy="397.923" r="10.8" fill="#a00000" fill-rule="evenodd" fill-opacity="1" stroke="#000000" stroke-opacity="1" stroke-width="2.4"/>
<circle clip-path="url(#clip893)" cx="2326.23" cy="550.032" r="10.8" fill="#a00000" fill-rule="evenodd" fill-opacity="1" stroke="#000000" stroke-opacity="1" stroke-width="2.4"/>
<polyline clip-path="url(#clip893)" style="stroke:#a00000; stroke-linecap:round; stroke-linejoin:round; stroke-width:8; stroke-opacity:1; fill:none" stroke-dasharray="4, 8" points="1441.96,728.304 1480.4,788.68 1518.85,772.045 1557.3,754.132 1595.74,812.112 1634.19,932.25 1672.64,813.735 1711.08,757.675 1749.53,686.193 1787.97,725.942 1826.42,773.538 1864.87,685.166 1903.31,642.863 1941.76,751.693 1980.21,745.774 2018.65,674.845 2057.1,780.555 2095.55,761.825 2133.99,753.599 2172.44,772.243 2210.89,572.987 2249.33,734.844 2287.78,716.444 2326.23,802.28 "/>
<circle clip-path="url(#clip893)" cx="1441.96" cy="728.304" r="10.8" fill="#a00000" fill-rule="evenodd" fill-opacity="1" stroke="#000000" stroke-opacity="1" stroke-width="2.4"/>
<circle clip-path="url(#clip893)" cx="1480.4" cy="788.68" r="10.8" fill="#a00000" fill-rule="evenodd" fill-opacity="1" stroke="#000000" stroke-opacity="1" stroke-width="2.4"/>
<circle clip-path="url(#clip893)" cx="1518.85" cy="772.045" r="10.8" fill="#a00000" fill-rule="evenodd" fill-opacity="1" stroke="#000000" stroke-opacity="1" stroke-width="2.4"/>
<circle clip-path="url(#clip893)" cx="1557.3" cy="754.132" r="10.8" fill="#a00000" fill-rule="evenodd" fill-opacity="1" stroke="#000000" stroke-opacity="1" stroke-width="2.4"/>
<circle clip-path="url(#clip893)" cx="1595.74" cy="812.112" r="10.8" fill="#a00000" fill-rule="evenodd" fill-opacity="1" stroke="#000000" stroke-opacity="1" stroke-width="2.4"/>
<circle clip-path="url(#clip893)" cx="1634.19" cy="932.25" r="10.8" fill="#a00000" fill-rule="evenodd" fill-opacity="1" stroke="#000000" stroke-opacity="1" stroke-width="2.4"/>
<circle clip-path="url(#clip893)" cx="1672.64" cy="813.735" r="10.8" fill="#a00000" fill-rule="evenodd" fill-opacity="1" stroke="#000000" stroke-opacity="1" stroke-width="2.4"/>
<circle clip-path="url(#clip893)" cx="1711.08" cy="757.675" r="10.8" fill="#a00000" fill-rule="evenodd" fill-opacity="1" stroke="#000000" stroke-opacity="1" stroke-width="2.4"/>
<circle clip-path="url(#clip893)" cx="1749.53" cy="686.193" r="10.8" fill="#a00000" fill-rule="evenodd" fill-opacity="1" stroke="#000000" stroke-opacity="1" stroke-width="2.4"/>
<circle clip-path="url(#clip893)" cx="1787.97" cy="725.942" r="10.8" fill="#a00000" fill-rule="evenodd" fill-opacity="1" stroke="#000000" stroke-opacity="1" stroke-width="2.4"/>
<circle clip-path="url(#clip893)" cx="1826.42" cy="773.538" r="10.8" fill="#a00000" fill-rule="evenodd" fill-opacity="1" stroke="#000000" stroke-opacity="1" stroke-width="2.4"/>
<circle clip-path="url(#clip893)" cx="1864.87" cy="685.166" r="10.8" fill="#a00000" fill-rule="evenodd" fill-opacity="1" stroke="#000000" stroke-opacity="1" stroke-width="2.4"/>
<circle clip-path="url(#clip893)" cx="1903.31" cy="642.863" r="10.8" fill="#a00000" fill-rule="evenodd" fill-opacity="1" stroke="#000000" stroke-opacity="1" stroke-width="2.4"/>
<circle clip-path="url(#clip893)" cx="1941.76" cy="751.693" r="10.8" fill="#a00000" fill-rule="evenodd" fill-opacity="1" stroke="#000000" stroke-opacity="1" stroke-width="2.4"/>
<circle clip-path="url(#clip893)" cx="1980.21" cy="745.774" r="10.8" fill="#a00000" fill-rule="evenodd" fill-opacity="1" stroke="#000000" stroke-opacity="1" stroke-width="2.4"/>
<circle clip-path="url(#clip893)" cx="2018.65" cy="674.845" r="10.8" fill="#a00000" fill-rule="evenodd" fill-opacity="1" stroke="#000000" stroke-opacity="1" stroke-width="2.4"/>
<circle clip-path="url(#clip893)" cx="2057.1" cy="780.555" r="10.8" fill="#a00000" fill-rule="evenodd" fill-opacity="1" stroke="#000000" stroke-opacity="1" stroke-width="2.4"/>
<circle clip-path="url(#clip893)" cx="2095.55" cy="761.825" r="10.8" fill="#a00000" fill-rule="evenodd" fill-opacity="1" stroke="#000000" stroke-opacity="1" stroke-width="2.4"/>
<circle clip-path="url(#clip893)" cx="2133.99" cy="753.599" r="10.8" fill="#a00000" fill-rule="evenodd" fill-opacity="1" stroke="#000000" stroke-opacity="1" stroke-width="2.4"/>
<circle clip-path="url(#clip893)" cx="2172.44" cy="772.243" r="10.8" fill="#a00000" fill-rule="evenodd" fill-opacity="1" stroke="#000000" stroke-opacity="1" stroke-width="2.4"/>
<circle clip-path="url(#clip893)" cx="2210.89" cy="572.987" r="10.8" fill="#a00000" fill-rule="evenodd" fill-opacity="1" stroke="#000000" stroke-opacity="1" stroke-width="2.4"/>
<circle clip-path="url(#clip893)" cx="2249.33" cy="734.844" r="10.8" fill="#a00000" fill-rule="evenodd" fill-opacity="1" stroke="#000000" stroke-opacity="1" stroke-width="2.4"/>
<circle clip-path="url(#clip893)" cx="2287.78" cy="716.444" r="10.8" fill="#a00000" fill-rule="evenodd" fill-opacity="1" stroke="#000000" stroke-opacity="1" stroke-width="2.4"/>
<circle clip-path="url(#clip893)" cx="2326.23" cy="802.28" r="10.8" fill="#a00000" fill-rule="evenodd" fill-opacity="1" stroke="#000000" stroke-opacity="1" stroke-width="2.4"/>
<path clip-path="url(#clip893)" d="M1441.96 420.021 L1480.4 528.116 L1518.85 530.189 L1557.3 572.845 L1595.74 557.402 L1634.19 789.722 L1672.64 562.946 L1711.08 527.56 L1749.53 445.018 L1787.97 434.958 L1826.42 568.155 L1864.87 562.248 L1903.31 503.813 L1941.76 495.526 L1980.21 432.374 L2018.65 433.772 L2057.1 473.933 L2095.55 510.695 L2133.99 588.143 L2172.44 551.684 L2210.89 358.975 L2249.33 472.441 L2287.78 397.923 L2326.23 550.032 L2326.23 802.28 L2287.78 716.444 L2249.33 734.844 L2210.89 572.987 L2172.44 772.243 L2133.99 753.599 L2095.55 761.825 L2057.1 780.555 L2018.65 674.845 L1980.21 745.774 L1941.76 751.693 L1903.31 642.863 L1864.87 685.166 L1826.42 773.538 L1787.97 725.942 L1749.53 686.193 L1711.08 757.675 L1672.64 813.735 L1634.19 932.25 L1595.74 812.112 L1557.3 754.132 L1518.85 772.045 L1480.4 788.68 L1441.96 728.304  Z" fill="#009af9" fill-rule="evenodd" fill-opacity="0.05"/>
<polyline clip-path="url(#clip893)" style="stroke:#009af9; stroke-linecap:round; stroke-linejoin:round; stroke-width:4; stroke-opacity:1; fill:none" points="1441.96,420.021 1480.4,528.116 1518.85,530.189 1557.3,572.845 1595.74,557.402 1634.19,789.722 1672.64,562.946 1711.08,527.56 1749.53,445.018 1787.97,434.958 1826.42,568.155 1864.87,562.248 1903.31,503.813 1941.76,495.526 1980.21,432.374 2018.65,433.772 2057.1,473.933 2095.55,510.695 2133.99,588.143 2172.44,551.684 2210.89,358.975 2249.33,472.441 2287.78,397.923 2326.23,550.032 "/>
</svg>
