<?xml version="1.0" encoding="utf-8"?>
<svg xmlns="http://www.w3.org/2000/svg" xmlns:xlink="http://www.w3.org/1999/xlink" width="600" height="200" viewBox="0 0 2400 800">
<defs>
  <clipPath id="clip120">
    <rect x="0" y="0" width="2400" height="800"/>
  </clipPath>
</defs>
<path clip-path="url(#clip120)" d="M0 800 L2400 800 L2400 0 L0 0  Z" fill="#ffffff" fill-rule="evenodd" fill-opacity="1"/>
<defs>
  <clipPath id="clip121">
    <rect x="480" y="0" width="1681" height="800"/>
  </clipPath>
</defs>
<defs>
  <clipPath id="clip122">
    <rect x="189" y="47" width="951" height="625"/>
  </clipPath>
</defs>
<polyline clip-path="url(#clip122)" style="stroke:#787878; stroke-linecap:round; stroke-linejoin:round; stroke-width:4; stroke-opacity:0.1; fill:none" points="189.936,671.585 189.936,47.2441 "/>
<polyline clip-path="url(#clip122)" style="stroke:#787878; stroke-linecap:round; stroke-linejoin:round; stroke-width:4; stroke-opacity:0.1; fill:none" points="379.963,671.585 379.963,47.2441 "/>
<polyline clip-path="url(#clip122)" style="stroke:#787878; stroke-linecap:round; stroke-linejoin:round; stroke-width:4; stroke-opacity:0.1; fill:none" points="569.989,671.585 569.989,47.2441 "/>
<polyline clip-path="url(#clip122)" style="stroke:#787878; stroke-linecap:round; stroke-linejoin:round; stroke-width:4; stroke-opacity:0.1; fill:none" points="760.016,671.585 760.016,47.2441 "/>
<polyline clip-path="url(#clip122)" style="stroke:#787878; stroke-linecap:round; stroke-linejoin:round; stroke-width:4; stroke-opacity:0.1; fill:none" points="950.042,671.585 950.042,47.2441 "/>
<polyline clip-path="url(#clip122)" style="stroke:#787878; stroke-linecap:round; stroke-linejoin:round; stroke-width:4; stroke-opacity:0.1; fill:none" points="1140.07,671.585 1140.07,47.2441 "/>
<polyline clip-path="url(#clip122)" style="stroke:#787878; stroke-linecap:round; stroke-linejoin:round; stroke-width:4; stroke-opacity:0.1; fill:none" points="189.936,671.585 189.936,47.2441 "/>
<polyline clip-path="url(#clip122)" style="stroke:#787878; stroke-linecap:round; stroke-linejoin:round; stroke-width:4; stroke-opacity:0.1; fill:none" points="379.963,671.585 379.963,47.2441 "/>
<polyline clip-path="url(#clip122)" style="stroke:#787878; stroke-linecap:round; stroke-linejoin:round; stroke-width:4; stroke-opacity:0.1; fill:none" points="569.989,671.585 569.989,47.2441 "/>
<polyline clip-path="url(#clip122)" style="stroke:#787878; stroke-linecap:round; stroke-linejoin:round; stroke-width:4; stroke-opacity:0.1; fill:none" points="760.016,671.585 760.016,47.2441 "/>
<polyline clip-path="url(#clip122)" style="stroke:#787878; stroke-linecap:round; stroke-linejoin:round; stroke-width:4; stroke-opacity:0.1; fill:none" points="950.042,671.585 950.042,47.2441 "/>
<polyline clip-path="url(#clip122)" style="stroke:#787878; stroke-linecap:round; stroke-linejoin:round; stroke-width:4; stroke-opacity:0.1; fill:none" points="1140.07,671.585 1140.07,47.2441 "/>
<polyline clip-path="url(#clip120)" style="stroke:#000000; stroke-linecap:round; stroke-linejoin:round; stroke-width:4; stroke-opacity:1; fill:none" points="189.936,671.585 1140.07,671.585 "/>
<polyline clip-path="url(#clip120)" style="stroke:#000000; stroke-linecap:round; stroke-linejoin:round; stroke-width:4; stroke-opacity:1; fill:none" points="189.936,47.2441 1140.07,47.2441 "/>
<polyline clip-path="url(#clip120)" style="stroke:#000000; stroke-linecap:round; stroke-linejoin:round; stroke-width:4; stroke-opacity:1; fill:none" points="189.936,671.585 189.936,652.688 "/>
<polyline clip-path="url(#clip120)" style="stroke:#000000; stroke-linecap:round; stroke-linejoin:round; stroke-width:4; stroke-opacity:1; fill:none" points="379.963,671.585 379.963,652.688 "/>
<polyline clip-path="url(#clip120)" style="stroke:#000000; stroke-linecap:round; stroke-linejoin:round; stroke-width:4; stroke-opacity:1; fill:none" points="569.989,671.585 569.989,652.688 "/>
<polyline clip-path="url(#clip120)" style="stroke:#000000; stroke-linecap:round; stroke-linejoin:round; stroke-width:4; stroke-opacity:1; fill:none" points="760.016,671.585 760.016,652.688 "/>
<polyline clip-path="url(#clip120)" style="stroke:#000000; stroke-linecap:round; stroke-linejoin:round; stroke-width:4; stroke-opacity:1; fill:none" points="950.042,671.585 950.042,652.688 "/>
<polyline clip-path="url(#clip120)" style="stroke:#000000; stroke-linecap:round; stroke-linejoin:round; stroke-width:4; stroke-opacity:1; fill:none" points="1140.07,671.585 1140.07,652.688 "/>
<polyline clip-path="url(#clip120)" style="stroke:#000000; stroke-linecap:round; stroke-linejoin:round; stroke-width:4; stroke-opacity:1; fill:none" points="189.936,47.2441 189.936,66.1417 "/>
<polyline clip-path="url(#clip120)" style="stroke:#000000; stroke-linecap:round; stroke-linejoin:round; stroke-width:4; stroke-opacity:1; fill:none" points="379.963,47.2441 379.963,66.1417 "/>
<polyline clip-path="url(#clip120)" style="stroke:#000000; stroke-linecap:round; stroke-linejoin:round; stroke-width:4; stroke-opacity:1; fill:none" points="569.989,47.2441 569.989,66.1417 "/>
<polyline clip-path="url(#clip120)" style="stroke:#000000; stroke-linecap:round; stroke-linejoin:round; stroke-width:4; stroke-opacity:1; fill:none" points="760.016,47.2441 760.016,66.1417 "/>
<polyline clip-path="url(#clip120)" style="stroke:#000000; stroke-linecap:round; stroke-linejoin:round; stroke-width:4; stroke-opacity:1; fill:none" points="950.042,47.2441 950.042,66.1417 "/>
<polyline clip-path="url(#clip120)" style="stroke:#000000; stroke-linecap:round; stroke-linejoin:round; stroke-width:4; stroke-opacity:1; fill:none" points="1140.07,47.2441 1140.07,66.1417 "/>
<g clip-path="url(#clip120)">
<text style="fill:#000000; fill-opacity:1; font-family:Book Antiqua,Palatino,Palatino Linotype,Palatino LT STD,Georgia,serif; font-size:51px; font-weight:bold; text-anchor:middle;" transform="rotate(0, 189.936, 735.157)" x="189.936" y="735.157">0</text>
</g>
<g clip-path="url(#clip120)">
<text style="fill:#000000; fill-opacity:1; font-family:Book Antiqua,Palatino,Palatino Linotype,Palatino LT STD,Georgia,serif; font-size:51px; font-weight:bold; text-anchor:middle;" transform="rotate(0, 379.963, 735.157)" x="379.963" y="735.157">5</text>
</g>
<g clip-path="url(#clip120)">
<text style="fill:#000000; fill-opacity:1; font-family:Book Antiqua,Palatino,Palatino Linotype,Palatino LT STD,Georgia,serif; font-size:51px; font-weight:bold; text-anchor:middle;" transform="rotate(0, 569.989, 735.157)" x="569.989" y="735.157">10</text>
</g>
<g clip-path="url(#clip120)">
<text style="fill:#000000; fill-opacity:1; font-family:Book Antiqua,Palatino,Palatino Linotype,Palatino LT STD,Georgia,serif; font-size:51px; font-weight:bold; text-anchor:middle;" transform="rotate(0, 760.016, 735.157)" x="760.016" y="735.157">15</text>
</g>
<g clip-path="url(#clip120)">
<text style="fill:#000000; fill-opacity:1; font-family:Book Antiqua,Palatino,Palatino Linotype,Palatino LT STD,Georgia,serif; font-size:51px; font-weight:bold; text-anchor:middle;" transform="rotate(0, 950.042, 735.157)" x="950.042" y="735.157">20</text>
</g>
<g clip-path="url(#clip120)">
<text style="fill:#000000; fill-opacity:1; font-family:Book Antiqua,Palatino,Palatino Linotype,Palatino LT STD,Georgia,serif; font-size:51px; font-weight:bold; text-anchor:middle;" transform="rotate(0, 1140.07, 735.157)" x="1140.07" y="735.157">25</text>
</g>
<path clip-path="url(#clip120)" d="M638.337 778.479 Q638.337 779.381 637.919 779.607 Q637.5 779.8 636.341 779.8 L630.157 779.8 L625.262 799.252 Q624.875 800.959 624.875 802.408 Q624.875 804.019 625.358 804.727 Q625.874 805.436 626.936 805.436 Q629.03 805.436 631.284 803.536 Q633.571 801.635 635.503 796.998 Q635.761 796.386 635.89 796.257 Q636.051 796.096 636.469 796.096 Q637.274 796.096 637.274 796.74 Q637.274 796.966 636.824 797.996 Q636.405 799.027 635.471 800.54 Q634.569 802.054 633.378 803.471 Q632.218 804.888 630.447 805.919 Q628.676 806.917 626.775 806.917 Q624.102 806.917 622.395 805.21 Q620.721 803.503 620.721 800.83 Q620.721 799.961 621.397 797.191 Q622.073 794.389 625.745 779.8 L619.916 779.8 Q619.11 779.8 618.788 779.768 Q618.498 779.735 618.273 779.574 Q618.08 779.381 618.08 778.995 Q618.08 778.383 618.337 778.125 Q618.595 777.835 618.917 777.803 Q619.271 777.739 620.077 777.739 L626.26 777.739 L628.837 767.272 Q629.094 766.241 629.738 765.662 Q630.415 765.05 630.801 764.985 Q631.188 764.889 631.477 764.889 Q632.347 764.889 632.862 765.372 Q633.378 765.823 633.378 766.66 Q633.378 767.111 630.672 777.739 L636.469 777.739 Q637.21 777.739 637.5 777.771 Q637.822 777.803 638.08 777.964 Q638.337 778.125 638.337 778.479 Z" fill="#000000" fill-rule="nonzero" fill-opacity="1" /><path clip-path="url(#clip120)" d="M641.653 821.732 Q641.653 821.41 641.91 820.701 L665.195 758.48 Q665.195 758.415 665.356 758.061 Q665.517 757.707 665.614 757.481 Q665.711 757.224 665.904 757.03 Q666.129 756.837 666.387 756.837 Q667.031 756.837 667.031 757.642 Q667.031 757.707 666.838 758.48 L643.489 820.766 Q643.102 821.893 642.844 822.215 Q642.619 822.537 642.232 822.537 Q641.653 822.537 641.653 821.732 Z" fill="#000000" fill-rule="nonzero" fill-opacity="1" /><path clip-path="url(#clip120)" d="M706.684 796.74 Q706.684 796.998 706.394 797.996 Q706.104 798.995 705.395 800.54 Q704.719 802.086 703.785 803.503 Q702.851 804.888 701.305 805.919 Q699.792 806.917 698.053 806.917 Q695.734 806.917 694.188 805.371 Q692.642 803.825 692.642 801.507 Q692.642 801.185 692.674 800.863 Q692.706 800.54 692.739 800.347 Q692.771 800.122 692.867 799.768 Q692.996 799.381 693.028 799.22 Q693.093 799.059 693.254 798.576 Q693.447 798.061 693.512 797.867 Q697.602 787.433 697.602 783.085 Q697.602 778.479 694.027 778.479 Q690.838 778.479 687.682 780.798 Q686.233 781.958 684.848 784.019 Q683.463 786.08 683.206 786.853 Q682.916 788.528 682.497 789.816 Q682.304 790.718 681.37 794.228 L679.921 800.186 L678.665 805.178 Q678.407 805.887 677.698 806.402 Q676.99 806.917 676.217 806.917 Q675.573 806.917 674.929 806.466 Q674.317 806.048 674.317 805.049 Q674.317 804.534 674.574 803.6 L684.14 765.597 L684.333 764.309 Q684.333 763.922 684.172 763.729 Q684.043 763.504 683.27 763.343 Q682.529 763.182 681.048 763.182 Q680.436 763.182 680.146 763.149 Q679.888 763.117 679.663 762.956 Q679.438 762.763 679.438 762.377 Q679.438 761.829 679.663 761.539 Q679.921 761.217 680.114 761.153 Q680.307 761.088 680.694 761.056 Q681.241 761.024 683.077 760.863 Q684.913 760.67 686.491 760.541 Q688.069 760.412 688.745 760.412 Q689.132 760.412 689.325 760.605 Q689.55 760.766 689.582 760.959 L689.615 761.121 L684.462 782.087 Q688.552 777.03 694.22 777.03 Q697.892 777.03 699.856 778.93 Q701.821 780.798 701.821 784.083 Q701.821 787.851 697.795 798.576 Q696.603 801.571 696.603 803.278 Q696.603 804.405 696.958 804.92 Q697.344 805.436 698.181 805.436 Q699.47 805.436 700.597 804.695 Q701.756 803.922 702.561 802.666 Q703.367 801.378 703.914 800.09 Q704.494 798.769 704.912 797.288 Q705.17 796.483 705.299 796.289 Q705.46 796.096 705.911 796.096 Q706.684 796.096 706.684 796.74 Z" fill="#000000" fill-rule="nonzero" fill-opacity="1" /><polyline clip-path="url(#clip122)" style="stroke:#787878; stroke-linecap:round; stroke-linejoin:round; stroke-width:4; stroke-opacity:0.1; fill:none" points="189.936,671.585 1140.07,671.585 "/>
<polyline clip-path="url(#clip122)" style="stroke:#787878; stroke-linecap:round; stroke-linejoin:round; stroke-width:4; stroke-opacity:0.1; fill:none" points="189.936,515.5 1140.07,515.5 "/>
<polyline clip-path="url(#clip122)" style="stroke:#787878; stroke-linecap:round; stroke-linejoin:round; stroke-width:4; stroke-opacity:0.1; fill:none" points="189.936,359.415 1140.07,359.415 "/>
<polyline clip-path="url(#clip122)" style="stroke:#787878; stroke-linecap:round; stroke-linejoin:round; stroke-width:4; stroke-opacity:0.1; fill:none" points="189.936,203.329 1140.07,203.329 "/>
<polyline clip-path="url(#clip122)" style="stroke:#787878; stroke-linecap:round; stroke-linejoin:round; stroke-width:4; stroke-opacity:0.1; fill:none" points="189.936,671.585 1140.07,671.585 "/>
<polyline clip-path="url(#clip122)" style="stroke:#787878; stroke-linecap:round; stroke-linejoin:round; stroke-width:4; stroke-opacity:0.1; fill:none" points="189.936,515.5 1140.07,515.5 "/>
<polyline clip-path="url(#clip122)" style="stroke:#787878; stroke-linecap:round; stroke-linejoin:round; stroke-width:4; stroke-opacity:0.1; fill:none" points="189.936,359.415 1140.07,359.415 "/>
<polyline clip-path="url(#clip122)" style="stroke:#787878; stroke-linecap:round; stroke-linejoin:round; stroke-width:4; stroke-opacity:0.1; fill:none" points="189.936,203.329 1140.07,203.329 "/>
<polyline clip-path="url(#clip120)" style="stroke:#000000; stroke-linecap:round; stroke-linejoin:round; stroke-width:4; stroke-opacity:1; fill:none" points="189.936,671.585 189.936,47.2441 "/>
<polyline clip-path="url(#clip120)" style="stroke:#000000; stroke-linecap:round; stroke-linejoin:round; stroke-width:4; stroke-opacity:1; fill:none" points="1140.07,671.585 1140.07,47.2441 "/>
<polyline clip-path="url(#clip120)" style="stroke:#000000; stroke-linecap:round; stroke-linejoin:round; stroke-width:4; stroke-opacity:1; fill:none" points="189.936,671.585 208.834,671.585 "/>
<polyline clip-path="url(#clip120)" style="stroke:#000000; stroke-linecap:round; stroke-linejoin:round; stroke-width:4; stroke-opacity:1; fill:none" points="189.936,515.5 208.834,515.5 "/>
<polyline clip-path="url(#clip120)" style="stroke:#000000; stroke-linecap:round; stroke-linejoin:round; stroke-width:4; stroke-opacity:1; fill:none" points="189.936,359.415 208.834,359.415 "/>
<polyline clip-path="url(#clip120)" style="stroke:#000000; stroke-linecap:round; stroke-linejoin:round; stroke-width:4; stroke-opacity:1; fill:none" points="189.936,203.329 208.834,203.329 "/>
<polyline clip-path="url(#clip120)" style="stroke:#000000; stroke-linecap:round; stroke-linejoin:round; stroke-width:4; stroke-opacity:1; fill:none" points="1140.07,671.585 1121.17,671.585 "/>
<polyline clip-path="url(#clip120)" style="stroke:#000000; stroke-linecap:round; stroke-linejoin:round; stroke-width:4; stroke-opacity:1; fill:none" points="1140.07,515.5 1121.17,515.5 "/>
<polyline clip-path="url(#clip120)" style="stroke:#000000; stroke-linecap:round; stroke-linejoin:round; stroke-width:4; stroke-opacity:1; fill:none" points="1140.07,359.415 1121.17,359.415 "/>
<polyline clip-path="url(#clip120)" style="stroke:#000000; stroke-linecap:round; stroke-linejoin:round; stroke-width:4; stroke-opacity:1; fill:none" points="1140.07,203.329 1121.17,203.329 "/>
<g clip-path="url(#clip120)">
<text style="fill:#000000; fill-opacity:1; font-family:Book Antiqua,Palatino,Palatino Linotype,Palatino LT STD,Georgia,serif; font-size:51px; font-weight:bold; text-anchor:middle;" transform="rotate(0, 122.218, 689.085)" x="122.218" y="689.085">2.0</text>
</g>
<g clip-path="url(#clip120)">
<text style="fill:#000000; fill-opacity:1; font-family:Book Antiqua,Palatino,Palatino Linotype,Palatino LT STD,Georgia,serif; font-size:51px; font-weight:bold; text-anchor:middle;" transform="rotate(0, 122.218, 533)" x="122.218" y="533">2.5</text>
</g>
<g clip-path="url(#clip120)">
<text style="fill:#000000; fill-opacity:1; font-family:Book Antiqua,Palatino,Palatino Linotype,Palatino LT STD,Georgia,serif; font-size:51px; font-weight:bold; text-anchor:middle;" transform="rotate(0, 122.218, 376.915)" x="122.218" y="376.915">3.0</text>
</g>
<g clip-path="url(#clip120)">
<text style="fill:#000000; fill-opacity:1; font-family:Book Antiqua,Palatino,Palatino Linotype,Palatino LT STD,Georgia,serif; font-size:51px; font-weight:bold; text-anchor:middle;" transform="rotate(0, 122.218, 220.829)" x="122.218" y="220.829">3.5</text>
</g>
<path clip-path="url(#clip120)" d="M19.9732 553.178 Q9.89279 553.178 2.87191 546.737 Q-4.18117 540.263 -4.18117 531.278 Q-4.18117 522.228 2.87191 515.787 Q9.925 509.313 19.9732 509.313 Q29.9248 509.313 36.8491 515.787 Q43.7734 522.26 43.7734 531.278 Q43.7734 540.167 36.8813 546.672 Q29.9893 553.178 19.9732 553.178 M19.0393 546.382 Q25.1584 546.382 29.8604 544.933 Q34.5303 543.484 37.0745 541.165 Q39.6188 538.814 40.8426 536.302 Q42.0664 533.79 42.0664 531.213 Q42.0664 528.701 40.8748 526.254 Q39.6832 523.774 37.1712 521.423 Q34.6591 519.072 29.957 517.59 Q25.255 516.109 19.0393 516.109 Q14.2084 516.109 10.3437 517.139 Q6.44677 518.17 4.09574 519.78 Q1.74471 521.391 0.198828 523.484 Q-1.34705 525.545 -1.92676 527.51 Q-2.53867 529.442 -2.53867 531.278 Q-2.53867 533.597 -1.50808 536.012 Q-0.477495 538.428 1.80912 540.875 Q4.06353 543.291 8.54015 544.836 Q12.9846 546.382 19.0393 546.382 Z" fill="#000000" fill-rule="nonzero" fill-opacity="1" /><path clip-path="url(#clip120)" d="M15.9475 502.955 L13.8863 502.955 L13.1778 493.261 L35.0778 493.261 Q36.6559 493.261 37.5898 493.133 Q38.4916 493.004 39.5544 492.488 Q40.6172 491.941 41.1003 490.717 Q41.5834 489.461 41.5834 487.464 Q41.5834 483.889 38.6526 481.699 Q35.7219 479.477 31.3741 479.477 L19.619 479.477 Q17.1713 479.477 16.5594 480.347 Q15.9475 481.216 15.9475 484.63 L13.8863 484.63 L13.1778 474.936 L36.5915 474.936 Q39.0391 474.936 39.6832 474.099 Q40.2951 473.229 40.2951 469.783 L42.3241 469.783 L43.0648 479.284 L37.1067 479.284 Q43.0326 482.054 43.0648 487.786 Q43.0648 490.685 42.3241 492.682 Q41.5834 494.646 40.6816 495.645 Q39.7476 496.643 37.9763 497.19 Q36.205 497.706 35.11 497.77 Q34.015 497.835 31.8894 497.835 L22.0022 497.835 Q17.5256 497.835 16.7526 498.479 Q15.9475 499.123 15.9475 502.955 Z" fill="#000000" fill-rule="nonzero" fill-opacity="1" /><path clip-path="url(#clip120)" d="M15.9475 467.511 L14.4982 467.511 Q14.3694 464.483 12.2438 462.486 Q10.086 460.458 7.44515 459.781 Q4.80427 459.073 1.74471 459.008 L1.74471 457.366 L13.8863 457.366 L13.8863 447.929 L15.9475 447.929 L15.9475 457.366 L34.2726 457.366 Q41.3901 457.366 41.3901 452.921 Q41.3901 451.021 39.4578 449.765 Q37.4932 448.509 34.015 448.509 L30.3757 448.509 L30.3757 446.867 L34.1438 446.867 Q37.7187 446.867 40.3917 448.509 Q43.0648 450.152 43.0648 453.404 Q43.0648 454.596 42.7428 455.788 Q42.4529 456.947 41.68 458.493 Q40.8748 460.007 38.9425 460.973 Q36.9779 461.907 34.1438 461.907 L15.9475 461.907 L15.9475 467.511 Z" fill="#000000" fill-rule="nonzero" fill-opacity="1" /><path clip-path="url(#clip120)" d="M53.0809 446.671 Q53.0809 443.161 52.63 442.356 Q52.2113 441.518 50.1179 441.518 L19.2325 441.518 Q17.0425 441.518 16.495 442.356 Q15.9475 443.161 15.9475 446.671 L13.8863 446.671 L13.1778 437.17 L17.5256 437.17 Q13.1778 433.209 13.1778 427.927 Q13.1778 422.324 17.5256 418.233 Q21.8734 414.143 28.0891 414.143 Q34.3692 414.143 38.717 418.491 Q43.0648 422.839 43.0648 428.861 Q43.0648 432.146 41.3901 434.369 Q39.6832 436.559 38.4272 436.977 L39.0391 436.977 L50.1179 436.977 Q52.2435 436.977 52.6622 436.14 Q53.0809 435.303 53.0809 431.824 L55.1098 431.824 Q54.9166 438.749 54.9166 439.264 Q54.9166 439.908 55.1098 446.671 L53.0809 446.671 M34.8201 436.977 Q35.8185 436.977 36.1728 436.848 Q36.527 436.687 37.5898 436.043 Q41.5834 433.435 41.5834 429.183 Q41.5834 429.151 41.5834 429.119 Q41.5834 425.351 37.7509 422.485 Q33.8862 419.618 28.0891 419.618 Q22.5497 419.618 18.685 422.227 Q14.8203 424.836 14.8203 428.443 Q14.8203 431.019 16.2051 433.274 Q17.59 435.528 20.1021 436.977 L34.8201 436.977 Z" fill="#000000" fill-rule="nonzero" fill-opacity="1" /><path clip-path="url(#clip120)" d="M15.9475 406.21 L13.8863 406.21 L13.1778 396.517 L35.0778 396.517 Q36.6559 396.517 37.5898 396.388 Q38.4916 396.259 39.5544 395.744 Q40.6172 395.196 41.1003 393.972 Q41.5834 392.716 41.5834 390.719 Q41.5834 387.145 38.6526 384.955 Q35.7219 382.732 31.3741 382.732 L19.619 382.732 Q17.1713 382.732 16.5594 383.602 Q15.9475 384.472 15.9475 387.885 L13.8863 387.885 L13.1778 378.191 L36.5915 378.191 Q39.0391 378.191 39.6832 377.354 Q40.2951 376.484 40.2951 373.038 L42.3241 373.038 L43.0648 382.539 L37.1067 382.539 Q43.0326 385.309 43.0648 391.042 Q43.0648 393.94 42.3241 395.937 Q41.5834 397.901 40.6816 398.9 Q39.7476 399.898 37.9763 400.446 Q36.205 400.961 35.11 401.025 Q34.015 401.09 31.8894 401.09 L22.0022 401.09 Q17.5256 401.09 16.7526 401.734 Q15.9475 402.378 15.9475 406.21 Z" fill="#000000" fill-rule="nonzero" fill-opacity="1" /><path clip-path="url(#clip120)" d="M15.9475 370.766 L14.4982 370.766 Q14.3694 367.738 12.2438 365.742 Q10.086 363.713 7.44515 363.036 Q4.80427 362.328 1.74471 362.263 L1.74471 360.621 L13.8863 360.621 L13.8863 351.185 L15.9475 351.185 L15.9475 360.621 L34.2726 360.621 Q41.3901 360.621 41.3901 356.177 Q41.3901 354.276 39.4578 353.02 Q37.4932 351.764 34.015 351.764 L30.3757 351.764 L30.3757 350.122 L34.1438 350.122 Q37.7187 350.122 40.3917 351.764 Q43.0648 353.407 43.0648 356.66 Q43.0648 357.851 42.7428 359.043 Q42.4529 360.202 41.68 361.748 Q40.8748 363.262 38.9425 364.228 Q36.9779 365.162 34.1438 365.162 L15.9475 365.162 L15.9475 370.766 Z" fill="#000000" fill-rule="nonzero" fill-opacity="1" /><path clip-path="url(#clip120)" d="M57.8795 336.723 Q57.5575 336.723 56.8489 336.465 L-5.37279 313.18 Q-5.4372 313.18 -5.79146 313.019 Q-6.14573 312.858 -6.37117 312.762 Q-6.62881 312.665 -6.82205 312.472 Q-7.01528 312.246 -7.01528 311.989 Q-7.01528 311.344 -6.21014 311.344 Q-6.14573 311.344 -5.37279 311.538 L56.9134 334.887 Q58.0406 335.273 58.3626 335.531 Q58.6847 335.757 58.6847 336.143 Q58.6847 336.723 57.8795 336.723 Z" fill="#000000" fill-rule="nonzero" fill-opacity="1" /><path clip-path="url(#clip120)" d="M53.0809 295.343 Q53.0809 291.832 52.63 291.027 Q52.2113 290.19 50.1179 290.19 L19.2325 290.19 Q17.0425 290.19 16.495 291.027 Q15.9475 291.832 15.9475 295.343 L13.8863 295.343 L13.1778 285.842 L17.5256 285.842 Q13.1778 281.881 13.1778 276.599 Q13.1778 270.995 17.5256 266.905 Q21.8734 262.815 28.0891 262.815 Q34.3692 262.815 38.717 267.163 Q43.0648 271.511 43.0648 277.533 Q43.0648 280.818 41.3901 283.04 Q39.6832 285.23 38.4272 285.649 L39.0391 285.649 L50.1179 285.649 Q52.2435 285.649 52.6622 284.812 Q53.0809 283.974 53.0809 280.496 L55.1098 280.496 Q54.9166 287.42 54.9166 287.936 Q54.9166 288.58 55.1098 295.343 L53.0809 295.343 M34.8201 285.649 Q35.8185 285.649 36.1728 285.52 Q36.527 285.359 37.5898 284.715 Q41.5834 282.106 41.5834 277.855 Q41.5834 277.823 41.5834 277.791 Q41.5834 274.023 37.7509 271.156 Q33.8862 268.29 28.0891 268.29 Q22.5497 268.29 18.685 270.899 Q14.8203 273.507 14.8203 277.114 Q14.8203 279.691 16.2051 281.945 Q17.59 284.2 20.1021 285.649 L34.8201 285.649 Z" fill="#000000" fill-rule="nonzero" fill-opacity="1" /><path clip-path="url(#clip120)" d="M41.2613 258.108 Q40.1985 259.106 38.8137 259.106 Q37.4288 259.106 36.4304 258.108 Q35.3998 257.109 35.3998 255.596 Q35.3998 254.147 36.366 253.18 Q37.3 252.182 38.8459 252.182 Q40.3595 252.182 41.3579 253.245 Q42.3241 254.275 42.3241 255.596 Q42.3241 257.109 41.2613 258.108 Z" fill="#000000" fill-rule="nonzero" fill-opacity="1" /><path clip-path="url(#clip120)" d="M15.9475 230.497 L13.8863 230.497 L13.1778 220.803 L35.0778 220.803 Q36.6559 220.803 37.5898 220.675 Q38.4916 220.546 39.5544 220.03 Q40.6172 219.483 41.1003 218.259 Q41.5834 217.003 41.5834 215.006 Q41.5834 211.431 38.6526 209.241 Q35.7219 207.019 31.3741 207.019 L19.619 207.019 Q17.1713 207.019 16.5594 207.889 Q15.9475 208.758 15.9475 212.172 L13.8863 212.172 L13.1778 202.478 L36.5915 202.478 Q39.0391 202.478 39.6832 201.641 Q40.2951 200.771 40.2951 197.325 L42.3241 197.325 L43.0648 206.826 L37.1067 206.826 Q43.0326 209.596 43.0648 215.328 Q43.0648 218.227 42.3241 220.224 Q41.5834 222.188 40.6816 223.187 Q39.7476 224.185 37.9763 224.733 Q36.205 225.248 35.11 225.312 Q34.015 225.377 31.8894 225.377 L22.0022 225.377 Q17.5256 225.377 16.7526 226.021 Q15.9475 226.665 15.9475 230.497 Z" fill="#000000" fill-rule="nonzero" fill-opacity="1" /><path clip-path="url(#clip120)" d="M41.2613 193.262 Q40.1985 194.261 38.8137 194.261 Q37.4288 194.261 36.4304 193.262 Q35.3998 192.264 35.3998 190.75 Q35.3998 189.301 36.366 188.335 Q37.3 187.336 38.8459 187.336 Q40.3595 187.336 41.3579 188.399 Q42.3241 189.43 42.3241 190.75 Q42.3241 192.264 41.2613 193.262 Z" fill="#000000" fill-rule="nonzero" fill-opacity="1" /><path clip-path="url(#clip122)" d="M218.44 611.68 L218.44 1295.93 L237.443 1295.93 L237.443 611.68 L218.44 611.68 L218.44 611.68  Z" fill="#969696" fill-rule="evenodd" fill-opacity="1"/>
<polyline clip-path="url(#clip122)" style="stroke:#787878; stroke-linecap:round; stroke-linejoin:round; stroke-width:0; stroke-opacity:1; fill:none" points="218.44,611.68 218.44,1295.93 237.443,1295.93 237.443,611.68 218.44,611.68 "/>
<path clip-path="url(#clip122)" d="M256.446 561.233 L256.446 1295.93 L275.448 1295.93 L275.448 561.233 L256.446 561.233 L256.446 561.233  Z" fill="#969696" fill-rule="evenodd" fill-opacity="1"/>
<polyline clip-path="url(#clip122)" style="stroke:#787878; stroke-linecap:round; stroke-linejoin:round; stroke-width:0; stroke-opacity:1; fill:none" points="256.446,561.233 256.446,1295.93 275.448,1295.93 275.448,561.233 256.446,561.233 "/>
<path clip-path="url(#clip122)" d="M294.451 563.356 L294.451 1295.93 L313.453 1295.93 L313.453 563.356 L294.451 563.356 L294.451 563.356  Z" fill="#969696" fill-rule="evenodd" fill-opacity="1"/>
<polyline clip-path="url(#clip122)" style="stroke:#787878; stroke-linecap:round; stroke-linejoin:round; stroke-width:0; stroke-opacity:1; fill:none" points="294.451,563.356 294.451,1295.93 313.453,1295.93 313.453,563.356 294.451,563.356 "/>
<path clip-path="url(#clip122)" d="M332.456 556.925 L332.456 1295.93 L351.459 1295.93 L351.459 556.925 L332.456 556.925 L332.456 556.925  Z" fill="#969696" fill-rule="evenodd" fill-opacity="1"/>
<polyline clip-path="url(#clip122)" style="stroke:#787878; stroke-linecap:round; stroke-linejoin:round; stroke-width:0; stroke-opacity:1; fill:none" points="332.456,556.925 332.456,1295.93 351.459,1295.93 351.459,556.925 332.456,556.925 "/>
<path clip-path="url(#clip122)" d="M370.461 549.652 L370.461 1295.93 L389.464 1295.93 L389.464 549.652 L370.461 549.652 L370.461 549.652  Z" fill="#969696" fill-rule="evenodd" fill-opacity="1"/>
<polyline clip-path="url(#clip122)" style="stroke:#787878; stroke-linecap:round; stroke-linejoin:round; stroke-width:0; stroke-opacity:1; fill:none" points="370.461,549.652 370.461,1295.93 389.464,1295.93 389.464,549.652 370.461,549.652 "/>
<path clip-path="url(#clip122)" d="M408.467 532.732 L408.467 1295.93 L427.469 1295.93 L427.469 532.732 L408.467 532.732 L408.467 532.732  Z" fill="#969696" fill-rule="evenodd" fill-opacity="1"/>
<polyline clip-path="url(#clip122)" style="stroke:#787878; stroke-linecap:round; stroke-linejoin:round; stroke-width:0; stroke-opacity:1; fill:none" points="408.467,532.732 408.467,1295.93 427.469,1295.93 427.469,532.732 408.467,532.732 "/>
<path clip-path="url(#clip122)" d="M446.472 442.483 L446.472 1295.93 L465.475 1295.93 L465.475 442.483 L446.472 442.483 L446.472 442.483  Z" fill="#969696" fill-rule="evenodd" fill-opacity="1"/>
<polyline clip-path="url(#clip122)" style="stroke:#787878; stroke-linecap:round; stroke-linejoin:round; stroke-width:0; stroke-opacity:1; fill:none" points="446.472,442.483 446.472,1295.93 465.475,1295.93 465.475,442.483 446.472,442.483 "/>
<path clip-path="url(#clip122)" d="M484.477 389.383 L484.477 1295.93 L503.48 1295.93 L503.48 389.383 L484.477 389.383 L484.477 389.383  Z" fill="#969696" fill-rule="evenodd" fill-opacity="1"/>
<polyline clip-path="url(#clip122)" style="stroke:#787878; stroke-linecap:round; stroke-linejoin:round; stroke-width:0; stroke-opacity:1; fill:none" points="484.477,389.383 484.477,1295.93 503.48,1295.93 503.48,389.383 484.477,389.383 "/>
<path clip-path="url(#clip122)" d="M522.483 410.736 L522.483 1295.93 L541.485 1295.93 L541.485 410.736 L522.483 410.736 L522.483 410.736  Z" fill="#969696" fill-rule="evenodd" fill-opacity="1"/>
<polyline clip-path="url(#clip122)" style="stroke:#787878; stroke-linecap:round; stroke-linejoin:round; stroke-width:0; stroke-opacity:1; fill:none" points="522.483,410.736 522.483,1295.93 541.485,1295.93 541.485,410.736 522.483,410.736 "/>
<path clip-path="url(#clip122)" d="M560.488 418.103 L560.488 1295.93 L579.491 1295.93 L579.491 418.103 L560.488 418.103 L560.488 418.103  Z" fill="#969696" fill-rule="evenodd" fill-opacity="1"/>
<polyline clip-path="url(#clip122)" style="stroke:#787878; stroke-linecap:round; stroke-linejoin:round; stroke-width:0; stroke-opacity:1; fill:none" points="560.488,418.103 560.488,1295.93 579.491,1295.93 579.491,418.103 560.488,418.103 "/>
<path clip-path="url(#clip122)" d="M598.493 270.103 L598.493 1295.93 L617.496 1295.93 L617.496 270.103 L598.493 270.103 L598.493 270.103  Z" fill="#969696" fill-rule="evenodd" fill-opacity="1"/>
<polyline clip-path="url(#clip122)" style="stroke:#787878; stroke-linecap:round; stroke-linejoin:round; stroke-width:0; stroke-opacity:1; fill:none" points="598.493,270.103 598.493,1295.93 617.496,1295.93 617.496,270.103 598.493,270.103 "/>
<path clip-path="url(#clip122)" d="M636.499 271.695 L636.499 1295.93 L655.501 1295.93 L655.501 271.695 L636.499 271.695 L636.499 271.695  Z" fill="#969696" fill-rule="evenodd" fill-opacity="1"/>
<polyline clip-path="url(#clip122)" style="stroke:#787878; stroke-linecap:round; stroke-linejoin:round; stroke-width:0; stroke-opacity:1; fill:none" points="636.499,271.695 636.499,1295.93 655.501,1295.93 655.501,271.695 636.499,271.695 "/>
<path clip-path="url(#clip122)" d="M674.504 277.689 L674.504 1295.93 L693.506 1295.93 L693.506 277.689 L674.504 277.689 L674.504 277.689  Z" fill="#969696" fill-rule="evenodd" fill-opacity="1"/>
<polyline clip-path="url(#clip122)" style="stroke:#787878; stroke-linecap:round; stroke-linejoin:round; stroke-width:0; stroke-opacity:1; fill:none" points="674.504,277.689 674.504,1295.93 693.506,1295.93 693.506,277.689 674.504,277.689 "/>
<path clip-path="url(#clip122)" d="M712.509 285.743 L712.509 1295.93 L731.512 1295.93 L731.512 285.743 L712.509 285.743 L712.509 285.743  Z" fill="#969696" fill-rule="evenodd" fill-opacity="1"/>
<polyline clip-path="url(#clip122)" style="stroke:#787878; stroke-linecap:round; stroke-linejoin:round; stroke-width:0; stroke-opacity:1; fill:none" points="712.509,285.743 712.509,1295.93 731.512,1295.93 731.512,285.743 712.509,285.743 "/>
<path clip-path="url(#clip122)" d="M750.514 275.566 L750.514 1295.93 L769.517 1295.93 L769.517 275.566 L750.514 275.566 L750.514 275.566  Z" fill="#969696" fill-rule="evenodd" fill-opacity="1"/>
<polyline clip-path="url(#clip122)" style="stroke:#787878; stroke-linecap:round; stroke-linejoin:round; stroke-width:0; stroke-opacity:1; fill:none" points="750.514,275.566 750.514,1295.93 769.517,1295.93 769.517,275.566 750.514,275.566 "/>
<path clip-path="url(#clip122)" d="M788.52 397.531 L788.52 1295.93 L807.522 1295.93 L807.522 397.531 L788.52 397.531 L788.52 397.531  Z" fill="#969696" fill-rule="evenodd" fill-opacity="1"/>
<polyline clip-path="url(#clip122)" style="stroke:#787878; stroke-linecap:round; stroke-linejoin:round; stroke-width:0; stroke-opacity:1; fill:none" points="788.52,397.531 788.52,1295.93 807.522,1295.93 807.522,397.531 788.52,397.531 "/>
<path clip-path="url(#clip122)" d="M826.525 484.283 L826.525 1295.93 L845.528 1295.93 L845.528 484.283 L826.525 484.283 L826.525 484.283  Z" fill="#969696" fill-rule="evenodd" fill-opacity="1"/>
<polyline clip-path="url(#clip122)" style="stroke:#787878; stroke-linecap:round; stroke-linejoin:round; stroke-width:0; stroke-opacity:1; fill:none" points="826.525,484.283 826.525,1295.93 845.528,1295.93 845.528,484.283 826.525,484.283 "/>
<path clip-path="url(#clip122)" d="M864.53 525.677 L864.53 1295.93 L883.533 1295.93 L883.533 525.677 L864.53 525.677 L864.53 525.677  Z" fill="#969696" fill-rule="evenodd" fill-opacity="1"/>
<polyline clip-path="url(#clip122)" style="stroke:#787878; stroke-linecap:round; stroke-linejoin:round; stroke-width:0; stroke-opacity:1; fill:none" points="864.53,525.677 864.53,1295.93 883.533,1295.93 883.533,525.677 864.53,525.677 "/>
<path clip-path="url(#clip122)" d="M902.536 496.864 L902.536 1295.93 L921.538 1295.93 L921.538 496.864 L902.536 496.864 L902.536 496.864  Z" fill="#969696" fill-rule="evenodd" fill-opacity="1"/>
<polyline clip-path="url(#clip122)" style="stroke:#787878; stroke-linecap:round; stroke-linejoin:round; stroke-width:0; stroke-opacity:1; fill:none" points="902.536,496.864 902.536,1295.93 921.538,1295.93 921.538,496.864 902.536,496.864 "/>
<path clip-path="url(#clip122)" d="M940.541 554.99 L940.541 1295.93 L959.544 1295.93 L959.544 554.99 L940.541 554.99 L940.541 554.99  Z" fill="#969696" fill-rule="evenodd" fill-opacity="1"/>
<polyline clip-path="url(#clip122)" style="stroke:#787878; stroke-linecap:round; stroke-linejoin:round; stroke-width:0; stroke-opacity:1; fill:none" points="940.541,554.99 940.541,1295.93 959.544,1295.93 959.544,554.99 940.541,554.99 "/>
<path clip-path="url(#clip122)" d="M978.546 536.384 L978.546 1295.93 L997.549 1295.93 L997.549 536.384 L978.546 536.384 L978.546 536.384  Z" fill="#969696" fill-rule="evenodd" fill-opacity="1"/>
<polyline clip-path="url(#clip122)" style="stroke:#787878; stroke-linecap:round; stroke-linejoin:round; stroke-width:0; stroke-opacity:1; fill:none" points="978.546,536.384 978.546,1295.93 997.549,1295.93 997.549,536.384 978.546,536.384 "/>
<path clip-path="url(#clip122)" d="M1016.55 412.047 L1016.55 1295.93 L1035.55 1295.93 L1035.55 412.047 L1016.55 412.047 L1016.55 412.047  Z" fill="#969696" fill-rule="evenodd" fill-opacity="1"/>
<polyline clip-path="url(#clip122)" style="stroke:#787878; stroke-linecap:round; stroke-linejoin:round; stroke-width:0; stroke-opacity:1; fill:none" points="1016.55,412.047 1016.55,1295.93 1035.55,1295.93 1035.55,412.047 1016.55,412.047 "/>
<path clip-path="url(#clip122)" d="M1054.56 412.328 L1054.56 1295.93 L1073.56 1295.93 L1073.56 412.328 L1054.56 412.328 L1054.56 412.328  Z" fill="#969696" fill-rule="evenodd" fill-opacity="1"/>
<polyline clip-path="url(#clip122)" style="stroke:#787878; stroke-linecap:round; stroke-linejoin:round; stroke-width:0; stroke-opacity:1; fill:none" points="1054.56,412.328 1054.56,1295.93 1073.56,1295.93 1073.56,412.328 1054.56,412.328 "/>
<path clip-path="url(#clip122)" d="M1092.56 519.402 L1092.56 1295.93 L1111.56 1295.93 L1111.56 519.402 L1092.56 519.402 L1092.56 519.402  Z" fill="#969696" fill-rule="evenodd" fill-opacity="1"/>
<polyline clip-path="url(#clip122)" style="stroke:#787878; stroke-linecap:round; stroke-linejoin:round; stroke-width:0; stroke-opacity:1; fill:none" points="1092.56,519.402 1092.56,1295.93 1111.56,1295.93 1111.56,519.402 1092.56,519.402 "/>
<circle clip-path="url(#clip122)" style="fill:#009af9; stroke:none; fill-opacity:0" cx="227.942" cy="611.68" r="2"/>
<circle clip-path="url(#clip122)" style="fill:#009af9; stroke:none; fill-opacity:0" cx="265.947" cy="561.233" r="2"/>
<circle clip-path="url(#clip122)" style="fill:#009af9; stroke:none; fill-opacity:0" cx="303.952" cy="563.356" r="2"/>
<circle clip-path="url(#clip122)" style="fill:#009af9; stroke:none; fill-opacity:0" cx="341.957" cy="556.925" r="2"/>
<circle clip-path="url(#clip122)" style="fill:#009af9; stroke:none; fill-opacity:0" cx="379.963" cy="549.652" r="2"/>
<circle clip-path="url(#clip122)" style="fill:#009af9; stroke:none; fill-opacity:0" cx="417.968" cy="532.732" r="2"/>
<circle clip-path="url(#clip122)" style="fill:#009af9; stroke:none; fill-opacity:0" cx="455.973" cy="442.483" r="2"/>
<circle clip-path="url(#clip122)" style="fill:#009af9; stroke:none; fill-opacity:0" cx="493.979" cy="389.383" r="2"/>
<circle clip-path="url(#clip122)" style="fill:#009af9; stroke:none; fill-opacity:0" cx="531.984" cy="410.736" r="2"/>
<circle clip-path="url(#clip122)" style="fill:#009af9; stroke:none; fill-opacity:0" cx="569.989" cy="418.103" r="2"/>
<circle clip-path="url(#clip122)" style="fill:#009af9; stroke:none; fill-opacity:0" cx="607.995" cy="270.103" r="2"/>
<circle clip-path="url(#clip122)" style="fill:#009af9; stroke:none; fill-opacity:0" cx="646" cy="271.695" r="2"/>
<circle clip-path="url(#clip122)" style="fill:#009af9; stroke:none; fill-opacity:0" cx="684.005" cy="277.689" r="2"/>
<circle clip-path="url(#clip122)" style="fill:#009af9; stroke:none; fill-opacity:0" cx="722.01" cy="285.743" r="2"/>
<circle clip-path="url(#clip122)" style="fill:#009af9; stroke:none; fill-opacity:0" cx="760.016" cy="275.566" r="2"/>
<circle clip-path="url(#clip122)" style="fill:#009af9; stroke:none; fill-opacity:0" cx="798.021" cy="397.531" r="2"/>
<circle clip-path="url(#clip122)" style="fill:#009af9; stroke:none; fill-opacity:0" cx="836.026" cy="484.283" r="2"/>
<circle clip-path="url(#clip122)" style="fill:#009af9; stroke:none; fill-opacity:0" cx="874.032" cy="525.677" r="2"/>
<circle clip-path="url(#clip122)" style="fill:#009af9; stroke:none; fill-opacity:0" cx="912.037" cy="496.864" r="2"/>
<circle clip-path="url(#clip122)" style="fill:#009af9; stroke:none; fill-opacity:0" cx="950.042" cy="554.99" r="2"/>
<circle clip-path="url(#clip122)" style="fill:#009af9; stroke:none; fill-opacity:0" cx="988.047" cy="536.384" r="2"/>
<circle clip-path="url(#clip122)" style="fill:#009af9; stroke:none; fill-opacity:0" cx="1026.05" cy="412.047" r="2"/>
<circle clip-path="url(#clip122)" style="fill:#009af9; stroke:none; fill-opacity:0" cx="1064.06" cy="412.328" r="2"/>
<circle clip-path="url(#clip122)" style="fill:#009af9; stroke:none; fill-opacity:0" cx="1102.06" cy="519.402" r="2"/>
<path clip-path="url(#clip120)" d="M730.053 175.542 L1108.4 175.542 L1108.4 68.0555 L730.053 68.0555  Z" fill="#ffffff" fill-rule="evenodd" fill-opacity="1"/>
<polyline clip-path="url(#clip120)" style="stroke:#000000; stroke-linecap:round; stroke-linejoin:round; stroke-width:4; stroke-opacity:1; fill:none" points="730.053,175.542 1108.4,175.542 1108.4,68.0555 730.053,68.0555 730.053,175.542 "/>
<path clip-path="url(#clip120)" d="M740.61 143.296 L803.952 143.296 L803.952 100.301 L740.61 100.301 L740.61 143.296  Z" fill="#969696" fill-rule="evenodd" fill-opacity="1"/>
<polyline clip-path="url(#clip120)" style="stroke:#787878; stroke-linecap:round; stroke-linejoin:round; stroke-width:0.8; stroke-opacity:1; fill:none" points="740.61,143.296 803.952,143.296 803.952,100.301 740.61,100.301 740.61,143.296 "/>
<g clip-path="url(#clip120)">
<text style="fill:#000000; fill-opacity:1; font-family:Book Antiqua,Palatino,Palatino Linotype,Palatino LT STD,Georgia,serif; font-size:51px; font-weight:bold; text-anchor:start;" transform="rotate(0, 814.509, 139.299)" x="814.509" y="139.299">System load</text>
</g>
<path clip-path="url(#clip120)" d="M1402.62 671.585 L2352.76 671.585 L2352.76 47.2441 L1402.62 47.2441  Z" fill="#ffffff" fill-rule="evenodd" fill-opacity="1"/>
<defs>
  <clipPath id="clip123">
    <rect x="1402" y="47" width="951" height="625"/>
  </clipPath>
</defs>
<polyline clip-path="url(#clip123)" style="stroke:#808080; stroke-linecap:round; stroke-linejoin:round; stroke-width:8; stroke-opacity:0.1; fill:none" points="1390.54,671.585 1390.54,47.2441 "/>
<polyline clip-path="url(#clip123)" style="stroke:#808080; stroke-linecap:round; stroke-linejoin:round; stroke-width:8; stroke-opacity:0.1; fill:none" points="1585.4,671.585 1585.4,47.2441 "/>
<polyline clip-path="url(#clip123)" style="stroke:#808080; stroke-linecap:round; stroke-linejoin:round; stroke-width:8; stroke-opacity:0.1; fill:none" points="1780.26,671.585 1780.26,47.2441 "/>
<polyline clip-path="url(#clip123)" style="stroke:#808080; stroke-linecap:round; stroke-linejoin:round; stroke-width:8; stroke-opacity:0.1; fill:none" points="1975.12,671.585 1975.12,47.2441 "/>
<polyline clip-path="url(#clip123)" style="stroke:#808080; stroke-linecap:round; stroke-linejoin:round; stroke-width:8; stroke-opacity:0.1; fill:none" points="2169.98,671.585 2169.98,47.2441 "/>
<polyline clip-path="url(#clip123)" style="stroke:#808080; stroke-linecap:round; stroke-linejoin:round; stroke-width:8; stroke-opacity:0.1; fill:none" points="2364.84,671.585 2364.84,47.2441 "/>
<polyline clip-path="url(#clip123)" style="stroke:#808080; stroke-linecap:round; stroke-linejoin:round; stroke-width:8; stroke-opacity:0.1; fill:none" points="1390.54,671.585 1390.54,47.2441 "/>
<polyline clip-path="url(#clip123)" style="stroke:#808080; stroke-linecap:round; stroke-linejoin:round; stroke-width:8; stroke-opacity:0.1; fill:none" points="1585.4,671.585 1585.4,47.2441 "/>
<polyline clip-path="url(#clip123)" style="stroke:#808080; stroke-linecap:round; stroke-linejoin:round; stroke-width:8; stroke-opacity:0.1; fill:none" points="1780.26,671.585 1780.26,47.2441 "/>
<polyline clip-path="url(#clip123)" style="stroke:#808080; stroke-linecap:round; stroke-linejoin:round; stroke-width:8; stroke-opacity:0.1; fill:none" points="1975.12,671.585 1975.12,47.2441 "/>
<polyline clip-path="url(#clip123)" style="stroke:#808080; stroke-linecap:round; stroke-linejoin:round; stroke-width:8; stroke-opacity:0.1; fill:none" points="2169.98,671.585 2169.98,47.2441 "/>
<polyline clip-path="url(#clip123)" style="stroke:#808080; stroke-linecap:round; stroke-linejoin:round; stroke-width:8; stroke-opacity:0.1; fill:none" points="2364.84,671.585 2364.84,47.2441 "/>
<polyline clip-path="url(#clip120)" style="stroke:#000000; stroke-linecap:round; stroke-linejoin:round; stroke-width:4; stroke-opacity:1; fill:none" points="1402.62,671.585 2352.76,671.585 "/>
<polyline clip-path="url(#clip120)" style="stroke:#000000; stroke-linecap:round; stroke-linejoin:round; stroke-width:4; stroke-opacity:1; fill:none" points="1402.62,47.2441 2352.76,47.2441 "/>
<polyline clip-path="url(#clip120)" style="stroke:#000000; stroke-linecap:round; stroke-linejoin:round; stroke-width:4; stroke-opacity:1; fill:none" points="1390.54,671.585 1390.54,652.688 "/>
<polyline clip-path="url(#clip120)" style="stroke:#000000; stroke-linecap:round; stroke-linejoin:round; stroke-width:4; stroke-opacity:1; fill:none" points="1585.4,671.585 1585.4,652.688 "/>
<polyline clip-path="url(#clip120)" style="stroke:#000000; stroke-linecap:round; stroke-linejoin:round; stroke-width:4; stroke-opacity:1; fill:none" points="1780.26,671.585 1780.26,652.688 "/>
<polyline clip-path="url(#clip120)" style="stroke:#000000; stroke-linecap:round; stroke-linejoin:round; stroke-width:4; stroke-opacity:1; fill:none" points="1975.12,671.585 1975.12,652.688 "/>
<polyline clip-path="url(#clip120)" style="stroke:#000000; stroke-linecap:round; stroke-linejoin:round; stroke-width:4; stroke-opacity:1; fill:none" points="2169.98,671.585 2169.98,652.688 "/>
<polyline clip-path="url(#clip120)" style="stroke:#000000; stroke-linecap:round; stroke-linejoin:round; stroke-width:4; stroke-opacity:1; fill:none" points="2364.84,671.585 2364.84,652.688 "/>
<polyline clip-path="url(#clip120)" style="stroke:#000000; stroke-linecap:round; stroke-linejoin:round; stroke-width:4; stroke-opacity:1; fill:none" points="1390.54,47.2441 1390.54,66.1417 "/>
<polyline clip-path="url(#clip120)" style="stroke:#000000; stroke-linecap:round; stroke-linejoin:round; stroke-width:4; stroke-opacity:1; fill:none" points="1585.4,47.2441 1585.4,66.1417 "/>
<polyline clip-path="url(#clip120)" style="stroke:#000000; stroke-linecap:round; stroke-linejoin:round; stroke-width:4; stroke-opacity:1; fill:none" points="1780.26,47.2441 1780.26,66.1417 "/>
<polyline clip-path="url(#clip120)" style="stroke:#000000; stroke-linecap:round; stroke-linejoin:round; stroke-width:4; stroke-opacity:1; fill:none" points="1975.12,47.2441 1975.12,66.1417 "/>
<polyline clip-path="url(#clip120)" style="stroke:#000000; stroke-linecap:round; stroke-linejoin:round; stroke-width:4; stroke-opacity:1; fill:none" points="2169.98,47.2441 2169.98,66.1417 "/>
<polyline clip-path="url(#clip120)" style="stroke:#000000; stroke-linecap:round; stroke-linejoin:round; stroke-width:4; stroke-opacity:1; fill:none" points="2364.84,47.2441 2364.84,66.1417 "/>
<g clip-path="url(#clip120)">
<text style="fill:#000000; fill-opacity:1; font-family:Book Antiqua,Palatino,Palatino Linotype,Palatino LT STD,Georgia,serif; font-size:51px; font-weight:bold; text-anchor:middle;" transform="rotate(0, 1390.54, 735.157)" x="1390.54" y="735.157">0</text>
</g>
<g clip-path="url(#clip120)">
<text style="fill:#000000; fill-opacity:1; font-family:Book Antiqua,Palatino,Palatino Linotype,Palatino LT STD,Georgia,serif; font-size:51px; font-weight:bold; text-anchor:middle;" transform="rotate(0, 1585.4, 735.157)" x="1585.4" y="735.157">5</text>
</g>
<g clip-path="url(#clip120)">
<text style="fill:#000000; fill-opacity:1; font-family:Book Antiqua,Palatino,Palatino Linotype,Palatino LT STD,Georgia,serif; font-size:51px; font-weight:bold; text-anchor:middle;" transform="rotate(0, 1780.26, 735.157)" x="1780.26" y="735.157">10</text>
</g>
<g clip-path="url(#clip120)">
<text style="fill:#000000; fill-opacity:1; font-family:Book Antiqua,Palatino,Palatino Linotype,Palatino LT STD,Georgia,serif; font-size:51px; font-weight:bold; text-anchor:middle;" transform="rotate(0, 1975.12, 735.157)" x="1975.12" y="735.157">15</text>
</g>
<g clip-path="url(#clip120)">
<text style="fill:#000000; fill-opacity:1; font-family:Book Antiqua,Palatino,Palatino Linotype,Palatino LT STD,Georgia,serif; font-size:51px; font-weight:bold; text-anchor:middle;" transform="rotate(0, 2169.98, 735.157)" x="2169.98" y="735.157">20</text>
</g>
<g clip-path="url(#clip120)">
<text style="fill:#000000; fill-opacity:1; font-family:Book Antiqua,Palatino,Palatino Linotype,Palatino LT STD,Georgia,serif; font-size:51px; font-weight:bold; text-anchor:middle;" transform="rotate(0, 2364.84, 735.157)" x="2364.84" y="735.157">25</text>
</g>
<path clip-path="url(#clip120)" d="M1851.02 778.479 Q1851.02 779.381 1850.61 779.607 Q1850.19 779.8 1849.03 779.8 L1842.84 779.8 L1837.95 799.252 Q1837.56 800.959 1837.56 802.408 Q1837.56 804.019 1838.05 804.727 Q1838.56 805.436 1839.62 805.436 Q1841.72 805.436 1843.97 803.536 Q1846.26 801.635 1848.19 796.998 Q1848.45 796.386 1848.58 796.257 Q1848.74 796.096 1849.16 796.096 Q1849.96 796.096 1849.96 796.74 Q1849.96 796.966 1849.51 797.996 Q1849.09 799.027 1848.16 800.54 Q1847.26 802.054 1846.06 803.471 Q1844.91 804.888 1843.13 805.919 Q1841.36 806.917 1839.46 806.917 Q1836.79 806.917 1835.08 805.21 Q1833.41 803.503 1833.41 800.83 Q1833.41 799.961 1834.08 797.191 Q1834.76 794.389 1838.43 779.8 L1832.6 779.8 Q1831.8 779.8 1831.48 779.768 Q1831.19 779.735 1830.96 779.574 Q1830.77 779.381 1830.77 778.995 Q1830.77 778.383 1831.02 778.125 Q1831.28 777.835 1831.6 777.803 Q1831.96 777.739 1832.76 777.739 L1838.95 777.739 L1841.52 767.272 Q1841.78 766.241 1842.43 765.662 Q1843.1 765.05 1843.49 764.985 Q1843.87 764.889 1844.16 764.889 Q1845.03 764.889 1845.55 765.372 Q1846.06 765.823 1846.06 766.66 Q1846.06 767.111 1843.36 777.739 L1849.16 777.739 Q1849.9 777.739 1850.19 777.771 Q1850.51 777.803 1850.77 777.964 Q1851.02 778.125 1851.02 778.479 Z" fill="#000000" fill-rule="nonzero" fill-opacity="1" /><path clip-path="url(#clip120)" d="M1854.34 821.732 Q1854.34 821.41 1854.6 820.701 L1877.88 758.48 Q1877.88 758.415 1878.04 758.061 Q1878.2 757.707 1878.3 757.481 Q1878.4 757.224 1878.59 757.03 Q1878.82 756.837 1879.07 756.837 Q1879.72 756.837 1879.72 757.642 Q1879.72 757.707 1879.52 758.48 L1856.18 820.766 Q1855.79 821.893 1855.53 822.215 Q1855.31 822.537 1854.92 822.537 Q1854.34 822.537 1854.34 821.732 Z" fill="#000000" fill-rule="nonzero" fill-opacity="1" /><path clip-path="url(#clip120)" d="M1919.37 796.74 Q1919.37 796.998 1919.08 797.996 Q1918.79 798.995 1918.08 800.54 Q1917.41 802.086 1916.47 803.503 Q1915.54 804.888 1913.99 805.919 Q1912.48 806.917 1910.74 806.917 Q1908.42 806.917 1906.88 805.371 Q1905.33 803.825 1905.33 801.507 Q1905.33 801.185 1905.36 800.863 Q1905.39 800.54 1905.43 800.347 Q1905.46 800.122 1905.55 799.768 Q1905.68 799.381 1905.72 799.22 Q1905.78 799.059 1905.94 798.576 Q1906.13 798.061 1906.2 797.867 Q1910.29 787.433 1910.29 783.085 Q1910.29 778.479 1906.71 778.479 Q1903.53 778.479 1900.37 780.798 Q1898.92 781.958 1897.54 784.019 Q1896.15 786.08 1895.89 786.853 Q1895.6 788.528 1895.18 789.816 Q1894.99 790.718 1894.06 794.228 L1892.61 800.186 L1891.35 805.178 Q1891.09 805.887 1890.39 806.402 Q1889.68 806.917 1888.9 806.917 Q1888.26 806.917 1887.62 806.466 Q1887 806.048 1887 805.049 Q1887 804.534 1887.26 803.6 L1896.83 765.597 L1897.02 764.309 Q1897.02 763.922 1896.86 763.729 Q1896.73 763.504 1895.96 763.343 Q1895.22 763.182 1893.74 763.182 Q1893.12 763.182 1892.83 763.149 Q1892.58 763.117 1892.35 762.956 Q1892.12 762.763 1892.12 762.377 Q1892.12 761.829 1892.35 761.539 Q1892.61 761.217 1892.8 761.153 Q1892.99 761.088 1893.38 761.056 Q1893.93 761.024 1895.76 760.863 Q1897.6 760.67 1899.18 760.541 Q1900.76 760.412 1901.43 760.412 Q1901.82 760.412 1902.01 760.605 Q1902.24 760.766 1902.27 760.959 L1902.3 761.121 L1897.15 782.087 Q1901.24 777.03 1906.91 777.03 Q1910.58 777.03 1912.54 778.93 Q1914.51 780.798 1914.51 784.083 Q1914.51 787.851 1910.48 798.576 Q1909.29 801.571 1909.29 803.278 Q1909.29 804.405 1909.64 804.92 Q1910.03 805.436 1910.87 805.436 Q1912.16 805.436 1913.28 804.695 Q1914.44 803.922 1915.25 802.666 Q1916.05 801.378 1916.6 800.09 Q1917.18 798.769 1917.6 797.288 Q1917.86 796.483 1917.99 796.289 Q1918.15 796.096 1918.6 796.096 Q1919.37 796.096 1919.37 796.74 Z" fill="#000000" fill-rule="nonzero" fill-opacity="1" /><polyline clip-path="url(#clip123)" style="stroke:#808080; stroke-linecap:round; stroke-linejoin:round; stroke-width:8; stroke-opacity:0.1; fill:none" points="1402.62,604.692 2352.76,604.692 "/>
<polyline clip-path="url(#clip123)" style="stroke:#808080; stroke-linecap:round; stroke-linejoin:round; stroke-width:8; stroke-opacity:0.1; fill:none" points="1402.62,493.202 2352.76,493.202 "/>
<polyline clip-path="url(#clip123)" style="stroke:#808080; stroke-linecap:round; stroke-linejoin:round; stroke-width:8; stroke-opacity:0.1; fill:none" points="1402.62,381.713 2352.76,381.713 "/>
<polyline clip-path="url(#clip123)" style="stroke:#808080; stroke-linecap:round; stroke-linejoin:round; stroke-width:8; stroke-opacity:0.1; fill:none" points="1402.62,270.223 2352.76,270.223 "/>
<polyline clip-path="url(#clip123)" style="stroke:#808080; stroke-linecap:round; stroke-linejoin:round; stroke-width:8; stroke-opacity:0.1; fill:none" points="1402.62,158.734 2352.76,158.734 "/>
<polyline clip-path="url(#clip123)" style="stroke:#808080; stroke-linecap:round; stroke-linejoin:round; stroke-width:8; stroke-opacity:0.1; fill:none" points="1402.62,604.692 2352.76,604.692 "/>
<polyline clip-path="url(#clip123)" style="stroke:#808080; stroke-linecap:round; stroke-linejoin:round; stroke-width:8; stroke-opacity:0.1; fill:none" points="1402.62,493.202 2352.76,493.202 "/>
<polyline clip-path="url(#clip123)" style="stroke:#808080; stroke-linecap:round; stroke-linejoin:round; stroke-width:8; stroke-opacity:0.1; fill:none" points="1402.62,381.713 2352.76,381.713 "/>
<polyline clip-path="url(#clip123)" style="stroke:#808080; stroke-linecap:round; stroke-linejoin:round; stroke-width:8; stroke-opacity:0.1; fill:none" points="1402.62,270.223 2352.76,270.223 "/>
<polyline clip-path="url(#clip123)" style="stroke:#808080; stroke-linecap:round; stroke-linejoin:round; stroke-width:8; stroke-opacity:0.1; fill:none" points="1402.62,158.734 2352.76,158.734 "/>
<polyline clip-path="url(#clip120)" style="stroke:#000000; stroke-linecap:round; stroke-linejoin:round; stroke-width:4; stroke-opacity:1; fill:none" points="1402.62,671.585 1402.62,47.2441 "/>
<polyline clip-path="url(#clip120)" style="stroke:#000000; stroke-linecap:round; stroke-linejoin:round; stroke-width:4; stroke-opacity:1; fill:none" points="2352.76,671.585 2352.76,47.2441 "/>
<polyline clip-path="url(#clip120)" style="stroke:#000000; stroke-linecap:round; stroke-linejoin:round; stroke-width:4; stroke-opacity:1; fill:none" points="1402.62,604.692 1421.52,604.692 "/>
<polyline clip-path="url(#clip120)" style="stroke:#000000; stroke-linecap:round; stroke-linejoin:round; stroke-width:4; stroke-opacity:1; fill:none" points="1402.62,493.202 1421.52,493.202 "/>
<polyline clip-path="url(#clip120)" style="stroke:#000000; stroke-linecap:round; stroke-linejoin:round; stroke-width:4; stroke-opacity:1; fill:none" points="1402.62,381.713 1421.52,381.713 "/>
<polyline clip-path="url(#clip120)" style="stroke:#000000; stroke-linecap:round; stroke-linejoin:round; stroke-width:4; stroke-opacity:1; fill:none" points="1402.62,270.223 1421.52,270.223 "/>
<polyline clip-path="url(#clip120)" style="stroke:#000000; stroke-linecap:round; stroke-linejoin:round; stroke-width:4; stroke-opacity:1; fill:none" points="1402.62,158.734 1421.52,158.734 "/>
<polyline clip-path="url(#clip120)" style="stroke:#000000; stroke-linecap:round; stroke-linejoin:round; stroke-width:4; stroke-opacity:1; fill:none" points="2352.76,604.692 2333.86,604.692 "/>
<polyline clip-path="url(#clip120)" style="stroke:#000000; stroke-linecap:round; stroke-linejoin:round; stroke-width:4; stroke-opacity:1; fill:none" points="2352.76,493.202 2333.86,493.202 "/>
<polyline clip-path="url(#clip120)" style="stroke:#000000; stroke-linecap:round; stroke-linejoin:round; stroke-width:4; stroke-opacity:1; fill:none" points="2352.76,381.713 2333.86,381.713 "/>
<polyline clip-path="url(#clip120)" style="stroke:#000000; stroke-linecap:round; stroke-linejoin:round; stroke-width:4; stroke-opacity:1; fill:none" points="2352.76,270.223 2333.86,270.223 "/>
<polyline clip-path="url(#clip120)" style="stroke:#000000; stroke-linecap:round; stroke-linejoin:round; stroke-width:4; stroke-opacity:1; fill:none" points="2352.76,158.734 2333.86,158.734 "/>
<g clip-path="url(#clip120)">
<text style="fill:#000000; fill-opacity:1; font-family:Book Antiqua,Palatino,Palatino Linotype,Palatino LT STD,Georgia,serif; font-size:51px; font-weight:bold; text-anchor:middle;" transform="rotate(0, 1322.22, 622.192)" x="1322.22" y="622.192">0.35</text>
</g>
<g clip-path="url(#clip120)">
<text style="fill:#000000; fill-opacity:1; font-family:Book Antiqua,Palatino,Palatino Linotype,Palatino LT STD,Georgia,serif; font-size:51px; font-weight:bold; text-anchor:middle;" transform="rotate(0, 1322.22, 510.702)" x="1322.22" y="510.702">0.40</text>
</g>
<g clip-path="url(#clip120)">
<text style="fill:#000000; fill-opacity:1; font-family:Book Antiqua,Palatino,Palatino Linotype,Palatino LT STD,Georgia,serif; font-size:51px; font-weight:bold; text-anchor:middle;" transform="rotate(0, 1322.22, 399.213)" x="1322.22" y="399.213">0.45</text>
</g>
<g clip-path="url(#clip120)">
<text style="fill:#000000; fill-opacity:1; font-family:Book Antiqua,Palatino,Palatino Linotype,Palatino LT STD,Georgia,serif; font-size:51px; font-weight:bold; text-anchor:middle;" transform="rotate(0, 1322.22, 287.723)" x="1322.22" y="287.723">0.50</text>
</g>
<g clip-path="url(#clip120)">
<text style="fill:#000000; fill-opacity:1; font-family:Book Antiqua,Palatino,Palatino Linotype,Palatino LT STD,Georgia,serif; font-size:51px; font-weight:bold; text-anchor:middle;" transform="rotate(0, 1322.22, 176.234)" x="1322.22" y="176.234">0.55</text>
</g>
<path clip-path="url(#clip120)" d="M1207.29 553.178 Q1197.21 553.178 1190.18 546.737 Q1183.13 540.263 1183.13 531.278 Q1183.13 522.228 1190.18 515.787 Q1197.24 509.313 1207.29 509.313 Q1217.24 509.313 1224.16 515.787 Q1231.09 522.26 1231.09 531.278 Q1231.09 540.167 1224.19 546.672 Q1217.3 553.178 1207.29 553.178 M1206.35 546.382 Q1212.47 546.382 1217.17 544.933 Q1221.84 543.484 1224.39 541.165 Q1226.93 538.814 1228.16 536.302 Q1229.38 533.79 1229.38 531.213 Q1229.38 528.701 1228.19 526.254 Q1227 523.774 1224.48 521.423 Q1221.97 519.072 1217.27 517.59 Q1212.57 516.109 1206.35 516.109 Q1201.52 516.109 1197.66 517.139 Q1193.76 518.17 1191.41 519.78 Q1189.06 521.391 1187.51 523.484 Q1185.97 525.545 1185.39 527.51 Q1184.77 529.442 1184.77 531.278 Q1184.77 533.597 1185.8 536.012 Q1186.84 538.428 1189.12 540.875 Q1191.38 543.291 1195.85 544.836 Q1200.3 546.382 1206.35 546.382 Z" fill="#000000" fill-rule="nonzero" fill-opacity="1" /><path clip-path="url(#clip120)" d="M1203.26 502.955 L1201.2 502.955 L1200.49 493.261 L1222.39 493.261 Q1223.97 493.261 1224.9 493.133 Q1225.8 493.004 1226.87 492.488 Q1227.93 491.941 1228.41 490.717 Q1228.9 489.461 1228.9 487.464 Q1228.9 483.889 1225.97 481.699 Q1223.03 479.477 1218.69 479.477 L1206.93 479.477 Q1204.48 479.477 1203.87 480.347 Q1203.26 481.216 1203.26 484.63 L1201.2 484.63 L1200.49 474.936 L1223.9 474.936 Q1226.35 474.936 1227 474.099 Q1227.61 473.229 1227.61 469.783 L1229.64 469.783 L1230.38 479.284 L1224.42 479.284 Q1230.35 482.054 1230.38 487.786 Q1230.38 490.685 1229.64 492.682 Q1228.9 494.646 1227.99 495.645 Q1227.06 496.643 1225.29 497.19 Q1223.52 497.706 1222.42 497.77 Q1221.33 497.835 1219.2 497.835 L1209.31 497.835 Q1204.84 497.835 1204.07 498.479 Q1203.26 499.123 1203.26 502.955 Z" fill="#000000" fill-rule="nonzero" fill-opacity="1" /><path clip-path="url(#clip120)" d="M1203.26 467.511 L1201.81 467.511 Q1201.68 464.483 1199.56 462.486 Q1197.4 460.458 1194.76 459.781 Q1192.12 459.073 1189.06 459.008 L1189.06 457.366 L1201.2 457.366 L1201.2 447.929 L1203.26 447.929 L1203.26 457.366 L1221.59 457.366 Q1228.7 457.366 1228.7 452.921 Q1228.7 451.021 1226.77 449.765 Q1224.81 448.509 1221.33 448.509 L1217.69 448.509 L1217.69 446.867 L1221.46 446.867 Q1225.03 446.867 1227.7 448.509 Q1230.38 450.152 1230.38 453.404 Q1230.38 454.596 1230.06 455.788 Q1229.77 456.947 1228.99 458.493 Q1228.19 460.007 1226.26 460.973 Q1224.29 461.907 1221.46 461.907 L1203.26 461.907 L1203.26 467.511 Z" fill="#000000" fill-rule="nonzero" fill-opacity="1" /><path clip-path="url(#clip120)" d="M1240.39 446.671 Q1240.39 443.161 1239.94 442.356 Q1239.52 441.518 1237.43 441.518 L1206.55 441.518 Q1204.36 441.518 1203.81 442.356 Q1203.26 443.161 1203.26 446.671 L1201.2 446.671 L1200.49 437.17 L1204.84 437.17 Q1200.49 433.209 1200.49 427.927 Q1200.49 422.324 1204.84 418.233 Q1209.19 414.143 1215.4 414.143 Q1221.68 414.143 1226.03 418.491 Q1230.38 422.839 1230.38 428.861 Q1230.38 432.146 1228.7 434.369 Q1227 436.559 1225.74 436.977 L1226.35 436.977 L1237.43 436.977 Q1239.56 436.977 1239.97 436.14 Q1240.39 435.303 1240.39 431.824 L1242.42 431.824 Q1242.23 438.749 1242.23 439.264 Q1242.23 439.908 1242.42 446.671 L1240.39 446.671 M1222.13 436.977 Q1223.13 436.977 1223.49 436.848 Q1223.84 436.687 1224.9 436.043 Q1228.9 433.435 1228.9 429.183 Q1228.9 429.151 1228.9 429.119 Q1228.9 425.351 1225.06 422.485 Q1221.2 419.618 1215.4 419.618 Q1209.86 419.618 1206 422.227 Q1202.13 424.836 1202.13 428.443 Q1202.13 431.019 1203.52 433.274 Q1204.9 435.528 1207.41 436.977 L1222.13 436.977 Z" fill="#000000" fill-rule="nonzero" fill-opacity="1" /><path clip-path="url(#clip120)" d="M1203.26 406.21 L1201.2 406.21 L1200.49 396.517 L1222.39 396.517 Q1223.97 396.517 1224.9 396.388 Q1225.8 396.259 1226.87 395.744 Q1227.93 395.196 1228.41 393.972 Q1228.9 392.716 1228.9 390.719 Q1228.9 387.145 1225.97 384.955 Q1223.03 382.732 1218.69 382.732 L1206.93 382.732 Q1204.48 382.732 1203.87 383.602 Q1203.26 384.472 1203.26 387.885 L1201.2 387.885 L1200.49 378.191 L1223.9 378.191 Q1226.35 378.191 1227 377.354 Q1227.61 376.484 1227.61 373.038 L1229.64 373.038 L1230.38 382.539 L1224.42 382.539 Q1230.35 385.309 1230.38 391.042 Q1230.38 393.94 1229.64 395.937 Q1228.9 397.901 1227.99 398.9 Q1227.06 399.898 1225.29 400.446 Q1223.52 400.961 1222.42 401.025 Q1221.33 401.09 1219.2 401.09 L1209.31 401.09 Q1204.84 401.09 1204.07 401.734 Q1203.26 402.378 1203.26 406.21 Z" fill="#000000" fill-rule="nonzero" fill-opacity="1" /><path clip-path="url(#clip120)" d="M1203.26 370.766 L1201.81 370.766 Q1201.68 367.738 1199.56 365.742 Q1197.4 363.713 1194.76 363.036 Q1192.12 362.328 1189.06 362.263 L1189.06 360.621 L1201.2 360.621 L1201.2 351.185 L1203.26 351.185 L1203.26 360.621 L1221.59 360.621 Q1228.7 360.621 1228.7 356.177 Q1228.7 354.276 1226.77 353.02 Q1224.81 351.764 1221.33 351.764 L1217.69 351.764 L1217.69 350.122 L1221.46 350.122 Q1225.03 350.122 1227.7 351.764 Q1230.38 353.407 1230.38 356.66 Q1230.38 357.851 1230.06 359.043 Q1229.77 360.202 1228.99 361.748 Q1228.19 363.262 1226.26 364.228 Q1224.29 365.162 1221.46 365.162 L1203.26 365.162 L1203.26 370.766 Z" fill="#000000" fill-rule="nonzero" fill-opacity="1" /><path clip-path="url(#clip120)" d="M1245.19 328.007 Q1244.87 328.007 1244.16 327.749 L1181.94 304.464 Q1181.88 304.464 1181.52 304.303 Q1181.17 304.142 1180.94 304.046 Q1180.68 303.949 1180.49 303.756 Q1180.3 303.531 1180.3 303.273 Q1180.3 302.629 1181.1 302.629 Q1181.17 302.629 1181.94 302.822 L1244.23 326.171 Q1245.35 326.558 1245.68 326.815 Q1246 327.041 1246 327.427 Q1246 328.007 1245.19 328.007 Z" fill="#000000" fill-rule="nonzero" fill-opacity="1" /><path clip-path="url(#clip120)" d="M1240.39 295.343 Q1240.39 291.832 1239.94 291.027 Q1239.52 290.19 1237.43 290.19 L1206.55 290.19 Q1204.36 290.19 1203.81 291.027 Q1203.26 291.832 1203.26 295.343 L1201.2 295.343 L1200.49 285.842 L1204.84 285.842 Q1200.49 281.881 1200.49 276.599 Q1200.49 270.995 1204.84 266.905 Q1209.19 262.815 1215.4 262.815 Q1221.68 262.815 1226.03 267.163 Q1230.38 271.511 1230.38 277.533 Q1230.38 280.818 1228.7 283.04 Q1227 285.23 1225.74 285.649 L1226.35 285.649 L1237.43 285.649 Q1239.56 285.649 1239.97 284.812 Q1240.39 283.974 1240.39 280.496 L1242.42 280.496 Q1242.23 287.42 1242.23 287.936 Q1242.23 288.58 1242.42 295.343 L1240.39 295.343 M1222.13 285.649 Q1223.13 285.649 1223.49 285.52 Q1223.84 285.359 1224.9 284.715 Q1228.9 282.106 1228.9 277.855 Q1228.9 277.823 1228.9 277.791 Q1228.9 274.023 1225.06 271.156 Q1221.2 268.29 1215.4 268.29 Q1209.86 268.29 1206 270.899 Q1202.13 273.507 1202.13 277.114 Q1202.13 279.691 1203.52 281.945 Q1204.9 284.2 1207.41 285.649 L1222.13 285.649 Z" fill="#000000" fill-rule="nonzero" fill-opacity="1" /><path clip-path="url(#clip120)" d="M1228.57 258.108 Q1227.51 259.106 1226.13 259.106 Q1224.74 259.106 1223.74 258.108 Q1222.71 257.109 1222.71 255.596 Q1222.71 254.147 1223.68 253.18 Q1224.61 252.182 1226.16 252.182 Q1227.67 252.182 1228.67 253.245 Q1229.64 254.275 1229.64 255.596 Q1229.64 257.109 1228.57 258.108 Z" fill="#000000" fill-rule="nonzero" fill-opacity="1" /><path clip-path="url(#clip120)" d="M1203.26 230.497 L1201.2 230.497 L1200.49 220.803 L1222.39 220.803 Q1223.97 220.803 1224.9 220.675 Q1225.8 220.546 1226.87 220.03 Q1227.93 219.483 1228.41 218.259 Q1228.9 217.003 1228.9 215.006 Q1228.9 211.431 1225.97 209.241 Q1223.03 207.019 1218.69 207.019 L1206.93 207.019 Q1204.48 207.019 1203.87 207.889 Q1203.26 208.758 1203.26 212.172 L1201.2 212.172 L1200.49 202.478 L1223.9 202.478 Q1226.35 202.478 1227 201.641 Q1227.61 200.771 1227.61 197.325 L1229.64 197.325 L1230.38 206.826 L1224.42 206.826 Q1230.35 209.596 1230.38 215.328 Q1230.38 218.227 1229.64 220.224 Q1228.9 222.188 1227.99 223.187 Q1227.06 224.185 1225.29 224.733 Q1223.52 225.248 1222.42 225.312 Q1221.33 225.377 1219.2 225.377 L1209.31 225.377 Q1204.84 225.377 1204.07 226.021 Q1203.26 226.665 1203.26 230.497 Z" fill="#000000" fill-rule="nonzero" fill-opacity="1" /><path clip-path="url(#clip120)" d="M1228.57 193.262 Q1227.51 194.261 1226.13 194.261 Q1224.74 194.261 1223.74 193.262 Q1222.71 192.264 1222.71 190.75 Q1222.71 189.301 1223.68 188.335 Q1224.61 187.336 1226.16 187.336 Q1227.67 187.336 1228.67 188.399 Q1229.64 189.43 1229.64 190.75 Q1229.64 192.264 1228.57 193.262 Z" fill="#000000" fill-rule="nonzero" fill-opacity="1" /><polyline clip-path="url(#clip123)" style="stroke:#ffa500; stroke-linecap:round; stroke-linejoin:round; stroke-width:2; stroke-opacity:1; fill:none" stroke-dasharray="8, 5" points="1429.51,409.5 1468.49,388.176 1507.46,445.563 1546.43,413.705 1585.4,474.934 1624.37,575.224 1663.34,445.478 1702.32,444.543 1741.29,377.946 1780.26,424.317 1819.23,412.687 1858.2,412.254 1897.18,347.607 1936.15,436.155 1975.12,354.565 2014.09,382.932 2053.06,407.496 2092.03,427.261 2131.01,412.882 2169.98,388.862 2208.95,276.237 2247.92,372.915 2286.89,338.759 2325.87,419.036 "/>
<polyline clip-path="url(#clip123)" style="stroke:#ffa500; stroke-linecap:round; stroke-linejoin:round; stroke-width:2; stroke-opacity:1; fill:none" stroke-dasharray="8, 5" points="1429.51,427.421 1468.49,395.742 1507.46,408.377 1546.43,413.065 1585.4,482.001 1624.37,522.852 1663.34,466.666 1702.32,431.33 1741.29,320.709 1780.26,434.822 1819.23,455.97 1858.2,394.163 1897.18,372.381 1936.15,468.404 1975.12,424.81 2014.09,376.638 2053.06,404.988 2092.03,473.073 2131.01,455.893 2169.98,408.713 2208.95,336.274 2247.92,354.249 2286.89,328.163 2325.87,438.258 "/>
<polyline clip-path="url(#clip123)" style="stroke:#ffa500; stroke-linecap:round; stroke-linejoin:round; stroke-width:2; stroke-opacity:1; fill:none" stroke-dasharray="8, 5" points="1429.51,399.942 1468.49,388.942 1507.46,374.913 1546.43,418.353 1585.4,453.772 1624.37,508.743 1663.34,443.346 1702.32,411.338 1741.29,392.706 1780.26,400.823 1819.23,412.749 1858.2,419.599 1897.18,331.031 1936.15,418.763 1975.12,372.778 2014.09,382.903 2053.06,434.498 2092.03,416.902 2131.01,427.405 2169.98,440.779 2208.95,305.515 2247.92,455.989 2286.89,411.058 2325.87,432.014 "/>
<polyline clip-path="url(#clip123)" style="stroke:#ffa500; stroke-linecap:round; stroke-linejoin:round; stroke-width:2; stroke-opacity:1; fill:none" stroke-dasharray="8, 5" points="1429.51,447.283 1468.49,462.583 1507.46,413.964 1546.43,439.936 1585.4,462.942 1624.37,519.16 1663.34,432.99 1702.32,447.031 1741.29,388.447 1780.26,399.506 1819.23,371.024 1858.2,371.178 1897.18,343.407 1936.15,465.522 1975.12,290.398 2014.09,394.606 2053.06,423.922 2092.03,407.348 2131.01,444.546 2169.98,438.178 2208.95,280.977 2247.92,417.696 2286.89,303.635 2325.87,429.985 "/>
<polyline clip-path="url(#clip123)" style="stroke:#ffa500; stroke-linecap:round; stroke-linejoin:round; stroke-width:2; stroke-opacity:1; fill:none" stroke-dasharray="8, 5" points="1429.51,401.453 1468.49,391.16 1507.46,438.803 1546.43,451.33 1585.4,471.738 1624.37,566.673 1663.34,417.766 1702.32,450.487 1741.29,354.249 1780.26,351.445 1819.23,498.684 1858.2,401.254 1897.18,372.023 1936.15,349.971 1975.12,326.702 2014.09,374.753 2053.06,441.975 2092.03,463.471 2131.01,430.616 2169.98,427.715 2208.95,328.133 2247.92,441.494 2286.89,463.196 2325.87,497.445 "/>
<polyline clip-path="url(#clip123)" style="stroke:#ffa500; stroke-linecap:round; stroke-linejoin:round; stroke-width:2; stroke-opacity:1; fill:none" stroke-dasharray="8, 5" points="1429.51,426.611 1468.49,349.685 1507.46,416.239 1546.43,425.518 1585.4,418.461 1624.37,597.333 1663.34,480.122 1702.32,345.792 1741.29,388.76 1780.26,357.653 1819.23,401.044 1858.2,443.754 1897.18,364.568 1936.15,391.425 1975.12,349.359 2014.09,307.62 2053.06,405.617 2092.03,475.706 2131.01,432.45 2169.98,421.966 2208.95,295.744 2247.92,474.633 2286.89,323.329 2325.87,375.232 "/>
<polyline clip-path="url(#clip123)" style="stroke:#ffa500; stroke-linecap:round; stroke-linejoin:round; stroke-width:2; stroke-opacity:1; fill:none" stroke-dasharray="8, 5" points="1429.51,432.164 1468.49,429.666 1507.46,391.841 1546.43,486.621 1585.4,478.081 1624.37,521.808 1663.34,465.826 1702.32,426.854 1741.29,378.347 1780.26,382.888 1819.23,402.691 1858.2,434.168 1897.18,386.935 1936.15,378.088 1975.12,481.427 2014.09,394.22 2053.06,422.772 2092.03,491.403 2131.01,440.11 2169.98,449.229 2208.95,319.813 2247.92,378.066 2286.89,389.25 2325.87,418.763 "/>
<polyline clip-path="url(#clip123)" style="stroke:#ffa500; stroke-linecap:round; stroke-linejoin:round; stroke-width:2; stroke-opacity:1; fill:none" stroke-dasharray="8, 5" points="1429.51,363.748 1468.49,391.712 1507.46,428.333 1546.43,373.939 1585.4,433.573 1624.37,584.974 1663.34,449.097 1702.32,475.162 1741.29,391.563 1780.26,383.137 1819.23,460.008 1858.2,417.561 1897.18,399.281 1936.15,413.29 1975.12,344.232 2014.09,360.783 2053.06,395.61 2092.03,416.602 2131.01,459.794 2169.98,398.189 2208.95,311.867 2247.92,364.92 2286.89,396.346 2325.87,432.222 "/>
<polyline clip-path="url(#clip123)" style="stroke:#ffa500; stroke-linecap:round; stroke-linejoin:round; stroke-width:2; stroke-opacity:1; fill:none" stroke-dasharray="8, 5" points="1429.51,390.613 1468.49,404.645 1507.46,430.204 1546.43,415.717 1585.4,364.341 1624.37,558.934 1663.34,441.219 1702.32,418.356 1741.29,390.115 1780.26,393.735 1819.23,415.737 1858.2,395.994 1897.18,410.309 1936.15,431.581 1975.12,366.672 2014.09,366.531 2053.06,371.235 2092.03,456.31 2131.01,403.93 2169.98,458.811 2208.95,319.544 2247.92,399.385 2286.89,400.315 2325.87,440.178 "/>
<polyline clip-path="url(#clip123)" style="stroke:#ffa500; stroke-linecap:round; stroke-linejoin:round; stroke-width:2; stroke-opacity:1; fill:none" stroke-dasharray="8, 5" points="1429.51,352.551 1468.49,433.68 1507.46,388.72 1546.43,425.982 1585.4,449.925 1624.37,553.803 1663.34,404.183 1702.32,404.92 1741.29,386.889 1780.26,380.175 1819.23,403.496 1858.2,422.754 1897.18,383.943 1936.15,393.654 1975.12,447.544 2014.09,356.146 2053.06,383.366 2092.03,407.249 2131.01,412.955 2169.98,425.101 2208.95,340.806 2247.92,412.012 2286.89,364.791 2325.87,438.744 "/>
<polyline clip-path="url(#clip123)" style="stroke:#ffa500; stroke-linecap:round; stroke-linejoin:round; stroke-width:2; stroke-opacity:1; fill:none" stroke-dasharray="8, 5" points="1429.51,416.54 1468.49,346.137 1507.46,425.626 1546.43,379.519 1585.4,435.069 1624.37,559.071 1663.34,464.801 1702.32,439.633 1741.29,380.441 1780.26,373.688 1819.23,423.149 1858.2,429.025 1897.18,384.594 1936.15,349.493 1975.12,359.021 2014.09,366.716 2053.06,399.98 2092.03,398.561 2131.01,435.207 2169.98,440.329 2208.95,295.542 2247.92,423.646 2286.89,356.014 2325.87,432.05 "/>
<polyline clip-path="url(#clip123)" style="stroke:#ffa500; stroke-linecap:round; stroke-linejoin:round; stroke-width:2; stroke-opacity:1; fill:none" stroke-dasharray="8, 5" points="1429.51,435.575 1468.49,448.222 1507.46,433.65 1546.43,432.92 1585.4,461.111 1624.37,567.555 1663.34,453.016 1702.32,488.824 1741.29,381.599 1780.26,382.87 1819.23,406.17 1858.2,416.124 1897.18,389.173 1936.15,395.888 1975.12,308.908 2014.09,352.097 2053.06,422.188 2092.03,377.519 2131.01,383.508 2169.98,469.602 2208.95,294.992 2247.92,425.088 2286.89,411.563 2325.87,359.76 "/>
<polyline clip-path="url(#clip123)" style="stroke:#ffa500; stroke-linecap:round; stroke-linejoin:round; stroke-width:2; stroke-opacity:1; fill:none" stroke-dasharray="8, 5" points="1429.51,424.509 1468.49,428.17 1507.46,347.426 1546.43,434.827 1585.4,448.202 1624.37,532.519 1663.34,424.067 1702.32,386.069 1741.29,340.18 1780.26,454.339 1819.23,398.949 1858.2,367.353 1897.18,344.155 1936.15,427.489 1975.12,347.86 2014.09,326.095 2053.06,503.045 2092.03,472.863 2131.01,452.061 2169.98,427.055 2208.95,316.533 2247.92,368.335 2286.89,392.466 2325.87,429.062 "/>
<polyline clip-path="url(#clip123)" style="stroke:#ffa500; stroke-linecap:round; stroke-linejoin:round; stroke-width:2; stroke-opacity:1; fill:none" stroke-dasharray="8, 5" points="1429.51,462.038 1468.49,394.62 1507.46,436.182 1546.43,444.87 1585.4,499.683 1624.37,547.968 1663.34,418.48 1702.32,425.696 1741.29,334.233 1780.26,367.943 1819.23,418.64 1858.2,419.653 1897.18,359.564 1936.15,408.066 1975.12,361.774 2014.09,356.195 2053.06,430.865 2092.03,382.295 2131.01,398.382 2169.98,497.878 2208.95,374.028 2247.92,434.31 2286.89,361.666 2325.87,443.366 "/>
<polyline clip-path="url(#clip123)" style="stroke:#ffa500; stroke-linecap:round; stroke-linejoin:round; stroke-width:2; stroke-opacity:1; fill:none" stroke-dasharray="8, 5" points="1429.51,451.75 1468.49,382.735 1507.46,418.973 1546.43,406.312 1585.4,447.947 1624.37,534.825 1663.34,367.786 1702.32,412.823 1741.29,408.782 1780.26,357.172 1819.23,469.033 1858.2,405.973 1897.18,371.359 1936.15,422.448 1975.12,352.423 2014.09,358.867 2053.06,397.128 2092.03,423.407 2131.01,396.151 2169.98,444.51 2208.95,324.939 2247.92,383.56 2286.89,443.115 2325.87,415.311 "/>
<polyline clip-path="url(#clip123)" style="stroke:#ffa500; stroke-linecap:round; stroke-linejoin:round; stroke-width:2; stroke-opacity:1; fill:none" stroke-dasharray="8, 5" points="1429.51,394.949 1468.49,420.891 1507.46,398.984 1546.43,385.919 1585.4,447.78 1624.37,542.632 1663.34,425.889 1702.32,411.83 1741.29,294.487 1780.26,346.299 1819.23,422.214 1858.2,388.752 1897.18,411.267 1936.15,388.044 1975.12,343.863 2014.09,404.503 2053.06,490.412 2092.03,387.904 2131.01,455.087 2169.98,435.683 2208.95,330.855 2247.92,368.83 2286.89,389.032 2325.87,429.234 "/>
<polyline clip-path="url(#clip123)" style="stroke:#ffa500; stroke-linecap:round; stroke-linejoin:round; stroke-width:2; stroke-opacity:1; fill:none" stroke-dasharray="8, 5" points="1429.51,470.568 1468.49,449.799 1507.46,427.209 1546.43,457.935 1585.4,462.258 1624.37,553.12 1663.34,452.884 1702.32,429.384 1741.29,393.971 1780.26,391.697 1819.23,452.181 1858.2,394.505 1897.18,411.251 1936.15,417.896 1975.12,342.793 2014.09,377.992 2053.06,461.199 2092.03,416.552 2131.01,439.958 2169.98,398.89 2208.95,285.012 2247.92,426.209 2286.89,412.246 2325.87,435.938 "/>
<polyline clip-path="url(#clip123)" style="stroke:#ffa500; stroke-linecap:round; stroke-linejoin:round; stroke-width:2; stroke-opacity:1; fill:none" stroke-dasharray="8, 5" points="1429.51,422.229 1468.49,378.144 1507.46,414.04 1546.43,421.708 1585.4,425.423 1624.37,568.836 1663.34,454.295 1702.32,433.233 1741.29,365.159 1780.26,396.244 1819.23,396.321 1858.2,388.127 1897.18,362.635 1936.15,431.893 1975.12,353.506 2014.09,287.497 2053.06,312.459 2092.03,392.59 2131.01,421.602 2169.98,418.649 2208.95,330.223 2247.92,404.866 2286.89,372.628 2325.87,516.548 "/>
<polyline clip-path="url(#clip123)" style="stroke:#ffa500; stroke-linecap:round; stroke-linejoin:round; stroke-width:2; stroke-opacity:1; fill:none" stroke-dasharray="8, 5" points="1429.51,366.787 1468.49,406.712 1507.46,497.756 1546.43,420.273 1585.4,475.618 1624.37,549.736 1663.34,433.157 1702.32,414.512 1741.29,433.921 1780.26,387.022 1819.23,427.151 1858.2,411.447 1897.18,417.46 1936.15,428.588 1975.12,320.809 2014.09,349.773 2053.06,414.674 2092.03,414.315 2131.01,486.29 2169.98,360.787 2208.95,355.199 2247.92,380.274 2286.89,381.793 2325.87,402.396 "/>
<polyline clip-path="url(#clip123)" style="stroke:#ffa500; stroke-linecap:round; stroke-linejoin:round; stroke-width:2; stroke-opacity:1; fill:none" stroke-dasharray="8, 5" points="1429.51,410.653 1468.49,390.253 1507.46,409.167 1546.43,437.073 1585.4,456.065 1624.37,590.776 1663.34,471.705 1702.32,379.229 1741.29,385.133 1780.26,388.614 1819.23,438.882 1858.2,410.546 1897.18,378.567 1936.15,391.777 1975.12,358.852 2014.09,358.688 2053.06,401.872 2092.03,436.151 2131.01,418.951 2169.98,439.856 2208.95,288.112 2247.92,347.666 2286.89,424.334 2325.87,402.848 "/>
<polyline clip-path="url(#clip123)" style="stroke:#ffa500; stroke-linecap:round; stroke-linejoin:round; stroke-width:2; stroke-opacity:1; fill:none" stroke-dasharray="8, 5" points="1429.51,416.285 1468.49,383.637 1507.46,413.123 1546.43,432.773 1585.4,443.299 1624.37,584.218 1663.34,438.501 1702.32,428.564 1741.29,379.485 1780.26,417.66 1819.23,430.096 1858.2,424.117 1897.18,365.438 1936.15,399.547 1975.12,369.873 2014.09,437.339 2053.06,444.438 2092.03,394.407 2131.01,442.397 2169.98,456.443 2208.95,343.638 2247.92,380.971 2286.89,386.963 2325.87,455.686 "/>
<polyline clip-path="url(#clip123)" style="stroke:#ffa500; stroke-linecap:round; stroke-linejoin:round; stroke-width:2; stroke-opacity:1; fill:none" stroke-dasharray="8, 5" points="1429.51,278.95 1468.49,366.909 1507.46,435.502 1546.43,417.495 1585.4,444.487 1624.37,597.295 1663.34,434.535 1702.32,414.884 1741.29,384.053 1780.26,364.713 1819.23,466.591 1858.2,441.499 1897.18,335.543 1936.15,407.382 1975.12,332.2 2014.09,365.902 2053.06,458.919 2092.03,371.84 2131.01,442.999 2169.98,377.044 2208.95,254.504 2247.92,398.526 2286.89,388.251 2325.87,431.82 "/>
<polyline clip-path="url(#clip123)" style="stroke:#ffa500; stroke-linecap:round; stroke-linejoin:round; stroke-width:2; stroke-opacity:1; fill:none" stroke-dasharray="8, 5" points="1429.51,359.473 1468.49,508.095 1507.46,406.129 1546.43,424.667 1585.4,522.659 1624.37,536.219 1663.34,427.123 1702.32,404.287 1741.29,374.862 1780.26,393.862 1819.23,422.679 1858.2,414.211 1897.18,335.9 1936.15,414.206 1975.12,335.234 2014.09,384.893 2053.06,414.024 2092.03,430.894 2131.01,426.068 2169.98,409.885 2208.95,332.605 2247.92,405.623 2286.89,396.109 2325.87,449.338 "/>
<polyline clip-path="url(#clip123)" style="stroke:#ffa500; stroke-linecap:round; stroke-linejoin:round; stroke-width:2; stroke-opacity:1; fill:none" stroke-dasharray="8, 5" points="1429.51,420.743 1468.49,375.445 1507.46,412.058 1546.43,423.366 1585.4,455.753 1624.37,579.538 1663.34,443.242 1702.32,400.192 1741.29,324.674 1780.26,469.099 1819.23,409.571 1858.2,442.291 1897.18,365.854 1936.15,444.396 1975.12,356.674 2014.09,371.983 2053.06,395.24 2092.03,433.164 2131.01,411.209 2169.98,445.256 2208.95,323.571 2247.92,371.923 2286.89,427.183 2325.87,401.954 "/>
<polyline clip-path="url(#clip123)" style="stroke:#ffa500; stroke-linecap:round; stroke-linejoin:round; stroke-width:2; stroke-opacity:1; fill:none" stroke-dasharray="8, 5" points="1429.51,412.898 1468.49,412.728 1507.46,429.339 1546.43,421.102 1585.4,477.846 1624.37,531.52 1663.34,423.235 1702.32,395.472 1741.29,369.803 1780.26,288.234 1819.23,409.416 1858.2,415.343 1897.18,354.331 1936.15,420.474 1975.12,344.437 2014.09,403.57 2053.06,433.385 2092.03,455.177 2131.01,471.461 2169.98,430.915 2208.95,318.749 2247.92,397.883 2286.89,399.766 2325.87,420.695 "/>
<polyline clip-path="url(#clip123)" style="stroke:#ffa500; stroke-linecap:round; stroke-linejoin:round; stroke-width:2; stroke-opacity:1; fill:none" stroke-dasharray="8, 5" points="1429.51,355.273 1468.49,410.877 1507.46,401.9 1546.43,435.457 1585.4,479.419 1624.37,535.879 1663.34,440.15 1702.32,406.735 1741.29,398.15 1780.26,403.287 1819.23,432.102 1858.2,408.985 1897.18,387.815 1936.15,325.881 1975.12,372.39 2014.09,368.541 2053.06,445.702 2092.03,462.437 2131.01,425.309 2169.98,440.12 2208.95,241.005 2247.92,414.205 2286.89,393.337 2325.87,397.046 "/>
<polyline clip-path="url(#clip123)" style="stroke:#ffa500; stroke-linecap:round; stroke-linejoin:round; stroke-width:2; stroke-opacity:1; fill:none" stroke-dasharray="8, 5" points="1429.51,405.96 1468.49,346.699 1507.46,393.133 1546.43,436.258 1585.4,516.231 1624.37,589.915 1663.34,440.96 1702.32,369.374 1741.29,386.4 1780.26,390.272 1819.23,476.923 1858.2,395.221 1897.18,372.994 1936.15,391.854 1975.12,286.628 2014.09,360.624 2053.06,459.441 2092.03,431.526 2131.01,383.448 2169.98,370.304 2208.95,311.934 2247.92,383.977 2286.89,265.214 2325.87,448.951 "/>
<polyline clip-path="url(#clip123)" style="stroke:#ffa500; stroke-linecap:round; stroke-linejoin:round; stroke-width:2; stroke-opacity:1; fill:none" stroke-dasharray="8, 5" points="1429.51,422.668 1468.49,404.515 1507.46,427.441 1546.43,485.003 1585.4,452.274 1624.37,577.267 1663.34,468.907 1702.32,405.651 1741.29,408.61 1780.26,388.869 1819.23,448.723 1858.2,418.627 1897.18,411.75 1936.15,434.025 1975.12,375.868 2014.09,358.615 2053.06,418.218 2092.03,446.728 2131.01,441.116 2169.98,429.729 2208.95,274.558 2247.92,388.752 2286.89,389.854 2325.87,430.297 "/>
<polyline clip-path="url(#clip123)" style="stroke:#ffa500; stroke-linecap:round; stroke-linejoin:round; stroke-width:2; stroke-opacity:1; fill:none" stroke-dasharray="8, 5" points="1429.51,444.274 1468.49,392.711 1507.46,414.324 1546.43,433.565 1585.4,429.48 1624.37,556.469 1663.34,460.993 1702.32,455.751 1741.29,387.429 1780.26,395.077 1819.23,459.894 1858.2,391.334 1897.18,377.946 1936.15,426.232 1975.12,377.214 2014.09,357.011 2053.06,397.983 2092.03,335.309 2131.01,422.641 2169.98,482.458 2208.95,311.031 2247.92,311.532 2286.89,377.315 2325.87,367.321 "/>
<polyline clip-path="url(#clip123)" style="stroke:#ffa500; stroke-linecap:round; stroke-linejoin:round; stroke-width:2; stroke-opacity:1; fill:none" stroke-dasharray="8, 5" points="1429.51,410.943 1468.49,374.041 1507.46,406.198 1546.43,483.115 1585.4,466.024 1624.37,577.712 1663.34,523.669 1702.32,401.105 1741.29,444.393 1780.26,379.569 1819.23,467.42 1858.2,396.714 1897.18,404.909 1936.15,485.105 1975.12,408.533 2014.09,368.165 2053.06,388.554 2092.03,441.741 2131.01,402.696 2169.98,402.551 2208.95,284.276 2247.92,403.792 2286.89,383.836 2325.87,432.545 "/>
<polyline clip-path="url(#clip123)" style="stroke:#ffa500; stroke-linecap:round; stroke-linejoin:round; stroke-width:4; stroke-opacity:1; fill:none" stroke-dasharray="16, 10" points="1429.51,278.95 1468.49,346.137 1507.46,347.426 1546.43,373.939 1585.4,364.341 1624.37,508.743 1663.34,367.786 1702.32,345.792 1741.29,294.487 1780.26,288.234 1819.23,371.024 1858.2,367.353 1897.18,331.031 1936.15,325.881 1975.12,286.628 2014.09,287.497 2053.06,312.459 2092.03,335.309 2131.01,383.448 2169.98,360.787 2208.95,241.005 2247.92,311.532 2286.89,265.214 2325.87,359.76 "/>
<circle clip-path="url(#clip123)" cx="1429.51" cy="278.95" r="10.8" fill="#dd64b5" fill-rule="evenodd" fill-opacity="0.95" stroke="#000000" stroke-opacity="0.95" stroke-width="1.6"/>
<circle clip-path="url(#clip123)" cx="1468.49" cy="346.137" r="10.8" fill="#dd64b5" fill-rule="evenodd" fill-opacity="0.95" stroke="#000000" stroke-opacity="0.95" stroke-width="1.6"/>
<circle clip-path="url(#clip123)" cx="1507.46" cy="347.426" r="10.8" fill="#dd64b5" fill-rule="evenodd" fill-opacity="0.95" stroke="#000000" stroke-opacity="0.95" stroke-width="1.6"/>
<circle clip-path="url(#clip123)" cx="1546.43" cy="373.939" r="10.8" fill="#dd64b5" fill-rule="evenodd" fill-opacity="0.95" stroke="#000000" stroke-opacity="0.95" stroke-width="1.6"/>
<circle clip-path="url(#clip123)" cx="1585.4" cy="364.341" r="10.8" fill="#dd64b5" fill-rule="evenodd" fill-opacity="0.95" stroke="#000000" stroke-opacity="0.95" stroke-width="1.6"/>
<circle clip-path="url(#clip123)" cx="1624.37" cy="508.743" r="10.8" fill="#dd64b5" fill-rule="evenodd" fill-opacity="0.95" stroke="#000000" stroke-opacity="0.95" stroke-width="1.6"/>
<circle clip-path="url(#clip123)" cx="1663.34" cy="367.786" r="10.8" fill="#dd64b5" fill-rule="evenodd" fill-opacity="0.95" stroke="#000000" stroke-opacity="0.95" stroke-width="1.6"/>
<circle clip-path="url(#clip123)" cx="1702.32" cy="345.792" r="10.8" fill="#dd64b5" fill-rule="evenodd" fill-opacity="0.95" stroke="#000000" stroke-opacity="0.95" stroke-width="1.6"/>
<circle clip-path="url(#clip123)" cx="1741.29" cy="294.487" r="10.8" fill="#dd64b5" fill-rule="evenodd" fill-opacity="0.95" stroke="#000000" stroke-opacity="0.95" stroke-width="1.6"/>
<circle clip-path="url(#clip123)" cx="1780.26" cy="288.234" r="10.8" fill="#dd64b5" fill-rule="evenodd" fill-opacity="0.95" stroke="#000000" stroke-opacity="0.95" stroke-width="1.6"/>
<circle clip-path="url(#clip123)" cx="1819.23" cy="371.024" r="10.8" fill="#dd64b5" fill-rule="evenodd" fill-opacity="0.95" stroke="#000000" stroke-opacity="0.95" stroke-width="1.6"/>
<circle clip-path="url(#clip123)" cx="1858.2" cy="367.353" r="10.8" fill="#dd64b5" fill-rule="evenodd" fill-opacity="0.95" stroke="#000000" stroke-opacity="0.95" stroke-width="1.6"/>
<circle clip-path="url(#clip123)" cx="1897.18" cy="331.031" r="10.8" fill="#dd64b5" fill-rule="evenodd" fill-opacity="0.95" stroke="#000000" stroke-opacity="0.95" stroke-width="1.6"/>
<circle clip-path="url(#clip123)" cx="1936.15" cy="325.881" r="10.8" fill="#dd64b5" fill-rule="evenodd" fill-opacity="0.95" stroke="#000000" stroke-opacity="0.95" stroke-width="1.6"/>
<circle clip-path="url(#clip123)" cx="1975.12" cy="286.628" r="10.8" fill="#dd64b5" fill-rule="evenodd" fill-opacity="0.95" stroke="#000000" stroke-opacity="0.95" stroke-width="1.6"/>
<circle clip-path="url(#clip123)" cx="2014.09" cy="287.497" r="10.8" fill="#dd64b5" fill-rule="evenodd" fill-opacity="0.95" stroke="#000000" stroke-opacity="0.95" stroke-width="1.6"/>
<circle clip-path="url(#clip123)" cx="2053.06" cy="312.459" r="10.8" fill="#dd64b5" fill-rule="evenodd" fill-opacity="0.95" stroke="#000000" stroke-opacity="0.95" stroke-width="1.6"/>
<circle clip-path="url(#clip123)" cx="2092.03" cy="335.309" r="10.8" fill="#dd64b5" fill-rule="evenodd" fill-opacity="0.95" stroke="#000000" stroke-opacity="0.95" stroke-width="1.6"/>
<circle clip-path="url(#clip123)" cx="2131.01" cy="383.448" r="10.8" fill="#dd64b5" fill-rule="evenodd" fill-opacity="0.95" stroke="#000000" stroke-opacity="0.95" stroke-width="1.6"/>
<circle clip-path="url(#clip123)" cx="2169.98" cy="360.787" r="10.8" fill="#dd64b5" fill-rule="evenodd" fill-opacity="0.95" stroke="#000000" stroke-opacity="0.95" stroke-width="1.6"/>
<circle clip-path="url(#clip123)" cx="2208.95" cy="241.005" r="10.8" fill="#dd64b5" fill-rule="evenodd" fill-opacity="0.95" stroke="#000000" stroke-opacity="0.95" stroke-width="1.6"/>
<circle clip-path="url(#clip123)" cx="2247.92" cy="311.532" r="10.8" fill="#dd64b5" fill-rule="evenodd" fill-opacity="0.95" stroke="#000000" stroke-opacity="0.95" stroke-width="1.6"/>
<circle clip-path="url(#clip123)" cx="2286.89" cy="265.214" r="10.8" fill="#dd64b5" fill-rule="evenodd" fill-opacity="0.95" stroke="#000000" stroke-opacity="0.95" stroke-width="1.6"/>
<circle clip-path="url(#clip123)" cx="2325.87" cy="359.76" r="10.8" fill="#dd64b5" fill-rule="evenodd" fill-opacity="0.95" stroke="#000000" stroke-opacity="0.95" stroke-width="1.6"/>
<polyline clip-path="url(#clip123)" style="stroke:#ffa500; stroke-linecap:round; stroke-linejoin:round; stroke-width:8; stroke-opacity:1; fill:none" stroke-dasharray="32, 20" points="1429.51,470.568 1468.49,508.095 1507.46,497.756 1546.43,486.621 1585.4,522.659 1624.37,597.333 1663.34,523.669 1702.32,488.824 1741.29,444.393 1780.26,469.099 1819.23,498.684 1858.2,443.754 1897.18,417.46 1936.15,485.105 1975.12,481.427 2014.09,437.339 2053.06,503.045 2092.03,491.403 2131.01,486.29 2169.98,497.878 2208.95,374.028 2247.92,474.633 2286.89,463.196 2325.87,516.548 "/>
<circle clip-path="url(#clip123)" cx="1429.51" cy="470.568" r="10.8" fill="#6b9e32" fill-rule="evenodd" fill-opacity="0.95" stroke="#000000" stroke-opacity="0.95" stroke-width="1.6"/>
<circle clip-path="url(#clip123)" cx="1468.49" cy="508.095" r="10.8" fill="#6b9e32" fill-rule="evenodd" fill-opacity="0.95" stroke="#000000" stroke-opacity="0.95" stroke-width="1.6"/>
<circle clip-path="url(#clip123)" cx="1507.46" cy="497.756" r="10.8" fill="#6b9e32" fill-rule="evenodd" fill-opacity="0.95" stroke="#000000" stroke-opacity="0.95" stroke-width="1.6"/>
<circle clip-path="url(#clip123)" cx="1546.43" cy="486.621" r="10.8" fill="#6b9e32" fill-rule="evenodd" fill-opacity="0.95" stroke="#000000" stroke-opacity="0.95" stroke-width="1.6"/>
<circle clip-path="url(#clip123)" cx="1585.4" cy="522.659" r="10.8" fill="#6b9e32" fill-rule="evenodd" fill-opacity="0.95" stroke="#000000" stroke-opacity="0.95" stroke-width="1.6"/>
<circle clip-path="url(#clip123)" cx="1624.37" cy="597.333" r="10.8" fill="#6b9e32" fill-rule="evenodd" fill-opacity="0.95" stroke="#000000" stroke-opacity="0.95" stroke-width="1.6"/>
<circle clip-path="url(#clip123)" cx="1663.34" cy="523.669" r="10.8" fill="#6b9e32" fill-rule="evenodd" fill-opacity="0.95" stroke="#000000" stroke-opacity="0.95" stroke-width="1.6"/>
<circle clip-path="url(#clip123)" cx="1702.32" cy="488.824" r="10.8" fill="#6b9e32" fill-rule="evenodd" fill-opacity="0.95" stroke="#000000" stroke-opacity="0.95" stroke-width="1.6"/>
<circle clip-path="url(#clip123)" cx="1741.29" cy="444.393" r="10.8" fill="#6b9e32" fill-rule="evenodd" fill-opacity="0.95" stroke="#000000" stroke-opacity="0.95" stroke-width="1.6"/>
<circle clip-path="url(#clip123)" cx="1780.26" cy="469.099" r="10.8" fill="#6b9e32" fill-rule="evenodd" fill-opacity="0.95" stroke="#000000" stroke-opacity="0.95" stroke-width="1.6"/>
<circle clip-path="url(#clip123)" cx="1819.23" cy="498.684" r="10.8" fill="#6b9e32" fill-rule="evenodd" fill-opacity="0.95" stroke="#000000" stroke-opacity="0.95" stroke-width="1.6"/>
<circle clip-path="url(#clip123)" cx="1858.2" cy="443.754" r="10.8" fill="#6b9e32" fill-rule="evenodd" fill-opacity="0.95" stroke="#000000" stroke-opacity="0.95" stroke-width="1.6"/>
<circle clip-path="url(#clip123)" cx="1897.18" cy="417.46" r="10.8" fill="#6b9e32" fill-rule="evenodd" fill-opacity="0.95" stroke="#000000" stroke-opacity="0.95" stroke-width="1.6"/>
<circle clip-path="url(#clip123)" cx="1936.15" cy="485.105" r="10.8" fill="#6b9e32" fill-rule="evenodd" fill-opacity="0.95" stroke="#000000" stroke-opacity="0.95" stroke-width="1.6"/>
<circle clip-path="url(#clip123)" cx="1975.12" cy="481.427" r="10.8" fill="#6b9e32" fill-rule="evenodd" fill-opacity="0.95" stroke="#000000" stroke-opacity="0.95" stroke-width="1.6"/>
<circle clip-path="url(#clip123)" cx="2014.09" cy="437.339" r="10.8" fill="#6b9e32" fill-rule="evenodd" fill-opacity="0.95" stroke="#000000" stroke-opacity="0.95" stroke-width="1.6"/>
<circle clip-path="url(#clip123)" cx="2053.06" cy="503.045" r="10.8" fill="#6b9e32" fill-rule="evenodd" fill-opacity="0.95" stroke="#000000" stroke-opacity="0.95" stroke-width="1.6"/>
<circle clip-path="url(#clip123)" cx="2092.03" cy="491.403" r="10.8" fill="#6b9e32" fill-rule="evenodd" fill-opacity="0.95" stroke="#000000" stroke-opacity="0.95" stroke-width="1.6"/>
<circle clip-path="url(#clip123)" cx="2131.01" cy="486.29" r="10.8" fill="#6b9e32" fill-rule="evenodd" fill-opacity="0.95" stroke="#000000" stroke-opacity="0.95" stroke-width="1.6"/>
<circle clip-path="url(#clip123)" cx="2169.98" cy="497.878" r="10.8" fill="#6b9e32" fill-rule="evenodd" fill-opacity="0.95" stroke="#000000" stroke-opacity="0.95" stroke-width="1.6"/>
<circle clip-path="url(#clip123)" cx="2208.95" cy="374.028" r="10.8" fill="#6b9e32" fill-rule="evenodd" fill-opacity="0.95" stroke="#000000" stroke-opacity="0.95" stroke-width="1.6"/>
<circle clip-path="url(#clip123)" cx="2247.92" cy="474.633" r="10.8" fill="#6b9e32" fill-rule="evenodd" fill-opacity="0.95" stroke="#000000" stroke-opacity="0.95" stroke-width="1.6"/>
<circle clip-path="url(#clip123)" cx="2286.89" cy="463.196" r="10.8" fill="#6b9e32" fill-rule="evenodd" fill-opacity="0.95" stroke="#000000" stroke-opacity="0.95" stroke-width="1.6"/>
<circle clip-path="url(#clip123)" cx="2325.87" cy="516.548" r="10.8" fill="#6b9e32" fill-rule="evenodd" fill-opacity="0.95" stroke="#000000" stroke-opacity="0.95" stroke-width="1.6"/>
<path clip-path="url(#clip123)" d="M1429.51 278.95 L1468.49 346.137 L1507.46 347.426 L1546.43 373.939 L1585.4 364.341 L1624.37 508.743 L1663.34 367.786 L1702.32 345.792 L1741.29 294.487 L1780.26 288.234 L1819.23 371.024 L1858.2 367.353 L1897.18 331.031 L1936.15 325.881 L1975.12 286.628 L2014.09 287.497 L2053.06 312.459 L2092.03 335.309 L2131.01 383.448 L2169.98 360.787 L2208.95 241.005 L2247.92 311.532 L2286.89 265.214 L2325.87 359.76 L2325.87 516.548 L2286.89 463.196 L2247.92 474.633 L2208.95 374.028 L2169.98 497.878 L2131.01 486.29 L2092.03 491.403 L2053.06 503.045 L2014.09 437.339 L1975.12 481.427 L1936.15 485.105 L1897.18 417.46 L1858.2 443.754 L1819.23 498.684 L1780.26 469.099 L1741.29 444.393 L1702.32 488.824 L1663.34 523.669 L1624.37 597.333 L1585.4 522.659 L1546.43 486.621 L1507.46 497.756 L1468.49 508.095 L1429.51 470.568  Z" fill="#009af9" fill-rule="evenodd" fill-opacity="0.15"/>
<polyline clip-path="url(#clip123)" style="stroke:#009af9; stroke-linecap:round; stroke-linejoin:round; stroke-width:4; stroke-opacity:1; fill:none" points="1429.51,278.95 1468.49,346.137 1507.46,347.426 1546.43,373.939 1585.4,364.341 1624.37,508.743 1663.34,367.786 1702.32,345.792 1741.29,294.487 1780.26,288.234 1819.23,371.024 1858.2,367.353 1897.18,331.031 1936.15,325.881 1975.12,286.628 2014.09,287.497 2053.06,312.459 2092.03,335.309 2131.01,383.448 2169.98,360.787 2208.95,241.005 2247.92,311.532 2286.89,265.214 2325.87,359.76 "/>
</svg>
