<?xml version="1.0" encoding="utf-8"?>
<svg xmlns="http://www.w3.org/2000/svg" xmlns:xlink="http://www.w3.org/1999/xlink" width="300" height="300" viewBox="0 0 1200 1200">
<defs>
  <clipPath id="clip490">
    <rect x="0" y="0" width="1200" height="1200"/>
  </clipPath>
</defs>
<path clip-path="url(#clip490)" d="M0 1200 L1200 1200 L1200 0 L0 0  Z" fill="#ffffff" fill-rule="evenodd" fill-opacity="1"/>
<defs>
  <clipPath id="clip491">
    <rect x="240" y="120" width="841" height="841"/>
  </clipPath>
</defs>
<path clip-path="url(#clip490)" d="M247.989 984.237 L1152.76 984.237 L1152.76 47.2441 L247.989 47.2441  Z" fill="#ffffff" fill-rule="evenodd" fill-opacity="1"/>
<defs>
  <clipPath id="clip492">
    <rect x="247" y="47" width="906" height="938"/>
  </clipPath>
</defs>
<polyline clip-path="url(#clip492)" style="stroke:#808080; stroke-linecap:round; stroke-linejoin:round; stroke-width:2; stroke-opacity:0.1; fill:none" points="247.989,984.237 247.989,47.2441 "/>
<polyline clip-path="url(#clip492)" style="stroke:#808080; stroke-linecap:round; stroke-linejoin:round; stroke-width:2; stroke-opacity:0.1; fill:none" points="428.942,984.237 428.942,47.2441 "/>
<polyline clip-path="url(#clip492)" style="stroke:#808080; stroke-linecap:round; stroke-linejoin:round; stroke-width:2; stroke-opacity:0.1; fill:none" points="609.896,984.237 609.896,47.2441 "/>
<polyline clip-path="url(#clip492)" style="stroke:#808080; stroke-linecap:round; stroke-linejoin:round; stroke-width:2; stroke-opacity:0.1; fill:none" points="790.849,984.237 790.849,47.2441 "/>
<polyline clip-path="url(#clip492)" style="stroke:#808080; stroke-linecap:round; stroke-linejoin:round; stroke-width:2; stroke-opacity:0.1; fill:none" points="971.802,984.237 971.802,47.2441 "/>
<polyline clip-path="url(#clip492)" style="stroke:#808080; stroke-linecap:round; stroke-linejoin:round; stroke-width:2; stroke-opacity:0.1; fill:none" points="1152.76,984.237 1152.76,47.2441 "/>
<polyline clip-path="url(#clip492)" style="stroke:#808080; stroke-linecap:round; stroke-linejoin:round; stroke-width:2; stroke-opacity:0.1; fill:none" points="247.989,984.237 247.989,47.2441 "/>
<polyline clip-path="url(#clip492)" style="stroke:#808080; stroke-linecap:round; stroke-linejoin:round; stroke-width:2; stroke-opacity:0.1; fill:none" points="428.942,984.237 428.942,47.2441 "/>
<polyline clip-path="url(#clip492)" style="stroke:#808080; stroke-linecap:round; stroke-linejoin:round; stroke-width:2; stroke-opacity:0.1; fill:none" points="609.896,984.237 609.896,47.2441 "/>
<polyline clip-path="url(#clip492)" style="stroke:#808080; stroke-linecap:round; stroke-linejoin:round; stroke-width:2; stroke-opacity:0.1; fill:none" points="790.849,984.237 790.849,47.2441 "/>
<polyline clip-path="url(#clip492)" style="stroke:#808080; stroke-linecap:round; stroke-linejoin:round; stroke-width:2; stroke-opacity:0.1; fill:none" points="971.802,984.237 971.802,47.2441 "/>
<polyline clip-path="url(#clip492)" style="stroke:#808080; stroke-linecap:round; stroke-linejoin:round; stroke-width:2; stroke-opacity:0.1; fill:none" points="1152.76,984.237 1152.76,47.2441 "/>
<polyline clip-path="url(#clip490)" style="stroke:#000000; stroke-linecap:round; stroke-linejoin:round; stroke-width:4; stroke-opacity:1; fill:none" points="247.989,984.237 1152.76,984.237 "/>
<polyline clip-path="url(#clip490)" style="stroke:#000000; stroke-linecap:round; stroke-linejoin:round; stroke-width:4; stroke-opacity:1; fill:none" points="247.989,47.2441 1152.76,47.2441 "/>
<polyline clip-path="url(#clip490)" style="stroke:#000000; stroke-linecap:round; stroke-linejoin:round; stroke-width:4; stroke-opacity:1; fill:none" points="247.989,984.237 247.989,965.339 "/>
<polyline clip-path="url(#clip490)" style="stroke:#000000; stroke-linecap:round; stroke-linejoin:round; stroke-width:4; stroke-opacity:1; fill:none" points="428.942,984.237 428.942,965.339 "/>
<polyline clip-path="url(#clip490)" style="stroke:#000000; stroke-linecap:round; stroke-linejoin:round; stroke-width:4; stroke-opacity:1; fill:none" points="609.896,984.237 609.896,965.339 "/>
<polyline clip-path="url(#clip490)" style="stroke:#000000; stroke-linecap:round; stroke-linejoin:round; stroke-width:4; stroke-opacity:1; fill:none" points="790.849,984.237 790.849,965.339 "/>
<polyline clip-path="url(#clip490)" style="stroke:#000000; stroke-linecap:round; stroke-linejoin:round; stroke-width:4; stroke-opacity:1; fill:none" points="971.802,984.237 971.802,965.339 "/>
<polyline clip-path="url(#clip490)" style="stroke:#000000; stroke-linecap:round; stroke-linejoin:round; stroke-width:4; stroke-opacity:1; fill:none" points="1152.76,984.237 1152.76,965.339 "/>
<polyline clip-path="url(#clip490)" style="stroke:#000000; stroke-linecap:round; stroke-linejoin:round; stroke-width:4; stroke-opacity:1; fill:none" points="247.989,47.2441 247.989,66.1417 "/>
<polyline clip-path="url(#clip490)" style="stroke:#000000; stroke-linecap:round; stroke-linejoin:round; stroke-width:4; stroke-opacity:1; fill:none" points="428.942,47.2441 428.942,66.1417 "/>
<polyline clip-path="url(#clip490)" style="stroke:#000000; stroke-linecap:round; stroke-linejoin:round; stroke-width:4; stroke-opacity:1; fill:none" points="609.896,47.2441 609.896,66.1417 "/>
<polyline clip-path="url(#clip490)" style="stroke:#000000; stroke-linecap:round; stroke-linejoin:round; stroke-width:4; stroke-opacity:1; fill:none" points="790.849,47.2441 790.849,66.1417 "/>
<polyline clip-path="url(#clip490)" style="stroke:#000000; stroke-linecap:round; stroke-linejoin:round; stroke-width:4; stroke-opacity:1; fill:none" points="971.802,47.2441 971.802,66.1417 "/>
<polyline clip-path="url(#clip490)" style="stroke:#000000; stroke-linecap:round; stroke-linejoin:round; stroke-width:4; stroke-opacity:1; fill:none" points="1152.76,47.2441 1152.76,66.1417 "/>
<g clip-path="url(#clip490)">
<text style="fill:#000000; fill-opacity:1; font-family:Book Antiqua,Palatino,Palatino Linotype,Palatino LT STD,Georgia,serif; font-size:51px; font-weight:bold; text-anchor:middle;" transform="rotate(0, 247.989, 1038.21)" x="247.989" y="1038.21">0</text>
</g>
<g clip-path="url(#clip490)">
<text style="fill:#000000; fill-opacity:1; font-family:Book Antiqua,Palatino,Palatino Linotype,Palatino LT STD,Georgia,serif; font-size:51px; font-weight:bold; text-anchor:middle;" transform="rotate(0, 428.942, 1038.21)" x="428.942" y="1038.21">5</text>
</g>
<g clip-path="url(#clip490)">
<text style="fill:#000000; fill-opacity:1; font-family:Book Antiqua,Palatino,Palatino Linotype,Palatino LT STD,Georgia,serif; font-size:51px; font-weight:bold; text-anchor:middle;" transform="rotate(0, 609.896, 1038.21)" x="609.896" y="1038.21">10</text>
</g>
<g clip-path="url(#clip490)">
<text style="fill:#000000; fill-opacity:1; font-family:Book Antiqua,Palatino,Palatino Linotype,Palatino LT STD,Georgia,serif; font-size:51px; font-weight:bold; text-anchor:middle;" transform="rotate(0, 790.849, 1038.21)" x="790.849" y="1038.21">15</text>
</g>
<g clip-path="url(#clip490)">
<text style="fill:#000000; fill-opacity:1; font-family:Book Antiqua,Palatino,Palatino Linotype,Palatino LT STD,Georgia,serif; font-size:51px; font-weight:bold; text-anchor:middle;" transform="rotate(0, 971.802, 1038.21)" x="971.802" y="1038.21">20</text>
</g>
<g clip-path="url(#clip490)">
<text style="fill:#000000; fill-opacity:1; font-family:Book Antiqua,Palatino,Palatino Linotype,Palatino LT STD,Georgia,serif; font-size:51px; font-weight:bold; text-anchor:middle;" transform="rotate(0, 1152.76, 1038.21)" x="1152.76" y="1038.21">25</text>
</g>
<path clip-path="url(#clip490)" d="M677.2 1073.13 Q677.2 1074.03 676.781 1074.25 Q676.363 1074.45 675.203 1074.45 L669.02 1074.45 L664.124 1093.9 Q663.738 1095.61 663.738 1097.06 Q663.738 1098.67 664.221 1099.37 Q664.736 1100.08 665.799 1100.08 Q667.893 1100.08 670.147 1098.18 Q672.434 1096.28 674.366 1091.65 Q674.624 1091.03 674.752 1090.9 Q674.913 1090.74 675.332 1090.74 Q676.137 1090.74 676.137 1091.39 Q676.137 1091.61 675.686 1092.64 Q675.268 1093.67 674.334 1095.19 Q673.432 1096.7 672.24 1098.12 Q671.081 1099.54 669.31 1100.57 Q667.538 1101.56 665.638 1101.56 Q662.965 1101.56 661.258 1099.86 Q659.583 1098.15 659.583 1095.48 Q659.583 1094.61 660.26 1091.84 Q660.936 1089.04 664.608 1074.45 L658.778 1074.45 Q657.973 1074.45 657.651 1074.42 Q657.361 1074.38 657.136 1074.22 Q656.943 1074.03 656.943 1073.64 Q656.943 1073.03 657.2 1072.77 Q657.458 1072.48 657.78 1072.45 Q658.134 1072.39 658.939 1072.39 L665.123 1072.39 L667.699 1061.92 Q667.957 1060.89 668.601 1060.31 Q669.277 1059.7 669.664 1059.63 Q670.05 1059.54 670.34 1059.54 Q671.21 1059.54 671.725 1060.02 Q672.24 1060.47 672.24 1061.31 Q672.24 1061.76 669.535 1072.39 L675.332 1072.39 Q676.073 1072.39 676.363 1072.42 Q676.685 1072.45 676.942 1072.61 Q677.2 1072.77 677.2 1073.13 Z" fill="#000000" fill-rule="nonzero" fill-opacity="1" /><path clip-path="url(#clip490)" d="M680.516 1116.38 Q680.516 1116.06 680.773 1115.35 L704.058 1053.13 Q704.058 1053.06 704.219 1052.71 Q704.38 1052.35 704.477 1052.13 Q704.573 1051.87 704.767 1051.68 Q704.992 1051.48 705.25 1051.48 Q705.894 1051.48 705.894 1052.29 Q705.894 1052.35 705.701 1053.13 L682.351 1115.41 Q681.965 1116.54 681.707 1116.86 Q681.482 1117.18 681.095 1117.18 Q680.516 1117.18 680.516 1116.38 Z" fill="#000000" fill-rule="nonzero" fill-opacity="1" /><path clip-path="url(#clip490)" d="M737.463 1077.35 Q737.463 1079.15 736.561 1080.12 Q735.659 1081.05 734.435 1081.05 Q733.437 1081.05 732.89 1080.47 Q732.374 1079.89 732.374 1079.12 Q732.374 1077.99 733.276 1077.09 Q734.21 1076.19 735.563 1076.15 Q735.112 1074.96 733.92 1074.25 Q732.729 1073.51 731.666 1073.32 Q730.635 1073.13 729.605 1073.13 Q727.576 1073.13 726.03 1073.77 Q724.484 1074.42 723.711 1075.41 Q722.938 1076.38 722.584 1077.31 Q722.229 1078.25 722.229 1079.05 Q722.229 1079.76 722.39 1080.34 Q722.584 1080.89 723.035 1081.31 Q723.485 1081.69 723.808 1081.95 Q724.162 1082.21 724.935 1082.43 Q725.708 1082.66 726.03 1082.76 Q726.352 1082.82 727.254 1083.01 Q729.121 1083.4 729.959 1083.63 Q730.796 1083.82 731.891 1084.37 Q733.018 1084.91 733.856 1085.78 Q735.885 1087.81 735.885 1090.61 Q735.885 1091.65 735.53 1092.9 Q735.208 1094.16 734.274 1095.74 Q733.34 1097.31 731.923 1098.57 Q730.506 1099.83 728.059 1100.7 Q725.643 1101.56 722.616 1101.56 Q718.397 1101.56 715.788 1099.79 Q713.18 1097.99 713.18 1095.16 Q713.18 1093.09 714.307 1091.97 Q715.434 1090.81 716.883 1090.81 Q717.978 1090.81 718.655 1091.42 Q719.331 1092 719.331 1093.09 Q719.331 1094.58 718.139 1095.7 Q716.948 1096.83 715.176 1096.6 Q716.69 1100.08 722.68 1100.08 Q724.935 1100.08 726.674 1099.5 Q728.445 1098.89 729.411 1098.05 Q730.41 1097.18 731.054 1096.12 Q731.698 1095.06 731.891 1094.25 Q732.117 1093.45 732.117 1092.84 Q732.117 1091.77 731.698 1090.97 Q731.279 1090.16 730.7 1089.71 Q730.152 1089.23 729.089 1088.84 Q728.059 1088.42 727.318 1088.26 Q726.577 1088.1 725.257 1087.84 Q724.645 1087.72 724.258 1087.65 Q723.872 1087.56 723.067 1087.3 Q722.294 1087.01 721.746 1086.72 Q721.231 1086.43 720.555 1085.91 Q719.878 1085.4 719.46 1084.79 Q719.041 1084.17 718.751 1083.27 Q718.461 1082.37 718.461 1081.31 Q718.461 1080.34 718.751 1079.18 Q719.073 1078.02 719.878 1076.67 Q720.716 1075.32 721.907 1074.22 Q723.099 1073.13 725.096 1072.42 Q727.125 1071.68 729.605 1071.68 Q733.212 1071.68 735.337 1073.35 Q737.463 1074.99 737.463 1077.35 Z" fill="#000000" fill-rule="nonzero" fill-opacity="1" /><polyline clip-path="url(#clip492)" style="stroke:#808080; stroke-linecap:round; stroke-linejoin:round; stroke-width:2; stroke-opacity:0.1; fill:none" points="247.989,984.237 1152.76,984.237 "/>
<polyline clip-path="url(#clip492)" style="stroke:#808080; stroke-linecap:round; stroke-linejoin:round; stroke-width:2; stroke-opacity:0.1; fill:none" points="247.989,671.906 1152.76,671.906 "/>
<polyline clip-path="url(#clip492)" style="stroke:#808080; stroke-linecap:round; stroke-linejoin:round; stroke-width:2; stroke-opacity:0.1; fill:none" points="247.989,359.575 1152.76,359.575 "/>
<polyline clip-path="url(#clip492)" style="stroke:#808080; stroke-linecap:round; stroke-linejoin:round; stroke-width:2; stroke-opacity:0.1; fill:none" points="247.989,47.2441 1152.76,47.2441 "/>
<polyline clip-path="url(#clip492)" style="stroke:#808080; stroke-linecap:round; stroke-linejoin:round; stroke-width:2; stroke-opacity:0.1; fill:none" points="247.989,984.237 1152.76,984.237 "/>
<polyline clip-path="url(#clip492)" style="stroke:#808080; stroke-linecap:round; stroke-linejoin:round; stroke-width:2; stroke-opacity:0.1; fill:none" points="247.989,671.906 1152.76,671.906 "/>
<polyline clip-path="url(#clip492)" style="stroke:#808080; stroke-linecap:round; stroke-linejoin:round; stroke-width:2; stroke-opacity:0.1; fill:none" points="247.989,359.575 1152.76,359.575 "/>
<polyline clip-path="url(#clip492)" style="stroke:#808080; stroke-linecap:round; stroke-linejoin:round; stroke-width:2; stroke-opacity:0.1; fill:none" points="247.989,47.2441 1152.76,47.2441 "/>
<polyline clip-path="url(#clip490)" style="stroke:#000000; stroke-linecap:round; stroke-linejoin:round; stroke-width:4; stroke-opacity:1; fill:none" points="247.989,984.237 247.989,47.2441 "/>
<polyline clip-path="url(#clip490)" style="stroke:#000000; stroke-linecap:round; stroke-linejoin:round; stroke-width:4; stroke-opacity:1; fill:none" points="1152.76,984.237 1152.76,47.2441 "/>
<polyline clip-path="url(#clip490)" style="stroke:#000000; stroke-linecap:round; stroke-linejoin:round; stroke-width:4; stroke-opacity:1; fill:none" points="247.989,984.237 266.886,984.237 "/>
<polyline clip-path="url(#clip490)" style="stroke:#000000; stroke-linecap:round; stroke-linejoin:round; stroke-width:4; stroke-opacity:1; fill:none" points="247.989,671.906 266.886,671.906 "/>
<polyline clip-path="url(#clip490)" style="stroke:#000000; stroke-linecap:round; stroke-linejoin:round; stroke-width:4; stroke-opacity:1; fill:none" points="247.989,359.575 266.886,359.575 "/>
<polyline clip-path="url(#clip490)" style="stroke:#000000; stroke-linecap:round; stroke-linejoin:round; stroke-width:4; stroke-opacity:1; fill:none" points="247.989,47.2441 266.886,47.2441 "/>
<polyline clip-path="url(#clip490)" style="stroke:#000000; stroke-linecap:round; stroke-linejoin:round; stroke-width:4; stroke-opacity:1; fill:none" points="1152.76,984.237 1133.86,984.237 "/>
<polyline clip-path="url(#clip490)" style="stroke:#000000; stroke-linecap:round; stroke-linejoin:round; stroke-width:4; stroke-opacity:1; fill:none" points="1152.76,671.906 1133.86,671.906 "/>
<polyline clip-path="url(#clip490)" style="stroke:#000000; stroke-linecap:round; stroke-linejoin:round; stroke-width:4; stroke-opacity:1; fill:none" points="1152.76,359.575 1133.86,359.575 "/>
<polyline clip-path="url(#clip490)" style="stroke:#000000; stroke-linecap:round; stroke-linejoin:round; stroke-width:4; stroke-opacity:1; fill:none" points="1152.76,47.2441 1133.86,47.2441 "/>
<g clip-path="url(#clip490)">
<text style="fill:#000000; fill-opacity:1; font-family:Book Antiqua,Palatino,Palatino Linotype,Palatino LT STD,Georgia,serif; font-size:51px; font-weight:bold; text-anchor:middle;" transform="rotate(0, 187.004, 1001.74)" x="187.004" y="1001.74">−1.0</text>
</g>
<g clip-path="url(#clip490)">
<text style="fill:#000000; fill-opacity:1; font-family:Book Antiqua,Palatino,Palatino Linotype,Palatino LT STD,Georgia,serif; font-size:51px; font-weight:bold; text-anchor:middle;" transform="rotate(0, 187.004, 689.406)" x="187.004" y="689.406">−0.5</text>
</g>
<g clip-path="url(#clip490)">
<text style="fill:#000000; fill-opacity:1; font-family:Book Antiqua,Palatino,Palatino Linotype,Palatino LT STD,Georgia,serif; font-size:51px; font-weight:bold; text-anchor:middle;" transform="rotate(0, 198.271, 377.075)" x="198.271" y="377.075">0.0</text>
</g>
<g clip-path="url(#clip490)">
<text style="fill:#000000; fill-opacity:1; font-family:Book Antiqua,Palatino,Palatino Linotype,Palatino LT STD,Georgia,serif; font-size:51px; font-weight:bold; text-anchor:middle;" transform="rotate(0, 198.271, 64.7441)" x="198.271" y="64.7441">0.5</text>
</g>
<path clip-path="url(#clip490)" d="M113.84 665.151 L111.811 665.151 Q111.811 662.767 111.36 661.254 Q110.877 659.74 110.008 659.192 Q109.106 658.645 108.526 658.516 Q107.914 658.355 106.916 658.355 L72.4879 658.355 Q71.5539 658.355 71.3285 658.613 Q71.103 658.838 70.9742 659.965 Q70.8454 661.93 70.8454 663.25 L70.8454 665.151 L68.7842 665.151 L68.7842 653.943 Q68.7842 653.009 68.913 652.751 Q69.0418 652.494 69.6537 652.043 L103.889 628.758 L75.7084 628.758 Q74.7101 628.758 74.1304 628.887 Q73.5507 629.016 72.6489 629.595 Q71.7471 630.143 71.2962 631.656 Q70.8454 633.17 70.8454 635.553 L68.7842 635.553 Q68.9774 628.629 68.9774 627.856 Q68.9774 627.051 68.7842 620.127 L70.8454 620.127 Q70.8454 622.51 71.2962 624.024 Q71.7471 625.537 72.6489 626.085 Q73.5507 626.632 74.1626 626.793 Q74.7423 626.922 75.7084 626.922 L112.133 626.922 Q113.196 626.922 113.518 627.051 Q113.84 627.18 113.84 627.824 Q113.84 628.275 112.971 628.951 L73.4218 655.875 Q73.0354 656.133 72.6167 656.519 L106.916 656.519 Q107.914 656.519 108.526 656.391 Q109.106 656.262 110.008 655.714 Q110.877 655.135 111.36 653.621 Q111.811 652.107 111.811 649.724 L113.84 649.724 Q113.647 656.648 113.647 657.453 Q113.647 658.226 113.84 665.151 Z" fill="#000000" fill-rule="nonzero" fill-opacity="1" /><path clip-path="url(#clip490)" d="M107.56 610.089 Q101.956 610.089 98.9933 603.487 Q97.0931 599.525 96.6101 591.345 L94.1946 591.345 Q90.1045 591.345 87.9467 593.503 Q85.7567 595.629 85.7567 598.334 Q85.7567 603.165 88.784 605.484 Q88.8484 603.519 89.8468 602.81 Q90.813 602.102 91.8114 602.102 Q93.1318 602.102 94.0014 602.939 Q94.8387 603.744 94.8387 605.129 Q94.8387 606.45 94.0336 607.319 Q93.1962 608.189 91.747 608.189 Q88.5264 608.189 86.4008 605.29 Q84.2752 602.36 84.2752 598.205 Q84.2752 592.794 87.9145 589.187 Q89.0417 588.06 90.4909 587.513 Q91.9402 586.933 92.9064 586.869 Q93.8403 586.804 95.7083 586.804 L108.88 586.804 Q109.267 586.804 109.911 586.675 Q110.555 586.546 111.393 585.967 Q112.198 585.355 112.198 584.356 Q112.198 581.973 107.979 582.005 L104.275 582.005 L104.275 580.331 L107.979 580.331 Q111.489 580.331 112.874 582.199 Q114.227 584.034 114.227 585.741 Q114.227 587.931 112.616 589.316 Q111.006 590.701 108.816 590.894 Q111.328 591.893 112.971 594.179 Q114.581 596.434 114.581 599.525 Q114.581 601.909 113.969 604.163 Q113.389 606.385 111.747 608.253 Q110.072 610.089 107.56 610.089 M107.496 605 Q109.943 605 111.521 603.261 Q113.099 601.522 113.099 599.075 Q113.099 596.305 110.974 593.825 Q108.816 591.345 104.597 591.345 L97.9949 591.345 Q98.2526 598.656 101.183 601.844 Q104.082 605 107.496 605 Z" fill="#000000" fill-rule="nonzero" fill-opacity="1" /><path clip-path="url(#clip490)" d="M99.6696 577.425 Q93.3895 577.425 89.0417 573.045 Q84.6939 568.665 84.6939 562.739 Q84.6939 557.715 88.784 554.43 L74.5168 554.43 Q72.0692 554.43 71.4573 555.299 Q70.8454 556.137 70.8454 559.551 L68.7842 559.551 L68.0757 550.05 L108.108 550.05 Q110.555 550.05 111.199 549.213 Q111.811 548.343 111.811 544.929 L113.84 544.929 L114.581 554.623 L110.201 554.623 Q114.549 558.037 114.581 563.448 Q114.581 569.116 110.233 573.27 Q105.885 577.425 99.6696 577.425 M99.734 571.95 Q105.853 571.95 108.88 570.05 Q113.099 567.409 113.099 563.126 Q113.099 558.23 108.494 555.332 Q107.367 554.591 106.046 554.623 L92.5199 554.623 Q91.1995 554.623 90.1045 555.332 Q86.1431 558.037 86.1431 562.449 Q86.1431 567.055 90.3621 569.921 Q93.5183 571.95 99.734 571.95 Z" fill="#000000" fill-rule="nonzero" fill-opacity="1" /><path clip-path="url(#clip490)" d="M113.84 542.508 L111.811 542.508 Q111.811 538.998 111.393 538.193 Q110.942 537.387 108.816 537.387 L91.0706 537.387 Q88.623 537.387 88.0433 538.225 Q87.4636 539.03 87.4636 542.251 L85.4024 542.251 L84.6939 533.04 L108.88 533.04 Q110.845 533.04 111.328 532.331 Q111.811 531.623 111.811 528.402 L113.84 528.402 Q113.647 535.133 113.647 535.262 Q113.647 536.164 113.84 542.508 M73.1964 539.739 Q71.876 539.739 70.8132 538.74 Q69.7182 537.71 69.7182 536.26 Q69.7182 534.811 70.7165 533.78 Q71.6827 532.75 73.2286 532.75 Q74.7423 532.75 75.7407 533.78 Q76.7068 534.811 76.7068 536.26 Q76.7068 537.774 75.644 538.772 Q74.5812 539.739 73.1964 539.739 Z" fill="#000000" fill-rule="nonzero" fill-opacity="1" /><path clip-path="url(#clip490)" d="M113.84 523.894 L111.811 523.894 Q111.811 520.383 111.393 519.578 Q110.942 518.741 108.816 518.741 L91.1351 518.741 Q88.6874 518.741 88.0755 519.61 Q87.4636 520.448 87.4636 523.894 L85.4024 523.894 L84.6939 514.715 L91.9402 514.715 Q89.1061 513.781 86.9161 511.817 Q84.6939 509.82 84.6939 506.599 Q84.6939 504.474 85.8855 503.121 Q87.0771 501.736 88.7196 501.736 Q90.1689 501.736 90.9096 502.638 Q91.6181 503.507 91.6181 504.57 Q91.6181 505.762 90.8774 506.599 Q90.1045 507.404 88.784 507.404 Q87.9789 507.404 87.367 507.05 Q86.7229 506.664 86.4974 506.374 Q86.272 506.084 86.2076 505.891 Q86.1431 506.02 86.1431 506.599 Q86.1431 510.238 89.7824 512.332 Q93.3895 514.393 98.5424 514.393 L108.687 514.393 Q110.587 514.393 111.199 513.62 Q111.811 512.815 111.811 509.369 L111.811 507.984 L113.84 507.984 Q113.647 510.625 113.647 516.358 Q113.647 517.163 113.679 518.419 Q113.711 519.675 113.776 521.317 Q113.84 522.96 113.84 523.894 Z" fill="#000000" fill-rule="nonzero" fill-opacity="1" /><path clip-path="url(#clip490)" d="M129.396 489.661 Q129.074 489.661 128.365 489.403 L66.1433 466.118 Q66.0789 466.118 65.7246 465.957 Q65.3704 465.796 65.1449 465.699 Q64.8873 465.603 64.694 465.41 Q64.5008 465.184 64.5008 464.926 Q64.5008 464.282 65.306 464.282 Q65.3704 464.282 66.1433 464.476 L128.429 487.825 Q129.557 488.211 129.879 488.469 Q130.201 488.694 130.201 489.081 Q130.201 489.661 129.396 489.661 Z" fill="#000000" fill-rule="nonzero" fill-opacity="1" /><path clip-path="url(#clip490)" d="M113.84 448.282 L111.811 448.282 L111.811 446.704 Q111.811 443.129 111.232 442.324 Q110.62 441.487 108.687 441.487 L73.9371 441.487 Q72.037 441.487 71.4573 442.324 Q70.8454 443.161 70.8454 446.704 L70.8454 448.282 L68.7842 448.282 Q68.9774 445.963 68.9774 438.524 Q68.9774 431.149 68.7842 428.83 L70.8454 428.83 L70.8454 430.408 Q70.8454 433.983 71.4573 434.82 Q72.037 435.625 73.9371 435.625 L89.3637 435.625 L89.3637 415.915 L73.9371 415.915 Q72.037 415.915 71.4573 416.753 Q70.8454 417.558 70.8454 421.133 L70.8454 422.711 L68.7842 422.711 Q68.9774 420.392 68.9774 412.952 Q68.9774 405.577 68.7842 403.258 L70.8454 403.258 L70.8454 404.836 Q70.8454 408.411 71.4573 409.249 Q72.037 410.054 73.9371 410.054 L108.687 410.054 Q110.587 410.054 111.199 409.216 Q111.811 408.379 111.811 404.836 L111.811 403.258 L113.84 403.258 Q113.647 405.577 113.647 413.017 Q113.647 420.392 113.84 422.711 L111.811 422.711 L111.811 421.133 Q111.811 417.558 111.232 416.753 Q110.62 415.915 108.687 415.915 L91.4249 415.915 L91.4249 435.625 L108.687 435.625 Q110.587 435.625 111.199 434.82 Q111.811 433.983 111.811 430.408 L111.811 428.83 L113.84 428.83 Q113.647 431.149 113.647 438.588 Q113.647 445.963 113.84 448.282 Z" fill="#000000" fill-rule="nonzero" fill-opacity="1" /><path clip-path="url(#clip490)" d="M112.906 395.326 Q112.455 395.326 111.715 394.714 L86.8517 376.325 L86.8517 383.829 Q86.8517 389.046 88.784 390.753 Q90.6842 392.427 96.0303 392.75 L96.0303 394.392 L85.4024 393.651 L85.4024 372.556 Q85.4024 371.816 85.4346 371.526 Q85.4668 371.236 85.6923 371.043 Q85.8855 370.85 86.272 370.85 Q86.6584 370.85 87.3992 371.429 L112.198 389.787 L112.198 381.993 Q112.198 376.518 109.911 374.682 Q107.624 372.814 101.505 372.363 L101.505 370.721 L113.84 371.848 L113.84 393.587 Q113.84 394.65 113.711 395.004 Q113.55 395.326 112.906 395.326 Z" fill="#000000" fill-rule="nonzero" fill-opacity="1" /><path clip-path="url(#clip492)" d="M266.084 571.889 L266.084 359.575 L278.148 359.575 L278.148 571.889 L266.084 571.889 L266.084 571.889  Z" fill="#a6cee2" fill-rule="evenodd" fill-opacity="1"/>
<polyline clip-path="url(#clip492)" style="stroke:#000000; stroke-linecap:round; stroke-linejoin:round; stroke-width:0; stroke-opacity:1; fill:none" points="266.084,571.889 266.084,359.575 278.148,359.575 278.148,571.889 266.084,571.889 "/>
<path clip-path="url(#clip492)" d="M302.275 571.942 L302.275 359.575 L314.338 359.575 L314.338 571.942 L302.275 571.942 L302.275 571.942  Z" fill="#a6cee2" fill-rule="evenodd" fill-opacity="1"/>
<polyline clip-path="url(#clip492)" style="stroke:#000000; stroke-linecap:round; stroke-linejoin:round; stroke-width:0; stroke-opacity:1; fill:none" points="302.275,571.942 302.275,359.575 314.338,359.575 314.338,571.942 302.275,571.942 "/>
<path clip-path="url(#clip492)" d="M338.466 572.455 L338.466 359.575 L350.529 359.575 L350.529 572.455 L338.466 572.455 L338.466 572.455  Z" fill="#a6cee2" fill-rule="evenodd" fill-opacity="1"/>
<polyline clip-path="url(#clip492)" style="stroke:#000000; stroke-linecap:round; stroke-linejoin:round; stroke-width:0; stroke-opacity:1; fill:none" points="338.466,572.455 338.466,359.575 350.529,359.575 350.529,572.455 338.466,572.455 "/>
<path clip-path="url(#clip492)" d="M374.656 576.191 L374.656 359.575 L386.72 359.575 L386.72 576.191 L374.656 576.191 L374.656 576.191  Z" fill="#a6cee2" fill-rule="evenodd" fill-opacity="1"/>
<polyline clip-path="url(#clip492)" style="stroke:#000000; stroke-linecap:round; stroke-linejoin:round; stroke-width:0; stroke-opacity:1; fill:none" points="374.656,576.191 374.656,359.575 386.72,359.575 386.72,576.191 374.656,576.191 "/>
<path clip-path="url(#clip492)" d="M410.847 575.017 L410.847 359.575 L422.91 359.575 L422.91 575.017 L410.847 575.017 L410.847 575.017  Z" fill="#a6cee2" fill-rule="evenodd" fill-opacity="1"/>
<polyline clip-path="url(#clip492)" style="stroke:#000000; stroke-linecap:round; stroke-linejoin:round; stroke-width:0; stroke-opacity:1; fill:none" points="410.847,575.017 410.847,359.575 422.91,359.575 422.91,575.017 410.847,575.017 "/>
<path clip-path="url(#clip492)" d="M447.038 574.147 L447.038 359.575 L459.101 359.575 L459.101 574.147 L447.038 574.147 L447.038 574.147  Z" fill="#a6cee2" fill-rule="evenodd" fill-opacity="1"/>
<polyline clip-path="url(#clip492)" style="stroke:#000000; stroke-linecap:round; stroke-linejoin:round; stroke-width:0; stroke-opacity:1; fill:none" points="447.038,574.147 447.038,359.575 459.101,359.575 459.101,574.147 447.038,574.147 "/>
<path clip-path="url(#clip492)" d="M483.228 574.974 L483.228 359.575 L495.292 359.575 L495.292 574.974 L483.228 574.974 L483.228 574.974  Z" fill="#a6cee2" fill-rule="evenodd" fill-opacity="1"/>
<polyline clip-path="url(#clip492)" style="stroke:#000000; stroke-linecap:round; stroke-linejoin:round; stroke-width:0; stroke-opacity:1; fill:none" points="483.228,574.974 483.228,359.575 495.292,359.575 495.292,574.974 483.228,574.974 "/>
<path clip-path="url(#clip492)" d="M519.419 571.144 L519.419 359.575 L531.482 359.575 L531.482 571.144 L519.419 571.144 L519.419 571.144  Z" fill="#a6cee2" fill-rule="evenodd" fill-opacity="1"/>
<polyline clip-path="url(#clip492)" style="stroke:#000000; stroke-linecap:round; stroke-linejoin:round; stroke-width:0; stroke-opacity:1; fill:none" points="519.419,571.144 519.419,359.575 531.482,359.575 531.482,571.144 519.419,571.144 "/>
<path clip-path="url(#clip492)" d="M555.61 573.687 L555.61 359.575 L567.673 359.575 L567.673 573.687 L555.61 573.687 L555.61 573.687  Z" fill="#a6cee2" fill-rule="evenodd" fill-opacity="1"/>
<polyline clip-path="url(#clip492)" style="stroke:#000000; stroke-linecap:round; stroke-linejoin:round; stroke-width:0; stroke-opacity:1; fill:none" points="555.61,573.687 555.61,359.575 567.673,359.575 567.673,573.687 555.61,573.687 "/>
<path clip-path="url(#clip492)" d="M591.8 569.519 L591.8 359.575 L603.864 359.575 L603.864 569.519 L591.8 569.519 L591.8 569.519  Z" fill="#a6cee2" fill-rule="evenodd" fill-opacity="1"/>
<polyline clip-path="url(#clip492)" style="stroke:#000000; stroke-linecap:round; stroke-linejoin:round; stroke-width:0; stroke-opacity:1; fill:none" points="591.8,569.519 591.8,359.575 603.864,359.575 603.864,569.519 591.8,569.519 "/>
<path clip-path="url(#clip492)" d="M627.991 572.714 L627.991 359.575 L640.055 359.575 L640.055 572.714 L627.991 572.714 L627.991 572.714  Z" fill="#a6cee2" fill-rule="evenodd" fill-opacity="1"/>
<polyline clip-path="url(#clip492)" style="stroke:#000000; stroke-linecap:round; stroke-linejoin:round; stroke-width:0; stroke-opacity:1; fill:none" points="627.991,572.714 627.991,359.575 640.055,359.575 640.055,572.714 627.991,572.714 "/>
<path clip-path="url(#clip492)" d="M664.182 570.08 L664.182 359.575 L676.245 359.575 L676.245 570.08 L664.182 570.08 L664.182 570.08  Z" fill="#a6cee2" fill-rule="evenodd" fill-opacity="1"/>
<polyline clip-path="url(#clip492)" style="stroke:#000000; stroke-linecap:round; stroke-linejoin:round; stroke-width:0; stroke-opacity:1; fill:none" points="664.182,570.08 664.182,359.575 676.245,359.575 676.245,570.08 664.182,570.08 "/>
<path clip-path="url(#clip492)" d="M700.372 576.71 L700.372 359.575 L712.436 359.575 L712.436 576.71 L700.372 576.71 L700.372 576.71  Z" fill="#a6cee2" fill-rule="evenodd" fill-opacity="1"/>
<polyline clip-path="url(#clip492)" style="stroke:#000000; stroke-linecap:round; stroke-linejoin:round; stroke-width:0; stroke-opacity:1; fill:none" points="700.372,576.71 700.372,359.575 712.436,359.575 712.436,576.71 700.372,576.71 "/>
<path clip-path="url(#clip492)" d="M736.563 570.318 L736.563 359.575 L748.627 359.575 L748.627 570.318 L736.563 570.318 L736.563 570.318  Z" fill="#a6cee2" fill-rule="evenodd" fill-opacity="1"/>
<polyline clip-path="url(#clip492)" style="stroke:#000000; stroke-linecap:round; stroke-linejoin:round; stroke-width:0; stroke-opacity:1; fill:none" points="736.563,570.318 736.563,359.575 748.627,359.575 748.627,570.318 736.563,570.318 "/>
<path clip-path="url(#clip492)" d="M772.754 576.332 L772.754 359.575 L784.817 359.575 L784.817 576.332 L772.754 576.332 L772.754 576.332  Z" fill="#a6cee2" fill-rule="evenodd" fill-opacity="1"/>
<polyline clip-path="url(#clip492)" style="stroke:#000000; stroke-linecap:round; stroke-linejoin:round; stroke-width:0; stroke-opacity:1; fill:none" points="772.754,576.332 772.754,359.575 784.817,359.575 784.817,576.332 772.754,576.332 "/>
<path clip-path="url(#clip492)" d="M808.944 573.364 L808.944 359.575 L821.008 359.575 L821.008 573.364 L808.944 573.364 L808.944 573.364  Z" fill="#a6cee2" fill-rule="evenodd" fill-opacity="1"/>
<polyline clip-path="url(#clip492)" style="stroke:#000000; stroke-linecap:round; stroke-linejoin:round; stroke-width:0; stroke-opacity:1; fill:none" points="808.944,573.364 808.944,359.575 821.008,359.575 821.008,573.364 808.944,573.364 "/>
<path clip-path="url(#clip492)" d="M845.135 576.403 L845.135 359.575 L857.199 359.575 L857.199 576.403 L845.135 576.403 L845.135 576.403  Z" fill="#a6cee2" fill-rule="evenodd" fill-opacity="1"/>
<polyline clip-path="url(#clip492)" style="stroke:#000000; stroke-linecap:round; stroke-linejoin:round; stroke-width:0; stroke-opacity:1; fill:none" points="845.135,576.403 845.135,359.575 857.199,359.575 857.199,576.403 845.135,576.403 "/>
<path clip-path="url(#clip492)" d="M881.326 570.538 L881.326 359.575 L893.389 359.575 L893.389 570.538 L881.326 570.538 L881.326 570.538  Z" fill="#a6cee2" fill-rule="evenodd" fill-opacity="1"/>
<polyline clip-path="url(#clip492)" style="stroke:#000000; stroke-linecap:round; stroke-linejoin:round; stroke-width:0; stroke-opacity:1; fill:none" points="881.326,570.538 881.326,359.575 893.389,359.575 893.389,570.538 881.326,570.538 "/>
<path clip-path="url(#clip492)" d="M917.516 575.164 L917.516 359.575 L929.58 359.575 L929.58 575.164 L917.516 575.164 L917.516 575.164  Z" fill="#a6cee2" fill-rule="evenodd" fill-opacity="1"/>
<polyline clip-path="url(#clip492)" style="stroke:#000000; stroke-linecap:round; stroke-linejoin:round; stroke-width:0; stroke-opacity:1; fill:none" points="917.516,575.164 917.516,359.575 929.58,359.575 929.58,575.164 917.516,575.164 "/>
<path clip-path="url(#clip492)" d="M953.707 570.328 L953.707 359.575 L965.771 359.575 L965.771 570.328 L953.707 570.328 L953.707 570.328  Z" fill="#a6cee2" fill-rule="evenodd" fill-opacity="1"/>
<polyline clip-path="url(#clip492)" style="stroke:#000000; stroke-linecap:round; stroke-linejoin:round; stroke-width:0; stroke-opacity:1; fill:none" points="953.707,570.328 953.707,359.575 965.771,359.575 965.771,570.328 953.707,570.328 "/>
<path clip-path="url(#clip492)" d="M989.898 571.051 L989.898 359.575 L1001.96 359.575 L1001.96 571.051 L989.898 571.051 L989.898 571.051  Z" fill="#a6cee2" fill-rule="evenodd" fill-opacity="1"/>
<polyline clip-path="url(#clip492)" style="stroke:#000000; stroke-linecap:round; stroke-linejoin:round; stroke-width:0; stroke-opacity:1; fill:none" points="989.898,571.051 989.898,359.575 1001.96,359.575 1001.96,571.051 989.898,571.051 "/>
<path clip-path="url(#clip492)" d="M1026.09 576.636 L1026.09 359.575 L1038.15 359.575 L1038.15 576.636 L1026.09 576.636 L1026.09 576.636  Z" fill="#a6cee2" fill-rule="evenodd" fill-opacity="1"/>
<polyline clip-path="url(#clip492)" style="stroke:#000000; stroke-linecap:round; stroke-linejoin:round; stroke-width:0; stroke-opacity:1; fill:none" points="1026.09,576.636 1026.09,359.575 1038.15,359.575 1038.15,576.636 1026.09,576.636 "/>
<path clip-path="url(#clip492)" d="M1062.28 568.498 L1062.28 359.575 L1074.34 359.575 L1074.34 568.498 L1062.28 568.498 L1062.28 568.498  Z" fill="#a6cee2" fill-rule="evenodd" fill-opacity="1"/>
<polyline clip-path="url(#clip492)" style="stroke:#000000; stroke-linecap:round; stroke-linejoin:round; stroke-width:0; stroke-opacity:1; fill:none" points="1062.28,568.498 1062.28,359.575 1074.34,359.575 1074.34,568.498 1062.28,568.498 "/>
<path clip-path="url(#clip492)" d="M1098.47 573.619 L1098.47 359.575 L1110.53 359.575 L1110.53 573.619 L1098.47 573.619 L1098.47 573.619  Z" fill="#a6cee2" fill-rule="evenodd" fill-opacity="1"/>
<polyline clip-path="url(#clip492)" style="stroke:#000000; stroke-linecap:round; stroke-linejoin:round; stroke-width:0; stroke-opacity:1; fill:none" points="1098.47,573.619 1098.47,359.575 1110.53,359.575 1110.53,573.619 1098.47,573.619 "/>
<circle clip-path="url(#clip492)" style="fill:#a6cee2; stroke:none; fill-opacity:0" cx="272.116" cy="571.889" r="2"/>
<circle clip-path="url(#clip492)" style="fill:#a6cee2; stroke:none; fill-opacity:0" cx="308.307" cy="571.942" r="2"/>
<circle clip-path="url(#clip492)" style="fill:#a6cee2; stroke:none; fill-opacity:0" cx="344.497" cy="572.455" r="2"/>
<circle clip-path="url(#clip492)" style="fill:#a6cee2; stroke:none; fill-opacity:0" cx="380.688" cy="576.191" r="2"/>
<circle clip-path="url(#clip492)" style="fill:#a6cee2; stroke:none; fill-opacity:0" cx="416.879" cy="575.017" r="2"/>
<circle clip-path="url(#clip492)" style="fill:#a6cee2; stroke:none; fill-opacity:0" cx="453.069" cy="574.147" r="2"/>
<circle clip-path="url(#clip492)" style="fill:#a6cee2; stroke:none; fill-opacity:0" cx="489.26" cy="574.974" r="2"/>
<circle clip-path="url(#clip492)" style="fill:#a6cee2; stroke:none; fill-opacity:0" cx="525.451" cy="571.144" r="2"/>
<circle clip-path="url(#clip492)" style="fill:#a6cee2; stroke:none; fill-opacity:0" cx="561.641" cy="573.687" r="2"/>
<circle clip-path="url(#clip492)" style="fill:#a6cee2; stroke:none; fill-opacity:0" cx="597.832" cy="569.519" r="2"/>
<circle clip-path="url(#clip492)" style="fill:#a6cee2; stroke:none; fill-opacity:0" cx="634.023" cy="572.714" r="2"/>
<circle clip-path="url(#clip492)" style="fill:#a6cee2; stroke:none; fill-opacity:0" cx="670.213" cy="570.08" r="2"/>
<circle clip-path="url(#clip492)" style="fill:#a6cee2; stroke:none; fill-opacity:0" cx="706.404" cy="576.71" r="2"/>
<circle clip-path="url(#clip492)" style="fill:#a6cee2; stroke:none; fill-opacity:0" cx="742.595" cy="570.318" r="2"/>
<circle clip-path="url(#clip492)" style="fill:#a6cee2; stroke:none; fill-opacity:0" cx="778.785" cy="576.332" r="2"/>
<circle clip-path="url(#clip492)" style="fill:#a6cee2; stroke:none; fill-opacity:0" cx="814.976" cy="573.364" r="2"/>
<circle clip-path="url(#clip492)" style="fill:#a6cee2; stroke:none; fill-opacity:0" cx="851.167" cy="576.403" r="2"/>
<circle clip-path="url(#clip492)" style="fill:#a6cee2; stroke:none; fill-opacity:0" cx="887.358" cy="570.538" r="2"/>
<circle clip-path="url(#clip492)" style="fill:#a6cee2; stroke:none; fill-opacity:0" cx="923.548" cy="575.164" r="2"/>
<circle clip-path="url(#clip492)" style="fill:#a6cee2; stroke:none; fill-opacity:0" cx="959.739" cy="570.328" r="2"/>
<circle clip-path="url(#clip492)" style="fill:#a6cee2; stroke:none; fill-opacity:0" cx="995.93" cy="571.051" r="2"/>
<circle clip-path="url(#clip492)" style="fill:#a6cee2; stroke:none; fill-opacity:0" cx="1032.12" cy="576.636" r="2"/>
<circle clip-path="url(#clip492)" style="fill:#a6cee2; stroke:none; fill-opacity:0" cx="1068.31" cy="568.498" r="2"/>
<circle clip-path="url(#clip492)" style="fill:#a6cee2; stroke:none; fill-opacity:0" cx="1104.5" cy="573.619" r="2"/>
<path clip-path="url(#clip492)" d="M278.148 526.734 L278.148 359.575 L290.211 359.575 L290.211 526.734 L278.148 526.734 L278.148 526.734  Z" fill="#1f78b4" fill-rule="evenodd" fill-opacity="1"/>
<polyline clip-path="url(#clip492)" style="stroke:#000000; stroke-linecap:round; stroke-linejoin:round; stroke-width:0; stroke-opacity:1; fill:none" points="278.148,526.734 278.148,359.575 290.211,359.575 290.211,526.734 278.148,526.734 "/>
<path clip-path="url(#clip492)" d="M314.338 526.734 L314.338 359.575 L326.402 359.575 L326.402 526.734 L314.338 526.734 L314.338 526.734  Z" fill="#1f78b4" fill-rule="evenodd" fill-opacity="1"/>
<polyline clip-path="url(#clip492)" style="stroke:#000000; stroke-linecap:round; stroke-linejoin:round; stroke-width:0; stroke-opacity:1; fill:none" points="314.338,526.734 314.338,359.575 326.402,359.575 326.402,526.734 314.338,526.734 "/>
<path clip-path="url(#clip492)" d="M350.529 526.734 L350.529 359.575 L362.593 359.575 L362.593 526.734 L350.529 526.734 L350.529 526.734  Z" fill="#1f78b4" fill-rule="evenodd" fill-opacity="1"/>
<polyline clip-path="url(#clip492)" style="stroke:#000000; stroke-linecap:round; stroke-linejoin:round; stroke-width:0; stroke-opacity:1; fill:none" points="350.529,526.734 350.529,359.575 362.593,359.575 362.593,526.734 350.529,526.734 "/>
<path clip-path="url(#clip492)" d="M386.72 526.734 L386.72 359.575 L398.783 359.575 L398.783 526.734 L386.72 526.734 L386.72 526.734  Z" fill="#1f78b4" fill-rule="evenodd" fill-opacity="1"/>
<polyline clip-path="url(#clip492)" style="stroke:#000000; stroke-linecap:round; stroke-linejoin:round; stroke-width:0; stroke-opacity:1; fill:none" points="386.72,526.734 386.72,359.575 398.783,359.575 398.783,526.734 386.72,526.734 "/>
<path clip-path="url(#clip492)" d="M422.91 526.734 L422.91 359.575 L434.974 359.575 L434.974 526.734 L422.91 526.734 L422.91 526.734  Z" fill="#1f78b4" fill-rule="evenodd" fill-opacity="1"/>
<polyline clip-path="url(#clip492)" style="stroke:#000000; stroke-linecap:round; stroke-linejoin:round; stroke-width:0; stroke-opacity:1; fill:none" points="422.91,526.734 422.91,359.575 434.974,359.575 434.974,526.734 422.91,526.734 "/>
<path clip-path="url(#clip492)" d="M459.101 526.734 L459.101 359.575 L471.165 359.575 L471.165 526.734 L459.101 526.734 L459.101 526.734  Z" fill="#1f78b4" fill-rule="evenodd" fill-opacity="1"/>
<polyline clip-path="url(#clip492)" style="stroke:#000000; stroke-linecap:round; stroke-linejoin:round; stroke-width:0; stroke-opacity:1; fill:none" points="459.101,526.734 459.101,359.575 471.165,359.575 471.165,526.734 459.101,526.734 "/>
<path clip-path="url(#clip492)" d="M495.292 526.734 L495.292 359.575 L507.355 359.575 L507.355 526.734 L495.292 526.734 L495.292 526.734  Z" fill="#1f78b4" fill-rule="evenodd" fill-opacity="1"/>
<polyline clip-path="url(#clip492)" style="stroke:#000000; stroke-linecap:round; stroke-linejoin:round; stroke-width:0; stroke-opacity:1; fill:none" points="495.292,526.734 495.292,359.575 507.355,359.575 507.355,526.734 495.292,526.734 "/>
<path clip-path="url(#clip492)" d="M531.482 526.734 L531.482 359.575 L543.546 359.575 L543.546 526.734 L531.482 526.734 L531.482 526.734  Z" fill="#1f78b4" fill-rule="evenodd" fill-opacity="1"/>
<polyline clip-path="url(#clip492)" style="stroke:#000000; stroke-linecap:round; stroke-linejoin:round; stroke-width:0; stroke-opacity:1; fill:none" points="531.482,526.734 531.482,359.575 543.546,359.575 543.546,526.734 531.482,526.734 "/>
<path clip-path="url(#clip492)" d="M567.673 526.734 L567.673 359.575 L579.737 359.575 L579.737 526.734 L567.673 526.734 L567.673 526.734  Z" fill="#1f78b4" fill-rule="evenodd" fill-opacity="1"/>
<polyline clip-path="url(#clip492)" style="stroke:#000000; stroke-linecap:round; stroke-linejoin:round; stroke-width:0; stroke-opacity:1; fill:none" points="567.673,526.734 567.673,359.575 579.737,359.575 579.737,526.734 567.673,526.734 "/>
<path clip-path="url(#clip492)" d="M603.864 526.734 L603.864 359.575 L615.927 359.575 L615.927 526.734 L603.864 526.734 L603.864 526.734  Z" fill="#1f78b4" fill-rule="evenodd" fill-opacity="1"/>
<polyline clip-path="url(#clip492)" style="stroke:#000000; stroke-linecap:round; stroke-linejoin:round; stroke-width:0; stroke-opacity:1; fill:none" points="603.864,526.734 603.864,359.575 615.927,359.575 615.927,526.734 603.864,526.734 "/>
<path clip-path="url(#clip492)" d="M640.055 526.734 L640.055 359.575 L652.118 359.575 L652.118 526.734 L640.055 526.734 L640.055 526.734  Z" fill="#1f78b4" fill-rule="evenodd" fill-opacity="1"/>
<polyline clip-path="url(#clip492)" style="stroke:#000000; stroke-linecap:round; stroke-linejoin:round; stroke-width:0; stroke-opacity:1; fill:none" points="640.055,526.734 640.055,359.575 652.118,359.575 652.118,526.734 640.055,526.734 "/>
<path clip-path="url(#clip492)" d="M676.245 526.734 L676.245 359.575 L688.309 359.575 L688.309 526.734 L676.245 526.734 L676.245 526.734  Z" fill="#1f78b4" fill-rule="evenodd" fill-opacity="1"/>
<polyline clip-path="url(#clip492)" style="stroke:#000000; stroke-linecap:round; stroke-linejoin:round; stroke-width:0; stroke-opacity:1; fill:none" points="676.245,526.734 676.245,359.575 688.309,359.575 688.309,526.734 676.245,526.734 "/>
<path clip-path="url(#clip492)" d="M712.436 526.734 L712.436 359.575 L724.499 359.575 L724.499 526.734 L712.436 526.734 L712.436 526.734  Z" fill="#1f78b4" fill-rule="evenodd" fill-opacity="1"/>
<polyline clip-path="url(#clip492)" style="stroke:#000000; stroke-linecap:round; stroke-linejoin:round; stroke-width:0; stroke-opacity:1; fill:none" points="712.436,526.734 712.436,359.575 724.499,359.575 724.499,526.734 712.436,526.734 "/>
<path clip-path="url(#clip492)" d="M748.627 526.734 L748.627 359.575 L760.69 359.575 L760.69 526.734 L748.627 526.734 L748.627 526.734  Z" fill="#1f78b4" fill-rule="evenodd" fill-opacity="1"/>
<polyline clip-path="url(#clip492)" style="stroke:#000000; stroke-linecap:round; stroke-linejoin:round; stroke-width:0; stroke-opacity:1; fill:none" points="748.627,526.734 748.627,359.575 760.69,359.575 760.69,526.734 748.627,526.734 "/>
<path clip-path="url(#clip492)" d="M784.817 526.734 L784.817 359.575 L796.881 359.575 L796.881 526.734 L784.817 526.734 L784.817 526.734  Z" fill="#1f78b4" fill-rule="evenodd" fill-opacity="1"/>
<polyline clip-path="url(#clip492)" style="stroke:#000000; stroke-linecap:round; stroke-linejoin:round; stroke-width:0; stroke-opacity:1; fill:none" points="784.817,526.734 784.817,359.575 796.881,359.575 796.881,526.734 784.817,526.734 "/>
<path clip-path="url(#clip492)" d="M821.008 526.734 L821.008 359.575 L833.072 359.575 L833.072 526.734 L821.008 526.734 L821.008 526.734  Z" fill="#1f78b4" fill-rule="evenodd" fill-opacity="1"/>
<polyline clip-path="url(#clip492)" style="stroke:#000000; stroke-linecap:round; stroke-linejoin:round; stroke-width:0; stroke-opacity:1; fill:none" points="821.008,526.734 821.008,359.575 833.072,359.575 833.072,526.734 821.008,526.734 "/>
<path clip-path="url(#clip492)" d="M857.199 526.734 L857.199 359.575 L869.262 359.575 L869.262 526.734 L857.199 526.734 L857.199 526.734  Z" fill="#1f78b4" fill-rule="evenodd" fill-opacity="1"/>
<polyline clip-path="url(#clip492)" style="stroke:#000000; stroke-linecap:round; stroke-linejoin:round; stroke-width:0; stroke-opacity:1; fill:none" points="857.199,526.734 857.199,359.575 869.262,359.575 869.262,526.734 857.199,526.734 "/>
<path clip-path="url(#clip492)" d="M893.389 526.734 L893.389 359.575 L905.453 359.575 L905.453 526.734 L893.389 526.734 L893.389 526.734  Z" fill="#1f78b4" fill-rule="evenodd" fill-opacity="1"/>
<polyline clip-path="url(#clip492)" style="stroke:#000000; stroke-linecap:round; stroke-linejoin:round; stroke-width:0; stroke-opacity:1; fill:none" points="893.389,526.734 893.389,359.575 905.453,359.575 905.453,526.734 893.389,526.734 "/>
<path clip-path="url(#clip492)" d="M929.58 526.734 L929.58 359.575 L941.644 359.575 L941.644 526.734 L929.58 526.734 L929.58 526.734  Z" fill="#1f78b4" fill-rule="evenodd" fill-opacity="1"/>
<polyline clip-path="url(#clip492)" style="stroke:#000000; stroke-linecap:round; stroke-linejoin:round; stroke-width:0; stroke-opacity:1; fill:none" points="929.58,526.734 929.58,359.575 941.644,359.575 941.644,526.734 929.58,526.734 "/>
<path clip-path="url(#clip492)" d="M965.771 526.734 L965.771 359.575 L977.834 359.575 L977.834 526.734 L965.771 526.734 L965.771 526.734  Z" fill="#1f78b4" fill-rule="evenodd" fill-opacity="1"/>
<polyline clip-path="url(#clip492)" style="stroke:#000000; stroke-linecap:round; stroke-linejoin:round; stroke-width:0; stroke-opacity:1; fill:none" points="965.771,526.734 965.771,359.575 977.834,359.575 977.834,526.734 965.771,526.734 "/>
<path clip-path="url(#clip492)" d="M1001.96 526.734 L1001.96 359.575 L1014.02 359.575 L1014.02 526.734 L1001.96 526.734 L1001.96 526.734  Z" fill="#1f78b4" fill-rule="evenodd" fill-opacity="1"/>
<polyline clip-path="url(#clip492)" style="stroke:#000000; stroke-linecap:round; stroke-linejoin:round; stroke-width:0; stroke-opacity:1; fill:none" points="1001.96,526.734 1001.96,359.575 1014.02,359.575 1014.02,526.734 1001.96,526.734 "/>
<path clip-path="url(#clip492)" d="M1038.15 526.734 L1038.15 359.575 L1050.22 359.575 L1050.22 526.734 L1038.15 526.734 L1038.15 526.734  Z" fill="#1f78b4" fill-rule="evenodd" fill-opacity="1"/>
<polyline clip-path="url(#clip492)" style="stroke:#000000; stroke-linecap:round; stroke-linejoin:round; stroke-width:0; stroke-opacity:1; fill:none" points="1038.15,526.734 1038.15,359.575 1050.22,359.575 1050.22,526.734 1038.15,526.734 "/>
<path clip-path="url(#clip492)" d="M1074.34 526.734 L1074.34 359.575 L1086.41 359.575 L1086.41 526.734 L1074.34 526.734 L1074.34 526.734  Z" fill="#1f78b4" fill-rule="evenodd" fill-opacity="1"/>
<polyline clip-path="url(#clip492)" style="stroke:#000000; stroke-linecap:round; stroke-linejoin:round; stroke-width:0; stroke-opacity:1; fill:none" points="1074.34,526.734 1074.34,359.575 1086.41,359.575 1086.41,526.734 1074.34,526.734 "/>
<path clip-path="url(#clip492)" d="M1110.53 526.734 L1110.53 359.575 L1122.6 359.575 L1122.6 526.734 L1110.53 526.734 L1110.53 526.734  Z" fill="#1f78b4" fill-rule="evenodd" fill-opacity="1"/>
<polyline clip-path="url(#clip492)" style="stroke:#000000; stroke-linecap:round; stroke-linejoin:round; stroke-width:0; stroke-opacity:1; fill:none" points="1110.53,526.734 1110.53,359.575 1122.6,359.575 1122.6,526.734 1110.53,526.734 "/>
<circle clip-path="url(#clip492)" style="fill:#1f78b4; stroke:none; fill-opacity:0" cx="284.179" cy="526.734" r="2"/>
<circle clip-path="url(#clip492)" style="fill:#1f78b4; stroke:none; fill-opacity:0" cx="320.37" cy="526.734" r="2"/>
<circle clip-path="url(#clip492)" style="fill:#1f78b4; stroke:none; fill-opacity:0" cx="356.561" cy="526.734" r="2"/>
<circle clip-path="url(#clip492)" style="fill:#1f78b4; stroke:none; fill-opacity:0" cx="392.752" cy="526.734" r="2"/>
<circle clip-path="url(#clip492)" style="fill:#1f78b4; stroke:none; fill-opacity:0" cx="428.942" cy="526.734" r="2"/>
<circle clip-path="url(#clip492)" style="fill:#1f78b4; stroke:none; fill-opacity:0" cx="465.133" cy="526.734" r="2"/>
<circle clip-path="url(#clip492)" style="fill:#1f78b4; stroke:none; fill-opacity:0" cx="501.324" cy="526.734" r="2"/>
<circle clip-path="url(#clip492)" style="fill:#1f78b4; stroke:none; fill-opacity:0" cx="537.514" cy="526.734" r="2"/>
<circle clip-path="url(#clip492)" style="fill:#1f78b4; stroke:none; fill-opacity:0" cx="573.705" cy="526.734" r="2"/>
<circle clip-path="url(#clip492)" style="fill:#1f78b4; stroke:none; fill-opacity:0" cx="609.896" cy="526.734" r="2"/>
<circle clip-path="url(#clip492)" style="fill:#1f78b4; stroke:none; fill-opacity:0" cx="646.086" cy="526.734" r="2"/>
<circle clip-path="url(#clip492)" style="fill:#1f78b4; stroke:none; fill-opacity:0" cx="682.277" cy="526.734" r="2"/>
<circle clip-path="url(#clip492)" style="fill:#1f78b4; stroke:none; fill-opacity:0" cx="718.468" cy="526.734" r="2"/>
<circle clip-path="url(#clip492)" style="fill:#1f78b4; stroke:none; fill-opacity:0" cx="754.658" cy="526.734" r="2"/>
<circle clip-path="url(#clip492)" style="fill:#1f78b4; stroke:none; fill-opacity:0" cx="790.849" cy="526.734" r="2"/>
<circle clip-path="url(#clip492)" style="fill:#1f78b4; stroke:none; fill-opacity:0" cx="827.04" cy="526.734" r="2"/>
<circle clip-path="url(#clip492)" style="fill:#1f78b4; stroke:none; fill-opacity:0" cx="863.23" cy="526.734" r="2"/>
<circle clip-path="url(#clip492)" style="fill:#1f78b4; stroke:none; fill-opacity:0" cx="899.421" cy="526.734" r="2"/>
<circle clip-path="url(#clip492)" style="fill:#1f78b4; stroke:none; fill-opacity:0" cx="935.612" cy="526.734" r="2"/>
<circle clip-path="url(#clip492)" style="fill:#1f78b4; stroke:none; fill-opacity:0" cx="971.802" cy="526.734" r="2"/>
<circle clip-path="url(#clip492)" style="fill:#1f78b4; stroke:none; fill-opacity:0" cx="1007.99" cy="526.734" r="2"/>
<circle clip-path="url(#clip492)" style="fill:#1f78b4; stroke:none; fill-opacity:0" cx="1044.18" cy="526.734" r="2"/>
<circle clip-path="url(#clip492)" style="fill:#1f78b4; stroke:none; fill-opacity:0" cx="1080.37" cy="526.734" r="2"/>
<circle clip-path="url(#clip492)" style="fill:#1f78b4; stroke:none; fill-opacity:0" cx="1116.57" cy="526.734" r="2"/>
<path clip-path="url(#clip492)" d="M290.211 779.166 L290.211 359.575 L302.275 359.575 L302.275 779.166 L290.211 779.166 L290.211 779.166  Z" fill="#b1df89" fill-rule="evenodd" fill-opacity="1"/>
<polyline clip-path="url(#clip492)" style="stroke:#000000; stroke-linecap:round; stroke-linejoin:round; stroke-width:0; stroke-opacity:1; fill:none" points="290.211,779.166 290.211,359.575 302.275,359.575 302.275,779.166 290.211,779.166 "/>
<path clip-path="url(#clip492)" d="M326.402 779.166 L326.402 359.575 L338.466 359.575 L338.466 779.166 L326.402 779.166 L326.402 779.166  Z" fill="#b1df89" fill-rule="evenodd" fill-opacity="1"/>
<polyline clip-path="url(#clip492)" style="stroke:#000000; stroke-linecap:round; stroke-linejoin:round; stroke-width:0; stroke-opacity:1; fill:none" points="326.402,779.166 326.402,359.575 338.466,359.575 338.466,779.166 326.402,779.166 "/>
<path clip-path="url(#clip492)" d="M362.593 779.166 L362.593 359.575 L374.656 359.575 L374.656 779.166 L362.593 779.166 L362.593 779.166  Z" fill="#b1df89" fill-rule="evenodd" fill-opacity="1"/>
<polyline clip-path="url(#clip492)" style="stroke:#000000; stroke-linecap:round; stroke-linejoin:round; stroke-width:0; stroke-opacity:1; fill:none" points="362.593,779.166 362.593,359.575 374.656,359.575 374.656,779.166 362.593,779.166 "/>
<path clip-path="url(#clip492)" d="M398.783 779.166 L398.783 359.575 L410.847 359.575 L410.847 779.166 L398.783 779.166 L398.783 779.166  Z" fill="#b1df89" fill-rule="evenodd" fill-opacity="1"/>
<polyline clip-path="url(#clip492)" style="stroke:#000000; stroke-linecap:round; stroke-linejoin:round; stroke-width:0; stroke-opacity:1; fill:none" points="398.783,779.166 398.783,359.575 410.847,359.575 410.847,779.166 398.783,779.166 "/>
<path clip-path="url(#clip492)" d="M434.974 779.166 L434.974 359.575 L447.038 359.575 L447.038 779.166 L434.974 779.166 L434.974 779.166  Z" fill="#b1df89" fill-rule="evenodd" fill-opacity="1"/>
<polyline clip-path="url(#clip492)" style="stroke:#000000; stroke-linecap:round; stroke-linejoin:round; stroke-width:0; stroke-opacity:1; fill:none" points="434.974,779.166 434.974,359.575 447.038,359.575 447.038,779.166 434.974,779.166 "/>
<path clip-path="url(#clip492)" d="M471.165 779.166 L471.165 359.575 L483.228 359.575 L483.228 779.166 L471.165 779.166 L471.165 779.166  Z" fill="#b1df89" fill-rule="evenodd" fill-opacity="1"/>
<polyline clip-path="url(#clip492)" style="stroke:#000000; stroke-linecap:round; stroke-linejoin:round; stroke-width:0; stroke-opacity:1; fill:none" points="471.165,779.166 471.165,359.575 483.228,359.575 483.228,779.166 471.165,779.166 "/>
<path clip-path="url(#clip492)" d="M507.355 779.166 L507.355 359.575 L519.419 359.575 L519.419 779.166 L507.355 779.166 L507.355 779.166  Z" fill="#b1df89" fill-rule="evenodd" fill-opacity="1"/>
<polyline clip-path="url(#clip492)" style="stroke:#000000; stroke-linecap:round; stroke-linejoin:round; stroke-width:0; stroke-opacity:1; fill:none" points="507.355,779.166 507.355,359.575 519.419,359.575 519.419,779.166 507.355,779.166 "/>
<path clip-path="url(#clip492)" d="M543.546 779.166 L543.546 359.575 L555.61 359.575 L555.61 779.166 L543.546 779.166 L543.546 779.166  Z" fill="#b1df89" fill-rule="evenodd" fill-opacity="1"/>
<polyline clip-path="url(#clip492)" style="stroke:#000000; stroke-linecap:round; stroke-linejoin:round; stroke-width:0; stroke-opacity:1; fill:none" points="543.546,779.166 543.546,359.575 555.61,359.575 555.61,779.166 543.546,779.166 "/>
<path clip-path="url(#clip492)" d="M579.737 779.166 L579.737 359.575 L591.8 359.575 L591.8 779.166 L579.737 779.166 L579.737 779.166  Z" fill="#b1df89" fill-rule="evenodd" fill-opacity="1"/>
<polyline clip-path="url(#clip492)" style="stroke:#000000; stroke-linecap:round; stroke-linejoin:round; stroke-width:0; stroke-opacity:1; fill:none" points="579.737,779.166 579.737,359.575 591.8,359.575 591.8,779.166 579.737,779.166 "/>
<path clip-path="url(#clip492)" d="M615.927 779.166 L615.927 359.575 L627.991 359.575 L627.991 779.166 L615.927 779.166 L615.927 779.166  Z" fill="#b1df89" fill-rule="evenodd" fill-opacity="1"/>
<polyline clip-path="url(#clip492)" style="stroke:#000000; stroke-linecap:round; stroke-linejoin:round; stroke-width:0; stroke-opacity:1; fill:none" points="615.927,779.166 615.927,359.575 627.991,359.575 627.991,779.166 615.927,779.166 "/>
<path clip-path="url(#clip492)" d="M652.118 563.676 L652.118 359.575 L664.182 359.575 L664.182 563.676 L652.118 563.676 L652.118 563.676  Z" fill="#b1df89" fill-rule="evenodd" fill-opacity="1"/>
<polyline clip-path="url(#clip492)" style="stroke:#000000; stroke-linecap:round; stroke-linejoin:round; stroke-width:0; stroke-opacity:1; fill:none" points="652.118,563.676 652.118,359.575 664.182,359.575 664.182,563.676 652.118,563.676 "/>
<path clip-path="url(#clip492)" d="M688.309 563.676 L688.309 359.575 L700.372 359.575 L700.372 563.676 L688.309 563.676 L688.309 563.676  Z" fill="#b1df89" fill-rule="evenodd" fill-opacity="1"/>
<polyline clip-path="url(#clip492)" style="stroke:#000000; stroke-linecap:round; stroke-linejoin:round; stroke-width:0; stroke-opacity:1; fill:none" points="688.309,563.676 688.309,359.575 700.372,359.575 700.372,563.676 688.309,563.676 "/>
<path clip-path="url(#clip492)" d="M724.499 563.676 L724.499 359.575 L736.563 359.575 L736.563 563.676 L724.499 563.676 L724.499 563.676  Z" fill="#b1df89" fill-rule="evenodd" fill-opacity="1"/>
<polyline clip-path="url(#clip492)" style="stroke:#000000; stroke-linecap:round; stroke-linejoin:round; stroke-width:0; stroke-opacity:1; fill:none" points="724.499,563.676 724.499,359.575 736.563,359.575 736.563,563.676 724.499,563.676 "/>
<path clip-path="url(#clip492)" d="M760.69 563.676 L760.69 359.575 L772.754 359.575 L772.754 563.676 L760.69 563.676 L760.69 563.676  Z" fill="#b1df89" fill-rule="evenodd" fill-opacity="1"/>
<polyline clip-path="url(#clip492)" style="stroke:#000000; stroke-linecap:round; stroke-linejoin:round; stroke-width:0; stroke-opacity:1; fill:none" points="760.69,563.676 760.69,359.575 772.754,359.575 772.754,563.676 760.69,563.676 "/>
<path clip-path="url(#clip492)" d="M796.881 563.676 L796.881 359.575 L808.944 359.575 L808.944 563.676 L796.881 563.676 L796.881 563.676  Z" fill="#b1df89" fill-rule="evenodd" fill-opacity="1"/>
<polyline clip-path="url(#clip492)" style="stroke:#000000; stroke-linecap:round; stroke-linejoin:round; stroke-width:0; stroke-opacity:1; fill:none" points="796.881,563.676 796.881,359.575 808.944,359.575 808.944,563.676 796.881,563.676 "/>
<path clip-path="url(#clip492)" d="M833.072 779.166 L833.072 359.575 L845.135 359.575 L845.135 779.166 L833.072 779.166 L833.072 779.166  Z" fill="#b1df89" fill-rule="evenodd" fill-opacity="1"/>
<polyline clip-path="url(#clip492)" style="stroke:#000000; stroke-linecap:round; stroke-linejoin:round; stroke-width:0; stroke-opacity:1; fill:none" points="833.072,779.166 833.072,359.575 845.135,359.575 845.135,779.166 833.072,779.166 "/>
<path clip-path="url(#clip492)" d="M869.262 779.166 L869.262 359.575 L881.326 359.575 L881.326 779.166 L869.262 779.166 L869.262 779.166  Z" fill="#b1df89" fill-rule="evenodd" fill-opacity="1"/>
<polyline clip-path="url(#clip492)" style="stroke:#000000; stroke-linecap:round; stroke-linejoin:round; stroke-width:0; stroke-opacity:1; fill:none" points="869.262,779.166 869.262,359.575 881.326,359.575 881.326,779.166 869.262,779.166 "/>
<path clip-path="url(#clip492)" d="M905.453 779.166 L905.453 359.575 L917.516 359.575 L917.516 779.166 L905.453 779.166 L905.453 779.166  Z" fill="#b1df89" fill-rule="evenodd" fill-opacity="1"/>
<polyline clip-path="url(#clip492)" style="stroke:#000000; stroke-linecap:round; stroke-linejoin:round; stroke-width:0; stroke-opacity:1; fill:none" points="905.453,779.166 905.453,359.575 917.516,359.575 917.516,779.166 905.453,779.166 "/>
<path clip-path="url(#clip492)" d="M941.644 779.166 L941.644 359.575 L953.707 359.575 L953.707 779.166 L941.644 779.166 L941.644 779.166  Z" fill="#b1df89" fill-rule="evenodd" fill-opacity="1"/>
<polyline clip-path="url(#clip492)" style="stroke:#000000; stroke-linecap:round; stroke-linejoin:round; stroke-width:0; stroke-opacity:1; fill:none" points="941.644,779.166 941.644,359.575 953.707,359.575 953.707,779.166 941.644,779.166 "/>
<path clip-path="url(#clip492)" d="M977.834 779.166 L977.834 359.575 L989.898 359.575 L989.898 779.166 L977.834 779.166 L977.834 779.166  Z" fill="#b1df89" fill-rule="evenodd" fill-opacity="1"/>
<polyline clip-path="url(#clip492)" style="stroke:#000000; stroke-linecap:round; stroke-linejoin:round; stroke-width:0; stroke-opacity:1; fill:none" points="977.834,779.166 977.834,359.575 989.898,359.575 989.898,779.166 977.834,779.166 "/>
<path clip-path="url(#clip492)" d="M1014.02 779.166 L1014.02 359.575 L1026.09 359.575 L1026.09 779.166 L1014.02 779.166 L1014.02 779.166  Z" fill="#b1df89" fill-rule="evenodd" fill-opacity="1"/>
<polyline clip-path="url(#clip492)" style="stroke:#000000; stroke-linecap:round; stroke-linejoin:round; stroke-width:0; stroke-opacity:1; fill:none" points="1014.02,779.166 1014.02,359.575 1026.09,359.575 1026.09,779.166 1014.02,779.166 "/>
<path clip-path="url(#clip492)" d="M1050.22 779.166 L1050.22 359.575 L1062.28 359.575 L1062.28 779.166 L1050.22 779.166 L1050.22 779.166  Z" fill="#b1df89" fill-rule="evenodd" fill-opacity="1"/>
<polyline clip-path="url(#clip492)" style="stroke:#000000; stroke-linecap:round; stroke-linejoin:round; stroke-width:0; stroke-opacity:1; fill:none" points="1050.22,779.166 1050.22,359.575 1062.28,359.575 1062.28,779.166 1050.22,779.166 "/>
<path clip-path="url(#clip492)" d="M1086.41 779.166 L1086.41 359.575 L1098.47 359.575 L1098.47 779.166 L1086.41 779.166 L1086.41 779.166  Z" fill="#b1df89" fill-rule="evenodd" fill-opacity="1"/>
<polyline clip-path="url(#clip492)" style="stroke:#000000; stroke-linecap:round; stroke-linejoin:round; stroke-width:0; stroke-opacity:1; fill:none" points="1086.41,779.166 1086.41,359.575 1098.47,359.575 1098.47,779.166 1086.41,779.166 "/>
<path clip-path="url(#clip492)" d="M1122.6 779.166 L1122.6 359.575 L1134.66 359.575 L1134.66 779.166 L1122.6 779.166 L1122.6 779.166  Z" fill="#b1df89" fill-rule="evenodd" fill-opacity="1"/>
<polyline clip-path="url(#clip492)" style="stroke:#000000; stroke-linecap:round; stroke-linejoin:round; stroke-width:0; stroke-opacity:1; fill:none" points="1122.6,779.166 1122.6,359.575 1134.66,359.575 1134.66,779.166 1122.6,779.166 "/>
<circle clip-path="url(#clip492)" style="fill:#b1df89; stroke:none; fill-opacity:0" cx="296.243" cy="779.166" r="2"/>
<circle clip-path="url(#clip492)" style="fill:#b1df89; stroke:none; fill-opacity:0" cx="332.434" cy="779.166" r="2"/>
<circle clip-path="url(#clip492)" style="fill:#b1df89; stroke:none; fill-opacity:0" cx="368.624" cy="779.166" r="2"/>
<circle clip-path="url(#clip492)" style="fill:#b1df89; stroke:none; fill-opacity:0" cx="404.815" cy="779.166" r="2"/>
<circle clip-path="url(#clip492)" style="fill:#b1df89; stroke:none; fill-opacity:0" cx="441.006" cy="779.166" r="2"/>
<circle clip-path="url(#clip492)" style="fill:#b1df89; stroke:none; fill-opacity:0" cx="477.196" cy="779.166" r="2"/>
<circle clip-path="url(#clip492)" style="fill:#b1df89; stroke:none; fill-opacity:0" cx="513.387" cy="779.166" r="2"/>
<circle clip-path="url(#clip492)" style="fill:#b1df89; stroke:none; fill-opacity:0" cx="549.578" cy="779.166" r="2"/>
<circle clip-path="url(#clip492)" style="fill:#b1df89; stroke:none; fill-opacity:0" cx="585.769" cy="779.166" r="2"/>
<circle clip-path="url(#clip492)" style="fill:#b1df89; stroke:none; fill-opacity:0" cx="621.959" cy="779.166" r="2"/>
<circle clip-path="url(#clip492)" style="fill:#b1df89; stroke:none; fill-opacity:0" cx="658.15" cy="563.676" r="2"/>
<circle clip-path="url(#clip492)" style="fill:#b1df89; stroke:none; fill-opacity:0" cx="694.341" cy="563.676" r="2"/>
<circle clip-path="url(#clip492)" style="fill:#b1df89; stroke:none; fill-opacity:0" cx="730.531" cy="563.676" r="2"/>
<circle clip-path="url(#clip492)" style="fill:#b1df89; stroke:none; fill-opacity:0" cx="766.722" cy="563.676" r="2"/>
<circle clip-path="url(#clip492)" style="fill:#b1df89; stroke:none; fill-opacity:0" cx="802.913" cy="563.676" r="2"/>
<circle clip-path="url(#clip492)" style="fill:#b1df89; stroke:none; fill-opacity:0" cx="839.103" cy="779.166" r="2"/>
<circle clip-path="url(#clip492)" style="fill:#b1df89; stroke:none; fill-opacity:0" cx="875.294" cy="779.166" r="2"/>
<circle clip-path="url(#clip492)" style="fill:#b1df89; stroke:none; fill-opacity:0" cx="911.485" cy="779.166" r="2"/>
<circle clip-path="url(#clip492)" style="fill:#b1df89; stroke:none; fill-opacity:0" cx="947.675" cy="779.166" r="2"/>
<circle clip-path="url(#clip492)" style="fill:#b1df89; stroke:none; fill-opacity:0" cx="983.866" cy="779.166" r="2"/>
<circle clip-path="url(#clip492)" style="fill:#b1df89; stroke:none; fill-opacity:0" cx="1020.06" cy="779.166" r="2"/>
<circle clip-path="url(#clip492)" style="fill:#b1df89; stroke:none; fill-opacity:0" cx="1056.25" cy="779.166" r="2"/>
<circle clip-path="url(#clip492)" style="fill:#b1df89; stroke:none; fill-opacity:0" cx="1092.44" cy="779.166" r="2"/>
<circle clip-path="url(#clip492)" style="fill:#b1df89; stroke:none; fill-opacity:0" cx="1128.63" cy="779.166" r="2"/>
<path clip-path="url(#clip490)" d="M812.225 293.45 L1122.6 293.45 L1122.6 78.4772 L812.225 78.4772  Z" fill="#ffffff" fill-rule="evenodd" fill-opacity="1"/>
<polyline clip-path="url(#clip490)" style="stroke:#000000; stroke-linecap:round; stroke-linejoin:round; stroke-width:4; stroke-opacity:1; fill:none" points="812.225,293.45 1122.6,293.45 1122.6,78.4772 812.225,78.4772 812.225,293.45 "/>
<path clip-path="url(#clip490)" d="M822.278 153.718 L882.596 153.718 L882.596 110.723 L822.278 110.723 L822.278 153.718  Z" fill="#a6cee2" fill-rule="evenodd" fill-opacity="1"/>
<polyline clip-path="url(#clip490)" style="stroke:#000000; stroke-linecap:round; stroke-linejoin:round; stroke-width:0.8; stroke-opacity:1; fill:none" points="822.278,153.718 882.596,153.718 882.596,110.723 822.278,110.723 822.278,153.718 "/>
<g clip-path="url(#clip490)">
<text style="fill:#000000; fill-opacity:1; font-family:Book Antiqua,Palatino,Palatino Linotype,Palatino LT STD,Georgia,serif; font-size:51px; font-weight:bold; text-anchor:start;" transform="rotate(0, 892.649, 149.72)" x="892.649" y="149.72">CCFDUC</text>
</g>
<path clip-path="url(#clip490)" d="M822.278 207.461 L882.596 207.461 L882.596 164.466 L822.278 164.466 L822.278 207.461  Z" fill="#1f78b4" fill-rule="evenodd" fill-opacity="1"/>
<polyline clip-path="url(#clip490)" style="stroke:#000000; stroke-linecap:round; stroke-linejoin:round; stroke-width:0.8; stroke-opacity:1; fill:none" points="822.278,207.461 882.596,207.461 882.596,164.466 822.278,164.466 822.278,207.461 "/>
<g clip-path="url(#clip490)">
<text style="fill:#000000; fill-opacity:1; font-family:Book Antiqua,Palatino,Palatino Linotype,Palatino LT STD,Georgia,serif; font-size:51px; font-weight:bold; text-anchor:start;" transform="rotate(0, 892.649, 203.463)" x="892.649" y="203.463">FCUC</text>
</g>
<path clip-path="url(#clip490)" d="M822.278 261.204 L882.596 261.204 L882.596 218.209 L822.278 218.209 L822.278 261.204  Z" fill="#b1df89" fill-rule="evenodd" fill-opacity="1"/>
<polyline clip-path="url(#clip490)" style="stroke:#000000; stroke-linecap:round; stroke-linejoin:round; stroke-width:0.8; stroke-opacity:1; fill:none" points="822.278,261.204 882.596,261.204 882.596,218.209 822.278,218.209 822.278,261.204 "/>
<g clip-path="url(#clip490)">
<text style="fill:#000000; fill-opacity:1; font-family:Book Antiqua,Palatino,Palatino Linotype,Palatino LT STD,Georgia,serif; font-size:51px; font-weight:bold; text-anchor:start;" transform="rotate(0, 892.649, 257.206)" x="892.649" y="257.206">TUC</text>
</g>
</svg>
