<?xml version="1.0" encoding="utf-8"?>
<svg xmlns="http://www.w3.org/2000/svg" xmlns:xlink="http://www.w3.org/1999/xlink" width="300" height="300" viewBox="0 0 1200 1200">
<defs>
  <clipPath id="clip810">
    <rect x="0" y="0" width="1200" height="1200"/>
  </clipPath>
</defs>
<path clip-path="url(#clip810)" d="M0 1200 L1200 1200 L1200 0 L0 0  Z" fill="#ffffff" fill-rule="evenodd" fill-opacity="1"/>
<defs>
  <clipPath id="clip811">
    <rect x="240" y="120" width="841" height="841"/>
  </clipPath>
</defs>
<path clip-path="url(#clip810)" d="M127.197 1086.13 L1152.76 1086.13 L1152.76 47.2441 L127.197 47.2441  Z" fill="#ffffff" fill-rule="evenodd" fill-opacity="1"/>
<defs>
  <clipPath id="clip812">
    <rect x="127" y="47" width="1027" height="1040"/>
  </clipPath>
</defs>
<polyline clip-path="url(#clip812)" style="stroke:#000000; stroke-linecap:round; stroke-linejoin:round; stroke-width:2; stroke-opacity:0.1; fill:none" points="324.484,1086.13 324.484,47.2441 "/>
<polyline clip-path="url(#clip812)" style="stroke:#000000; stroke-linecap:round; stroke-linejoin:round; stroke-width:2; stroke-opacity:0.1; fill:none" points="534.812,1086.13 534.812,47.2441 "/>
<polyline clip-path="url(#clip812)" style="stroke:#000000; stroke-linecap:round; stroke-linejoin:round; stroke-width:2; stroke-opacity:0.1; fill:none" points="745.14,1086.13 745.14,47.2441 "/>
<polyline clip-path="url(#clip812)" style="stroke:#000000; stroke-linecap:round; stroke-linejoin:round; stroke-width:2; stroke-opacity:0.1; fill:none" points="955.468,1086.13 955.468,47.2441 "/>
<polyline clip-path="url(#clip810)" style="stroke:#000000; stroke-linecap:round; stroke-linejoin:round; stroke-width:4; stroke-opacity:1; fill:none" points="127.197,1086.13 1152.76,1086.13 "/>
<polyline clip-path="url(#clip810)" style="stroke:#000000; stroke-linecap:round; stroke-linejoin:round; stroke-width:4; stroke-opacity:1; fill:none" points="324.484,1086.13 324.484,1067.23 "/>
<polyline clip-path="url(#clip810)" style="stroke:#000000; stroke-linecap:round; stroke-linejoin:round; stroke-width:4; stroke-opacity:1; fill:none" points="534.812,1086.13 534.812,1067.23 "/>
<polyline clip-path="url(#clip810)" style="stroke:#000000; stroke-linecap:round; stroke-linejoin:round; stroke-width:4; stroke-opacity:1; fill:none" points="745.14,1086.13 745.14,1067.23 "/>
<polyline clip-path="url(#clip810)" style="stroke:#000000; stroke-linecap:round; stroke-linejoin:round; stroke-width:4; stroke-opacity:1; fill:none" points="955.468,1086.13 955.468,1067.23 "/>
<path clip-path="url(#clip810)" d="M317.193 1102.21 L330.96 1102.21 L330.96 1105.16 L320.405 1105.16 L320.405 1111.51 Q321.168 1111.25 321.932 1111.13 Q322.696 1110.99 323.46 1110.99 Q327.8 1110.99 330.335 1113.37 Q332.87 1115.75 332.87 1119.81 Q332.87 1124 330.266 1126.32 Q327.661 1128.63 322.922 1128.63 Q321.29 1128.63 319.589 1128.35 Q317.905 1128.08 316.099 1127.52 L316.099 1124 Q317.661 1124.85 319.328 1125.26 Q320.995 1125.68 322.852 1125.68 Q325.856 1125.68 327.609 1124.1 Q329.363 1122.52 329.363 1119.81 Q329.363 1117.1 327.609 1115.52 Q325.856 1113.94 322.852 1113.94 Q321.446 1113.94 320.04 1114.26 Q318.651 1114.57 317.193 1115.23 L317.193 1102.21 Z" fill="#000000" fill-rule="nonzero" fill-opacity="1" /><path clip-path="url(#clip810)" d="M515.828 1125.18 L521.557 1125.18 L521.557 1105.4 L515.325 1106.65 L515.325 1103.46 L521.522 1102.21 L525.029 1102.21 L525.029 1125.18 L530.759 1125.18 L530.759 1128.13 L515.828 1128.13 L515.828 1125.18 Z" fill="#000000" fill-rule="nonzero" fill-opacity="1" /><path clip-path="url(#clip810)" d="M545.342 1104.52 Q542.633 1104.52 541.262 1107.19 Q539.908 1109.85 539.908 1115.19 Q539.908 1120.52 541.262 1123.2 Q542.633 1125.85 545.342 1125.85 Q548.067 1125.85 549.422 1123.2 Q550.793 1120.52 550.793 1115.19 Q550.793 1109.85 549.422 1107.19 Q548.067 1104.52 545.342 1104.52 M545.342 1101.74 Q549.699 1101.74 551.991 1105.19 Q554.3 1108.63 554.3 1115.19 Q554.3 1121.74 551.991 1125.19 Q549.699 1128.63 545.342 1128.63 Q540.984 1128.63 538.675 1125.19 Q536.383 1121.74 536.383 1115.19 Q536.383 1108.63 538.675 1105.19 Q540.984 1101.74 545.342 1101.74 Z" fill="#000000" fill-rule="nonzero" fill-opacity="1" /><path clip-path="url(#clip810)" d="M726.529 1125.18 L732.258 1125.18 L732.258 1105.4 L726.026 1106.65 L726.026 1103.46 L732.224 1102.21 L735.731 1102.21 L735.731 1125.18 L741.46 1125.18 L741.46 1128.13 L726.529 1128.13 L726.529 1125.18 Z" fill="#000000" fill-rule="nonzero" fill-opacity="1" /><path clip-path="url(#clip810)" d="M748.578 1102.21 L762.345 1102.21 L762.345 1105.16 L751.79 1105.16 L751.79 1111.51 Q752.553 1111.25 753.317 1111.13 Q754.081 1110.99 754.845 1110.99 Q759.185 1110.99 761.72 1113.37 Q764.255 1115.75 764.255 1119.81 Q764.255 1124 761.651 1126.32 Q759.046 1128.63 754.307 1128.63 Q752.675 1128.63 750.974 1128.35 Q749.29 1128.08 747.484 1127.52 L747.484 1124 Q749.047 1124.85 750.713 1125.26 Q752.38 1125.68 754.237 1125.68 Q757.241 1125.68 758.994 1124.1 Q760.748 1122.52 760.748 1119.81 Q760.748 1117.1 758.994 1115.52 Q757.241 1113.94 754.237 1113.94 Q752.831 1113.94 751.425 1114.26 Q750.036 1114.57 748.578 1115.23 L748.578 1102.21 Z" fill="#000000" fill-rule="nonzero" fill-opacity="1" /><path clip-path="url(#clip810)" d="M939.548 1125.18 L951.788 1125.18 L951.788 1128.13 L935.329 1128.13 L935.329 1125.18 Q937.326 1123.11 940.763 1119.64 Q944.218 1116.15 945.104 1115.14 Q946.788 1113.25 947.447 1111.95 Q948.125 1110.63 948.125 1109.36 Q948.125 1107.29 946.666 1105.99 Q945.225 1104.69 942.899 1104.69 Q941.25 1104.69 939.409 1105.26 Q937.586 1105.84 935.503 1107 L935.503 1103.46 Q937.621 1102.61 939.461 1102.17 Q941.302 1101.74 942.829 1101.74 Q946.857 1101.74 949.253 1103.75 Q951.649 1105.77 951.649 1109.13 Q951.649 1110.73 951.041 1112.17 Q950.451 1113.6 948.871 1115.54 Q948.437 1116.04 946.111 1118.46 Q943.784 1120.85 939.548 1125.18 Z" fill="#000000" fill-rule="nonzero" fill-opacity="1" /><path clip-path="url(#clip810)" d="M966.649 1104.52 Q963.94 1104.52 962.569 1107.19 Q961.215 1109.85 961.215 1115.19 Q961.215 1120.52 962.569 1123.2 Q963.94 1125.85 966.649 1125.85 Q969.374 1125.85 970.729 1123.2 Q972.1 1120.52 972.1 1115.19 Q972.1 1109.85 970.729 1107.19 Q969.374 1104.52 966.649 1104.52 M966.649 1101.74 Q971.006 1101.74 973.298 1105.19 Q975.607 1108.63 975.607 1115.19 Q975.607 1121.74 973.298 1125.19 Q971.006 1128.63 966.649 1128.63 Q962.291 1128.63 959.982 1125.19 Q957.69 1121.74 957.69 1115.19 Q957.69 1108.63 959.982 1105.19 Q962.291 1101.74 966.649 1101.74 Z" fill="#000000" fill-rule="nonzero" fill-opacity="1" /><polyline clip-path="url(#clip812)" style="stroke:#000000; stroke-linecap:round; stroke-linejoin:round; stroke-width:2; stroke-opacity:0.1; fill:none" points="127.197,978.145 1152.76,978.145 "/>
<polyline clip-path="url(#clip812)" style="stroke:#000000; stroke-linecap:round; stroke-linejoin:round; stroke-width:2; stroke-opacity:0.1; fill:none" points="127.197,735.617 1152.76,735.617 "/>
<polyline clip-path="url(#clip812)" style="stroke:#000000; stroke-linecap:round; stroke-linejoin:round; stroke-width:2; stroke-opacity:0.1; fill:none" points="127.197,493.089 1152.76,493.089 "/>
<polyline clip-path="url(#clip812)" style="stroke:#000000; stroke-linecap:round; stroke-linejoin:round; stroke-width:2; stroke-opacity:0.1; fill:none" points="127.197,250.562 1152.76,250.562 "/>
<polyline clip-path="url(#clip810)" style="stroke:#000000; stroke-linecap:round; stroke-linejoin:round; stroke-width:4; stroke-opacity:1; fill:none" points="127.197,1086.13 127.197,47.2441 "/>
<polyline clip-path="url(#clip810)" style="stroke:#000000; stroke-linecap:round; stroke-linejoin:round; stroke-width:4; stroke-opacity:1; fill:none" points="127.197,978.145 146.094,978.145 "/>
<polyline clip-path="url(#clip810)" style="stroke:#000000; stroke-linecap:round; stroke-linejoin:round; stroke-width:4; stroke-opacity:1; fill:none" points="127.197,735.617 146.094,735.617 "/>
<polyline clip-path="url(#clip810)" style="stroke:#000000; stroke-linecap:round; stroke-linejoin:round; stroke-width:4; stroke-opacity:1; fill:none" points="127.197,493.089 146.094,493.089 "/>
<polyline clip-path="url(#clip810)" style="stroke:#000000; stroke-linecap:round; stroke-linejoin:round; stroke-width:4; stroke-opacity:1; fill:none" points="127.197,250.562 146.094,250.562 "/>
<path clip-path="url(#clip810)" d="M66.8011 967.494 Q64.0928 967.494 62.7213 970.167 Q61.3671 972.823 61.3671 978.171 Q61.3671 983.5 62.7213 986.174 Q64.0928 988.83 66.8011 988.83 Q69.5268 988.83 70.8809 986.174 Q72.2525 983.5 72.2525 978.171 Q72.2525 972.823 70.8809 970.167 Q69.5268 967.494 66.8011 967.494 M66.8011 964.716 Q71.1587 964.716 73.4504 968.171 Q75.7594 971.608 75.7594 978.171 Q75.7594 984.716 73.4504 988.171 Q71.1587 991.608 66.8011 991.608 Q62.4435 991.608 60.1345 988.171 Q57.8428 984.716 57.8428 978.171 Q57.8428 971.608 60.1345 968.171 Q62.4435 964.716 66.8011 964.716 Z" fill="#000000" fill-rule="nonzero" fill-opacity="1" /><path clip-path="url(#clip810)" d="M81.9225 986.695 L85.5857 986.695 L85.5857 991.105 L81.9225 991.105 L81.9225 986.695 Z" fill="#000000" fill-rule="nonzero" fill-opacity="1" /><path clip-path="url(#clip810)" d="M103.85 977.129 Q106.367 977.667 107.773 979.369 Q109.197 981.07 109.197 983.57 Q109.197 987.407 106.558 989.507 Q103.919 991.608 99.0579 991.608 Q97.4259 991.608 95.6898 991.278 Q93.9711 990.966 92.1308 990.323 L92.1308 986.938 Q93.5892 987.789 95.3253 988.223 Q97.0614 988.657 98.9537 988.657 Q102.252 988.657 103.971 987.355 Q105.707 986.053 105.707 983.57 Q105.707 981.278 104.093 979.994 Q102.495 978.691 99.6308 978.691 L96.61 978.691 L96.61 975.81 L99.7697 975.81 Q102.356 975.81 103.728 974.785 Q105.1 973.744 105.1 971.799 Q105.1 969.803 103.676 968.744 Q102.27 967.667 99.6308 967.667 Q98.1898 967.667 96.5405 967.98 Q94.8912 968.292 92.9121 968.952 L92.9121 965.827 Q94.9086 965.271 96.6447 964.994 Q98.3982 964.716 99.9433 964.716 Q103.936 964.716 106.263 966.539 Q108.589 968.344 108.589 971.435 Q108.589 973.587 107.356 975.08 Q106.124 976.556 103.85 977.129 Z" fill="#000000" fill-rule="nonzero" fill-opacity="1" /><path clip-path="url(#clip810)" d="M65.9504 724.966 Q63.2421 724.966 61.8706 727.64 Q60.5164 730.296 60.5164 735.643 Q60.5164 740.973 61.8706 743.646 Q63.2421 746.303 65.9504 746.303 Q68.6761 746.303 70.0303 743.646 Q71.4018 740.973 71.4018 735.643 Q71.4018 730.296 70.0303 727.64 Q68.6761 724.966 65.9504 724.966 M65.9504 722.188 Q70.308 722.188 72.5997 725.643 Q74.9087 729.081 74.9087 735.643 Q74.9087 742.188 72.5997 745.643 Q70.308 749.08 65.9504 749.08 Q61.5928 749.08 59.2838 745.643 Q56.9921 742.188 56.9921 735.643 Q56.9921 729.081 59.2838 725.643 Q61.5928 722.188 65.9504 722.188 Z" fill="#000000" fill-rule="nonzero" fill-opacity="1" /><path clip-path="url(#clip810)" d="M81.0719 744.167 L84.735 744.167 L84.735 748.577 L81.0719 748.577 L81.0719 744.167 Z" fill="#000000" fill-rule="nonzero" fill-opacity="1" /><path clip-path="url(#clip810)" d="M102.009 725.713 L93.1551 739.549 L102.009 739.549 L102.009 725.713 M101.089 722.657 L105.499 722.657 L105.499 739.549 L109.197 739.549 L109.197 742.466 L105.499 742.466 L105.499 748.577 L102.009 748.577 L102.009 742.466 L90.3079 742.466 L90.3079 739.081 L101.089 722.657 Z" fill="#000000" fill-rule="nonzero" fill-opacity="1" /><path clip-path="url(#clip810)" d="M67.0615 482.438 Q64.3532 482.438 62.9817 485.112 Q61.6275 487.768 61.6275 493.115 Q61.6275 498.445 62.9817 501.119 Q64.3532 503.775 67.0615 503.775 Q69.7872 503.775 71.1414 501.119 Q72.5129 498.445 72.5129 493.115 Q72.5129 487.768 71.1414 485.112 Q69.7872 482.438 67.0615 482.438 M67.0615 479.661 Q71.4191 479.661 73.7108 483.116 Q76.0198 486.553 76.0198 493.115 Q76.0198 499.661 73.7108 503.115 Q71.4191 506.553 67.0615 506.553 Q62.7039 506.553 60.3949 503.115 Q58.1032 499.661 58.1032 493.115 Q58.1032 486.553 60.3949 483.116 Q62.7039 479.661 67.0615 479.661 Z" fill="#000000" fill-rule="nonzero" fill-opacity="1" /><path clip-path="url(#clip810)" d="M82.183 501.64 L85.8461 501.64 L85.8461 506.049 L82.183 506.049 L82.183 501.64 Z" fill="#000000" fill-rule="nonzero" fill-opacity="1" /><path clip-path="url(#clip810)" d="M93.5197 480.129 L107.287 480.129 L107.287 483.081 L96.7315 483.081 L96.7315 489.435 Q97.4954 489.175 98.2593 489.053 Q99.0232 488.914 99.787 488.914 Q104.127 488.914 106.662 491.293 Q109.197 493.671 109.197 497.733 Q109.197 501.917 106.593 504.244 Q103.988 506.553 99.2488 506.553 Q97.6169 506.553 95.9155 506.275 Q94.2315 505.997 92.426 505.442 L92.426 501.917 Q93.9885 502.768 95.6551 503.185 Q97.3218 503.602 99.1794 503.602 Q102.183 503.602 103.936 502.022 Q105.69 500.442 105.69 497.733 Q105.69 495.025 103.936 493.445 Q102.183 491.865 99.1794 491.865 Q97.7732 491.865 96.3669 492.178 Q94.978 492.49 93.5197 493.15 L93.5197 480.129 Z" fill="#000000" fill-rule="nonzero" fill-opacity="1" /><path clip-path="url(#clip810)" d="M66.1935 239.911 Q63.4851 239.911 62.1136 242.584 Q60.7595 245.241 60.7595 250.588 Q60.7595 255.918 62.1136 258.591 Q63.4851 261.248 66.1935 261.248 Q68.9191 261.248 70.2733 258.591 Q71.6448 255.918 71.6448 250.588 Q71.6448 245.241 70.2733 242.584 Q68.9191 239.911 66.1935 239.911 M66.1935 237.133 Q70.5511 237.133 72.8427 240.588 Q75.1518 244.025 75.1518 250.588 Q75.1518 257.133 72.8427 260.588 Q70.5511 264.025 66.1935 264.025 Q61.8359 264.025 59.5268 260.588 Q57.2352 257.133 57.2352 250.588 Q57.2352 244.025 59.5268 240.588 Q61.8359 237.133 66.1935 237.133 Z" fill="#000000" fill-rule="nonzero" fill-opacity="1" /><path clip-path="url(#clip810)" d="M81.3149 259.112 L84.9781 259.112 L84.9781 263.522 L81.3149 263.522 L81.3149 259.112 Z" fill="#000000" fill-rule="nonzero" fill-opacity="1" /><path clip-path="url(#clip810)" d="M100.551 249.164 Q98.1898 249.164 96.8009 250.779 Q95.4294 252.393 95.4294 255.206 Q95.4294 258.001 96.8009 259.633 Q98.1898 261.248 100.551 261.248 Q102.912 261.248 104.284 259.633 Q105.672 258.001 105.672 255.206 Q105.672 252.393 104.284 250.779 Q102.912 249.164 100.551 249.164 M107.513 238.175 L107.513 241.369 Q106.193 240.744 104.839 240.414 Q103.502 240.084 102.183 240.084 Q98.7107 240.084 96.8704 242.428 Q95.0475 244.772 94.7871 249.511 Q95.8114 248.001 97.3565 247.202 Q98.9016 246.386 100.759 246.386 Q104.665 246.386 106.922 248.765 Q109.197 251.126 109.197 255.206 Q109.197 259.199 106.836 261.612 Q104.475 264.025 100.551 264.025 Q96.0544 264.025 93.676 260.588 Q91.2975 257.133 91.2975 250.588 Q91.2975 244.442 94.2141 240.796 Q97.1308 237.133 102.044 237.133 Q103.363 237.133 104.7 237.393 Q106.054 237.654 107.513 238.175 Z" fill="#000000" fill-rule="nonzero" fill-opacity="1" /><polyline clip-path="url(#clip812)" style="stroke:#009af9; stroke-linecap:round; stroke-linejoin:round; stroke-width:4; stroke-opacity:1; fill:none" points="156.222,76.6465 198.288,76.6465 240.353,76.6465 282.419,76.6465 324.484,76.6465 366.55,76.6465 408.616,76.6465 450.681,76.6465 492.747,76.6465 534.812,76.6465 576.878,913.298 618.944,913.298 661.009,913.298 703.075,913.298 745.14,913.298 787.206,76.6465 829.271,76.6465 871.337,76.6465 913.403,76.6465 955.468,76.6465 997.534,76.6465 1039.6,76.6465 1081.67,76.6465 1123.73,76.6465 "/>
<circle clip-path="url(#clip812)" cx="156.222" cy="76.6465" r="14.4" fill="#009af9" fill-rule="evenodd" fill-opacity="1" stroke="#000000" stroke-opacity="1" stroke-width="2.4"/>
<circle clip-path="url(#clip812)" cx="198.288" cy="76.6465" r="14.4" fill="#009af9" fill-rule="evenodd" fill-opacity="1" stroke="#000000" stroke-opacity="1" stroke-width="2.4"/>
<circle clip-path="url(#clip812)" cx="240.353" cy="76.6465" r="14.4" fill="#009af9" fill-rule="evenodd" fill-opacity="1" stroke="#000000" stroke-opacity="1" stroke-width="2.4"/>
<circle clip-path="url(#clip812)" cx="282.419" cy="76.6465" r="14.4" fill="#009af9" fill-rule="evenodd" fill-opacity="1" stroke="#000000" stroke-opacity="1" stroke-width="2.4"/>
<circle clip-path="url(#clip812)" cx="324.484" cy="76.6465" r="14.4" fill="#009af9" fill-rule="evenodd" fill-opacity="1" stroke="#000000" stroke-opacity="1" stroke-width="2.4"/>
<circle clip-path="url(#clip812)" cx="366.55" cy="76.6465" r="14.4" fill="#009af9" fill-rule="evenodd" fill-opacity="1" stroke="#000000" stroke-opacity="1" stroke-width="2.4"/>
<circle clip-path="url(#clip812)" cx="408.616" cy="76.6465" r="14.4" fill="#009af9" fill-rule="evenodd" fill-opacity="1" stroke="#000000" stroke-opacity="1" stroke-width="2.4"/>
<circle clip-path="url(#clip812)" cx="450.681" cy="76.6465" r="14.4" fill="#009af9" fill-rule="evenodd" fill-opacity="1" stroke="#000000" stroke-opacity="1" stroke-width="2.4"/>
<circle clip-path="url(#clip812)" cx="492.747" cy="76.6465" r="14.4" fill="#009af9" fill-rule="evenodd" fill-opacity="1" stroke="#000000" stroke-opacity="1" stroke-width="2.4"/>
<circle clip-path="url(#clip812)" cx="534.812" cy="76.6465" r="14.4" fill="#009af9" fill-rule="evenodd" fill-opacity="1" stroke="#000000" stroke-opacity="1" stroke-width="2.4"/>
<circle clip-path="url(#clip812)" cx="576.878" cy="913.298" r="14.4" fill="#009af9" fill-rule="evenodd" fill-opacity="1" stroke="#000000" stroke-opacity="1" stroke-width="2.4"/>
<circle clip-path="url(#clip812)" cx="618.944" cy="913.298" r="14.4" fill="#009af9" fill-rule="evenodd" fill-opacity="1" stroke="#000000" stroke-opacity="1" stroke-width="2.4"/>
<circle clip-path="url(#clip812)" cx="661.009" cy="913.298" r="14.4" fill="#009af9" fill-rule="evenodd" fill-opacity="1" stroke="#000000" stroke-opacity="1" stroke-width="2.4"/>
<circle clip-path="url(#clip812)" cx="703.075" cy="913.298" r="14.4" fill="#009af9" fill-rule="evenodd" fill-opacity="1" stroke="#000000" stroke-opacity="1" stroke-width="2.4"/>
<circle clip-path="url(#clip812)" cx="745.14" cy="913.298" r="14.4" fill="#009af9" fill-rule="evenodd" fill-opacity="1" stroke="#000000" stroke-opacity="1" stroke-width="2.4"/>
<circle clip-path="url(#clip812)" cx="787.206" cy="76.6465" r="14.4" fill="#009af9" fill-rule="evenodd" fill-opacity="1" stroke="#000000" stroke-opacity="1" stroke-width="2.4"/>
<circle clip-path="url(#clip812)" cx="829.271" cy="76.6465" r="14.4" fill="#009af9" fill-rule="evenodd" fill-opacity="1" stroke="#000000" stroke-opacity="1" stroke-width="2.4"/>
<circle clip-path="url(#clip812)" cx="871.337" cy="76.6465" r="14.4" fill="#009af9" fill-rule="evenodd" fill-opacity="1" stroke="#000000" stroke-opacity="1" stroke-width="2.4"/>
<circle clip-path="url(#clip812)" cx="913.403" cy="76.6465" r="14.4" fill="#009af9" fill-rule="evenodd" fill-opacity="1" stroke="#000000" stroke-opacity="1" stroke-width="2.4"/>
<circle clip-path="url(#clip812)" cx="955.468" cy="76.6465" r="14.4" fill="#009af9" fill-rule="evenodd" fill-opacity="1" stroke="#000000" stroke-opacity="1" stroke-width="2.4"/>
<circle clip-path="url(#clip812)" cx="997.534" cy="76.6465" r="14.4" fill="#009af9" fill-rule="evenodd" fill-opacity="1" stroke="#000000" stroke-opacity="1" stroke-width="2.4"/>
<circle clip-path="url(#clip812)" cx="1039.6" cy="76.6465" r="14.4" fill="#009af9" fill-rule="evenodd" fill-opacity="1" stroke="#000000" stroke-opacity="1" stroke-width="2.4"/>
<circle clip-path="url(#clip812)" cx="1081.67" cy="76.6465" r="14.4" fill="#009af9" fill-rule="evenodd" fill-opacity="1" stroke="#000000" stroke-opacity="1" stroke-width="2.4"/>
<circle clip-path="url(#clip812)" cx="1123.73" cy="76.6465" r="14.4" fill="#009af9" fill-rule="evenodd" fill-opacity="1" stroke="#000000" stroke-opacity="1" stroke-width="2.4"/>
<polyline clip-path="url(#clip812)" style="stroke:#e26f46; stroke-linecap:round; stroke-linejoin:round; stroke-width:4; stroke-opacity:1; fill:none" points="156.222,1056.73 198.288,1056.73 240.353,1056.73 282.419,1056.73 324.484,1056.73 366.55,1056.73 408.616,1056.73 450.681,1056.73 492.747,1056.73 534.812,1056.73 576.878,1056.73 618.944,1056.73 661.009,1056.73 703.075,1056.73 745.14,1056.73 787.206,1056.73 829.271,1056.73 871.337,1056.73 913.403,1056.73 955.468,1056.73 997.534,1056.73 1039.6,1056.73 1081.67,1056.73 1123.73,1056.73 "/>
<path clip-path="url(#clip810)" d="M936.77 198.514 L1118.57 198.514 L1118.57 81.8736 L936.77 81.8736  Z" fill="#ffffff" fill-rule="evenodd" fill-opacity="1"/>
<polyline clip-path="url(#clip810)" style="stroke:#000000; stroke-linecap:round; stroke-linejoin:round; stroke-width:4; stroke-opacity:1; fill:none" points="936.77,198.514 1118.57,198.514 1118.57,81.8736 936.77,81.8736 936.77,198.514 "/>
<polyline clip-path="url(#clip810)" style="stroke:#009af9; stroke-linecap:round; stroke-linejoin:round; stroke-width:3; stroke-opacity:1; fill:none" points="948.165,120.754 1016.54,120.754 "/>
<circle clip-path="url(#clip810)" cx="982.351" cy="120.754" r="12.6612" fill="#009af9" fill-rule="evenodd" fill-opacity="1" stroke="#000000" stroke-opacity="1" stroke-width="2.56"/>
<path clip-path="url(#clip810)" d="M1052.4 108.964 Q1052.4 109.298 1052.33 109.579 L1051.35 115.833 Q1051.29 116.307 1051.19 116.483 Q1051.1 116.659 1050.82 116.659 Q1050.38 116.659 1050.38 116.202 Q1050.38 115.938 1050.49 115.517 Q1050.79 113.532 1050.79 112.636 Q1050.79 112.038 1050.66 111.599 Q1050.56 111.143 1050.38 110.826 Q1050.22 110.51 1049.85 110.299 Q1049.49 110.089 1049.13 109.966 Q1048.78 109.843 1048.15 109.79 Q1047.52 109.72 1046.97 109.702 Q1046.43 109.685 1045.53 109.685 Q1043.58 109.685 1043.27 109.755 Q1042.93 109.843 1042.76 110.106 Q1042.6 110.352 1042.42 111.09 L1037.65 130.185 L1037.5 130.94 Q1037.5 131.362 1037.77 131.503 Q1038.03 131.643 1038.84 131.731 Q1040 131.819 1041.14 131.819 Q1041.18 131.819 1041.25 131.819 Q1041.63 131.819 1041.79 131.836 Q1041.95 131.836 1042.11 131.871 Q1042.27 131.907 1042.3 131.994 Q1042.35 132.065 1042.35 132.205 Q1042.35 132.539 1042.21 132.715 Q1042.07 132.873 1041.93 132.908 Q1041.81 132.925 1041.56 132.925 Q1041.07 132.925 1040.02 132.89 Q1038.96 132.855 1038.44 132.855 L1035.45 132.82 L1032.39 132.855 Q1031.92 132.855 1030.92 132.89 Q1029.92 132.925 1029.44 132.925 Q1028.83 132.925 1028.83 132.486 Q1028.83 131.994 1029.06 131.907 Q1029.3 131.819 1030.34 131.819 Q1031.8 131.819 1032.59 131.748 Q1033.38 131.678 1033.8 131.432 Q1034.24 131.186 1034.36 130.94 Q1034.48 130.677 1034.62 130.08 L1039.45 110.879 Q1039.6 110.457 1039.6 110.124 Q1039.6 109.948 1039.54 109.878 Q1039.51 109.807 1039.28 109.755 Q1039.05 109.685 1038.58 109.685 L1037.17 109.685 Q1035.73 109.685 1034.83 109.755 Q1033.96 109.807 1033.11 110.071 Q1032.29 110.334 1031.8 110.703 Q1031.32 111.072 1030.79 111.828 Q1030.27 112.583 1029.88 113.497 Q1029.51 114.41 1028.99 115.903 Q1028.81 116.395 1028.7 116.536 Q1028.62 116.659 1028.37 116.659 Q1028.19 116.659 1028.05 116.553 Q1027.93 116.43 1027.93 116.272 Q1028.11 115.692 1028.14 115.622 L1030.3 109.28 Q1030.48 108.771 1030.64 108.683 Q1030.81 108.578 1031.46 108.578 L1051.42 108.578 Q1051.73 108.578 1051.84 108.578 Q1051.94 108.578 1052.12 108.613 Q1052.3 108.648 1052.35 108.736 Q1052.4 108.824 1052.4 108.964 Z" fill="#000000" fill-rule="nonzero" fill-opacity="1" /><path clip-path="url(#clip810)" d="M1079.72 108.753 Q1079.72 109.474 1079.12 109.474 Q1078.06 109.509 1077.34 109.72 Q1076.62 109.913 1076.2 110.299 Q1075.8 110.686 1075.57 111.107 Q1075.36 111.511 1075.22 112.126 L1072.02 124.897 Q1071.11 128.499 1068.16 131.116 Q1065.21 133.716 1061.85 133.716 Q1059.94 133.716 1058.34 132.925 Q1056.76 132.135 1055.77 130.536 Q1054.79 128.938 1054.79 126.812 Q1054.79 125.793 1055.05 124.722 L1057.23 115.833 L1058.04 112.671 Q1058.64 110.334 1058.64 110.124 Q1058.64 109.79 1058.42 109.702 Q1058.23 109.597 1057.67 109.544 L1056.3 109.474 Q1055.88 109.474 1055.7 109.456 Q1055.54 109.439 1055.42 109.351 Q1055.3 109.263 1055.3 109.07 Q1055.3 108.824 1055.35 108.666 Q1055.42 108.49 1055.54 108.437 Q1055.67 108.385 1055.75 108.367 Q1055.84 108.349 1055.98 108.349 L1060.62 108.455 L1065.22 108.349 Q1065.73 108.349 1065.73 108.753 Q1065.73 109.263 1065.5 109.368 Q1065.28 109.474 1064.5 109.474 Q1063.18 109.474 1062.59 109.649 Q1062.01 109.807 1061.83 110.089 Q1061.67 110.352 1061.48 111.125 L1057.99 125.126 Q1057.81 125.828 1057.7 126.531 Q1057.62 127.216 1057.62 127.568 L1057.6 127.919 Q1057.6 130.15 1058.83 131.38 Q1060.08 132.609 1061.99 132.609 Q1064.8 132.609 1067.42 130.378 Q1070.05 128.147 1070.95 124.651 L1074.18 111.81 Q1074.29 111.494 1074.29 111.055 Q1074.29 110.352 1073.76 109.93 Q1073.25 109.491 1071.85 109.474 Q1071.2 109.474 1071.2 109.07 Q1071.2 108.736 1071.32 108.578 Q1071.46 108.402 1071.56 108.385 Q1071.69 108.349 1071.85 108.349 Q1072.44 108.349 1073.71 108.402 Q1074.97 108.455 1075.59 108.455 Q1076.2 108.455 1077.43 108.402 Q1078.66 108.349 1079.26 108.349 Q1079.47 108.349 1079.57 108.455 Q1079.7 108.543 1079.72 108.648 L1079.72 108.753 Z" fill="#000000" fill-rule="nonzero" fill-opacity="1" /><path clip-path="url(#clip810)" d="M1107.25 107.928 L1104.98 117.098 Q1104.82 117.677 1104.72 117.748 Q1104.63 117.818 1104.35 117.818 Q1103.8 117.818 1103.8 117.449 Q1103.8 117.414 1103.86 116.957 Q1103.91 116.483 1103.91 115.622 Q1103.91 112.443 1102.36 110.563 Q1100.83 108.683 1098.11 108.683 Q1095.76 108.683 1093.39 109.878 Q1091.03 111.072 1089.35 113.022 Q1088.08 114.498 1087.15 116.36 Q1086.24 118.222 1085.8 119.926 Q1085.38 121.63 1085.18 122.912 Q1084.99 124.195 1084.99 125.126 Q1084.99 126.478 1085.27 127.62 Q1085.57 128.762 1086.1 129.57 Q1086.62 130.361 1087.29 130.976 Q1087.97 131.573 1088.77 131.924 Q1089.57 132.275 1090.38 132.451 Q1091.19 132.609 1092.03 132.609 Q1095.42 132.609 1098.66 129.974 Q1101.22 127.813 1102.29 124.283 Q1102.38 123.931 1102.75 123.931 Q1103.19 123.931 1103.19 124.283 Q1103.19 124.353 1103.1 124.704 Q1103.01 125.038 1102.75 125.723 Q1102.49 126.391 1102.08 127.146 Q1101.68 127.901 1100.92 128.85 Q1100.17 129.799 1099.24 130.624 Q1097.65 131.994 1095.65 132.855 Q1093.65 133.716 1091.45 133.716 Q1088.71 133.716 1086.5 132.504 Q1084.29 131.292 1082.99 129.026 Q1081.7 126.759 1081.7 123.861 Q1081.7 120.804 1083.11 117.8 Q1084.51 114.796 1086.75 112.565 Q1088.98 110.334 1091.93 108.947 Q1094.88 107.559 1097.83 107.559 Q1098.95 107.559 1099.96 107.858 Q1100.96 108.156 1101.55 108.525 Q1102.17 108.894 1102.71 109.439 Q1103.26 109.966 1103.43 110.212 Q1103.63 110.457 1103.8 110.756 L1106.31 107.998 Q1106.75 107.559 1106.86 107.559 Q1107.07 107.559 1107.16 107.682 Q1107.25 107.805 1107.25 107.928 Z" fill="#000000" fill-rule="nonzero" fill-opacity="1" /><polyline clip-path="url(#clip810)" style="stroke:#e26f46; stroke-linecap:round; stroke-linejoin:round; stroke-width:3; stroke-opacity:1; fill:none" points="948.165,159.634 1016.54,159.634 "/>
<path clip-path="url(#clip810)" d="M1038.31 174.399 Q1036.96 177.871 1035.67 178.93 Q1034.39 179.989 1032.24 179.989 L1029.68 179.989 L1029.68 177.316 L1031.56 177.316 Q1032.88 177.316 1033.61 176.691 Q1034.34 176.066 1035.22 173.739 L1035.8 172.281 L1027.93 153.149 L1031.32 153.149 L1037.39 168.357 L1043.47 153.149 L1046.85 153.149 L1038.31 174.399 Z" fill="#000000" fill-rule="nonzero" fill-opacity="1" /><path clip-path="url(#clip810)" d="M1054.74 169.642 L1066.98 169.642 L1066.98 172.594 L1050.52 172.594 L1050.52 169.642 Q1052.51 167.576 1055.95 164.104 Q1059.41 160.614 1060.29 159.608 Q1061.98 157.715 1062.64 156.413 Q1063.31 155.094 1063.31 153.826 Q1063.31 151.76 1061.85 150.458 Q1060.41 149.156 1058.09 149.156 Q1056.44 149.156 1054.6 149.729 Q1052.77 150.302 1050.69 151.465 L1050.69 147.924 Q1052.81 147.073 1054.65 146.639 Q1056.49 146.205 1058.02 146.205 Q1062.05 146.205 1064.44 148.219 Q1066.84 150.233 1066.84 153.601 Q1066.84 155.198 1066.23 156.639 Q1065.64 158.062 1064.06 160.007 Q1063.63 160.51 1061.3 162.923 Q1058.97 165.319 1054.74 169.642 Z" fill="#000000" fill-rule="nonzero" fill-opacity="1" /></svg>
