<?xml version="1.0" encoding="utf-8"?>
<svg xmlns="http://www.w3.org/2000/svg" xmlns:xlink="http://www.w3.org/1999/xlink" width="300" height="300" viewBox="0 0 1200 1200">
<defs>
  <clipPath id="clip450">
    <rect x="0" y="0" width="1200" height="1200"/>
  </clipPath>
</defs>
<path clip-path="url(#clip450)" d="M0 1200 L1200 1200 L1200 0 L0 0  Z" fill="#ffffff" fill-rule="evenodd" fill-opacity="1"/>
<defs>
  <clipPath id="clip451">
    <rect x="240" y="120" width="841" height="841"/>
  </clipPath>
</defs>
<path clip-path="url(#clip450)" d="M247.989 984.237 L1152.76 984.237 L1152.76 47.2441 L247.989 47.2441  Z" fill="#ffffff" fill-rule="evenodd" fill-opacity="1"/>
<defs>
  <clipPath id="clip452">
    <rect x="247" y="47" width="906" height="938"/>
  </clipPath>
</defs>
<polyline clip-path="url(#clip452)" style="stroke:#808080; stroke-linecap:round; stroke-linejoin:round; stroke-width:2; stroke-opacity:0.1; fill:none" points="247.989,984.237 247.989,47.2441 "/>
<polyline clip-path="url(#clip452)" style="stroke:#808080; stroke-linecap:round; stroke-linejoin:round; stroke-width:2; stroke-opacity:0.1; fill:none" points="428.942,984.237 428.942,47.2441 "/>
<polyline clip-path="url(#clip452)" style="stroke:#808080; stroke-linecap:round; stroke-linejoin:round; stroke-width:2; stroke-opacity:0.1; fill:none" points="609.896,984.237 609.896,47.2441 "/>
<polyline clip-path="url(#clip452)" style="stroke:#808080; stroke-linecap:round; stroke-linejoin:round; stroke-width:2; stroke-opacity:0.1; fill:none" points="790.849,984.237 790.849,47.2441 "/>
<polyline clip-path="url(#clip452)" style="stroke:#808080; stroke-linecap:round; stroke-linejoin:round; stroke-width:2; stroke-opacity:0.1; fill:none" points="971.802,984.237 971.802,47.2441 "/>
<polyline clip-path="url(#clip452)" style="stroke:#808080; stroke-linecap:round; stroke-linejoin:round; stroke-width:2; stroke-opacity:0.1; fill:none" points="1152.76,984.237 1152.76,47.2441 "/>
<polyline clip-path="url(#clip452)" style="stroke:#808080; stroke-linecap:round; stroke-linejoin:round; stroke-width:2; stroke-opacity:0.1; fill:none" points="247.989,984.237 247.989,47.2441 "/>
<polyline clip-path="url(#clip452)" style="stroke:#808080; stroke-linecap:round; stroke-linejoin:round; stroke-width:2; stroke-opacity:0.1; fill:none" points="428.942,984.237 428.942,47.2441 "/>
<polyline clip-path="url(#clip452)" style="stroke:#808080; stroke-linecap:round; stroke-linejoin:round; stroke-width:2; stroke-opacity:0.1; fill:none" points="609.896,984.237 609.896,47.2441 "/>
<polyline clip-path="url(#clip452)" style="stroke:#808080; stroke-linecap:round; stroke-linejoin:round; stroke-width:2; stroke-opacity:0.1; fill:none" points="790.849,984.237 790.849,47.2441 "/>
<polyline clip-path="url(#clip452)" style="stroke:#808080; stroke-linecap:round; stroke-linejoin:round; stroke-width:2; stroke-opacity:0.1; fill:none" points="971.802,984.237 971.802,47.2441 "/>
<polyline clip-path="url(#clip452)" style="stroke:#808080; stroke-linecap:round; stroke-linejoin:round; stroke-width:2; stroke-opacity:0.1; fill:none" points="1152.76,984.237 1152.76,47.2441 "/>
<polyline clip-path="url(#clip450)" style="stroke:#000000; stroke-linecap:round; stroke-linejoin:round; stroke-width:4; stroke-opacity:1; fill:none" points="247.989,984.237 1152.76,984.237 "/>
<polyline clip-path="url(#clip450)" style="stroke:#000000; stroke-linecap:round; stroke-linejoin:round; stroke-width:4; stroke-opacity:1; fill:none" points="247.989,47.2441 1152.76,47.2441 "/>
<polyline clip-path="url(#clip450)" style="stroke:#000000; stroke-linecap:round; stroke-linejoin:round; stroke-width:4; stroke-opacity:1; fill:none" points="247.989,984.237 247.989,965.339 "/>
<polyline clip-path="url(#clip450)" style="stroke:#000000; stroke-linecap:round; stroke-linejoin:round; stroke-width:4; stroke-opacity:1; fill:none" points="428.942,984.237 428.942,965.339 "/>
<polyline clip-path="url(#clip450)" style="stroke:#000000; stroke-linecap:round; stroke-linejoin:round; stroke-width:4; stroke-opacity:1; fill:none" points="609.896,984.237 609.896,965.339 "/>
<polyline clip-path="url(#clip450)" style="stroke:#000000; stroke-linecap:round; stroke-linejoin:round; stroke-width:4; stroke-opacity:1; fill:none" points="790.849,984.237 790.849,965.339 "/>
<polyline clip-path="url(#clip450)" style="stroke:#000000; stroke-linecap:round; stroke-linejoin:round; stroke-width:4; stroke-opacity:1; fill:none" points="971.802,984.237 971.802,965.339 "/>
<polyline clip-path="url(#clip450)" style="stroke:#000000; stroke-linecap:round; stroke-linejoin:round; stroke-width:4; stroke-opacity:1; fill:none" points="1152.76,984.237 1152.76,965.339 "/>
<polyline clip-path="url(#clip450)" style="stroke:#000000; stroke-linecap:round; stroke-linejoin:round; stroke-width:4; stroke-opacity:1; fill:none" points="247.989,47.2441 247.989,66.1417 "/>
<polyline clip-path="url(#clip450)" style="stroke:#000000; stroke-linecap:round; stroke-linejoin:round; stroke-width:4; stroke-opacity:1; fill:none" points="428.942,47.2441 428.942,66.1417 "/>
<polyline clip-path="url(#clip450)" style="stroke:#000000; stroke-linecap:round; stroke-linejoin:round; stroke-width:4; stroke-opacity:1; fill:none" points="609.896,47.2441 609.896,66.1417 "/>
<polyline clip-path="url(#clip450)" style="stroke:#000000; stroke-linecap:round; stroke-linejoin:round; stroke-width:4; stroke-opacity:1; fill:none" points="790.849,47.2441 790.849,66.1417 "/>
<polyline clip-path="url(#clip450)" style="stroke:#000000; stroke-linecap:round; stroke-linejoin:round; stroke-width:4; stroke-opacity:1; fill:none" points="971.802,47.2441 971.802,66.1417 "/>
<polyline clip-path="url(#clip450)" style="stroke:#000000; stroke-linecap:round; stroke-linejoin:round; stroke-width:4; stroke-opacity:1; fill:none" points="1152.76,47.2441 1152.76,66.1417 "/>
<g clip-path="url(#clip450)">
<text style="fill:#000000; fill-opacity:1; font-family:Book Antiqua,Palatino,Palatino Linotype,Palatino LT STD,Georgia,serif; font-size:51px; font-weight:bold; text-anchor:middle;" transform="rotate(0, 247.989, 1038.21)" x="247.989" y="1038.21">0</text>
</g>
<g clip-path="url(#clip450)">
<text style="fill:#000000; fill-opacity:1; font-family:Book Antiqua,Palatino,Palatino Linotype,Palatino LT STD,Georgia,serif; font-size:51px; font-weight:bold; text-anchor:middle;" transform="rotate(0, 428.942, 1038.21)" x="428.942" y="1038.21">5</text>
</g>
<g clip-path="url(#clip450)">
<text style="fill:#000000; fill-opacity:1; font-family:Book Antiqua,Palatino,Palatino Linotype,Palatino LT STD,Georgia,serif; font-size:51px; font-weight:bold; text-anchor:middle;" transform="rotate(0, 609.896, 1038.21)" x="609.896" y="1038.21">10</text>
</g>
<g clip-path="url(#clip450)">
<text style="fill:#000000; fill-opacity:1; font-family:Book Antiqua,Palatino,Palatino Linotype,Palatino LT STD,Georgia,serif; font-size:51px; font-weight:bold; text-anchor:middle;" transform="rotate(0, 790.849, 1038.21)" x="790.849" y="1038.21">15</text>
</g>
<g clip-path="url(#clip450)">
<text style="fill:#000000; fill-opacity:1; font-family:Book Antiqua,Palatino,Palatino Linotype,Palatino LT STD,Georgia,serif; font-size:51px; font-weight:bold; text-anchor:middle;" transform="rotate(0, 971.802, 1038.21)" x="971.802" y="1038.21">20</text>
</g>
<g clip-path="url(#clip450)">
<text style="fill:#000000; fill-opacity:1; font-family:Book Antiqua,Palatino,Palatino Linotype,Palatino LT STD,Georgia,serif; font-size:51px; font-weight:bold; text-anchor:middle;" transform="rotate(0, 1152.76, 1038.21)" x="1152.76" y="1038.21">25</text>
</g>
<path clip-path="url(#clip450)" d="M677.2 1073.13 Q677.2 1074.03 676.781 1074.25 Q676.363 1074.45 675.203 1074.45 L669.02 1074.45 L664.124 1093.9 Q663.738 1095.61 663.738 1097.06 Q663.738 1098.67 664.221 1099.37 Q664.736 1100.08 665.799 1100.08 Q667.893 1100.08 670.147 1098.18 Q672.434 1096.28 674.366 1091.65 Q674.624 1091.03 674.752 1090.9 Q674.913 1090.74 675.332 1090.74 Q676.137 1090.74 676.137 1091.39 Q676.137 1091.61 675.686 1092.64 Q675.268 1093.67 674.334 1095.19 Q673.432 1096.7 672.24 1098.12 Q671.081 1099.54 669.31 1100.57 Q667.538 1101.56 665.638 1101.56 Q662.965 1101.56 661.258 1099.86 Q659.583 1098.15 659.583 1095.48 Q659.583 1094.61 660.26 1091.84 Q660.936 1089.04 664.608 1074.45 L658.778 1074.45 Q657.973 1074.45 657.651 1074.42 Q657.361 1074.38 657.136 1074.22 Q656.943 1074.03 656.943 1073.64 Q656.943 1073.03 657.2 1072.77 Q657.458 1072.48 657.78 1072.45 Q658.134 1072.39 658.939 1072.39 L665.123 1072.39 L667.699 1061.92 Q667.957 1060.89 668.601 1060.31 Q669.277 1059.7 669.664 1059.63 Q670.05 1059.54 670.34 1059.54 Q671.21 1059.54 671.725 1060.02 Q672.24 1060.47 672.24 1061.31 Q672.24 1061.76 669.535 1072.39 L675.332 1072.39 Q676.073 1072.39 676.363 1072.42 Q676.685 1072.45 676.942 1072.61 Q677.2 1072.77 677.2 1073.13 Z" fill="#000000" fill-rule="nonzero" fill-opacity="1" /><path clip-path="url(#clip450)" d="M680.516 1116.38 Q680.516 1116.06 680.773 1115.35 L704.058 1053.13 Q704.058 1053.06 704.219 1052.71 Q704.38 1052.35 704.477 1052.13 Q704.573 1051.87 704.767 1051.68 Q704.992 1051.48 705.25 1051.48 Q705.894 1051.48 705.894 1052.29 Q705.894 1052.35 705.701 1053.13 L682.351 1115.41 Q681.965 1116.54 681.707 1116.86 Q681.482 1117.18 681.095 1117.18 Q680.516 1117.18 680.516 1116.38 Z" fill="#000000" fill-rule="nonzero" fill-opacity="1" /><path clip-path="url(#clip450)" d="M737.463 1077.35 Q737.463 1079.15 736.561 1080.12 Q735.659 1081.05 734.435 1081.05 Q733.437 1081.05 732.89 1080.47 Q732.374 1079.89 732.374 1079.12 Q732.374 1077.99 733.276 1077.09 Q734.21 1076.19 735.563 1076.15 Q735.112 1074.96 733.92 1074.25 Q732.729 1073.51 731.666 1073.32 Q730.635 1073.13 729.605 1073.13 Q727.576 1073.13 726.03 1073.77 Q724.484 1074.42 723.711 1075.41 Q722.938 1076.38 722.584 1077.31 Q722.229 1078.25 722.229 1079.05 Q722.229 1079.76 722.39 1080.34 Q722.584 1080.89 723.035 1081.31 Q723.485 1081.69 723.808 1081.95 Q724.162 1082.21 724.935 1082.43 Q725.708 1082.66 726.03 1082.76 Q726.352 1082.82 727.254 1083.01 Q729.121 1083.4 729.959 1083.63 Q730.796 1083.82 731.891 1084.37 Q733.018 1084.91 733.856 1085.78 Q735.885 1087.81 735.885 1090.61 Q735.885 1091.65 735.53 1092.9 Q735.208 1094.16 734.274 1095.74 Q733.34 1097.31 731.923 1098.57 Q730.506 1099.83 728.059 1100.7 Q725.643 1101.56 722.616 1101.56 Q718.397 1101.56 715.788 1099.79 Q713.18 1097.99 713.18 1095.16 Q713.18 1093.09 714.307 1091.97 Q715.434 1090.81 716.883 1090.81 Q717.978 1090.81 718.655 1091.42 Q719.331 1092 719.331 1093.09 Q719.331 1094.58 718.139 1095.7 Q716.948 1096.83 715.176 1096.6 Q716.69 1100.08 722.68 1100.08 Q724.935 1100.08 726.674 1099.5 Q728.445 1098.89 729.411 1098.05 Q730.41 1097.18 731.054 1096.12 Q731.698 1095.06 731.891 1094.25 Q732.117 1093.45 732.117 1092.84 Q732.117 1091.77 731.698 1090.97 Q731.279 1090.16 730.7 1089.71 Q730.152 1089.23 729.089 1088.84 Q728.059 1088.42 727.318 1088.26 Q726.577 1088.1 725.257 1087.84 Q724.645 1087.72 724.258 1087.65 Q723.872 1087.56 723.067 1087.3 Q722.294 1087.01 721.746 1086.72 Q721.231 1086.43 720.555 1085.91 Q719.878 1085.4 719.46 1084.79 Q719.041 1084.17 718.751 1083.27 Q718.461 1082.37 718.461 1081.31 Q718.461 1080.34 718.751 1079.18 Q719.073 1078.02 719.878 1076.67 Q720.716 1075.32 721.907 1074.22 Q723.099 1073.13 725.096 1072.42 Q727.125 1071.68 729.605 1071.68 Q733.212 1071.68 735.337 1073.35 Q737.463 1074.99 737.463 1077.35 Z" fill="#000000" fill-rule="nonzero" fill-opacity="1" /><polyline clip-path="url(#clip452)" style="stroke:#808080; stroke-linecap:round; stroke-linejoin:round; stroke-width:2; stroke-opacity:0.1; fill:none" points="247.989,867.113 1152.76,867.113 "/>
<polyline clip-path="url(#clip452)" style="stroke:#808080; stroke-linecap:round; stroke-linejoin:round; stroke-width:2; stroke-opacity:0.1; fill:none" points="247.989,632.865 1152.76,632.865 "/>
<polyline clip-path="url(#clip452)" style="stroke:#808080; stroke-linecap:round; stroke-linejoin:round; stroke-width:2; stroke-opacity:0.1; fill:none" points="247.989,398.616 1152.76,398.616 "/>
<polyline clip-path="url(#clip452)" style="stroke:#808080; stroke-linecap:round; stroke-linejoin:round; stroke-width:2; stroke-opacity:0.1; fill:none" points="247.989,164.368 1152.76,164.368 "/>
<polyline clip-path="url(#clip452)" style="stroke:#808080; stroke-linecap:round; stroke-linejoin:round; stroke-width:2; stroke-opacity:0.1; fill:none" points="247.989,867.113 1152.76,867.113 "/>
<polyline clip-path="url(#clip452)" style="stroke:#808080; stroke-linecap:round; stroke-linejoin:round; stroke-width:2; stroke-opacity:0.1; fill:none" points="247.989,632.865 1152.76,632.865 "/>
<polyline clip-path="url(#clip452)" style="stroke:#808080; stroke-linecap:round; stroke-linejoin:round; stroke-width:2; stroke-opacity:0.1; fill:none" points="247.989,398.616 1152.76,398.616 "/>
<polyline clip-path="url(#clip452)" style="stroke:#808080; stroke-linecap:round; stroke-linejoin:round; stroke-width:2; stroke-opacity:0.1; fill:none" points="247.989,164.368 1152.76,164.368 "/>
<polyline clip-path="url(#clip450)" style="stroke:#000000; stroke-linecap:round; stroke-linejoin:round; stroke-width:4; stroke-opacity:1; fill:none" points="247.989,984.237 247.989,47.2441 "/>
<polyline clip-path="url(#clip450)" style="stroke:#000000; stroke-linecap:round; stroke-linejoin:round; stroke-width:4; stroke-opacity:1; fill:none" points="1152.76,984.237 1152.76,47.2441 "/>
<polyline clip-path="url(#clip450)" style="stroke:#000000; stroke-linecap:round; stroke-linejoin:round; stroke-width:4; stroke-opacity:1; fill:none" points="247.989,867.113 266.886,867.113 "/>
<polyline clip-path="url(#clip450)" style="stroke:#000000; stroke-linecap:round; stroke-linejoin:round; stroke-width:4; stroke-opacity:1; fill:none" points="247.989,632.865 266.886,632.865 "/>
<polyline clip-path="url(#clip450)" style="stroke:#000000; stroke-linecap:round; stroke-linejoin:round; stroke-width:4; stroke-opacity:1; fill:none" points="247.989,398.616 266.886,398.616 "/>
<polyline clip-path="url(#clip450)" style="stroke:#000000; stroke-linecap:round; stroke-linejoin:round; stroke-width:4; stroke-opacity:1; fill:none" points="247.989,164.368 266.886,164.368 "/>
<polyline clip-path="url(#clip450)" style="stroke:#000000; stroke-linecap:round; stroke-linejoin:round; stroke-width:4; stroke-opacity:1; fill:none" points="1152.76,867.113 1133.86,867.113 "/>
<polyline clip-path="url(#clip450)" style="stroke:#000000; stroke-linecap:round; stroke-linejoin:round; stroke-width:4; stroke-opacity:1; fill:none" points="1152.76,632.865 1133.86,632.865 "/>
<polyline clip-path="url(#clip450)" style="stroke:#000000; stroke-linecap:round; stroke-linejoin:round; stroke-width:4; stroke-opacity:1; fill:none" points="1152.76,398.616 1133.86,398.616 "/>
<polyline clip-path="url(#clip450)" style="stroke:#000000; stroke-linecap:round; stroke-linejoin:round; stroke-width:4; stroke-opacity:1; fill:none" points="1152.76,164.368 1133.86,164.368 "/>
<g clip-path="url(#clip450)">
<text style="fill:#000000; fill-opacity:1; font-family:Book Antiqua,Palatino,Palatino Linotype,Palatino LT STD,Georgia,serif; font-size:51px; font-weight:bold; text-anchor:middle;" transform="rotate(0, 187.004, 884.613)" x="187.004" y="884.613">−1.0</text>
</g>
<g clip-path="url(#clip450)">
<text style="fill:#000000; fill-opacity:1; font-family:Book Antiqua,Palatino,Palatino Linotype,Palatino LT STD,Georgia,serif; font-size:51px; font-weight:bold; text-anchor:middle;" transform="rotate(0, 187.004, 650.365)" x="187.004" y="650.365">−0.5</text>
</g>
<g clip-path="url(#clip450)">
<text style="fill:#000000; fill-opacity:1; font-family:Book Antiqua,Palatino,Palatino Linotype,Palatino LT STD,Georgia,serif; font-size:51px; font-weight:bold; text-anchor:middle;" transform="rotate(0, 198.271, 416.116)" x="198.271" y="416.116">0.0</text>
</g>
<g clip-path="url(#clip450)">
<text style="fill:#000000; fill-opacity:1; font-family:Book Antiqua,Palatino,Palatino Linotype,Palatino LT STD,Georgia,serif; font-size:51px; font-weight:bold; text-anchor:middle;" transform="rotate(0, 198.271, 181.868)" x="198.271" y="181.868">0.5</text>
</g>
<path clip-path="url(#clip450)" d="M113.84 731.797 L111.811 731.797 L111.811 730.219 Q111.811 726.644 111.232 725.839 Q110.62 725.001 108.687 725.001 L73.9371 725.001 Q72.037 725.001 71.4573 725.839 Q70.8454 726.676 70.8454 730.219 L70.8454 731.797 L68.7842 731.797 L68.7842 711.088 Q68.7842 703.906 72.3268 698.914 Q75.8373 693.89 80.6682 693.89 Q84.3718 693.89 87.2704 697.143 Q90.1689 700.396 91.4249 705.42 Q93.6793 698.882 99.0577 697.369 L104.339 696.531 Q106.24 696.274 107.206 696.113 Q108.172 695.919 109.492 695.629 Q110.813 695.34 111.457 695.05 Q112.069 694.728 112.745 694.277 Q113.389 693.826 113.615 693.246 Q113.84 692.634 113.84 691.829 Q113.84 690.316 112.488 689.027 Q111.135 687.739 107.979 687.481 Q106.916 687.353 106.916 686.676 Q106.916 685.839 107.979 685.839 Q108.913 685.839 110.008 686.097 Q111.07 686.354 112.327 686.998 Q113.583 687.61 114.42 688.963 Q115.289 690.316 115.289 692.087 Q115.289 697.24 112.52 700.396 Q111.328 701.716 109.782 702.328 Q108.236 702.908 107.013 703.005 Q105.789 703.101 103.083 703.101 Q99.2509 703.101 97.5762 703.52 Q95.9015 703.906 94.259 705.613 Q92.0046 707.932 92.0046 711.765 L92.0046 719.333 L108.687 719.333 Q110.587 719.333 111.199 718.528 Q111.811 717.691 111.811 714.116 L111.811 712.538 L113.84 712.538 Q113.647 714.921 113.647 722.167 Q113.647 729.413 113.84 731.797 M90.5554 719.333 L90.5554 712.022 Q90.5554 708.512 89.718 706.161 Q88.8484 703.778 87.3026 702.65 Q85.7567 701.523 84.2108 701.104 Q82.6327 700.686 80.6682 700.686 Q78.3493 700.686 76.6102 701.201 Q74.8711 701.716 73.8405 702.844 Q72.8099 703.971 72.1658 705.098 Q71.4895 706.225 71.2318 707.964 Q70.9742 709.703 70.9098 710.895 Q70.8454 712.087 70.8454 713.987 Q70.8454 717.207 70.9742 717.884 Q71.0386 718.624 71.3929 718.914 Q71.7471 719.204 72.1658 719.269 Q72.5523 719.333 73.4862 719.333 L90.5554 719.333 Z" fill="#000000" fill-rule="nonzero" fill-opacity="1" /><path clip-path="url(#clip450)" d="M91.4893 685.427 Q81.4089 685.427 74.388 678.986 Q67.3349 672.513 67.3349 663.527 Q67.3349 654.477 74.388 648.036 Q81.4411 641.563 91.4893 641.563 Q101.441 641.563 108.365 648.036 Q115.289 654.51 115.289 663.527 Q115.289 672.416 108.397 678.922 Q101.505 685.427 91.4893 685.427 M90.5554 678.632 Q96.6745 678.632 101.377 677.182 Q106.046 675.733 108.591 673.414 Q111.135 671.063 112.359 668.551 Q113.583 666.039 113.583 663.463 Q113.583 660.951 112.391 658.503 Q111.199 656.023 108.687 653.672 Q106.175 651.321 101.473 649.84 Q96.7711 648.358 90.5554 648.358 Q85.7245 648.358 81.8598 649.389 Q77.9629 650.419 75.6118 652.03 Q73.2608 653.64 71.7149 655.733 Q70.169 657.795 69.5893 659.759 Q68.9774 661.691 68.9774 663.527 Q68.9774 665.846 70.008 668.261 Q71.0386 670.677 73.3252 673.124 Q75.5796 675.54 80.0562 677.086 Q84.5006 678.632 90.5554 678.632 Z" fill="#000000" fill-rule="nonzero" fill-opacity="1" /><path clip-path="url(#clip450)" d="M91.2961 634.149 Q81.3445 634.149 74.3558 627.353 Q67.3349 620.558 67.3349 611.218 Q67.3349 608.32 68.3977 605.743 Q69.4605 603.167 70.3945 601.975 Q71.2962 600.783 73.0032 599.076 L68.1401 595.759 Q67.3349 595.244 67.3349 594.729 Q67.3349 594.181 67.657 594.085 Q67.9468 593.988 68.913 593.988 L84.5651 593.988 Q85.6279 593.988 85.8855 594.117 Q86.1431 594.246 86.1431 595.051 Q86.1431 595.695 85.9499 595.856 Q85.7567 595.985 85.0159 596.114 Q77.8984 597.112 73.6473 601.073 Q69.3961 605.002 69.3961 610.477 Q69.3961 612.055 69.7504 613.827 Q70.1046 615.566 71.4573 618.11 Q72.8099 620.622 75.0643 622.587 Q77.2865 624.519 81.5377 625.936 Q85.7567 627.353 91.3605 627.353 Q96.8999 627.353 101.151 625.936 Q105.402 624.519 107.624 622.587 Q109.814 620.622 111.167 618.11 Q112.52 615.566 112.906 613.795 Q113.26 611.991 113.26 610.413 Q113.26 604.745 109.235 600.397 Q105.209 596.049 98.4136 595.63 Q98.0915 595.566 97.9627 595.566 Q97.8017 595.566 97.6406 595.502 Q97.4796 595.437 97.4152 595.276 Q97.3508 595.115 97.3508 594.857 Q97.3508 593.988 98.478 593.988 Q104.758 593.988 110.04 598.819 Q115.289 603.617 115.289 611.218 Q115.289 620.59 108.333 627.385 Q101.377 634.149 91.2961 634.149 Z" fill="#000000" fill-rule="nonzero" fill-opacity="1" /><path clip-path="url(#clip450)" d="M91.4893 583.966 Q81.4089 583.966 74.388 577.525 Q67.3349 571.052 67.3349 562.066 Q67.3349 553.016 74.388 546.575 Q81.4411 540.102 91.4893 540.102 Q101.441 540.102 108.365 546.575 Q115.289 553.049 115.289 562.066 Q115.289 570.955 108.397 577.461 Q101.505 583.966 91.4893 583.966 M90.5554 577.171 Q96.6745 577.171 101.377 575.721 Q106.046 574.272 108.591 571.953 Q111.135 569.602 112.359 567.09 Q113.583 564.578 113.583 562.002 Q113.583 559.49 112.391 557.042 Q111.199 554.562 108.687 552.211 Q106.175 549.86 101.473 548.379 Q96.7711 546.897 90.5554 546.897 Q85.7245 546.897 81.8598 547.928 Q77.9629 548.958 75.6118 550.569 Q73.2608 552.179 71.7149 554.272 Q70.169 556.334 69.5893 558.298 Q68.9774 560.23 68.9774 562.066 Q68.9774 564.385 70.008 566.8 Q71.0386 569.216 73.3252 571.664 Q75.5796 574.079 80.0562 575.625 Q84.5006 577.171 90.5554 577.171 Z" fill="#000000" fill-rule="nonzero" fill-opacity="1" /><path clip-path="url(#clip450)" d="M113.84 532.688 L111.811 532.688 L111.811 531.11 Q111.811 527.535 111.232 526.73 Q110.62 525.892 108.687 525.892 L74.1304 525.892 Q72.2302 525.892 71.6505 526.73 Q71.0386 527.567 71.0386 531.11 L71.0386 532.688 L68.9774 532.688 L68.9774 496.488 L83.8243 494.653 L83.8243 496.295 Q80.0562 496.746 77.9307 497.358 Q75.7729 497.938 74.0659 499.29 Q72.359 500.643 71.7149 502.929 Q71.0386 505.184 71.0386 508.887 L71.0386 516.81 Q71.0386 519.065 71.5217 519.548 Q71.9726 520.031 73.6795 520.031 L90.3621 520.031 L90.3621 514.362 Q90.3621 509.886 88.7518 508.63 Q87.1415 507.374 82.6327 507.374 L82.6327 505.731 L100.12 505.731 L100.12 507.374 Q95.5795 507.374 94.0014 508.63 Q92.3911 509.886 92.3911 514.362 L92.3911 520.031 L108.623 520.031 Q110.008 520.031 110.555 519.805 Q111.07 519.58 111.457 518.195 Q111.811 516.81 111.811 513.783 L111.811 511.593 L113.84 511.593 Q113.647 513.976 113.647 522.672 Q113.647 530.369 113.84 532.688 Z" fill="#000000" fill-rule="nonzero" fill-opacity="1" /><path clip-path="url(#clip450)" d="M129.396 481.389 Q129.074 481.389 128.365 481.131 L66.1433 457.846 Q66.0789 457.846 65.7246 457.685 Q65.3704 457.524 65.1449 457.428 Q64.8873 457.331 64.694 457.138 Q64.5008 456.912 64.5008 456.655 Q64.5008 456.011 65.306 456.011 Q65.3704 456.011 66.1433 456.204 L128.429 479.553 Q129.557 479.939 129.879 480.197 Q130.201 480.423 130.201 480.809 Q130.201 481.389 129.396 481.389 Z" fill="#000000" fill-rule="nonzero" fill-opacity="1" /><path clip-path="url(#clip450)" d="M113.84 440.01 L111.811 440.01 L111.811 438.432 Q111.811 434.857 111.232 434.052 Q110.62 433.215 108.687 433.215 L73.9371 433.215 Q72.037 433.215 71.4573 434.052 Q70.8454 434.89 70.8454 438.432 L70.8454 440.01 L68.7842 440.01 Q68.9774 437.691 68.9774 430.252 Q68.9774 422.877 68.7842 420.558 L70.8454 420.558 L70.8454 422.136 Q70.8454 425.711 71.4573 426.548 Q72.037 427.353 73.9371 427.353 L89.3637 427.353 L89.3637 407.643 L73.9371 407.643 Q72.037 407.643 71.4573 408.481 Q70.8454 409.286 70.8454 412.861 L70.8454 414.439 L68.7842 414.439 Q68.9774 412.12 68.9774 404.68 Q68.9774 397.305 68.7842 394.986 L70.8454 394.986 L70.8454 396.565 Q70.8454 400.139 71.4573 400.977 Q72.037 401.782 73.9371 401.782 L108.687 401.782 Q110.587 401.782 111.199 400.945 Q111.811 400.107 111.811 396.565 L111.811 394.986 L113.84 394.986 Q113.647 397.305 113.647 404.745 Q113.647 412.12 113.84 414.439 L111.811 414.439 L111.811 412.861 Q111.811 409.286 111.232 408.481 Q110.62 407.643 108.687 407.643 L91.4249 407.643 L91.4249 427.353 L108.687 427.353 Q110.587 427.353 111.199 426.548 Q111.811 425.711 111.811 422.136 L111.811 420.558 L113.84 420.558 Q113.647 422.877 113.647 430.316 Q113.647 437.691 113.84 440.01 Z" fill="#000000" fill-rule="nonzero" fill-opacity="1" /><path clip-path="url(#clip450)" d="M112.906 387.054 Q112.455 387.054 111.715 386.442 L86.8517 368.053 L86.8517 375.557 Q86.8517 380.774 88.784 382.481 Q90.6842 384.156 96.0303 384.478 L96.0303 386.12 L85.4024 385.379 L85.4024 364.285 Q85.4024 363.544 85.4346 363.254 Q85.4668 362.964 85.6923 362.771 Q85.8855 362.578 86.272 362.578 Q86.6584 362.578 87.3992 363.157 L112.198 381.515 L112.198 373.721 Q112.198 368.246 109.911 366.41 Q107.624 364.542 101.505 364.091 L101.505 362.449 L113.84 363.576 L113.84 385.315 Q113.84 386.378 113.711 386.732 Q113.55 387.054 112.906 387.054 Z" fill="#000000" fill-rule="nonzero" fill-opacity="1" /><path clip-path="url(#clip450)" d="M129.396 358.058 Q129.074 358.058 128.365 357.801 L66.1433 334.516 Q66.0789 334.516 65.7246 334.355 Q65.3704 334.194 65.1449 334.097 Q64.8873 334.001 64.694 333.807 Q64.5008 333.582 64.5008 333.324 Q64.5008 332.68 65.306 332.68 Q65.3704 332.68 66.1433 332.873 L128.429 356.223 Q129.557 356.609 129.879 356.867 Q130.201 357.092 130.201 357.479 Q130.201 358.058 129.396 358.058 Z" fill="#000000" fill-rule="nonzero" fill-opacity="1" /><path clip-path="url(#clip450)" d="M112.971 325.394 L104.275 325.394 Q103.534 325.394 103.277 325.362 Q103.019 325.33 102.826 325.137 Q102.633 324.943 102.633 324.557 Q102.633 324.106 102.826 323.945 Q103.019 323.752 103.76 323.623 Q108.301 322.625 110.716 320.499 Q113.099 318.341 113.099 314.444 Q113.099 310.741 111.457 308.873 Q109.814 307.005 107.109 307.005 Q102.278 307.005 101.054 313.865 Q100.249 317.826 99.734 319.468 Q99.1865 321.111 97.9949 322.56 Q95.6761 325.394 92.3911 325.394 Q89.1061 325.394 86.6906 322.915 Q84.2752 320.402 84.2752 314.863 Q84.2752 311.159 86.1431 308.647 Q85.5634 307.907 85.0804 307.52 Q84.2752 306.651 84.2752 306.2 Q84.2752 305.684 84.6295 305.588 Q84.9515 305.491 85.8855 305.491 L92.5199 305.491 Q93.2606 305.491 93.5183 305.523 Q93.7759 305.556 93.9692 305.749 Q94.1302 305.942 94.1302 306.361 Q94.1302 307.101 93.5183 307.134 Q85.5312 307.649 85.5312 314.863 Q85.5312 318.76 87.0449 320.499 Q88.5264 322.238 90.5554 322.238 Q91.6826 322.238 92.5521 321.723 Q93.3895 321.175 93.9048 320.499 Q94.3878 319.791 94.8709 318.502 Q95.3218 317.214 95.4828 316.441 Q95.6439 315.636 95.9659 314.122 Q96.9643 308.841 99.1221 306.618 Q101.892 303.849 105.402 303.849 Q109.299 303.849 111.94 306.49 Q114.581 309.13 114.581 314.444 Q114.581 318.728 111.715 321.723 Q112.101 322.109 112.455 322.399 Q112.777 322.689 112.906 322.818 Q113.035 322.915 113.132 322.947 Q113.196 322.979 113.26 323.043 Q114.581 324.364 114.581 324.686 Q114.581 325.201 114.227 325.298 Q113.905 325.394 112.971 325.394 Z" fill="#000000" fill-rule="nonzero" fill-opacity="1" /><path clip-path="url(#clip452)" d="M266.084 608.887 L266.084 398.616 L278.148 398.616 L278.148 608.887 L266.084 608.887 L266.084 608.887  Z" fill="#a6cee2" fill-rule="evenodd" fill-opacity="1"/>
<polyline clip-path="url(#clip452)" style="stroke:#000000; stroke-linecap:round; stroke-linejoin:round; stroke-width:0; stroke-opacity:1; fill:none" points="266.084,608.887 266.084,398.616 278.148,398.616 278.148,608.887 266.084,608.887 "/>
<path clip-path="url(#clip452)" d="M302.275 608.887 L302.275 398.616 L314.338 398.616 L314.338 608.887 L302.275 608.887 L302.275 608.887  Z" fill="#a6cee2" fill-rule="evenodd" fill-opacity="1"/>
<polyline clip-path="url(#clip452)" style="stroke:#000000; stroke-linecap:round; stroke-linejoin:round; stroke-width:0; stroke-opacity:1; fill:none" points="302.275,608.887 302.275,398.616 314.338,398.616 314.338,608.887 302.275,608.887 "/>
<path clip-path="url(#clip452)" d="M338.466 608.887 L338.466 398.616 L350.529 398.616 L350.529 608.887 L338.466 608.887 L338.466 608.887  Z" fill="#a6cee2" fill-rule="evenodd" fill-opacity="1"/>
<polyline clip-path="url(#clip452)" style="stroke:#000000; stroke-linecap:round; stroke-linejoin:round; stroke-width:0; stroke-opacity:1; fill:none" points="338.466,608.887 338.466,398.616 350.529,398.616 350.529,608.887 338.466,608.887 "/>
<path clip-path="url(#clip452)" d="M374.656 608.887 L374.656 398.616 L386.72 398.616 L386.72 608.887 L374.656 608.887 L374.656 608.887  Z" fill="#a6cee2" fill-rule="evenodd" fill-opacity="1"/>
<polyline clip-path="url(#clip452)" style="stroke:#000000; stroke-linecap:round; stroke-linejoin:round; stroke-width:0; stroke-opacity:1; fill:none" points="374.656,608.887 374.656,398.616 386.72,398.616 386.72,608.887 374.656,608.887 "/>
<path clip-path="url(#clip452)" d="M410.847 608.887 L410.847 398.616 L422.91 398.616 L422.91 608.887 L410.847 608.887 L410.847 608.887  Z" fill="#a6cee2" fill-rule="evenodd" fill-opacity="1"/>
<polyline clip-path="url(#clip452)" style="stroke:#000000; stroke-linecap:round; stroke-linejoin:round; stroke-width:0; stroke-opacity:1; fill:none" points="410.847,608.887 410.847,398.616 422.91,398.616 422.91,608.887 410.847,608.887 "/>
<path clip-path="url(#clip452)" d="M447.038 608.887 L447.038 398.616 L459.101 398.616 L459.101 608.887 L447.038 608.887 L447.038 608.887  Z" fill="#a6cee2" fill-rule="evenodd" fill-opacity="1"/>
<polyline clip-path="url(#clip452)" style="stroke:#000000; stroke-linecap:round; stroke-linejoin:round; stroke-width:0; stroke-opacity:1; fill:none" points="447.038,608.887 447.038,398.616 459.101,398.616 459.101,608.887 447.038,608.887 "/>
<path clip-path="url(#clip452)" d="M483.228 608.887 L483.228 398.616 L495.292 398.616 L495.292 608.887 L483.228 608.887 L483.228 608.887  Z" fill="#a6cee2" fill-rule="evenodd" fill-opacity="1"/>
<polyline clip-path="url(#clip452)" style="stroke:#000000; stroke-linecap:round; stroke-linejoin:round; stroke-width:0; stroke-opacity:1; fill:none" points="483.228,608.887 483.228,398.616 495.292,398.616 495.292,608.887 483.228,608.887 "/>
<path clip-path="url(#clip452)" d="M519.419 608.887 L519.419 398.616 L531.482 398.616 L531.482 608.887 L519.419 608.887 L519.419 608.887  Z" fill="#a6cee2" fill-rule="evenodd" fill-opacity="1"/>
<polyline clip-path="url(#clip452)" style="stroke:#000000; stroke-linecap:round; stroke-linejoin:round; stroke-width:0; stroke-opacity:1; fill:none" points="519.419,608.887 519.419,398.616 531.482,398.616 531.482,608.887 519.419,608.887 "/>
<path clip-path="url(#clip452)" d="M555.61 608.887 L555.61 398.616 L567.673 398.616 L567.673 608.887 L555.61 608.887 L555.61 608.887  Z" fill="#a6cee2" fill-rule="evenodd" fill-opacity="1"/>
<polyline clip-path="url(#clip452)" style="stroke:#000000; stroke-linecap:round; stroke-linejoin:round; stroke-width:0; stroke-opacity:1; fill:none" points="555.61,608.887 555.61,398.616 567.673,398.616 567.673,608.887 555.61,608.887 "/>
<path clip-path="url(#clip452)" d="M591.8 608.887 L591.8 398.616 L603.864 398.616 L603.864 608.887 L591.8 608.887 L591.8 608.887  Z" fill="#a6cee2" fill-rule="evenodd" fill-opacity="1"/>
<polyline clip-path="url(#clip452)" style="stroke:#000000; stroke-linecap:round; stroke-linejoin:round; stroke-width:0; stroke-opacity:1; fill:none" points="591.8,608.887 591.8,398.616 603.864,398.616 603.864,608.887 591.8,608.887 "/>
<path clip-path="url(#clip452)" d="M627.991 608.887 L627.991 398.616 L640.055 398.616 L640.055 608.887 L627.991 608.887 L627.991 608.887  Z" fill="#a6cee2" fill-rule="evenodd" fill-opacity="1"/>
<polyline clip-path="url(#clip452)" style="stroke:#000000; stroke-linecap:round; stroke-linejoin:round; stroke-width:0; stroke-opacity:1; fill:none" points="627.991,608.887 627.991,398.616 640.055,398.616 640.055,608.887 627.991,608.887 "/>
<path clip-path="url(#clip452)" d="M664.182 608.887 L664.182 398.616 L676.245 398.616 L676.245 608.887 L664.182 608.887 L664.182 608.887  Z" fill="#a6cee2" fill-rule="evenodd" fill-opacity="1"/>
<polyline clip-path="url(#clip452)" style="stroke:#000000; stroke-linecap:round; stroke-linejoin:round; stroke-width:0; stroke-opacity:1; fill:none" points="664.182,608.887 664.182,398.616 676.245,398.616 676.245,608.887 664.182,608.887 "/>
<path clip-path="url(#clip452)" d="M700.372 608.887 L700.372 398.616 L712.436 398.616 L712.436 608.887 L700.372 608.887 L700.372 608.887  Z" fill="#a6cee2" fill-rule="evenodd" fill-opacity="1"/>
<polyline clip-path="url(#clip452)" style="stroke:#000000; stroke-linecap:round; stroke-linejoin:round; stroke-width:0; stroke-opacity:1; fill:none" points="700.372,608.887 700.372,398.616 712.436,398.616 712.436,608.887 700.372,608.887 "/>
<path clip-path="url(#clip452)" d="M736.563 608.887 L736.563 398.616 L748.627 398.616 L748.627 608.887 L736.563 608.887 L736.563 608.887  Z" fill="#a6cee2" fill-rule="evenodd" fill-opacity="1"/>
<polyline clip-path="url(#clip452)" style="stroke:#000000; stroke-linecap:round; stroke-linejoin:round; stroke-width:0; stroke-opacity:1; fill:none" points="736.563,608.887 736.563,398.616 748.627,398.616 748.627,608.887 736.563,608.887 "/>
<path clip-path="url(#clip452)" d="M772.754 608.887 L772.754 398.616 L784.817 398.616 L784.817 608.887 L772.754 608.887 L772.754 608.887  Z" fill="#a6cee2" fill-rule="evenodd" fill-opacity="1"/>
<polyline clip-path="url(#clip452)" style="stroke:#000000; stroke-linecap:round; stroke-linejoin:round; stroke-width:0; stroke-opacity:1; fill:none" points="772.754,608.887 772.754,398.616 784.817,398.616 784.817,608.887 772.754,608.887 "/>
<path clip-path="url(#clip452)" d="M808.944 608.887 L808.944 398.616 L821.008 398.616 L821.008 608.887 L808.944 608.887 L808.944 608.887  Z" fill="#a6cee2" fill-rule="evenodd" fill-opacity="1"/>
<polyline clip-path="url(#clip452)" style="stroke:#000000; stroke-linecap:round; stroke-linejoin:round; stroke-width:0; stroke-opacity:1; fill:none" points="808.944,608.887 808.944,398.616 821.008,398.616 821.008,608.887 808.944,608.887 "/>
<path clip-path="url(#clip452)" d="M845.135 608.887 L845.135 398.616 L857.199 398.616 L857.199 608.887 L845.135 608.887 L845.135 608.887  Z" fill="#a6cee2" fill-rule="evenodd" fill-opacity="1"/>
<polyline clip-path="url(#clip452)" style="stroke:#000000; stroke-linecap:round; stroke-linejoin:round; stroke-width:0; stroke-opacity:1; fill:none" points="845.135,608.887 845.135,398.616 857.199,398.616 857.199,608.887 845.135,608.887 "/>
<path clip-path="url(#clip452)" d="M881.326 608.887 L881.326 398.616 L893.389 398.616 L893.389 608.887 L881.326 608.887 L881.326 608.887  Z" fill="#a6cee2" fill-rule="evenodd" fill-opacity="1"/>
<polyline clip-path="url(#clip452)" style="stroke:#000000; stroke-linecap:round; stroke-linejoin:round; stroke-width:0; stroke-opacity:1; fill:none" points="881.326,608.887 881.326,398.616 893.389,398.616 893.389,608.887 881.326,608.887 "/>
<path clip-path="url(#clip452)" d="M917.516 608.887 L917.516 398.616 L929.58 398.616 L929.58 608.887 L917.516 608.887 L917.516 608.887  Z" fill="#a6cee2" fill-rule="evenodd" fill-opacity="1"/>
<polyline clip-path="url(#clip452)" style="stroke:#000000; stroke-linecap:round; stroke-linejoin:round; stroke-width:0; stroke-opacity:1; fill:none" points="917.516,608.887 917.516,398.616 929.58,398.616 929.58,608.887 917.516,608.887 "/>
<path clip-path="url(#clip452)" d="M953.707 608.887 L953.707 398.616 L965.771 398.616 L965.771 608.887 L953.707 608.887 L953.707 608.887  Z" fill="#a6cee2" fill-rule="evenodd" fill-opacity="1"/>
<polyline clip-path="url(#clip452)" style="stroke:#000000; stroke-linecap:round; stroke-linejoin:round; stroke-width:0; stroke-opacity:1; fill:none" points="953.707,608.887 953.707,398.616 965.771,398.616 965.771,608.887 953.707,608.887 "/>
<path clip-path="url(#clip452)" d="M989.898 608.887 L989.898 398.616 L1001.96 398.616 L1001.96 608.887 L989.898 608.887 L989.898 608.887  Z" fill="#a6cee2" fill-rule="evenodd" fill-opacity="1"/>
<polyline clip-path="url(#clip452)" style="stroke:#000000; stroke-linecap:round; stroke-linejoin:round; stroke-width:0; stroke-opacity:1; fill:none" points="989.898,608.887 989.898,398.616 1001.96,398.616 1001.96,608.887 989.898,608.887 "/>
<path clip-path="url(#clip452)" d="M1026.09 608.887 L1026.09 398.616 L1038.15 398.616 L1038.15 608.887 L1026.09 608.887 L1026.09 608.887  Z" fill="#a6cee2" fill-rule="evenodd" fill-opacity="1"/>
<polyline clip-path="url(#clip452)" style="stroke:#000000; stroke-linecap:round; stroke-linejoin:round; stroke-width:0; stroke-opacity:1; fill:none" points="1026.09,608.887 1026.09,398.616 1038.15,398.616 1038.15,608.887 1026.09,608.887 "/>
<path clip-path="url(#clip452)" d="M1062.28 608.887 L1062.28 398.616 L1074.34 398.616 L1074.34 608.887 L1062.28 608.887 L1062.28 608.887  Z" fill="#a6cee2" fill-rule="evenodd" fill-opacity="1"/>
<polyline clip-path="url(#clip452)" style="stroke:#000000; stroke-linecap:round; stroke-linejoin:round; stroke-width:0; stroke-opacity:1; fill:none" points="1062.28,608.887 1062.28,398.616 1074.34,398.616 1074.34,608.887 1062.28,608.887 "/>
<path clip-path="url(#clip452)" d="M1098.47 608.887 L1098.47 398.616 L1110.53 398.616 L1110.53 608.887 L1098.47 608.887 L1098.47 608.887  Z" fill="#a6cee2" fill-rule="evenodd" fill-opacity="1"/>
<polyline clip-path="url(#clip452)" style="stroke:#000000; stroke-linecap:round; stroke-linejoin:round; stroke-width:0; stroke-opacity:1; fill:none" points="1098.47,608.887 1098.47,398.616 1110.53,398.616 1110.53,608.887 1098.47,608.887 "/>
<circle clip-path="url(#clip452)" style="fill:#a6cee2; stroke:none; fill-opacity:0" cx="272.116" cy="608.887" r="2"/>
<circle clip-path="url(#clip452)" style="fill:#a6cee2; stroke:none; fill-opacity:0" cx="308.307" cy="608.887" r="2"/>
<circle clip-path="url(#clip452)" style="fill:#a6cee2; stroke:none; fill-opacity:0" cx="344.497" cy="608.887" r="2"/>
<circle clip-path="url(#clip452)" style="fill:#a6cee2; stroke:none; fill-opacity:0" cx="380.688" cy="608.887" r="2"/>
<circle clip-path="url(#clip452)" style="fill:#a6cee2; stroke:none; fill-opacity:0" cx="416.879" cy="608.887" r="2"/>
<circle clip-path="url(#clip452)" style="fill:#a6cee2; stroke:none; fill-opacity:0" cx="453.069" cy="608.887" r="2"/>
<circle clip-path="url(#clip452)" style="fill:#a6cee2; stroke:none; fill-opacity:0" cx="489.26" cy="608.887" r="2"/>
<circle clip-path="url(#clip452)" style="fill:#a6cee2; stroke:none; fill-opacity:0" cx="525.451" cy="608.887" r="2"/>
<circle clip-path="url(#clip452)" style="fill:#a6cee2; stroke:none; fill-opacity:0" cx="561.641" cy="608.887" r="2"/>
<circle clip-path="url(#clip452)" style="fill:#a6cee2; stroke:none; fill-opacity:0" cx="597.832" cy="608.887" r="2"/>
<circle clip-path="url(#clip452)" style="fill:#a6cee2; stroke:none; fill-opacity:0" cx="634.023" cy="608.887" r="2"/>
<circle clip-path="url(#clip452)" style="fill:#a6cee2; stroke:none; fill-opacity:0" cx="670.213" cy="608.887" r="2"/>
<circle clip-path="url(#clip452)" style="fill:#a6cee2; stroke:none; fill-opacity:0" cx="706.404" cy="608.887" r="2"/>
<circle clip-path="url(#clip452)" style="fill:#a6cee2; stroke:none; fill-opacity:0" cx="742.595" cy="608.887" r="2"/>
<circle clip-path="url(#clip452)" style="fill:#a6cee2; stroke:none; fill-opacity:0" cx="778.785" cy="608.887" r="2"/>
<circle clip-path="url(#clip452)" style="fill:#a6cee2; stroke:none; fill-opacity:0" cx="814.976" cy="608.887" r="2"/>
<circle clip-path="url(#clip452)" style="fill:#a6cee2; stroke:none; fill-opacity:0" cx="851.167" cy="608.887" r="2"/>
<circle clip-path="url(#clip452)" style="fill:#a6cee2; stroke:none; fill-opacity:0" cx="887.358" cy="608.887" r="2"/>
<circle clip-path="url(#clip452)" style="fill:#a6cee2; stroke:none; fill-opacity:0" cx="923.548" cy="608.887" r="2"/>
<circle clip-path="url(#clip452)" style="fill:#a6cee2; stroke:none; fill-opacity:0" cx="959.739" cy="608.887" r="2"/>
<circle clip-path="url(#clip452)" style="fill:#a6cee2; stroke:none; fill-opacity:0" cx="995.93" cy="608.887" r="2"/>
<circle clip-path="url(#clip452)" style="fill:#a6cee2; stroke:none; fill-opacity:0" cx="1032.12" cy="608.887" r="2"/>
<circle clip-path="url(#clip452)" style="fill:#a6cee2; stroke:none; fill-opacity:0" cx="1068.31" cy="608.887" r="2"/>
<circle clip-path="url(#clip452)" style="fill:#a6cee2; stroke:none; fill-opacity:0" cx="1104.5" cy="608.887" r="2"/>
<path clip-path="url(#clip452)" d="M278.148 608.887 L278.148 398.616 L290.211 398.616 L290.211 608.887 L278.148 608.887 L278.148 608.887  Z" fill="#1f78b4" fill-rule="evenodd" fill-opacity="1"/>
<polyline clip-path="url(#clip452)" style="stroke:#000000; stroke-linecap:round; stroke-linejoin:round; stroke-width:0; stroke-opacity:1; fill:none" points="278.148,608.887 278.148,398.616 290.211,398.616 290.211,608.887 278.148,608.887 "/>
<path clip-path="url(#clip452)" d="M314.338 608.887 L314.338 398.616 L326.402 398.616 L326.402 608.887 L314.338 608.887 L314.338 608.887  Z" fill="#1f78b4" fill-rule="evenodd" fill-opacity="1"/>
<polyline clip-path="url(#clip452)" style="stroke:#000000; stroke-linecap:round; stroke-linejoin:round; stroke-width:0; stroke-opacity:1; fill:none" points="314.338,608.887 314.338,398.616 326.402,398.616 326.402,608.887 314.338,608.887 "/>
<path clip-path="url(#clip452)" d="M350.529 608.887 L350.529 398.616 L362.593 398.616 L362.593 608.887 L350.529 608.887 L350.529 608.887  Z" fill="#1f78b4" fill-rule="evenodd" fill-opacity="1"/>
<polyline clip-path="url(#clip452)" style="stroke:#000000; stroke-linecap:round; stroke-linejoin:round; stroke-width:0; stroke-opacity:1; fill:none" points="350.529,608.887 350.529,398.616 362.593,398.616 362.593,608.887 350.529,608.887 "/>
<path clip-path="url(#clip452)" d="M386.72 608.887 L386.72 398.616 L398.783 398.616 L398.783 608.887 L386.72 608.887 L386.72 608.887  Z" fill="#1f78b4" fill-rule="evenodd" fill-opacity="1"/>
<polyline clip-path="url(#clip452)" style="stroke:#000000; stroke-linecap:round; stroke-linejoin:round; stroke-width:0; stroke-opacity:1; fill:none" points="386.72,608.887 386.72,398.616 398.783,398.616 398.783,608.887 386.72,608.887 "/>
<path clip-path="url(#clip452)" d="M422.91 608.887 L422.91 398.616 L434.974 398.616 L434.974 608.887 L422.91 608.887 L422.91 608.887  Z" fill="#1f78b4" fill-rule="evenodd" fill-opacity="1"/>
<polyline clip-path="url(#clip452)" style="stroke:#000000; stroke-linecap:round; stroke-linejoin:round; stroke-width:0; stroke-opacity:1; fill:none" points="422.91,608.887 422.91,398.616 434.974,398.616 434.974,608.887 422.91,608.887 "/>
<path clip-path="url(#clip452)" d="M459.101 608.887 L459.101 398.616 L471.165 398.616 L471.165 608.887 L459.101 608.887 L459.101 608.887  Z" fill="#1f78b4" fill-rule="evenodd" fill-opacity="1"/>
<polyline clip-path="url(#clip452)" style="stroke:#000000; stroke-linecap:round; stroke-linejoin:round; stroke-width:0; stroke-opacity:1; fill:none" points="459.101,608.887 459.101,398.616 471.165,398.616 471.165,608.887 459.101,608.887 "/>
<path clip-path="url(#clip452)" d="M495.292 608.887 L495.292 398.616 L507.355 398.616 L507.355 608.887 L495.292 608.887 L495.292 608.887  Z" fill="#1f78b4" fill-rule="evenodd" fill-opacity="1"/>
<polyline clip-path="url(#clip452)" style="stroke:#000000; stroke-linecap:round; stroke-linejoin:round; stroke-width:0; stroke-opacity:1; fill:none" points="495.292,608.887 495.292,398.616 507.355,398.616 507.355,608.887 495.292,608.887 "/>
<path clip-path="url(#clip452)" d="M531.482 608.887 L531.482 398.616 L543.546 398.616 L543.546 608.887 L531.482 608.887 L531.482 608.887  Z" fill="#1f78b4" fill-rule="evenodd" fill-opacity="1"/>
<polyline clip-path="url(#clip452)" style="stroke:#000000; stroke-linecap:round; stroke-linejoin:round; stroke-width:0; stroke-opacity:1; fill:none" points="531.482,608.887 531.482,398.616 543.546,398.616 543.546,608.887 531.482,608.887 "/>
<path clip-path="url(#clip452)" d="M567.673 608.887 L567.673 398.616 L579.737 398.616 L579.737 608.887 L567.673 608.887 L567.673 608.887  Z" fill="#1f78b4" fill-rule="evenodd" fill-opacity="1"/>
<polyline clip-path="url(#clip452)" style="stroke:#000000; stroke-linecap:round; stroke-linejoin:round; stroke-width:0; stroke-opacity:1; fill:none" points="567.673,608.887 567.673,398.616 579.737,398.616 579.737,608.887 567.673,608.887 "/>
<path clip-path="url(#clip452)" d="M603.864 608.887 L603.864 398.616 L615.927 398.616 L615.927 608.887 L603.864 608.887 L603.864 608.887  Z" fill="#1f78b4" fill-rule="evenodd" fill-opacity="1"/>
<polyline clip-path="url(#clip452)" style="stroke:#000000; stroke-linecap:round; stroke-linejoin:round; stroke-width:0; stroke-opacity:1; fill:none" points="603.864,608.887 603.864,398.616 615.927,398.616 615.927,608.887 603.864,608.887 "/>
<path clip-path="url(#clip452)" d="M640.055 608.887 L640.055 398.616 L652.118 398.616 L652.118 608.887 L640.055 608.887 L640.055 608.887  Z" fill="#1f78b4" fill-rule="evenodd" fill-opacity="1"/>
<polyline clip-path="url(#clip452)" style="stroke:#000000; stroke-linecap:round; stroke-linejoin:round; stroke-width:0; stroke-opacity:1; fill:none" points="640.055,608.887 640.055,398.616 652.118,398.616 652.118,608.887 640.055,608.887 "/>
<path clip-path="url(#clip452)" d="M676.245 608.887 L676.245 398.616 L688.309 398.616 L688.309 608.887 L676.245 608.887 L676.245 608.887  Z" fill="#1f78b4" fill-rule="evenodd" fill-opacity="1"/>
<polyline clip-path="url(#clip452)" style="stroke:#000000; stroke-linecap:round; stroke-linejoin:round; stroke-width:0; stroke-opacity:1; fill:none" points="676.245,608.887 676.245,398.616 688.309,398.616 688.309,608.887 676.245,608.887 "/>
<path clip-path="url(#clip452)" d="M712.436 608.887 L712.436 398.616 L724.499 398.616 L724.499 608.887 L712.436 608.887 L712.436 608.887  Z" fill="#1f78b4" fill-rule="evenodd" fill-opacity="1"/>
<polyline clip-path="url(#clip452)" style="stroke:#000000; stroke-linecap:round; stroke-linejoin:round; stroke-width:0; stroke-opacity:1; fill:none" points="712.436,608.887 712.436,398.616 724.499,398.616 724.499,608.887 712.436,608.887 "/>
<path clip-path="url(#clip452)" d="M748.627 608.887 L748.627 398.616 L760.69 398.616 L760.69 608.887 L748.627 608.887 L748.627 608.887  Z" fill="#1f78b4" fill-rule="evenodd" fill-opacity="1"/>
<polyline clip-path="url(#clip452)" style="stroke:#000000; stroke-linecap:round; stroke-linejoin:round; stroke-width:0; stroke-opacity:1; fill:none" points="748.627,608.887 748.627,398.616 760.69,398.616 760.69,608.887 748.627,608.887 "/>
<path clip-path="url(#clip452)" d="M784.817 608.887 L784.817 398.616 L796.881 398.616 L796.881 608.887 L784.817 608.887 L784.817 608.887  Z" fill="#1f78b4" fill-rule="evenodd" fill-opacity="1"/>
<polyline clip-path="url(#clip452)" style="stroke:#000000; stroke-linecap:round; stroke-linejoin:round; stroke-width:0; stroke-opacity:1; fill:none" points="784.817,608.887 784.817,398.616 796.881,398.616 796.881,608.887 784.817,608.887 "/>
<path clip-path="url(#clip452)" d="M821.008 608.887 L821.008 398.616 L833.072 398.616 L833.072 608.887 L821.008 608.887 L821.008 608.887  Z" fill="#1f78b4" fill-rule="evenodd" fill-opacity="1"/>
<polyline clip-path="url(#clip452)" style="stroke:#000000; stroke-linecap:round; stroke-linejoin:round; stroke-width:0; stroke-opacity:1; fill:none" points="821.008,608.887 821.008,398.616 833.072,398.616 833.072,608.887 821.008,608.887 "/>
<path clip-path="url(#clip452)" d="M857.199 608.887 L857.199 398.616 L869.262 398.616 L869.262 608.887 L857.199 608.887 L857.199 608.887  Z" fill="#1f78b4" fill-rule="evenodd" fill-opacity="1"/>
<polyline clip-path="url(#clip452)" style="stroke:#000000; stroke-linecap:round; stroke-linejoin:round; stroke-width:0; stroke-opacity:1; fill:none" points="857.199,608.887 857.199,398.616 869.262,398.616 869.262,608.887 857.199,608.887 "/>
<path clip-path="url(#clip452)" d="M893.389 608.887 L893.389 398.616 L905.453 398.616 L905.453 608.887 L893.389 608.887 L893.389 608.887  Z" fill="#1f78b4" fill-rule="evenodd" fill-opacity="1"/>
<polyline clip-path="url(#clip452)" style="stroke:#000000; stroke-linecap:round; stroke-linejoin:round; stroke-width:0; stroke-opacity:1; fill:none" points="893.389,608.887 893.389,398.616 905.453,398.616 905.453,608.887 893.389,608.887 "/>
<path clip-path="url(#clip452)" d="M929.58 608.887 L929.58 398.616 L941.644 398.616 L941.644 608.887 L929.58 608.887 L929.58 608.887  Z" fill="#1f78b4" fill-rule="evenodd" fill-opacity="1"/>
<polyline clip-path="url(#clip452)" style="stroke:#000000; stroke-linecap:round; stroke-linejoin:round; stroke-width:0; stroke-opacity:1; fill:none" points="929.58,608.887 929.58,398.616 941.644,398.616 941.644,608.887 929.58,608.887 "/>
<path clip-path="url(#clip452)" d="M965.771 608.887 L965.771 398.616 L977.834 398.616 L977.834 608.887 L965.771 608.887 L965.771 608.887  Z" fill="#1f78b4" fill-rule="evenodd" fill-opacity="1"/>
<polyline clip-path="url(#clip452)" style="stroke:#000000; stroke-linecap:round; stroke-linejoin:round; stroke-width:0; stroke-opacity:1; fill:none" points="965.771,608.887 965.771,398.616 977.834,398.616 977.834,608.887 965.771,608.887 "/>
<path clip-path="url(#clip452)" d="M1001.96 608.887 L1001.96 398.616 L1014.02 398.616 L1014.02 608.887 L1001.96 608.887 L1001.96 608.887  Z" fill="#1f78b4" fill-rule="evenodd" fill-opacity="1"/>
<polyline clip-path="url(#clip452)" style="stroke:#000000; stroke-linecap:round; stroke-linejoin:round; stroke-width:0; stroke-opacity:1; fill:none" points="1001.96,608.887 1001.96,398.616 1014.02,398.616 1014.02,608.887 1001.96,608.887 "/>
<path clip-path="url(#clip452)" d="M1038.15 608.887 L1038.15 398.616 L1050.22 398.616 L1050.22 608.887 L1038.15 608.887 L1038.15 608.887  Z" fill="#1f78b4" fill-rule="evenodd" fill-opacity="1"/>
<polyline clip-path="url(#clip452)" style="stroke:#000000; stroke-linecap:round; stroke-linejoin:round; stroke-width:0; stroke-opacity:1; fill:none" points="1038.15,608.887 1038.15,398.616 1050.22,398.616 1050.22,608.887 1038.15,608.887 "/>
<path clip-path="url(#clip452)" d="M1074.34 608.887 L1074.34 398.616 L1086.41 398.616 L1086.41 608.887 L1074.34 608.887 L1074.34 608.887  Z" fill="#1f78b4" fill-rule="evenodd" fill-opacity="1"/>
<polyline clip-path="url(#clip452)" style="stroke:#000000; stroke-linecap:round; stroke-linejoin:round; stroke-width:0; stroke-opacity:1; fill:none" points="1074.34,608.887 1074.34,398.616 1086.41,398.616 1086.41,608.887 1074.34,608.887 "/>
<path clip-path="url(#clip452)" d="M1110.53 608.887 L1110.53 398.616 L1122.6 398.616 L1122.6 608.887 L1110.53 608.887 L1110.53 608.887  Z" fill="#1f78b4" fill-rule="evenodd" fill-opacity="1"/>
<polyline clip-path="url(#clip452)" style="stroke:#000000; stroke-linecap:round; stroke-linejoin:round; stroke-width:0; stroke-opacity:1; fill:none" points="1110.53,608.887 1110.53,398.616 1122.6,398.616 1122.6,608.887 1110.53,608.887 "/>
<circle clip-path="url(#clip452)" style="fill:#1f78b4; stroke:none; fill-opacity:0" cx="284.179" cy="608.887" r="2"/>
<circle clip-path="url(#clip452)" style="fill:#1f78b4; stroke:none; fill-opacity:0" cx="320.37" cy="608.887" r="2"/>
<circle clip-path="url(#clip452)" style="fill:#1f78b4; stroke:none; fill-opacity:0" cx="356.561" cy="608.887" r="2"/>
<circle clip-path="url(#clip452)" style="fill:#1f78b4; stroke:none; fill-opacity:0" cx="392.752" cy="608.887" r="2"/>
<circle clip-path="url(#clip452)" style="fill:#1f78b4; stroke:none; fill-opacity:0" cx="428.942" cy="608.887" r="2"/>
<circle clip-path="url(#clip452)" style="fill:#1f78b4; stroke:none; fill-opacity:0" cx="465.133" cy="608.887" r="2"/>
<circle clip-path="url(#clip452)" style="fill:#1f78b4; stroke:none; fill-opacity:0" cx="501.324" cy="608.887" r="2"/>
<circle clip-path="url(#clip452)" style="fill:#1f78b4; stroke:none; fill-opacity:0" cx="537.514" cy="608.887" r="2"/>
<circle clip-path="url(#clip452)" style="fill:#1f78b4; stroke:none; fill-opacity:0" cx="573.705" cy="608.887" r="2"/>
<circle clip-path="url(#clip452)" style="fill:#1f78b4; stroke:none; fill-opacity:0" cx="609.896" cy="608.887" r="2"/>
<circle clip-path="url(#clip452)" style="fill:#1f78b4; stroke:none; fill-opacity:0" cx="646.086" cy="608.887" r="2"/>
<circle clip-path="url(#clip452)" style="fill:#1f78b4; stroke:none; fill-opacity:0" cx="682.277" cy="608.887" r="2"/>
<circle clip-path="url(#clip452)" style="fill:#1f78b4; stroke:none; fill-opacity:0" cx="718.468" cy="608.887" r="2"/>
<circle clip-path="url(#clip452)" style="fill:#1f78b4; stroke:none; fill-opacity:0" cx="754.658" cy="608.887" r="2"/>
<circle clip-path="url(#clip452)" style="fill:#1f78b4; stroke:none; fill-opacity:0" cx="790.849" cy="608.887" r="2"/>
<circle clip-path="url(#clip452)" style="fill:#1f78b4; stroke:none; fill-opacity:0" cx="827.04" cy="608.887" r="2"/>
<circle clip-path="url(#clip452)" style="fill:#1f78b4; stroke:none; fill-opacity:0" cx="863.23" cy="608.887" r="2"/>
<circle clip-path="url(#clip452)" style="fill:#1f78b4; stroke:none; fill-opacity:0" cx="899.421" cy="608.887" r="2"/>
<circle clip-path="url(#clip452)" style="fill:#1f78b4; stroke:none; fill-opacity:0" cx="935.612" cy="608.887" r="2"/>
<circle clip-path="url(#clip452)" style="fill:#1f78b4; stroke:none; fill-opacity:0" cx="971.802" cy="608.887" r="2"/>
<circle clip-path="url(#clip452)" style="fill:#1f78b4; stroke:none; fill-opacity:0" cx="1007.99" cy="608.887" r="2"/>
<circle clip-path="url(#clip452)" style="fill:#1f78b4; stroke:none; fill-opacity:0" cx="1044.18" cy="608.887" r="2"/>
<circle clip-path="url(#clip452)" style="fill:#1f78b4; stroke:none; fill-opacity:0" cx="1080.37" cy="608.887" r="2"/>
<circle clip-path="url(#clip452)" style="fill:#1f78b4; stroke:none; fill-opacity:0" cx="1116.57" cy="608.887" r="2"/>
<path clip-path="url(#clip452)" d="M290.211 877 L290.211 398.616 L302.275 398.616 L302.275 877 L290.211 877 L290.211 877  Z" fill="#b1df89" fill-rule="evenodd" fill-opacity="1"/>
<polyline clip-path="url(#clip452)" style="stroke:#000000; stroke-linecap:round; stroke-linejoin:round; stroke-width:0; stroke-opacity:1; fill:none" points="290.211,877 290.211,398.616 302.275,398.616 302.275,877 290.211,877 "/>
<path clip-path="url(#clip452)" d="M326.402 877 L326.402 398.616 L338.466 398.616 L338.466 877 L326.402 877 L326.402 877  Z" fill="#b1df89" fill-rule="evenodd" fill-opacity="1"/>
<polyline clip-path="url(#clip452)" style="stroke:#000000; stroke-linecap:round; stroke-linejoin:round; stroke-width:0; stroke-opacity:1; fill:none" points="326.402,877 326.402,398.616 338.466,398.616 338.466,877 326.402,877 "/>
<path clip-path="url(#clip452)" d="M362.593 877 L362.593 398.616 L374.656 398.616 L374.656 877 L362.593 877 L362.593 877  Z" fill="#b1df89" fill-rule="evenodd" fill-opacity="1"/>
<polyline clip-path="url(#clip452)" style="stroke:#000000; stroke-linecap:round; stroke-linejoin:round; stroke-width:0; stroke-opacity:1; fill:none" points="362.593,877 362.593,398.616 374.656,398.616 374.656,877 362.593,877 "/>
<path clip-path="url(#clip452)" d="M398.783 877 L398.783 398.616 L410.847 398.616 L410.847 877 L398.783 877 L398.783 877  Z" fill="#b1df89" fill-rule="evenodd" fill-opacity="1"/>
<polyline clip-path="url(#clip452)" style="stroke:#000000; stroke-linecap:round; stroke-linejoin:round; stroke-width:0; stroke-opacity:1; fill:none" points="398.783,877 398.783,398.616 410.847,398.616 410.847,877 398.783,877 "/>
<path clip-path="url(#clip452)" d="M434.974 877 L434.974 398.616 L447.038 398.616 L447.038 877 L434.974 877 L434.974 877  Z" fill="#b1df89" fill-rule="evenodd" fill-opacity="1"/>
<polyline clip-path="url(#clip452)" style="stroke:#000000; stroke-linecap:round; stroke-linejoin:round; stroke-width:0; stroke-opacity:1; fill:none" points="434.974,877 434.974,398.616 447.038,398.616 447.038,877 434.974,877 "/>
<path clip-path="url(#clip452)" d="M471.165 877 L471.165 398.616 L483.228 398.616 L483.228 877 L471.165 877 L471.165 877  Z" fill="#b1df89" fill-rule="evenodd" fill-opacity="1"/>
<polyline clip-path="url(#clip452)" style="stroke:#000000; stroke-linecap:round; stroke-linejoin:round; stroke-width:0; stroke-opacity:1; fill:none" points="471.165,877 471.165,398.616 483.228,398.616 483.228,877 471.165,877 "/>
<path clip-path="url(#clip452)" d="M507.355 877 L507.355 398.616 L519.419 398.616 L519.419 877 L507.355 877 L507.355 877  Z" fill="#b1df89" fill-rule="evenodd" fill-opacity="1"/>
<polyline clip-path="url(#clip452)" style="stroke:#000000; stroke-linecap:round; stroke-linejoin:round; stroke-width:0; stroke-opacity:1; fill:none" points="507.355,877 507.355,398.616 519.419,398.616 519.419,877 507.355,877 "/>
<path clip-path="url(#clip452)" d="M543.546 877 L543.546 398.616 L555.61 398.616 L555.61 877 L543.546 877 L543.546 877  Z" fill="#b1df89" fill-rule="evenodd" fill-opacity="1"/>
<polyline clip-path="url(#clip452)" style="stroke:#000000; stroke-linecap:round; stroke-linejoin:round; stroke-width:0; stroke-opacity:1; fill:none" points="543.546,877 543.546,398.616 555.61,398.616 555.61,877 543.546,877 "/>
<path clip-path="url(#clip452)" d="M579.737 877 L579.737 398.616 L591.8 398.616 L591.8 877 L579.737 877 L579.737 877  Z" fill="#b1df89" fill-rule="evenodd" fill-opacity="1"/>
<polyline clip-path="url(#clip452)" style="stroke:#000000; stroke-linecap:round; stroke-linejoin:round; stroke-width:0; stroke-opacity:1; fill:none" points="579.737,877 579.737,398.616 591.8,398.616 591.8,877 579.737,877 "/>
<path clip-path="url(#clip452)" d="M615.927 877 L615.927 398.616 L627.991 398.616 L627.991 877 L615.927 877 L615.927 877  Z" fill="#b1df89" fill-rule="evenodd" fill-opacity="1"/>
<polyline clip-path="url(#clip452)" style="stroke:#000000; stroke-linecap:round; stroke-linejoin:round; stroke-width:0; stroke-opacity:1; fill:none" points="615.927,877 615.927,398.616 627.991,398.616 627.991,877 615.927,877 "/>
<path clip-path="url(#clip452)" d="M652.118 640.955 L652.118 398.616 L664.182 398.616 L664.182 640.955 L652.118 640.955 L652.118 640.955  Z" fill="#b1df89" fill-rule="evenodd" fill-opacity="1"/>
<polyline clip-path="url(#clip452)" style="stroke:#000000; stroke-linecap:round; stroke-linejoin:round; stroke-width:0; stroke-opacity:1; fill:none" points="652.118,640.955 652.118,398.616 664.182,398.616 664.182,640.955 652.118,640.955 "/>
<path clip-path="url(#clip452)" d="M688.309 640.955 L688.309 398.616 L700.372 398.616 L700.372 640.955 L688.309 640.955 L688.309 640.955  Z" fill="#b1df89" fill-rule="evenodd" fill-opacity="1"/>
<polyline clip-path="url(#clip452)" style="stroke:#000000; stroke-linecap:round; stroke-linejoin:round; stroke-width:0; stroke-opacity:1; fill:none" points="688.309,640.955 688.309,398.616 700.372,398.616 700.372,640.955 688.309,640.955 "/>
<path clip-path="url(#clip452)" d="M724.499 640.955 L724.499 398.616 L736.563 398.616 L736.563 640.955 L724.499 640.955 L724.499 640.955  Z" fill="#b1df89" fill-rule="evenodd" fill-opacity="1"/>
<polyline clip-path="url(#clip452)" style="stroke:#000000; stroke-linecap:round; stroke-linejoin:round; stroke-width:0; stroke-opacity:1; fill:none" points="724.499,640.955 724.499,398.616 736.563,398.616 736.563,640.955 724.499,640.955 "/>
<path clip-path="url(#clip452)" d="M760.69 640.955 L760.69 398.616 L772.754 398.616 L772.754 640.955 L760.69 640.955 L760.69 640.955  Z" fill="#b1df89" fill-rule="evenodd" fill-opacity="1"/>
<polyline clip-path="url(#clip452)" style="stroke:#000000; stroke-linecap:round; stroke-linejoin:round; stroke-width:0; stroke-opacity:1; fill:none" points="760.69,640.955 760.69,398.616 772.754,398.616 772.754,640.955 760.69,640.955 "/>
<path clip-path="url(#clip452)" d="M796.881 640.955 L796.881 398.616 L808.944 398.616 L808.944 640.955 L796.881 640.955 L796.881 640.955  Z" fill="#b1df89" fill-rule="evenodd" fill-opacity="1"/>
<polyline clip-path="url(#clip452)" style="stroke:#000000; stroke-linecap:round; stroke-linejoin:round; stroke-width:0; stroke-opacity:1; fill:none" points="796.881,640.955 796.881,398.616 808.944,398.616 808.944,640.955 796.881,640.955 "/>
<path clip-path="url(#clip452)" d="M833.072 877 L833.072 398.616 L845.135 398.616 L845.135 877 L833.072 877 L833.072 877  Z" fill="#b1df89" fill-rule="evenodd" fill-opacity="1"/>
<polyline clip-path="url(#clip452)" style="stroke:#000000; stroke-linecap:round; stroke-linejoin:round; stroke-width:0; stroke-opacity:1; fill:none" points="833.072,877 833.072,398.616 845.135,398.616 845.135,877 833.072,877 "/>
<path clip-path="url(#clip452)" d="M869.262 877 L869.262 398.616 L881.326 398.616 L881.326 877 L869.262 877 L869.262 877  Z" fill="#b1df89" fill-rule="evenodd" fill-opacity="1"/>
<polyline clip-path="url(#clip452)" style="stroke:#000000; stroke-linecap:round; stroke-linejoin:round; stroke-width:0; stroke-opacity:1; fill:none" points="869.262,877 869.262,398.616 881.326,398.616 881.326,877 869.262,877 "/>
<path clip-path="url(#clip452)" d="M905.453 877 L905.453 398.616 L917.516 398.616 L917.516 877 L905.453 877 L905.453 877  Z" fill="#b1df89" fill-rule="evenodd" fill-opacity="1"/>
<polyline clip-path="url(#clip452)" style="stroke:#000000; stroke-linecap:round; stroke-linejoin:round; stroke-width:0; stroke-opacity:1; fill:none" points="905.453,877 905.453,398.616 917.516,398.616 917.516,877 905.453,877 "/>
<path clip-path="url(#clip452)" d="M941.644 877 L941.644 398.616 L953.707 398.616 L953.707 877 L941.644 877 L941.644 877  Z" fill="#b1df89" fill-rule="evenodd" fill-opacity="1"/>
<polyline clip-path="url(#clip452)" style="stroke:#000000; stroke-linecap:round; stroke-linejoin:round; stroke-width:0; stroke-opacity:1; fill:none" points="941.644,877 941.644,398.616 953.707,398.616 953.707,877 941.644,877 "/>
<path clip-path="url(#clip452)" d="M977.834 877 L977.834 398.616 L989.898 398.616 L989.898 877 L977.834 877 L977.834 877  Z" fill="#b1df89" fill-rule="evenodd" fill-opacity="1"/>
<polyline clip-path="url(#clip452)" style="stroke:#000000; stroke-linecap:round; stroke-linejoin:round; stroke-width:0; stroke-opacity:1; fill:none" points="977.834,877 977.834,398.616 989.898,398.616 989.898,877 977.834,877 "/>
<path clip-path="url(#clip452)" d="M1014.02 877 L1014.02 398.616 L1026.09 398.616 L1026.09 877 L1014.02 877 L1014.02 877  Z" fill="#b1df89" fill-rule="evenodd" fill-opacity="1"/>
<polyline clip-path="url(#clip452)" style="stroke:#000000; stroke-linecap:round; stroke-linejoin:round; stroke-width:0; stroke-opacity:1; fill:none" points="1014.02,877 1014.02,398.616 1026.09,398.616 1026.09,877 1014.02,877 "/>
<path clip-path="url(#clip452)" d="M1050.22 877 L1050.22 398.616 L1062.28 398.616 L1062.28 877 L1050.22 877 L1050.22 877  Z" fill="#b1df89" fill-rule="evenodd" fill-opacity="1"/>
<polyline clip-path="url(#clip452)" style="stroke:#000000; stroke-linecap:round; stroke-linejoin:round; stroke-width:0; stroke-opacity:1; fill:none" points="1050.22,877 1050.22,398.616 1062.28,398.616 1062.28,877 1050.22,877 "/>
<path clip-path="url(#clip452)" d="M1086.41 877 L1086.41 398.616 L1098.47 398.616 L1098.47 877 L1086.41 877 L1086.41 877  Z" fill="#b1df89" fill-rule="evenodd" fill-opacity="1"/>
<polyline clip-path="url(#clip452)" style="stroke:#000000; stroke-linecap:round; stroke-linejoin:round; stroke-width:0; stroke-opacity:1; fill:none" points="1086.41,877 1086.41,398.616 1098.47,398.616 1098.47,877 1086.41,877 "/>
<path clip-path="url(#clip452)" d="M1122.6 877 L1122.6 398.616 L1134.66 398.616 L1134.66 877 L1122.6 877 L1122.6 877  Z" fill="#b1df89" fill-rule="evenodd" fill-opacity="1"/>
<polyline clip-path="url(#clip452)" style="stroke:#000000; stroke-linecap:round; stroke-linejoin:round; stroke-width:0; stroke-opacity:1; fill:none" points="1122.6,877 1122.6,398.616 1134.66,398.616 1134.66,877 1122.6,877 "/>
<circle clip-path="url(#clip452)" style="fill:#b1df89; stroke:none; fill-opacity:0" cx="296.243" cy="877" r="2"/>
<circle clip-path="url(#clip452)" style="fill:#b1df89; stroke:none; fill-opacity:0" cx="332.434" cy="877" r="2"/>
<circle clip-path="url(#clip452)" style="fill:#b1df89; stroke:none; fill-opacity:0" cx="368.624" cy="877" r="2"/>
<circle clip-path="url(#clip452)" style="fill:#b1df89; stroke:none; fill-opacity:0" cx="404.815" cy="877" r="2"/>
<circle clip-path="url(#clip452)" style="fill:#b1df89; stroke:none; fill-opacity:0" cx="441.006" cy="877" r="2"/>
<circle clip-path="url(#clip452)" style="fill:#b1df89; stroke:none; fill-opacity:0" cx="477.196" cy="877" r="2"/>
<circle clip-path="url(#clip452)" style="fill:#b1df89; stroke:none; fill-opacity:0" cx="513.387" cy="877" r="2"/>
<circle clip-path="url(#clip452)" style="fill:#b1df89; stroke:none; fill-opacity:0" cx="549.578" cy="877" r="2"/>
<circle clip-path="url(#clip452)" style="fill:#b1df89; stroke:none; fill-opacity:0" cx="585.769" cy="877" r="2"/>
<circle clip-path="url(#clip452)" style="fill:#b1df89; stroke:none; fill-opacity:0" cx="621.959" cy="877" r="2"/>
<circle clip-path="url(#clip452)" style="fill:#b1df89; stroke:none; fill-opacity:0" cx="658.15" cy="640.955" r="2"/>
<circle clip-path="url(#clip452)" style="fill:#b1df89; stroke:none; fill-opacity:0" cx="694.341" cy="640.955" r="2"/>
<circle clip-path="url(#clip452)" style="fill:#b1df89; stroke:none; fill-opacity:0" cx="730.531" cy="640.955" r="2"/>
<circle clip-path="url(#clip452)" style="fill:#b1df89; stroke:none; fill-opacity:0" cx="766.722" cy="640.955" r="2"/>
<circle clip-path="url(#clip452)" style="fill:#b1df89; stroke:none; fill-opacity:0" cx="802.913" cy="640.955" r="2"/>
<circle clip-path="url(#clip452)" style="fill:#b1df89; stroke:none; fill-opacity:0" cx="839.103" cy="877" r="2"/>
<circle clip-path="url(#clip452)" style="fill:#b1df89; stroke:none; fill-opacity:0" cx="875.294" cy="877" r="2"/>
<circle clip-path="url(#clip452)" style="fill:#b1df89; stroke:none; fill-opacity:0" cx="911.485" cy="877" r="2"/>
<circle clip-path="url(#clip452)" style="fill:#b1df89; stroke:none; fill-opacity:0" cx="947.675" cy="877" r="2"/>
<circle clip-path="url(#clip452)" style="fill:#b1df89; stroke:none; fill-opacity:0" cx="983.866" cy="877" r="2"/>
<circle clip-path="url(#clip452)" style="fill:#b1df89; stroke:none; fill-opacity:0" cx="1020.06" cy="877" r="2"/>
<circle clip-path="url(#clip452)" style="fill:#b1df89; stroke:none; fill-opacity:0" cx="1056.25" cy="877" r="2"/>
<circle clip-path="url(#clip452)" style="fill:#b1df89; stroke:none; fill-opacity:0" cx="1092.44" cy="877" r="2"/>
<circle clip-path="url(#clip452)" style="fill:#b1df89; stroke:none; fill-opacity:0" cx="1128.63" cy="877" r="2"/>
<path clip-path="url(#clip450)" d="M812.225 293.45 L1122.6 293.45 L1122.6 78.4772 L812.225 78.4772  Z" fill="#ffffff" fill-rule="evenodd" fill-opacity="1"/>
<polyline clip-path="url(#clip450)" style="stroke:#000000; stroke-linecap:round; stroke-linejoin:round; stroke-width:4; stroke-opacity:1; fill:none" points="812.225,293.45 1122.6,293.45 1122.6,78.4772 812.225,78.4772 812.225,293.45 "/>
<path clip-path="url(#clip450)" d="M822.278 153.718 L882.596 153.718 L882.596 110.723 L822.278 110.723 L822.278 153.718  Z" fill="#a6cee2" fill-rule="evenodd" fill-opacity="1"/>
<polyline clip-path="url(#clip450)" style="stroke:#000000; stroke-linecap:round; stroke-linejoin:round; stroke-width:0.8; stroke-opacity:1; fill:none" points="822.278,153.718 882.596,153.718 882.596,110.723 822.278,110.723 822.278,153.718 "/>
<g clip-path="url(#clip450)">
<text style="fill:#000000; fill-opacity:1; font-family:Book Antiqua,Palatino,Palatino Linotype,Palatino LT STD,Georgia,serif; font-size:51px; font-weight:bold; text-anchor:start;" transform="rotate(0, 892.649, 149.72)" x="892.649" y="149.72">CCFDUC</text>
</g>
<path clip-path="url(#clip450)" d="M822.278 207.461 L882.596 207.461 L882.596 164.466 L822.278 164.466 L822.278 207.461  Z" fill="#1f78b4" fill-rule="evenodd" fill-opacity="1"/>
<polyline clip-path="url(#clip450)" style="stroke:#000000; stroke-linecap:round; stroke-linejoin:round; stroke-width:0.8; stroke-opacity:1; fill:none" points="822.278,207.461 882.596,207.461 882.596,164.466 822.278,164.466 822.278,207.461 "/>
<g clip-path="url(#clip450)">
<text style="fill:#000000; fill-opacity:1; font-family:Book Antiqua,Palatino,Palatino Linotype,Palatino LT STD,Georgia,serif; font-size:51px; font-weight:bold; text-anchor:start;" transform="rotate(0, 892.649, 203.463)" x="892.649" y="203.463">FCUC</text>
</g>
<path clip-path="url(#clip450)" d="M822.278 261.204 L882.596 261.204 L882.596 218.209 L822.278 218.209 L822.278 261.204  Z" fill="#b1df89" fill-rule="evenodd" fill-opacity="1"/>
<polyline clip-path="url(#clip450)" style="stroke:#000000; stroke-linecap:round; stroke-linejoin:round; stroke-width:0.8; stroke-opacity:1; fill:none" points="822.278,261.204 882.596,261.204 882.596,218.209 822.278,218.209 822.278,261.204 "/>
<g clip-path="url(#clip450)">
<text style="fill:#000000; fill-opacity:1; font-family:Book Antiqua,Palatino,Palatino Linotype,Palatino LT STD,Georgia,serif; font-size:51px; font-weight:bold; text-anchor:start;" transform="rotate(0, 892.649, 257.206)" x="892.649" y="257.206">TUC</text>
</g>
</svg>
