<?xml version="1.0" encoding="utf-8"?>
<svg xmlns="http://www.w3.org/2000/svg" xmlns:xlink="http://www.w3.org/1999/xlink" width="300" height="300" viewBox="0 0 1200 1200">
<defs>
  <clipPath id="clip580">
    <rect x="0" y="0" width="1200" height="1200"/>
  </clipPath>
</defs>
<path clip-path="url(#clip580)" d="M0 1200 L1200 1200 L1200 0 L0 0  Z" fill="#ffffff" fill-rule="evenodd" fill-opacity="1"/>
<defs>
  <clipPath id="clip581">
    <rect x="240" y="119" width="841" height="841"/>
  </clipPath>
</defs>
<path clip-path="url(#clip580)" d="M250.556 994.16 L1152.76 994.16 L1152.76 47.2441 L250.556 47.2441  Z" fill="#ffffff" fill-rule="evenodd" fill-opacity="1"/>
<defs>
  <clipPath id="clip582">
    <rect x="250" y="47" width="903" height="948"/>
  </clipPath>
</defs>
<polyline clip-path="url(#clip582)" style="stroke:#808080; stroke-linecap:round; stroke-linejoin:round; stroke-width:2; stroke-opacity:0.1; fill:none" points="250.556,994.16 250.556,47.2441 "/>
<polyline clip-path="url(#clip582)" style="stroke:#808080; stroke-linecap:round; stroke-linejoin:round; stroke-width:2; stroke-opacity:0.1; fill:none" points="551.289,994.16 551.289,47.2441 "/>
<polyline clip-path="url(#clip582)" style="stroke:#808080; stroke-linecap:round; stroke-linejoin:round; stroke-width:2; stroke-opacity:0.1; fill:none" points="852.023,994.16 852.023,47.2441 "/>
<polyline clip-path="url(#clip582)" style="stroke:#808080; stroke-linecap:round; stroke-linejoin:round; stroke-width:2; stroke-opacity:0.1; fill:none" points="1152.76,994.16 1152.76,47.2441 "/>
<polyline clip-path="url(#clip582)" style="stroke:#808080; stroke-linecap:round; stroke-linejoin:round; stroke-width:2; stroke-opacity:0.1; fill:none" points="1453.49,994.16 1453.49,47.2441 "/>
<polyline clip-path="url(#clip582)" style="stroke:#808080; stroke-linecap:round; stroke-linejoin:round; stroke-width:2; stroke-opacity:0.1; fill:none" points="1754.22,994.16 1754.22,47.2441 "/>
<polyline clip-path="url(#clip582)" style="stroke:#808080; stroke-linecap:round; stroke-linejoin:round; stroke-width:2; stroke-opacity:0.1; fill:none" points="2054.96,994.16 2054.96,47.2441 "/>
<polyline clip-path="url(#clip582)" style="stroke:#808080; stroke-linecap:round; stroke-linejoin:round; stroke-width:2; stroke-opacity:0.1; fill:none" points="250.556,994.16 250.556,47.2441 "/>
<polyline clip-path="url(#clip582)" style="stroke:#808080; stroke-linecap:round; stroke-linejoin:round; stroke-width:2; stroke-opacity:0.1; fill:none" points="551.289,994.16 551.289,47.2441 "/>
<polyline clip-path="url(#clip582)" style="stroke:#808080; stroke-linecap:round; stroke-linejoin:round; stroke-width:2; stroke-opacity:0.1; fill:none" points="852.023,994.16 852.023,47.2441 "/>
<polyline clip-path="url(#clip582)" style="stroke:#808080; stroke-linecap:round; stroke-linejoin:round; stroke-width:2; stroke-opacity:0.1; fill:none" points="1152.76,994.16 1152.76,47.2441 "/>
<polyline clip-path="url(#clip582)" style="stroke:#808080; stroke-linecap:round; stroke-linejoin:round; stroke-width:2; stroke-opacity:0.1; fill:none" points="1453.49,994.16 1453.49,47.2441 "/>
<polyline clip-path="url(#clip582)" style="stroke:#808080; stroke-linecap:round; stroke-linejoin:round; stroke-width:2; stroke-opacity:0.1; fill:none" points="1754.22,994.16 1754.22,47.2441 "/>
<polyline clip-path="url(#clip582)" style="stroke:#808080; stroke-linecap:round; stroke-linejoin:round; stroke-width:2; stroke-opacity:0.1; fill:none" points="2054.96,994.16 2054.96,47.2441 "/>
<polyline clip-path="url(#clip582)" style="stroke:#808080; stroke-linecap:round; stroke-linejoin:round; stroke-width:2; stroke-opacity:0.1; fill:none" points="250.556,994.16 1152.76,994.16 "/>
<polyline clip-path="url(#clip582)" style="stroke:#808080; stroke-linecap:round; stroke-linejoin:round; stroke-width:2; stroke-opacity:0.1; fill:none" points="250.556,804.777 1152.76,804.777 "/>
<polyline clip-path="url(#clip582)" style="stroke:#808080; stroke-linecap:round; stroke-linejoin:round; stroke-width:2; stroke-opacity:0.1; fill:none" points="250.556,615.394 1152.76,615.394 "/>
<polyline clip-path="url(#clip582)" style="stroke:#808080; stroke-linecap:round; stroke-linejoin:round; stroke-width:2; stroke-opacity:0.1; fill:none" points="250.556,426.011 1152.76,426.011 "/>
<polyline clip-path="url(#clip582)" style="stroke:#808080; stroke-linecap:round; stroke-linejoin:round; stroke-width:2; stroke-opacity:0.1; fill:none" points="250.556,236.627 1152.76,236.627 "/>
<polyline clip-path="url(#clip582)" style="stroke:#808080; stroke-linecap:round; stroke-linejoin:round; stroke-width:2; stroke-opacity:0.1; fill:none" points="250.556,47.2441 1152.76,47.2441 "/>
<polyline clip-path="url(#clip582)" style="stroke:#808080; stroke-linecap:round; stroke-linejoin:round; stroke-width:2; stroke-opacity:0.1; fill:none" points="250.556,994.16 1152.76,994.16 "/>
<polyline clip-path="url(#clip582)" style="stroke:#808080; stroke-linecap:round; stroke-linejoin:round; stroke-width:2; stroke-opacity:0.1; fill:none" points="250.556,804.777 1152.76,804.777 "/>
<polyline clip-path="url(#clip582)" style="stroke:#808080; stroke-linecap:round; stroke-linejoin:round; stroke-width:2; stroke-opacity:0.1; fill:none" points="250.556,615.394 1152.76,615.394 "/>
<polyline clip-path="url(#clip582)" style="stroke:#808080; stroke-linecap:round; stroke-linejoin:round; stroke-width:2; stroke-opacity:0.1; fill:none" points="250.556,426.011 1152.76,426.011 "/>
<polyline clip-path="url(#clip582)" style="stroke:#808080; stroke-linecap:round; stroke-linejoin:round; stroke-width:2; stroke-opacity:0.1; fill:none" points="250.556,236.627 1152.76,236.627 "/>
<polyline clip-path="url(#clip582)" style="stroke:#808080; stroke-linecap:round; stroke-linejoin:round; stroke-width:2; stroke-opacity:0.1; fill:none" points="250.556,47.2441 1152.76,47.2441 "/>
<polyline clip-path="url(#clip580)" style="stroke:#000000; stroke-linecap:round; stroke-linejoin:round; stroke-width:4; stroke-opacity:1; fill:none" points="250.556,994.16 1152.76,994.16 "/>
<polyline clip-path="url(#clip580)" style="stroke:#000000; stroke-linecap:round; stroke-linejoin:round; stroke-width:4; stroke-opacity:1; fill:none" points="250.556,47.2441 1152.76,47.2441 "/>
<polyline clip-path="url(#clip580)" style="stroke:#000000; stroke-linecap:round; stroke-linejoin:round; stroke-width:4; stroke-opacity:1; fill:none" points="250.556,994.16 250.556,975.262 "/>
<polyline clip-path="url(#clip580)" style="stroke:#000000; stroke-linecap:round; stroke-linejoin:round; stroke-width:4; stroke-opacity:1; fill:none" points="551.289,994.16 551.289,975.262 "/>
<polyline clip-path="url(#clip580)" style="stroke:#000000; stroke-linecap:round; stroke-linejoin:round; stroke-width:4; stroke-opacity:1; fill:none" points="852.023,994.16 852.023,975.262 "/>
<polyline clip-path="url(#clip580)" style="stroke:#000000; stroke-linecap:round; stroke-linejoin:round; stroke-width:4; stroke-opacity:1; fill:none" points="1152.76,994.16 1152.76,975.262 "/>
<polyline clip-path="url(#clip580)" style="stroke:#000000; stroke-linecap:round; stroke-linejoin:round; stroke-width:4; stroke-opacity:1; fill:none" points="1453.49,994.16 1453.49,975.262 "/>
<polyline clip-path="url(#clip580)" style="stroke:#000000; stroke-linecap:round; stroke-linejoin:round; stroke-width:4; stroke-opacity:1; fill:none" points="1754.22,994.16 1754.22,975.262 "/>
<polyline clip-path="url(#clip580)" style="stroke:#000000; stroke-linecap:round; stroke-linejoin:round; stroke-width:4; stroke-opacity:1; fill:none" points="2054.96,994.16 2054.96,975.262 "/>
<polyline clip-path="url(#clip580)" style="stroke:#000000; stroke-linecap:round; stroke-linejoin:round; stroke-width:4; stroke-opacity:1; fill:none" points="250.556,47.2441 250.556,66.1417 "/>
<polyline clip-path="url(#clip580)" style="stroke:#000000; stroke-linecap:round; stroke-linejoin:round; stroke-width:4; stroke-opacity:1; fill:none" points="551.289,47.2441 551.289,66.1417 "/>
<polyline clip-path="url(#clip580)" style="stroke:#000000; stroke-linecap:round; stroke-linejoin:round; stroke-width:4; stroke-opacity:1; fill:none" points="852.023,47.2441 852.023,66.1417 "/>
<polyline clip-path="url(#clip580)" style="stroke:#000000; stroke-linecap:round; stroke-linejoin:round; stroke-width:4; stroke-opacity:1; fill:none" points="1152.76,47.2441 1152.76,66.1417 "/>
<polyline clip-path="url(#clip580)" style="stroke:#000000; stroke-linecap:round; stroke-linejoin:round; stroke-width:4; stroke-opacity:1; fill:none" points="1453.49,47.2441 1453.49,66.1417 "/>
<polyline clip-path="url(#clip580)" style="stroke:#000000; stroke-linecap:round; stroke-linejoin:round; stroke-width:4; stroke-opacity:1; fill:none" points="1754.22,47.2441 1754.22,66.1417 "/>
<polyline clip-path="url(#clip580)" style="stroke:#000000; stroke-linecap:round; stroke-linejoin:round; stroke-width:4; stroke-opacity:1; fill:none" points="2054.96,47.2441 2054.96,66.1417 "/>
<g clip-path="url(#clip580)">
<text style="fill:#000000; fill-opacity:1; font-family:Arial,Helvetica Neue,Helvetica,sans-serif; font-size:48px; text-anchor:middle;" transform="rotate(0, 250.556, 1046.41)" x="250.556" y="1046.41">0</text>
</g>
<g clip-path="url(#clip580)">
<text style="fill:#000000; fill-opacity:1; font-family:Arial,Helvetica Neue,Helvetica,sans-serif; font-size:48px; text-anchor:middle;" transform="rotate(0, 551.289, 1046.41)" x="551.289" y="1046.41">10</text>
</g>
<g clip-path="url(#clip580)">
<text style="fill:#000000; fill-opacity:1; font-family:Arial,Helvetica Neue,Helvetica,sans-serif; font-size:48px; text-anchor:middle;" transform="rotate(0, 852.023, 1046.41)" x="852.023" y="1046.41">20</text>
</g>
<g clip-path="url(#clip580)">
<text style="fill:#000000; fill-opacity:1; font-family:Arial,Helvetica Neue,Helvetica,sans-serif; font-size:48px; text-anchor:middle;" transform="rotate(0, 1152.76, 1046.41)" x="1152.76" y="1046.41">30</text>
</g>
<g clip-path="url(#clip580)">
<text style="fill:#000000; fill-opacity:1; font-family:Arial,Helvetica Neue,Helvetica,sans-serif; font-size:48px; text-anchor:middle;" transform="rotate(0, 1453.49, 1046.41)" x="1453.49" y="1046.41">40</text>
</g>
<g clip-path="url(#clip580)">
<text style="fill:#000000; fill-opacity:1; font-family:Arial,Helvetica Neue,Helvetica,sans-serif; font-size:48px; text-anchor:middle;" transform="rotate(0, 1754.22, 1046.41)" x="1754.22" y="1046.41">50</text>
</g>
<g clip-path="url(#clip580)">
<text style="fill:#000000; fill-opacity:1; font-family:Arial,Helvetica Neue,Helvetica,sans-serif; font-size:48px; text-anchor:middle;" transform="rotate(0, 2054.96, 1046.41)" x="2054.96" y="1046.41">60</text>
</g>
<path clip-path="url(#clip580)" d="M657.284 1072.69 L657.284 1081.89 L668.251 1081.89 L668.251 1086.03 L657.284 1086.03 L657.284 1103.62 Q657.284 1107.59 658.355 1108.72 Q659.454 1109.84 662.782 1109.84 L668.251 1109.84 L668.251 1114.3 L662.782 1114.3 Q656.619 1114.3 654.275 1112.01 Q651.931 1109.7 651.931 1103.62 L651.931 1086.03 L648.025 1086.03 L648.025 1081.89 L651.931 1081.89 L651.931 1072.69 L657.284 1072.69 Z" fill="#000000" fill-rule="nonzero" fill-opacity="1" /><path clip-path="url(#clip580)" d="M703.551 1071.1 L708.47 1071.1 L693.424 1119.8 L688.505 1119.8 L703.551 1071.1 Z" fill="#000000" fill-rule="nonzero" fill-opacity="1" /><path clip-path="url(#clip580)" d="M753.551 1082.85 L753.551 1087.88 Q751.294 1086.72 748.863 1086.15 Q746.433 1085.57 743.829 1085.57 Q739.865 1085.57 737.868 1086.78 Q735.901 1088 735.901 1090.43 Q735.901 1092.28 737.318 1093.35 Q738.736 1094.39 743.019 1095.35 L744.842 1095.75 Q750.513 1096.97 752.885 1099.2 Q755.287 1101.39 755.287 1105.36 Q755.287 1109.87 751.699 1112.51 Q748.14 1115.14 741.89 1115.14 Q739.286 1115.14 736.45 1114.62 Q733.644 1114.13 730.519 1113.11 L730.519 1107.62 Q733.47 1109.15 736.335 1109.93 Q739.199 1110.68 742.006 1110.68 Q745.767 1110.68 747.793 1109.41 Q749.818 1108.11 749.818 1105.76 Q749.818 1103.59 748.343 1102.44 Q746.896 1101.28 741.948 1100.21 L740.096 1099.77 Q735.148 1098.73 732.949 1096.59 Q730.75 1094.42 730.75 1090.66 Q730.75 1086.09 733.991 1083.6 Q737.232 1081.11 743.192 1081.11 Q746.144 1081.11 748.748 1081.55 Q751.352 1081.98 753.551 1082.85 Z" fill="#000000" fill-rule="nonzero" fill-opacity="1" /><polyline clip-path="url(#clip580)" style="stroke:#000000; stroke-linecap:round; stroke-linejoin:round; stroke-width:4; stroke-opacity:1; fill:none" points="250.556,994.16 250.556,47.2441 "/>
<polyline clip-path="url(#clip580)" style="stroke:#000000; stroke-linecap:round; stroke-linejoin:round; stroke-width:4; stroke-opacity:1; fill:none" points="1152.76,994.16 1152.76,47.2441 "/>
<polyline clip-path="url(#clip580)" style="stroke:#000000; stroke-linecap:round; stroke-linejoin:round; stroke-width:4; stroke-opacity:1; fill:none" points="250.556,994.16 269.454,994.16 "/>
<polyline clip-path="url(#clip580)" style="stroke:#000000; stroke-linecap:round; stroke-linejoin:round; stroke-width:4; stroke-opacity:1; fill:none" points="250.556,804.777 269.454,804.777 "/>
<polyline clip-path="url(#clip580)" style="stroke:#000000; stroke-linecap:round; stroke-linejoin:round; stroke-width:4; stroke-opacity:1; fill:none" points="250.556,615.394 269.454,615.394 "/>
<polyline clip-path="url(#clip580)" style="stroke:#000000; stroke-linecap:round; stroke-linejoin:round; stroke-width:4; stroke-opacity:1; fill:none" points="250.556,426.011 269.454,426.011 "/>
<polyline clip-path="url(#clip580)" style="stroke:#000000; stroke-linecap:round; stroke-linejoin:round; stroke-width:4; stroke-opacity:1; fill:none" points="250.556,236.627 269.454,236.627 "/>
<polyline clip-path="url(#clip580)" style="stroke:#000000; stroke-linecap:round; stroke-linejoin:round; stroke-width:4; stroke-opacity:1; fill:none" points="250.556,47.2441 269.454,47.2441 "/>
<polyline clip-path="url(#clip580)" style="stroke:#000000; stroke-linecap:round; stroke-linejoin:round; stroke-width:4; stroke-opacity:1; fill:none" points="1152.76,994.16 1133.86,994.16 "/>
<polyline clip-path="url(#clip580)" style="stroke:#000000; stroke-linecap:round; stroke-linejoin:round; stroke-width:4; stroke-opacity:1; fill:none" points="1152.76,804.777 1133.86,804.777 "/>
<polyline clip-path="url(#clip580)" style="stroke:#000000; stroke-linecap:round; stroke-linejoin:round; stroke-width:4; stroke-opacity:1; fill:none" points="1152.76,615.394 1133.86,615.394 "/>
<polyline clip-path="url(#clip580)" style="stroke:#000000; stroke-linecap:round; stroke-linejoin:round; stroke-width:4; stroke-opacity:1; fill:none" points="1152.76,426.011 1133.86,426.011 "/>
<polyline clip-path="url(#clip580)" style="stroke:#000000; stroke-linecap:round; stroke-linejoin:round; stroke-width:4; stroke-opacity:1; fill:none" points="1152.76,236.627 1133.86,236.627 "/>
<polyline clip-path="url(#clip580)" style="stroke:#000000; stroke-linecap:round; stroke-linejoin:round; stroke-width:4; stroke-opacity:1; fill:none" points="1152.76,47.2441 1133.86,47.2441 "/>
<g clip-path="url(#clip580)">
<text style="fill:#000000; fill-opacity:1; font-family:Arial,Helvetica Neue,Helvetica,sans-serif; font-size:48px; text-anchor:middle;" transform="rotate(0, 185.048, 1011.66)" x="185.048" y="1011.66">-0.4</text>
</g>
<g clip-path="url(#clip580)">
<text style="fill:#000000; fill-opacity:1; font-family:Arial,Helvetica Neue,Helvetica,sans-serif; font-size:48px; text-anchor:middle;" transform="rotate(0, 185.048, 822.277)" x="185.048" y="822.277">-0.3</text>
</g>
<g clip-path="url(#clip580)">
<text style="fill:#000000; fill-opacity:1; font-family:Arial,Helvetica Neue,Helvetica,sans-serif; font-size:48px; text-anchor:middle;" transform="rotate(0, 185.048, 632.894)" x="185.048" y="632.894">-0.2</text>
</g>
<g clip-path="url(#clip580)">
<text style="fill:#000000; fill-opacity:1; font-family:Arial,Helvetica Neue,Helvetica,sans-serif; font-size:48px; text-anchor:middle;" transform="rotate(0, 185.048, 443.511)" x="185.048" y="443.511">-0.1</text>
</g>
<g clip-path="url(#clip580)">
<text style="fill:#000000; fill-opacity:1; font-family:Arial,Helvetica Neue,Helvetica,sans-serif; font-size:48px; text-anchor:middle;" transform="rotate(0, 199.103, 254.127)" x="199.103" y="254.127">0.0</text>
</g>
<g clip-path="url(#clip580)">
<text style="fill:#000000; fill-opacity:1; font-family:Arial,Helvetica Neue,Helvetica,sans-serif; font-size:48px; text-anchor:middle;" transform="rotate(0, 199.103, 64.7441)" x="199.103" y="64.7441">0.1</text>
</g>
<path clip-path="url(#clip580)" d="M107.882 651.943 Q107.648 651.943 106.126 651.153 Q104.574 650.362 99.0403 647.581 Q93.4774 644.799 87.6511 641.93 L66.8637 631.595 Q65.5462 630.863 65.5462 629.926 Q65.5462 629.077 66.0732 628.696 Q66.6002 628.316 70.1428 626.559 Q71.8702 625.651 72.9828 625.124 L106.916 608.172 Q107.648 607.88 107.882 607.85 Q108.468 607.85 108.468 608.875 L108.468 650.362 Q108.468 651.943 107.882 651.943 M103.9 647.991 L103.9 615.726 L71.5189 631.858 L103.9 647.991 Z" fill="#000000" fill-rule="nonzero" fill-opacity="1" /><path clip-path="url(#clip580)" d="M70.3185 572.366 Q71.9288 572.366 72.9243 573.391 Q73.9197 574.387 73.9197 575.646 Q73.9197 576.553 73.3634 577.227 Q72.8071 577.871 71.841 577.871 Q70.8455 577.871 69.7915 577.109 Q68.7375 576.348 68.5911 574.621 Q67.5078 575.763 67.5078 577.578 Q67.5078 578.486 68.0934 579.247 Q68.6497 579.979 69.5573 580.389 Q70.4942 580.828 75.7935 581.823 Q77.5209 582.145 79.1898 582.438 Q80.8586 582.731 82.6153 583.082 L82.6153 578.105 Q82.6153 577.461 82.6446 577.197 Q82.6738 576.934 82.8202 576.729 Q82.9666 576.495 83.2887 576.495 Q84.1085 576.495 84.3134 576.875 Q84.4891 577.227 84.4891 578.281 L84.4891 583.434 L103.491 587.035 Q104.047 587.123 105.804 587.503 Q107.531 587.855 110.371 588.704 Q113.24 589.553 114.938 590.402 Q115.904 590.87 116.812 591.485 Q117.749 592.071 118.686 592.92 Q119.623 593.769 120.179 594.881 Q120.765 595.994 120.765 597.165 Q120.765 599.156 119.652 600.708 Q118.539 602.259 116.636 602.259 Q115.026 602.259 114.031 601.264 Q113.035 600.239 113.035 598.98 Q113.035 598.073 113.591 597.428 Q114.148 596.755 115.114 596.755 Q115.524 596.755 115.992 596.901 Q116.461 597.048 116.988 597.37 Q117.544 597.692 117.925 598.395 Q118.305 599.097 118.364 600.063 Q119.447 598.922 119.447 597.165 Q119.447 596.609 119.213 596.111 Q119.008 595.613 118.481 595.203 Q117.954 594.764 117.427 594.442 Q116.929 594.12 115.963 593.798 Q115.026 593.476 114.323 593.271 Q113.621 593.066 112.362 592.803 Q111.103 592.51 110.342 592.363 Q109.61 592.217 108.175 591.953 L84.4891 587.474 L84.4891 591.426 Q84.4891 592.129 84.4598 592.422 Q84.4305 592.685 84.2841 592.89 Q84.1085 593.095 83.7571 593.095 Q83.2009 593.095 82.9666 592.861 Q82.7031 592.598 82.6738 592.305 Q82.6153 592.012 82.6153 591.309 L82.6153 587.152 Q75.2079 585.747 73.217 585.19 Q71.109 584.546 69.6451 583.551 Q68.1519 582.555 67.4493 581.443 Q66.7466 580.33 66.4831 579.422 Q66.1903 578.486 66.1903 577.578 Q66.1903 575.528 67.3029 573.947 Q68.3862 572.366 70.3185 572.366 Z" fill="#000000" fill-rule="nonzero" fill-opacity="1" /><path clip-path="url(#clip580)" d="M93.4774 564.293 Q83.3472 564.293 75.1787 560.516 Q71.7531 558.906 68.8839 556.651 Q66.0146 554.397 64.7557 552.904 Q63.4967 551.411 63.4967 551.001 Q63.4967 550.415 64.0823 550.386 Q64.3751 550.386 65.107 551.176 Q74.9444 560.838 93.4774 560.809 Q112.069 560.809 121.526 551.411 Q122.551 550.386 122.873 550.386 Q123.458 550.386 123.458 551.001 Q123.458 551.411 122.258 552.845 Q121.057 554.28 118.305 556.505 Q115.553 558.73 112.186 560.34 Q104.018 564.293 93.4774 564.293 Z" fill="#000000" fill-rule="nonzero" fill-opacity="1" /><path clip-path="url(#clip580)" d="M83.2887 527.412 Q84.1085 527.412 84.3134 527.792 Q84.4891 528.173 84.4891 529.227 L84.4891 534.848 L102.173 539.299 Q103.725 539.65 105.042 539.65 Q106.506 539.65 107.15 539.211 Q107.794 538.742 107.794 537.776 Q107.794 535.873 106.067 533.824 Q104.34 531.745 100.124 529.988 Q99.5673 529.754 99.4502 529.637 Q99.3038 529.49 99.3038 529.11 Q99.3038 528.378 99.8893 528.378 Q100.094 528.378 101.031 528.788 Q101.968 529.168 103.344 530.017 Q104.72 530.837 106.008 531.92 Q107.297 532.974 108.234 534.585 Q109.141 536.195 109.141 537.922 Q109.141 540.353 107.589 541.904 Q106.038 543.427 103.608 543.427 Q102.817 543.427 100.299 542.812 Q97.752 542.197 84.4891 538.859 L84.4891 544.159 Q84.4891 544.891 84.4598 545.183 Q84.4305 545.447 84.2841 545.652 Q84.1085 545.828 83.7571 545.828 Q83.2009 545.828 82.9666 545.593 Q82.7031 545.359 82.6738 545.066 Q82.6153 544.744 82.6153 544.012 L82.6153 538.391 L73.0999 536.049 Q72.163 535.814 71.636 535.229 Q71.0797 534.614 71.0212 534.263 Q70.9333 533.911 70.9333 533.648 Q70.9333 532.857 71.3725 532.389 Q71.7824 531.92 72.5436 531.92 Q72.9535 531.92 82.6153 534.38 L82.6153 529.11 Q82.6153 528.436 82.6446 528.173 Q82.6738 527.88 82.8202 527.646 Q82.9666 527.412 83.2887 527.412 Z" fill="#000000" fill-rule="nonzero" fill-opacity="1" /><path clip-path="url(#clip580)" d="M122.873 522.717 Q122.58 522.717 121.848 521.956 Q112.01 512.294 93.4774 512.294 Q74.8859 512.294 65.4876 521.575 Q64.4043 522.717 64.0823 522.717 Q63.4967 522.717 63.4967 522.131 Q63.4967 521.722 64.6971 520.287 Q65.8975 518.823 68.6497 516.627 Q71.4018 514.402 74.7688 512.762 Q82.9373 508.81 93.4774 508.81 Q103.608 508.81 111.776 512.587 Q115.202 514.197 118.071 516.452 Q120.94 518.706 122.199 520.199 Q123.458 521.692 123.458 522.131 Q123.458 522.717 122.873 522.717 Z" fill="#000000" fill-rule="nonzero" fill-opacity="1" /><path clip-path="url(#clip580)" d="M122.609 499.692 Q122.316 499.692 121.672 499.457 L65.107 478.289 Q65.0485 478.289 64.7264 478.143 Q64.4043 477.997 64.1994 477.909 Q63.9652 477.821 63.7895 477.645 Q63.6138 477.44 63.6138 477.206 Q63.6138 476.62 64.3458 476.62 Q64.4043 476.62 65.107 476.796 L121.731 498.023 Q122.756 498.374 123.048 498.608 Q123.341 498.813 123.341 499.165 Q123.341 499.692 122.609 499.692 Z" fill="#000000" fill-rule="nonzero" fill-opacity="1" /><path clip-path="url(#clip580)" d="M68.1812 419.521 Q69.0303 419.521 69.2059 419.901 Q69.3816 420.253 69.3816 421.541 Q69.3816 423.737 69.6744 424.732 Q69.9379 425.699 70.4063 425.991 Q70.8455 426.255 72.1337 426.577 L104.515 434.687 Q104.545 434.687 104.954 434.775 Q105.335 434.863 105.54 434.863 Q105.921 434.863 106.155 434.628 Q106.389 434.365 106.506 433.721 Q106.594 433.077 106.623 432.579 Q106.623 432.052 106.623 430.969 Q106.623 429.622 106.858 429.417 Q107.004 429.3 107.267 429.3 Q107.824 429.3 108.116 429.534 Q108.38 429.739 108.439 429.944 Q108.468 430.12 108.468 430.471 Q108.468 431.086 108.409 432.403 Q108.351 433.721 108.351 434.394 L108.292 438.23 L108.468 445.842 Q108.468 446.662 107.794 446.662 Q107.209 446.662 106.945 446.457 Q106.682 446.252 106.653 446.047 Q106.623 445.813 106.623 445.227 Q106.623 442.211 106.331 441.216 Q106.008 440.191 104.632 439.781 L88.0903 435.653 L88.0903 453.923 L104.515 458.022 Q104.545 458.022 104.954 458.109 Q105.335 458.197 105.54 458.197 Q105.921 458.197 106.155 457.963 Q106.389 457.699 106.506 457.055 Q106.594 456.411 106.623 455.914 Q106.623 455.387 106.623 454.303 Q106.623 452.956 106.858 452.722 Q107.004 452.605 107.267 452.605 Q107.677 452.605 107.97 452.722 Q108.234 452.81 108.321 453.044 Q108.409 453.249 108.439 453.396 Q108.468 453.542 108.468 453.805 Q108.468 454.42 108.409 455.738 Q108.351 457.026 108.351 457.699 L108.292 461.535 L108.468 469.147 Q108.468 469.996 107.794 469.996 Q107.209 469.996 106.975 469.791 Q106.711 469.586 106.682 469.323 Q106.623 469.059 106.623 468.386 Q106.623 466.922 106.535 466.044 Q106.448 465.165 106.331 464.609 Q106.184 464.024 105.774 463.731 Q105.364 463.409 105.013 463.262 Q104.632 463.116 103.783 462.911 L71.5775 454.889 Q70.6113 454.655 70.4649 454.655 Q69.9086 454.655 69.7622 455.006 Q69.5866 455.328 69.4987 456.265 L69.3816 458.549 Q69.3816 459.251 69.3523 459.544 Q69.3231 459.807 69.1767 460.012 Q69.0303 460.217 68.7082 460.217 Q68.2983 460.217 68.0348 460.13 Q67.742 460.012 67.6542 459.807 Q67.5664 459.603 67.5371 459.456 Q67.5078 459.31 67.5078 459.076 L67.6835 451.346 L67.5078 443.675 Q67.5078 442.826 68.1812 442.826 Q69.0303 442.826 69.2059 443.207 Q69.3816 443.587 69.3816 444.876 Q69.3816 447.013 69.6744 448.008 Q69.9379 449.004 70.4063 449.326 Q70.8748 449.619 72.1337 449.912 L86.2165 453.454 L86.2165 435.155 L71.5775 431.554 Q70.5235 431.32 70.4649 431.32 Q69.9086 431.32 69.7622 431.671 Q69.5866 431.993 69.4987 432.93 L69.3816 435.214 Q69.3816 435.917 69.3523 436.209 Q69.3231 436.473 69.1767 436.707 Q69.0303 436.912 68.7082 436.912 Q68.2983 436.912 68.0348 436.824 Q67.742 436.707 67.6542 436.502 Q67.5664 436.297 67.5371 436.151 Q67.5078 436.004 67.5078 435.77 L67.6835 428.041 L67.5078 420.341 Q67.5078 419.521 68.1812 419.521 Z" fill="#000000" fill-rule="nonzero" fill-opacity="1" /><path clip-path="url(#clip580)" d="M82.5567 391.655 Q82.7617 391.655 83.64 392.153 Q84.4891 392.621 86.6264 394.349 Q88.7637 396.076 91.2523 398.652 Q92.2185 399.619 93.5653 401.083 Q94.9121 402.546 95.7904 403.542 L96.6688 404.537 Q99.8893 408.344 103.491 411.681 Q103.403 411.447 103.373 411.037 Q103.315 410.627 103.315 410.334 L103.315 410.042 Q103.315 408.519 104.34 405.855 Q105.101 403.513 105.101 402.312 Q105.101 401.141 104.691 399.853 Q104.281 398.565 103.081 397.159 Q101.88 395.754 100.065 395.11 Q99.7722 394.993 99.6844 394.934 Q99.5673 394.876 99.4502 394.7 Q99.3038 394.524 99.3038 394.29 Q99.3038 393.968 99.4795 393.763 Q99.6551 393.558 99.8893 393.558 Q100.416 393.558 101.47 393.968 Q102.524 394.349 103.842 395.198 Q105.159 396.017 106.36 397.101 Q107.531 398.155 108.351 399.736 Q109.141 401.317 109.141 402.986 Q109.141 404.186 108.556 405.064 Q107.999 405.943 106.916 406.821 Q105.54 408.021 105.101 408.666 Q104.632 409.31 104.632 410.305 Q104.632 412.969 108.351 415.4 Q108.878 415.663 108.995 415.839 Q109.141 415.985 109.141 416.336 Q109.112 417.068 108.526 417.068 Q108.292 417.068 107.267 416.424 Q106.213 415.751 104.369 414.258 Q102.524 412.735 100.68 410.891 L95.644 405.504 Q90.6082 399.531 87.7682 397.159 Q87.7682 398.155 87.739 398.594 Q87.7097 399.004 87.534 399.824 Q87.3291 400.643 86.8899 401.785 Q85.9823 404.45 85.9823 405.562 Q85.9823 405.855 86.0115 406.177 Q86.0408 406.499 86.1872 407.231 Q86.3336 407.934 86.6264 408.519 Q86.8899 409.105 87.4754 409.72 Q88.0317 410.334 88.793 410.656 Q89.0272 410.744 89.1443 410.803 Q89.2614 410.861 89.3785 411.037 Q89.4664 411.184 89.4664 411.418 Q89.4664 411.769 89.2614 411.974 Q89.0565 412.15 88.793 412.15 Q88.266 412.15 87.1827 411.623 Q86.0994 411.096 84.9283 410.217 Q83.7279 409.339 82.8495 407.904 Q81.9712 406.47 81.9712 404.889 Q81.9712 403.952 82.3811 403.161 Q82.791 402.342 83.2301 401.932 Q83.64 401.492 84.5476 400.761 Q85.2503 400.146 85.5431 399.853 Q85.8359 399.56 86.1579 398.975 Q86.4507 398.36 86.4507 397.686 Q86.4507 396.574 85.6017 395.549 Q84.7233 394.524 82.6153 393.207 Q81.9712 392.855 81.9712 392.299 Q81.9712 391.655 82.5567 391.655 Z" fill="#000000" fill-rule="nonzero" fill-opacity="1" /><polyline clip-path="url(#clip582)" style="stroke:#1a80bb; stroke-linecap:round; stroke-linejoin:round; stroke-width:12; stroke-opacity:0.75; fill:none" points="250.556,236.627 252.06,265.856 253.563,294.344 255.067,321.916 256.571,348.586 258.074,374.371 259.578,399.285 261.082,423.343 262.585,446.562 264.089,468.955 265.593,490.539 267.096,511.328 268.6,531.338 270.104,550.585 271.607,569.082 273.111,586.846 274.615,603.891 276.118,620.233 277.622,635.885 279.126,650.864 280.629,665.184 282.133,678.86 283.637,691.905 285.14,704.335 286.644,716.164 288.148,727.406 289.651,738.076 291.155,748.186 292.659,757.751 294.162,766.785 295.666,775.302 297.17,783.313 298.673,790.834 300.177,797.877 301.681,804.454 303.184,810.579 304.688,816.264 306.192,821.522 307.695,826.365 309.199,830.805 310.703,834.854 312.206,838.523 313.71,841.825 315.214,844.771 316.717,847.371 318.221,849.638 319.725,851.581 321.228,853.212 322.732,854.541 324.236,855.578 325.739,856.333 327.243,856.817 328.747,857.039 330.25,857.009 331.754,856.736 333.258,856.229 334.761,855.498 336.265,854.551 337.769,853.396 339.272,852.044 340.776,850.501 342.28,848.775 343.783,846.876 345.287,844.81 346.791,842.586 348.294,840.21 349.798,837.69 351.302,835.032 352.805,832.245 354.309,829.335 355.813,826.308 357.316,823.17 358.82,819.928 360.324,816.589 361.827,813.157 363.331,809.639 364.835,806.041 366.338,802.367 367.842,798.624 369.346,794.816 370.849,790.948 372.353,787.025 373.857,783.053 375.36,779.035 376.864,774.976 378.368,770.88 379.871,766.752 381.375,762.596 382.879,758.415 384.382,754.213 385.886,749.994 387.39,745.762 388.893,741.519 390.397,737.27 391.901,733.017 393.404,728.763 394.908,724.512 396.412,720.266 397.915,716.028 399.419,711.8 400.923,707.586 402.426,703.387 403.93,699.205 405.434,695.044 406.937,690.905 408.441,686.79 409.945,682.701 411.448,678.64 412.952,674.608 414.456,670.608 415.959,666.641 417.463,662.708 418.967,658.812 420.47,654.952 421.974,651.131 423.478,647.349 424.981,643.609 426.485,639.91 427.989,636.254 429.492,632.642 430.996,629.074 432.5,625.552 434.003,622.076 435.507,618.646 437.011,615.265 438.514,611.931 440.018,608.646 441.522,605.409 443.025,602.222 444.529,599.085 446.033,595.998 447.536,592.961 449.04,589.975 450.544,587.039 452.047,584.154 453.551,581.32 455.055,578.537 456.558,575.805 458.062,573.124 459.566,570.494 461.069,567.915 462.573,565.387 464.077,562.909 465.58,560.481 467.084,558.104 468.588,555.777 470.091,553.499 471.595,551.271 473.099,549.092 474.602,546.962 476.106,544.88 477.61,542.846 479.113,540.86 480.617,538.921 482.121,537.03 483.624,535.184 485.128,533.385 486.632,531.63 488.135,529.921 489.639,528.257 491.143,526.636 492.646,525.059 494.15,523.525 495.654,522.034 497.157,520.584 498.661,519.175 500.165,517.807 501.668,516.48 503.172,515.192 504.676,513.942 506.179,512.732 507.683,511.559 509.187,510.423 510.69,509.324 512.194,508.261 513.698,507.233 515.201,506.24 516.705,505.281 518.209,504.356 519.712,503.464 521.216,502.604 522.72,501.776 524.223,500.979 525.727,500.212 527.231,499.476 528.734,498.768 530.238,498.09 531.742,497.439 533.245,496.816 534.749,496.22 536.253,495.65 537.756,495.106 539.26,494.587 540.764,494.092 542.267,493.622 543.771,493.175 545.275,492.75 546.778,492.349 548.282,491.968 549.786,491.61 551.289,491.271 552.793,490.953 554.297,490.655 555.8,490.375 557.304,490.114 558.808,489.871 560.311,489.646 561.815,489.438 563.319,489.246 564.822,489.07 566.326,488.91 567.83,488.765 569.333,488.635 570.837,488.519 572.341,488.417 573.844,488.328 575.348,488.252 576.852,488.188 578.355,488.136 579.859,488.096 581.363,488.068 582.866,488.05 584.37,488.042 585.874,488.045 587.377,488.057 588.881,488.078 590.385,488.109 591.888,488.148 593.392,488.195 594.896,488.25 596.399,488.313 597.903,488.383 599.407,488.46 600.91,488.544 602.414,488.634 603.918,488.73 605.421,488.831 606.925,488.938 608.429,489.051 609.932,489.168 611.436,489.29 612.94,489.416 614.443,489.546 615.947,489.68 617.451,489.818 618.954,489.96 620.458,490.104 621.962,490.252 623.465,490.402 624.969,490.555 626.473,490.71 627.976,490.867 629.48,491.026 630.984,491.188 632.487,491.35 633.991,491.514 635.495,491.68 636.998,491.846 638.502,492.014 640.006,492.182 641.509,492.351 643.013,492.521 644.517,492.691 646.02,492.861 647.524,493.031 649.028,493.202 650.531,493.372 652.035,493.542 653.539,493.711 655.042,493.881 656.546,494.049 658.05,494.217 659.553,494.385 661.057,494.551 662.561,494.717 664.064,494.881 665.568,495.045 667.072,495.207 668.575,495.369 670.079,495.529 671.583,495.687 673.086,495.845 674.59,496 676.094,496.155 677.597,496.308 679.101,496.459 680.605,496.608 682.108,496.756 683.612,496.902 685.116,497.047 686.619,497.189 688.123,497.33 689.627,497.469 691.13,497.606 692.634,497.741 694.138,497.875 695.641,498.006 697.145,498.135 698.649,498.262 700.152,498.388 701.656,498.511 703.16,498.632 704.663,498.752 706.167,498.869 707.671,498.984 709.174,499.097 710.678,499.209 712.182,499.318 713.685,499.425 715.189,499.53 716.693,499.633 718.196,499.734 719.7,499.833 721.204,499.93 722.707,500.025 724.211,500.118 725.715,500.208 727.218,500.297 728.722,500.384 730.226,500.469 731.729,500.553 733.233,500.634 734.737,500.713 736.24,500.79 737.744,500.866 739.248,500.94 740.751,501.011 742.255,501.081 743.759,501.149 745.262,501.216 746.766,501.281 748.27,501.343 749.773,501.405 751.277,501.464 752.781,501.522 754.284,501.578 755.788,501.633 757.292,501.686 758.795,501.737 760.299,501.787 761.803,501.835 763.306,501.882 764.81,501.927 766.314,501.971 767.817,502.013 769.321,502.054 770.825,502.094 772.328,502.132 773.832,502.169 775.336,502.205 776.839,502.239 778.343,502.272 779.847,502.304 781.35,502.334 782.854,502.363 784.358,502.392 785.861,502.419 787.365,502.444 788.869,502.469 790.372,502.493 791.876,502.516 793.38,502.537 794.883,502.558 796.387,502.578 797.891,502.596 799.394,502.614 800.898,502.631 802.402,502.647 803.905,502.662 805.409,502.676 806.913,502.69 808.416,502.702 809.92,502.714 811.424,502.725 812.927,502.736 814.431,502.745 815.935,502.754 817.438,502.763 818.942,502.77 820.446,502.777 821.949,502.783 823.453,502.789 824.957,502.794 826.46,502.799 827.964,502.803 829.468,502.806 830.971,502.809 832.475,502.812 833.979,502.814 835.482,502.815 836.986,502.816 838.49,502.817 839.993,502.817 841.497,502.817 843.001,502.817 844.504,502.816 846.008,502.814 847.512,502.813 849.015,502.811 850.519,502.809 852.023,502.806 853.526,502.803 855.03,502.8 856.534,502.797 858.037,502.793 859.541,502.789 861.045,502.785 862.548,502.781 864.052,502.776 865.556,502.772 867.059,502.767 868.563,502.762 870.067,502.756 871.57,502.751 873.074,502.745 874.578,502.74 876.081,502.734 877.585,502.728 879.089,502.722 880.592,502.716 882.096,502.71 883.6,502.703 885.103,502.697 886.607,502.691 888.111,502.684 889.614,502.677 891.118,502.671 892.622,502.664 894.125,502.657 895.629,502.651 897.133,502.644 898.636,502.637 900.14,502.63 901.644,502.623 903.147,502.617 904.651,502.61 906.155,502.603 907.658,502.596 909.162,502.589 910.666,502.583 912.169,502.576 913.673,502.569 915.177,502.562 916.68,502.556 918.184,502.549 919.688,502.543 921.191,502.536 922.695,502.53 924.199,502.523 925.702,502.517 927.206,502.51 928.71,502.504 930.213,502.498 931.717,502.492 933.221,502.486 934.724,502.48 936.228,502.474 937.732,502.468 939.235,502.462 940.739,502.456 942.243,502.45 943.746,502.445 945.25,502.439 946.754,502.434 948.257,502.428 949.761,502.423 951.265,502.418 952.768,502.413 954.272,502.407 955.776,502.402 957.279,502.397 958.783,502.393 960.287,502.388 961.79,502.383 963.294,502.379 964.798,502.374 966.301,502.37 967.805,502.365 969.309,502.361 970.812,502.357 972.316,502.353 973.82,502.349 975.323,502.345 976.827,502.341 978.331,502.337 979.834,502.333 981.338,502.33 982.842,502.326 984.345,502.323 985.849,502.319 987.353,502.316 988.856,502.313 990.36,502.31 991.864,502.306 993.367,502.303 994.871,502.301 996.375,502.298 997.878,502.295 999.382,502.292 1000.89,502.289 1002.39,502.287 1003.89,502.284 1005.4,502.282 1006.9,502.28 1008.4,502.277 1009.91,502.275 1011.41,502.273 1012.91,502.271 1014.42,502.269 1015.92,502.267 1017.43,502.265 1018.93,502.263 1020.43,502.261 1021.94,502.259 1023.44,502.258 1024.94,502.256 1026.45,502.254 1027.95,502.253 1029.46,502.251 1030.96,502.25 1032.46,502.249 1033.97,502.247 1035.47,502.246 1036.97,502.245 1038.48,502.244 1039.98,502.243 1041.48,502.242 1042.99,502.241 1044.49,502.24 1046,502.239 1047.5,502.238 1049,502.237 1050.51,502.236 1052.01,502.235 1053.51,502.234 1055.02,502.234 1056.52,502.233 1058.02,502.232 1059.53,502.232 1061.03,502.231 1062.54,502.231 1064.04,502.23 1065.54,502.23 1067.05,502.229 1068.55,502.229 1070.05,502.229 1071.56,502.228 1073.06,502.228 1074.57,502.228 1076.07,502.227 1077.57,502.227 1079.08,502.227 1080.58,502.227 1082.08,502.226 1083.59,502.226 1085.09,502.226 1086.59,502.226 1088.1,502.226 1089.6,502.226 1091.11,502.226 1092.61,502.226 1094.11,502.226 1095.62,502.226 1097.12,502.226 1098.62,502.226 1100.13,502.226 1101.63,502.226 1103.13,502.226 1104.64,502.226 1106.14,502.226 1107.65,502.226 1109.15,502.226 1110.65,502.226 1112.16,502.227 1113.66,502.227 1115.16,502.227 1116.67,502.227 1118.17,502.227 1119.68,502.227 1121.18,502.228 1122.68,502.228 1124.19,502.228 1125.69,502.228 1127.19,502.228 1128.7,502.229 1130.2,502.229 1131.7,502.229 1133.21,502.229 1134.71,502.23 1136.22,502.23 1137.72,502.23 1139.22,502.23 1140.73,502.231 1142.23,502.231 1143.73,502.231 1145.24,502.231 1146.74,502.232 1148.24,502.232 1149.75,502.232 1151.25,502.232 1152.76,502.233 1154.26,502.233 1155.76,502.233 1157.27,502.234 1158.77,502.234 1160.27,502.234 1161.78,502.234 1163.28,502.235 1164.79,502.235 1166.29,502.235 1167.79,502.235 1169.3,502.236 1170.8,502.236 1172.3,502.236 1173.81,502.236 1175.31,502.237 1176.81,502.237 1178.32,502.237 1179.82,502.238 1181.33,502.238 1182.83,502.238 1184.33,502.238 1185.84,502.239 1187.34,502.239 1188.84,502.239 1190.35,502.239 1191.85,502.24 1193.35,502.24 1194.86,502.24 1196.36,502.24 1197.87,502.24 1199.37,502.241 1200.87,502.241 1202.38,502.241 1203.88,502.241 1205.38,502.242 1206.89,502.242 1208.39,502.242 1209.9,502.242 1211.4,502.242 1212.9,502.243 1214.41,502.243 1215.91,502.243 1217.41,502.243 1218.92,502.243 1220.42,502.243 1221.92,502.244 1223.43,502.244 1224.93,502.244 1226.44,502.244 1227.94,502.244 1229.44,502.245 1230.95,502.245 1232.45,502.245 1233.95,502.245 1235.46,502.245 1236.96,502.245 1238.46,502.245 1239.97,502.246 1241.47,502.246 1242.98,502.246 1244.48,502.246 1245.98,502.246 1247.49,502.246 1248.99,502.246 1250.49,502.246 1252,502.247 1253.5,502.247 1255.01,502.247 1256.51,502.247 1258.01,502.247 1259.52,502.247 1261.02,502.247 1262.52,502.247 1264.03,502.247 1265.53,502.247 1267.03,502.248 1268.54,502.248 1270.04,502.248 1271.55,502.248 1273.05,502.248 1274.55,502.248 1276.06,502.248 1277.56,502.248 1279.06,502.248 1280.57,502.248 1282.07,502.248 1283.57,502.248 1285.08,502.248 1286.58,502.248 1288.09,502.248 1289.59,502.249 1291.09,502.249 1292.6,502.249 1294.1,502.249 1295.6,502.249 1297.11,502.249 1298.61,502.249 1300.12,502.249 1301.62,502.249 1303.12,502.249 1304.63,502.249 1306.13,502.249 1307.63,502.249 1309.14,502.249 1310.64,502.249 1312.14,502.249 1313.65,502.249 1315.15,502.249 1316.66,502.249 1318.16,502.249 1319.66,502.249 1321.17,502.249 1322.67,502.249 1324.17,502.249 1325.68,502.249 1327.18,502.249 1328.68,502.249 1330.19,502.249 1331.69,502.249 1333.2,502.249 1334.7,502.249 1336.2,502.249 1337.71,502.249 1339.21,502.249 1340.71,502.249 1342.22,502.249 1343.72,502.249 1345.23,502.249 1346.73,502.249 1348.23,502.249 1349.74,502.249 1351.24,502.249 1352.74,502.249 1354.25,502.249 1355.75,502.249 1357.25,502.249 1358.76,502.249 1360.26,502.249 1361.77,502.249 1363.27,502.249 1364.77,502.249 1366.28,502.249 1367.78,502.249 1369.28,502.249 1370.79,502.249 1372.29,502.249 1373.79,502.249 1375.3,502.249 1376.8,502.249 1378.31,502.249 1379.81,502.249 1381.31,502.249 1382.82,502.249 1384.32,502.249 1385.82,502.249 1387.33,502.249 1388.83,502.249 1390.34,502.249 1391.84,502.249 1393.34,502.249 1394.85,502.249 1396.35,502.249 1397.85,502.249 1399.36,502.249 1400.86,502.249 1402.36,502.249 1403.87,502.249 1405.37,502.249 1406.88,502.249 1408.38,502.249 1409.88,502.249 1411.39,502.249 1412.89,502.249 1414.39,502.249 1415.9,502.249 1417.4,502.249 1418.9,502.249 1420.41,502.249 1421.91,502.249 1423.42,502.249 1424.92,502.249 1426.42,502.249 1427.93,502.249 1429.43,502.249 1430.93,502.249 1432.44,502.249 1433.94,502.249 1435.45,502.249 1436.95,502.249 1438.45,502.249 1439.96,502.249 1441.46,502.249 1442.96,502.249 1444.47,502.249 1445.97,502.249 1447.47,502.249 1448.98,502.249 1450.48,502.249 1451.99,502.249 1453.49,502.249 1454.99,502.249 1456.5,502.249 1458,502.249 1459.5,502.249 1461.01,502.249 1462.51,502.249 1464.01,502.249 1465.52,502.249 1467.02,502.249 1468.53,502.249 1470.03,502.249 1471.53,502.249 1473.04,502.249 1474.54,502.249 1476.04,502.249 1477.55,502.249 1479.05,502.249 1480.56,502.249 1482.06,502.249 1483.56,502.249 1485.07,502.249 1486.57,502.249 1488.07,502.249 1489.58,502.249 1491.08,502.249 1492.58,502.249 1494.09,502.249 1495.59,502.249 1497.1,502.249 1498.6,502.249 1500.1,502.249 1501.61,502.249 1503.11,502.249 1504.61,502.249 1506.12,502.249 1507.62,502.249 1509.12,502.249 1510.63,502.249 1512.13,502.249 1513.64,502.249 1515.14,502.249 1516.64,502.249 1518.15,502.249 1519.65,502.249 1521.15,502.249 1522.66,502.249 1524.16,502.249 1525.67,502.249 1527.17,502.249 1528.67,502.249 1530.18,502.249 1531.68,502.249 1533.18,502.249 1534.69,502.249 1536.19,502.249 1537.69,502.249 1539.2,502.249 1540.7,502.249 1542.21,502.249 1543.71,502.248 1545.21,502.248 1546.72,502.248 1548.22,502.248 1549.72,502.248 1551.23,502.248 1552.73,502.248 1554.23,502.248 1555.74,502.248 1557.24,502.248 1558.75,502.248 1560.25,502.248 1561.75,502.248 1563.26,502.248 1564.76,502.248 1566.26,502.248 1567.77,502.248 1569.27,502.248 1570.78,502.248 1572.28,502.248 1573.78,502.248 1575.29,502.248 1576.79,502.248 1578.29,502.248 1579.8,502.248 1581.3,502.248 1582.8,502.248 1584.31,502.248 1585.81,502.248 1587.32,502.248 1588.82,502.248 1590.32,502.248 1591.83,502.248 1593.33,502.248 1594.83,502.248 1596.34,502.248 1597.84,502.248 1599.34,502.248 1600.85,502.248 1602.35,502.248 1603.86,502.248 1605.36,502.248 1606.86,502.248 1608.37,502.248 1609.87,502.248 1611.37,502.248 1612.88,502.248 1614.38,502.248 1615.89,502.248 1617.39,502.248 1618.89,502.248 1620.4,502.248 1621.9,502.248 1623.4,502.248 1624.91,502.248 1626.41,502.248 1627.91,502.248 1629.42,502.248 1630.92,502.248 1632.43,502.248 1633.93,502.248 1635.43,502.248 1636.94,502.248 1638.44,502.248 1639.94,502.248 1641.45,502.248 1642.95,502.248 1644.45,502.248 1645.96,502.248 1647.46,502.248 1648.97,502.248 1650.47,502.248 1651.97,502.248 1653.48,502.248 1654.98,502.248 1656.48,502.248 1657.99,502.248 1659.49,502.248 1661,502.248 1662.5,502.248 1664,502.248 1665.51,502.248 1667.01,502.248 1668.51,502.248 1670.02,502.248 1671.52,502.248 1673.02,502.248 1674.53,502.248 1676.03,502.248 1677.54,502.248 1679.04,502.248 1680.54,502.248 1682.05,502.248 1683.55,502.248 1685.05,502.248 1686.56,502.248 1688.06,502.248 1689.56,502.248 1691.07,502.248 1692.57,502.248 1694.08,502.248 1695.58,502.248 1697.08,502.248 1698.59,502.248 1700.09,502.248 1701.59,502.248 1703.1,502.248 1704.6,502.248 1706.11,502.248 1707.61,502.248 1709.11,502.248 1710.62,502.248 1712.12,502.248 1713.62,502.248 1715.13,502.248 1716.63,502.248 1718.13,502.248 1719.64,502.248 1721.14,502.248 1722.65,502.248 1724.15,502.248 1725.65,502.248 1727.16,502.248 1728.66,502.248 1730.16,502.248 1731.67,502.248 1733.17,502.248 1734.67,502.248 1736.18,502.248 1737.68,502.248 1739.19,502.248 1740.69,502.248 1742.19,502.248 1743.7,502.248 1745.2,502.248 1746.7,502.248 1748.21,502.248 1749.71,502.248 1751.22,502.248 1752.72,502.248 1754.22,502.248 1755.73,502.248 1757.23,502.248 1758.73,502.248 1760.24,502.248 1761.74,502.248 1763.24,502.248 1764.75,502.248 1766.25,502.248 1767.76,502.248 1769.26,502.248 1770.76,502.248 1772.27,502.248 1773.77,502.248 1775.27,502.248 1776.78,502.248 1778.28,502.248 1779.78,502.248 1781.29,502.248 1782.79,502.248 1784.3,502.248 1785.8,502.248 1787.3,502.248 1788.81,502.248 1790.31,502.248 1791.81,502.248 1793.32,502.248 1794.82,502.248 1796.33,502.248 1797.83,502.248 1799.33,502.248 1800.84,502.248 1802.34,502.248 1803.84,502.248 1805.35,502.248 1806.85,502.248 1808.35,502.248 1809.86,502.248 1811.36,502.248 1812.87,502.248 1814.37,502.248 1815.87,502.248 1817.38,502.248 1818.88,502.248 1820.38,502.248 1821.89,502.248 1823.39,502.248 1824.89,502.248 1826.4,502.248 1827.9,502.248 1829.41,502.248 1830.91,502.248 1832.41,502.248 1833.92,502.248 1835.42,502.248 1836.92,502.248 1838.43,502.248 1839.93,502.248 1841.44,502.248 1842.94,502.248 1844.44,502.248 1845.95,502.248 1847.45,502.248 1848.95,502.248 1850.46,502.248 1851.96,502.248 1853.46,502.248 1854.97,502.248 1856.47,502.248 1857.98,502.248 1859.48,502.248 1860.98,502.248 1862.49,502.248 1863.99,502.248 1865.49,502.248 1867,502.248 1868.5,502.248 1870,502.248 1871.51,502.248 1873.01,502.248 1874.52,502.248 1876.02,502.248 1877.52,502.248 1879.03,502.248 1880.53,502.248 1882.03,502.248 1883.54,502.248 1885.04,502.248 1886.55,502.248 1888.05,502.248 1889.55,502.248 1891.06,502.248 1892.56,502.248 1894.06,502.248 1895.57,502.248 1897.07,502.248 1898.57,502.248 1900.08,502.248 1901.58,502.248 1903.09,502.248 1904.59,502.248 1906.09,502.248 1907.6,502.248 1909.1,502.248 1910.6,502.248 1912.11,502.248 1913.61,502.248 1915.11,502.248 1916.62,502.248 1918.12,502.248 1919.63,502.248 1921.13,502.248 1922.63,502.248 1924.14,502.248 1925.64,502.248 1927.14,502.248 1928.65,502.248 1930.15,502.248 1931.66,502.248 1933.16,502.248 1934.66,502.248 1936.17,502.248 1937.67,502.248 1939.17,502.248 1940.68,502.248 1942.18,502.248 1943.68,502.248 1945.19,502.248 1946.69,502.248 1948.2,502.248 1949.7,502.248 1951.2,502.248 1952.71,502.248 1954.21,502.248 1955.71,502.248 1957.22,502.248 1958.72,502.248 1960.22,502.248 1961.73,502.248 1963.23,502.248 1964.74,502.248 1966.24,502.248 1967.74,502.248 1969.25,502.248 1970.75,502.248 1972.25,502.248 1973.76,502.248 1975.26,502.248 1976.77,502.248 1978.27,502.248 1979.77,502.248 1981.28,502.248 1982.78,502.248 1984.28,502.248 1985.79,502.248 1987.29,502.248 1988.79,502.248 1990.3,502.248 1991.8,502.248 1993.31,502.248 1994.81,502.248 1996.31,502.248 1997.82,502.248 1999.32,502.248 2000.82,502.248 2002.33,502.248 2003.83,502.248 2005.33,502.248 2006.84,502.248 2008.34,502.248 2009.85,502.248 2011.35,502.248 2012.85,502.248 2014.36,502.248 2015.86,502.248 2017.36,502.248 2018.87,502.248 2020.37,502.248 2021.88,502.248 2023.38,502.248 2024.88,502.248 2026.39,502.248 2027.89,502.248 2029.39,502.248 2030.9,502.248 2032.4,502.248 2033.9,502.248 2035.41,502.248 2036.91,502.248 2038.42,502.248 2039.92,502.248 2041.42,502.248 2042.93,502.248 2044.43,502.248 2045.93,502.248 2047.44,502.248 2048.94,502.248 2050.44,502.248 2051.95,502.248 2053.45,502.248 2054.96,502.248 "/>
<polyline clip-path="url(#clip582)" style="stroke:#a00000; stroke-linecap:round; stroke-linejoin:round; stroke-width:12; stroke-opacity:0.5; fill:none" points="250.556,236.627 252.06,265.886 253.563,294.331 255.067,321.645 256.571,347.881 258.074,373.264 259.578,397.64 261.082,421.088 262.585,443.692 264.089,465.358 265.593,486.035 267.096,505.983 268.6,525.005 270.104,543.256 271.607,560.694 273.111,577.454 274.615,593.376 276.118,608.593 277.622,623.054 279.126,636.774 280.629,650.007 282.133,662.564 283.637,674.536 285.14,685.879 286.644,696.563 288.148,706.855 289.651,716.551 291.155,725.637 292.659,734.019 294.162,741.931 295.666,749.31 297.17,756.337 298.673,762.8 300.177,768.921 301.681,774.463 303.184,779.543 304.688,784.306 306.192,788.724 307.695,792.775 309.199,796.414 310.703,799.504 312.206,802.235 313.71,804.714 315.214,806.91 316.717,808.84 318.221,810.535 319.725,811.862 321.228,812.765 322.732,813.505 324.236,814.008 325.739,814.07 327.243,813.926 328.747,813.716 330.25,813.315 331.754,812.764 333.258,812.012 334.761,811.007 336.265,809.841 337.769,808.626 339.272,807.067 340.776,805.368 342.28,803.499 343.783,801.452 345.287,799.342 346.791,797.085 348.294,794.633 349.798,792.278 351.302,789.711 352.805,787.057 354.309,784.261 355.813,781.321 357.316,778.414 358.82,775.445 360.324,772.337 361.827,769.118 363.331,765.864 364.835,762.569 366.338,759.295 367.842,756.053 369.346,752.689 370.849,749.381 372.353,745.938 373.857,742.504 375.36,739.257 376.864,735.877 378.368,732.418 379.871,729.001 381.375,725.51 382.879,721.98 384.382,718.408 385.886,714.848 387.39,711.22 388.893,707.593 390.397,703.96 391.901,700.343 393.404,696.694 394.908,693.088 396.412,689.518 397.915,685.854 399.419,682.286 400.923,678.821 402.426,675.285 403.93,671.837 405.434,668.32 406.937,664.957 408.441,661.373 409.945,658.101 411.448,654.688 412.952,651.16 414.456,647.736 415.959,644.395 417.463,641.22 418.967,638.021 420.47,634.842 421.974,631.676 423.478,628.36 424.981,625.319 426.485,622.089 427.989,618.822 429.492,615.58 430.996,612.34 432.5,609.201 434.003,606.075 435.507,603.005 437.011,600.052 438.514,597.25 440.018,594.449 441.522,591.59 443.025,588.977 444.529,586.271 446.033,583.621 447.536,581.11 449.04,578.313 450.544,575.758 452.047,573.224 453.551,570.517 455.055,567.843 456.558,565.516 458.062,563.023 459.566,560.761 461.069,558.385 462.573,556.184 464.077,553.843 465.58,551.527 467.084,549.48 468.588,547.572 470.091,545.846 471.595,543.931 473.099,542.101 474.602,540.243 476.106,538.482 477.61,536.897 479.113,535.255 480.617,533.789 482.121,532.367 483.624,530.94 485.128,529.52 486.632,528.075 488.135,526.661 489.639,525.417 491.143,524.12 492.646,522.742 494.15,521.603 495.654,520.318 497.157,519.004 498.661,517.892 500.165,516.754 501.668,515.371 503.172,514.164 504.676,513.024 506.179,511.803 507.683,510.742 509.187,509.643 510.69,508.549 512.194,507.496 513.698,506.383 515.201,505.508 516.705,504.566 518.209,503.781 519.712,502.903 521.216,502.234 522.72,501.486 524.223,500.707 525.727,499.961 527.231,499.211 528.734,498.675 530.238,498.01 531.742,497.17 533.245,496.616 534.749,496.128 536.253,495.494 537.756,494.88 539.26,494.344 540.764,493.761 542.267,493.369 543.771,493.052 545.275,492.54 546.778,492.076 548.282,491.758 549.786,491.365 551.289,490.955 552.793,490.526 554.297,490.054 555.8,489.65 557.304,489.297 558.808,488.836 560.311,488.594 561.815,488.324 563.319,488.019 564.822,487.606 566.326,487.144 567.83,486.677 569.333,486.399 570.837,486.117 572.341,485.826 573.844,485.488 575.348,485.214 576.852,485.062 578.355,485.004 579.859,484.878 581.363,484.861 582.866,484.801 584.37,484.81 585.874,484.767 587.377,484.589 588.881,484.748 590.385,484.802 591.888,484.735 593.392,484.786 594.896,484.928 596.399,484.815 597.903,484.949 599.407,484.975 600.91,484.999 602.414,484.906 603.918,485.119 605.421,485.323 606.925,485.623 608.429,485.61 609.932,485.918 611.436,486.254 612.94,486.673 614.443,486.797 615.947,486.984 617.451,486.967 618.954,487.062 620.458,487.588 621.962,487.928 623.465,488.172 624.969,488.292 626.473,488.24 627.976,488.344 629.48,488.518 630.984,488.472 632.487,488.69 633.991,488.869 635.495,489.208 636.998,489.767 638.502,490.198 640.006,490.493 641.509,490.868 643.013,491.207 644.517,491.277 646.02,491.476 647.524,491.978 649.028,492.374 650.531,492.486 652.035,492.642 653.539,492.855 655.042,492.919 656.546,493.002 658.05,493.169 659.553,493.332 661.057,493.415 662.561,493.542 664.064,493.651 665.568,493.652 667.072,493.82 668.575,494.073 670.079,494.02 671.583,493.843 673.086,493.424 674.59,493.481 676.094,493.651 677.597,493.551 679.101,493.586 680.605,493.74 682.108,493.704 683.612,493.882 685.116,493.787 686.619,493.735 688.123,493.635 689.627,493.432 691.13,493.317 692.634,493.322 694.138,493.141 695.641,492.967 697.145,492.974 698.649,492.865 700.152,492.669 701.656,492.66 703.16,492.534 704.663,492.44 706.167,492.532 707.671,492.59 709.174,492.634 710.678,492.649 712.182,492.535 713.685,492.607 715.189,492.533 716.693,492.582 718.196,492.55 719.7,492.584 721.204,492.564 722.707,492.574 724.211,492.684 725.715,492.782 727.218,492.713 728.722,492.678 730.226,492.842 731.729,492.769 733.233,492.686 734.737,492.705 736.24,492.648 737.744,492.711 739.248,492.542 740.751,492.677 742.255,492.855 743.759,492.827 745.262,493.09 746.766,493.417 748.27,493.564 749.773,493.59 751.277,493.896 752.781,494.153 754.284,494.443 755.788,494.673 757.292,494.997 758.795,495.206 760.299,495.291 761.803,495.407 763.306,495.54 764.81,495.718 766.314,495.681 767.817,495.761 769.321,495.838 770.825,495.768 772.328,495.765 773.832,495.788 775.336,495.717 776.839,495.561 778.343,495.342 779.847,495.135 781.35,495.145 782.854,495.043 784.358,495.095 785.861,494.956 787.365,494.956 788.869,495.079 790.372,495.129 791.876,495.102 793.38,495.059 794.883,494.95 796.387,494.809 797.891,494.691 799.394,494.526 800.898,494.304 802.402,494.149 803.905,494.099 805.409,493.756 806.913,493.762 808.416,493.746 809.92,493.717 811.424,493.568 812.927,493.542 814.431,493.227 815.935,493.014 817.438,492.838 818.942,492.601 820.446,492.5 821.949,492.404 823.453,492.426 824.957,492.319 826.46,492.275 827.964,492.107 829.468,492.13 830.971,492.123 832.475,492.138 833.979,492.101 835.482,491.955 836.986,491.743 838.49,491.771 839.993,491.491 841.497,491.304 843.001,491.263 844.504,490.997 846.008,490.97 847.512,490.772 849.015,490.5 850.519,489.963 852.023,489.69 853.526,489.514 855.03,489.312 856.534,489.093 858.037,488.743 859.541,488.536 861.045,488.17 862.548,488.029 864.052,487.733 865.556,487.559 867.059,487.344 868.563,487.292 870.067,487.147 871.57,487.15 873.074,486.965 874.578,486.629 876.081,486.342 877.585,486.288 879.089,486.025 880.592,486.038 882.096,485.919 883.6,485.765 885.103,485.919 886.607,485.836 888.111,485.627 889.614,485.423 891.118,485.395 892.622,485.553 894.125,485.515 895.629,485.483 897.133,485.581 898.636,485.577 900.14,485.627 901.644,485.512 903.147,485.447 904.651,485.554 906.155,485.522 907.658,485.626 909.162,485.514 910.666,485.645 912.169,485.529 913.673,485.717 915.177,485.742 916.68,485.687 918.184,485.819 919.688,485.77 921.191,485.984 922.695,486.066 924.199,486.094 925.702,486.468 927.206,486.43 928.71,486.573 930.213,486.558 931.717,486.59 933.221,486.416 934.724,486.559 936.228,486.628 937.732,486.618 939.235,486.637 940.739,486.572 942.243,486.782 943.746,486.861 945.25,487.052 946.754,487.164 948.257,487.266 949.761,487.589 951.265,487.859 952.768,487.948 954.272,488.165 955.776,488.38 957.279,488.537 958.783,488.712 960.287,488.999 961.79,489.253 963.294,489.484 964.798,489.654 966.301,489.804 967.805,490.051 969.309,490.216 970.812,490.511 972.316,490.706 973.82,490.999 975.323,491.276 976.827,491.501 978.331,491.692 979.834,491.789 981.338,491.964 982.842,492.286 984.345,492.584 985.849,492.833 987.353,493.106 988.856,493.609 990.36,493.893 991.864,494.054 993.367,494.289 994.871,494.404 996.375,494.663 997.878,494.92 999.382,495.059 1000.89,495.187 1002.39,495.261 1003.89,495.376 1005.4,495.393 1006.9,495.396 1008.4,495.317 1009.91,495.336 1011.41,495.268 1012.91,495.181 1014.42,495.069 1015.92,495.032 1017.43,495.051 1018.93,494.886 1020.43,494.729 1021.94,494.689 1023.44,494.592 1024.94,494.662 1026.45,494.571 1027.95,494.564 1029.46,494.363 1030.96,494.259 1032.46,494.135 1033.97,494.002 1035.47,493.894 1036.97,493.754 1038.48,493.677 1039.98,493.783 1041.48,493.647 1042.99,493.428 1044.49,493.279 1046,493.129 1047.5,493.01 1049,492.932 1050.51,492.938 1052.01,492.909 1053.51,492.644 1055.02,492.528 1056.52,492.562 1058.02,492.464 1059.53,492.462 1061.03,492.4 1062.54,492.378 1064.04,492.288 1065.54,492.376 1067.05,492.339 1068.55,492.318 1070.05,492.361 1071.56,492.665 1073.06,492.66 1074.57,492.618 1076.07,492.532 1077.57,492.542 1079.08,492.679 1080.58,492.629 1082.08,492.577 1083.59,492.731 1085.09,492.973 1086.59,492.964 1088.1,492.897 1089.6,492.869 1091.11,492.821 1092.61,493.033 1094.11,492.981 1095.62,492.992 1097.12,492.906 1098.62,493.17 1100.13,493.062 1101.63,493.2 1103.13,493.537 1104.64,493.732 1106.14,493.967 1107.65,494.281 1109.15,494.409 1110.65,494.698 1112.16,494.975 1113.66,495.267 1115.16,495.37 1116.67,495.358 1118.17,495.712 1119.68,495.848 1121.18,496.06 1122.68,496.267 1124.19,496.38 1125.69,496.555 1127.19,496.758 1128.7,496.751 1130.2,496.758 1131.7,497.072 1133.21,497.193 1134.71,497.281 1136.22,497.589 1137.72,497.688 1139.22,497.834 1140.73,498.021 1142.23,498.117 1143.73,498.079 1145.24,498.162 1146.74,498.286 1148.24,498.33 1149.75,498.45 1151.25,498.337 1152.76,498.355 1154.26,498.548 1155.76,498.741 1157.27,498.778 1158.77,498.955 1160.27,499.135 1161.78,499.064 1163.28,499.072 1164.79,499.429 1166.29,499.377 1167.79,499.556 1169.3,499.66 1170.8,499.659 1172.3,499.481 1173.81,499.63 1175.31,499.476 1176.81,499.564 1178.32,499.841 1179.82,499.953 1181.33,499.922 1182.83,499.814 1184.33,499.754 1185.84,499.669 1187.34,499.512 1188.84,499.724 1190.35,499.581 1191.85,499.472 1193.35,499.378 1194.86,499.28 1196.36,499.317 1197.87,499.256 1199.37,499.215 1200.87,499.228 1202.38,498.963 1203.88,498.72 1205.38,498.573 1206.89,498.347 1208.39,498.141 1209.9,497.945 1211.4,497.895 1212.9,497.699 1214.41,497.66 1215.91,497.787 1217.41,497.842 1218.92,497.707 1220.42,497.636 1221.92,497.542 1223.43,497.423 1224.93,497.26 1226.44,497.091 1227.94,496.912 1229.44,496.943 1230.95,496.987 1232.45,496.902 1233.95,496.7 1235.46,496.61 1236.96,496.571 1238.46,496.453 1239.97,496.072 1241.47,496.051 1242.98,495.794 1244.48,495.692 1245.98,495.555 1247.49,495.181 1248.99,494.924 1250.49,494.533 1252,494.233 1253.5,493.925 1255.01,493.502 1256.51,493.294 1258.01,492.836 1259.52,492.664 1261.02,492.491 1262.52,492.267 1264.03,492.085 1265.53,491.878 1267.03,491.766 1268.54,491.437 1270.04,491.504 1271.55,491.399 1273.05,490.856 1274.55,490.526 1276.06,490.231 1277.56,490.142 1279.06,489.932 1280.57,489.808 1282.07,489.63 1283.57,489.599 1285.08,489.491 1286.58,489.36 1288.09,489.247 1289.59,489.342 1291.09,489.234 1292.6,489.022 1294.1,489.125 1295.6,489 1297.11,489.019 1298.61,488.9 1300.12,488.704 1301.62,488.415 1303.12,488.387 1304.63,488.455 1306.13,488.368 1307.63,488.241 1309.14,488.292 1310.64,488.22 1312.14,488.133 1313.65,488.165 1315.15,488.104 1316.66,488.185 1318.16,488.203 1319.66,488.091 1321.17,488.328 1322.67,488.231 1324.17,488.507 1325.68,488.479 1327.18,488.484 1328.68,488.682 1330.19,488.77 1331.69,488.734 1333.2,488.839 1334.7,488.784 1336.2,488.782 1337.71,488.947 1339.21,489.057 1340.71,489.14 1342.22,489.219 1343.72,489.087 1345.23,489.19 1346.73,489.626 1348.23,489.769 1349.74,489.894 1351.24,490.162 1352.74,490.051 1354.25,490.169 1355.75,490.296 1357.25,490.669 1358.76,490.827 1360.26,490.77 1361.77,491.053 1363.27,491.084 1364.77,491.328 1366.28,491.736 1367.78,491.962 1369.28,492.138 1370.79,492.334 1372.29,492.576 1373.79,492.763 1375.3,492.987 1376.8,493.139 1378.31,493.251 1379.81,493.24 1381.31,493.517 1382.82,493.625 1384.32,493.805 1385.82,494.038 1387.33,494.195 1388.83,494.212 1390.34,494.426 1391.84,494.593 1393.34,494.772 1394.85,494.893 1396.35,495.074 1397.85,495.21 1399.36,495.452 1400.86,495.514 1402.36,495.756 1403.87,495.974 1405.37,496.137 1406.88,496.345 1408.38,496.653 1409.88,496.849 1411.39,497.058 1412.89,497.237 1414.39,497.453 1415.9,497.677 1417.4,497.902 1418.9,498.189 1420.41,498.271 1421.91,498.489 1423.42,498.62 1424.92,498.795 1426.42,499.049 1427.93,499.118 1429.43,499.382 1430.93,499.516 1432.44,499.706 1433.94,499.994 1435.45,500.147 1436.95,500.246 1438.45,500.346 1439.96,500.342 1441.46,500.492 1442.96,500.609 1444.47,500.69 1445.97,500.661 1447.47,500.657 1448.98,500.678 1450.48,500.775 1451.99,500.918 1453.49,500.935 1454.99,501.075 1456.5,501.222 1458,501.285 1459.5,501.224 1461.01,501.409 1462.51,501.466 1464.01,501.668 1465.52,501.745 1467.02,501.898 1468.53,501.958 1470.03,502.099 1471.53,502.2 1473.04,502.279 1474.54,502.257 1476.04,502.191 1477.55,502.301 1479.05,502.246 1480.56,502.057 1482.06,502.169 1483.56,502.25 1485.07,502.218 1486.57,502.307 1488.07,502.28 1489.58,502.325 1491.08,502.246 1492.58,502.254 1494.09,502.271 1495.59,502.241 1497.1,502.226 1498.6,502.073 1500.1,501.883 1501.61,501.729 1503.11,501.675 1504.61,501.564 1506.12,501.639 1507.62,501.6 1509.12,501.616 1510.63,501.548 1512.13,501.576 1513.64,501.454 1515.14,501.435 1516.64,501.327 1518.15,501.296 1519.65,501.207 1521.15,501.203 1522.66,501.029 1524.16,500.986 1525.67,500.944 1527.17,500.976 1528.67,501.012 1530.18,501.08 1531.68,501.06 1533.18,500.782 1534.69,500.963 1536.19,500.984 1537.69,501.066 1539.2,501.03 1540.7,501.321 1542.21,501.44 1543.71,501.586 1545.21,501.635 1546.72,501.693 1548.22,501.481 1549.72,501.402 1551.23,501.286 1552.73,501.263 1554.23,501.302 1555.74,501.575 1557.24,501.773 1558.75,501.719 1560.25,501.884 1561.75,502.067 1563.26,502.163 1564.76,502.225 1566.26,502.51 1567.77,502.655 1569.27,502.685 1570.78,502.715 1572.28,502.865 1573.78,502.832 1575.29,502.883 1576.79,503.148 1578.29,503.353 1579.8,503.519 1581.3,503.723 1582.8,503.95 1584.31,504.151 1585.81,504.301 1587.32,504.596 1588.82,504.576 1590.32,504.53 1591.83,504.491 1593.33,504.504 1594.83,504.411 1596.34,504.398 1597.84,504.376 1599.34,504.424 1600.85,504.474 1602.35,504.634 1603.86,504.93 1605.36,505.152 1606.86,505.421 1608.37,505.57 1609.87,505.724 1611.37,505.794 1612.88,505.795 1614.38,505.861 1615.89,505.98 1617.39,505.962 1618.89,505.94 1620.4,505.908 1621.9,505.887 1623.4,505.891 1624.91,505.802 1626.41,505.683 1627.91,505.525 1629.42,505.25 1630.92,505.092 1632.43,504.913 1633.93,504.819 1635.43,504.806 1636.94,504.656 1638.44,504.463 1639.94,504.379 1641.45,504.281 1642.95,504.299 1644.45,504.057 1645.96,503.894 1647.46,503.762 1648.97,503.71 1650.47,503.434 1651.97,503.159 1653.48,502.913 1654.98,502.804 1656.48,502.306 1657.99,501.935 1659.49,501.748 1661,501.496 1662.5,501.271 1664,500.928 1665.51,500.73 1667.01,500.433 1668.51,500.303 1670.02,500.173 1671.52,499.874 1673.02,499.583 1674.53,499.381 1676.03,499.338 1677.54,499.137 1679.04,498.878 1680.54,498.747 1682.05,498.784 1683.55,498.716 1685.05,498.387 1686.56,498.242 1688.06,498.175 1689.56,497.973 1691.07,497.631 1692.57,497.416 1694.08,497.269 1695.58,497.046 1697.08,496.957 1698.59,496.734 1700.09,496.63 1701.59,496.63 1703.1,496.432 1704.6,496.658 1706.11,496.662 1707.61,496.578 1709.11,496.799 1710.62,496.926 1712.12,496.903 1713.62,497.079 1715.13,497.003 1716.63,496.805 1718.13,496.74 1719.64,496.75 1721.14,496.75 1722.65,496.706 1724.15,496.829 1725.65,496.641 1727.16,496.613 1728.66,496.659 1730.16,496.605 1731.67,496.331 1733.17,496.232 1734.67,496.205 1736.18,496.102 1737.68,495.899 1739.19,495.64 1740.69,495.627 1742.19,495.559 1743.7,495.209 1745.2,494.901 1746.7,494.897 1748.21,494.62 1749.71,494.304 1751.22,493.931 1752.72,493.729 1754.22,493.68 1755.73,493.462 1757.23,493.492 1758.73,493.451 1760.24,493.61 1761.74,493.364 1763.24,493.401 1764.75,493.532 1766.25,493.558 1767.76,493.652 1769.26,493.746 1770.76,493.847 1772.27,493.828 1773.77,493.846 1775.27,493.878 1776.78,493.727 1778.28,493.701 1779.78,493.554 1781.29,493.275 1782.79,493.068 1784.3,492.982 1785.8,492.712 1787.3,492.456 1788.81,492.485 1790.31,492.286 1791.81,492.069 1793.32,491.872 1794.82,491.531 1796.33,491.415 1797.83,491.292 1799.33,491.314 1800.84,491.119 1802.34,491.057 1803.84,490.817 1805.35,490.74 1806.85,490.679 1808.35,490.588 1809.86,490.442 1811.36,490.388 1812.87,490.426 1814.37,490.353 1815.87,490.333 1817.38,490.318 1818.88,490.2 1820.38,490.108 1821.89,490.151 1823.39,490.153 1824.89,490.236 1826.4,490.202 1827.9,490.069 1829.41,489.948 1830.91,490.013 1832.41,490.117 1833.92,490.146 1835.42,490.151 1836.92,490.075 1838.43,490.014 1839.93,489.801 1841.44,489.579 1842.94,489.457 1844.44,489.449 1845.95,489.16 1847.45,489.15 1848.95,489.06 1850.46,488.96 1851.96,489.212 1853.46,489.289 1854.97,489.482 1856.47,489.57 1857.98,489.601 1859.48,489.592 1860.98,489.546 1862.49,489.494 1863.99,489.609 1865.49,489.585 1867,489.517 1868.5,489.319 1870,489.193 1871.51,489.095 1873.01,489.148 1874.52,489.389 1876.02,489.426 1877.52,489.456 1879.03,489.557 1880.53,489.418 1882.03,489.3 1883.54,489.316 1885.04,489.221 1886.55,489.195 1888.05,489.137 1889.55,489.256 1891.06,489.367 1892.56,489.518 1894.06,489.495 1895.57,489.463 1897.07,489.631 1898.57,489.828 1900.08,489.822 1901.58,489.734 1903.09,489.811 1904.59,489.803 1906.09,489.781 1907.6,489.791 1909.1,490.073 1910.6,489.956 1912.11,490.013 1913.61,490.099 1915.11,490.252 1916.62,490.298 1918.12,490.289 1919.63,490.288 1921.13,490.333 1922.63,490.199 1924.14,490.069 1925.64,489.808 1927.14,489.72 1928.65,489.441 1930.15,489.42 1931.66,489.212 1933.16,489.167 1934.66,489.311 1936.17,489.231 1937.67,489.296 1939.17,489.115 1940.68,489.191 1942.18,489.024 1943.68,488.971 1945.19,489.105 1946.69,489.162 1948.2,489.172 1949.7,489.171 1951.2,489.12 1952.71,489.042 1954.21,489.222 1955.71,489.215 1957.22,489.423 1958.72,489.443 1960.22,489.346 1961.73,489.321 1963.23,489.154 1964.74,489.16 1966.24,489.166 1967.74,489.235 1969.25,489.233 1970.75,489.206 1972.25,489.098 1973.76,489.051 1975.26,489.216 1976.77,489.197 1978.27,489.298 1979.77,489.224 1981.28,489.357 1982.78,489.293 1984.28,489.245 1985.79,489.445 1987.29,489.432 1988.79,489.35 1990.3,489.417 1991.8,489.37 1993.31,489.174 1994.81,489.068 1996.31,489.129 1997.82,489.25 1999.32,489.346 2000.82,489.547 2002.33,489.535 2003.83,489.638 2005.33,489.642 2006.84,489.758 2008.34,489.949 2009.85,489.952 2011.35,490.09 2012.85,490.077 2014.36,489.99 2015.86,489.989 2017.36,489.938 2018.87,490.007 2020.37,490.045 2021.88,490.11 2023.38,489.987 2024.88,489.936 2026.39,490.007 2027.89,490.065 2029.39,490.039 2030.9,490.198 2032.4,490.389 2033.9,490.76 2035.41,490.821 2036.91,491.117 2038.42,491.249 2039.92,491.111 2041.42,490.991 2042.93,490.877 2044.43,490.886 2045.93,490.994 2047.44,490.977 2048.94,491.07 2050.44,491.071 2051.95,491.384 2053.45,491.508 2054.96,491.329 "/>
<path clip-path="url(#clip580)" d="M854.657 229.707 L1122.68 229.707 L1122.68 78.808 L854.657 78.808  Z" fill="#ffffff" fill-rule="evenodd" fill-opacity="1"/>
<polyline clip-path="url(#clip580)" style="stroke:#000000; stroke-linecap:round; stroke-linejoin:round; stroke-width:4; stroke-opacity:0; fill:none" points="854.657,229.707 1122.68,229.707 1122.68,78.808 854.657,78.808 854.657,229.707 "/>
<polyline clip-path="url(#clip580)" style="stroke:#1a80bb; stroke-linecap:round; stroke-linejoin:round; stroke-width:12; stroke-opacity:0.75; fill:none" points="864.681,129.108 924.828,129.108 "/>
<g clip-path="url(#clip580)">
<text style="fill:#000000; fill-opacity:1; font-family:Arial,Helvetica Neue,Helvetica,sans-serif; font-size:48px; text-anchor:start;" transform="rotate(0, 934.852, 146.608)" x="934.852" y="146.608">FCUC</text>
</g>
<polyline clip-path="url(#clip580)" style="stroke:#a00000; stroke-linecap:round; stroke-linejoin:round; stroke-width:12; stroke-opacity:0.5; fill:none" points="864.681,179.407 924.828,179.407 "/>
<g clip-path="url(#clip580)">
<text style="fill:#000000; fill-opacity:1; font-family:Arial,Helvetica Neue,Helvetica,sans-serif; font-size:48px; text-anchor:start;" transform="rotate(0, 934.852, 196.907)" x="934.852" y="196.907">r-FCUC</text>
</g>
</svg>
