<svg class="main-svg" xmlns="http://www.w3.org/2000/svg" xmlns:xlink="http://www.w3.org/1999/xlink" width="700" height="500" style="" viewBox="0 0 700 500"><rect x="0" y="0" width="700" height="500" style="fill: rgb(255, 255, 255); fill-opacity: 1;"/><defs id="defs-7aa624"><g class="clips"><clipPath id="clip7aa624xyplot" class="plotclip"><rect width="241.1101912086894" height="326.45141337486024"/></clipPath><clipPath id="clip7aa624x2y2plot" class="plotclip"><rect width="241.11019120868943" height="326.45141337486024"/></clipPath><clipPath class="axesclip" id="clip7aa624x"><rect x="107.53902265698683" y="0" width="241.1101912086894" height="500"/></clipPath><clipPath class="axesclip" id="clip7aa624y"><rect x="0" y="75.3543307086614" width="700" height="326.45141337486024"/></clipPath><clipPath class="axesclip" id="clip7aa624xy"><rect x="107.53902265698683" y="75.3543307086614" width="241.1101912086894" height="326.45141337486024"/></clipPath><clipPath class="axesclip" id="clip7aa624y2"><rect x="0" y="75.3543307086614" width="700" height="326.45141337486024"/></clipPath><clipPath class="axesclip" id="clip7aa624xy2"><rect x="107.53902265698683" y="75.3543307086614" width="241.1101912086894" height="326.45141337486024"/></clipPath><clipPath class="axesclip" id="clip7aa624x2"><rect x="404.9528009172948" y="0" width="241.11019120868943" height="500"/></clipPath><clipPath class="axesclip" id="clip7aa624x2y"><rect x="404.9528009172948" y="75.3543307086614" width="241.11019120868943" height="326.45141337486024"/></clipPath><clipPath class="axesclip" id="clip7aa624x2y2"><rect x="404.9528009172948" y="75.3543307086614" width="241.11019120868943" height="326.45141337486024"/></clipPath></g><g class="gradients"/><g class="patterns"/></defs><g class="bglayer"/><g class="layer-below"><g class="imagelayer"/><g class="shapelayer"/></g><g class="cartesianlayer"><g class="subplot xy"><g class="layer-subplot"><g class="shapelayer"/><g class="imagelayer"/></g><g class="gridlayer"><g class="x"><path class="xgrid crisp" transform="translate(187.90902265698685,0)" d="M0,75.3543307086614v326.45141337486024" style="stroke: rgb(128, 128, 128); stroke-opacity: 0.1; stroke-width: 0.5px;"/><path class="xgrid crisp" transform="translate(268.27902265698685,0)" d="M0,75.3543307086614v326.45141337486024" style="stroke: rgb(128, 128, 128); stroke-opacity: 0.1; stroke-width: 0.5px;"/></g><g class="y"><path class="ygrid crisp" transform="translate(0,336.5143307086614)" d="M107.53902265698683,0h241.1101912086894" style="stroke: rgb(128, 128, 128); stroke-opacity: 0.1; stroke-width: 0.5px;"/><path class="ygrid crisp" transform="translate(0,271.2243307086614)" d="M107.53902265698683,0h241.1101912086894" style="stroke: rgb(128, 128, 128); stroke-opacity: 0.1; stroke-width: 0.5px;"/><path class="ygrid crisp" transform="translate(0,205.9343307086614)" d="M107.53902265698683,0h241.1101912086894" style="stroke: rgb(128, 128, 128); stroke-opacity: 0.1; stroke-width: 0.5px;"/><path class="ygrid crisp" transform="translate(0,140.6443307086614)" d="M107.53902265698683,0h241.1101912086894" style="stroke: rgb(128, 128, 128); stroke-opacity: 0.1; stroke-width: 0.5px;"/></g></g><g class="zerolinelayer"/><path class="xlines-below"/><path class="ylines-below"/><g class="overlines-below"/><g class="xaxislayer-below"/><g class="yaxislayer-below"/><g class="overaxes-below"/><g class="plot" transform="translate(107.53902265698683,75.3543307086614)" clip-path="url(#clip7aa624xyplot)"><g class="scatterlayer mlayer"><g class="trace scatter traced2470e" style="stroke-miterlimit: 2; opacity: 1;"><g class="fills"/><g class="errorbars"/><g class="lines"><path class="js-line" d="M0,65.29L4.42,159.99L4.82,166.89L8.84,222.25L9.24,226.53L12.86,256.35L13.26,258.78L16.48,272.8L16.88,273.93L19.29,278.32L19.69,278.67L21.3,279.17L21.7,279.07L23.71,277.46L24.11,276.92L26.92,271.59L27.33,270.63L31.75,257.73L32.15,256.39L51.84,190.25L52.24,189.18L58.67,174.53L59.07,173.76L64.7,164.73L65.1,164.2L70.32,158.58L70.73,158.24L75.95,154.79L76.35,154.59L81.98,152.68L82.38,152.6L89.21,151.97L89.61,151.97L98.86,152.68L99.26,152.73L134.62,156.63L135.02,156.65L157.93,157.06L158.33,157.06L482.22,156.86" style="vector-effect: non-scaling-stroke; fill: none; stroke: rgb(26, 128, 187); stroke-opacity: 0.75; stroke-width: 3px; opacity: 1;"/></g><g class="points"/><g class="text"/></g><g class="trace scatter trace1ab117" style="stroke-miterlimit: 2; opacity: 1;"><g class="fills"/><g class="errorbars"/><g class="lines"><path class="js-line" d="M0,65.29L4.42,158.15L4.82,164.71L8.84,216.26L9.24,220.17L12.86,246.69L13.26,248.8L16.07,259.34L16.48,260.28L18.89,263.92L19.29,264.17L20.9,264.24L21.3,264.1L23.31,262.49L23.71,261.95L26.52,256.85L26.92,255.97L31.34,244.36L31.75,243.2L52.64,184.05L53.04,183.09L59.88,169.96L60.28,169.36L66.31,162.26L66.71,161.86L71.13,157.66L71.53,157.39L76.75,154.32L77.16,154.14L82.78,152.16L83.18,152.06L90.42,150.83L90.82,150.85L96.04,151.23L96.44,151.35L100.86,152.07L101.27,152.13L103.68,152.71L104.08,152.81L109.3,153.79L109.71,153.82L116.94,153.89L117.34,153.82L126.98,153.6L127.39,153.58L133.82,153.98L134.22,154.07L139.44,154.63L139.84,154.64L161.14,152.47L161.54,152.4L172.39,151.08L172.8,151.12L186.86,151.81L187.26,151.9L194.09,153.16L194.5,153.22L206.15,154.26L206.55,154.22L211.37,153.9L211.78,153.82L219.81,153.56L220.21,153.54L227.45,153.74L227.85,153.86L240.71,155.52L241.11,155.52L249.55,156L249.95,155.97L293.75,152.6L294.15,152.7L313.85,155.67L314.25,155.76L346.8,156.6L347.2,156.57L482.22,153.1" style="vector-effect: non-scaling-stroke; fill: none; stroke: rgb(160, 0, 0); stroke-opacity: 0.5; stroke-width: 3px; opacity: 1;"/></g><g class="points"/><g class="text"/></g></g></g><g class="overplot"/><path class="xlines-above crisp" d="M106.53902265698683,402.30574408352163H349.64921386567624M106.53902265698683,74.8543307086614H349.64921386567624" style="fill: none; stroke-width: 1px; stroke: rgb(0, 0, 0); stroke-opacity: 1;"/><path class="ylines-above crisp" d="M107.03902265698683,75.3543307086614V401.80574408352163M349.14921386567624,75.3543307086614V401.80574408352163" style="fill: none; stroke-width: 1px; stroke: rgb(0, 0, 0); stroke-opacity: 1;"/><g class="overlines-above"/><g class="xaxislayer-above"><path class="xtick ticks crisp" d="M0,401.80574408352163v-5" transform="translate(187.90902265698685,0)" style="stroke: rgb(0, 0, 0); stroke-opacity: 1; stroke-width: 1px;"/><path class="xtick ticks crisp" d="M0,401.80574408352163v-5" transform="translate(268.27902265698685,0)" style="stroke: rgb(0, 0, 0); stroke-opacity: 1; stroke-width: 1px;"/><g class="xtick"><text text-anchor="middle" x="0" y="416.0057440835216" transform="translate(107.53902265698683,0)" style="font-family: Helvetica; font-size: 11px; fill: rgb(0, 0, 0); fill-opacity: 1; white-space: pre; opacity: 1;">0</text></g><g class="xtick"><text text-anchor="middle" x="0" y="416.0057440835216" style="font-family: Helvetica; font-size: 11px; fill: rgb(0, 0, 0); fill-opacity: 1; white-space: pre; opacity: 1;" transform="translate(187.90902265698685,0)">10</text></g><g class="xtick"><text text-anchor="middle" x="0" y="416.0057440835216" style="font-family: Helvetica; font-size: 11px; fill: rgb(0, 0, 0); fill-opacity: 1; white-space: pre; opacity: 1;" transform="translate(268.27902265698685,0)">20</text></g><g class="xtick"><text text-anchor="middle" x="0" y="416.0057440835216" style="font-family: Helvetica; font-size: 11px; fill: rgb(0, 0, 0); fill-opacity: 1; white-space: pre; opacity: 1;" transform="translate(348.64902265698686,0)">30</text></g></g><g class="yaxislayer-above"><path class="ytick ticks crisp" d="M107.53902265698683,0h5" transform="translate(0,336.5143307086614)" style="stroke: rgb(0, 0, 0); stroke-opacity: 1; stroke-width: 1px;"/><path class="ytick ticks crisp" d="M107.53902265698683,0h5" transform="translate(0,271.2243307086614)" style="stroke: rgb(0, 0, 0); stroke-opacity: 1; stroke-width: 1px;"/><path class="ytick ticks crisp" d="M107.53902265698683,0h5" transform="translate(0,205.9343307086614)" style="stroke: rgb(0, 0, 0); stroke-opacity: 1; stroke-width: 1px;"/><path class="ytick ticks crisp" d="M107.53902265698683,0h5" transform="translate(0,140.6443307086614)" style="stroke: rgb(0, 0, 0); stroke-opacity: 1; stroke-width: 1px;"/><g class="ytick"><text text-anchor="end" x="104.33902265698683" y="3.8499999999999996" transform="translate(0,401.8043307086614)" style="font-family: Helvetica; font-size: 11px; fill: rgb(0, 0, 0); fill-opacity: 1; white-space: pre; opacity: 1;">-0.4</text></g><g class="ytick"><text text-anchor="end" x="104.33902265698683" y="3.8499999999999996" style="font-family: Helvetica; font-size: 11px; fill: rgb(0, 0, 0); fill-opacity: 1; white-space: pre; opacity: 1;" transform="translate(0,336.5143307086614)">-0.3</text></g><g class="ytick"><text text-anchor="end" x="104.33902265698683" y="3.8499999999999996" style="font-family: Helvetica; font-size: 11px; fill: rgb(0, 0, 0); fill-opacity: 1; white-space: pre; opacity: 1;" transform="translate(0,271.2243307086614)">-0.2</text></g><g class="ytick"><text text-anchor="end" x="104.33902265698683" y="3.8499999999999996" style="font-family: Helvetica; font-size: 11px; fill: rgb(0, 0, 0); fill-opacity: 1; white-space: pre; opacity: 1;" transform="translate(0,205.9343307086614)">-0.1</text></g><g class="ytick"><text text-anchor="end" x="104.33902265698683" y="3.8499999999999996" style="font-family: Helvetica; font-size: 11px; fill: rgb(0, 0, 0); fill-opacity: 1; white-space: pre; opacity: 1;" transform="translate(0,140.6443307086614)">0.0</text></g><g class="ytick"><text text-anchor="end" x="104.33902265698683" y="3.8499999999999996" style="font-family: Helvetica; font-size: 11px; fill: rgb(0, 0, 0); fill-opacity: 1; white-space: pre; opacity: 1;" transform="translate(0,75.3543307086614)">0.1</text></g></g><g class="overaxes-above"/></g><g class="subplot x2y2"><g class="layer-subplot"><g class="shapelayer"/><g class="imagelayer"/></g><g class="gridlayer"><g class="x2"><path class="x2grid crisp" transform="translate(485.3228009172948,0)" d="M0,75.3543307086614v326.45141337486024" style="stroke: rgb(128, 128, 128); stroke-opacity: 0.1; stroke-width: 0.5px;"/><path class="x2grid crisp" transform="translate(565.6928009172948,0)" d="M0,75.3543307086614v326.45141337486024" style="stroke: rgb(128, 128, 128); stroke-opacity: 0.1; stroke-width: 0.5px;"/></g><g class="y2"><path class="y2grid crisp" transform="translate(0,308.5343307086614)" d="M404.9528009172948,0h241.11019120868943" style="stroke: rgb(128, 128, 128); stroke-opacity: 0.1; stroke-width: 0.5px;"/><path class="y2grid crisp" transform="translate(0,215.2643307086614)" d="M404.9528009172948,0h241.11019120868943" style="stroke: rgb(128, 128, 128); stroke-opacity: 0.1; stroke-width: 0.5px;"/><path class="y2grid crisp" transform="translate(0,121.9943307086614)" d="M404.9528009172948,0h241.11019120868943" style="stroke: rgb(128, 128, 128); stroke-opacity: 0.1; stroke-width: 0.5px;"/></g></g><g class="zerolinelayer"/><path class="xlines-below"/><path class="ylines-below"/><g class="overlines-below"/><g class="xaxislayer-below"/><g class="yaxislayer-below"/><g class="overaxes-below"/><g class="plot" transform="translate(404.9528009172948,75.3543307086614)" clip-path="url(#clip7aa624x2y2plot)"><g class="scatterlayer mlayer"><g class="trace scatter trace5df1f5" style="stroke-miterlimit: 2; opacity: 1;"><g class="fills"/><g class="errorbars"/><g class="lines"><path class="js-line" d="M0,326.45L4.42,231.24L4.82,224.3L8.84,168.65L9.24,164.34L12.86,134.36L13.26,131.92L16.48,117.83L16.88,116.69L19.29,112.28L19.69,111.92L21.3,111.43L21.7,111.52L23.71,113.15L24.11,113.68L26.92,119.04L27.33,120.01L31.75,132.98L32.15,134.32L51.84,200.82L52.24,201.89L58.27,215.83L58.67,216.62L63.89,225.37L64.3,225.93L69.52,231.93L69.92,232.3L75.15,236.05L75.55,236.27L81.17,238.41L81.58,238.5L88.41,239.3L88.81,239.31L98.86,238.6L99.26,238.55L127.39,235.06L127.79,235.03L148.28,234.24L148.68,234.23L241.11,234.39" style="vector-effect: non-scaling-stroke; fill: none; stroke: rgb(26, 128, 187); stroke-opacity: 0.95; stroke-width: 3px; opacity: 1;"/></g><g class="points"/><g class="text"/></g><g class="trace scatter trace5b8c30" style="stroke-miterlimit: 2; opacity: 1;"><g class="fills"/><g class="errorbars"/><g class="lines"><path class="js-line" d="M0,326.45L4.42,233.09L4.82,226.5L8.84,174.67L9.24,170.74L12.86,144.08L13.26,141.96L16.07,131.36L16.48,130.41L18.89,126.76L19.29,126.51L20.9,126.43L21.3,126.57L23.31,128.2L23.71,128.74L26.92,134.75L27.33,135.67L32.95,151.11L33.35,152.24L52.64,207.05L53.04,208.02L59.88,221.22L60.28,221.83L66.31,228.96L66.71,229.36L71.13,233.58L71.53,233.86L76.75,236.94L77.16,237.13L82.78,239.12L83.18,239.21L90.01,240.51L90.42,240.45L98.86,239.47L99.26,239.35L112.52,237.3L112.92,237.45L120.96,237.75L121.36,237.79L143.06,236.91L143.46,236.91L147.88,237.21L148.28,237.33L157.12,238.02L157.53,238.12L174,240.19L174.4,240.21L194.09,238.11L194.5,238.05L206.15,237.01L206.55,237.04L212.18,237.5L212.58,237.55L221.42,237.7L221.82,237.72L228.25,237.34L228.65,237.26L234.68,236.29L235.08,236.29L239.5,235.76L239.9,235.75L251.56,235.35L251.96,235.38L296.57,238.37L296.97,238.27L368.5,233.35L368.9,233.4L482.22,238.17" style="vector-effect: non-scaling-stroke; fill: none; stroke: rgb(160, 0, 0); stroke-opacity: 0.95; stroke-width: 3px; opacity: 1;"/></g><g class="points"/><g class="text"/></g></g></g><g class="overplot"/><path class="xlines-above crisp" d="M403.9528009172948,402.30574408352163H647.0629921259842M403.9528009172948,74.8543307086614H647.0629921259842" style="fill: none; stroke-width: 1px; stroke: rgb(0, 0, 0); stroke-opacity: 1;"/><path class="ylines-above crisp" d="M404.4528009172948,75.3543307086614V401.80574408352163M646.5629921259842,75.3543307086614V401.80574408352163" style="fill: none; stroke-width: 1px; stroke: rgb(0, 0, 0); stroke-opacity: 1;"/><g class="overlines-above"/><g class="xaxislayer-above"><path class="x2tick ticks crisp" d="M0,401.80574408352163v-5" transform="translate(485.3228009172948,0)" style="stroke: rgb(0, 0, 0); stroke-opacity: 1; stroke-width: 1px;"/><path class="x2tick ticks crisp" d="M0,401.80574408352163v-5" transform="translate(565.6928009172948,0)" style="stroke: rgb(0, 0, 0); stroke-opacity: 1; stroke-width: 1px;"/><g class="x2tick"><text text-anchor="middle" x="0" y="416.0057440835216" transform="translate(404.9528009172948,0)" style="font-family: Helvetica; font-size: 11px; fill: rgb(0, 0, 0); fill-opacity: 1; white-space: pre; opacity: 1;">0</text></g><g class="x2tick"><text text-anchor="middle" x="0" y="416.0057440835216" style="font-family: Helvetica; font-size: 11px; fill: rgb(0, 0, 0); fill-opacity: 1; white-space: pre; opacity: 1;" transform="translate(485.3228009172948,0)">10</text></g><g class="x2tick"><text text-anchor="middle" x="0" y="416.0057440835216" style="font-family: Helvetica; font-size: 11px; fill: rgb(0, 0, 0); fill-opacity: 1; white-space: pre; opacity: 1;" transform="translate(565.6928009172948,0)">20</text></g><g class="x2tick"><text text-anchor="middle" x="0" y="416.0057440835216" style="font-family: Helvetica; font-size: 11px; fill: rgb(0, 0, 0); fill-opacity: 1; white-space: pre; opacity: 1;" transform="translate(646.0628009172948,0)">30</text></g></g><g class="yaxislayer-above"><path class="y2tick ticks crisp" d="M404.9528009172948,0h5" transform="translate(0,308.5343307086614)" style="stroke: rgb(0, 0, 0); stroke-opacity: 1; stroke-width: 1px;"/><path class="y2tick ticks crisp" d="M404.9528009172948,0h5" transform="translate(0,215.2643307086614)" style="stroke: rgb(0, 0, 0); stroke-opacity: 1; stroke-width: 1px;"/><path class="y2tick ticks crisp" d="M404.9528009172948,0h5" transform="translate(0,121.9943307086614)" style="stroke: rgb(0, 0, 0); stroke-opacity: 1; stroke-width: 1px;"/><g class="y2tick"><text text-anchor="end" x="401.7528009172948" y="3.8499999999999996" transform="translate(0,401.8043307086614)" style="font-family: Helvetica; font-size: 11px; fill: rgb(0, 0, 0); fill-opacity: 1; white-space: pre; opacity: 1;">0.0</text></g><g class="y2tick"><text text-anchor="end" x="401.7528009172948" y="3.8499999999999996" style="font-family: Helvetica; font-size: 11px; fill: rgb(0, 0, 0); fill-opacity: 1; white-space: pre; opacity: 1;" transform="translate(0,308.5343307086614)">0.1</text></g><g class="y2tick"><text text-anchor="end" x="401.7528009172948" y="3.8499999999999996" style="font-family: Helvetica; font-size: 11px; fill: rgb(0, 0, 0); fill-opacity: 1; white-space: pre; opacity: 1;" transform="translate(0,215.2643307086614)">0.2</text></g><g class="y2tick"><text text-anchor="end" x="401.7528009172948" y="3.8499999999999996" style="font-family: Helvetica; font-size: 11px; fill: rgb(0, 0, 0); fill-opacity: 1; white-space: pre; opacity: 1;" transform="translate(0,121.9943307086614)">0.3</text></g></g><g class="overaxes-above"/></g></g><g class="polarlayer"/><g class="ternarylayer"/><g class="geolayer"/><g class="funnelarealayer"/><g class="pielayer"/><g class="iciclelayer"/><g class="treemaplayer"/><g class="sunburstlayer"/><g class="glimages"/><defs id="topdefs-7aa624"><g class="clips"/><clipPath id="legend7aa624"><rect width="83" height="86" x="1" y="1"/></clipPath></defs><g class="layer-above"><g class="imagelayer"/><g class="shapelayer"/></g><g class="infolayer"><g class="legend" pointer-events="all" transform="translate(565,60)"><rect class="bg" shape-rendering="crispEdges" width="84" height="87" x="0.5" y="0.5" style="stroke: rgb(0, 0, 0); stroke-opacity: 0; fill: rgb(255, 255, 255); fill-opacity: 1; stroke-width: 1px;"/><g class="scrollbox" transform="" clip-path="url(#legend7aa624)"><g class="groups"><g class="traces" transform="translate(1,15.5)" style="opacity: 1;"><text class="legendtext" text-anchor="start" x="40" y="4.29" style="font-family: Helvetica; font-size: 11px; fill: rgb(0, 0, 0); fill-opacity: 1; white-space: pre;">FCUC</text><g class="layers" style="opacity: 1;"><g class="legendfill"/><g class="legendlines"><path class="js-line" d="M5,0h30" style="fill: none; stroke: rgb(26, 128, 187); stroke-opacity: 0.75; stroke-width: 3px;"/></g><g class="legendsymbols"><g class="legendpoints"/></g></g><rect class="legendtoggle" x="0" y="-9.5" width="77.890625" height="19" style="fill: rgb(0, 0, 0); fill-opacity: 0;"/></g><g class="traces" transform="translate(1,34.5)" style="opacity: 1;"><text class="legendtext" text-anchor="start" x="40" y="4.29" style="font-family: Helvetica; font-size: 11px; fill: rgb(0, 0, 0); fill-opacity: 1; white-space: pre;">r-FCUC</text><g class="layers" style="opacity: 1;"><g class="legendfill"/><g class="legendlines"><path class="js-line" d="M5,0h30" style="fill: none; stroke: rgb(160, 0, 0); stroke-opacity: 0.5; stroke-width: 3px;"/></g><g class="legendsymbols"><g class="legendpoints"/></g></g><rect class="legendtoggle" x="0" y="-9.5" width="77.890625" height="19" style="fill: rgb(0, 0, 0); fill-opacity: 0;"/></g><g class="traces" transform="translate(1,53.5)" style="opacity: 1;"><text class="legendtext" text-anchor="start" x="40" y="4.29" style="font-family: Helvetica; font-size: 11px; fill: rgb(0, 0, 0); fill-opacity: 1; white-space: pre;">FCUC</text><g class="layers" style="opacity: 1;"><g class="legendfill"/><g class="legendlines"><path class="js-line" d="M5,0h30" style="fill: none; stroke: rgb(26, 128, 187); stroke-opacity: 0.95; stroke-width: 3px;"/></g><g class="legendsymbols"><g class="legendpoints"/></g></g><rect class="legendtoggle" x="0" y="-9.5" width="77.890625" height="19" style="fill: rgb(0, 0, 0); fill-opacity: 0;"/></g><g class="traces" transform="translate(1,72.5)" style="opacity: 1;"><text class="legendtext" text-anchor="start" x="40" y="4.29" style="font-family: Helvetica; font-size: 11px; fill: rgb(0, 0, 0); fill-opacity: 1; white-space: pre;">r-FCUC</text><g class="layers" style="opacity: 1;"><g class="legendfill"/><g class="legendlines"><path class="js-line" d="M5,0h30" style="fill: none; stroke: rgb(160, 0, 0); stroke-opacity: 0.95; stroke-width: 3px;"/></g><g class="legendsymbols"><g class="legendpoints"/></g></g><rect class="legendtoggle" x="0" y="-9.5" width="77.890625" height="19" style="fill: rgb(0, 0, 0); fill-opacity: 0;"/></g></g></g><rect class="scrollbar" rx="20" ry="3" width="0" height="0" x="0" y="0" style="fill: rgb(128, 139, 164); fill-opacity: 1;"/></g><g class="g-gtitle"/><g class="g-xtitle"><text class="xtitle" x="228.09411826133152" y="443.315625" text-anchor="middle" style="font-family: sans-serif; font-size: 14px; fill: rgb(0, 0, 0); opacity: 1; font-weight: normal; white-space: pre;">t / s</text></g><g class="g-x2title"><text class="x2title" x="525.5078965216395" y="443.315625" text-anchor="middle" style="font-family: sans-serif; font-size: 14px; fill: rgb(0, 0, 0); opacity: 1; font-weight: normal; white-space: pre;">t / s</text></g><g class="g-ytitle"><text class="ytitle" transform="rotate(-90,60.575,238.5800373960915)" x="60.575" y="238.5800373960915" text-anchor="middle" style="font-family: sans-serif; font-size: 14px; fill: rgb(0, 0, 0); opacity: 1; font-weight: normal; white-space: pre;">$\Delta f(t) / Hz$</text></g><g class="g-y2title"><text class="y2title" transform="rotate(-90,361.653125,238.5800373960915)" x="361.653125" y="238.5800373960915" text-anchor="middle" style="font-family: sans-serif; font-size: 14px; fill: rgb(0, 0, 0); opacity: 1; font-weight: normal; white-space: pre;">Output / p.u.</text></g></g></svg>