<?xml version="1.0" encoding="utf-8"?>
<svg xmlns="http://www.w3.org/2000/svg" xmlns:xlink="http://www.w3.org/1999/xlink" width="300" height="300" viewBox="0 0 1200 1200">
<defs>
  <clipPath id="clip520">
    <rect x="0" y="0" width="1200" height="1200"/>
  </clipPath>
</defs>
<path clip-path="url(#clip520)" d="M0 1200 L1200 1200 L1200 0 L0 0  Z" fill="#ffffff" fill-rule="evenodd" fill-opacity="1"/>
<defs>
  <clipPath id="clip521">
    <rect x="240" y="120" width="841" height="841"/>
  </clipPath>
</defs>
<path clip-path="url(#clip520)" d="M247.989 984.237 L1152.76 984.237 L1152.76 47.2441 L247.989 47.2441  Z" fill="#ffffff" fill-rule="evenodd" fill-opacity="1"/>
<defs>
  <clipPath id="clip522">
    <rect x="247" y="47" width="906" height="938"/>
  </clipPath>
</defs>
<polyline clip-path="url(#clip522)" style="stroke:#808080; stroke-linecap:round; stroke-linejoin:round; stroke-width:2; stroke-opacity:0.1; fill:none" points="247.989,984.237 247.989,47.2441 "/>
<polyline clip-path="url(#clip522)" style="stroke:#808080; stroke-linecap:round; stroke-linejoin:round; stroke-width:2; stroke-opacity:0.1; fill:none" points="549.578,984.237 549.578,47.2441 "/>
<polyline clip-path="url(#clip522)" style="stroke:#808080; stroke-linecap:round; stroke-linejoin:round; stroke-width:2; stroke-opacity:0.1; fill:none" points="851.167,984.237 851.167,47.2441 "/>
<polyline clip-path="url(#clip522)" style="stroke:#808080; stroke-linecap:round; stroke-linejoin:round; stroke-width:2; stroke-opacity:0.1; fill:none" points="1152.76,984.237 1152.76,47.2441 "/>
<polyline clip-path="url(#clip522)" style="stroke:#808080; stroke-linecap:round; stroke-linejoin:round; stroke-width:2; stroke-opacity:0.1; fill:none" points="1454.34,984.237 1454.34,47.2441 "/>
<polyline clip-path="url(#clip522)" style="stroke:#808080; stroke-linecap:round; stroke-linejoin:round; stroke-width:2; stroke-opacity:0.1; fill:none" points="1755.93,984.237 1755.93,47.2441 "/>
<polyline clip-path="url(#clip522)" style="stroke:#808080; stroke-linecap:round; stroke-linejoin:round; stroke-width:2; stroke-opacity:0.1; fill:none" points="2057.52,984.237 2057.52,47.2441 "/>
<polyline clip-path="url(#clip520)" style="stroke:#000000; stroke-linecap:round; stroke-linejoin:round; stroke-width:4; stroke-opacity:1; fill:none" points="247.989,984.237 1152.76,984.237 "/>
<polyline clip-path="url(#clip520)" style="stroke:#000000; stroke-linecap:round; stroke-linejoin:round; stroke-width:4; stroke-opacity:1; fill:none" points="247.989,47.2441 1152.76,47.2441 "/>
<polyline clip-path="url(#clip520)" style="stroke:#000000; stroke-linecap:round; stroke-linejoin:round; stroke-width:4; stroke-opacity:1; fill:none" points="247.989,984.237 247.989,965.339 "/>
<polyline clip-path="url(#clip520)" style="stroke:#000000; stroke-linecap:round; stroke-linejoin:round; stroke-width:4; stroke-opacity:1; fill:none" points="549.578,984.237 549.578,965.339 "/>
<polyline clip-path="url(#clip520)" style="stroke:#000000; stroke-linecap:round; stroke-linejoin:round; stroke-width:4; stroke-opacity:1; fill:none" points="851.167,984.237 851.167,965.339 "/>
<polyline clip-path="url(#clip520)" style="stroke:#000000; stroke-linecap:round; stroke-linejoin:round; stroke-width:4; stroke-opacity:1; fill:none" points="1152.76,984.237 1152.76,965.339 "/>
<polyline clip-path="url(#clip520)" style="stroke:#000000; stroke-linecap:round; stroke-linejoin:round; stroke-width:4; stroke-opacity:1; fill:none" points="1454.34,984.237 1454.34,965.339 "/>
<polyline clip-path="url(#clip520)" style="stroke:#000000; stroke-linecap:round; stroke-linejoin:round; stroke-width:4; stroke-opacity:1; fill:none" points="1755.93,984.237 1755.93,965.339 "/>
<polyline clip-path="url(#clip520)" style="stroke:#000000; stroke-linecap:round; stroke-linejoin:round; stroke-width:4; stroke-opacity:1; fill:none" points="2057.52,984.237 2057.52,965.339 "/>
<g clip-path="url(#clip520)">
<text style="fill:#000000; fill-opacity:1; font-family:Book Antiqua,Palatino,Palatino Linotype,Palatino LT STD,Georgia,serif; font-size:51px; font-weight:bold; text-anchor:middle;" transform="rotate(0, 247.989, 1038.21)" x="247.989" y="1038.21">0</text>
</g>
<g clip-path="url(#clip520)">
<text style="fill:#000000; fill-opacity:1; font-family:Book Antiqua,Palatino,Palatino Linotype,Palatino LT STD,Georgia,serif; font-size:51px; font-weight:bold; text-anchor:middle;" transform="rotate(0, 549.578, 1038.21)" x="549.578" y="1038.21">10</text>
</g>
<g clip-path="url(#clip520)">
<text style="fill:#000000; fill-opacity:1; font-family:Book Antiqua,Palatino,Palatino Linotype,Palatino LT STD,Georgia,serif; font-size:51px; font-weight:bold; text-anchor:middle;" transform="rotate(0, 851.167, 1038.21)" x="851.167" y="1038.21">20</text>
</g>
<g clip-path="url(#clip520)">
<text style="fill:#000000; fill-opacity:1; font-family:Book Antiqua,Palatino,Palatino Linotype,Palatino LT STD,Georgia,serif; font-size:51px; font-weight:bold; text-anchor:middle;" transform="rotate(0, 1152.76, 1038.21)" x="1152.76" y="1038.21">30</text>
</g>
<g clip-path="url(#clip520)">
<text style="fill:#000000; fill-opacity:1; font-family:Book Antiqua,Palatino,Palatino Linotype,Palatino LT STD,Georgia,serif; font-size:51px; font-weight:bold; text-anchor:middle;" transform="rotate(0, 1454.34, 1038.21)" x="1454.34" y="1038.21">40</text>
</g>
<g clip-path="url(#clip520)">
<text style="fill:#000000; fill-opacity:1; font-family:Book Antiqua,Palatino,Palatino Linotype,Palatino LT STD,Georgia,serif; font-size:51px; font-weight:bold; text-anchor:middle;" transform="rotate(0, 1755.93, 1038.21)" x="1755.93" y="1038.21">50</text>
</g>
<g clip-path="url(#clip520)">
<text style="fill:#000000; fill-opacity:1; font-family:Book Antiqua,Palatino,Palatino Linotype,Palatino LT STD,Georgia,serif; font-size:51px; font-weight:bold; text-anchor:middle;" transform="rotate(0, 2057.52, 1038.21)" x="2057.52" y="1038.21">60</text>
</g>
<path clip-path="url(#clip520)" d="M677.2 1073.13 Q677.2 1074.03 676.781 1074.25 Q676.363 1074.45 675.203 1074.45 L669.02 1074.45 L664.124 1093.9 Q663.738 1095.61 663.738 1097.06 Q663.738 1098.67 664.221 1099.37 Q664.736 1100.08 665.799 1100.08 Q667.893 1100.08 670.147 1098.18 Q672.434 1096.28 674.366 1091.65 Q674.624 1091.03 674.752 1090.9 Q674.913 1090.74 675.332 1090.74 Q676.137 1090.74 676.137 1091.39 Q676.137 1091.61 675.686 1092.64 Q675.268 1093.67 674.334 1095.19 Q673.432 1096.7 672.24 1098.12 Q671.081 1099.54 669.31 1100.57 Q667.538 1101.56 665.638 1101.56 Q662.965 1101.56 661.258 1099.86 Q659.583 1098.15 659.583 1095.48 Q659.583 1094.61 660.26 1091.84 Q660.936 1089.04 664.608 1074.45 L658.778 1074.45 Q657.973 1074.45 657.651 1074.42 Q657.361 1074.38 657.136 1074.22 Q656.943 1074.03 656.943 1073.64 Q656.943 1073.03 657.2 1072.77 Q657.458 1072.48 657.78 1072.45 Q658.134 1072.39 658.939 1072.39 L665.123 1072.39 L667.699 1061.92 Q667.957 1060.89 668.601 1060.31 Q669.277 1059.7 669.664 1059.63 Q670.05 1059.54 670.34 1059.54 Q671.21 1059.54 671.725 1060.02 Q672.24 1060.47 672.24 1061.31 Q672.24 1061.76 669.535 1072.39 L675.332 1072.39 Q676.073 1072.39 676.363 1072.42 Q676.685 1072.45 676.942 1072.61 Q677.2 1072.77 677.2 1073.13 Z" fill="#000000" fill-rule="nonzero" fill-opacity="1" /><path clip-path="url(#clip520)" d="M680.516 1116.38 Q680.516 1116.06 680.773 1115.35 L704.058 1053.13 Q704.058 1053.06 704.219 1052.71 Q704.38 1052.35 704.477 1052.13 Q704.573 1051.87 704.767 1051.68 Q704.992 1051.48 705.25 1051.48 Q705.894 1051.48 705.894 1052.29 Q705.894 1052.35 705.701 1053.13 L682.351 1115.41 Q681.965 1116.54 681.707 1116.86 Q681.482 1117.18 681.095 1117.18 Q680.516 1117.18 680.516 1116.38 Z" fill="#000000" fill-rule="nonzero" fill-opacity="1" /><path clip-path="url(#clip520)" d="M737.463 1077.35 Q737.463 1079.15 736.561 1080.12 Q735.659 1081.05 734.435 1081.05 Q733.437 1081.05 732.89 1080.47 Q732.374 1079.89 732.374 1079.12 Q732.374 1077.99 733.276 1077.09 Q734.21 1076.19 735.563 1076.15 Q735.112 1074.96 733.92 1074.25 Q732.729 1073.51 731.666 1073.32 Q730.635 1073.13 729.605 1073.13 Q727.576 1073.13 726.03 1073.77 Q724.484 1074.42 723.711 1075.41 Q722.938 1076.38 722.584 1077.31 Q722.229 1078.25 722.229 1079.05 Q722.229 1079.76 722.39 1080.34 Q722.584 1080.89 723.035 1081.31 Q723.485 1081.69 723.808 1081.95 Q724.162 1082.21 724.935 1082.43 Q725.708 1082.66 726.03 1082.76 Q726.352 1082.82 727.254 1083.01 Q729.121 1083.4 729.959 1083.63 Q730.796 1083.82 731.891 1084.37 Q733.018 1084.91 733.856 1085.78 Q735.885 1087.81 735.885 1090.61 Q735.885 1091.65 735.53 1092.9 Q735.208 1094.16 734.274 1095.74 Q733.34 1097.31 731.923 1098.57 Q730.506 1099.83 728.059 1100.7 Q725.643 1101.56 722.616 1101.56 Q718.397 1101.56 715.788 1099.79 Q713.18 1097.99 713.18 1095.16 Q713.18 1093.09 714.307 1091.97 Q715.434 1090.81 716.883 1090.81 Q717.978 1090.81 718.655 1091.42 Q719.331 1092 719.331 1093.09 Q719.331 1094.58 718.139 1095.7 Q716.948 1096.83 715.176 1096.6 Q716.69 1100.08 722.68 1100.08 Q724.935 1100.08 726.674 1099.5 Q728.445 1098.89 729.411 1098.05 Q730.41 1097.18 731.054 1096.12 Q731.698 1095.06 731.891 1094.25 Q732.117 1093.45 732.117 1092.84 Q732.117 1091.77 731.698 1090.97 Q731.279 1090.16 730.7 1089.71 Q730.152 1089.23 729.089 1088.84 Q728.059 1088.42 727.318 1088.26 Q726.577 1088.1 725.257 1087.84 Q724.645 1087.72 724.258 1087.65 Q723.872 1087.56 723.067 1087.3 Q722.294 1087.01 721.746 1086.72 Q721.231 1086.43 720.555 1085.91 Q719.878 1085.4 719.46 1084.79 Q719.041 1084.17 718.751 1083.27 Q718.461 1082.37 718.461 1081.31 Q718.461 1080.34 718.751 1079.18 Q719.073 1078.02 719.878 1076.67 Q720.716 1075.32 721.907 1074.22 Q723.099 1073.13 725.096 1072.42 Q727.125 1071.68 729.605 1071.68 Q733.212 1071.68 735.337 1073.35 Q737.463 1074.99 737.463 1077.35 Z" fill="#000000" fill-rule="nonzero" fill-opacity="1" /><polyline clip-path="url(#clip522)" style="stroke:#808080; stroke-linecap:round; stroke-linejoin:round; stroke-width:2; stroke-opacity:0.1; fill:none" points="247.989,984.237 1152.76,984.237 "/>
<polyline clip-path="url(#clip522)" style="stroke:#808080; stroke-linecap:round; stroke-linejoin:round; stroke-width:2; stroke-opacity:0.1; fill:none" points="247.989,796.838 1152.76,796.838 "/>
<polyline clip-path="url(#clip522)" style="stroke:#808080; stroke-linecap:round; stroke-linejoin:round; stroke-width:2; stroke-opacity:0.1; fill:none" points="247.989,609.44 1152.76,609.44 "/>
<polyline clip-path="url(#clip522)" style="stroke:#808080; stroke-linecap:round; stroke-linejoin:round; stroke-width:2; stroke-opacity:0.1; fill:none" points="247.989,422.041 1152.76,422.041 "/>
<polyline clip-path="url(#clip522)" style="stroke:#808080; stroke-linecap:round; stroke-linejoin:round; stroke-width:2; stroke-opacity:0.1; fill:none" points="247.989,234.643 1152.76,234.643 "/>
<polyline clip-path="url(#clip522)" style="stroke:#808080; stroke-linecap:round; stroke-linejoin:round; stroke-width:2; stroke-opacity:0.1; fill:none" points="247.989,47.2441 1152.76,47.2441 "/>
<polyline clip-path="url(#clip520)" style="stroke:#000000; stroke-linecap:round; stroke-linejoin:round; stroke-width:4; stroke-opacity:1; fill:none" points="247.989,984.237 247.989,47.2441 "/>
<polyline clip-path="url(#clip520)" style="stroke:#000000; stroke-linecap:round; stroke-linejoin:round; stroke-width:4; stroke-opacity:1; fill:none" points="1152.76,984.237 1152.76,47.2441 "/>
<polyline clip-path="url(#clip520)" style="stroke:#000000; stroke-linecap:round; stroke-linejoin:round; stroke-width:4; stroke-opacity:1; fill:none" points="247.989,984.237 266.886,984.237 "/>
<polyline clip-path="url(#clip520)" style="stroke:#000000; stroke-linecap:round; stroke-linejoin:round; stroke-width:4; stroke-opacity:1; fill:none" points="247.989,796.838 266.886,796.838 "/>
<polyline clip-path="url(#clip520)" style="stroke:#000000; stroke-linecap:round; stroke-linejoin:round; stroke-width:4; stroke-opacity:1; fill:none" points="247.989,609.44 266.886,609.44 "/>
<polyline clip-path="url(#clip520)" style="stroke:#000000; stroke-linecap:round; stroke-linejoin:round; stroke-width:4; stroke-opacity:1; fill:none" points="247.989,422.041 266.886,422.041 "/>
<polyline clip-path="url(#clip520)" style="stroke:#000000; stroke-linecap:round; stroke-linejoin:round; stroke-width:4; stroke-opacity:1; fill:none" points="247.989,234.643 266.886,234.643 "/>
<polyline clip-path="url(#clip520)" style="stroke:#000000; stroke-linecap:round; stroke-linejoin:round; stroke-width:4; stroke-opacity:1; fill:none" points="247.989,47.2441 266.886,47.2441 "/>
<g clip-path="url(#clip520)">
<text style="fill:#000000; fill-opacity:1; font-family:Book Antiqua,Palatino,Palatino Linotype,Palatino LT STD,Georgia,serif; font-size:51px; font-weight:bold; text-anchor:middle;" transform="rotate(0, 187.004, 1001.74)" x="187.004" y="1001.74">−0.4</text>
</g>
<g clip-path="url(#clip520)">
<text style="fill:#000000; fill-opacity:1; font-family:Book Antiqua,Palatino,Palatino Linotype,Palatino LT STD,Georgia,serif; font-size:51px; font-weight:bold; text-anchor:middle;" transform="rotate(0, 187.004, 814.338)" x="187.004" y="814.338">−0.3</text>
</g>
<g clip-path="url(#clip520)">
<text style="fill:#000000; fill-opacity:1; font-family:Book Antiqua,Palatino,Palatino Linotype,Palatino LT STD,Georgia,serif; font-size:51px; font-weight:bold; text-anchor:middle;" transform="rotate(0, 187.004, 626.94)" x="187.004" y="626.94">−0.2</text>
</g>
<g clip-path="url(#clip520)">
<text style="fill:#000000; fill-opacity:1; font-family:Book Antiqua,Palatino,Palatino Linotype,Palatino LT STD,Georgia,serif; font-size:51px; font-weight:bold; text-anchor:middle;" transform="rotate(0, 187.004, 439.541)" x="187.004" y="439.541">−0.1</text>
</g>
<g clip-path="url(#clip520)">
<text style="fill:#000000; fill-opacity:1; font-family:Book Antiqua,Palatino,Palatino Linotype,Palatino LT STD,Georgia,serif; font-size:51px; font-weight:bold; text-anchor:middle;" transform="rotate(0, 198.271, 252.143)" x="198.271" y="252.143">0.0</text>
</g>
<g clip-path="url(#clip520)">
<text style="fill:#000000; fill-opacity:1; font-family:Book Antiqua,Palatino,Palatino Linotype,Palatino LT STD,Georgia,serif; font-size:51px; font-weight:bold; text-anchor:middle;" transform="rotate(0, 198.271, 64.7441)" x="198.271" y="64.7441">0.1</text>
</g>
<path clip-path="url(#clip520)" d="M113.196 660.102 Q112.938 660.102 111.264 659.233 Q109.557 658.363 103.47 655.304 Q97.3508 652.244 90.9418 649.088 L68.0757 637.719 Q66.6264 636.914 66.6264 635.883 Q66.6264 634.95 67.2061 634.531 Q67.7858 634.112 71.6827 632.18 Q73.5829 631.181 74.8067 630.602 L112.133 611.955 Q112.938 611.632 113.196 611.6 Q113.84 611.6 113.84 612.727 L113.84 658.363 Q113.84 660.102 113.196 660.102 M108.816 655.754 L108.816 620.264 L73.1964 638.009 L108.816 655.754 Z" fill="#000000" fill-rule="nonzero" fill-opacity="1" /><path clip-path="url(#clip520)" d="M71.876 572.569 Q73.6473 572.569 74.7423 573.696 Q75.8373 574.791 75.8373 576.176 Q75.8373 577.175 75.2254 577.915 Q74.6134 578.624 73.5507 578.624 Q72.4557 578.624 71.2962 577.787 Q70.1368 576.949 69.9758 575.049 Q68.7842 576.305 68.7842 578.302 Q68.7842 579.3 69.4283 580.138 Q70.0402 580.943 71.0386 581.394 Q72.0692 581.877 77.8984 582.972 Q79.7986 583.326 81.6343 583.648 Q83.4701 583.97 85.4024 584.357 L85.4024 578.882 Q85.4024 578.173 85.4346 577.883 Q85.4668 577.593 85.6279 577.368 Q85.7889 577.11 86.1431 577.11 Q87.0449 577.11 87.2704 577.529 Q87.4636 577.915 87.4636 579.075 L87.4636 584.743 L108.365 588.704 Q108.977 588.801 110.909 589.22 Q112.81 589.606 115.934 590.54 Q119.09 591.474 120.958 592.408 Q122.02 592.923 123.019 593.6 Q124.049 594.244 125.08 595.178 Q126.111 596.112 126.723 597.335 Q127.367 598.559 127.367 599.848 Q127.367 602.038 126.143 603.744 Q124.919 605.451 122.826 605.451 Q121.054 605.451 119.959 604.356 Q118.864 603.229 118.864 601.844 Q118.864 600.846 119.476 600.137 Q120.088 599.397 121.151 599.397 Q121.602 599.397 122.117 599.558 Q122.632 599.719 123.212 600.073 Q123.824 600.427 124.243 601.2 Q124.661 601.973 124.726 603.036 Q125.917 601.78 125.917 599.848 Q125.917 599.236 125.66 598.688 Q125.434 598.141 124.855 597.69 Q124.275 597.207 123.695 596.852 Q123.148 596.498 122.085 596.144 Q121.054 595.79 120.281 595.564 Q119.508 595.339 118.124 595.049 Q116.739 594.727 115.901 594.566 Q115.096 594.405 113.518 594.115 L87.4636 589.187 L87.4636 593.535 Q87.4636 594.308 87.4314 594.63 Q87.3992 594.92 87.2381 595.145 Q87.0449 595.371 86.6584 595.371 Q86.0465 595.371 85.7889 595.113 Q85.499 594.823 85.4668 594.501 Q85.4024 594.179 85.4024 593.406 L85.4024 588.833 Q77.2543 587.287 75.0643 586.675 Q72.7455 585.967 71.1352 584.872 Q69.4927 583.777 68.7198 582.553 Q67.9468 581.329 67.657 580.331 Q67.3349 579.3 67.3349 578.302 Q67.3349 576.047 68.5587 574.308 Q69.7504 572.569 71.876 572.569 Z" fill="#000000" fill-rule="nonzero" fill-opacity="1" /><path clip-path="url(#clip520)" d="M97.3508 563.689 Q86.2076 563.689 77.2221 559.535 Q73.454 557.763 70.2979 555.283 Q67.1417 552.804 65.7568 551.161 Q64.372 549.519 64.372 549.068 Q64.372 548.424 65.0161 548.391 Q65.3382 548.391 66.1433 549.261 Q76.9645 559.889 97.3508 559.857 Q117.802 559.857 128.204 549.519 Q129.331 548.391 129.685 548.391 Q130.33 548.391 130.33 549.068 Q130.33 549.519 129.009 551.097 Q127.689 552.675 124.661 555.122 Q121.634 557.57 117.93 559.341 Q108.945 563.689 97.3508 563.689 Z" fill="#000000" fill-rule="nonzero" fill-opacity="1" /><path clip-path="url(#clip520)" d="M86.1431 523.12 Q87.0449 523.12 87.2704 523.539 Q87.4636 523.958 87.4636 525.117 L87.4636 531.301 L106.916 536.196 Q108.623 536.582 110.072 536.582 Q111.682 536.582 112.391 536.099 Q113.099 535.584 113.099 534.521 Q113.099 532.428 111.199 530.173 Q109.299 527.887 104.662 525.954 Q104.05 525.697 103.921 525.568 Q103.76 525.407 103.76 524.988 Q103.76 524.183 104.404 524.183 Q104.629 524.183 105.66 524.634 Q106.69 525.053 108.204 525.987 Q109.718 526.888 111.135 528.08 Q112.552 529.239 113.583 531.011 Q114.581 532.782 114.581 534.682 Q114.581 537.355 112.874 539.062 Q111.167 540.737 108.494 540.737 Q107.624 540.737 104.855 540.061 Q102.053 539.384 87.4636 535.713 L87.4636 541.542 Q87.4636 542.347 87.4314 542.669 Q87.3992 542.959 87.2381 543.185 Q87.0449 543.378 86.6584 543.378 Q86.0465 543.378 85.7889 543.12 Q85.499 542.862 85.4668 542.54 Q85.4024 542.186 85.4024 541.381 L85.4024 535.197 L74.9355 532.621 Q73.9049 532.363 73.3252 531.719 Q72.7133 531.043 72.6489 530.656 Q72.5523 530.27 72.5523 529.98 Q72.5523 529.111 73.0354 528.595 Q73.4862 528.08 74.3236 528.08 Q74.7745 528.08 85.4024 530.785 L85.4024 524.988 Q85.4024 524.247 85.4346 523.958 Q85.4668 523.636 85.6279 523.378 Q85.7889 523.12 86.1431 523.12 Z" fill="#000000" fill-rule="nonzero" fill-opacity="1" /><path clip-path="url(#clip520)" d="M129.685 517.957 Q129.363 517.957 128.558 517.119 Q117.737 506.491 97.3508 506.491 Q76.9001 506.491 66.562 516.701 Q65.3704 517.957 65.0161 517.957 Q64.372 517.957 64.372 517.313 Q64.372 516.862 65.6924 515.284 Q67.0129 513.673 70.0402 511.258 Q73.0676 508.81 76.7712 507.007 Q85.7567 502.659 97.3508 502.659 Q108.494 502.659 117.479 506.814 Q121.248 508.585 124.404 511.065 Q127.56 513.545 128.945 515.187 Q130.33 516.83 130.33 517.313 Q130.33 517.957 129.685 517.957 Z" fill="#000000" fill-rule="nonzero" fill-opacity="1" /><path clip-path="url(#clip520)" d="M129.396 492.629 Q129.074 492.629 128.365 492.372 L66.1433 469.087 Q66.0789 469.087 65.7246 468.926 Q65.3704 468.765 65.1449 468.668 Q64.8873 468.572 64.694 468.378 Q64.5008 468.153 64.5008 467.895 Q64.5008 467.251 65.306 467.251 Q65.3704 467.251 66.1433 467.444 L128.429 490.794 Q129.557 491.18 129.879 491.438 Q130.201 491.663 130.201 492.05 Q130.201 492.629 129.396 492.629 Z" fill="#000000" fill-rule="nonzero" fill-opacity="1" /><path clip-path="url(#clip520)" d="M69.5249 404.442 Q70.4589 404.442 70.6521 404.861 Q70.8454 405.248 70.8454 406.665 Q70.8454 409.08 71.1674 410.175 Q71.4573 411.238 71.9726 411.56 Q72.4557 411.85 73.8727 412.204 L109.492 421.125 Q109.525 421.125 109.975 421.222 Q110.394 421.318 110.62 421.318 Q111.038 421.318 111.296 421.061 Q111.554 420.771 111.682 420.062 Q111.779 419.354 111.811 418.806 Q111.811 418.226 111.811 417.035 Q111.811 415.553 112.069 415.328 Q112.23 415.199 112.52 415.199 Q113.132 415.199 113.454 415.457 Q113.744 415.682 113.808 415.908 Q113.84 416.101 113.84 416.487 Q113.84 417.164 113.776 418.613 Q113.711 420.062 113.711 420.803 L113.647 425.022 L113.84 433.395 Q113.84 434.297 113.099 434.297 Q112.455 434.297 112.165 434.072 Q111.876 433.846 111.843 433.621 Q111.811 433.363 111.811 432.719 Q111.811 429.402 111.489 428.307 Q111.135 427.18 109.621 426.729 L91.4249 422.188 L91.4249 442.284 L109.492 446.793 Q109.525 446.793 109.975 446.89 Q110.394 446.986 110.62 446.986 Q111.038 446.986 111.296 446.729 Q111.554 446.439 111.682 445.73 Q111.779 445.022 111.811 444.474 Q111.811 443.895 111.811 442.703 Q111.811 441.221 112.069 440.964 Q112.23 440.835 112.52 440.835 Q112.971 440.835 113.293 440.964 Q113.583 441.06 113.679 441.318 Q113.776 441.544 113.808 441.705 Q113.84 441.866 113.84 442.155 Q113.84 442.832 113.776 444.281 Q113.711 445.698 113.711 446.439 L113.647 450.658 L113.84 459.031 Q113.84 459.965 113.099 459.965 Q112.455 459.965 112.198 459.74 Q111.908 459.514 111.876 459.225 Q111.811 458.935 111.811 458.194 Q111.811 456.584 111.715 455.617 Q111.618 454.651 111.489 454.039 Q111.328 453.395 110.877 453.073 Q110.426 452.719 110.04 452.558 Q109.621 452.397 108.687 452.171 L73.2608 443.347 Q72.198 443.089 72.037 443.089 Q71.4251 443.089 71.264 443.476 Q71.0708 443.83 70.9742 444.861 L70.8454 447.373 Q70.8454 448.146 70.8132 448.468 Q70.781 448.758 70.6199 448.983 Q70.4589 449.209 70.1046 449.209 Q69.6537 449.209 69.3639 449.112 Q69.0418 448.983 68.9452 448.758 Q68.8486 448.532 68.8164 448.371 Q68.7842 448.21 68.7842 447.952 L68.9774 439.45 L68.7842 431.012 Q68.7842 430.078 69.5249 430.078 Q70.4589 430.078 70.6521 430.497 Q70.8454 430.916 70.8454 432.333 Q70.8454 434.684 71.1674 435.779 Q71.4573 436.874 71.9726 437.228 Q72.4879 437.55 73.8727 437.872 L89.3637 441.769 L89.3637 421.64 L73.2608 417.679 Q72.1014 417.421 72.037 417.421 Q71.4251 417.421 71.264 417.808 Q71.0708 418.162 70.9742 419.193 L70.8454 421.705 Q70.8454 422.478 70.8132 422.8 Q70.781 423.09 70.6199 423.347 Q70.4589 423.573 70.1046 423.573 Q69.6537 423.573 69.3639 423.476 Q69.0418 423.347 68.9452 423.122 Q68.8486 422.896 68.8164 422.735 Q68.7842 422.574 68.7842 422.317 L68.9774 413.814 L68.7842 405.344 Q68.7842 404.442 69.5249 404.442 Z" fill="#000000" fill-rule="nonzero" fill-opacity="1" /><path clip-path="url(#clip520)" d="M85.338 373.791 Q85.5634 373.791 86.5296 374.339 Q87.4636 374.854 89.8146 376.754 Q92.1656 378.654 94.9031 381.488 Q95.9659 382.551 97.4474 384.162 Q98.9289 385.772 99.8951 386.867 L100.861 387.962 Q104.404 392.149 108.365 395.82 Q108.269 395.562 108.236 395.112 Q108.172 394.661 108.172 394.339 L108.172 394.017 Q108.172 392.342 109.299 389.411 Q110.137 386.835 110.137 385.514 Q110.137 384.226 109.686 382.809 Q109.235 381.392 107.914 379.846 Q106.594 378.3 104.597 377.592 Q104.275 377.463 104.178 377.398 Q104.05 377.334 103.921 377.141 Q103.76 376.947 103.76 376.69 Q103.76 376.336 103.953 376.11 Q104.146 375.885 104.404 375.885 Q104.984 375.885 106.143 376.336 Q107.302 376.754 108.752 377.688 Q110.201 378.59 111.521 379.782 Q112.81 380.941 113.711 382.68 Q114.581 384.419 114.581 386.255 Q114.581 387.575 113.937 388.542 Q113.325 389.508 112.133 390.474 Q110.62 391.794 110.137 392.503 Q109.621 393.211 109.621 394.306 Q109.621 397.237 113.711 399.91 Q114.291 400.2 114.42 400.393 Q114.581 400.554 114.581 400.941 Q114.549 401.746 113.905 401.746 Q113.647 401.746 112.52 401.037 Q111.36 400.297 109.331 398.654 Q107.302 396.979 105.273 394.951 L99.734 389.025 Q94.1946 382.455 91.0706 379.846 Q91.0706 380.941 91.0384 381.424 Q91.0062 381.875 90.813 382.777 Q90.5876 383.678 90.1045 384.934 Q89.1061 387.865 89.1061 389.089 Q89.1061 389.411 89.1383 389.765 Q89.1705 390.12 89.3315 390.925 Q89.4926 391.698 89.8146 392.342 Q90.1045 392.986 90.7486 393.662 Q91.3605 394.339 92.1978 394.693 Q92.4555 394.789 92.5843 394.854 Q92.7131 394.918 92.842 395.112 Q92.9386 395.273 92.9386 395.53 Q92.9386 395.917 92.7131 396.142 Q92.4877 396.335 92.1978 396.335 Q91.6181 396.335 90.4265 395.756 Q89.2349 395.176 87.9467 394.21 Q86.6262 393.244 85.6601 391.666 Q84.6939 390.087 84.6939 388.348 Q84.6939 387.318 85.1448 386.448 Q85.5956 385.546 86.0787 385.096 Q86.5296 384.612 87.528 383.807 Q88.3009 383.131 88.623 382.809 Q88.9451 382.487 89.2993 381.843 Q89.6214 381.166 89.6214 380.426 Q89.6214 379.202 88.6874 378.075 Q87.7212 376.947 85.4024 375.498 Q84.6939 375.112 84.6939 374.5 Q84.6939 373.791 85.338 373.791 Z" fill="#000000" fill-rule="nonzero" fill-opacity="1" /><polyline clip-path="url(#clip522)" style="stroke:#ffa500; stroke-linecap:round; stroke-linejoin:round; stroke-width:12; stroke-opacity:0.75; fill:none" points="247.989,234.643 249.497,263.565 251.005,291.755 252.513,319.037 254.021,345.428 255.529,370.943 257.036,395.596 258.544,419.402 260.052,442.377 261.56,464.536 263.068,485.893 264.576,506.465 266.084,526.265 267.592,545.31 269.1,563.613 270.608,581.191 272.116,598.058 273.624,614.228 275.132,629.717 276.64,644.539 278.148,658.709 279.656,672.241 281.164,685.149 282.672,697.449 284.179,709.154 285.687,720.279 287.195,730.836 288.703,740.84 290.211,750.306 291.719,759.245 293.227,767.672 294.735,775.6 296.243,783.042 297.751,790.01 299.259,796.519 300.767,802.58 302.275,808.205 303.783,813.408 305.291,818.2 306.799,822.594 308.307,826.6 309.815,830.231 311.322,833.498 312.83,836.413 314.338,838.986 315.846,841.229 317.354,843.152 318.862,844.766 320.37,846.08 321.878,847.107 323.386,847.854 324.894,848.333 326.402,848.553 327.91,848.523 329.418,848.253 330.926,847.751 332.434,847.027 333.942,846.09 335.45,844.948 336.958,843.61 338.466,842.083 339.973,840.376 341.481,838.496 342.989,836.452 344.497,834.251 346.005,831.9 347.513,829.406 349.021,826.777 350.529,824.019 352.037,821.139 353.545,818.143 355.053,815.039 356.561,811.831 358.069,808.526 359.577,805.131 361.085,801.65 362.593,798.089 364.101,794.454 365.609,790.75 367.116,786.981 368.624,783.154 370.132,779.273 371.64,775.342 373.148,771.366 374.656,767.35 376.164,763.297 377.672,759.212 379.18,755.099 380.688,750.962 382.196,746.804 383.704,742.629 385.212,738.441 386.72,734.243 388.228,730.039 389.736,725.83 391.244,721.621 392.752,717.414 394.259,713.213 395.767,709.019 397.275,704.836 398.783,700.665 400.291,696.51 401.799,692.373 403.307,688.255 404.815,684.159 406.323,680.087 407.831,676.041 409.339,672.023 410.847,668.034 412.355,664.076 413.863,660.15 415.371,656.259 416.879,652.403 418.387,648.583 419.895,644.802 421.402,641.06 422.91,637.359 424.418,633.699 425.926,630.081 427.434,626.507 428.942,622.977 430.45,619.491 431.958,616.052 433.466,612.658 434.974,609.312 436.482,606.013 437.99,602.762 439.498,599.56 441.006,596.406 442.514,593.302 444.022,590.247 445.53,587.242 447.038,584.287 448.546,581.382 450.053,578.527 451.561,575.723 453.069,572.97 454.577,570.266 456.085,567.613 457.593,565.011 459.101,562.459 460.609,559.957 462.117,557.505 463.625,555.103 465.133,552.75 466.641,550.447 468.149,548.194 469.657,545.989 471.165,543.833 472.673,541.725 474.181,539.665 475.689,537.652 477.196,535.687 478.704,533.769 480.212,531.897 481.72,530.071 483.228,528.29 484.736,526.554 486.244,524.863 487.752,523.216 489.26,521.613 490.768,520.052 492.276,518.534 493.784,517.058 495.292,515.623 496.8,514.23 498.308,512.876 499.816,511.562 501.324,510.288 502.832,509.052 504.339,507.854 505.847,506.693 507.355,505.569 508.863,504.482 510.371,503.43 511.879,502.413 513.387,501.43 514.895,500.481 516.403,499.566 517.911,498.683 519.419,497.832 520.927,497.013 522.435,496.224 523.943,495.465 525.451,494.736 526.959,494.036 528.467,493.365 529.975,492.721 531.482,492.104 532.99,491.515 534.498,490.951 536.006,490.412 537.514,489.899 539.022,489.409 540.53,488.944 542.038,488.501 543.546,488.082 545.054,487.684 546.562,487.308 548.07,486.953 549.578,486.618 551.086,486.303 552.594,486.008 554.102,485.731 555.61,485.473 557.118,485.233 558.626,485.01 560.133,484.804 561.641,484.614 563.149,484.44 564.657,484.282 566.165,484.138 567.673,484.01 569.181,483.895 570.689,483.793 572.197,483.705 573.705,483.63 575.213,483.567 576.721,483.516 578.229,483.476 579.737,483.448 581.245,483.43 582.753,483.423 584.261,483.425 585.769,483.437 587.276,483.459 588.784,483.489 590.292,483.527 591.8,483.574 593.308,483.629 594.816,483.691 596.324,483.76 597.832,483.836 599.34,483.919 600.848,484.008 602.356,484.103 603.864,484.204 605.372,484.31 606.88,484.421 608.388,484.537 609.896,484.657 611.404,484.782 612.912,484.911 614.419,485.044 615.927,485.18 617.435,485.32 618.943,485.463 620.451,485.609 621.959,485.758 623.467,485.909 624.975,486.062 626.483,486.218 627.991,486.376 629.499,486.535 631.007,486.696 632.515,486.859 634.023,487.022 635.531,487.187 637.039,487.353 638.547,487.52 640.055,487.687 641.562,487.855 643.07,488.023 644.578,488.191 646.086,488.36 647.594,488.528 649.102,488.697 650.61,488.865 652.118,489.033 653.626,489.2 655.134,489.367 656.642,489.533 658.15,489.699 659.658,489.864 661.166,490.027 662.674,490.19 664.182,490.352 665.69,490.513 667.198,490.672 668.705,490.831 670.213,490.988 671.721,491.143 673.229,491.298 674.737,491.45 676.245,491.602 677.753,491.751 679.261,491.899 680.769,492.045 682.277,492.19 683.785,492.333 685.293,492.474 686.801,492.613 688.309,492.751 689.817,492.886 691.325,493.02 692.833,493.152 694.341,493.282 695.849,493.41 697.356,493.536 698.864,493.66 700.372,493.782 701.88,493.902 703.388,494.02 704.896,494.136 706.404,494.25 707.912,494.362 709.42,494.472 710.928,494.58 712.436,494.686 713.944,494.79 715.452,494.892 716.96,494.992 718.468,495.09 719.976,495.186 721.484,495.28 722.992,495.372 724.499,495.462 726.007,495.55 727.515,495.636 729.023,495.72 730.531,495.802 732.039,495.882 733.547,495.961 735.055,496.037 736.563,496.112 738.071,496.185 739.579,496.256 741.087,496.325 742.595,496.393 744.103,496.458 745.611,496.522 747.119,496.585 748.627,496.645 750.135,496.704 751.642,496.761 753.15,496.817 754.658,496.871 756.166,496.923 757.674,496.974 759.182,497.023 760.69,497.071 762.198,497.117 763.706,497.162 765.214,497.206 766.722,497.248 768.23,497.288 769.738,497.327 771.246,497.365 772.754,497.402 774.262,497.437 775.77,497.471 777.278,497.503 778.785,497.535 780.293,497.565 781.801,497.594 783.309,497.622 784.817,497.649 786.325,497.674 787.833,497.699 789.341,497.722 790.849,497.745 792.357,497.766 793.865,497.786 795.373,497.806 796.881,497.824 798.389,497.842 799.897,497.859 801.405,497.875 802.913,497.889 804.421,497.904 805.929,497.917 807.436,497.929 808.944,497.941 810.452,497.952 811.96,497.962 813.468,497.972 814.976,497.981 816.484,497.989 817.992,497.996 819.5,498.003 821.008,498.009 822.516,498.015 824.024,498.02 825.532,498.025 827.04,498.029 828.548,498.032 830.056,498.035 831.564,498.038 833.072,498.04 834.579,498.041 836.087,498.042 837.595,498.043 839.103,498.043 840.611,498.043 842.119,498.042 843.627,498.041 845.135,498.04 846.643,498.039 848.151,498.037 849.659,498.034 851.167,498.032 852.675,498.029 854.183,498.026 855.691,498.023 857.199,498.019 858.707,498.015 860.215,498.011 861.722,498.007 863.23,498.003 864.738,497.998 866.246,497.993 867.754,497.988 869.262,497.983 870.77,497.977 872.278,497.972 873.786,497.966 875.294,497.961 876.802,497.955 878.31,497.949 879.818,497.943 881.326,497.937 882.834,497.93 884.342,497.924 885.85,497.918 887.358,497.911 888.865,497.905 890.373,497.898 891.881,497.891 893.389,497.885 894.897,497.878 896.405,497.871 897.913,497.865 899.421,497.858 900.929,497.851 902.437,497.844 903.945,497.838 905.453,497.831 906.961,497.824 908.469,497.818 909.977,497.811 911.485,497.804 912.993,497.798 914.501,497.791 916.009,497.784 917.516,497.778 919.024,497.771 920.532,497.765 922.04,497.758 923.548,497.752 925.056,497.746 926.564,497.739 928.072,497.733 929.58,497.727 931.088,497.721 932.596,497.715 934.104,497.709 935.612,497.703 937.12,497.697 938.628,497.691 940.136,497.686 941.644,497.68 943.152,497.674 944.659,497.669 946.167,497.663 947.675,497.658 949.183,497.653 950.691,497.648 952.199,497.642 953.707,497.637 955.215,497.633 956.723,497.628 958.231,497.623 959.739,497.618 961.247,497.613 962.755,497.609 964.263,497.604 965.771,497.6 967.279,497.596 968.787,497.592 970.295,497.587 971.802,497.583 973.31,497.579 974.818,497.575 976.326,497.572 977.834,497.568 979.342,497.564 980.85,497.561 982.358,497.557 983.866,497.554 985.374,497.55 986.882,497.547 988.39,497.544 989.898,497.541 991.406,497.538 992.914,497.535 994.422,497.532 995.93,497.529 997.438,497.526 998.945,497.523 1000.45,497.521 1001.96,497.518 1003.47,497.516 1004.98,497.513 1006.49,497.511 1007.99,497.509 1009.5,497.506 1011.01,497.504 1012.52,497.502 1014.02,497.5 1015.53,497.498 1017.04,497.496 1018.55,497.494 1020.06,497.493 1021.56,497.491 1023.07,497.489 1024.58,497.488 1026.09,497.486 1027.6,497.485 1029.1,497.483 1030.61,497.482 1032.12,497.48 1033.63,497.479 1035.14,497.478 1036.64,497.477 1038.15,497.476 1039.66,497.474 1041.17,497.473 1042.68,497.472 1044.18,497.471 1045.69,497.47 1047.2,497.47 1048.71,497.469 1050.22,497.468 1051.72,497.467 1053.23,497.466 1054.74,497.466 1056.25,497.465 1057.76,497.464 1059.26,497.464 1060.77,497.463 1062.28,497.463 1063.79,497.462 1065.3,497.462 1066.8,497.461 1068.31,497.461 1069.82,497.46 1071.33,497.46 1072.83,497.46 1074.34,497.46 1075.85,497.459 1077.36,497.459 1078.87,497.459 1080.37,497.459 1081.88,497.458 1083.39,497.458 1084.9,497.458 1086.41,497.458 1087.91,497.458 1089.42,497.458 1090.93,497.458 1092.44,497.458 1093.95,497.458 1095.45,497.458 1096.96,497.458 1098.47,497.458 1099.98,497.458 1101.49,497.458 1102.99,497.458 1104.5,497.458 1106.01,497.458 1107.52,497.458 1109.03,497.458 1110.53,497.458 1112.04,497.459 1113.55,497.459 1115.06,497.459 1116.57,497.459 1118.07,497.459 1119.58,497.459 1121.09,497.46 1122.6,497.46 1124.1,497.46 1125.61,497.46 1127.12,497.46 1128.63,497.461 1130.14,497.461 1131.64,497.461 1133.15,497.461 1134.66,497.461 1136.17,497.462 1137.68,497.462 1139.18,497.462 1140.69,497.462 1142.2,497.463 1143.71,497.463 1145.22,497.463 1146.72,497.464 1148.23,497.464 1149.74,497.464 1151.25,497.464 1152.76,497.465 1154.26,497.465 1155.77,497.465 1157.28,497.465 1158.79,497.466 1160.3,497.466 1161.8,497.466 1163.31,497.466 1164.82,497.467 1166.33,497.467 1167.84,497.467 1169.34,497.468 1170.85,497.468 1172.36,497.468 1173.87,497.468 1175.38,497.469 1176.88,497.469 1178.39,497.469 1179.9,497.469 1181.41,497.47 1182.91,497.47 1184.42,497.47 1185.93,497.47 1187.44,497.471 1188.95,497.471 1190.45,497.471 1191.96,497.471 1193.47,497.472 1194.98,497.472 1196.49,497.472 1197.99,497.472 1199.5,497.472 1201.01,497.473 1202.52,497.473 1204.03,497.473 1205.53,497.473 1207.04,497.474 1208.55,497.474 1210.06,497.474 1211.57,497.474 1213.07,497.474 1214.58,497.475 1216.09,497.475 1217.6,497.475 1219.11,497.475 1220.61,497.475 1222.12,497.475 1223.63,497.476 1225.14,497.476 1226.65,497.476 1228.15,497.476 1229.66,497.476 1231.17,497.476 1232.68,497.477 1234.18,497.477 1235.69,497.477 1237.2,497.477 1238.71,497.477 1240.22,497.477 1241.72,497.477 1243.23,497.478 1244.74,497.478 1246.25,497.478 1247.76,497.478 1249.26,497.478 1250.77,497.478 1252.28,497.478 1253.79,497.478 1255.3,497.478 1256.8,497.479 1258.31,497.479 1259.82,497.479 1261.33,497.479 1262.84,497.479 1264.34,497.479 1265.85,497.479 1267.36,497.479 1268.87,497.479 1270.38,497.479 1271.88,497.479 1273.39,497.48 1274.9,497.48 1276.41,497.48 1277.92,497.48 1279.42,497.48 1280.93,497.48 1282.44,497.48 1283.95,497.48 1285.46,497.48 1286.96,497.48 1288.47,497.48 1289.98,497.48 1291.49,497.48 1292.99,497.48 1294.5,497.48 1296.01,497.48 1297.52,497.48 1299.03,497.481 1300.53,497.481 1302.04,497.481 1303.55,497.481 1305.06,497.481 1306.57,497.481 1308.07,497.481 1309.58,497.481 1311.09,497.481 1312.6,497.481 1314.11,497.481 1315.61,497.481 1317.12,497.481 1318.63,497.481 1320.14,497.481 1321.65,497.481 1323.15,497.481 1324.66,497.481 1326.17,497.481 1327.68,497.481 1329.19,497.481 1330.69,497.481 1332.2,497.481 1333.71,497.481 1335.22,497.481 1336.73,497.481 1338.23,497.481 1339.74,497.481 1341.25,497.481 1342.76,497.481 1344.26,497.481 1345.77,497.481 1347.28,497.481 1348.79,497.481 1350.3,497.481 1351.8,497.481 1353.31,497.481 1354.82,497.481 1356.33,497.481 1357.84,497.481 1359.34,497.481 1360.85,497.481 1362.36,497.481 1363.87,497.481 1365.38,497.481 1366.88,497.481 1368.39,497.481 1369.9,497.481 1371.41,497.481 1372.92,497.481 1374.42,497.481 1375.93,497.481 1377.44,497.481 1378.95,497.481 1380.46,497.481 1381.96,497.481 1383.47,497.481 1384.98,497.481 1386.49,497.481 1388,497.481 1389.5,497.481 1391.01,497.481 1392.52,497.481 1394.03,497.481 1395.54,497.481 1397.04,497.481 1398.55,497.481 1400.06,497.481 1401.57,497.481 1403.07,497.481 1404.58,497.481 1406.09,497.481 1407.6,497.481 1409.11,497.481 1410.61,497.481 1412.12,497.481 1413.63,497.481 1415.14,497.481 1416.65,497.481 1418.15,497.481 1419.66,497.481 1421.17,497.481 1422.68,497.481 1424.19,497.481 1425.69,497.481 1427.2,497.481 1428.71,497.481 1430.22,497.481 1431.73,497.481 1433.23,497.481 1434.74,497.481 1436.25,497.481 1437.76,497.481 1439.27,497.481 1440.77,497.481 1442.28,497.481 1443.79,497.481 1445.3,497.481 1446.81,497.481 1448.31,497.481 1449.82,497.481 1451.33,497.481 1452.84,497.481 1454.34,497.481 1455.85,497.481 1457.36,497.481 1458.87,497.48 1460.38,497.48 1461.88,497.48 1463.39,497.48 1464.9,497.48 1466.41,497.48 1467.92,497.48 1469.42,497.48 1470.93,497.48 1472.44,497.48 1473.95,497.48 1475.46,497.48 1476.96,497.48 1478.47,497.48 1479.98,497.48 1481.49,497.48 1483,497.48 1484.5,497.48 1486.01,497.48 1487.52,497.48 1489.03,497.48 1490.54,497.48 1492.04,497.48 1493.55,497.48 1495.06,497.48 1496.57,497.48 1498.08,497.48 1499.58,497.48 1501.09,497.48 1502.6,497.48 1504.11,497.48 1505.62,497.48 1507.12,497.48 1508.63,497.48 1510.14,497.48 1511.65,497.48 1513.15,497.48 1514.66,497.48 1516.17,497.48 1517.68,497.48 1519.19,497.48 1520.69,497.48 1522.2,497.48 1523.71,497.48 1525.22,497.48 1526.73,497.48 1528.23,497.48 1529.74,497.48 1531.25,497.48 1532.76,497.48 1534.27,497.48 1535.77,497.48 1537.28,497.48 1538.79,497.48 1540.3,497.48 1541.81,497.48 1543.31,497.48 1544.82,497.48 1546.33,497.48 1547.84,497.48 1549.35,497.48 1550.85,497.48 1552.36,497.48 1553.87,497.48 1555.38,497.48 1556.89,497.48 1558.39,497.48 1559.9,497.48 1561.41,497.48 1562.92,497.48 1564.42,497.48 1565.93,497.48 1567.44,497.48 1568.95,497.48 1570.46,497.48 1571.96,497.48 1573.47,497.48 1574.98,497.48 1576.49,497.48 1578,497.48 1579.5,497.48 1581.01,497.48 1582.52,497.48 1584.03,497.48 1585.54,497.48 1587.04,497.48 1588.55,497.48 1590.06,497.48 1591.57,497.48 1593.08,497.48 1594.58,497.48 1596.09,497.48 1597.6,497.48 1599.11,497.48 1600.62,497.48 1602.12,497.48 1603.63,497.48 1605.14,497.48 1606.65,497.48 1608.16,497.48 1609.66,497.48 1611.17,497.48 1612.68,497.48 1614.19,497.48 1615.7,497.48 1617.2,497.48 1618.71,497.48 1620.22,497.48 1621.73,497.48 1623.23,497.48 1624.74,497.48 1626.25,497.48 1627.76,497.48 1629.27,497.48 1630.77,497.48 1632.28,497.48 1633.79,497.48 1635.3,497.48 1636.81,497.48 1638.31,497.48 1639.82,497.48 1641.33,497.48 1642.84,497.48 1644.35,497.48 1645.85,497.48 1647.36,497.48 1648.87,497.48 1650.38,497.48 1651.89,497.48 1653.39,497.48 1654.9,497.48 1656.41,497.48 1657.92,497.48 1659.43,497.48 1660.93,497.48 1662.44,497.48 1663.95,497.48 1665.46,497.48 1666.97,497.48 1668.47,497.48 1669.98,497.48 1671.49,497.48 1673,497.48 1674.5,497.48 1676.01,497.48 1677.52,497.48 1679.03,497.48 1680.54,497.48 1682.04,497.48 1683.55,497.48 1685.06,497.48 1686.57,497.48 1688.08,497.48 1689.58,497.48 1691.09,497.48 1692.6,497.48 1694.11,497.48 1695.62,497.48 1697.12,497.48 1698.63,497.48 1700.14,497.48 1701.65,497.48 1703.16,497.48 1704.66,497.48 1706.17,497.48 1707.68,497.48 1709.19,497.48 1710.7,497.48 1712.2,497.48 1713.71,497.48 1715.22,497.48 1716.73,497.48 1718.24,497.48 1719.74,497.48 1721.25,497.48 1722.76,497.48 1724.27,497.48 1725.78,497.48 1727.28,497.48 1728.79,497.48 1730.3,497.48 1731.81,497.48 1733.31,497.48 1734.82,497.48 1736.33,497.48 1737.84,497.48 1739.35,497.48 1740.85,497.48 1742.36,497.48 1743.87,497.48 1745.38,497.48 1746.89,497.48 1748.39,497.48 1749.9,497.48 1751.41,497.48 1752.92,497.48 1754.43,497.48 1755.93,497.48 1757.44,497.48 1758.95,497.48 1760.46,497.48 1761.97,497.48 1763.47,497.48 1764.98,497.48 1766.49,497.48 1768,497.48 1769.51,497.48 1771.01,497.48 1772.52,497.48 1774.03,497.48 1775.54,497.48 1777.05,497.48 1778.55,497.48 1780.06,497.48 1781.57,497.48 1783.08,497.48 1784.58,497.48 1786.09,497.48 1787.6,497.48 1789.11,497.48 1790.62,497.48 1792.12,497.48 1793.63,497.48 1795.14,497.48 1796.65,497.48 1798.16,497.48 1799.66,497.48 1801.17,497.48 1802.68,497.48 1804.19,497.48 1805.7,497.48 1807.2,497.48 1808.71,497.48 1810.22,497.48 1811.73,497.48 1813.24,497.48 1814.74,497.48 1816.25,497.48 1817.76,497.48 1819.27,497.48 1820.78,497.48 1822.28,497.48 1823.79,497.48 1825.3,497.48 1826.81,497.48 1828.32,497.48 1829.82,497.48 1831.33,497.48 1832.84,497.48 1834.35,497.48 1835.86,497.48 1837.36,497.48 1838.87,497.48 1840.38,497.48 1841.89,497.48 1843.39,497.48 1844.9,497.48 1846.41,497.48 1847.92,497.48 1849.43,497.48 1850.93,497.48 1852.44,497.48 1853.95,497.48 1855.46,497.48 1856.97,497.48 1858.47,497.48 1859.98,497.48 1861.49,497.48 1863,497.48 1864.51,497.48 1866.01,497.48 1867.52,497.48 1869.03,497.48 1870.54,497.48 1872.05,497.48 1873.55,497.48 1875.06,497.48 1876.57,497.48 1878.08,497.48 1879.59,497.48 1881.09,497.48 1882.6,497.48 1884.11,497.48 1885.62,497.48 1887.13,497.48 1888.63,497.48 1890.14,497.48 1891.65,497.48 1893.16,497.48 1894.66,497.48 1896.17,497.48 1897.68,497.48 1899.19,497.48 1900.7,497.48 1902.2,497.48 1903.71,497.48 1905.22,497.48 1906.73,497.48 1908.24,497.48 1909.74,497.48 1911.25,497.48 1912.76,497.48 1914.27,497.48 1915.78,497.48 1917.28,497.48 1918.79,497.48 1920.3,497.48 1921.81,497.48 1923.32,497.48 1924.82,497.48 1926.33,497.48 1927.84,497.48 1929.35,497.48 1930.86,497.48 1932.36,497.48 1933.87,497.48 1935.38,497.48 1936.89,497.48 1938.4,497.48 1939.9,497.48 1941.41,497.48 1942.92,497.48 1944.43,497.48 1945.94,497.48 1947.44,497.48 1948.95,497.48 1950.46,497.48 1951.97,497.48 1953.47,497.48 1954.98,497.48 1956.49,497.48 1958,497.48 1959.51,497.48 1961.01,497.48 1962.52,497.48 1964.03,497.48 1965.54,497.48 1967.05,497.48 1968.55,497.48 1970.06,497.48 1971.57,497.48 1973.08,497.48 1974.59,497.48 1976.09,497.48 1977.6,497.48 1979.11,497.48 1980.62,497.48 1982.13,497.48 1983.63,497.48 1985.14,497.48 1986.65,497.48 1988.16,497.48 1989.67,497.48 1991.17,497.48 1992.68,497.48 1994.19,497.48 1995.7,497.48 1997.21,497.48 1998.71,497.48 2000.22,497.48 2001.73,497.48 2003.24,497.48 2004.74,497.48 2006.25,497.48 2007.76,497.48 2009.27,497.48 2010.78,497.48 2012.28,497.48 2013.79,497.48 2015.3,497.48 2016.81,497.48 2018.32,497.48 2019.82,497.48 2021.33,497.48 2022.84,497.48 2024.35,497.48 2025.86,497.48 2027.36,497.48 2028.87,497.48 2030.38,497.48 2031.89,497.48 2033.4,497.48 2034.9,497.48 2036.41,497.48 2037.92,497.48 2039.43,497.48 2040.94,497.48 2042.44,497.48 2043.95,497.48 2045.46,497.48 2046.97,497.48 2048.48,497.48 2049.98,497.48 2051.49,497.48 2053,497.48 2054.51,497.48 2056.02,497.48 2057.52,497.48 "/>
<polyline clip-path="url(#clip522)" style="stroke:#0000ff; stroke-linecap:round; stroke-linejoin:round; stroke-width:12; stroke-opacity:0.5; fill:none" points="247.989,234.643 249.497,263.512 251.005,291.566 252.513,318.668 254.021,344.756 255.529,369.882 257.036,394.052 258.544,417.311 260.052,439.637 261.56,460.955 263.068,481.46 264.576,501.099 266.084,520.019 267.592,538.03 269.1,555.386 270.608,571.93 272.116,587.738 273.624,602.947 275.132,617.382 276.64,631.098 278.148,644.271 279.656,656.644 281.164,668.465 282.672,679.633 284.179,690.232 285.687,700.259 287.195,709.571 288.703,718.438 290.211,726.652 291.719,734.46 293.227,741.668 294.735,748.437 296.243,754.872 297.751,760.949 299.259,766.311 300.767,771.51 302.275,776.115 303.783,780.619 305.291,784.425 306.799,788.015 308.307,791.118 309.815,793.863 311.322,796.3 312.83,798.397 314.338,800.325 315.846,801.776 317.354,803.042 318.862,803.925 320.37,804.536 321.878,805.083 323.386,805.396 324.894,805.263 326.402,804.888 327.91,804.344 329.418,803.674 330.926,802.795 332.434,801.69 333.942,800.45 335.45,799.006 336.958,797.374 338.466,795.706 339.973,794.033 341.481,791.998 342.989,789.672 344.497,787.34 346.005,784.999 347.513,782.469 349.021,779.729 350.529,777.091 352.037,774.078 353.545,771.278 355.053,768.04 356.561,764.949 358.069,761.702 359.577,758.489 361.085,755.236 362.593,751.787 364.101,748.374 365.609,745.003 367.116,741.503 368.624,738.143 370.132,734.641 371.64,731.02 373.148,727.478 374.656,723.833 376.164,720.114 377.672,716.667 379.18,713.035 380.688,709.407 382.196,705.718 383.704,702.042 385.212,698.484 386.72,694.846 388.228,691.257 389.736,687.718 391.244,684.195 392.752,680.503 394.259,676.923 395.767,673.349 397.275,669.809 398.783,666.113 400.291,662.553 401.799,658.909 403.307,655.283 404.815,651.951 406.323,648.405 407.831,644.845 409.339,641.423 410.847,637.933 412.355,634.543 413.863,631.256 415.371,628.074 416.879,624.964 418.387,621.917 419.895,618.765 421.402,615.938 422.91,612.732 424.418,609.586 425.926,607.001 427.434,604.13 428.942,601.31 430.45,598.548 431.958,595.864 433.466,592.99 434.974,590.352 436.482,587.711 437.99,584.903 439.498,582.242 441.006,579.775 442.514,577.368 444.022,574.942 445.53,572.533 447.038,570.263 448.546,568.038 450.053,565.636 451.561,563.329 453.069,561.113 454.577,558.917 456.085,556.8 457.593,554.59 459.101,552.557 460.609,550.508 462.117,548.496 463.625,546.647 465.133,544.541 466.641,542.43 468.149,540.55 469.657,538.799 471.165,537.23 472.673,535.586 474.181,533.918 475.689,532.272 477.196,530.576 478.704,529.056 480.212,527.6 481.72,526.162 483.228,524.694 484.736,523.2 486.244,521.827 487.752,520.412 489.26,518.962 490.768,517.565 492.276,516.296 493.784,514.808 495.292,513.369 496.8,512.052 498.308,511.279 499.816,510.24 501.324,509.168 502.832,508.479 504.339,507.576 505.847,506.505 507.355,505.259 508.863,504.547 510.371,503.802 511.879,502.898 513.387,502.171 514.895,501.072 516.403,499.878 517.911,498.94 519.419,498.101 520.927,497.377 522.435,496.923 523.943,496.566 525.451,495.697 526.959,494.973 528.467,494.061 529.975,493.105 531.482,492.508 532.99,492.212 534.498,491.889 536.006,491.092 537.514,490.551 539.022,490.067 540.53,489.734 542.038,489.252 543.546,488.949 545.054,488.554 546.562,488.081 548.07,487.605 549.578,487.379 551.086,487.093 552.594,486.905 554.102,486.766 555.61,486.81 557.118,486.665 558.626,486.615 560.133,486.701 561.641,486.699 563.149,486.762 564.657,486.872 566.165,487.025 567.673,486.857 569.181,486.81 570.689,486.84 572.197,486.908 573.705,486.879 575.213,486.917 576.721,486.815 578.229,486.867 579.737,486.901 581.245,486.862 582.753,486.833 584.261,486.813 585.769,486.834 587.276,486.938 588.784,487.052 590.292,487.128 591.8,487.252 593.308,487.382 594.816,487.592 596.324,487.625 597.832,487.839 599.34,487.795 600.848,487.919 602.356,487.962 603.864,488.227 605.372,488.42 606.88,488.615 608.388,488.75 609.896,488.842 611.404,489.096 612.912,489.13 614.419,489.297 615.927,489.496 617.435,489.56 618.943,489.646 620.451,489.705 621.959,489.884 623.467,489.871 624.975,489.961 626.483,489.993 627.991,490.042 629.499,490.096 631.007,490.086 632.515,490.17 634.023,490.225 635.531,490.301 637.039,490.449 638.547,490.494 640.055,490.698 641.562,490.743 643.07,490.763 644.578,490.921 646.086,490.951 647.594,490.882 649.102,490.846 650.61,490.848 652.118,490.895 653.626,490.924 655.134,490.948 656.642,490.993 658.15,491.023 659.658,490.979 661.166,490.999 662.674,491.087 664.182,491.128 665.69,491.181 667.198,491.272 668.705,491.433 670.213,491.518 671.721,491.468 673.229,491.503 674.737,491.53 676.245,491.641 677.753,491.616 679.261,491.721 680.769,491.848 682.277,491.794 683.785,492.01 685.293,491.856 686.801,491.803 688.309,491.722 689.817,491.675 691.325,491.465 692.833,491.365 694.341,491.474 695.849,491.313 697.356,491.212 698.864,491.163 700.372,491.176 701.88,491.157 703.388,491.141 704.896,491.049 706.404,490.95 707.912,490.971 709.42,490.866 710.928,490.947 712.436,490.873 713.944,490.793 715.452,490.748 716.96,490.818 718.468,490.779 719.976,490.762 721.484,490.72 722.992,490.812 724.499,490.832 726.007,490.933 727.515,491.009 729.023,491.24 730.531,491.296 732.039,491.453 733.547,491.29 735.055,491.32 736.563,491.252 738.071,491.229 739.579,491.128 741.087,491.095 742.595,491.083 744.103,490.99 745.611,490.778 747.119,490.66 748.627,490.65 750.135,490.656 751.642,490.815 753.15,490.853 754.658,490.851 756.166,490.874 757.674,490.866 759.182,490.899 760.69,490.916 762.198,490.935 763.706,490.855 765.214,490.878 766.722,491.055 768.23,491.03 769.738,491.053 771.246,491.27 772.754,491.419 774.262,491.477 775.77,491.434 777.278,491.369 778.785,491.391 780.293,491.32 781.801,491.59 783.309,491.775 784.817,491.944 786.325,492.15 787.833,492.162 789.341,492.185 790.849,492.289 792.357,492.251 793.865,492.111 795.373,492.046 796.881,492.064 798.389,492.017 799.897,491.983 801.405,492.151 802.913,492.161 804.421,492.351 805.929,492.462 807.436,492.407 808.944,492.557 810.452,492.504 811.96,492.626 813.468,492.715 814.976,492.691 816.484,492.719 817.992,492.951 819.5,492.948 821.008,493.041 822.516,493.122 824.024,493.224 825.532,493.197 827.04,493.129 828.548,493.193 830.056,493.411 831.564,493.532 833.072,493.584 834.579,493.654 836.087,493.84 837.595,493.825 839.103,493.893 840.611,493.802 842.119,493.939 843.627,494.005 845.135,493.955 846.643,493.989 848.151,494.044 849.659,494.228 851.167,494.388 852.675,494.282 854.183,494.285 855.691,494.187 857.199,494.165 858.707,494.164 860.215,494.215 861.722,494.166 863.23,493.953 864.738,493.733 866.246,493.65 867.754,493.714 869.262,493.674 870.77,493.456 872.278,493.267 873.786,492.99 875.294,492.74 876.802,492.634 878.31,492.403 879.818,492.088 881.326,491.662 882.834,491.469 884.342,491.448 885.85,491.376 887.358,491.317 888.865,491.24 890.373,491.113 891.881,491.114 893.389,491.018 894.897,490.855 896.405,490.872 897.913,490.968 899.421,491.048 900.929,491.097 902.437,491.055 903.945,491.029 905.453,490.829 906.961,490.773 908.469,490.832 909.977,490.805 911.485,490.837 912.993,490.783 914.501,490.732 916.009,490.794 917.516,490.787 919.024,490.483 920.532,490.511 922.04,490.501 923.548,490.524 925.056,490.651 926.564,490.634 928.072,490.631 929.58,490.58 931.088,490.644 932.596,490.681 934.104,490.691 935.612,490.737 937.12,490.773 938.628,490.696 940.136,490.674 941.644,490.669 943.152,490.796 944.659,490.675 946.167,490.802 947.675,490.771 949.183,490.901 950.691,491.176 952.199,491.097 953.707,491.113 955.215,491.168 956.723,491.296 958.231,491.111 959.739,491.089 961.247,491.197 962.755,491.292 964.263,491.391 965.771,491.274 967.279,491.287 968.787,491.292 970.295,491.226 971.802,491.291 973.31,491.444 974.818,491.479 976.326,491.597 977.834,491.765 979.342,491.845 980.85,492.067 982.358,492.047 983.866,492.104 985.374,491.949 986.882,492.156 988.39,492.223 989.898,492.104 991.406,492.283 992.914,492.219 994.422,492.216 995.93,492.163 997.438,492.201 998.945,492.135 1000.45,492.008 1001.96,491.96 1003.47,491.831 1004.98,491.933 1006.49,491.985 1007.99,491.887 1009.5,491.873 1011.01,491.884 1012.52,491.932 1014.02,491.877 1015.53,491.956 1017.04,491.985 1018.55,492.096 1020.06,491.967 1021.56,491.922 1023.07,491.957 1024.58,491.971 1026.09,492.037 1027.6,492.106 1029.1,492.093 1030.61,492.047 1032.12,491.899 1033.63,491.72 1035.14,491.573 1036.64,491.545 1038.15,491.304 1039.66,491.234 1041.17,491.22 1042.68,491.083 1044.18,490.995 1045.69,491.085 1047.2,490.986 1048.71,491.026 1050.22,491.145 1051.72,491.21 1053.23,491.214 1054.74,491.177 1056.25,491.057 1057.76,490.968 1059.26,490.891 1060.77,490.852 1062.28,490.837 1063.79,490.668 1065.3,490.498 1066.8,490.513 1068.31,490.331 1069.82,490.449 1071.33,490.318 1072.83,490.297 1074.34,490.287 1075.85,490.182 1077.36,490.175 1078.87,490.062 1080.37,490.027 1081.88,490.136 1083.39,490.217 1084.9,490.217 1086.41,490.094 1087.91,490.147 1089.42,490.293 1090.93,490.302 1092.44,490.249 1093.95,490.153 1095.45,490.196 1096.96,490.346 1098.47,490.501 1099.98,490.512 1101.49,490.652 1102.99,490.918 1104.5,490.976 1106.01,491.088 1107.52,491.174 1109.03,491.154 1110.53,491.038 1112.04,490.927 1113.55,490.983 1115.06,491.067 1116.57,491.155 1118.07,491.361 1119.58,491.53 1121.09,491.444 1122.6,491.385 1124.1,491.615 1125.61,491.597 1127.12,491.763 1128.63,491.693 1130.14,491.88 1131.64,491.901 1133.15,491.922 1134.66,491.857 1136.17,491.901 1137.68,491.889 1139.18,491.827 1140.69,491.624 1142.2,491.585 1143.71,491.794 1145.22,492.029 1146.72,491.866 1148.23,491.945 1149.74,492.092 1151.25,492.094 1152.76,492.113 1154.26,491.985 1155.77,491.539 1157.28,491.564 1158.79,491.495 1160.3,491.405 1161.8,491.372 1163.31,491.235 1164.82,491.237 1166.33,491.339 1167.84,491.39 1169.34,491.373 1170.85,491.356 1172.36,491.242 1173.87,491.069 1175.38,491.193 1176.88,491.304 1178.39,491.201 1179.9,491.287 1181.41,491.318 1182.91,491.485 1184.42,491.772 1185.93,491.611 1187.44,491.697 1188.95,491.775 1190.45,491.716 1191.96,491.695 1193.47,491.853 1194.98,491.89 1196.49,492.069 1197.99,492.235 1199.5,492.47 1201.01,492.594 1202.52,492.769 1204.03,492.984 1205.53,493.077 1207.04,493.49 1208.55,493.634 1210.06,493.672 1211.57,493.844 1213.07,493.949 1214.58,494.045 1216.09,494.216 1217.6,494.479 1219.11,494.63 1220.61,494.758 1222.12,495.067 1223.63,495.218 1225.14,495.354 1226.65,495.61 1228.15,495.634 1229.66,495.541 1231.17,495.373 1232.68,495.444 1234.18,495.227 1235.69,495.288 1237.2,495.447 1238.71,495.62 1240.22,495.818 1241.72,496.043 1243.23,496.237 1244.74,496.252 1246.25,496.389 1247.76,496.583 1249.26,496.44 1250.77,496.296 1252.28,496.397 1253.79,496.229 1255.3,496.352 1256.8,496.562 1258.31,496.703 1259.82,496.84 1261.33,496.882 1262.84,497.019 1264.34,497.072 1265.85,497.102 1267.36,496.885 1268.87,496.802 1270.38,497.252 1271.88,497.036 1273.39,496.824 1274.9,496.975 1276.41,496.447 1277.92,496.399 1279.42,496.378 1280.93,496.411 1282.44,496.214 1283.95,496.03 1285.46,496.019 1286.96,495.885 1288.47,496.029 1289.98,495.869 1291.49,496.332 1292.99,496.275 1294.5,496.268 1296.01,496.073 1297.52,495.973 1299.03,496.073 1300.53,496.462 1302.04,496.364 1303.55,496.328 1305.06,496.179 1306.57,496.526 1308.07,496.482 1309.58,496.545 1311.09,496.601 1312.6,496.625 1314.11,496.617 1315.61,496.597 1317.12,496.61 1318.63,496.494 1320.14,496.465 1321.65,496.707 1323.15,496.69 1324.66,496.617 1326.17,496.508 1327.68,496.507 1329.19,496.63 1330.69,496.606 1332.2,496.517 1333.71,496.458 1335.22,496.455 1336.73,496.345 1338.23,496.503 1339.74,496.527 1341.25,496.408 1342.76,496.307 1344.26,496.308 1345.77,496.182 1347.28,496.002 1348.79,495.985 1350.3,495.882 1351.8,495.691 1353.31,495.575 1354.82,495.379 1356.33,495.474 1357.84,495.413 1359.34,495.452 1360.85,495.201 1362.36,495.038 1363.87,494.937 1365.38,494.777 1366.88,494.634 1368.39,494.441 1369.9,494.436 1371.41,494.165 1372.92,493.973 1374.42,493.86 1375.93,493.802 1377.44,493.775 1378.95,493.569 1380.46,493.548 1381.96,493.548 1383.47,493.495 1384.98,493.484 1386.49,493.617 1388,493.557 1389.5,493.626 1391.01,493.591 1392.52,493.503 1394.03,493.365 1395.54,493.277 1397.04,493.24 1398.55,493.04 1400.06,493.144 1401.57,493.14 1403.07,493.068 1404.58,493.129 1406.09,493.199 1407.6,493.185 1409.11,493.247 1410.61,493.188 1412.12,493.104 1413.63,493.117 1415.14,493.043 1416.65,492.986 1418.15,492.978 1419.66,493.09 1421.17,493.125 1422.68,493.215 1424.19,493.16 1425.69,493.299 1427.2,493.397 1428.71,493.588 1430.22,493.569 1431.73,493.836 1433.23,493.977 1434.74,493.973 1436.25,494.037 1437.76,494.105 1439.27,494.341 1440.77,494.553 1442.28,494.719 1443.79,494.807 1445.3,494.911 1446.81,495.197 1448.31,495.209 1449.82,495.431 1451.33,495.454 1452.84,495.597 1454.34,495.803 1455.85,496.02 1457.36,496.209 1458.87,496.418 1460.38,496.449 1461.88,496.573 1463.39,496.696 1464.9,496.718 1466.41,496.899 1467.92,497.017 1469.42,497.044 1470.93,497.266 1472.44,497.247 1473.95,497.381 1475.46,497.455 1476.96,497.468 1478.47,497.586 1479.98,497.736 1481.49,497.743 1483,497.788 1484.5,497.836 1486.01,497.854 1487.52,497.859 1489.03,497.775 1490.54,497.743 1492.04,497.785 1493.55,497.846 1495.06,497.895 1496.57,497.96 1498.08,497.993 1499.58,498.139 1501.09,498.289 1502.6,498.385 1504.11,498.573 1505.62,498.41 1507.12,498.511 1508.63,498.499 1510.14,498.615 1511.65,498.696 1513.15,498.73 1514.66,498.862 1516.17,498.871 1517.68,498.958 1519.19,498.959 1520.69,498.972 1522.2,498.841 1523.71,498.687 1525.22,498.64 1526.73,498.498 1528.23,498.255 1529.74,498.099 1531.25,498.123 1532.76,497.942 1534.27,497.99 1535.77,497.73 1537.28,497.93 1538.79,498.019 1540.3,497.915 1541.81,497.828 1543.31,497.754 1544.82,497.779 1546.33,497.831 1547.84,497.855 1549.35,497.598 1550.85,497.576 1552.36,497.86 1553.87,497.947 1555.38,497.966 1556.89,497.844 1558.39,497.859 1559.9,497.855 1561.41,497.614 1562.92,497.334 1564.42,497.07 1565.93,496.856 1567.44,496.634 1568.95,496.547 1570.46,496.645 1571.96,496.526 1573.47,496.236 1574.98,495.975 1576.49,495.506 1578,495.274 1579.5,495.024 1581.01,494.75 1582.52,494.447 1584.03,494.193 1585.54,494.062 1587.04,493.778 1588.55,493.578 1590.06,493.386 1591.57,493.133 1593.08,492.831 1594.58,492.694 1596.09,492.569 1597.6,492.363 1599.11,492.306 1600.62,492.039 1602.12,491.858 1603.63,491.703 1605.14,491.317 1606.65,491.261 1608.16,491.145 1609.66,491.092 1611.17,491.161 1612.68,491.036 1614.19,490.963 1615.7,490.996 1617.2,491.289 1618.71,491.284 1620.22,491.211 1621.73,491.182 1623.23,491.178 1624.74,491.136 1626.25,491.085 1627.76,491.162 1629.27,491.03 1630.77,490.977 1632.28,491.015 1633.79,491.07 1635.3,491.094 1636.81,491.212 1638.31,491.342 1639.82,491.543 1641.33,491.611 1642.84,491.683 1644.35,491.947 1645.85,492.03 1647.36,492.207 1648.87,492.367 1650.38,492.524 1651.89,492.664 1653.39,492.772 1654.9,492.987 1656.41,493.064 1657.92,493.068 1659.43,493.212 1660.93,493.291 1662.44,493.483 1663.95,493.774 1665.46,493.916 1666.97,494.051 1668.47,494.109 1669.98,494.314 1671.49,494.375 1673,494.533 1674.5,494.691 1676.01,494.824 1677.52,494.932 1679.03,495.095 1680.54,495.153 1682.04,495.161 1683.55,495.245 1685.06,495.458 1686.57,495.569 1688.08,495.621 1689.58,495.771 1691.09,495.984 1692.6,496.199 1694.11,496.31 1695.62,496.472 1697.12,496.573 1698.63,496.651 1700.14,496.59 1701.65,496.662 1703.16,496.808 1704.66,496.936 1706.17,497.018 1707.68,497.041 1709.19,497.176 1710.7,497.21 1712.2,497.049 1713.71,496.887 1715.22,496.887 1716.73,496.985 1718.24,496.989 1719.74,496.954 1721.25,496.843 1722.76,496.893 1724.27,496.966 1725.78,497.162 1727.28,497.066 1728.79,497.079 1730.3,497.115 1731.81,497.097 1733.31,497.089 1734.82,497.008 1736.33,496.909 1737.84,496.952 1739.35,496.914 1740.85,496.831 1742.36,496.85 1743.87,496.84 1745.38,496.944 1746.89,496.998 1748.39,497.018 1749.9,497.103 1751.41,497.254 1752.92,497.442 1754.43,497.636 1755.93,497.663 1757.44,497.816 1758.95,497.8 1760.46,497.965 1761.97,498.083 1763.47,498.166 1764.98,498.27 1766.49,498.238 1768,498.203 1769.51,498.168 1771.01,498.191 1772.52,498.225 1774.03,498.18 1775.54,498.4 1777.05,498.385 1778.55,498.437 1780.06,498.568 1781.57,498.258 1783.08,498.166 1784.58,498.193 1786.09,498.121 1787.6,498.329 1789.11,498.29 1790.62,498.05 1792.12,498.027 1793.63,497.806 1795.14,497.789 1796.65,497.678 1798.16,497.404 1799.66,497.132 1801.17,496.881 1802.68,496.655 1804.19,496.463 1805.7,496.1 1807.2,495.79 1808.71,495.628 1810.22,495.568 1811.73,495.414 1813.24,495.186 1814.74,495.2 1816.25,494.934 1817.76,494.867 1819.27,494.774 1820.78,494.663 1822.28,494.473 1823.79,494.363 1825.3,494.325 1826.81,494.317 1828.32,494.07 1829.82,493.767 1831.33,493.481 1832.84,493.337 1834.35,493.207 1835.86,493.143 1837.36,493.011 1838.87,492.886 1840.38,492.565 1841.89,492.347 1843.39,492.233 1844.9,492.131 1846.41,491.941 1847.92,491.92 1849.43,491.831 1850.93,491.942 1852.44,491.64 1853.95,491.71 1855.46,491.396 1856.97,491.263 1858.47,491.185 1859.98,491.006 1861.49,490.634 1863,490.597 1864.51,490.289 1866.01,490.284 1867.52,490.012 1869.03,489.777 1870.54,489.403 1872.05,489.139 1873.55,488.99 1875.06,488.918 1876.57,488.891 1878.08,488.859 1879.59,488.967 1881.09,488.962 1882.6,488.914 1884.11,488.94 1885.62,488.763 1887.13,488.701 1888.63,488.576 1890.14,488.221 1891.65,488.174 1893.16,487.971 1894.66,487.709 1896.17,487.464 1897.68,487.329 1899.19,487.403 1900.7,487.141 1902.2,487.18 1903.71,487.014 1905.22,486.835 1906.73,486.52 1908.24,486.403 1909.74,486.41 1911.25,486.245 1912.76,485.816 1914.27,485.618 1915.78,485.58 1917.28,485.34 1918.79,485.245 1920.3,485.209 1921.81,485.122 1923.32,485.167 1924.82,485.174 1926.33,485.057 1927.84,484.958 1929.35,484.766 1930.86,484.798 1932.36,484.787 1933.87,484.659 1935.38,484.82 1936.89,484.803 1938.4,484.733 1939.9,484.773 1941.41,484.755 1942.92,484.654 1944.43,484.531 1945.94,484.418 1947.44,484.148 1948.95,483.635 1950.46,483.512 1951.97,483.339 1953.47,483.231 1954.98,483.235 1956.49,483.005 1958,482.804 1959.51,482.533 1961.01,482.329 1962.52,482.119 1964.03,481.785 1965.54,481.529 1967.05,481.326 1968.55,481.002 1970.06,480.657 1971.57,480.505 1973.08,480.259 1974.59,479.867 1976.09,479.683 1977.6,479.565 1979.11,479.412 1980.62,479.324 1982.13,479.21 1983.63,479.169 1985.14,479.24 1986.65,479.168 1988.16,478.987 1989.67,479.069 1991.17,478.818 1992.68,478.762 1994.19,478.668 1995.7,478.551 1997.21,478.455 1998.71,478.359 2000.22,478.188 2001.73,478.091 2003.24,477.961 2004.74,478.001 2006.25,477.924 2007.76,477.919 2009.27,477.857 2010.78,477.815 2012.28,477.655 2013.79,477.511 2015.3,477.283 2016.81,477.099 2018.32,477.109 2019.82,477.25 2021.33,477.167 2022.84,477.183 2024.35,477.312 2025.86,477.341 2027.36,477.322 2028.87,477.264 2030.38,477.25 2031.89,477.179 2033.4,477.249 2034.9,477.239 2036.41,477.167 2037.92,477.153 2039.43,477.089 2040.94,476.962 2042.44,476.98 2043.95,476.976 2045.46,476.883 2046.97,476.774 2048.48,476.707 2049.98,476.811 2051.49,476.882 2053,476.827 2054.51,476.969 2056.02,476.759 2057.52,476.674 "/>
<path clip-path="url(#clip520)" d="M812.225 239.706 L1122.6 239.706 L1122.6 78.4772 L812.225 78.4772  Z" fill="#ffffff" fill-rule="evenodd" fill-opacity="1"/>
<polyline clip-path="url(#clip520)" style="stroke:#000000; stroke-linecap:round; stroke-linejoin:round; stroke-width:4; stroke-opacity:1; fill:none" points="812.225,239.706 1122.6,239.706 1122.6,78.4772 812.225,78.4772 812.225,239.706 "/>
<polyline clip-path="url(#clip520)" style="stroke:#ffa500; stroke-linecap:round; stroke-linejoin:round; stroke-width:12; stroke-opacity:0.75; fill:none" points="822.278,132.22 882.596,132.22 "/>
<g clip-path="url(#clip520)">
<text style="fill:#000000; fill-opacity:1; font-family:Book Antiqua,Palatino,Palatino Linotype,Palatino LT STD,Georgia,serif; font-size:51px; font-weight:bold; text-anchor:start;" transform="rotate(0, 892.649, 149.72)" x="892.649" y="149.72">FDUC</text>
</g>
<polyline clip-path="url(#clip520)" style="stroke:#0000ff; stroke-linecap:round; stroke-linejoin:round; stroke-width:12; stroke-opacity:0.5; fill:none" points="822.278,185.963 882.596,185.963 "/>
<g clip-path="url(#clip520)">
<text style="fill:#000000; fill-opacity:1; font-family:Book Antiqua,Palatino,Palatino Linotype,Palatino LT STD,Georgia,serif; font-size:51px; font-weight:bold; text-anchor:start;" transform="rotate(0, 892.649, 203.463)" x="892.649" y="203.463">CCFDUC</text>
</g>
</svg>
