<?xml version="1.0" encoding="utf-8"?>
<svg xmlns="http://www.w3.org/2000/svg" xmlns:xlink="http://www.w3.org/1999/xlink" width="300" height="300" viewBox="0 0 1200 1200">
<defs>
  <clipPath id="clip930">
    <rect x="0" y="0" width="1200" height="1200"/>
  </clipPath>
</defs>
<path clip-path="url(#clip930)" d="M0 1200 L1200 1200 L1200 0 L0 0  Z" fill="#ffffff" fill-rule="evenodd" fill-opacity="1"/>
<defs>
  <clipPath id="clip931">
    <rect x="240" y="120" width="841" height="841"/>
  </clipPath>
</defs>
<path clip-path="url(#clip930)" d="M247.989 984.237 L1152.76 984.237 L1152.76 47.2441 L247.989 47.2441  Z" fill="#ffffff" fill-rule="evenodd" fill-opacity="1"/>
<defs>
  <clipPath id="clip932">
    <rect x="247" y="47" width="906" height="938"/>
  </clipPath>
</defs>
<polyline clip-path="url(#clip932)" style="stroke:#808080; stroke-linecap:round; stroke-linejoin:round; stroke-width:2; stroke-opacity:0.1; fill:none" points="247.989,984.237 247.989,47.2441 "/>
<polyline clip-path="url(#clip932)" style="stroke:#808080; stroke-linecap:round; stroke-linejoin:round; stroke-width:2; stroke-opacity:0.1; fill:none" points="549.578,984.237 549.578,47.2441 "/>
<polyline clip-path="url(#clip932)" style="stroke:#808080; stroke-linecap:round; stroke-linejoin:round; stroke-width:2; stroke-opacity:0.1; fill:none" points="851.167,984.237 851.167,47.2441 "/>
<polyline clip-path="url(#clip932)" style="stroke:#808080; stroke-linecap:round; stroke-linejoin:round; stroke-width:2; stroke-opacity:0.1; fill:none" points="1152.76,984.237 1152.76,47.2441 "/>
<polyline clip-path="url(#clip932)" style="stroke:#808080; stroke-linecap:round; stroke-linejoin:round; stroke-width:2; stroke-opacity:0.1; fill:none" points="1454.34,984.237 1454.34,47.2441 "/>
<polyline clip-path="url(#clip932)" style="stroke:#808080; stroke-linecap:round; stroke-linejoin:round; stroke-width:2; stroke-opacity:0.1; fill:none" points="1755.93,984.237 1755.93,47.2441 "/>
<polyline clip-path="url(#clip932)" style="stroke:#808080; stroke-linecap:round; stroke-linejoin:round; stroke-width:2; stroke-opacity:0.1; fill:none" points="2057.52,984.237 2057.52,47.2441 "/>
<polyline clip-path="url(#clip932)" style="stroke:#808080; stroke-linecap:round; stroke-linejoin:round; stroke-width:2; stroke-opacity:0.1; fill:none" points="247.989,984.237 247.989,47.2441 "/>
<polyline clip-path="url(#clip932)" style="stroke:#808080; stroke-linecap:round; stroke-linejoin:round; stroke-width:2; stroke-opacity:0.1; fill:none" points="549.578,984.237 549.578,47.2441 "/>
<polyline clip-path="url(#clip932)" style="stroke:#808080; stroke-linecap:round; stroke-linejoin:round; stroke-width:2; stroke-opacity:0.1; fill:none" points="851.167,984.237 851.167,47.2441 "/>
<polyline clip-path="url(#clip932)" style="stroke:#808080; stroke-linecap:round; stroke-linejoin:round; stroke-width:2; stroke-opacity:0.1; fill:none" points="1152.76,984.237 1152.76,47.2441 "/>
<polyline clip-path="url(#clip932)" style="stroke:#808080; stroke-linecap:round; stroke-linejoin:round; stroke-width:2; stroke-opacity:0.1; fill:none" points="1454.34,984.237 1454.34,47.2441 "/>
<polyline clip-path="url(#clip932)" style="stroke:#808080; stroke-linecap:round; stroke-linejoin:round; stroke-width:2; stroke-opacity:0.1; fill:none" points="1755.93,984.237 1755.93,47.2441 "/>
<polyline clip-path="url(#clip932)" style="stroke:#808080; stroke-linecap:round; stroke-linejoin:round; stroke-width:2; stroke-opacity:0.1; fill:none" points="2057.52,984.237 2057.52,47.2441 "/>
<polyline clip-path="url(#clip930)" style="stroke:#000000; stroke-linecap:round; stroke-linejoin:round; stroke-width:4; stroke-opacity:1; fill:none" points="247.989,984.237 1152.76,984.237 "/>
<polyline clip-path="url(#clip930)" style="stroke:#000000; stroke-linecap:round; stroke-linejoin:round; stroke-width:4; stroke-opacity:1; fill:none" points="247.989,47.2441 1152.76,47.2441 "/>
<polyline clip-path="url(#clip930)" style="stroke:#000000; stroke-linecap:round; stroke-linejoin:round; stroke-width:4; stroke-opacity:1; fill:none" points="247.989,984.237 247.989,965.339 "/>
<polyline clip-path="url(#clip930)" style="stroke:#000000; stroke-linecap:round; stroke-linejoin:round; stroke-width:4; stroke-opacity:1; fill:none" points="549.578,984.237 549.578,965.339 "/>
<polyline clip-path="url(#clip930)" style="stroke:#000000; stroke-linecap:round; stroke-linejoin:round; stroke-width:4; stroke-opacity:1; fill:none" points="851.167,984.237 851.167,965.339 "/>
<polyline clip-path="url(#clip930)" style="stroke:#000000; stroke-linecap:round; stroke-linejoin:round; stroke-width:4; stroke-opacity:1; fill:none" points="1152.76,984.237 1152.76,965.339 "/>
<polyline clip-path="url(#clip930)" style="stroke:#000000; stroke-linecap:round; stroke-linejoin:round; stroke-width:4; stroke-opacity:1; fill:none" points="1454.34,984.237 1454.34,965.339 "/>
<polyline clip-path="url(#clip930)" style="stroke:#000000; stroke-linecap:round; stroke-linejoin:round; stroke-width:4; stroke-opacity:1; fill:none" points="1755.93,984.237 1755.93,965.339 "/>
<polyline clip-path="url(#clip930)" style="stroke:#000000; stroke-linecap:round; stroke-linejoin:round; stroke-width:4; stroke-opacity:1; fill:none" points="2057.52,984.237 2057.52,965.339 "/>
<polyline clip-path="url(#clip930)" style="stroke:#000000; stroke-linecap:round; stroke-linejoin:round; stroke-width:4; stroke-opacity:1; fill:none" points="247.989,47.2441 247.989,66.1417 "/>
<polyline clip-path="url(#clip930)" style="stroke:#000000; stroke-linecap:round; stroke-linejoin:round; stroke-width:4; stroke-opacity:1; fill:none" points="549.578,47.2441 549.578,66.1417 "/>
<polyline clip-path="url(#clip930)" style="stroke:#000000; stroke-linecap:round; stroke-linejoin:round; stroke-width:4; stroke-opacity:1; fill:none" points="851.167,47.2441 851.167,66.1417 "/>
<polyline clip-path="url(#clip930)" style="stroke:#000000; stroke-linecap:round; stroke-linejoin:round; stroke-width:4; stroke-opacity:1; fill:none" points="1152.76,47.2441 1152.76,66.1417 "/>
<polyline clip-path="url(#clip930)" style="stroke:#000000; stroke-linecap:round; stroke-linejoin:round; stroke-width:4; stroke-opacity:1; fill:none" points="1454.34,47.2441 1454.34,66.1417 "/>
<polyline clip-path="url(#clip930)" style="stroke:#000000; stroke-linecap:round; stroke-linejoin:round; stroke-width:4; stroke-opacity:1; fill:none" points="1755.93,47.2441 1755.93,66.1417 "/>
<polyline clip-path="url(#clip930)" style="stroke:#000000; stroke-linecap:round; stroke-linejoin:round; stroke-width:4; stroke-opacity:1; fill:none" points="2057.52,47.2441 2057.52,66.1417 "/>
<g clip-path="url(#clip930)">
<text style="fill:#000000; fill-opacity:1; font-family:Book Antiqua,Palatino,Palatino Linotype,Palatino LT STD,Georgia,serif; font-size:51px; font-weight:bold; text-anchor:middle;" transform="rotate(0, 247.989, 1038.21)" x="247.989" y="1038.21">0</text>
</g>
<g clip-path="url(#clip930)">
<text style="fill:#000000; fill-opacity:1; font-family:Book Antiqua,Palatino,Palatino Linotype,Palatino LT STD,Georgia,serif; font-size:51px; font-weight:bold; text-anchor:middle;" transform="rotate(0, 549.578, 1038.21)" x="549.578" y="1038.21">10</text>
</g>
<g clip-path="url(#clip930)">
<text style="fill:#000000; fill-opacity:1; font-family:Book Antiqua,Palatino,Palatino Linotype,Palatino LT STD,Georgia,serif; font-size:51px; font-weight:bold; text-anchor:middle;" transform="rotate(0, 851.167, 1038.21)" x="851.167" y="1038.21">20</text>
</g>
<g clip-path="url(#clip930)">
<text style="fill:#000000; fill-opacity:1; font-family:Book Antiqua,Palatino,Palatino Linotype,Palatino LT STD,Georgia,serif; font-size:51px; font-weight:bold; text-anchor:middle;" transform="rotate(0, 1152.76, 1038.21)" x="1152.76" y="1038.21">30</text>
</g>
<g clip-path="url(#clip930)">
<text style="fill:#000000; fill-opacity:1; font-family:Book Antiqua,Palatino,Palatino Linotype,Palatino LT STD,Georgia,serif; font-size:51px; font-weight:bold; text-anchor:middle;" transform="rotate(0, 1454.34, 1038.21)" x="1454.34" y="1038.21">40</text>
</g>
<g clip-path="url(#clip930)">
<text style="fill:#000000; fill-opacity:1; font-family:Book Antiqua,Palatino,Palatino Linotype,Palatino LT STD,Georgia,serif; font-size:51px; font-weight:bold; text-anchor:middle;" transform="rotate(0, 1755.93, 1038.21)" x="1755.93" y="1038.21">50</text>
</g>
<g clip-path="url(#clip930)">
<text style="fill:#000000; fill-opacity:1; font-family:Book Antiqua,Palatino,Palatino Linotype,Palatino LT STD,Georgia,serif; font-size:51px; font-weight:bold; text-anchor:middle;" transform="rotate(0, 2057.52, 1038.21)" x="2057.52" y="1038.21">60</text>
</g>
<path clip-path="url(#clip930)" d="M677.2 1073.13 Q677.2 1074.03 676.781 1074.25 Q676.363 1074.45 675.203 1074.45 L669.02 1074.45 L664.124 1093.9 Q663.738 1095.61 663.738 1097.06 Q663.738 1098.67 664.221 1099.37 Q664.736 1100.08 665.799 1100.08 Q667.893 1100.08 670.147 1098.18 Q672.434 1096.28 674.366 1091.65 Q674.624 1091.03 674.752 1090.9 Q674.913 1090.74 675.332 1090.74 Q676.137 1090.74 676.137 1091.39 Q676.137 1091.61 675.686 1092.64 Q675.268 1093.67 674.334 1095.19 Q673.432 1096.7 672.24 1098.12 Q671.081 1099.54 669.31 1100.57 Q667.538 1101.56 665.638 1101.56 Q662.965 1101.56 661.258 1099.86 Q659.583 1098.15 659.583 1095.48 Q659.583 1094.61 660.26 1091.84 Q660.936 1089.04 664.608 1074.45 L658.778 1074.45 Q657.973 1074.45 657.651 1074.42 Q657.361 1074.38 657.136 1074.22 Q656.943 1074.03 656.943 1073.64 Q656.943 1073.03 657.2 1072.77 Q657.458 1072.48 657.78 1072.45 Q658.134 1072.39 658.939 1072.39 L665.123 1072.39 L667.699 1061.92 Q667.957 1060.89 668.601 1060.31 Q669.277 1059.7 669.664 1059.63 Q670.05 1059.54 670.34 1059.54 Q671.21 1059.54 671.725 1060.02 Q672.24 1060.47 672.24 1061.31 Q672.24 1061.76 669.535 1072.39 L675.332 1072.39 Q676.073 1072.39 676.363 1072.42 Q676.685 1072.45 676.942 1072.61 Q677.2 1072.77 677.2 1073.13 Z" fill="#000000" fill-rule="nonzero" fill-opacity="1" /><path clip-path="url(#clip930)" d="M680.516 1116.38 Q680.516 1116.06 680.773 1115.35 L704.058 1053.13 Q704.058 1053.06 704.219 1052.71 Q704.38 1052.35 704.477 1052.13 Q704.573 1051.87 704.767 1051.68 Q704.992 1051.48 705.25 1051.48 Q705.894 1051.48 705.894 1052.29 Q705.894 1052.35 705.701 1053.13 L682.351 1115.41 Q681.965 1116.54 681.707 1116.86 Q681.482 1117.18 681.095 1117.18 Q680.516 1117.18 680.516 1116.38 Z" fill="#000000" fill-rule="nonzero" fill-opacity="1" /><path clip-path="url(#clip930)" d="M737.463 1077.35 Q737.463 1079.15 736.561 1080.12 Q735.659 1081.05 734.435 1081.05 Q733.437 1081.05 732.89 1080.47 Q732.374 1079.89 732.374 1079.12 Q732.374 1077.99 733.276 1077.09 Q734.21 1076.19 735.563 1076.15 Q735.112 1074.96 733.92 1074.25 Q732.729 1073.51 731.666 1073.32 Q730.635 1073.13 729.605 1073.13 Q727.576 1073.13 726.03 1073.77 Q724.484 1074.42 723.711 1075.41 Q722.938 1076.38 722.584 1077.31 Q722.229 1078.25 722.229 1079.05 Q722.229 1079.76 722.39 1080.34 Q722.584 1080.89 723.035 1081.31 Q723.485 1081.69 723.808 1081.95 Q724.162 1082.21 724.935 1082.43 Q725.708 1082.66 726.03 1082.76 Q726.352 1082.82 727.254 1083.01 Q729.121 1083.4 729.959 1083.63 Q730.796 1083.82 731.891 1084.37 Q733.018 1084.91 733.856 1085.78 Q735.885 1087.81 735.885 1090.61 Q735.885 1091.65 735.53 1092.9 Q735.208 1094.16 734.274 1095.74 Q733.34 1097.31 731.923 1098.57 Q730.506 1099.83 728.059 1100.7 Q725.643 1101.56 722.616 1101.56 Q718.397 1101.56 715.788 1099.79 Q713.18 1097.99 713.18 1095.16 Q713.18 1093.09 714.307 1091.97 Q715.434 1090.81 716.883 1090.81 Q717.978 1090.81 718.655 1091.42 Q719.331 1092 719.331 1093.09 Q719.331 1094.58 718.139 1095.7 Q716.948 1096.83 715.176 1096.6 Q716.69 1100.08 722.68 1100.08 Q724.935 1100.08 726.674 1099.5 Q728.445 1098.89 729.411 1098.05 Q730.41 1097.18 731.054 1096.12 Q731.698 1095.06 731.891 1094.25 Q732.117 1093.45 732.117 1092.84 Q732.117 1091.77 731.698 1090.97 Q731.279 1090.16 730.7 1089.71 Q730.152 1089.23 729.089 1088.84 Q728.059 1088.42 727.318 1088.26 Q726.577 1088.1 725.257 1087.84 Q724.645 1087.72 724.258 1087.65 Q723.872 1087.56 723.067 1087.3 Q722.294 1087.01 721.746 1086.72 Q721.231 1086.43 720.555 1085.91 Q719.878 1085.4 719.46 1084.79 Q719.041 1084.17 718.751 1083.27 Q718.461 1082.37 718.461 1081.31 Q718.461 1080.34 718.751 1079.18 Q719.073 1078.02 719.878 1076.67 Q720.716 1075.32 721.907 1074.22 Q723.099 1073.13 725.096 1072.42 Q727.125 1071.68 729.605 1071.68 Q733.212 1071.68 735.337 1073.35 Q737.463 1074.99 737.463 1077.35 Z" fill="#000000" fill-rule="nonzero" fill-opacity="1" /><polyline clip-path="url(#clip932)" style="stroke:#808080; stroke-linecap:round; stroke-linejoin:round; stroke-width:2; stroke-opacity:0.1; fill:none" points="247.989,984.237 1152.76,984.237 "/>
<polyline clip-path="url(#clip932)" style="stroke:#808080; stroke-linecap:round; stroke-linejoin:round; stroke-width:2; stroke-opacity:0.1; fill:none" points="247.989,796.838 1152.76,796.838 "/>
<polyline clip-path="url(#clip932)" style="stroke:#808080; stroke-linecap:round; stroke-linejoin:round; stroke-width:2; stroke-opacity:0.1; fill:none" points="247.989,609.44 1152.76,609.44 "/>
<polyline clip-path="url(#clip932)" style="stroke:#808080; stroke-linecap:round; stroke-linejoin:round; stroke-width:2; stroke-opacity:0.1; fill:none" points="247.989,422.041 1152.76,422.041 "/>
<polyline clip-path="url(#clip932)" style="stroke:#808080; stroke-linecap:round; stroke-linejoin:round; stroke-width:2; stroke-opacity:0.1; fill:none" points="247.989,234.643 1152.76,234.643 "/>
<polyline clip-path="url(#clip932)" style="stroke:#808080; stroke-linecap:round; stroke-linejoin:round; stroke-width:2; stroke-opacity:0.1; fill:none" points="247.989,47.2441 1152.76,47.2441 "/>
<polyline clip-path="url(#clip932)" style="stroke:#808080; stroke-linecap:round; stroke-linejoin:round; stroke-width:2; stroke-opacity:0.1; fill:none" points="247.989,984.237 1152.76,984.237 "/>
<polyline clip-path="url(#clip932)" style="stroke:#808080; stroke-linecap:round; stroke-linejoin:round; stroke-width:2; stroke-opacity:0.1; fill:none" points="247.989,796.838 1152.76,796.838 "/>
<polyline clip-path="url(#clip932)" style="stroke:#808080; stroke-linecap:round; stroke-linejoin:round; stroke-width:2; stroke-opacity:0.1; fill:none" points="247.989,609.44 1152.76,609.44 "/>
<polyline clip-path="url(#clip932)" style="stroke:#808080; stroke-linecap:round; stroke-linejoin:round; stroke-width:2; stroke-opacity:0.1; fill:none" points="247.989,422.041 1152.76,422.041 "/>
<polyline clip-path="url(#clip932)" style="stroke:#808080; stroke-linecap:round; stroke-linejoin:round; stroke-width:2; stroke-opacity:0.1; fill:none" points="247.989,234.643 1152.76,234.643 "/>
<polyline clip-path="url(#clip932)" style="stroke:#808080; stroke-linecap:round; stroke-linejoin:round; stroke-width:2; stroke-opacity:0.1; fill:none" points="247.989,47.2441 1152.76,47.2441 "/>
<polyline clip-path="url(#clip930)" style="stroke:#000000; stroke-linecap:round; stroke-linejoin:round; stroke-width:4; stroke-opacity:1; fill:none" points="247.989,984.237 247.989,47.2441 "/>
<polyline clip-path="url(#clip930)" style="stroke:#000000; stroke-linecap:round; stroke-linejoin:round; stroke-width:4; stroke-opacity:1; fill:none" points="1152.76,984.237 1152.76,47.2441 "/>
<polyline clip-path="url(#clip930)" style="stroke:#000000; stroke-linecap:round; stroke-linejoin:round; stroke-width:4; stroke-opacity:1; fill:none" points="247.989,984.237 266.886,984.237 "/>
<polyline clip-path="url(#clip930)" style="stroke:#000000; stroke-linecap:round; stroke-linejoin:round; stroke-width:4; stroke-opacity:1; fill:none" points="247.989,796.838 266.886,796.838 "/>
<polyline clip-path="url(#clip930)" style="stroke:#000000; stroke-linecap:round; stroke-linejoin:round; stroke-width:4; stroke-opacity:1; fill:none" points="247.989,609.44 266.886,609.44 "/>
<polyline clip-path="url(#clip930)" style="stroke:#000000; stroke-linecap:round; stroke-linejoin:round; stroke-width:4; stroke-opacity:1; fill:none" points="247.989,422.041 266.886,422.041 "/>
<polyline clip-path="url(#clip930)" style="stroke:#000000; stroke-linecap:round; stroke-linejoin:round; stroke-width:4; stroke-opacity:1; fill:none" points="247.989,234.643 266.886,234.643 "/>
<polyline clip-path="url(#clip930)" style="stroke:#000000; stroke-linecap:round; stroke-linejoin:round; stroke-width:4; stroke-opacity:1; fill:none" points="247.989,47.2441 266.886,47.2441 "/>
<polyline clip-path="url(#clip930)" style="stroke:#000000; stroke-linecap:round; stroke-linejoin:round; stroke-width:4; stroke-opacity:1; fill:none" points="1152.76,984.237 1133.86,984.237 "/>
<polyline clip-path="url(#clip930)" style="stroke:#000000; stroke-linecap:round; stroke-linejoin:round; stroke-width:4; stroke-opacity:1; fill:none" points="1152.76,796.838 1133.86,796.838 "/>
<polyline clip-path="url(#clip930)" style="stroke:#000000; stroke-linecap:round; stroke-linejoin:round; stroke-width:4; stroke-opacity:1; fill:none" points="1152.76,609.44 1133.86,609.44 "/>
<polyline clip-path="url(#clip930)" style="stroke:#000000; stroke-linecap:round; stroke-linejoin:round; stroke-width:4; stroke-opacity:1; fill:none" points="1152.76,422.041 1133.86,422.041 "/>
<polyline clip-path="url(#clip930)" style="stroke:#000000; stroke-linecap:round; stroke-linejoin:round; stroke-width:4; stroke-opacity:1; fill:none" points="1152.76,234.643 1133.86,234.643 "/>
<polyline clip-path="url(#clip930)" style="stroke:#000000; stroke-linecap:round; stroke-linejoin:round; stroke-width:4; stroke-opacity:1; fill:none" points="1152.76,47.2441 1133.86,47.2441 "/>
<g clip-path="url(#clip930)">
<text style="fill:#000000; fill-opacity:1; font-family:Book Antiqua,Palatino,Palatino Linotype,Palatino LT STD,Georgia,serif; font-size:51px; font-weight:bold; text-anchor:middle;" transform="rotate(0, 187.004, 1001.74)" x="187.004" y="1001.74">−0.4</text>
</g>
<g clip-path="url(#clip930)">
<text style="fill:#000000; fill-opacity:1; font-family:Book Antiqua,Palatino,Palatino Linotype,Palatino LT STD,Georgia,serif; font-size:51px; font-weight:bold; text-anchor:middle;" transform="rotate(0, 187.004, 814.338)" x="187.004" y="814.338">−0.3</text>
</g>
<g clip-path="url(#clip930)">
<text style="fill:#000000; fill-opacity:1; font-family:Book Antiqua,Palatino,Palatino Linotype,Palatino LT STD,Georgia,serif; font-size:51px; font-weight:bold; text-anchor:middle;" transform="rotate(0, 187.004, 626.94)" x="187.004" y="626.94">−0.2</text>
</g>
<g clip-path="url(#clip930)">
<text style="fill:#000000; fill-opacity:1; font-family:Book Antiqua,Palatino,Palatino Linotype,Palatino LT STD,Georgia,serif; font-size:51px; font-weight:bold; text-anchor:middle;" transform="rotate(0, 187.004, 439.541)" x="187.004" y="439.541">−0.1</text>
</g>
<g clip-path="url(#clip930)">
<text style="fill:#000000; fill-opacity:1; font-family:Book Antiqua,Palatino,Palatino Linotype,Palatino LT STD,Georgia,serif; font-size:51px; font-weight:bold; text-anchor:middle;" transform="rotate(0, 198.271, 252.143)" x="198.271" y="252.143">0.0</text>
</g>
<g clip-path="url(#clip930)">
<text style="fill:#000000; fill-opacity:1; font-family:Book Antiqua,Palatino,Palatino Linotype,Palatino LT STD,Georgia,serif; font-size:51px; font-weight:bold; text-anchor:middle;" transform="rotate(0, 198.271, 64.7441)" x="198.271" y="64.7441">0.1</text>
</g>
<path clip-path="url(#clip930)" d="M113.196 660.102 Q112.938 660.102 111.264 659.233 Q109.557 658.363 103.47 655.304 Q97.3508 652.244 90.9418 649.088 L68.0757 637.719 Q66.6264 636.914 66.6264 635.883 Q66.6264 634.95 67.2061 634.531 Q67.7858 634.112 71.6827 632.18 Q73.5829 631.181 74.8067 630.602 L112.133 611.955 Q112.938 611.632 113.196 611.6 Q113.84 611.6 113.84 612.727 L113.84 658.363 Q113.84 660.102 113.196 660.102 M108.816 655.754 L108.816 620.264 L73.1964 638.009 L108.816 655.754 Z" fill="#000000" fill-rule="nonzero" fill-opacity="1" /><path clip-path="url(#clip930)" d="M71.876 572.569 Q73.6473 572.569 74.7423 573.696 Q75.8373 574.791 75.8373 576.176 Q75.8373 577.175 75.2254 577.915 Q74.6134 578.624 73.5507 578.624 Q72.4557 578.624 71.2962 577.787 Q70.1368 576.949 69.9758 575.049 Q68.7842 576.305 68.7842 578.302 Q68.7842 579.3 69.4283 580.138 Q70.0402 580.943 71.0386 581.394 Q72.0692 581.877 77.8984 582.972 Q79.7986 583.326 81.6343 583.648 Q83.4701 583.97 85.4024 584.357 L85.4024 578.882 Q85.4024 578.173 85.4346 577.883 Q85.4668 577.593 85.6279 577.368 Q85.7889 577.11 86.1431 577.11 Q87.0449 577.11 87.2704 577.529 Q87.4636 577.915 87.4636 579.075 L87.4636 584.743 L108.365 588.704 Q108.977 588.801 110.909 589.22 Q112.81 589.606 115.934 590.54 Q119.09 591.474 120.958 592.408 Q122.02 592.923 123.019 593.6 Q124.049 594.244 125.08 595.178 Q126.111 596.112 126.723 597.335 Q127.367 598.559 127.367 599.848 Q127.367 602.038 126.143 603.744 Q124.919 605.451 122.826 605.451 Q121.054 605.451 119.959 604.356 Q118.864 603.229 118.864 601.844 Q118.864 600.846 119.476 600.137 Q120.088 599.397 121.151 599.397 Q121.602 599.397 122.117 599.558 Q122.632 599.719 123.212 600.073 Q123.824 600.427 124.243 601.2 Q124.661 601.973 124.726 603.036 Q125.917 601.78 125.917 599.848 Q125.917 599.236 125.66 598.688 Q125.434 598.141 124.855 597.69 Q124.275 597.207 123.695 596.852 Q123.148 596.498 122.085 596.144 Q121.054 595.79 120.281 595.564 Q119.508 595.339 118.124 595.049 Q116.739 594.727 115.901 594.566 Q115.096 594.405 113.518 594.115 L87.4636 589.187 L87.4636 593.535 Q87.4636 594.308 87.4314 594.63 Q87.3992 594.92 87.2381 595.145 Q87.0449 595.371 86.6584 595.371 Q86.0465 595.371 85.7889 595.113 Q85.499 594.823 85.4668 594.501 Q85.4024 594.179 85.4024 593.406 L85.4024 588.833 Q77.2543 587.287 75.0643 586.675 Q72.7455 585.967 71.1352 584.872 Q69.4927 583.777 68.7198 582.553 Q67.9468 581.329 67.657 580.331 Q67.3349 579.3 67.3349 578.302 Q67.3349 576.047 68.5587 574.308 Q69.7504 572.569 71.876 572.569 Z" fill="#000000" fill-rule="nonzero" fill-opacity="1" /><path clip-path="url(#clip930)" d="M97.3508 563.689 Q86.2076 563.689 77.2221 559.535 Q73.454 557.763 70.2979 555.283 Q67.1417 552.804 65.7568 551.161 Q64.372 549.519 64.372 549.068 Q64.372 548.424 65.0161 548.391 Q65.3382 548.391 66.1433 549.261 Q76.9645 559.889 97.3508 559.857 Q117.802 559.857 128.204 549.519 Q129.331 548.391 129.685 548.391 Q130.33 548.391 130.33 549.068 Q130.33 549.519 129.009 551.097 Q127.689 552.675 124.661 555.122 Q121.634 557.57 117.93 559.341 Q108.945 563.689 97.3508 563.689 Z" fill="#000000" fill-rule="nonzero" fill-opacity="1" /><path clip-path="url(#clip930)" d="M86.1431 523.12 Q87.0449 523.12 87.2704 523.539 Q87.4636 523.958 87.4636 525.117 L87.4636 531.301 L106.916 536.196 Q108.623 536.582 110.072 536.582 Q111.682 536.582 112.391 536.099 Q113.099 535.584 113.099 534.521 Q113.099 532.428 111.199 530.173 Q109.299 527.887 104.662 525.954 Q104.05 525.697 103.921 525.568 Q103.76 525.407 103.76 524.988 Q103.76 524.183 104.404 524.183 Q104.629 524.183 105.66 524.634 Q106.69 525.053 108.204 525.987 Q109.718 526.888 111.135 528.08 Q112.552 529.239 113.583 531.011 Q114.581 532.782 114.581 534.682 Q114.581 537.355 112.874 539.062 Q111.167 540.737 108.494 540.737 Q107.624 540.737 104.855 540.061 Q102.053 539.384 87.4636 535.713 L87.4636 541.542 Q87.4636 542.347 87.4314 542.669 Q87.3992 542.959 87.2381 543.185 Q87.0449 543.378 86.6584 543.378 Q86.0465 543.378 85.7889 543.12 Q85.499 542.862 85.4668 542.54 Q85.4024 542.186 85.4024 541.381 L85.4024 535.197 L74.9355 532.621 Q73.9049 532.363 73.3252 531.719 Q72.7133 531.043 72.6489 530.656 Q72.5523 530.27 72.5523 529.98 Q72.5523 529.111 73.0354 528.595 Q73.4862 528.08 74.3236 528.08 Q74.7745 528.08 85.4024 530.785 L85.4024 524.988 Q85.4024 524.247 85.4346 523.958 Q85.4668 523.636 85.6279 523.378 Q85.7889 523.12 86.1431 523.12 Z" fill="#000000" fill-rule="nonzero" fill-opacity="1" /><path clip-path="url(#clip930)" d="M129.685 517.957 Q129.363 517.957 128.558 517.119 Q117.737 506.491 97.3508 506.491 Q76.9001 506.491 66.562 516.701 Q65.3704 517.957 65.0161 517.957 Q64.372 517.957 64.372 517.313 Q64.372 516.862 65.6924 515.284 Q67.0129 513.673 70.0402 511.258 Q73.0676 508.81 76.7712 507.007 Q85.7567 502.659 97.3508 502.659 Q108.494 502.659 117.479 506.814 Q121.248 508.585 124.404 511.065 Q127.56 513.545 128.945 515.187 Q130.33 516.83 130.33 517.313 Q130.33 517.957 129.685 517.957 Z" fill="#000000" fill-rule="nonzero" fill-opacity="1" /><path clip-path="url(#clip930)" d="M129.396 492.629 Q129.074 492.629 128.365 492.372 L66.1433 469.087 Q66.0789 469.087 65.7246 468.926 Q65.3704 468.765 65.1449 468.668 Q64.8873 468.572 64.694 468.378 Q64.5008 468.153 64.5008 467.895 Q64.5008 467.251 65.306 467.251 Q65.3704 467.251 66.1433 467.444 L128.429 490.794 Q129.557 491.18 129.879 491.438 Q130.201 491.663 130.201 492.05 Q130.201 492.629 129.396 492.629 Z" fill="#000000" fill-rule="nonzero" fill-opacity="1" /><path clip-path="url(#clip930)" d="M69.5249 404.442 Q70.4589 404.442 70.6521 404.861 Q70.8454 405.248 70.8454 406.665 Q70.8454 409.08 71.1674 410.175 Q71.4573 411.238 71.9726 411.56 Q72.4557 411.85 73.8727 412.204 L109.492 421.125 Q109.525 421.125 109.975 421.222 Q110.394 421.318 110.62 421.318 Q111.038 421.318 111.296 421.061 Q111.554 420.771 111.682 420.062 Q111.779 419.354 111.811 418.806 Q111.811 418.226 111.811 417.035 Q111.811 415.553 112.069 415.328 Q112.23 415.199 112.52 415.199 Q113.132 415.199 113.454 415.457 Q113.744 415.682 113.808 415.908 Q113.84 416.101 113.84 416.487 Q113.84 417.164 113.776 418.613 Q113.711 420.062 113.711 420.803 L113.647 425.022 L113.84 433.395 Q113.84 434.297 113.099 434.297 Q112.455 434.297 112.165 434.072 Q111.876 433.846 111.843 433.621 Q111.811 433.363 111.811 432.719 Q111.811 429.402 111.489 428.307 Q111.135 427.18 109.621 426.729 L91.4249 422.188 L91.4249 442.284 L109.492 446.793 Q109.525 446.793 109.975 446.89 Q110.394 446.986 110.62 446.986 Q111.038 446.986 111.296 446.729 Q111.554 446.439 111.682 445.73 Q111.779 445.022 111.811 444.474 Q111.811 443.895 111.811 442.703 Q111.811 441.221 112.069 440.964 Q112.23 440.835 112.52 440.835 Q112.971 440.835 113.293 440.964 Q113.583 441.06 113.679 441.318 Q113.776 441.544 113.808 441.705 Q113.84 441.866 113.84 442.155 Q113.84 442.832 113.776 444.281 Q113.711 445.698 113.711 446.439 L113.647 450.658 L113.84 459.031 Q113.84 459.965 113.099 459.965 Q112.455 459.965 112.198 459.74 Q111.908 459.514 111.876 459.225 Q111.811 458.935 111.811 458.194 Q111.811 456.584 111.715 455.617 Q111.618 454.651 111.489 454.039 Q111.328 453.395 110.877 453.073 Q110.426 452.719 110.04 452.558 Q109.621 452.397 108.687 452.171 L73.2608 443.347 Q72.198 443.089 72.037 443.089 Q71.4251 443.089 71.264 443.476 Q71.0708 443.83 70.9742 444.861 L70.8454 447.373 Q70.8454 448.146 70.8132 448.468 Q70.781 448.758 70.6199 448.983 Q70.4589 449.209 70.1046 449.209 Q69.6537 449.209 69.3639 449.112 Q69.0418 448.983 68.9452 448.758 Q68.8486 448.532 68.8164 448.371 Q68.7842 448.21 68.7842 447.952 L68.9774 439.45 L68.7842 431.012 Q68.7842 430.078 69.5249 430.078 Q70.4589 430.078 70.6521 430.497 Q70.8454 430.916 70.8454 432.333 Q70.8454 434.684 71.1674 435.779 Q71.4573 436.874 71.9726 437.228 Q72.4879 437.55 73.8727 437.872 L89.3637 441.769 L89.3637 421.64 L73.2608 417.679 Q72.1014 417.421 72.037 417.421 Q71.4251 417.421 71.264 417.808 Q71.0708 418.162 70.9742 419.193 L70.8454 421.705 Q70.8454 422.478 70.8132 422.8 Q70.781 423.09 70.6199 423.347 Q70.4589 423.573 70.1046 423.573 Q69.6537 423.573 69.3639 423.476 Q69.0418 423.347 68.9452 423.122 Q68.8486 422.896 68.8164 422.735 Q68.7842 422.574 68.7842 422.317 L68.9774 413.814 L68.7842 405.344 Q68.7842 404.442 69.5249 404.442 Z" fill="#000000" fill-rule="nonzero" fill-opacity="1" /><path clip-path="url(#clip930)" d="M85.338 373.791 Q85.5634 373.791 86.5296 374.339 Q87.4636 374.854 89.8146 376.754 Q92.1656 378.654 94.9031 381.488 Q95.9659 382.551 97.4474 384.162 Q98.9289 385.772 99.8951 386.867 L100.861 387.962 Q104.404 392.149 108.365 395.82 Q108.269 395.562 108.236 395.112 Q108.172 394.661 108.172 394.339 L108.172 394.017 Q108.172 392.342 109.299 389.411 Q110.137 386.835 110.137 385.514 Q110.137 384.226 109.686 382.809 Q109.235 381.392 107.914 379.846 Q106.594 378.3 104.597 377.592 Q104.275 377.463 104.178 377.398 Q104.05 377.334 103.921 377.141 Q103.76 376.947 103.76 376.69 Q103.76 376.336 103.953 376.11 Q104.146 375.885 104.404 375.885 Q104.984 375.885 106.143 376.336 Q107.302 376.754 108.752 377.688 Q110.201 378.59 111.521 379.782 Q112.81 380.941 113.711 382.68 Q114.581 384.419 114.581 386.255 Q114.581 387.575 113.937 388.542 Q113.325 389.508 112.133 390.474 Q110.62 391.794 110.137 392.503 Q109.621 393.211 109.621 394.306 Q109.621 397.237 113.711 399.91 Q114.291 400.2 114.42 400.393 Q114.581 400.554 114.581 400.941 Q114.549 401.746 113.905 401.746 Q113.647 401.746 112.52 401.037 Q111.36 400.297 109.331 398.654 Q107.302 396.979 105.273 394.951 L99.734 389.025 Q94.1946 382.455 91.0706 379.846 Q91.0706 380.941 91.0384 381.424 Q91.0062 381.875 90.813 382.777 Q90.5876 383.678 90.1045 384.934 Q89.1061 387.865 89.1061 389.089 Q89.1061 389.411 89.1383 389.765 Q89.1705 390.12 89.3315 390.925 Q89.4926 391.698 89.8146 392.342 Q90.1045 392.986 90.7486 393.662 Q91.3605 394.339 92.1978 394.693 Q92.4555 394.789 92.5843 394.854 Q92.7131 394.918 92.842 395.112 Q92.9386 395.273 92.9386 395.53 Q92.9386 395.917 92.7131 396.142 Q92.4877 396.335 92.1978 396.335 Q91.6181 396.335 90.4265 395.756 Q89.2349 395.176 87.9467 394.21 Q86.6262 393.244 85.6601 391.666 Q84.6939 390.087 84.6939 388.348 Q84.6939 387.318 85.1448 386.448 Q85.5956 385.546 86.0787 385.096 Q86.5296 384.612 87.528 383.807 Q88.3009 383.131 88.623 382.809 Q88.9451 382.487 89.2993 381.843 Q89.6214 381.166 89.6214 380.426 Q89.6214 379.202 88.6874 378.075 Q87.7212 376.947 85.4024 375.498 Q84.6939 375.112 84.6939 374.5 Q84.6939 373.791 85.338 373.791 Z" fill="#000000" fill-rule="nonzero" fill-opacity="1" /><polyline clip-path="url(#clip932)" style="stroke:#ffa500; stroke-linecap:round; stroke-linejoin:round; stroke-width:12; stroke-opacity:0.75; fill:none" points="247.989,234.643 249.497,263.565 251.005,291.755 252.513,319.037 254.021,345.428 255.529,370.943 257.036,395.596 258.544,419.402 260.052,442.377 261.56,464.536 263.068,485.893 264.576,506.465 266.084,526.265 267.592,545.31 269.1,563.613 270.608,581.191 272.116,598.058 273.624,614.228 275.132,629.717 276.64,644.539 278.148,658.709 279.656,672.241 281.164,685.149 282.672,697.449 284.179,709.154 285.687,720.279 287.195,730.836 288.703,740.84 290.211,750.306 291.719,759.245 293.227,767.672 294.735,775.6 296.243,783.042 297.751,790.01 299.259,796.519 300.767,802.58 302.275,808.205 303.783,813.408 305.291,818.2 306.799,822.594 308.307,826.6 309.815,830.231 311.322,833.498 312.83,836.413 314.338,838.986 315.846,841.229 317.354,843.152 318.862,844.766 320.37,846.08 321.878,847.107 323.386,847.854 324.894,848.333 326.402,848.553 327.91,848.523 329.418,848.253 330.926,847.751 332.434,847.027 333.942,846.09 335.45,844.948 336.958,843.61 338.466,842.083 339.973,840.376 341.481,838.496 342.989,836.452 344.497,834.251 346.005,831.9 347.513,829.406 349.021,826.777 350.529,824.019 352.037,821.139 353.545,818.143 355.053,815.039 356.561,811.831 358.069,808.526 359.577,805.131 361.085,801.65 362.593,798.089 364.101,794.454 365.609,790.75 367.116,786.981 368.624,783.154 370.132,779.273 371.64,775.342 373.148,771.366 374.656,767.35 376.164,763.297 377.672,759.212 379.18,755.099 380.688,750.962 382.196,746.804 383.704,742.629 385.212,738.441 386.72,734.243 388.228,730.039 389.736,725.83 391.244,721.621 392.752,717.414 394.259,713.213 395.767,709.019 397.275,704.836 398.783,700.665 400.291,696.51 401.799,692.373 403.307,688.255 404.815,684.159 406.323,680.087 407.831,676.041 409.339,672.023 410.847,668.034 412.355,664.076 413.863,660.15 415.371,656.259 416.879,652.403 418.387,648.583 419.895,644.802 421.402,641.06 422.91,637.359 424.418,633.699 425.926,630.081 427.434,626.507 428.942,622.977 430.45,619.491 431.958,616.052 433.466,612.658 434.974,609.312 436.482,606.013 437.99,602.762 439.498,599.56 441.006,596.406 442.514,593.302 444.022,590.247 445.53,587.242 447.038,584.287 448.546,581.382 450.053,578.527 451.561,575.723 453.069,572.97 454.577,570.266 456.085,567.613 457.593,565.011 459.101,562.459 460.609,559.957 462.117,557.505 463.625,555.103 465.133,552.75 466.641,550.447 468.149,548.194 469.657,545.989 471.165,543.833 472.673,541.725 474.181,539.665 475.689,537.652 477.196,535.687 478.704,533.769 480.212,531.897 481.72,530.071 483.228,528.29 484.736,526.554 486.244,524.863 487.752,523.216 489.26,521.613 490.768,520.052 492.276,518.534 493.784,517.058 495.292,515.623 496.8,514.23 498.308,512.876 499.816,511.562 501.324,510.288 502.832,509.052 504.339,507.854 505.847,506.693 507.355,505.569 508.863,504.482 510.371,503.43 511.879,502.413 513.387,501.43 514.895,500.481 516.403,499.566 517.911,498.683 519.419,497.832 520.927,497.013 522.435,496.224 523.943,495.465 525.451,494.736 526.959,494.036 528.467,493.365 529.975,492.721 531.482,492.104 532.99,491.515 534.498,490.951 536.006,490.412 537.514,489.899 539.022,489.409 540.53,488.944 542.038,488.501 543.546,488.082 545.054,487.684 546.562,487.308 548.07,486.953 549.578,486.618 551.086,486.303 552.594,486.008 554.102,485.731 555.61,485.473 557.118,485.233 558.626,485.01 560.133,484.804 561.641,484.614 563.149,484.44 564.657,484.282 566.165,484.138 567.673,484.01 569.181,483.895 570.689,483.793 572.197,483.705 573.705,483.63 575.213,483.567 576.721,483.516 578.229,483.476 579.737,483.448 581.245,483.43 582.753,483.423 584.261,483.425 585.769,483.437 587.276,483.459 588.784,483.489 590.292,483.527 591.8,483.574 593.308,483.629 594.816,483.691 596.324,483.76 597.832,483.836 599.34,483.919 600.848,484.008 602.356,484.103 603.864,484.204 605.372,484.31 606.88,484.421 608.388,484.537 609.896,484.657 611.404,484.782 612.912,484.911 614.419,485.044 615.927,485.18 617.435,485.32 618.943,485.463 620.451,485.609 621.959,485.758 623.467,485.909 624.975,486.062 626.483,486.218 627.991,486.376 629.499,486.535 631.007,486.696 632.515,486.859 634.023,487.022 635.531,487.187 637.039,487.353 638.547,487.52 640.055,487.687 641.562,487.855 643.07,488.023 644.578,488.191 646.086,488.36 647.594,488.528 649.102,488.697 650.61,488.865 652.118,489.033 653.626,489.2 655.134,489.367 656.642,489.533 658.15,489.699 659.658,489.864 661.166,490.027 662.674,490.19 664.182,490.352 665.69,490.513 667.198,490.672 668.705,490.831 670.213,490.988 671.721,491.143 673.229,491.298 674.737,491.45 676.245,491.602 677.753,491.751 679.261,491.899 680.769,492.045 682.277,492.19 683.785,492.333 685.293,492.474 686.801,492.613 688.309,492.751 689.817,492.886 691.325,493.02 692.833,493.152 694.341,493.282 695.849,493.41 697.356,493.536 698.864,493.66 700.372,493.782 701.88,493.902 703.388,494.02 704.896,494.136 706.404,494.25 707.912,494.362 709.42,494.472 710.928,494.58 712.436,494.686 713.944,494.79 715.452,494.892 716.96,494.992 718.468,495.09 719.976,495.186 721.484,495.28 722.992,495.372 724.499,495.462 726.007,495.55 727.515,495.636 729.023,495.72 730.531,495.802 732.039,495.882 733.547,495.961 735.055,496.037 736.563,496.112 738.071,496.185 739.579,496.256 741.087,496.325 742.595,496.393 744.103,496.458 745.611,496.522 747.119,496.585 748.627,496.645 750.135,496.704 751.642,496.761 753.15,496.817 754.658,496.871 756.166,496.923 757.674,496.974 759.182,497.023 760.69,497.071 762.198,497.117 763.706,497.162 765.214,497.206 766.722,497.248 768.23,497.288 769.738,497.327 771.246,497.365 772.754,497.402 774.262,497.437 775.77,497.471 777.278,497.503 778.785,497.535 780.293,497.565 781.801,497.594 783.309,497.622 784.817,497.649 786.325,497.674 787.833,497.699 789.341,497.722 790.849,497.745 792.357,497.766 793.865,497.786 795.373,497.806 796.881,497.824 798.389,497.842 799.897,497.859 801.405,497.875 802.913,497.889 804.421,497.904 805.929,497.917 807.436,497.929 808.944,497.941 810.452,497.952 811.96,497.962 813.468,497.972 814.976,497.981 816.484,497.989 817.992,497.996 819.5,498.003 821.008,498.009 822.516,498.015 824.024,498.02 825.532,498.025 827.04,498.029 828.548,498.032 830.056,498.035 831.564,498.038 833.072,498.04 834.579,498.041 836.087,498.042 837.595,498.043 839.103,498.043 840.611,498.043 842.119,498.042 843.627,498.041 845.135,498.04 846.643,498.039 848.151,498.037 849.659,498.034 851.167,498.032 852.675,498.029 854.183,498.026 855.691,498.023 857.199,498.019 858.707,498.015 860.215,498.011 861.722,498.007 863.23,498.003 864.738,497.998 866.246,497.993 867.754,497.988 869.262,497.983 870.77,497.977 872.278,497.972 873.786,497.966 875.294,497.961 876.802,497.955 878.31,497.949 879.818,497.943 881.326,497.937 882.834,497.93 884.342,497.924 885.85,497.918 887.358,497.911 888.865,497.905 890.373,497.898 891.881,497.891 893.389,497.885 894.897,497.878 896.405,497.871 897.913,497.865 899.421,497.858 900.929,497.851 902.437,497.844 903.945,497.838 905.453,497.831 906.961,497.824 908.469,497.818 909.977,497.811 911.485,497.804 912.993,497.798 914.501,497.791 916.009,497.784 917.516,497.778 919.024,497.771 920.532,497.765 922.04,497.758 923.548,497.752 925.056,497.746 926.564,497.739 928.072,497.733 929.58,497.727 931.088,497.721 932.596,497.715 934.104,497.709 935.612,497.703 937.12,497.697 938.628,497.691 940.136,497.686 941.644,497.68 943.152,497.674 944.659,497.669 946.167,497.663 947.675,497.658 949.183,497.653 950.691,497.648 952.199,497.642 953.707,497.637 955.215,497.633 956.723,497.628 958.231,497.623 959.739,497.618 961.247,497.613 962.755,497.609 964.263,497.604 965.771,497.6 967.279,497.596 968.787,497.592 970.295,497.587 971.802,497.583 973.31,497.579 974.818,497.575 976.326,497.572 977.834,497.568 979.342,497.564 980.85,497.561 982.358,497.557 983.866,497.554 985.374,497.55 986.882,497.547 988.39,497.544 989.898,497.541 991.406,497.538 992.914,497.535 994.422,497.532 995.93,497.529 997.438,497.526 998.945,497.523 1000.45,497.521 1001.96,497.518 1003.47,497.516 1004.98,497.513 1006.49,497.511 1007.99,497.509 1009.5,497.506 1011.01,497.504 1012.52,497.502 1014.02,497.5 1015.53,497.498 1017.04,497.496 1018.55,497.494 1020.06,497.493 1021.56,497.491 1023.07,497.489 1024.58,497.488 1026.09,497.486 1027.6,497.485 1029.1,497.483 1030.61,497.482 1032.12,497.48 1033.63,497.479 1035.14,497.478 1036.64,497.477 1038.15,497.476 1039.66,497.474 1041.17,497.473 1042.68,497.472 1044.18,497.471 1045.69,497.47 1047.2,497.47 1048.71,497.469 1050.22,497.468 1051.72,497.467 1053.23,497.466 1054.74,497.466 1056.25,497.465 1057.76,497.464 1059.26,497.464 1060.77,497.463 1062.28,497.463 1063.79,497.462 1065.3,497.462 1066.8,497.461 1068.31,497.461 1069.82,497.46 1071.33,497.46 1072.83,497.46 1074.34,497.46 1075.85,497.459 1077.36,497.459 1078.87,497.459 1080.37,497.459 1081.88,497.458 1083.39,497.458 1084.9,497.458 1086.41,497.458 1087.91,497.458 1089.42,497.458 1090.93,497.458 1092.44,497.458 1093.95,497.458 1095.45,497.458 1096.96,497.458 1098.47,497.458 1099.98,497.458 1101.49,497.458 1102.99,497.458 1104.5,497.458 1106.01,497.458 1107.52,497.458 1109.03,497.458 1110.53,497.458 1112.04,497.459 1113.55,497.459 1115.06,497.459 1116.57,497.459 1118.07,497.459 1119.58,497.459 1121.09,497.46 1122.6,497.46 1124.1,497.46 1125.61,497.46 1127.12,497.46 1128.63,497.461 1130.14,497.461 1131.64,497.461 1133.15,497.461 1134.66,497.461 1136.17,497.462 1137.68,497.462 1139.18,497.462 1140.69,497.462 1142.2,497.463 1143.71,497.463 1145.22,497.463 1146.72,497.464 1148.23,497.464 1149.74,497.464 1151.25,497.464 1152.76,497.465 1154.26,497.465 1155.77,497.465 1157.28,497.465 1158.79,497.466 1160.3,497.466 1161.8,497.466 1163.31,497.466 1164.82,497.467 1166.33,497.467 1167.84,497.467 1169.34,497.468 1170.85,497.468 1172.36,497.468 1173.87,497.468 1175.38,497.469 1176.88,497.469 1178.39,497.469 1179.9,497.469 1181.41,497.47 1182.91,497.47 1184.42,497.47 1185.93,497.47 1187.44,497.471 1188.95,497.471 1190.45,497.471 1191.96,497.471 1193.47,497.472 1194.98,497.472 1196.49,497.472 1197.99,497.472 1199.5,497.472 1201.01,497.473 1202.52,497.473 1204.03,497.473 1205.53,497.473 1207.04,497.474 1208.55,497.474 1210.06,497.474 1211.57,497.474 1213.07,497.474 1214.58,497.475 1216.09,497.475 1217.6,497.475 1219.11,497.475 1220.61,497.475 1222.12,497.475 1223.63,497.476 1225.14,497.476 1226.65,497.476 1228.15,497.476 1229.66,497.476 1231.17,497.476 1232.68,497.477 1234.18,497.477 1235.69,497.477 1237.2,497.477 1238.71,497.477 1240.22,497.477 1241.72,497.477 1243.23,497.478 1244.74,497.478 1246.25,497.478 1247.76,497.478 1249.26,497.478 1250.77,497.478 1252.28,497.478 1253.79,497.478 1255.3,497.478 1256.8,497.479 1258.31,497.479 1259.82,497.479 1261.33,497.479 1262.84,497.479 1264.34,497.479 1265.85,497.479 1267.36,497.479 1268.87,497.479 1270.38,497.479 1271.88,497.479 1273.39,497.48 1274.9,497.48 1276.41,497.48 1277.92,497.48 1279.42,497.48 1280.93,497.48 1282.44,497.48 1283.95,497.48 1285.46,497.48 1286.96,497.48 1288.47,497.48 1289.98,497.48 1291.49,497.48 1292.99,497.48 1294.5,497.48 1296.01,497.48 1297.52,497.48 1299.03,497.481 1300.53,497.481 1302.04,497.481 1303.55,497.481 1305.06,497.481 1306.57,497.481 1308.07,497.481 1309.58,497.481 1311.09,497.481 1312.6,497.481 1314.11,497.481 1315.61,497.481 1317.12,497.481 1318.63,497.481 1320.14,497.481 1321.65,497.481 1323.15,497.481 1324.66,497.481 1326.17,497.481 1327.68,497.481 1329.19,497.481 1330.69,497.481 1332.2,497.481 1333.71,497.481 1335.22,497.481 1336.73,497.481 1338.23,497.481 1339.74,497.481 1341.25,497.481 1342.76,497.481 1344.26,497.481 1345.77,497.481 1347.28,497.481 1348.79,497.481 1350.3,497.481 1351.8,497.481 1353.31,497.481 1354.82,497.481 1356.33,497.481 1357.84,497.481 1359.34,497.481 1360.85,497.481 1362.36,497.481 1363.87,497.481 1365.38,497.481 1366.88,497.481 1368.39,497.481 1369.9,497.481 1371.41,497.481 1372.92,497.481 1374.42,497.481 1375.93,497.481 1377.44,497.481 1378.95,497.481 1380.46,497.481 1381.96,497.481 1383.47,497.481 1384.98,497.481 1386.49,497.481 1388,497.481 1389.5,497.481 1391.01,497.481 1392.52,497.481 1394.03,497.481 1395.54,497.481 1397.04,497.481 1398.55,497.481 1400.06,497.481 1401.57,497.481 1403.07,497.481 1404.58,497.481 1406.09,497.481 1407.6,497.481 1409.11,497.481 1410.61,497.481 1412.12,497.481 1413.63,497.481 1415.14,497.481 1416.65,497.481 1418.15,497.481 1419.66,497.481 1421.17,497.481 1422.68,497.481 1424.19,497.481 1425.69,497.481 1427.2,497.481 1428.71,497.481 1430.22,497.481 1431.73,497.481 1433.23,497.481 1434.74,497.481 1436.25,497.481 1437.76,497.481 1439.27,497.481 1440.77,497.481 1442.28,497.481 1443.79,497.481 1445.3,497.481 1446.81,497.481 1448.31,497.481 1449.82,497.481 1451.33,497.481 1452.84,497.481 1454.34,497.481 1455.85,497.481 1457.36,497.481 1458.87,497.48 1460.38,497.48 1461.88,497.48 1463.39,497.48 1464.9,497.48 1466.41,497.48 1467.92,497.48 1469.42,497.48 1470.93,497.48 1472.44,497.48 1473.95,497.48 1475.46,497.48 1476.96,497.48 1478.47,497.48 1479.98,497.48 1481.49,497.48 1483,497.48 1484.5,497.48 1486.01,497.48 1487.52,497.48 1489.03,497.48 1490.54,497.48 1492.04,497.48 1493.55,497.48 1495.06,497.48 1496.57,497.48 1498.08,497.48 1499.58,497.48 1501.09,497.48 1502.6,497.48 1504.11,497.48 1505.62,497.48 1507.12,497.48 1508.63,497.48 1510.14,497.48 1511.65,497.48 1513.15,497.48 1514.66,497.48 1516.17,497.48 1517.68,497.48 1519.19,497.48 1520.69,497.48 1522.2,497.48 1523.71,497.48 1525.22,497.48 1526.73,497.48 1528.23,497.48 1529.74,497.48 1531.25,497.48 1532.76,497.48 1534.27,497.48 1535.77,497.48 1537.28,497.48 1538.79,497.48 1540.3,497.48 1541.81,497.48 1543.31,497.48 1544.82,497.48 1546.33,497.48 1547.84,497.48 1549.35,497.48 1550.85,497.48 1552.36,497.48 1553.87,497.48 1555.38,497.48 1556.89,497.48 1558.39,497.48 1559.9,497.48 1561.41,497.48 1562.92,497.48 1564.42,497.48 1565.93,497.48 1567.44,497.48 1568.95,497.48 1570.46,497.48 1571.96,497.48 1573.47,497.48 1574.98,497.48 1576.49,497.48 1578,497.48 1579.5,497.48 1581.01,497.48 1582.52,497.48 1584.03,497.48 1585.54,497.48 1587.04,497.48 1588.55,497.48 1590.06,497.48 1591.57,497.48 1593.08,497.48 1594.58,497.48 1596.09,497.48 1597.6,497.48 1599.11,497.48 1600.62,497.48 1602.12,497.48 1603.63,497.48 1605.14,497.48 1606.65,497.48 1608.16,497.48 1609.66,497.48 1611.17,497.48 1612.68,497.48 1614.19,497.48 1615.7,497.48 1617.2,497.48 1618.71,497.48 1620.22,497.48 1621.73,497.48 1623.23,497.48 1624.74,497.48 1626.25,497.48 1627.76,497.48 1629.27,497.48 1630.77,497.48 1632.28,497.48 1633.79,497.48 1635.3,497.48 1636.81,497.48 1638.31,497.48 1639.82,497.48 1641.33,497.48 1642.84,497.48 1644.35,497.48 1645.85,497.48 1647.36,497.48 1648.87,497.48 1650.38,497.48 1651.89,497.48 1653.39,497.48 1654.9,497.48 1656.41,497.48 1657.92,497.48 1659.43,497.48 1660.93,497.48 1662.44,497.48 1663.95,497.48 1665.46,497.48 1666.97,497.48 1668.47,497.48 1669.98,497.48 1671.49,497.48 1673,497.48 1674.5,497.48 1676.01,497.48 1677.52,497.48 1679.03,497.48 1680.54,497.48 1682.04,497.48 1683.55,497.48 1685.06,497.48 1686.57,497.48 1688.08,497.48 1689.58,497.48 1691.09,497.48 1692.6,497.48 1694.11,497.48 1695.62,497.48 1697.12,497.48 1698.63,497.48 1700.14,497.48 1701.65,497.48 1703.16,497.48 1704.66,497.48 1706.17,497.48 1707.68,497.48 1709.19,497.48 1710.7,497.48 1712.2,497.48 1713.71,497.48 1715.22,497.48 1716.73,497.48 1718.24,497.48 1719.74,497.48 1721.25,497.48 1722.76,497.48 1724.27,497.48 1725.78,497.48 1727.28,497.48 1728.79,497.48 1730.3,497.48 1731.81,497.48 1733.31,497.48 1734.82,497.48 1736.33,497.48 1737.84,497.48 1739.35,497.48 1740.85,497.48 1742.36,497.48 1743.87,497.48 1745.38,497.48 1746.89,497.48 1748.39,497.48 1749.9,497.48 1751.41,497.48 1752.92,497.48 1754.43,497.48 1755.93,497.48 1757.44,497.48 1758.95,497.48 1760.46,497.48 1761.97,497.48 1763.47,497.48 1764.98,497.48 1766.49,497.48 1768,497.48 1769.51,497.48 1771.01,497.48 1772.52,497.48 1774.03,497.48 1775.54,497.48 1777.05,497.48 1778.55,497.48 1780.06,497.48 1781.57,497.48 1783.08,497.48 1784.58,497.48 1786.09,497.48 1787.6,497.48 1789.11,497.48 1790.62,497.48 1792.12,497.48 1793.63,497.48 1795.14,497.48 1796.65,497.48 1798.16,497.48 1799.66,497.48 1801.17,497.48 1802.68,497.48 1804.19,497.48 1805.7,497.48 1807.2,497.48 1808.71,497.48 1810.22,497.48 1811.73,497.48 1813.24,497.48 1814.74,497.48 1816.25,497.48 1817.76,497.48 1819.27,497.48 1820.78,497.48 1822.28,497.48 1823.79,497.48 1825.3,497.48 1826.81,497.48 1828.32,497.48 1829.82,497.48 1831.33,497.48 1832.84,497.48 1834.35,497.48 1835.86,497.48 1837.36,497.48 1838.87,497.48 1840.38,497.48 1841.89,497.48 1843.39,497.48 1844.9,497.48 1846.41,497.48 1847.92,497.48 1849.43,497.48 1850.93,497.48 1852.44,497.48 1853.95,497.48 1855.46,497.48 1856.97,497.48 1858.47,497.48 1859.98,497.48 1861.49,497.48 1863,497.48 1864.51,497.48 1866.01,497.48 1867.52,497.48 1869.03,497.48 1870.54,497.48 1872.05,497.48 1873.55,497.48 1875.06,497.48 1876.57,497.48 1878.08,497.48 1879.59,497.48 1881.09,497.48 1882.6,497.48 1884.11,497.48 1885.62,497.48 1887.13,497.48 1888.63,497.48 1890.14,497.48 1891.65,497.48 1893.16,497.48 1894.66,497.48 1896.17,497.48 1897.68,497.48 1899.19,497.48 1900.7,497.48 1902.2,497.48 1903.71,497.48 1905.22,497.48 1906.73,497.48 1908.24,497.48 1909.74,497.48 1911.25,497.48 1912.76,497.48 1914.27,497.48 1915.78,497.48 1917.28,497.48 1918.79,497.48 1920.3,497.48 1921.81,497.48 1923.32,497.48 1924.82,497.48 1926.33,497.48 1927.84,497.48 1929.35,497.48 1930.86,497.48 1932.36,497.48 1933.87,497.48 1935.38,497.48 1936.89,497.48 1938.4,497.48 1939.9,497.48 1941.41,497.48 1942.92,497.48 1944.43,497.48 1945.94,497.48 1947.44,497.48 1948.95,497.48 1950.46,497.48 1951.97,497.48 1953.47,497.48 1954.98,497.48 1956.49,497.48 1958,497.48 1959.51,497.48 1961.01,497.48 1962.52,497.48 1964.03,497.48 1965.54,497.48 1967.05,497.48 1968.55,497.48 1970.06,497.48 1971.57,497.48 1973.08,497.48 1974.59,497.48 1976.09,497.48 1977.6,497.48 1979.11,497.48 1980.62,497.48 1982.13,497.48 1983.63,497.48 1985.14,497.48 1986.65,497.48 1988.16,497.48 1989.67,497.48 1991.17,497.48 1992.68,497.48 1994.19,497.48 1995.7,497.48 1997.21,497.48 1998.71,497.48 2000.22,497.48 2001.73,497.48 2003.24,497.48 2004.74,497.48 2006.25,497.48 2007.76,497.48 2009.27,497.48 2010.78,497.48 2012.28,497.48 2013.79,497.48 2015.3,497.48 2016.81,497.48 2018.32,497.48 2019.82,497.48 2021.33,497.48 2022.84,497.48 2024.35,497.48 2025.86,497.48 2027.36,497.48 2028.87,497.48 2030.38,497.48 2031.89,497.48 2033.4,497.48 2034.9,497.48 2036.41,497.48 2037.92,497.48 2039.43,497.48 2040.94,497.48 2042.44,497.48 2043.95,497.48 2045.46,497.48 2046.97,497.48 2048.48,497.48 2049.98,497.48 2051.49,497.48 2053,497.48 2054.51,497.48 2056.02,497.48 2057.52,497.48 "/>
<polyline clip-path="url(#clip932)" style="stroke:#0000ff; stroke-linecap:round; stroke-linejoin:round; stroke-width:12; stroke-opacity:0.5; fill:none" points="247.989,234.643 249.497,263.597 251.005,291.7 252.513,318.765 254.021,344.845 255.529,369.969 257.036,394.178 258.544,417.492 260.052,439.972 261.56,461.446 263.068,482.133 264.576,502.021 266.084,521.018 267.592,539.234 269.1,556.659 270.608,573.418 272.116,589.397 273.624,604.652 275.132,619.29 276.64,633.134 278.148,646.26 279.656,658.805 281.164,670.739 282.672,682.136 284.179,692.862 285.687,703.053 287.195,712.665 288.703,721.673 290.211,730.156 291.719,738.178 293.227,745.735 294.735,752.751 296.243,759.305 297.751,765.32 299.259,770.859 300.767,775.97 302.275,780.659 303.783,784.992 305.291,788.962 306.799,792.529 308.307,795.72 309.815,798.485 311.322,801.099 312.83,803.299 314.338,805.181 315.846,806.713 317.354,808.015 318.862,808.858 320.37,809.599 321.878,810.196 323.386,810.38 324.894,810.355 326.402,810.02 327.91,809.704 329.418,808.917 330.926,808.046 332.434,806.834 333.942,805.249 335.45,803.766 336.958,802.077 338.466,800.244 339.973,798.381 341.481,796.193 342.989,793.78 344.497,791.154 346.005,788.509 347.513,785.776 349.021,782.958 350.529,779.906 352.037,776.82 353.545,773.64 355.053,770.551 356.561,767.164 358.069,763.755 359.577,760.441 361.085,757.074 362.593,753.516 364.101,749.77 365.609,746.206 367.116,742.347 368.624,738.561 370.132,734.717 371.64,730.785 373.148,726.713 374.656,722.61 376.164,718.7 377.672,714.88 379.18,711.061 380.688,707.07 382.196,703.001 383.704,699.051 385.212,695.102 386.72,691.102 388.228,687.122 389.736,683.283 391.244,679.471 392.752,675.435 394.259,671.471 395.767,667.554 397.275,663.619 398.783,659.697 400.291,655.856 401.799,652.011 403.307,648.367 404.815,644.61 406.323,640.977 407.831,637.333 409.339,633.66 410.847,630.186 412.355,626.617 413.863,623.087 415.371,619.778 416.879,616.587 418.387,613.314 419.895,610.072 421.402,606.929 422.91,603.891 424.418,600.58 425.926,597.53 427.434,594.434 428.942,591.423 430.45,588.364 431.958,585.337 433.466,582.55 434.974,579.642 436.482,576.913 437.99,574.213 439.498,571.59 441.006,569.033 442.514,566.267 444.022,563.718 445.53,561.168 447.038,558.792 448.546,556.511 450.053,554.407 451.561,552.136 453.069,549.805 454.577,547.55 456.085,545.261 457.593,543.06 459.101,540.934 460.609,538.816 462.117,536.757 463.625,534.788 465.133,532.791 466.641,530.961 468.149,529.091 469.657,527.241 471.165,525.473 472.673,523.834 474.181,522.135 475.689,520.529 477.196,519.221 478.704,517.644 480.212,515.996 481.72,514.425 483.228,513.036 484.736,511.493 486.244,509.817 487.752,508.44 489.26,507.066 490.768,505.915 492.276,504.851 493.784,503.656 495.292,502.583 496.8,501.476 498.308,500.468 499.816,499.542 501.324,498.572 502.832,497.495 504.339,496.268 505.847,495.22 507.355,493.987 508.863,492.993 510.371,492.247 511.879,491.289 513.387,490.455 514.895,489.692 516.403,488.892 517.911,488.361 519.419,487.541 520.927,486.964 522.435,486.486 523.943,486.032 525.451,485.608 526.959,485.191 528.467,484.846 529.975,484.486 531.482,483.981 532.99,483.481 534.498,482.901 536.006,482.469 537.514,482.17 539.022,481.782 540.53,481.305 542.038,480.88 543.546,480.512 545.054,480.403 546.562,480.186 548.07,479.982 549.578,479.911 551.086,479.733 552.594,479.592 554.102,479.438 555.61,479.245 557.118,479.011 558.626,478.906 560.133,478.717 561.641,478.6 563.149,478.254 564.657,478.214 566.165,477.974 567.673,477.771 569.181,477.648 570.689,477.673 572.197,477.562 573.705,477.761 575.213,477.611 576.721,477.512 578.229,477.502 579.737,477.61 581.245,477.567 582.753,477.698 584.261,477.63 585.769,477.673 587.276,477.845 588.784,477.981 590.292,477.995 591.8,478.117 593.308,478.313 594.816,478.411 596.324,478.554 597.832,478.659 599.34,478.652 600.848,478.599 602.356,478.709 603.864,478.886 605.372,479.05 606.88,479.067 608.388,479.059 609.896,478.934 611.404,479.222 612.912,479.153 614.419,479.081 615.927,479.194 617.435,479.087 618.943,479.372 620.451,479.542 621.959,479.605 623.467,479.61 624.975,479.856 626.483,479.932 627.991,480.114 629.499,480.094 631.007,480.286 632.515,480.464 634.023,480.467 635.531,480.599 637.039,481.067 638.547,481.406 640.055,481.894 641.562,482.061 643.07,482.25 644.578,482.577 646.086,482.99 647.594,483.275 649.102,483.617 650.61,483.649 652.118,483.778 653.626,483.998 655.134,484.463 656.642,485.008 658.15,485.099 659.658,485.354 661.166,485.539 662.674,485.448 664.182,485.554 665.69,485.426 667.198,485.788 668.705,485.905 670.213,486.272 671.721,486.427 673.229,486.379 674.737,486.633 676.245,486.679 677.753,486.979 679.261,487.167 680.769,487.504 682.277,487.614 683.785,487.522 685.293,487.812 686.801,487.904 688.309,488.026 689.817,488.33 691.325,488.33 692.833,488.653 694.341,488.894 695.849,488.939 697.356,489.236 698.864,489.518 700.372,489.828 701.88,490.045 703.388,490.464 704.896,490.546 706.404,490.662 707.912,490.962 709.42,491.176 710.928,491.202 712.436,491.214 713.944,491.259 715.452,491.564 716.96,491.754 718.468,491.89 719.976,492.128 721.484,492.202 722.992,492.241 724.499,492.391 726.007,492.458 727.515,492.444 729.023,492.635 730.531,492.761 732.039,492.758 733.547,492.826 735.055,492.851 736.563,493.041 738.071,492.905 739.579,493.105 741.087,493.094 742.595,493.214 744.103,493.209 745.611,493.255 747.119,493.257 748.627,493.202 750.135,493.167 751.642,493.173 753.15,493.322 754.658,493.194 756.166,493.187 757.674,493.24 759.182,493.223 760.69,493.251 762.198,493.546 763.706,493.569 765.214,493.751 766.722,493.904 768.23,494.243 769.738,494.2 771.246,494.2 772.754,494.268 774.262,494.25 775.77,494.252 777.278,494.444 778.785,494.232 780.293,494.233 781.801,494.189 783.309,494.268 784.817,494.201 786.325,494.192 787.833,494.128 789.341,493.996 790.849,493.691 792.357,493.675 793.865,493.484 795.373,493.366 796.881,493.271 798.389,493.169 799.897,492.966 801.405,492.71 802.913,492.601 804.421,492.434 805.929,492.341 807.436,492.421 808.944,492.198 810.452,492.134 811.96,492.038 813.468,492.038 814.976,491.903 816.484,491.802 817.992,491.71 819.5,491.579 821.008,491.357 822.516,491.086 824.024,491.009 825.532,490.84 827.04,490.776 828.548,490.628 830.056,490.503 831.564,490.486 833.072,490.363 834.579,490.043 836.087,489.946 837.595,489.932 839.103,489.787 840.611,489.722 842.119,489.69 843.627,489.597 845.135,489.782 846.643,489.804 848.151,489.915 849.659,489.898 851.167,490.02 852.675,490.116 854.183,490.068 855.691,490.127 857.199,490.027 858.707,489.922 860.215,490.086 861.722,490.026 863.23,489.957 864.738,490.15 866.246,490.233 867.754,490.326 869.262,490.42 870.77,490.539 872.278,490.534 873.786,490.765 875.294,490.932 876.802,490.969 878.31,491.087 879.818,491.082 881.326,491.085 882.834,491.194 884.342,491.329 885.85,491.478 887.358,491.431 888.865,491.295 890.373,491.442 891.881,491.62 893.389,491.761 894.897,491.761 896.405,491.843 897.913,491.853 899.421,491.966 900.929,492.103 902.437,492.102 903.945,492.165 905.453,492.262 906.961,492.465 908.469,492.689 909.977,492.792 911.485,492.85 912.993,493.157 914.501,493.282 916.009,493.387 917.516,493.558 919.024,493.55 920.532,493.581 922.04,493.644 923.548,493.727 925.056,493.753 926.564,493.732 928.072,493.693 929.58,493.624 931.088,493.586 932.596,493.471 934.104,493.556 935.612,493.43 937.12,493.438 938.628,493.432 940.136,493.472 941.644,493.52 943.152,493.535 944.659,493.503 946.167,493.466 947.675,493.256 949.183,493.179 950.691,493.132 952.199,493.019 953.707,493.195 955.215,493.182 956.723,493.108 958.231,492.883 959.739,493.033 961.247,493.024 962.755,492.684 964.263,492.534 965.771,492.251 967.279,492.048 968.787,491.927 970.295,491.708 971.802,491.678 973.31,491.477 974.818,491.099 976.326,490.919 977.834,490.88 979.342,490.95 980.85,490.895 982.358,490.821 983.866,490.854 985.374,490.976 986.882,490.944 988.39,491.174 989.898,491.178 991.406,491.08 992.914,491.226 994.422,491.208 995.93,491.129 997.438,491.34 998.945,491.276 1000.45,491.091 1001.96,491.208 1003.47,491.293 1004.98,491.46 1006.49,491.398 1007.99,491.458 1009.5,491.427 1011.01,491.471 1012.52,491.56 1014.02,491.567 1015.53,491.57 1017.04,491.692 1018.55,491.839 1020.06,491.997 1021.56,492.046 1023.07,492.064 1024.58,492.279 1026.09,492.215 1027.6,491.975 1029.1,492.097 1030.61,492.004 1032.12,492.051 1033.63,492.065 1035.14,492.005 1036.64,491.909 1038.15,491.922 1039.66,492.035 1041.17,491.906 1042.68,491.744 1044.18,491.638 1045.69,491.302 1047.2,491.269 1048.71,491.312 1050.22,491.189 1051.72,491.07 1053.23,491.038 1054.74,490.927 1056.25,490.634 1057.76,490.459 1059.26,490.32 1060.77,490.26 1062.28,490.175 1063.79,490.022 1065.3,489.931 1066.8,489.868 1068.31,489.625 1069.82,489.313 1071.33,489.271 1072.83,489.171 1074.34,489.221 1075.85,489.103 1077.36,488.94 1078.87,488.838 1080.37,488.506 1081.88,488.28 1083.39,488.176 1084.9,488.039 1086.41,487.911 1087.91,487.728 1089.42,487.627 1090.93,487.636 1092.44,487.823 1093.95,487.955 1095.45,488.014 1096.96,488.155 1098.47,488.253 1099.98,488.461 1101.49,488.506 1102.99,488.529 1104.5,488.643 1106.01,488.814 1107.52,488.864 1109.03,488.878 1110.53,488.898 1112.04,489.096 1113.55,489.231 1115.06,489.334 1116.57,489.663 1118.07,489.851 1119.58,490.049 1121.09,490.208 1122.6,490.586 1124.1,490.734 1125.61,490.946 1127.12,491.087 1128.63,491.196 1130.14,491.331 1131.64,491.444 1133.15,491.502 1134.66,491.721 1136.17,491.8 1137.68,491.803 1139.18,491.732 1140.69,491.697 1142.2,491.756 1143.71,491.667 1145.22,491.724 1146.72,491.604 1148.23,491.628 1149.74,491.538 1151.25,491.602 1152.76,491.642 1154.26,491.86 1155.77,491.965 1157.28,491.853 1158.79,491.881 1160.3,491.794 1161.8,491.864 1163.31,491.892 1164.82,491.834 1166.33,491.833 1167.84,491.838 1169.34,491.856 1170.85,491.919 1172.36,491.91 1173.87,491.95 1175.38,491.991 1176.88,492.079 1178.39,492.051 1179.9,491.892 1181.41,491.824 1182.91,491.898 1184.42,491.744 1185.93,491.728 1187.44,491.874 1188.95,491.787 1190.45,491.681 1191.96,491.476 1193.47,491.293 1194.98,491.068 1196.49,490.851 1197.99,490.657 1199.5,490.488 1201.01,490.401 1202.52,490.14 1204.03,490.001 1205.53,489.828 1207.04,489.588 1208.55,489.534 1210.06,489.398 1211.57,489.238 1213.07,489.022 1214.58,488.964 1216.09,488.944 1217.6,488.919 1219.11,488.823 1220.61,488.681 1222.12,488.564 1223.63,488.608 1225.14,488.44 1226.65,488.566 1228.15,488.587 1229.66,488.697 1231.17,488.722 1232.68,488.896 1234.18,488.733 1235.69,488.712 1237.2,488.834 1238.71,488.87 1240.22,488.886 1241.72,488.803 1243.23,488.569 1244.74,488.415 1246.25,488.386 1247.76,488.527 1249.26,488.451 1250.77,488.266 1252.28,488.245 1253.79,488.157 1255.3,488.2 1256.8,488.289 1258.31,488.349 1259.82,488.522 1261.33,488.496 1262.84,488.567 1264.34,488.516 1265.85,488.501 1267.36,488.449 1268.87,488.386 1270.38,488.387 1271.88,488.345 1273.39,488.397 1274.9,488.518 1276.41,488.678 1277.92,488.681 1279.42,488.738 1280.93,488.791 1282.44,488.911 1283.95,489.051 1285.46,489.236 1286.96,489.319 1288.47,489.448 1289.98,489.606 1291.49,489.624 1292.99,489.511 1294.5,489.662 1296.01,489.735 1297.52,489.831 1299.03,489.988 1300.53,490.035 1302.04,490.134 1303.55,490.34 1305.06,490.443 1306.57,490.409 1308.07,490.293 1309.58,490.142 1311.09,489.966 1312.6,489.975 1314.11,489.937 1315.61,489.827 1317.12,489.642 1318.63,489.528 1320.14,489.482 1321.65,489.381 1323.15,489.252 1324.66,489.097 1326.17,489.137 1327.68,489.07 1329.19,488.995 1330.69,488.821 1332.2,488.657 1333.71,488.412 1335.22,488.251 1336.73,488.183 1338.23,487.947 1339.74,487.81 1341.25,487.696 1342.76,487.481 1344.26,487.233 1345.77,487.083 1347.28,486.851 1348.79,486.715 1350.3,486.533 1351.8,486.347 1353.31,486.41 1354.82,486.336 1356.33,486.358 1357.84,486.338 1359.34,486.449 1360.85,486.358 1362.36,486.137 1363.87,486.128 1365.38,486.123 1366.88,486.243 1368.39,486.005 1369.9,485.799 1371.41,485.846 1372.92,485.874 1374.42,485.851 1375.93,485.849 1377.44,486.14 1378.95,486.181 1380.46,486.246 1381.96,486.464 1383.47,486.591 1384.98,486.731 1386.49,486.857 1388,487.126 1389.5,487.634 1391.01,487.557 1392.52,487.698 1394.03,487.763 1395.54,487.686 1397.04,487.779 1398.55,488.125 1400.06,488.293 1401.57,488.418 1403.07,488.518 1404.58,488.391 1406.09,488.537 1407.6,488.578 1409.11,488.583 1410.61,488.706 1412.12,488.534 1413.63,488.504 1415.14,488.242 1416.65,488.032 1418.15,487.72 1419.66,487.817 1421.17,487.626 1422.68,487.595 1424.19,487.671 1425.69,487.599 1427.2,487.169 1428.71,487.115 1430.22,487.028 1431.73,487.115 1433.23,486.885 1434.74,486.969 1436.25,486.947 1437.76,487.134 1439.27,487.116 1440.77,487.215 1442.28,487.414 1443.79,487.578 1445.3,487.929 1446.81,488.273 1448.31,488.506 1449.82,488.642 1451.33,488.841 1452.84,489.089 1454.34,489.242 1455.85,489.369 1457.36,489.461 1458.87,489.528 1460.38,489.771 1461.88,489.999 1463.39,489.963 1464.9,490.132 1466.41,490.27 1467.92,490.3 1469.42,490.197 1470.93,490.344 1472.44,490.406 1473.95,490.437 1475.46,490.254 1476.96,490.018 1478.47,489.931 1479.98,489.72 1481.49,489.856 1483,489.869 1484.5,489.894 1486.01,489.993 1487.52,490.051 1489.03,489.714 1490.54,489.456 1492.04,489.421 1493.55,489.241 1495.06,489.098 1496.57,488.892 1498.08,488.818 1499.58,488.666 1501.09,488.634 1502.6,488.435 1504.11,488.253 1505.62,488.006 1507.12,487.956 1508.63,487.954 1510.14,487.523 1511.65,487.387 1513.15,487.243 1514.66,486.957 1516.17,486.774 1517.68,486.536 1519.19,486.312 1520.69,486.133 1522.2,486.043 1523.71,486.037 1525.22,485.71 1526.73,485.395 1528.23,485.325 1529.74,485.065 1531.25,484.865 1532.76,484.816 1534.27,484.728 1535.77,484.61 1537.28,484.688 1538.79,484.645 1540.3,484.555 1541.81,484.533 1543.31,484.471 1544.82,484.642 1546.33,484.592 1547.84,484.468 1549.35,484.513 1550.85,484.631 1552.36,484.553 1553.87,484.577 1555.38,484.517 1556.89,484.355 1558.39,484.476 1559.9,484.332 1561.41,484.188 1562.92,483.993 1564.42,483.872 1565.93,483.864 1567.44,483.885 1568.95,483.902 1570.46,483.766 1571.96,483.843 1573.47,483.888 1574.98,483.9 1576.49,483.984 1578,484.06 1579.5,484.186 1581.01,484.148 1582.52,484.217 1584.03,484.211 1585.54,484.366 1587.04,484.482 1588.55,484.605 1590.06,484.725 1591.57,484.699 1593.08,484.757 1594.58,484.86 1596.09,485.011 1597.6,485.272 1599.11,485.507 1600.62,485.618 1602.12,485.844 1603.63,485.986 1605.14,486.193 1606.65,486.435 1608.16,486.67 1609.66,486.751 1611.17,486.954 1612.68,486.967 1614.19,487.142 1615.7,487.194 1617.2,487.247 1618.71,487.253 1620.22,487.347 1621.73,487.362 1623.23,487.546 1624.74,487.625 1626.25,487.834 1627.76,487.823 1629.27,487.98 1630.77,488.087 1632.28,488.113 1633.79,488.108 1635.3,488.268 1636.81,488.164 1638.31,488.285 1639.82,488.129 1641.33,488.195 1642.84,488.317 1644.35,488.447 1645.85,488.383 1647.36,488.346 1648.87,488.202 1650.38,488.45 1651.89,488.512 1653.39,488.776 1654.9,488.802 1656.41,488.885 1657.92,488.786 1659.43,488.779 1660.93,488.925 1662.44,489.052 1663.95,489.269 1665.46,489.317 1666.97,489.429 1668.47,489.462 1669.98,489.708 1671.49,489.651 1673,489.738 1674.5,489.59 1676.01,489.569 1677.52,489.763 1679.03,489.749 1680.54,489.904 1682.04,489.992 1683.55,489.86 1685.06,489.829 1686.57,490.002 1688.08,490.124 1689.58,490.196 1691.09,490.262 1692.6,490.427 1694.11,490.478 1695.62,490.563 1697.12,490.783 1698.63,490.581 1700.14,490.699 1701.65,490.612 1703.16,490.576 1704.66,490.797 1706.17,490.806 1707.68,490.666 1709.19,490.896 1710.7,490.69 1712.2,490.766 1713.71,490.923 1715.22,490.943 1716.73,491.023 1718.24,490.846 1719.74,490.903 1721.25,490.844 1722.76,490.879 1724.27,490.856 1725.78,491.099 1727.28,491.099 1728.79,491.159 1730.3,491.24 1731.81,491.451 1733.31,491.563 1734.82,491.546 1736.33,491.591 1737.84,491.618 1739.35,491.526 1740.85,491.556 1742.36,491.664 1743.87,491.697 1745.38,491.554 1746.89,491.426 1748.39,491.382 1749.9,491.328 1751.41,490.853 1752.92,491.086 1754.43,491.086 1755.93,490.968 1757.44,491.223 1758.95,491.301 1760.46,491.086 1761.97,491.087 1763.47,491.062 1764.98,491.191 1766.49,491.335 1768,491.348 1769.51,491.281 1771.01,491.408 1772.52,491.653 1774.03,491.77 1775.54,491.8 1777.05,491.84 1778.55,491.802 1780.06,491.75 1781.57,491.849 1783.08,491.836 1784.58,491.796 1786.09,491.922 1787.6,491.896 1789.11,491.96 1790.62,491.913 1792.12,492.035 1793.63,492.21 1795.14,492.081 1796.65,492.04 1798.16,491.921 1799.66,491.871 1801.17,491.911 1802.68,491.873 1804.19,491.923 1805.7,491.945 1807.2,491.99 1808.71,491.89 1810.22,491.92 1811.73,491.954 1813.24,491.912 1814.74,491.871 1816.25,491.958 1817.76,492.016 1819.27,491.995 1820.78,492.064 1822.28,492.158 1823.79,492.207 1825.3,492.034 1826.81,492.002 1828.32,491.675 1829.82,491.462 1831.33,491.253 1832.84,491.245 1834.35,490.952 1835.86,490.841 1837.36,490.611 1838.87,490.534 1840.38,490.268 1841.89,490.237 1843.39,490.127 1844.9,490.032 1846.41,490.059 1847.92,489.935 1849.43,489.608 1850.93,489.648 1852.44,489.41 1853.95,489.362 1855.46,489.152 1856.97,488.856 1858.47,488.665 1859.98,488.535 1861.49,488.276 1863,488.151 1864.51,488.156 1866.01,488.036 1867.52,487.994 1869.03,487.894 1870.54,487.744 1872.05,487.732 1873.55,487.646 1875.06,487.497 1876.57,487.595 1878.08,487.475 1879.59,487.245 1881.09,487.19 1882.6,487.176 1884.11,487.12 1885.62,487.128 1887.13,487.052 1888.63,486.872 1890.14,486.751 1891.65,486.483 1893.16,486.313 1894.66,486.493 1896.17,486.537 1897.68,486.794 1899.19,486.802 1900.7,487.084 1902.2,487.087 1903.71,486.932 1905.22,487.048 1906.73,487.174 1908.24,487.313 1909.74,487.249 1911.25,487.308 1912.76,487.336 1914.27,487.162 1915.78,487.035 1917.28,487.157 1918.79,487.052 1920.3,487.145 1921.81,486.871 1923.32,486.945 1924.82,487.186 1926.33,487.42 1927.84,487.403 1929.35,487.72 1930.86,488.022 1932.36,488 1933.87,488.178 1935.38,488.359 1936.89,488.525 1938.4,488.687 1939.9,488.99 1941.41,489.075 1942.92,489.27 1944.43,489.245 1945.94,489.33 1947.44,489.227 1948.95,489.419 1950.46,489.625 1951.97,489.625 1953.47,489.737 1954.98,489.992 1956.49,490.298 1958,490.502 1959.51,490.811 1961.01,490.964 1962.52,491.202 1964.03,491.183 1965.54,491.307 1967.05,491.358 1968.55,491.648 1970.06,491.845 1971.57,492.096 1973.08,492.389 1974.59,492.424 1976.09,492.583 1977.6,492.768 1979.11,492.944 1980.62,493.201 1982.13,493.382 1983.63,493.548 1985.14,493.677 1986.65,493.832 1988.16,494.116 1989.67,494.151 1991.17,494.381 1992.68,494.421 1994.19,494.644 1995.7,494.608 1997.21,494.724 1998.71,494.824 2000.22,494.904 2001.73,495.022 2003.24,495.432 2004.74,495.64 2006.25,495.946 2007.76,496.205 2009.27,496.214 2010.78,496.351 2012.28,496.764 2013.79,497.444 2015.3,497.838 2016.81,498.429 2018.32,498.567 2019.82,498.877 2021.33,499.128 2022.84,499.207 2024.35,499.394 2025.86,499.71 2027.36,499.855 2028.87,500.187 2030.38,500.345 2031.89,500.381 2033.4,500.517 2034.9,500.61 2036.41,500.819 2037.92,501.016 2039.43,501.086 2040.94,501.234 2042.44,501.357 2043.95,501.306 2045.46,501.234 2046.97,501.353 2048.48,501.417 2049.98,501.635 2051.49,501.727 2053,501.802 2054.51,501.807 2056.02,501.68 2057.52,501.569 "/>
<path clip-path="url(#clip930)" d="M812.225 239.706 L1122.6 239.706 L1122.6 78.4772 L812.225 78.4772  Z" fill="#ffffff" fill-rule="evenodd" fill-opacity="1"/>
<polyline clip-path="url(#clip930)" style="stroke:#000000; stroke-linecap:round; stroke-linejoin:round; stroke-width:4; stroke-opacity:1; fill:none" points="812.225,239.706 1122.6,239.706 1122.6,78.4772 812.225,78.4772 812.225,239.706 "/>
<polyline clip-path="url(#clip930)" style="stroke:#ffa500; stroke-linecap:round; stroke-linejoin:round; stroke-width:12; stroke-opacity:0.75; fill:none" points="822.278,132.22 882.596,132.22 "/>
<g clip-path="url(#clip930)">
<text style="fill:#000000; fill-opacity:1; font-family:Book Antiqua,Palatino,Palatino Linotype,Palatino LT STD,Georgia,serif; font-size:51px; font-weight:bold; text-anchor:start;" transform="rotate(0, 892.649, 149.72)" x="892.649" y="149.72">FDUC</text>
</g>
<polyline clip-path="url(#clip930)" style="stroke:#0000ff; stroke-linecap:round; stroke-linejoin:round; stroke-width:12; stroke-opacity:0.5; fill:none" points="822.278,185.963 882.596,185.963 "/>
<g clip-path="url(#clip930)">
<text style="fill:#000000; fill-opacity:1; font-family:Book Antiqua,Palatino,Palatino Linotype,Palatino LT STD,Georgia,serif; font-size:51px; font-weight:bold; text-anchor:start;" transform="rotate(0, 892.649, 203.463)" x="892.649" y="203.463">CCFDUC</text>
</g>
</svg>
