<?xml version="1.0" encoding="utf-8"?>
<svg xmlns="http://www.w3.org/2000/svg" xmlns:xlink="http://www.w3.org/1999/xlink" width="300" height="300" viewBox="0 0 1200 1200">
<defs>
  <clipPath id="clip620">
    <rect x="0" y="0" width="1200" height="1200"/>
  </clipPath>
</defs>
<path clip-path="url(#clip620)" d="M0 1200 L1200 1200 L1200 0 L0 0  Z" fill="#ffffff" fill-rule="evenodd" fill-opacity="1"/>
<defs>
  <clipPath id="clip621">
    <rect x="240" y="119" width="841" height="841"/>
  </clipPath>
</defs>
<path clip-path="url(#clip620)" d="M249.208 994.16 L1152.76 994.16 L1152.76 47.2441 L249.208 47.2441  Z" fill="#ffffff" fill-rule="evenodd" fill-opacity="1"/>
<defs>
  <clipPath id="clip622">
    <rect x="249" y="47" width="905" height="948"/>
  </clipPath>
</defs>
<polyline clip-path="url(#clip622)" style="stroke:#808080; stroke-linecap:round; stroke-linejoin:round; stroke-width:2; stroke-opacity:0.1; fill:none" points="249.208,994.16 249.208,47.2441 "/>
<polyline clip-path="url(#clip622)" style="stroke:#808080; stroke-linecap:round; stroke-linejoin:round; stroke-width:2; stroke-opacity:0.1; fill:none" points="550.391,994.16 550.391,47.2441 "/>
<polyline clip-path="url(#clip622)" style="stroke:#808080; stroke-linecap:round; stroke-linejoin:round; stroke-width:2; stroke-opacity:0.1; fill:none" points="851.573,994.16 851.573,47.2441 "/>
<polyline clip-path="url(#clip622)" style="stroke:#808080; stroke-linecap:round; stroke-linejoin:round; stroke-width:2; stroke-opacity:0.1; fill:none" points="1152.76,994.16 1152.76,47.2441 "/>
<polyline clip-path="url(#clip622)" style="stroke:#808080; stroke-linecap:round; stroke-linejoin:round; stroke-width:2; stroke-opacity:0.1; fill:none" points="1453.94,994.16 1453.94,47.2441 "/>
<polyline clip-path="url(#clip622)" style="stroke:#808080; stroke-linecap:round; stroke-linejoin:round; stroke-width:2; stroke-opacity:0.1; fill:none" points="1755.12,994.16 1755.12,47.2441 "/>
<polyline clip-path="url(#clip622)" style="stroke:#808080; stroke-linecap:round; stroke-linejoin:round; stroke-width:2; stroke-opacity:0.1; fill:none" points="2056.3,994.16 2056.3,47.2441 "/>
<polyline clip-path="url(#clip622)" style="stroke:#808080; stroke-linecap:round; stroke-linejoin:round; stroke-width:2; stroke-opacity:0.1; fill:none" points="249.208,994.16 249.208,47.2441 "/>
<polyline clip-path="url(#clip622)" style="stroke:#808080; stroke-linecap:round; stroke-linejoin:round; stroke-width:2; stroke-opacity:0.1; fill:none" points="550.391,994.16 550.391,47.2441 "/>
<polyline clip-path="url(#clip622)" style="stroke:#808080; stroke-linecap:round; stroke-linejoin:round; stroke-width:2; stroke-opacity:0.1; fill:none" points="851.573,994.16 851.573,47.2441 "/>
<polyline clip-path="url(#clip622)" style="stroke:#808080; stroke-linecap:round; stroke-linejoin:round; stroke-width:2; stroke-opacity:0.1; fill:none" points="1152.76,994.16 1152.76,47.2441 "/>
<polyline clip-path="url(#clip622)" style="stroke:#808080; stroke-linecap:round; stroke-linejoin:round; stroke-width:2; stroke-opacity:0.1; fill:none" points="1453.94,994.16 1453.94,47.2441 "/>
<polyline clip-path="url(#clip622)" style="stroke:#808080; stroke-linecap:round; stroke-linejoin:round; stroke-width:2; stroke-opacity:0.1; fill:none" points="1755.12,994.16 1755.12,47.2441 "/>
<polyline clip-path="url(#clip622)" style="stroke:#808080; stroke-linecap:round; stroke-linejoin:round; stroke-width:2; stroke-opacity:0.1; fill:none" points="2056.3,994.16 2056.3,47.2441 "/>
<polyline clip-path="url(#clip622)" style="stroke:#808080; stroke-linecap:round; stroke-linejoin:round; stroke-width:2; stroke-opacity:0.1; fill:none" points="249.208,994.16 1152.76,994.16 "/>
<polyline clip-path="url(#clip622)" style="stroke:#808080; stroke-linecap:round; stroke-linejoin:round; stroke-width:2; stroke-opacity:0.1; fill:none" points="249.208,804.777 1152.76,804.777 "/>
<polyline clip-path="url(#clip622)" style="stroke:#808080; stroke-linecap:round; stroke-linejoin:round; stroke-width:2; stroke-opacity:0.1; fill:none" points="249.208,615.394 1152.76,615.394 "/>
<polyline clip-path="url(#clip622)" style="stroke:#808080; stroke-linecap:round; stroke-linejoin:round; stroke-width:2; stroke-opacity:0.1; fill:none" points="249.208,426.011 1152.76,426.011 "/>
<polyline clip-path="url(#clip622)" style="stroke:#808080; stroke-linecap:round; stroke-linejoin:round; stroke-width:2; stroke-opacity:0.1; fill:none" points="249.208,236.627 1152.76,236.627 "/>
<polyline clip-path="url(#clip622)" style="stroke:#808080; stroke-linecap:round; stroke-linejoin:round; stroke-width:2; stroke-opacity:0.1; fill:none" points="249.208,47.2441 1152.76,47.2441 "/>
<polyline clip-path="url(#clip622)" style="stroke:#808080; stroke-linecap:round; stroke-linejoin:round; stroke-width:2; stroke-opacity:0.1; fill:none" points="249.208,994.16 1152.76,994.16 "/>
<polyline clip-path="url(#clip622)" style="stroke:#808080; stroke-linecap:round; stroke-linejoin:round; stroke-width:2; stroke-opacity:0.1; fill:none" points="249.208,804.777 1152.76,804.777 "/>
<polyline clip-path="url(#clip622)" style="stroke:#808080; stroke-linecap:round; stroke-linejoin:round; stroke-width:2; stroke-opacity:0.1; fill:none" points="249.208,615.394 1152.76,615.394 "/>
<polyline clip-path="url(#clip622)" style="stroke:#808080; stroke-linecap:round; stroke-linejoin:round; stroke-width:2; stroke-opacity:0.1; fill:none" points="249.208,426.011 1152.76,426.011 "/>
<polyline clip-path="url(#clip622)" style="stroke:#808080; stroke-linecap:round; stroke-linejoin:round; stroke-width:2; stroke-opacity:0.1; fill:none" points="249.208,236.627 1152.76,236.627 "/>
<polyline clip-path="url(#clip622)" style="stroke:#808080; stroke-linecap:round; stroke-linejoin:round; stroke-width:2; stroke-opacity:0.1; fill:none" points="249.208,47.2441 1152.76,47.2441 "/>
<polyline clip-path="url(#clip620)" style="stroke:#000000; stroke-linecap:round; stroke-linejoin:round; stroke-width:4; stroke-opacity:1; fill:none" points="249.208,994.16 1152.76,994.16 "/>
<polyline clip-path="url(#clip620)" style="stroke:#000000; stroke-linecap:round; stroke-linejoin:round; stroke-width:4; stroke-opacity:1; fill:none" points="249.208,47.2441 1152.76,47.2441 "/>
<polyline clip-path="url(#clip620)" style="stroke:#000000; stroke-linecap:round; stroke-linejoin:round; stroke-width:4; stroke-opacity:1; fill:none" points="249.208,994.16 249.208,975.262 "/>
<polyline clip-path="url(#clip620)" style="stroke:#000000; stroke-linecap:round; stroke-linejoin:round; stroke-width:4; stroke-opacity:1; fill:none" points="550.391,994.16 550.391,975.262 "/>
<polyline clip-path="url(#clip620)" style="stroke:#000000; stroke-linecap:round; stroke-linejoin:round; stroke-width:4; stroke-opacity:1; fill:none" points="851.573,994.16 851.573,975.262 "/>
<polyline clip-path="url(#clip620)" style="stroke:#000000; stroke-linecap:round; stroke-linejoin:round; stroke-width:4; stroke-opacity:1; fill:none" points="1152.76,994.16 1152.76,975.262 "/>
<polyline clip-path="url(#clip620)" style="stroke:#000000; stroke-linecap:round; stroke-linejoin:round; stroke-width:4; stroke-opacity:1; fill:none" points="1453.94,994.16 1453.94,975.262 "/>
<polyline clip-path="url(#clip620)" style="stroke:#000000; stroke-linecap:round; stroke-linejoin:round; stroke-width:4; stroke-opacity:1; fill:none" points="1755.12,994.16 1755.12,975.262 "/>
<polyline clip-path="url(#clip620)" style="stroke:#000000; stroke-linecap:round; stroke-linejoin:round; stroke-width:4; stroke-opacity:1; fill:none" points="2056.3,994.16 2056.3,975.262 "/>
<polyline clip-path="url(#clip620)" style="stroke:#000000; stroke-linecap:round; stroke-linejoin:round; stroke-width:4; stroke-opacity:1; fill:none" points="249.208,47.2441 249.208,66.1417 "/>
<polyline clip-path="url(#clip620)" style="stroke:#000000; stroke-linecap:round; stroke-linejoin:round; stroke-width:4; stroke-opacity:1; fill:none" points="550.391,47.2441 550.391,66.1417 "/>
<polyline clip-path="url(#clip620)" style="stroke:#000000; stroke-linecap:round; stroke-linejoin:round; stroke-width:4; stroke-opacity:1; fill:none" points="851.573,47.2441 851.573,66.1417 "/>
<polyline clip-path="url(#clip620)" style="stroke:#000000; stroke-linecap:round; stroke-linejoin:round; stroke-width:4; stroke-opacity:1; fill:none" points="1152.76,47.2441 1152.76,66.1417 "/>
<polyline clip-path="url(#clip620)" style="stroke:#000000; stroke-linecap:round; stroke-linejoin:round; stroke-width:4; stroke-opacity:1; fill:none" points="1453.94,47.2441 1453.94,66.1417 "/>
<polyline clip-path="url(#clip620)" style="stroke:#000000; stroke-linecap:round; stroke-linejoin:round; stroke-width:4; stroke-opacity:1; fill:none" points="1755.12,47.2441 1755.12,66.1417 "/>
<polyline clip-path="url(#clip620)" style="stroke:#000000; stroke-linecap:round; stroke-linejoin:round; stroke-width:4; stroke-opacity:1; fill:none" points="2056.3,47.2441 2056.3,66.1417 "/>
<g clip-path="url(#clip620)">
<text style="fill:#000000; fill-opacity:1; font-family:Arial,Helvetica Neue,Helvetica,sans-serif; font-size:48px; text-anchor:middle;" transform="rotate(0, 249.208, 1046.41)" x="249.208" y="1046.41">0</text>
</g>
<g clip-path="url(#clip620)">
<text style="fill:#000000; fill-opacity:1; font-family:Arial,Helvetica Neue,Helvetica,sans-serif; font-size:48px; text-anchor:middle;" transform="rotate(0, 550.391, 1046.41)" x="550.391" y="1046.41">10</text>
</g>
<g clip-path="url(#clip620)">
<text style="fill:#000000; fill-opacity:1; font-family:Arial,Helvetica Neue,Helvetica,sans-serif; font-size:48px; text-anchor:middle;" transform="rotate(0, 851.573, 1046.41)" x="851.573" y="1046.41">20</text>
</g>
<g clip-path="url(#clip620)">
<text style="fill:#000000; fill-opacity:1; font-family:Arial,Helvetica Neue,Helvetica,sans-serif; font-size:48px; text-anchor:middle;" transform="rotate(0, 1152.76, 1046.41)" x="1152.76" y="1046.41">30</text>
</g>
<g clip-path="url(#clip620)">
<text style="fill:#000000; fill-opacity:1; font-family:Arial,Helvetica Neue,Helvetica,sans-serif; font-size:48px; text-anchor:middle;" transform="rotate(0, 1453.94, 1046.41)" x="1453.94" y="1046.41">40</text>
</g>
<g clip-path="url(#clip620)">
<text style="fill:#000000; fill-opacity:1; font-family:Arial,Helvetica Neue,Helvetica,sans-serif; font-size:48px; text-anchor:middle;" transform="rotate(0, 1755.12, 1046.41)" x="1755.12" y="1046.41">50</text>
</g>
<g clip-path="url(#clip620)">
<text style="fill:#000000; fill-opacity:1; font-family:Arial,Helvetica Neue,Helvetica,sans-serif; font-size:48px; text-anchor:middle;" transform="rotate(0, 2056.3, 1046.41)" x="2056.3" y="1046.41">60</text>
</g>
<path clip-path="url(#clip620)" d="M656.61 1072.69 L656.61 1081.89 L667.577 1081.89 L667.577 1086.03 L656.61 1086.03 L656.61 1103.62 Q656.61 1107.59 657.681 1108.72 Q658.78 1109.84 662.108 1109.84 L667.577 1109.84 L667.577 1114.3 L662.108 1114.3 Q655.945 1114.3 653.601 1112.01 Q651.257 1109.7 651.257 1103.62 L651.257 1086.03 L647.351 1086.03 L647.351 1081.89 L651.257 1081.89 L651.257 1072.69 L656.61 1072.69 Z" fill="#000000" fill-rule="nonzero" fill-opacity="1" /><path clip-path="url(#clip620)" d="M702.877 1071.1 L707.796 1071.1 L692.75 1119.8 L687.831 1119.8 L702.877 1071.1 Z" fill="#000000" fill-rule="nonzero" fill-opacity="1" /><path clip-path="url(#clip620)" d="M752.877 1082.85 L752.877 1087.88 Q750.62 1086.72 748.19 1086.15 Q745.759 1085.57 743.155 1085.57 Q739.191 1085.57 737.194 1086.78 Q735.227 1088 735.227 1090.43 Q735.227 1092.28 736.645 1093.35 Q738.062 1094.39 742.345 1095.35 L744.168 1095.75 Q749.839 1096.97 752.212 1099.2 Q754.613 1101.39 754.613 1105.36 Q754.613 1109.87 751.025 1112.51 Q747.466 1115.14 741.216 1115.14 Q738.612 1115.14 735.776 1114.62 Q732.97 1114.13 729.845 1113.11 L729.845 1107.62 Q732.796 1109.15 735.661 1109.93 Q738.525 1110.68 741.332 1110.68 Q745.094 1110.68 747.119 1109.41 Q749.144 1108.11 749.144 1105.76 Q749.144 1103.59 747.669 1102.44 Q746.222 1101.28 741.274 1100.21 L739.422 1099.77 Q734.474 1098.73 732.275 1096.59 Q730.076 1094.42 730.076 1090.66 Q730.076 1086.09 733.317 1083.6 Q736.558 1081.11 742.518 1081.11 Q745.47 1081.11 748.074 1081.55 Q750.678 1081.98 752.877 1082.85 Z" fill="#000000" fill-rule="nonzero" fill-opacity="1" /><polyline clip-path="url(#clip620)" style="stroke:#000000; stroke-linecap:round; stroke-linejoin:round; stroke-width:4; stroke-opacity:1; fill:none" points="249.208,994.16 249.208,47.2441 "/>
<polyline clip-path="url(#clip620)" style="stroke:#000000; stroke-linecap:round; stroke-linejoin:round; stroke-width:4; stroke-opacity:1; fill:none" points="1152.76,994.16 1152.76,47.2441 "/>
<polyline clip-path="url(#clip620)" style="stroke:#000000; stroke-linecap:round; stroke-linejoin:round; stroke-width:4; stroke-opacity:1; fill:none" points="249.208,994.16 268.106,994.16 "/>
<polyline clip-path="url(#clip620)" style="stroke:#000000; stroke-linecap:round; stroke-linejoin:round; stroke-width:4; stroke-opacity:1; fill:none" points="249.208,804.777 268.106,804.777 "/>
<polyline clip-path="url(#clip620)" style="stroke:#000000; stroke-linecap:round; stroke-linejoin:round; stroke-width:4; stroke-opacity:1; fill:none" points="249.208,615.394 268.106,615.394 "/>
<polyline clip-path="url(#clip620)" style="stroke:#000000; stroke-linecap:round; stroke-linejoin:round; stroke-width:4; stroke-opacity:1; fill:none" points="249.208,426.011 268.106,426.011 "/>
<polyline clip-path="url(#clip620)" style="stroke:#000000; stroke-linecap:round; stroke-linejoin:round; stroke-width:4; stroke-opacity:1; fill:none" points="249.208,236.627 268.106,236.627 "/>
<polyline clip-path="url(#clip620)" style="stroke:#000000; stroke-linecap:round; stroke-linejoin:round; stroke-width:4; stroke-opacity:1; fill:none" points="249.208,47.2441 268.106,47.2441 "/>
<polyline clip-path="url(#clip620)" style="stroke:#000000; stroke-linecap:round; stroke-linejoin:round; stroke-width:4; stroke-opacity:1; fill:none" points="1152.76,994.16 1133.86,994.16 "/>
<polyline clip-path="url(#clip620)" style="stroke:#000000; stroke-linecap:round; stroke-linejoin:round; stroke-width:4; stroke-opacity:1; fill:none" points="1152.76,804.777 1133.86,804.777 "/>
<polyline clip-path="url(#clip620)" style="stroke:#000000; stroke-linecap:round; stroke-linejoin:round; stroke-width:4; stroke-opacity:1; fill:none" points="1152.76,615.394 1133.86,615.394 "/>
<polyline clip-path="url(#clip620)" style="stroke:#000000; stroke-linecap:round; stroke-linejoin:round; stroke-width:4; stroke-opacity:1; fill:none" points="1152.76,426.011 1133.86,426.011 "/>
<polyline clip-path="url(#clip620)" style="stroke:#000000; stroke-linecap:round; stroke-linejoin:round; stroke-width:4; stroke-opacity:1; fill:none" points="1152.76,236.627 1133.86,236.627 "/>
<polyline clip-path="url(#clip620)" style="stroke:#000000; stroke-linecap:round; stroke-linejoin:round; stroke-width:4; stroke-opacity:1; fill:none" points="1152.76,47.2441 1133.86,47.2441 "/>
<g clip-path="url(#clip620)">
<text style="fill:#000000; fill-opacity:1; font-family:Arial,Helvetica Neue,Helvetica,sans-serif; font-size:48px; text-anchor:middle;" transform="rotate(0, 184.374, 1011.66)" x="184.374" y="1011.66">−0.4</text>
</g>
<g clip-path="url(#clip620)">
<text style="fill:#000000; fill-opacity:1; font-family:Arial,Helvetica Neue,Helvetica,sans-serif; font-size:48px; text-anchor:middle;" transform="rotate(0, 184.374, 822.277)" x="184.374" y="822.277">−0.3</text>
</g>
<g clip-path="url(#clip620)">
<text style="fill:#000000; fill-opacity:1; font-family:Arial,Helvetica Neue,Helvetica,sans-serif; font-size:48px; text-anchor:middle;" transform="rotate(0, 184.374, 632.894)" x="184.374" y="632.894">−0.2</text>
</g>
<g clip-path="url(#clip620)">
<text style="fill:#000000; fill-opacity:1; font-family:Arial,Helvetica Neue,Helvetica,sans-serif; font-size:48px; text-anchor:middle;" transform="rotate(0, 184.374, 443.511)" x="184.374" y="443.511">−0.1</text>
</g>
<g clip-path="url(#clip620)">
<text style="fill:#000000; fill-opacity:1; font-family:Arial,Helvetica Neue,Helvetica,sans-serif; font-size:48px; text-anchor:middle;" transform="rotate(0, 197.755, 254.127)" x="197.755" y="254.127">0.0</text>
</g>
<g clip-path="url(#clip620)">
<text style="fill:#000000; fill-opacity:1; font-family:Arial,Helvetica Neue,Helvetica,sans-serif; font-size:48px; text-anchor:middle;" transform="rotate(0, 197.755, 64.7441)" x="197.755" y="64.7441">0.1</text>
</g>
<path clip-path="url(#clip620)" d="M107.882 651.943 Q107.648 651.943 106.126 651.153 Q104.574 650.362 99.0403 647.581 Q93.4774 644.799 87.6511 641.93 L66.8637 631.595 Q65.5462 630.863 65.5462 629.926 Q65.5462 629.077 66.0732 628.696 Q66.6002 628.316 70.1428 626.559 Q71.8702 625.651 72.9828 625.124 L106.916 608.172 Q107.648 607.88 107.882 607.85 Q108.468 607.85 108.468 608.875 L108.468 650.362 Q108.468 651.943 107.882 651.943 M103.9 647.991 L103.9 615.726 L71.5189 631.858 L103.9 647.991 Z" fill="#000000" fill-rule="nonzero" fill-opacity="1" /><path clip-path="url(#clip620)" d="M70.3185 572.366 Q71.9288 572.366 72.9243 573.391 Q73.9197 574.387 73.9197 575.646 Q73.9197 576.553 73.3634 577.227 Q72.8071 577.871 71.841 577.871 Q70.8455 577.871 69.7915 577.109 Q68.7375 576.348 68.5911 574.621 Q67.5078 575.763 67.5078 577.578 Q67.5078 578.486 68.0934 579.247 Q68.6497 579.979 69.5573 580.389 Q70.4942 580.828 75.7935 581.823 Q77.5209 582.145 79.1898 582.438 Q80.8586 582.731 82.6153 583.082 L82.6153 578.105 Q82.6153 577.461 82.6446 577.197 Q82.6738 576.934 82.8202 576.729 Q82.9666 576.495 83.2887 576.495 Q84.1085 576.495 84.3134 576.875 Q84.4891 577.227 84.4891 578.281 L84.4891 583.434 L103.491 587.035 Q104.047 587.123 105.804 587.503 Q107.531 587.855 110.371 588.704 Q113.24 589.553 114.938 590.402 Q115.904 590.87 116.812 591.485 Q117.749 592.071 118.686 592.92 Q119.623 593.769 120.179 594.881 Q120.765 595.994 120.765 597.165 Q120.765 599.156 119.652 600.708 Q118.539 602.259 116.636 602.259 Q115.026 602.259 114.031 601.264 Q113.035 600.239 113.035 598.98 Q113.035 598.073 113.591 597.428 Q114.148 596.755 115.114 596.755 Q115.524 596.755 115.992 596.901 Q116.461 597.048 116.988 597.37 Q117.544 597.692 117.925 598.395 Q118.305 599.097 118.364 600.063 Q119.447 598.922 119.447 597.165 Q119.447 596.609 119.213 596.111 Q119.008 595.613 118.481 595.203 Q117.954 594.764 117.427 594.442 Q116.929 594.12 115.963 593.798 Q115.026 593.476 114.323 593.271 Q113.621 593.066 112.362 592.803 Q111.103 592.51 110.342 592.363 Q109.61 592.217 108.175 591.953 L84.4891 587.474 L84.4891 591.426 Q84.4891 592.129 84.4598 592.422 Q84.4305 592.685 84.2841 592.89 Q84.1085 593.095 83.7571 593.095 Q83.2009 593.095 82.9666 592.861 Q82.7031 592.598 82.6738 592.305 Q82.6153 592.012 82.6153 591.309 L82.6153 587.152 Q75.2079 585.747 73.217 585.19 Q71.109 584.546 69.6451 583.551 Q68.1519 582.555 67.4493 581.443 Q66.7466 580.33 66.4831 579.422 Q66.1903 578.486 66.1903 577.578 Q66.1903 575.528 67.3029 573.947 Q68.3862 572.366 70.3185 572.366 Z" fill="#000000" fill-rule="nonzero" fill-opacity="1" /><path clip-path="url(#clip620)" d="M93.4774 564.293 Q83.3472 564.293 75.1787 560.516 Q71.7531 558.906 68.8839 556.651 Q66.0146 554.397 64.7557 552.904 Q63.4967 551.411 63.4967 551.001 Q63.4967 550.415 64.0823 550.386 Q64.3751 550.386 65.107 551.176 Q74.9444 560.838 93.4774 560.809 Q112.069 560.809 121.526 551.411 Q122.551 550.386 122.873 550.386 Q123.458 550.386 123.458 551.001 Q123.458 551.411 122.258 552.845 Q121.057 554.28 118.305 556.505 Q115.553 558.73 112.186 560.34 Q104.018 564.293 93.4774 564.293 Z" fill="#000000" fill-rule="nonzero" fill-opacity="1" /><path clip-path="url(#clip620)" d="M83.2887 527.412 Q84.1085 527.412 84.3134 527.792 Q84.4891 528.173 84.4891 529.227 L84.4891 534.848 L102.173 539.299 Q103.725 539.65 105.042 539.65 Q106.506 539.65 107.15 539.211 Q107.794 538.742 107.794 537.776 Q107.794 535.873 106.067 533.824 Q104.34 531.745 100.124 529.988 Q99.5673 529.754 99.4502 529.637 Q99.3038 529.49 99.3038 529.11 Q99.3038 528.378 99.8893 528.378 Q100.094 528.378 101.031 528.788 Q101.968 529.168 103.344 530.017 Q104.72 530.837 106.008 531.92 Q107.297 532.974 108.234 534.585 Q109.141 536.195 109.141 537.922 Q109.141 540.353 107.589 541.904 Q106.038 543.427 103.608 543.427 Q102.817 543.427 100.299 542.812 Q97.752 542.197 84.4891 538.859 L84.4891 544.159 Q84.4891 544.891 84.4598 545.183 Q84.4305 545.447 84.2841 545.652 Q84.1085 545.828 83.7571 545.828 Q83.2009 545.828 82.9666 545.593 Q82.7031 545.359 82.6738 545.066 Q82.6153 544.744 82.6153 544.012 L82.6153 538.391 L73.0999 536.049 Q72.163 535.814 71.636 535.229 Q71.0797 534.614 71.0212 534.263 Q70.9333 533.911 70.9333 533.648 Q70.9333 532.857 71.3725 532.389 Q71.7824 531.92 72.5436 531.92 Q72.9535 531.92 82.6153 534.38 L82.6153 529.11 Q82.6153 528.436 82.6446 528.173 Q82.6738 527.88 82.8202 527.646 Q82.9666 527.412 83.2887 527.412 Z" fill="#000000" fill-rule="nonzero" fill-opacity="1" /><path clip-path="url(#clip620)" d="M122.873 522.717 Q122.58 522.717 121.848 521.956 Q112.01 512.294 93.4774 512.294 Q74.8859 512.294 65.4876 521.575 Q64.4043 522.717 64.0823 522.717 Q63.4967 522.717 63.4967 522.131 Q63.4967 521.722 64.6971 520.287 Q65.8975 518.823 68.6497 516.627 Q71.4018 514.402 74.7688 512.762 Q82.9373 508.81 93.4774 508.81 Q103.608 508.81 111.776 512.587 Q115.202 514.197 118.071 516.452 Q120.94 518.706 122.199 520.199 Q123.458 521.692 123.458 522.131 Q123.458 522.717 122.873 522.717 Z" fill="#000000" fill-rule="nonzero" fill-opacity="1" /><path clip-path="url(#clip620)" d="M122.609 499.692 Q122.316 499.692 121.672 499.457 L65.107 478.289 Q65.0485 478.289 64.7264 478.143 Q64.4043 477.997 64.1994 477.909 Q63.9652 477.821 63.7895 477.645 Q63.6138 477.44 63.6138 477.206 Q63.6138 476.62 64.3458 476.62 Q64.4043 476.62 65.107 476.796 L121.731 498.023 Q122.756 498.374 123.048 498.608 Q123.341 498.813 123.341 499.165 Q123.341 499.692 122.609 499.692 Z" fill="#000000" fill-rule="nonzero" fill-opacity="1" /><path clip-path="url(#clip620)" d="M68.1812 419.521 Q69.0303 419.521 69.2059 419.901 Q69.3816 420.253 69.3816 421.541 Q69.3816 423.737 69.6744 424.732 Q69.9379 425.699 70.4063 425.991 Q70.8455 426.255 72.1337 426.577 L104.515 434.687 Q104.545 434.687 104.954 434.775 Q105.335 434.863 105.54 434.863 Q105.921 434.863 106.155 434.628 Q106.389 434.365 106.506 433.721 Q106.594 433.077 106.623 432.579 Q106.623 432.052 106.623 430.969 Q106.623 429.622 106.858 429.417 Q107.004 429.3 107.267 429.3 Q107.824 429.3 108.116 429.534 Q108.38 429.739 108.439 429.944 Q108.468 430.12 108.468 430.471 Q108.468 431.086 108.409 432.403 Q108.351 433.721 108.351 434.394 L108.292 438.23 L108.468 445.842 Q108.468 446.662 107.794 446.662 Q107.209 446.662 106.945 446.457 Q106.682 446.252 106.653 446.047 Q106.623 445.813 106.623 445.227 Q106.623 442.211 106.331 441.216 Q106.008 440.191 104.632 439.781 L88.0903 435.653 L88.0903 453.923 L104.515 458.022 Q104.545 458.022 104.954 458.109 Q105.335 458.197 105.54 458.197 Q105.921 458.197 106.155 457.963 Q106.389 457.699 106.506 457.055 Q106.594 456.411 106.623 455.914 Q106.623 455.387 106.623 454.303 Q106.623 452.956 106.858 452.722 Q107.004 452.605 107.267 452.605 Q107.677 452.605 107.97 452.722 Q108.234 452.81 108.321 453.044 Q108.409 453.249 108.439 453.396 Q108.468 453.542 108.468 453.805 Q108.468 454.42 108.409 455.738 Q108.351 457.026 108.351 457.699 L108.292 461.535 L108.468 469.147 Q108.468 469.996 107.794 469.996 Q107.209 469.996 106.975 469.791 Q106.711 469.586 106.682 469.323 Q106.623 469.059 106.623 468.386 Q106.623 466.922 106.535 466.044 Q106.448 465.165 106.331 464.609 Q106.184 464.024 105.774 463.731 Q105.364 463.409 105.013 463.262 Q104.632 463.116 103.783 462.911 L71.5775 454.889 Q70.6113 454.655 70.4649 454.655 Q69.9086 454.655 69.7622 455.006 Q69.5866 455.328 69.4987 456.265 L69.3816 458.549 Q69.3816 459.251 69.3523 459.544 Q69.3231 459.807 69.1767 460.012 Q69.0303 460.217 68.7082 460.217 Q68.2983 460.217 68.0348 460.13 Q67.742 460.012 67.6542 459.807 Q67.5664 459.603 67.5371 459.456 Q67.5078 459.31 67.5078 459.076 L67.6835 451.346 L67.5078 443.675 Q67.5078 442.826 68.1812 442.826 Q69.0303 442.826 69.2059 443.207 Q69.3816 443.587 69.3816 444.876 Q69.3816 447.013 69.6744 448.008 Q69.9379 449.004 70.4063 449.326 Q70.8748 449.619 72.1337 449.912 L86.2165 453.454 L86.2165 435.155 L71.5775 431.554 Q70.5235 431.32 70.4649 431.32 Q69.9086 431.32 69.7622 431.671 Q69.5866 431.993 69.4987 432.93 L69.3816 435.214 Q69.3816 435.917 69.3523 436.209 Q69.3231 436.473 69.1767 436.707 Q69.0303 436.912 68.7082 436.912 Q68.2983 436.912 68.0348 436.824 Q67.742 436.707 67.6542 436.502 Q67.5664 436.297 67.5371 436.151 Q67.5078 436.004 67.5078 435.77 L67.6835 428.041 L67.5078 420.341 Q67.5078 419.521 68.1812 419.521 Z" fill="#000000" fill-rule="nonzero" fill-opacity="1" /><path clip-path="url(#clip620)" d="M82.5567 391.655 Q82.7617 391.655 83.64 392.153 Q84.4891 392.621 86.6264 394.349 Q88.7637 396.076 91.2523 398.652 Q92.2185 399.619 93.5653 401.083 Q94.9121 402.546 95.7904 403.542 L96.6688 404.537 Q99.8893 408.344 103.491 411.681 Q103.403 411.447 103.373 411.037 Q103.315 410.627 103.315 410.334 L103.315 410.042 Q103.315 408.519 104.34 405.855 Q105.101 403.513 105.101 402.312 Q105.101 401.141 104.691 399.853 Q104.281 398.565 103.081 397.159 Q101.88 395.754 100.065 395.11 Q99.7722 394.993 99.6844 394.934 Q99.5673 394.876 99.4502 394.7 Q99.3038 394.524 99.3038 394.29 Q99.3038 393.968 99.4795 393.763 Q99.6551 393.558 99.8893 393.558 Q100.416 393.558 101.47 393.968 Q102.524 394.349 103.842 395.198 Q105.159 396.017 106.36 397.101 Q107.531 398.155 108.351 399.736 Q109.141 401.317 109.141 402.986 Q109.141 404.186 108.556 405.064 Q107.999 405.943 106.916 406.821 Q105.54 408.021 105.101 408.666 Q104.632 409.31 104.632 410.305 Q104.632 412.969 108.351 415.4 Q108.878 415.663 108.995 415.839 Q109.141 415.985 109.141 416.336 Q109.112 417.068 108.526 417.068 Q108.292 417.068 107.267 416.424 Q106.213 415.751 104.369 414.258 Q102.524 412.735 100.68 410.891 L95.644 405.504 Q90.6082 399.531 87.7682 397.159 Q87.7682 398.155 87.739 398.594 Q87.7097 399.004 87.534 399.824 Q87.3291 400.643 86.8899 401.785 Q85.9823 404.45 85.9823 405.562 Q85.9823 405.855 86.0115 406.177 Q86.0408 406.499 86.1872 407.231 Q86.3336 407.934 86.6264 408.519 Q86.8899 409.105 87.4754 409.72 Q88.0317 410.334 88.793 410.656 Q89.0272 410.744 89.1443 410.803 Q89.2614 410.861 89.3785 411.037 Q89.4664 411.184 89.4664 411.418 Q89.4664 411.769 89.2614 411.974 Q89.0565 412.15 88.793 412.15 Q88.266 412.15 87.1827 411.623 Q86.0994 411.096 84.9283 410.217 Q83.7279 409.339 82.8495 407.904 Q81.9712 406.47 81.9712 404.889 Q81.9712 403.952 82.3811 403.161 Q82.791 402.342 83.2301 401.932 Q83.64 401.492 84.5476 400.761 Q85.2503 400.146 85.5431 399.853 Q85.8359 399.56 86.1579 398.975 Q86.4507 398.36 86.4507 397.686 Q86.4507 396.574 85.6017 395.549 Q84.7233 394.524 82.6153 393.207 Q81.9712 392.855 81.9712 392.299 Q81.9712 391.655 82.5567 391.655 Z" fill="#000000" fill-rule="nonzero" fill-opacity="1" /><polyline clip-path="url(#clip622)" style="stroke:#1a80bb; stroke-linecap:round; stroke-linejoin:round; stroke-width:12; stroke-opacity:0.75; fill:none" points="249.208,236.627 250.714,265.856 252.22,294.344 253.726,321.916 255.232,348.586 256.738,374.371 258.244,399.285 259.75,423.343 261.256,446.562 262.762,468.955 264.267,490.539 265.773,511.328 267.279,531.338 268.785,550.585 270.291,569.082 271.797,586.846 273.303,603.891 274.809,620.233 276.315,635.885 277.821,650.864 279.327,665.184 280.833,678.86 282.338,691.905 283.844,704.335 285.35,716.164 286.856,727.406 288.362,738.076 289.868,748.186 291.374,757.751 292.88,766.785 294.386,775.302 295.892,783.313 297.398,790.834 298.903,797.877 300.409,804.454 301.915,810.579 303.421,816.264 304.927,821.522 306.433,826.365 307.939,830.805 309.445,834.854 310.951,838.523 312.457,841.825 313.963,844.771 315.469,847.371 316.974,849.638 318.48,851.581 319.986,853.212 321.492,854.541 322.998,855.578 324.504,856.333 326.01,856.817 327.516,857.039 329.022,857.009 330.528,856.736 332.034,856.229 333.539,855.498 335.045,854.551 336.551,853.396 338.057,852.044 339.563,850.501 341.069,848.775 342.575,846.876 344.081,844.81 345.587,842.586 347.093,840.21 348.599,837.69 350.104,835.032 351.61,832.245 353.116,829.335 354.622,826.308 356.128,823.17 357.634,819.928 359.14,816.589 360.646,813.157 362.152,809.639 363.658,806.041 365.164,802.367 366.67,798.624 368.175,794.816 369.681,790.948 371.187,787.025 372.693,783.053 374.199,779.035 375.705,774.976 377.211,770.88 378.717,766.752 380.223,762.596 381.729,758.415 383.235,754.213 384.74,749.994 386.246,745.762 387.752,741.519 389.258,737.27 390.764,733.017 392.27,728.763 393.776,724.512 395.282,720.266 396.788,716.028 398.294,711.8 399.8,707.586 401.306,703.387 402.811,699.205 404.317,695.044 405.823,690.905 407.329,686.79 408.835,682.701 410.341,678.64 411.847,674.608 413.353,670.608 414.859,666.641 416.365,662.708 417.871,658.812 419.376,654.952 420.882,651.131 422.388,647.349 423.894,643.609 425.4,639.91 426.906,636.254 428.412,632.642 429.918,629.074 431.424,625.552 432.93,622.076 434.436,618.646 435.942,615.265 437.447,611.931 438.953,608.646 440.459,605.409 441.965,602.222 443.471,599.085 444.977,595.998 446.483,592.961 447.989,589.975 449.495,587.039 451.001,584.154 452.507,581.32 454.012,578.537 455.518,575.805 457.024,573.124 458.53,570.494 460.036,567.915 461.542,565.387 463.048,562.909 464.554,560.481 466.06,558.104 467.566,555.777 469.072,553.499 470.577,551.271 472.083,549.092 473.589,546.962 475.095,544.88 476.601,542.846 478.107,540.86 479.613,538.921 481.119,537.03 482.625,535.184 484.131,533.385 485.637,531.63 487.143,529.921 488.648,528.257 490.154,526.636 491.66,525.059 493.166,523.525 494.672,522.034 496.178,520.584 497.684,519.175 499.19,517.807 500.696,516.48 502.202,515.192 503.708,513.942 505.213,512.732 506.719,511.559 508.225,510.423 509.731,509.324 511.237,508.261 512.743,507.233 514.249,506.24 515.755,505.281 517.261,504.356 518.767,503.464 520.273,502.604 521.779,501.776 523.284,500.979 524.79,500.212 526.296,499.476 527.802,498.768 529.308,498.09 530.814,497.439 532.32,496.816 533.826,496.22 535.332,495.65 536.838,495.106 538.344,494.587 539.849,494.092 541.355,493.622 542.861,493.175 544.367,492.75 545.873,492.349 547.379,491.968 548.885,491.61 550.391,491.271 551.897,490.953 553.403,490.655 554.909,490.375 556.415,490.114 557.92,489.871 559.426,489.646 560.932,489.438 562.438,489.246 563.944,489.07 565.45,488.91 566.956,488.765 568.462,488.635 569.968,488.519 571.474,488.417 572.98,488.328 574.485,488.252 575.991,488.188 577.497,488.136 579.003,488.096 580.509,488.068 582.015,488.05 583.521,488.042 585.027,488.045 586.533,488.057 588.039,488.078 589.545,488.109 591.051,488.148 592.556,488.195 594.062,488.25 595.568,488.313 597.074,488.383 598.58,488.46 600.086,488.544 601.592,488.634 603.098,488.73 604.604,488.831 606.11,488.938 607.616,489.051 609.121,489.168 610.627,489.29 612.133,489.416 613.639,489.546 615.145,489.68 616.651,489.818 618.157,489.96 619.663,490.104 621.169,490.252 622.675,490.402 624.181,490.555 625.686,490.71 627.192,490.867 628.698,491.026 630.204,491.188 631.71,491.35 633.216,491.514 634.722,491.68 636.228,491.846 637.734,492.014 639.24,492.182 640.746,492.351 642.252,492.521 643.757,492.691 645.263,492.861 646.769,493.031 648.275,493.202 649.781,493.372 651.287,493.542 652.793,493.711 654.299,493.881 655.805,494.049 657.311,494.217 658.817,494.385 660.322,494.551 661.828,494.717 663.334,494.881 664.84,495.045 666.346,495.207 667.852,495.369 669.358,495.529 670.864,495.687 672.37,495.845 673.876,496 675.382,496.155 676.888,496.308 678.393,496.459 679.899,496.608 681.405,496.756 682.911,496.902 684.417,497.047 685.923,497.189 687.429,497.33 688.935,497.469 690.441,497.606 691.947,497.741 693.453,497.875 694.958,498.006 696.464,498.135 697.97,498.262 699.476,498.388 700.982,498.511 702.488,498.632 703.994,498.752 705.5,498.869 707.006,498.984 708.512,499.097 710.018,499.209 711.524,499.318 713.029,499.425 714.535,499.53 716.041,499.633 717.547,499.734 719.053,499.833 720.559,499.93 722.065,500.025 723.571,500.118 725.077,500.208 726.583,500.297 728.089,500.384 729.594,500.469 731.1,500.553 732.606,500.634 734.112,500.713 735.618,500.79 737.124,500.866 738.63,500.94 740.136,501.011 741.642,501.081 743.148,501.149 744.654,501.216 746.16,501.281 747.665,501.343 749.171,501.405 750.677,501.464 752.183,501.522 753.689,501.578 755.195,501.633 756.701,501.686 758.207,501.737 759.713,501.787 761.219,501.835 762.725,501.882 764.23,501.927 765.736,501.971 767.242,502.013 768.748,502.054 770.254,502.094 771.76,502.132 773.266,502.169 774.772,502.205 776.278,502.239 777.784,502.272 779.29,502.304 780.795,502.334 782.301,502.363 783.807,502.392 785.313,502.419 786.819,502.444 788.325,502.469 789.831,502.493 791.337,502.516 792.843,502.537 794.349,502.558 795.855,502.578 797.361,502.596 798.866,502.614 800.372,502.631 801.878,502.647 803.384,502.662 804.89,502.676 806.396,502.69 807.902,502.702 809.408,502.714 810.914,502.725 812.42,502.736 813.926,502.745 815.431,502.754 816.937,502.763 818.443,502.77 819.949,502.777 821.455,502.783 822.961,502.789 824.467,502.794 825.973,502.799 827.479,502.803 828.985,502.806 830.491,502.809 831.997,502.812 833.502,502.814 835.008,502.815 836.514,502.816 838.02,502.817 839.526,502.817 841.032,502.817 842.538,502.817 844.044,502.816 845.55,502.814 847.056,502.813 848.562,502.811 850.067,502.809 851.573,502.806 853.079,502.803 854.585,502.8 856.091,502.797 857.597,502.793 859.103,502.789 860.609,502.785 862.115,502.781 863.621,502.776 865.127,502.772 866.633,502.767 868.138,502.762 869.644,502.756 871.15,502.751 872.656,502.745 874.162,502.74 875.668,502.734 877.174,502.728 878.68,502.722 880.186,502.716 881.692,502.71 883.198,502.703 884.703,502.697 886.209,502.691 887.715,502.684 889.221,502.677 890.727,502.671 892.233,502.664 893.739,502.657 895.245,502.651 896.751,502.644 898.257,502.637 899.763,502.63 901.269,502.623 902.774,502.617 904.28,502.61 905.786,502.603 907.292,502.596 908.798,502.589 910.304,502.583 911.81,502.576 913.316,502.569 914.822,502.562 916.328,502.556 917.834,502.549 919.339,502.543 920.845,502.536 922.351,502.53 923.857,502.523 925.363,502.517 926.869,502.51 928.375,502.504 929.881,502.498 931.387,502.492 932.893,502.486 934.399,502.48 935.904,502.474 937.41,502.468 938.916,502.462 940.422,502.456 941.928,502.45 943.434,502.445 944.94,502.439 946.446,502.434 947.952,502.428 949.458,502.423 950.964,502.418 952.47,502.413 953.975,502.407 955.481,502.402 956.987,502.397 958.493,502.393 959.999,502.388 961.505,502.383 963.011,502.379 964.517,502.374 966.023,502.37 967.529,502.365 969.035,502.361 970.54,502.357 972.046,502.353 973.552,502.349 975.058,502.345 976.564,502.341 978.07,502.337 979.576,502.333 981.082,502.33 982.588,502.326 984.094,502.323 985.6,502.319 987.106,502.316 988.611,502.313 990.117,502.31 991.623,502.306 993.129,502.303 994.635,502.301 996.141,502.298 997.647,502.295 999.153,502.292 1000.66,502.289 1002.16,502.287 1003.67,502.284 1005.18,502.282 1006.68,502.28 1008.19,502.277 1009.69,502.275 1011.2,502.273 1012.71,502.271 1014.21,502.269 1015.72,502.267 1017.22,502.265 1018.73,502.263 1020.24,502.261 1021.74,502.259 1023.25,502.258 1024.75,502.256 1026.26,502.254 1027.77,502.253 1029.27,502.251 1030.78,502.25 1032.28,502.249 1033.79,502.247 1035.29,502.246 1036.8,502.245 1038.31,502.244 1039.81,502.243 1041.32,502.242 1042.82,502.241 1044.33,502.24 1045.84,502.239 1047.34,502.238 1048.85,502.237 1050.35,502.236 1051.86,502.235 1053.37,502.234 1054.87,502.234 1056.38,502.233 1057.88,502.232 1059.39,502.232 1060.9,502.231 1062.4,502.231 1063.91,502.23 1065.41,502.23 1066.92,502.229 1068.42,502.229 1069.93,502.229 1071.44,502.228 1072.94,502.228 1074.45,502.228 1075.95,502.227 1077.46,502.227 1078.97,502.227 1080.47,502.227 1081.98,502.226 1083.48,502.226 1084.99,502.226 1086.5,502.226 1088,502.226 1089.51,502.226 1091.01,502.226 1092.52,502.226 1094.03,502.226 1095.53,502.226 1097.04,502.226 1098.54,502.226 1100.05,502.226 1101.55,502.226 1103.06,502.226 1104.57,502.226 1106.07,502.226 1107.58,502.226 1109.08,502.226 1110.59,502.226 1112.1,502.227 1113.6,502.227 1115.11,502.227 1116.61,502.227 1118.12,502.227 1119.63,502.227 1121.13,502.228 1122.64,502.228 1124.14,502.228 1125.65,502.228 1127.16,502.228 1128.66,502.229 1130.17,502.229 1131.67,502.229 1133.18,502.229 1134.68,502.23 1136.19,502.23 1137.7,502.23 1139.2,502.23 1140.71,502.231 1142.21,502.231 1143.72,502.231 1145.23,502.231 1146.73,502.232 1148.24,502.232 1149.74,502.232 1151.25,502.232 1152.76,502.233 1154.26,502.233 1155.77,502.233 1157.27,502.234 1158.78,502.234 1160.29,502.234 1161.79,502.234 1163.3,502.235 1164.8,502.235 1166.31,502.235 1167.82,502.235 1169.32,502.236 1170.83,502.236 1172.33,502.236 1173.84,502.236 1175.34,502.237 1176.85,502.237 1178.36,502.237 1179.86,502.238 1181.37,502.238 1182.87,502.238 1184.38,502.238 1185.89,502.239 1187.39,502.239 1188.9,502.239 1190.4,502.239 1191.91,502.24 1193.42,502.24 1194.92,502.24 1196.43,502.24 1197.93,502.24 1199.44,502.241 1200.95,502.241 1202.45,502.241 1203.96,502.241 1205.46,502.242 1206.97,502.242 1208.47,502.242 1209.98,502.242 1211.49,502.242 1212.99,502.243 1214.5,502.243 1216,502.243 1217.51,502.243 1219.02,502.243 1220.52,502.243 1222.03,502.244 1223.53,502.244 1225.04,502.244 1226.55,502.244 1228.05,502.244 1229.56,502.245 1231.06,502.245 1232.57,502.245 1234.08,502.245 1235.58,502.245 1237.09,502.245 1238.59,502.245 1240.1,502.246 1241.6,502.246 1243.11,502.246 1244.62,502.246 1246.12,502.246 1247.63,502.246 1249.13,502.246 1250.64,502.246 1252.15,502.247 1253.65,502.247 1255.16,502.247 1256.66,502.247 1258.17,502.247 1259.68,502.247 1261.18,502.247 1262.69,502.247 1264.19,502.247 1265.7,502.247 1267.21,502.248 1268.71,502.248 1270.22,502.248 1271.72,502.248 1273.23,502.248 1274.73,502.248 1276.24,502.248 1277.75,502.248 1279.25,502.248 1280.76,502.248 1282.26,502.248 1283.77,502.248 1285.28,502.248 1286.78,502.248 1288.29,502.248 1289.79,502.249 1291.3,502.249 1292.81,502.249 1294.31,502.249 1295.82,502.249 1297.32,502.249 1298.83,502.249 1300.34,502.249 1301.84,502.249 1303.35,502.249 1304.85,502.249 1306.36,502.249 1307.86,502.249 1309.37,502.249 1310.88,502.249 1312.38,502.249 1313.89,502.249 1315.39,502.249 1316.9,502.249 1318.41,502.249 1319.91,502.249 1321.42,502.249 1322.92,502.249 1324.43,502.249 1325.94,502.249 1327.44,502.249 1328.95,502.249 1330.45,502.249 1331.96,502.249 1333.47,502.249 1334.97,502.249 1336.48,502.249 1337.98,502.249 1339.49,502.249 1340.99,502.249 1342.5,502.249 1344.01,502.249 1345.51,502.249 1347.02,502.249 1348.52,502.249 1350.03,502.249 1351.54,502.249 1353.04,502.249 1354.55,502.249 1356.05,502.249 1357.56,502.249 1359.07,502.249 1360.57,502.249 1362.08,502.249 1363.58,502.249 1365.09,502.249 1366.6,502.249 1368.1,502.249 1369.61,502.249 1371.11,502.249 1372.62,502.249 1374.13,502.249 1375.63,502.249 1377.14,502.249 1378.64,502.249 1380.15,502.249 1381.65,502.249 1383.16,502.249 1384.67,502.249 1386.17,502.249 1387.68,502.249 1389.18,502.249 1390.69,502.249 1392.2,502.249 1393.7,502.249 1395.21,502.249 1396.71,502.249 1398.22,502.249 1399.73,502.249 1401.23,502.249 1402.74,502.249 1404.24,502.249 1405.75,502.249 1407.26,502.249 1408.76,502.249 1410.27,502.249 1411.77,502.249 1413.28,502.249 1414.78,502.249 1416.29,502.249 1417.8,502.249 1419.3,502.249 1420.81,502.249 1422.31,502.249 1423.82,502.249 1425.33,502.249 1426.83,502.249 1428.34,502.249 1429.84,502.249 1431.35,502.249 1432.86,502.249 1434.36,502.249 1435.87,502.249 1437.37,502.249 1438.88,502.249 1440.39,502.249 1441.89,502.249 1443.4,502.249 1444.9,502.249 1446.41,502.249 1447.91,502.249 1449.42,502.249 1450.93,502.249 1452.43,502.249 1453.94,502.249 1455.44,502.249 1456.95,502.249 1458.46,502.249 1459.96,502.249 1461.47,502.249 1462.97,502.249 1464.48,502.249 1465.99,502.249 1467.49,502.249 1469,502.249 1470.5,502.249 1472.01,502.249 1473.52,502.249 1475.02,502.249 1476.53,502.249 1478.03,502.249 1479.54,502.249 1481.04,502.249 1482.55,502.249 1484.06,502.249 1485.56,502.249 1487.07,502.249 1488.57,502.249 1490.08,502.249 1491.59,502.249 1493.09,502.249 1494.6,502.249 1496.1,502.249 1497.61,502.249 1499.12,502.249 1500.62,502.249 1502.13,502.249 1503.63,502.249 1505.14,502.249 1506.65,502.249 1508.15,502.249 1509.66,502.249 1511.16,502.249 1512.67,502.249 1514.17,502.249 1515.68,502.249 1517.19,502.249 1518.69,502.249 1520.2,502.249 1521.7,502.249 1523.21,502.249 1524.72,502.249 1526.22,502.249 1527.73,502.249 1529.23,502.249 1530.74,502.249 1532.25,502.249 1533.75,502.249 1535.26,502.249 1536.76,502.249 1538.27,502.249 1539.78,502.249 1541.28,502.249 1542.79,502.249 1544.29,502.248 1545.8,502.248 1547.31,502.248 1548.81,502.248 1550.32,502.248 1551.82,502.248 1553.33,502.248 1554.83,502.248 1556.34,502.248 1557.85,502.248 1559.35,502.248 1560.86,502.248 1562.36,502.248 1563.87,502.248 1565.38,502.248 1566.88,502.248 1568.39,502.248 1569.89,502.248 1571.4,502.248 1572.91,502.248 1574.41,502.248 1575.92,502.248 1577.42,502.248 1578.93,502.248 1580.44,502.248 1581.94,502.248 1583.45,502.248 1584.95,502.248 1586.46,502.248 1587.96,502.248 1589.47,502.248 1590.98,502.248 1592.48,502.248 1593.99,502.248 1595.49,502.248 1597,502.248 1598.51,502.248 1600.01,502.248 1601.52,502.248 1603.02,502.248 1604.53,502.248 1606.04,502.248 1607.54,502.248 1609.05,502.248 1610.55,502.248 1612.06,502.248 1613.57,502.248 1615.07,502.248 1616.58,502.248 1618.08,502.248 1619.59,502.248 1621.09,502.248 1622.6,502.248 1624.11,502.248 1625.61,502.248 1627.12,502.248 1628.62,502.248 1630.13,502.248 1631.64,502.248 1633.14,502.248 1634.65,502.248 1636.15,502.248 1637.66,502.248 1639.17,502.248 1640.67,502.248 1642.18,502.248 1643.68,502.248 1645.19,502.248 1646.7,502.248 1648.2,502.248 1649.71,502.248 1651.21,502.248 1652.72,502.248 1654.22,502.248 1655.73,502.248 1657.24,502.248 1658.74,502.248 1660.25,502.248 1661.75,502.248 1663.26,502.248 1664.77,502.248 1666.27,502.248 1667.78,502.248 1669.28,502.248 1670.79,502.248 1672.3,502.248 1673.8,502.248 1675.31,502.248 1676.81,502.248 1678.32,502.248 1679.83,502.248 1681.33,502.248 1682.84,502.248 1684.34,502.248 1685.85,502.248 1687.35,502.248 1688.86,502.248 1690.37,502.248 1691.87,502.248 1693.38,502.248 1694.88,502.248 1696.39,502.248 1697.9,502.248 1699.4,502.248 1700.91,502.248 1702.41,502.248 1703.92,502.248 1705.43,502.248 1706.93,502.248 1708.44,502.248 1709.94,502.248 1711.45,502.248 1712.96,502.248 1714.46,502.248 1715.97,502.248 1717.47,502.248 1718.98,502.248 1720.48,502.248 1721.99,502.248 1723.5,502.248 1725,502.248 1726.51,502.248 1728.01,502.248 1729.52,502.248 1731.03,502.248 1732.53,502.248 1734.04,502.248 1735.54,502.248 1737.05,502.248 1738.56,502.248 1740.06,502.248 1741.57,502.248 1743.07,502.248 1744.58,502.248 1746.09,502.248 1747.59,502.248 1749.1,502.248 1750.6,502.248 1752.11,502.248 1753.62,502.248 1755.12,502.248 1756.63,502.248 1758.13,502.248 1759.64,502.248 1761.14,502.248 1762.65,502.248 1764.16,502.248 1765.66,502.248 1767.17,502.248 1768.67,502.248 1770.18,502.248 1771.69,502.248 1773.19,502.248 1774.7,502.248 1776.2,502.248 1777.71,502.248 1779.22,502.248 1780.72,502.248 1782.23,502.248 1783.73,502.248 1785.24,502.248 1786.75,502.248 1788.25,502.248 1789.76,502.248 1791.26,502.248 1792.77,502.248 1794.27,502.248 1795.78,502.248 1797.29,502.248 1798.79,502.248 1800.3,502.248 1801.8,502.248 1803.31,502.248 1804.82,502.248 1806.32,502.248 1807.83,502.248 1809.33,502.248 1810.84,502.248 1812.35,502.248 1813.85,502.248 1815.36,502.248 1816.86,502.248 1818.37,502.248 1819.88,502.248 1821.38,502.248 1822.89,502.248 1824.39,502.248 1825.9,502.248 1827.4,502.248 1828.91,502.248 1830.42,502.248 1831.92,502.248 1833.43,502.248 1834.93,502.248 1836.44,502.248 1837.95,502.248 1839.45,502.248 1840.96,502.248 1842.46,502.248 1843.97,502.248 1845.48,502.248 1846.98,502.248 1848.49,502.248 1849.99,502.248 1851.5,502.248 1853.01,502.248 1854.51,502.248 1856.02,502.248 1857.52,502.248 1859.03,502.248 1860.53,502.248 1862.04,502.248 1863.55,502.248 1865.05,502.248 1866.56,502.248 1868.06,502.248 1869.57,502.248 1871.08,502.248 1872.58,502.248 1874.09,502.248 1875.59,502.248 1877.1,502.248 1878.61,502.248 1880.11,502.248 1881.62,502.248 1883.12,502.248 1884.63,502.248 1886.14,502.248 1887.64,502.248 1889.15,502.248 1890.65,502.248 1892.16,502.248 1893.66,502.248 1895.17,502.248 1896.68,502.248 1898.18,502.248 1899.69,502.248 1901.19,502.248 1902.7,502.248 1904.21,502.248 1905.71,502.248 1907.22,502.248 1908.72,502.248 1910.23,502.248 1911.74,502.248 1913.24,502.248 1914.75,502.248 1916.25,502.248 1917.76,502.248 1919.27,502.248 1920.77,502.248 1922.28,502.248 1923.78,502.248 1925.29,502.248 1926.79,502.248 1928.3,502.248 1929.81,502.248 1931.31,502.248 1932.82,502.248 1934.32,502.248 1935.83,502.248 1937.34,502.248 1938.84,502.248 1940.35,502.248 1941.85,502.248 1943.36,502.248 1944.87,502.248 1946.37,502.248 1947.88,502.248 1949.38,502.248 1950.89,502.248 1952.4,502.248 1953.9,502.248 1955.41,502.248 1956.91,502.248 1958.42,502.248 1959.93,502.248 1961.43,502.248 1962.94,502.248 1964.44,502.248 1965.95,502.248 1967.45,502.248 1968.96,502.248 1970.47,502.248 1971.97,502.248 1973.48,502.248 1974.98,502.248 1976.49,502.248 1978,502.248 1979.5,502.248 1981.01,502.248 1982.51,502.248 1984.02,502.248 1985.53,502.248 1987.03,502.248 1988.54,502.248 1990.04,502.248 1991.55,502.248 1993.06,502.248 1994.56,502.248 1996.07,502.248 1997.57,502.248 1999.08,502.248 2000.58,502.248 2002.09,502.248 2003.6,502.248 2005.1,502.248 2006.61,502.248 2008.11,502.248 2009.62,502.248 2011.13,502.248 2012.63,502.248 2014.14,502.248 2015.64,502.248 2017.15,502.248 2018.66,502.248 2020.16,502.248 2021.67,502.248 2023.17,502.248 2024.68,502.248 2026.19,502.248 2027.69,502.248 2029.2,502.248 2030.7,502.248 2032.21,502.248 2033.71,502.248 2035.22,502.248 2036.73,502.248 2038.23,502.248 2039.74,502.248 2041.24,502.248 2042.75,502.248 2044.26,502.248 2045.76,502.248 2047.27,502.248 2048.77,502.248 2050.28,502.248 2051.79,502.248 2053.29,502.248 2054.8,502.248 2056.3,502.248 "/>
<polyline clip-path="url(#clip622)" style="stroke:#a00000; stroke-linecap:round; stroke-linejoin:round; stroke-width:12; stroke-opacity:0.5; fill:none" points="249.208,236.627 250.714,265.834 252.22,294.205 253.726,321.612 255.232,347.95 256.738,373.356 258.244,397.849 259.75,421.434 261.256,443.979 262.762,465.621 264.267,486.416 265.773,506.319 267.279,525.384 268.785,543.631 270.291,561.18 271.797,577.979 273.303,593.964 274.809,609.231 276.315,624.029 277.821,637.994 279.327,651.27 280.833,663.85 282.338,675.858 283.844,687.209 285.35,698.022 286.856,708.348 288.362,718 289.868,727.207 291.374,735.947 292.88,743.909 294.386,751.61 295.892,758.82 297.398,765.494 298.903,771.68 300.409,777.5 301.915,782.895 303.421,787.783 304.927,792.351 306.433,796.503 307.939,800.286 309.445,803.596 310.951,806.511 312.457,809.154 313.963,811.455 315.469,813.298 316.974,815.006 318.48,816.491 319.986,817.643 321.492,818.524 322.998,819.004 324.504,819.312 326.01,819.631 327.516,819.373 329.022,818.979 330.528,818.627 332.034,817.926 333.539,816.885 335.045,815.677 336.551,814.565 338.057,812.97 339.563,811.329 341.069,809.66 342.575,807.769 344.081,805.841 345.587,803.718 347.093,801.621 348.599,799.407 350.104,797.114 351.61,794.417 353.116,791.669 354.622,788.602 356.128,785.778 357.634,782.753 359.14,779.71 360.646,776.644 362.152,773.638 363.658,770.412 365.164,767.037 366.67,763.67 368.175,760.112 369.681,756.389 371.187,752.982 372.693,749.226 374.199,745.409 375.705,741.914 377.211,738.027 378.717,734.298 380.223,730.311 381.729,726.681 383.235,723.006 384.74,719.477 386.246,715.984 387.752,712.319 389.258,708.44 390.764,704.542 392.27,700.816 393.776,697.011 395.282,693.225 396.788,689.338 398.294,685.448 399.8,681.31 401.306,677.647 402.811,674.023 404.317,670.158 405.823,666.429 407.329,662.982 408.835,659.21 410.341,655.665 411.847,652.283 413.353,648.78 414.859,645.246 416.365,641.721 417.871,638.204 419.376,634.596 420.882,631.544 422.388,628.064 423.894,624.919 425.4,621.709 426.906,618.789 428.412,615.464 429.918,612.312 431.424,609.325 432.93,606.214 434.436,603.192 435.942,600.186 437.447,597.45 438.953,594.603 440.459,591.967 441.965,589.164 443.471,586.641 444.977,584.1 446.483,581.538 447.989,579.033 449.495,576.501 451.001,574.124 452.507,571.77 454.012,569.433 455.518,567.145 457.024,564.899 458.53,562.702 460.036,560.62 461.542,558.44 463.048,556.293 464.554,554.306 466.06,552.248 467.566,550.297 469.072,548.423 470.577,546.63 472.083,544.92 473.589,543.104 475.095,541.136 476.601,539.366 478.107,537.683 479.613,536.123 481.119,534.592 482.625,532.972 484.131,531.554 485.637,530.041 487.143,528.541 488.648,527.135 490.154,525.824 491.66,524.424 493.166,522.893 494.672,521.402 496.178,519.891 497.684,518.41 499.19,517.011 500.696,515.64 502.202,514.406 503.708,513.12 505.213,511.799 506.719,510.424 508.225,509.102 509.731,507.908 511.237,506.933 512.743,505.837 514.249,504.833 515.755,503.705 517.261,502.742 518.767,501.788 520.273,500.942 521.779,500.119 523.284,499.392 524.79,498.573 526.296,497.848 527.802,497.034 529.308,496.303 530.814,495.599 532.32,494.64 533.826,493.884 535.332,493.336 536.838,492.787 538.344,492.052 539.849,491.581 541.355,491.068 542.861,490.669 544.367,490.479 545.873,490.12 547.379,489.741 548.885,489.44 550.391,488.921 551.897,488.635 553.403,488.432 554.909,488.045 556.415,487.787 557.92,487.357 559.426,487.155 560.932,486.967 562.438,486.755 563.944,486.778 565.45,486.468 566.956,486.21 568.462,486.206 569.968,485.87 571.474,485.599 572.98,485.48 574.485,485.225 575.991,484.995 577.497,484.724 579.003,484.594 580.509,484.444 582.015,484.255 583.521,484.085 585.027,484.054 586.533,483.858 588.039,483.669 589.545,483.501 591.051,483.191 592.556,482.82 594.062,482.633 595.568,482.485 597.074,482.149 598.58,482.086 600.086,481.906 601.592,481.779 603.098,481.637 604.604,481.627 606.11,481.684 607.616,481.461 609.121,481.629 610.627,481.578 612.133,481.607 613.639,481.523 615.145,481.471 616.651,481.559 618.157,481.642 619.663,481.57 621.169,481.691 622.675,481.712 624.181,481.785 625.686,481.984 627.192,482.041 628.698,482.073 630.204,482.148 631.71,482.256 633.216,482.396 634.722,482.613 636.228,482.707 637.734,482.802 639.24,482.994 640.746,483.096 642.252,483.241 643.757,483.335 645.263,483.624 646.769,483.712 648.275,483.85 649.781,483.991 651.287,483.91 652.793,484.081 654.299,484.239 655.805,484.383 657.311,484.581 658.817,484.827 660.322,485.1 661.828,485.299 663.334,485.641 664.84,485.946 666.346,486.26 667.852,486.429 669.358,486.658 670.864,486.695 672.37,486.64 673.876,486.802 675.382,487.046 676.888,487.405 678.393,487.609 679.899,487.81 681.405,487.904 682.911,488.171 684.417,488.421 685.923,488.68 687.429,488.849 688.935,489.181 690.441,489.321 691.947,489.515 693.453,489.843 694.958,489.974 696.464,490.027 697.97,490.226 699.476,490.449 700.982,490.718 702.488,490.83 703.994,491.212 705.5,491.56 707.006,492.096 708.512,492.464 710.018,492.631 711.524,492.882 713.029,493.153 714.535,493.456 716.041,493.62 717.547,493.795 719.053,494.039 720.559,494.352 722.065,494.551 723.571,494.747 725.077,494.713 726.583,494.884 728.089,494.91 729.594,494.936 731.1,495.039 732.606,495.247 734.112,495.423 735.618,495.67 737.124,495.796 738.63,495.864 740.136,496.047 741.642,496.209 743.148,496.344 744.654,496.662 746.16,496.765 747.665,496.753 749.171,496.867 750.677,497.074 752.183,497.095 753.689,497.165 755.195,497.244 756.701,497.362 758.207,497.536 759.713,497.657 761.219,497.761 762.725,497.854 764.23,497.86 765.736,498.001 767.242,498.101 768.748,497.92 770.254,498.056 771.76,497.874 773.266,498.001 774.772,498.006 776.278,497.968 777.784,498.007 779.29,497.799 780.795,497.631 782.301,497.603 783.807,497.598 785.313,497.598 786.819,497.5 788.325,497.474 789.831,497.479 791.337,497.288 792.843,497.104 794.349,497.366 795.855,497.636 797.361,497.882 798.866,497.912 800.372,497.725 801.878,497.819 803.384,497.563 804.89,497.537 806.396,497.535 807.902,497.575 809.408,497.753 810.914,497.812 812.42,497.702 813.926,497.751 815.431,497.686 816.937,497.631 818.443,497.436 819.949,497.189 821.455,497.149 822.961,496.891 824.467,496.679 825.973,496.71 827.479,496.597 828.985,496.594 830.491,496.584 831.997,496.567 833.502,496.48 835.008,496.453 836.514,496.36 838.02,496.341 839.526,496.345 841.032,496.282 842.538,496.158 844.044,496.086 845.55,496.09 847.056,496.056 848.562,495.921 850.067,495.827 851.573,495.87 853.079,495.891 854.585,495.98 856.091,495.886 857.597,495.882 859.103,495.911 860.609,495.894 862.115,495.82 863.621,495.83 865.127,495.98 866.633,496.209 868.138,496.338 869.644,496.38 871.15,496.274 872.656,496.296 874.162,496.277 875.668,496.298 877.174,496.221 878.68,496.166 880.186,496.284 881.692,496.269 883.198,496.132 884.703,496.055 886.209,496.096 887.715,495.947 889.221,495.932 890.727,495.873 892.233,495.646 893.739,495.47 895.245,495.306 896.751,495.153 898.257,494.986 899.763,494.957 901.269,494.872 902.774,494.927 904.28,494.762 905.786,494.653 907.292,494.528 908.798,494.26 910.304,494.254 911.81,494.168 913.316,493.988 914.822,494.158 916.328,494.146 917.834,494.118 919.339,493.948 920.845,493.873 922.351,493.775 923.857,493.694 925.363,493.701 926.869,493.583 928.375,493.498 929.881,493.547 931.387,493.648 932.893,493.615 934.399,493.623 935.904,493.597 937.41,493.578 938.916,493.398 940.422,493.265 941.928,493.021 943.434,493.055 944.94,492.855 946.446,492.819 947.952,492.571 949.458,492.449 950.964,492.391 952.47,492.533 953.975,492.576 955.481,492.501 956.987,492.43 958.493,492.248 959.999,492.276 961.505,492.139 963.011,492.142 964.517,492.038 966.023,492.188 967.529,492.193 969.035,492.128 970.54,491.946 972.046,491.91 973.552,491.979 975.058,492.042 976.564,492.268 978.07,492.542 979.576,492.671 981.082,492.944 982.588,493.105 984.094,493.171 985.6,493.326 987.106,493.452 988.611,493.69 990.117,493.624 991.623,493.68 993.129,493.705 994.635,493.715 996.141,493.839 997.647,493.916 999.153,494.079 1000.66,494.339 1002.16,494.435 1003.67,494.399 1005.18,494.513 1006.68,494.534 1008.19,494.581 1009.69,494.655 1011.2,494.951 1012.71,494.99 1014.21,494.959 1015.72,495.017 1017.22,495.14 1018.73,495.164 1020.24,495.235 1021.74,495.237 1023.25,495.427 1024.75,495.305 1026.26,495.447 1027.77,495.44 1029.27,495.408 1030.78,495.434 1032.28,495.369 1033.79,495.208 1035.29,494.994 1036.8,494.882 1038.31,494.801 1039.81,494.676 1041.32,494.684 1042.82,494.545 1044.33,494.437 1045.84,494.343 1047.34,494.249 1048.85,494.188 1050.35,494.23 1051.86,494.252 1053.37,494.268 1054.87,494.309 1056.38,494.398 1057.88,494.486 1059.39,494.572 1060.9,494.858 1062.4,495.117 1063.91,495.132 1065.41,495.269 1066.92,495.457 1068.42,495.769 1069.93,496.025 1071.44,496.288 1072.94,496.474 1074.45,496.566 1075.95,496.7 1077.46,496.781 1078.97,496.879 1080.47,496.968 1081.98,497.018 1083.48,497.076 1084.99,497.161 1086.5,497.326 1088,497.434 1089.51,497.552 1091.01,497.688 1092.52,497.716 1094.03,497.912 1095.53,498.111 1097.04,498.309 1098.54,498.555 1100.05,498.823 1101.55,498.833 1103.06,498.898 1104.57,498.979 1106.07,499.09 1107.58,499.239 1109.08,499.451 1110.59,499.647 1112.1,499.777 1113.6,499.985 1115.11,500.245 1116.61,500.438 1118.12,500.608 1119.63,500.715 1121.13,500.844 1122.64,501.178 1124.14,501.344 1125.65,501.193 1127.16,501.232 1128.66,501.309 1130.17,501.277 1131.67,501.237 1133.18,501.143 1134.68,501.062 1136.19,501.137 1137.7,501.244 1139.2,501.385 1140.71,501.525 1142.21,501.344 1143.72,501.42 1145.23,501.551 1146.73,501.521 1148.24,501.52 1149.74,501.51 1151.25,501.567 1152.76,501.71 1154.26,501.864 1155.77,501.982 1157.27,502.231 1158.78,502.316 1160.29,502.237 1161.79,502.258 1163.3,502.28 1164.8,502.324 1166.31,502.249 1167.82,502.218 1169.32,502.204 1170.83,502.128 1172.33,502.049 1173.84,502.017 1175.34,502.044 1176.85,501.814 1178.36,501.689 1179.86,501.458 1181.37,501.429 1182.87,501.282 1184.38,501.298 1185.89,501.264 1187.39,501.257 1188.9,501.205 1190.4,501.004 1191.91,501.044 1193.42,501.029 1194.92,501.014 1196.43,500.892 1197.93,500.855 1199.44,500.673 1200.95,500.708 1202.45,500.869 1203.96,501.028 1205.46,500.988 1206.97,501.04 1208.47,501.065 1209.98,501.062 1211.49,501.006 1212.99,500.752 1214.5,500.623 1216,500.502 1217.51,500.328 1219.02,500.145 1220.52,500.228 1222.03,500.221 1223.53,500.098 1225.04,499.833 1226.55,499.719 1228.05,499.774 1229.56,499.701 1231.06,499.382 1232.57,499.237 1234.08,499.151 1235.58,499.155 1237.09,498.959 1238.59,498.864 1240.1,498.496 1241.6,498.45 1243.11,498.328 1244.62,498.004 1246.12,498.026 1247.63,497.781 1249.13,497.581 1250.64,497.455 1252.15,497.568 1253.65,497.526 1255.16,497.571 1256.66,497.621 1258.17,497.704 1259.68,497.921 1261.18,498.025 1262.69,498.276 1264.19,498.399 1265.7,498.404 1267.21,498.533 1268.71,498.574 1270.22,498.419 1271.72,498.394 1273.23,498.331 1274.73,498.134 1276.24,498.296 1277.75,498.37 1279.25,498.336 1280.76,498.355 1282.26,498.512 1283.77,498.233 1285.28,498.436 1286.78,498.34 1288.29,498.523 1289.79,498.528 1291.3,498.735 1292.81,498.705 1294.31,498.727 1295.82,498.538 1297.32,498.592 1298.83,498.536 1300.34,498.532 1301.84,498.451 1303.35,498.234 1304.85,498.228 1306.36,498.291 1307.86,498.333 1309.37,498.268 1310.88,498.347 1312.38,498.254 1313.89,498.215 1315.39,498.027 1316.9,498.076 1318.41,498.005 1319.91,497.899 1321.42,497.803 1322.92,497.744 1324.43,497.841 1325.94,497.791 1327.44,497.604 1328.95,497.534 1330.45,497.455 1331.96,497.384 1333.47,497.381 1334.97,497.269 1336.48,497.464 1337.98,497.492 1339.49,497.472 1340.99,497.334 1342.5,497.281 1344.01,497.346 1345.51,497.392 1347.02,497.475 1348.52,497.429 1350.03,497.46 1351.54,497.436 1353.04,497.417 1354.55,497.386 1356.05,497.525 1357.56,497.648 1359.07,497.665 1360.57,497.666 1362.08,497.722 1363.58,497.777 1365.09,497.827 1366.6,497.787 1368.1,497.805 1369.61,497.816 1371.11,497.86 1372.62,497.935 1374.13,498.05 1375.63,498.073 1377.14,498.311 1378.64,498.412 1380.15,498.374 1381.65,498.53 1383.16,498.616 1384.67,498.798 1386.17,498.902 1387.68,498.981 1389.18,498.9 1390.69,498.918 1392.2,498.977 1393.7,499.014 1395.21,498.98 1396.71,498.974 1398.22,498.747 1399.73,498.615 1401.23,498.466 1402.74,498.42 1404.24,498.314 1405.75,498.056 1407.26,497.76 1408.76,497.579 1410.27,497.498 1411.77,497.318 1413.28,497.234 1414.78,497.199 1416.29,497.139 1417.8,496.945 1419.3,496.576 1420.81,496.317 1422.31,496.338 1423.82,496.364 1425.33,496.291 1426.83,496.188 1428.34,495.928 1429.84,495.622 1431.35,495.626 1432.86,495.56 1434.36,495.397 1435.87,495.319 1437.37,495.312 1438.88,495.058 1440.39,494.784 1441.89,494.572 1443.4,494.414 1444.9,494.31 1446.41,494.359 1447.91,494.403 1449.42,494.067 1450.93,494.045 1452.43,493.851 1453.94,493.875 1455.44,493.776 1456.95,493.558 1458.46,493.519 1459.96,493.645 1461.47,493.615 1462.97,493.484 1464.48,493.542 1465.99,493.487 1467.49,493.416 1469,493.505 1470.5,493.285 1472.01,493.338 1473.52,493.278 1475.02,492.974 1476.53,492.763 1478.03,492.532 1479.54,492.443 1481.04,492.442 1482.55,492.51 1484.06,492.293 1485.56,492.298 1487.07,492.305 1488.57,492.187 1490.08,492.411 1491.59,492.68 1493.09,492.651 1494.6,492.785 1496.1,492.891 1497.61,492.905 1499.12,492.939 1500.62,492.979 1502.13,493.094 1503.63,493.219 1505.14,493.105 1506.65,493.07 1508.15,493.204 1509.66,493.192 1511.16,493.44 1512.67,493.481 1514.17,493.506 1515.68,493.51 1517.19,493.478 1518.69,493.42 1520.2,493.41 1521.7,493.487 1523.21,493.625 1524.72,493.569 1526.22,493.571 1527.73,493.441 1529.23,493.433 1530.74,493.242 1532.25,493.231 1533.75,493.223 1535.26,493.246 1536.76,493.092 1538.27,493.149 1539.78,493.196 1541.28,493.47 1542.79,493.614 1544.29,493.606 1545.8,493.625 1547.31,493.617 1548.81,493.56 1550.32,493.481 1551.82,493.377 1553.33,493.291 1554.83,493.411 1556.34,493.389 1557.85,493.398 1559.35,493.387 1560.86,493.525 1562.36,493.643 1563.87,493.724 1565.38,493.724 1566.88,493.688 1568.39,493.756 1569.89,493.785 1571.4,494.044 1572.91,494.102 1574.41,494.03 1575.92,494.039 1577.42,494.139 1578.93,494.055 1580.44,494.114 1581.94,494.24 1583.45,494.299 1584.95,494.276 1586.46,494.301 1587.96,494.326 1589.47,494.369 1590.98,494.285 1592.48,494.332 1593.99,494.285 1595.49,494.355 1597,494.336 1598.51,494.433 1600.01,494.492 1601.52,494.445 1603.02,494.506 1604.53,494.332 1606.04,494.09 1607.54,494.135 1609.05,494.027 1610.55,494.034 1612.06,493.962 1613.57,493.845 1615.07,493.817 1616.58,493.625 1618.08,493.466 1619.59,493.376 1621.09,493.182 1622.6,493.104 1624.11,493.012 1625.61,492.991 1627.12,492.89 1628.62,492.808 1630.13,492.797 1631.64,492.82 1633.14,492.864 1634.65,492.74 1636.15,492.705 1637.66,492.771 1639.17,492.791 1640.67,492.85 1642.18,492.89 1643.68,492.987 1645.19,493.071 1646.7,493.186 1648.2,493.384 1649.71,493.483 1651.21,493.504 1652.72,493.486 1654.22,493.57 1655.73,493.557 1657.24,493.513 1658.74,493.499 1660.25,493.475 1661.75,493.605 1663.26,493.728 1664.77,493.741 1666.27,493.751 1667.78,493.926 1669.28,493.956 1670.79,494.025 1672.3,494.024 1673.8,493.98 1675.31,494.004 1676.81,493.997 1678.32,494.199 1679.83,494.206 1681.33,494.295 1682.84,494.593 1684.34,494.781 1685.85,494.756 1687.35,494.94 1688.86,494.834 1690.37,494.781 1691.87,494.682 1693.38,494.577 1694.88,494.579 1696.39,494.496 1697.9,494.52 1699.4,494.675 1700.91,494.88 1702.41,494.988 1703.92,495.049 1705.43,495.2 1706.93,495.334 1708.44,495.494 1709.94,495.378 1711.45,495.457 1712.96,495.406 1714.46,495.567 1715.97,495.825 1717.47,495.791 1718.98,496.037 1720.48,495.996 1721.99,495.984 1723.5,496.024 1725,496.033 1726.51,496.134 1728.01,496.138 1729.52,496.148 1731.03,496.076 1732.53,496.17 1734.04,496.253 1735.54,496.235 1737.05,496.23 1738.56,496.296 1740.06,496.351 1741.57,496.422 1743.07,496.419 1744.58,496.246 1746.09,496.233 1747.59,496.223 1749.1,496.136 1750.6,496.127 1752.11,496.263 1753.62,496.436 1755.12,496.511 1756.63,496.506 1758.13,496.596 1759.64,496.673 1761.14,496.539 1762.65,496.437 1764.16,496.347 1765.66,496.29 1767.17,496.429 1768.67,496.526 1770.18,496.581 1771.69,496.557 1773.19,496.788 1774.7,496.902 1776.2,496.875 1777.71,496.903 1779.22,496.895 1780.72,496.875 1782.23,496.912 1783.73,496.817 1785.24,496.92 1786.75,496.905 1788.25,496.988 1789.76,496.89 1791.26,496.902 1792.77,496.742 1794.27,496.607 1795.78,496.416 1797.29,496.153 1798.79,495.987 1800.3,495.827 1801.8,495.547 1803.31,495.379 1804.82,495.427 1806.32,495.409 1807.83,495.366 1809.33,495.159 1810.84,495.143 1812.35,495.099 1813.85,494.961 1815.36,494.753 1816.86,494.651 1818.37,494.475 1819.88,494.151 1821.38,494.003 1822.89,493.832 1824.39,493.853 1825.9,493.77 1827.4,493.578 1828.91,493.568 1830.42,493.512 1831.92,493.472 1833.43,493.595 1834.93,493.677 1836.44,493.869 1837.95,494.065 1839.45,494.161 1840.96,494.157 1842.46,494.321 1843.97,494.46 1845.48,494.665 1846.98,494.804 1848.49,495.041 1849.99,495.136 1851.5,495.372 1853.01,495.467 1854.51,495.505 1856.02,495.613 1857.52,495.757 1859.03,495.906 1860.53,495.956 1862.04,495.837 1863.55,495.934 1865.05,495.971 1866.56,495.997 1868.06,496.222 1869.57,496.426 1871.08,496.575 1872.58,496.69 1874.09,496.776 1875.59,496.751 1877.1,496.779 1878.61,496.835 1880.11,496.859 1881.62,496.833 1883.12,497.024 1884.63,497.011 1886.14,497.023 1887.64,496.999 1889.15,496.888 1890.65,496.899 1892.16,496.829 1893.66,496.704 1895.17,496.761 1896.68,496.761 1898.18,496.742 1899.69,496.746 1901.19,496.672 1902.7,496.742 1904.21,496.689 1905.71,496.461 1907.22,496.414 1908.72,496.359 1910.23,496.379 1911.74,496.386 1913.24,496.165 1914.75,496.064 1916.25,495.895 1917.76,495.798 1919.27,495.883 1920.77,496.037 1922.28,496.022 1923.78,495.909 1925.29,495.588 1926.79,495.65 1928.3,495.733 1929.81,495.879 1931.31,496.062 1932.82,495.864 1934.32,496.021 1935.83,496.057 1937.34,496.051 1938.84,495.995 1940.35,495.926 1941.85,496.03 1943.36,495.717 1944.87,495.664 1946.37,495.71 1947.88,495.288 1949.38,494.957 1950.89,495.076 1952.4,495.587 1953.9,495.307 1955.41,495.262 1956.91,495.125 1958.42,495.03 1959.93,494.782 1961.43,494.682 1962.94,494.805 1964.44,494.831 1965.95,494.679 1967.45,494.607 1968.96,494.347 1970.47,494.198 1971.97,493.91 1973.48,493.934 1974.98,493.788 1976.49,493.497 1978,493.348 1979.5,493.16 1981.01,492.894 1982.51,492.973 1984.02,492.945 1985.53,492.957 1987.03,493.11 1988.54,493.42 1990.04,493.411 1991.55,493.726 1993.06,493.515 1994.56,493.414 1996.07,493.627 1997.57,493.497 1999.08,493.557 2000.58,493.351 2002.09,493.534 2003.6,493.082 2005.1,492.977 2006.61,492.996 2008.11,492.916 2009.62,492.809 2011.13,492.617 2012.63,492.515 2014.14,492.458 2015.64,492.319 2017.15,492.289 2018.66,491.977 2020.16,491.716 2021.67,491.68 2023.17,491.666 2024.68,491.507 2026.19,491.352 2027.69,491.249 2029.2,491.264 2030.7,490.971 2032.21,490.804 2033.71,490.73 2035.22,490.523 2036.73,490.456 2038.23,490.388 2039.74,490.244 2041.24,490.237 2042.75,490.123 2044.26,490.013 2045.76,489.965 2047.27,489.797 2048.77,489.736 2050.28,489.661 2051.79,489.633 2053.29,489.635 2054.8,489.49 2056.3,489.676 "/>
<path clip-path="url(#clip620)" d="M854.477 229.707 L1122.64 229.707 L1122.64 78.808 L854.477 78.808  Z" fill="#ffffff" fill-rule="evenodd" fill-opacity="1"/>
<polyline clip-path="url(#clip620)" style="stroke:#000000; stroke-linecap:round; stroke-linejoin:round; stroke-width:4; stroke-opacity:0; fill:none" points="854.477,229.707 1122.64,229.707 1122.64,78.808 854.477,78.808 854.477,229.707 "/>
<polyline clip-path="url(#clip620)" style="stroke:#1a80bb; stroke-linecap:round; stroke-linejoin:round; stroke-width:12; stroke-opacity:0.75; fill:none" points="864.516,129.108 924.753,129.108 "/>
<g clip-path="url(#clip620)">
<text style="fill:#000000; fill-opacity:1; font-family:Arial,Helvetica Neue,Helvetica,sans-serif; font-size:48px; text-anchor:start;" transform="rotate(0, 934.792, 146.608)" x="934.792" y="146.608">FCUC</text>
</g>
<polyline clip-path="url(#clip620)" style="stroke:#a00000; stroke-linecap:round; stroke-linejoin:round; stroke-width:12; stroke-opacity:0.5; fill:none" points="864.516,179.407 924.753,179.407 "/>
<g clip-path="url(#clip620)">
<text style="fill:#000000; fill-opacity:1; font-family:Arial,Helvetica Neue,Helvetica,sans-serif; font-size:48px; text-anchor:start;" transform="rotate(0, 934.792, 196.907)" x="934.792" y="196.907">r-FCUC</text>
</g>
</svg>
