<?xml version="1.0" encoding="utf-8"?>
<svg xmlns="http://www.w3.org/2000/svg" xmlns:xlink="http://www.w3.org/1999/xlink" width="300" height="280" viewBox="0 0 1200 1120">
<defs>
  <clipPath id="clip080">
    <rect x="0" y="0" width="1200" height="1120"/>
  </clipPath>
</defs>
<path clip-path="url(#clip080)" d="M0 1120 L1200 1120 L1200 0 L0 0  Z" fill="#ffffff" fill-rule="evenodd" fill-opacity="1"/>
<defs>
  <clipPath id="clip081">
    <rect x="240" y="40" width="841" height="841"/>
  </clipPath>
</defs>
<path clip-path="url(#clip080)" d="M246.079 913.372 L1152.76 913.372 L1152.76 47.2441 L246.079 47.2441  Z" fill="#ffffff" fill-rule="evenodd" fill-opacity="1"/>
<defs>
  <clipPath id="clip082">
    <rect x="246" y="47" width="908" height="867"/>
  </clipPath>
</defs>
<polyline clip-path="url(#clip082)" style="stroke:#808080; stroke-linecap:round; stroke-linejoin:round; stroke-width:8; stroke-opacity:0.1; fill:none" points="234.55,913.372 234.55,47.2441 "/>
<polyline clip-path="url(#clip082)" style="stroke:#808080; stroke-linecap:round; stroke-linejoin:round; stroke-width:8; stroke-opacity:0.1; fill:none" points="420.497,913.372 420.497,47.2441 "/>
<polyline clip-path="url(#clip082)" style="stroke:#808080; stroke-linecap:round; stroke-linejoin:round; stroke-width:8; stroke-opacity:0.1; fill:none" points="606.444,913.372 606.444,47.2441 "/>
<polyline clip-path="url(#clip082)" style="stroke:#808080; stroke-linecap:round; stroke-linejoin:round; stroke-width:8; stroke-opacity:0.1; fill:none" points="792.391,913.372 792.391,47.2441 "/>
<polyline clip-path="url(#clip082)" style="stroke:#808080; stroke-linecap:round; stroke-linejoin:round; stroke-width:8; stroke-opacity:0.1; fill:none" points="978.338,913.372 978.338,47.2441 "/>
<polyline clip-path="url(#clip082)" style="stroke:#808080; stroke-linecap:round; stroke-linejoin:round; stroke-width:8; stroke-opacity:0.1; fill:none" points="1164.28,913.372 1164.28,47.2441 "/>
<polyline clip-path="url(#clip082)" style="stroke:#808080; stroke-linecap:round; stroke-linejoin:round; stroke-width:8; stroke-opacity:0.1; fill:none" points="234.55,913.372 234.55,47.2441 "/>
<polyline clip-path="url(#clip082)" style="stroke:#808080; stroke-linecap:round; stroke-linejoin:round; stroke-width:8; stroke-opacity:0.1; fill:none" points="420.497,913.372 420.497,47.2441 "/>
<polyline clip-path="url(#clip082)" style="stroke:#808080; stroke-linecap:round; stroke-linejoin:round; stroke-width:8; stroke-opacity:0.1; fill:none" points="606.444,913.372 606.444,47.2441 "/>
<polyline clip-path="url(#clip082)" style="stroke:#808080; stroke-linecap:round; stroke-linejoin:round; stroke-width:8; stroke-opacity:0.1; fill:none" points="792.391,913.372 792.391,47.2441 "/>
<polyline clip-path="url(#clip082)" style="stroke:#808080; stroke-linecap:round; stroke-linejoin:round; stroke-width:8; stroke-opacity:0.1; fill:none" points="978.338,913.372 978.338,47.2441 "/>
<polyline clip-path="url(#clip082)" style="stroke:#808080; stroke-linecap:round; stroke-linejoin:round; stroke-width:8; stroke-opacity:0.1; fill:none" points="1164.28,913.372 1164.28,47.2441 "/>
<polyline clip-path="url(#clip080)" style="stroke:#000000; stroke-linecap:round; stroke-linejoin:round; stroke-width:4; stroke-opacity:1; fill:none" points="246.079,913.372 1152.76,913.372 "/>
<polyline clip-path="url(#clip080)" style="stroke:#000000; stroke-linecap:round; stroke-linejoin:round; stroke-width:4; stroke-opacity:1; fill:none" points="246.079,47.2441 1152.76,47.2441 "/>
<polyline clip-path="url(#clip080)" style="stroke:#000000; stroke-linecap:round; stroke-linejoin:round; stroke-width:4; stroke-opacity:1; fill:none" points="234.55,913.372 234.55,894.474 "/>
<polyline clip-path="url(#clip080)" style="stroke:#000000; stroke-linecap:round; stroke-linejoin:round; stroke-width:4; stroke-opacity:1; fill:none" points="420.497,913.372 420.497,894.474 "/>
<polyline clip-path="url(#clip080)" style="stroke:#000000; stroke-linecap:round; stroke-linejoin:round; stroke-width:4; stroke-opacity:1; fill:none" points="606.444,913.372 606.444,894.474 "/>
<polyline clip-path="url(#clip080)" style="stroke:#000000; stroke-linecap:round; stroke-linejoin:round; stroke-width:4; stroke-opacity:1; fill:none" points="792.391,913.372 792.391,894.474 "/>
<polyline clip-path="url(#clip080)" style="stroke:#000000; stroke-linecap:round; stroke-linejoin:round; stroke-width:4; stroke-opacity:1; fill:none" points="978.338,913.372 978.338,894.474 "/>
<polyline clip-path="url(#clip080)" style="stroke:#000000; stroke-linecap:round; stroke-linejoin:round; stroke-width:4; stroke-opacity:1; fill:none" points="1164.28,913.372 1164.28,894.474 "/>
<polyline clip-path="url(#clip080)" style="stroke:#000000; stroke-linecap:round; stroke-linejoin:round; stroke-width:4; stroke-opacity:1; fill:none" points="234.55,47.2441 234.55,66.1417 "/>
<polyline clip-path="url(#clip080)" style="stroke:#000000; stroke-linecap:round; stroke-linejoin:round; stroke-width:4; stroke-opacity:1; fill:none" points="420.497,47.2441 420.497,66.1417 "/>
<polyline clip-path="url(#clip080)" style="stroke:#000000; stroke-linecap:round; stroke-linejoin:round; stroke-width:4; stroke-opacity:1; fill:none" points="606.444,47.2441 606.444,66.1417 "/>
<polyline clip-path="url(#clip080)" style="stroke:#000000; stroke-linecap:round; stroke-linejoin:round; stroke-width:4; stroke-opacity:1; fill:none" points="792.391,47.2441 792.391,66.1417 "/>
<polyline clip-path="url(#clip080)" style="stroke:#000000; stroke-linecap:round; stroke-linejoin:round; stroke-width:4; stroke-opacity:1; fill:none" points="978.338,47.2441 978.338,66.1417 "/>
<polyline clip-path="url(#clip080)" style="stroke:#000000; stroke-linecap:round; stroke-linejoin:round; stroke-width:4; stroke-opacity:1; fill:none" points="1164.28,47.2441 1164.28,66.1417 "/>
<g clip-path="url(#clip080)">
<text style="fill:#000000; fill-opacity:1; font-family:Book Antiqua,Palatino,Palatino Linotype,Palatino LT STD,Georgia,serif; font-size:51px; font-weight:bold; text-anchor:middle;" transform="rotate(0, 234.55, 967.343)" x="234.55" y="967.343">0</text>
</g>
<g clip-path="url(#clip080)">
<text style="fill:#000000; fill-opacity:1; font-family:Book Antiqua,Palatino,Palatino Linotype,Palatino LT STD,Georgia,serif; font-size:51px; font-weight:bold; text-anchor:middle;" transform="rotate(0, 420.497, 967.343)" x="420.497" y="967.343">5</text>
</g>
<g clip-path="url(#clip080)">
<text style="fill:#000000; fill-opacity:1; font-family:Book Antiqua,Palatino,Palatino Linotype,Palatino LT STD,Georgia,serif; font-size:51px; font-weight:bold; text-anchor:middle;" transform="rotate(0, 606.444, 967.343)" x="606.444" y="967.343">10</text>
</g>
<g clip-path="url(#clip080)">
<text style="fill:#000000; fill-opacity:1; font-family:Book Antiqua,Palatino,Palatino Linotype,Palatino LT STD,Georgia,serif; font-size:51px; font-weight:bold; text-anchor:middle;" transform="rotate(0, 792.391, 967.343)" x="792.391" y="967.343">15</text>
</g>
<g clip-path="url(#clip080)">
<text style="fill:#000000; fill-opacity:1; font-family:Book Antiqua,Palatino,Palatino Linotype,Palatino LT STD,Georgia,serif; font-size:51px; font-weight:bold; text-anchor:middle;" transform="rotate(0, 978.338, 967.343)" x="978.338" y="967.343">20</text>
</g>
<g clip-path="url(#clip080)">
<text style="fill:#000000; fill-opacity:1; font-family:Book Antiqua,Palatino,Palatino Linotype,Palatino LT STD,Georgia,serif; font-size:51px; font-weight:bold; text-anchor:middle;" transform="rotate(0, 1164.28, 967.343)" x="1164.28" y="967.343">25</text>
</g>
<path clip-path="url(#clip080)" d="M672.752 1002.26 Q672.752 1003.16 672.333 1003.39 Q671.915 1003.58 670.755 1003.58 L664.572 1003.58 L659.677 1023.03 Q659.29 1024.74 659.29 1026.19 Q659.29 1027.8 659.773 1028.51 Q660.288 1029.22 661.351 1029.22 Q663.445 1029.22 665.699 1027.32 Q667.986 1025.42 669.918 1020.78 Q670.176 1020.17 670.304 1020.04 Q670.465 1019.88 670.884 1019.88 Q671.689 1019.88 671.689 1020.52 Q671.689 1020.75 671.238 1021.78 Q670.82 1022.81 669.886 1024.32 Q668.984 1025.84 667.792 1027.25 Q666.633 1028.67 664.862 1029.7 Q663.09 1030.7 661.19 1030.7 Q658.517 1030.7 656.81 1028.99 Q655.136 1027.29 655.136 1024.61 Q655.136 1023.74 655.812 1020.97 Q656.488 1018.17 660.16 1003.58 L654.33 1003.58 Q653.525 1003.58 653.203 1003.55 Q652.913 1003.52 652.688 1003.36 Q652.495 1003.16 652.495 1002.78 Q652.495 1002.17 652.752 1001.91 Q653.01 1001.62 653.332 1001.59 Q653.686 1001.52 654.491 1001.52 L660.675 1001.52 L663.251 991.054 Q663.509 990.023 664.153 989.444 Q664.829 988.832 665.216 988.767 Q665.602 988.671 665.892 988.671 Q666.762 988.671 667.277 989.154 Q667.792 989.605 667.792 990.442 Q667.792 990.893 665.087 1001.52 L670.884 1001.52 Q671.625 1001.52 671.915 1001.55 Q672.237 1001.59 672.494 1001.75 Q672.752 1001.91 672.752 1002.26 Z" fill="#000000" fill-rule="nonzero" fill-opacity="1" /><path clip-path="url(#clip080)" d="M676.068 1045.51 Q676.068 1045.19 676.325 1044.48 L699.61 982.262 Q699.61 982.197 699.771 981.843 Q699.932 981.489 700.029 981.263 Q700.125 981.006 700.319 980.813 Q700.544 980.619 700.802 980.619 Q701.446 980.619 701.446 981.425 Q701.446 981.489 701.253 982.262 L677.903 1044.55 Q677.517 1045.68 677.259 1046 Q677.034 1046.32 676.647 1046.32 Q676.068 1046.32 676.068 1045.51 Z" fill="#000000" fill-rule="nonzero" fill-opacity="1" /><path clip-path="url(#clip080)" d="M741.099 1020.52 Q741.099 1020.78 740.809 1021.78 Q740.519 1022.78 739.81 1024.32 Q739.134 1025.87 738.2 1027.29 Q737.266 1028.67 735.72 1029.7 Q734.207 1030.7 732.467 1030.7 Q730.149 1030.7 728.603 1029.15 Q727.057 1027.61 727.057 1025.29 Q727.057 1024.97 727.089 1024.64 Q727.121 1024.32 727.153 1024.13 Q727.186 1023.9 727.282 1023.55 Q727.411 1023.16 727.443 1023 Q727.508 1022.84 727.669 1022.36 Q727.862 1021.84 727.926 1021.65 Q732.017 1011.21 732.017 1006.87 Q732.017 1002.26 728.442 1002.26 Q725.253 1002.26 722.097 1004.58 Q720.648 1005.74 719.263 1007.8 Q717.878 1009.86 717.62 1010.64 Q717.331 1012.31 716.912 1013.6 Q716.719 1014.5 715.785 1018.01 L714.335 1023.97 L713.079 1028.96 Q712.822 1029.67 712.113 1030.18 Q711.405 1030.7 710.632 1030.7 Q709.988 1030.7 709.344 1030.25 Q708.732 1029.83 708.732 1028.83 Q708.732 1028.32 708.989 1027.38 L718.554 989.379 L718.748 988.091 Q718.748 987.705 718.587 987.511 Q718.458 987.286 717.685 987.125 Q716.944 986.964 715.463 986.964 Q714.851 986.964 714.561 986.932 Q714.303 986.9 714.078 986.738 Q713.852 986.545 713.852 986.159 Q713.852 985.611 714.078 985.321 Q714.335 984.999 714.529 984.935 Q714.722 984.871 715.108 984.838 Q715.656 984.806 717.492 984.645 Q719.327 984.452 720.905 984.323 Q722.484 984.194 723.16 984.194 Q723.546 984.194 723.74 984.387 Q723.965 984.548 723.997 984.742 L724.029 984.903 L718.877 1005.87 Q722.967 1000.81 728.635 1000.81 Q732.306 1000.81 734.271 1002.71 Q736.235 1004.58 736.235 1007.87 Q736.235 1011.63 732.21 1022.36 Q731.018 1025.35 731.018 1027.06 Q731.018 1028.19 731.372 1028.7 Q731.759 1029.22 732.596 1029.22 Q733.884 1029.22 735.012 1028.48 Q736.171 1027.7 736.976 1026.45 Q737.781 1025.16 738.329 1023.87 Q738.909 1022.55 739.327 1021.07 Q739.585 1020.26 739.714 1020.07 Q739.875 1019.88 740.326 1019.88 Q741.099 1019.88 741.099 1020.52 Z" fill="#000000" fill-rule="nonzero" fill-opacity="1" /><polyline clip-path="url(#clip082)" style="stroke:#808080; stroke-linecap:round; stroke-linejoin:round; stroke-width:8; stroke-opacity:0.1; fill:none" points="246.079,820.572 1152.76,820.572 "/>
<polyline clip-path="url(#clip082)" style="stroke:#808080; stroke-linecap:round; stroke-linejoin:round; stroke-width:8; stroke-opacity:0.1; fill:none" points="246.079,665.907 1152.76,665.907 "/>
<polyline clip-path="url(#clip082)" style="stroke:#808080; stroke-linecap:round; stroke-linejoin:round; stroke-width:8; stroke-opacity:0.1; fill:none" points="246.079,511.241 1152.76,511.241 "/>
<polyline clip-path="url(#clip082)" style="stroke:#808080; stroke-linecap:round; stroke-linejoin:round; stroke-width:8; stroke-opacity:0.1; fill:none" points="246.079,356.575 1152.76,356.575 "/>
<polyline clip-path="url(#clip082)" style="stroke:#808080; stroke-linecap:round; stroke-linejoin:round; stroke-width:8; stroke-opacity:0.1; fill:none" points="246.079,201.91 1152.76,201.91 "/>
<polyline clip-path="url(#clip082)" style="stroke:#808080; stroke-linecap:round; stroke-linejoin:round; stroke-width:8; stroke-opacity:0.1; fill:none" points="246.079,820.572 1152.76,820.572 "/>
<polyline clip-path="url(#clip082)" style="stroke:#808080; stroke-linecap:round; stroke-linejoin:round; stroke-width:8; stroke-opacity:0.1; fill:none" points="246.079,665.907 1152.76,665.907 "/>
<polyline clip-path="url(#clip082)" style="stroke:#808080; stroke-linecap:round; stroke-linejoin:round; stroke-width:8; stroke-opacity:0.1; fill:none" points="246.079,511.241 1152.76,511.241 "/>
<polyline clip-path="url(#clip082)" style="stroke:#808080; stroke-linecap:round; stroke-linejoin:round; stroke-width:8; stroke-opacity:0.1; fill:none" points="246.079,356.575 1152.76,356.575 "/>
<polyline clip-path="url(#clip082)" style="stroke:#808080; stroke-linecap:round; stroke-linejoin:round; stroke-width:8; stroke-opacity:0.1; fill:none" points="246.079,201.91 1152.76,201.91 "/>
<polyline clip-path="url(#clip080)" style="stroke:#000000; stroke-linecap:round; stroke-linejoin:round; stroke-width:4; stroke-opacity:1; fill:none" points="246.079,913.372 246.079,47.2441 "/>
<polyline clip-path="url(#clip080)" style="stroke:#000000; stroke-linecap:round; stroke-linejoin:round; stroke-width:4; stroke-opacity:1; fill:none" points="1152.76,913.372 1152.76,47.2441 "/>
<polyline clip-path="url(#clip080)" style="stroke:#000000; stroke-linecap:round; stroke-linejoin:round; stroke-width:4; stroke-opacity:1; fill:none" points="246.079,820.572 264.976,820.572 "/>
<polyline clip-path="url(#clip080)" style="stroke:#000000; stroke-linecap:round; stroke-linejoin:round; stroke-width:4; stroke-opacity:1; fill:none" points="246.079,665.907 264.976,665.907 "/>
<polyline clip-path="url(#clip080)" style="stroke:#000000; stroke-linecap:round; stroke-linejoin:round; stroke-width:4; stroke-opacity:1; fill:none" points="246.079,511.241 264.976,511.241 "/>
<polyline clip-path="url(#clip080)" style="stroke:#000000; stroke-linecap:round; stroke-linejoin:round; stroke-width:4; stroke-opacity:1; fill:none" points="246.079,356.575 264.976,356.575 "/>
<polyline clip-path="url(#clip080)" style="stroke:#000000; stroke-linecap:round; stroke-linejoin:round; stroke-width:4; stroke-opacity:1; fill:none" points="246.079,201.91 264.976,201.91 "/>
<polyline clip-path="url(#clip080)" style="stroke:#000000; stroke-linecap:round; stroke-linejoin:round; stroke-width:4; stroke-opacity:1; fill:none" points="1152.76,820.572 1133.86,820.572 "/>
<polyline clip-path="url(#clip080)" style="stroke:#000000; stroke-linecap:round; stroke-linejoin:round; stroke-width:4; stroke-opacity:1; fill:none" points="1152.76,665.907 1133.86,665.907 "/>
<polyline clip-path="url(#clip080)" style="stroke:#000000; stroke-linecap:round; stroke-linejoin:round; stroke-width:4; stroke-opacity:1; fill:none" points="1152.76,511.241 1133.86,511.241 "/>
<polyline clip-path="url(#clip080)" style="stroke:#000000; stroke-linecap:round; stroke-linejoin:round; stroke-width:4; stroke-opacity:1; fill:none" points="1152.76,356.575 1133.86,356.575 "/>
<polyline clip-path="url(#clip080)" style="stroke:#000000; stroke-linecap:round; stroke-linejoin:round; stroke-width:4; stroke-opacity:1; fill:none" points="1152.76,201.91 1133.86,201.91 "/>
<g clip-path="url(#clip080)">
<text style="fill:#000000; fill-opacity:1; font-family:Book Antiqua,Palatino,Palatino Linotype,Palatino LT STD,Georgia,serif; font-size:51px; font-weight:bold; text-anchor:middle;" transform="rotate(0, 183.673, 838.072)" x="183.673" y="838.072">0.35</text>
</g>
<g clip-path="url(#clip080)">
<text style="fill:#000000; fill-opacity:1; font-family:Book Antiqua,Palatino,Palatino Linotype,Palatino LT STD,Georgia,serif; font-size:51px; font-weight:bold; text-anchor:middle;" transform="rotate(0, 183.673, 683.407)" x="183.673" y="683.407">0.40</text>
</g>
<g clip-path="url(#clip080)">
<text style="fill:#000000; fill-opacity:1; font-family:Book Antiqua,Palatino,Palatino Linotype,Palatino LT STD,Georgia,serif; font-size:51px; font-weight:bold; text-anchor:middle;" transform="rotate(0, 183.673, 528.741)" x="183.673" y="528.741">0.45</text>
</g>
<g clip-path="url(#clip080)">
<text style="fill:#000000; fill-opacity:1; font-family:Book Antiqua,Palatino,Palatino Linotype,Palatino LT STD,Georgia,serif; font-size:51px; font-weight:bold; text-anchor:middle;" transform="rotate(0, 183.673, 374.075)" x="183.673" y="374.075">0.50</text>
</g>
<g clip-path="url(#clip080)">
<text style="fill:#000000; fill-opacity:1; font-family:Book Antiqua,Palatino,Palatino Linotype,Palatino LT STD,Georgia,serif; font-size:51px; font-weight:bold; text-anchor:middle;" transform="rotate(0, 183.673, 219.41)" x="183.673" y="219.41">0.55</text>
</g>
<path clip-path="url(#clip080)" d="M86.7373 674.068 Q76.6569 674.068 69.636 667.627 Q62.5829 661.153 62.5829 652.168 Q62.5829 643.118 69.636 636.677 Q76.6891 630.204 86.7373 630.204 Q96.6889 630.204 103.613 636.677 Q110.537 643.15 110.537 652.168 Q110.537 661.057 103.645 667.562 Q96.7533 674.068 86.7373 674.068 M85.8034 667.273 Q91.9225 667.273 96.6245 665.823 Q101.294 664.374 103.839 662.055 Q106.383 659.704 107.607 657.192 Q108.831 654.68 108.831 652.104 Q108.831 649.592 107.639 647.144 Q106.447 644.664 103.935 642.313 Q101.423 639.962 96.7211 638.481 Q92.0191 636.999 85.8034 636.999 Q80.9725 636.999 77.1078 638.03 Q73.2109 639.06 70.8598 640.671 Q68.5088 642.281 66.9629 644.374 Q65.417 646.435 64.8373 648.4 Q64.2254 650.332 64.2254 652.168 Q64.2254 654.487 65.256 656.902 Q66.2866 659.318 68.5732 661.765 Q70.8276 664.181 75.3042 665.727 Q79.7486 667.273 85.8034 667.273 Z" fill="#000000" fill-rule="nonzero" fill-opacity="1" /><path clip-path="url(#clip080)" d="M82.7116 623.846 L80.6504 623.846 L79.9419 614.152 L101.842 614.152 Q103.42 614.152 104.354 614.023 Q105.256 613.894 106.318 613.379 Q107.381 612.831 107.864 611.607 Q108.347 610.351 108.347 608.354 Q108.347 604.78 105.417 602.59 Q102.486 600.367 98.1382 600.367 L86.3831 600.367 Q83.9354 600.367 83.3235 601.237 Q82.7116 602.107 82.7116 605.52 L80.6504 605.52 L79.9419 595.826 L103.356 595.826 Q105.803 595.826 106.447 594.989 Q107.059 594.119 107.059 590.673 L109.088 590.673 L109.829 600.174 L103.871 600.174 Q109.797 602.944 109.829 608.677 Q109.829 611.575 109.088 613.572 Q108.347 615.536 107.446 616.535 Q106.512 617.533 104.74 618.081 Q102.969 618.596 101.874 618.66 Q100.779 618.725 98.6535 618.725 L88.7663 618.725 Q84.2897 618.725 83.5167 619.369 Q82.7116 620.013 82.7116 623.846 Z" fill="#000000" fill-rule="nonzero" fill-opacity="1" /><path clip-path="url(#clip080)" d="M82.7116 588.401 L81.2623 588.401 Q81.1335 585.373 79.0079 583.377 Q76.8501 581.348 74.2092 580.671 Q71.5684 579.963 68.5088 579.898 L68.5088 578.256 L80.6504 578.256 L80.6504 568.82 L82.7116 568.82 L82.7116 578.256 L101.037 578.256 Q108.154 578.256 108.154 573.812 Q108.154 571.911 106.222 570.655 Q104.257 569.399 100.779 569.399 L97.1398 569.399 L97.1398 567.757 L100.908 567.757 Q104.483 567.757 107.156 569.399 Q109.829 571.042 109.829 574.295 Q109.829 575.486 109.507 576.678 Q109.217 577.837 108.444 579.383 Q107.639 580.897 105.707 581.863 Q103.742 582.797 100.908 582.797 L82.7116 582.797 L82.7116 588.401 Z" fill="#000000" fill-rule="nonzero" fill-opacity="1" /><path clip-path="url(#clip080)" d="M119.845 567.561 Q119.845 564.051 119.394 563.246 Q118.975 562.408 116.882 562.408 L85.9966 562.408 Q83.8066 562.408 83.2591 563.246 Q82.7116 564.051 82.7116 567.561 L80.6504 567.561 L79.9419 558.061 L84.2897 558.061 Q79.9419 554.099 79.9419 548.818 Q79.9419 543.214 84.2897 539.124 Q88.6375 535.033 94.8532 535.033 Q101.133 535.033 105.481 539.381 Q109.829 543.729 109.829 549.752 Q109.829 553.037 108.154 555.259 Q106.447 557.449 105.191 557.867 L105.803 557.867 L116.882 557.867 Q119.008 557.867 119.426 557.03 Q119.845 556.193 119.845 552.715 L121.874 552.715 Q121.681 559.639 121.681 560.154 Q121.681 560.798 121.874 567.561 L119.845 567.561 M101.584 557.867 Q102.583 557.867 102.937 557.739 Q103.291 557.578 104.354 556.933 Q108.347 554.325 108.347 550.074 Q108.347 550.041 108.347 550.009 Q108.347 546.241 104.515 543.375 Q100.65 540.508 94.8532 540.508 Q89.3138 540.508 85.4491 543.117 Q81.5844 545.726 81.5844 549.333 Q81.5844 551.909 82.9692 554.164 Q84.3541 556.418 86.8661 557.867 L101.584 557.867 Z" fill="#000000" fill-rule="nonzero" fill-opacity="1" /><path clip-path="url(#clip080)" d="M82.7116 527.101 L80.6504 527.101 L79.9419 517.407 L101.842 517.407 Q103.42 517.407 104.354 517.278 Q105.256 517.149 106.318 516.634 Q107.381 516.086 107.864 514.862 Q108.347 513.606 108.347 511.61 Q108.347 508.035 105.417 505.845 Q102.486 503.623 98.1382 503.623 L86.3831 503.623 Q83.9354 503.623 83.3235 504.492 Q82.7116 505.362 82.7116 508.776 L80.6504 508.776 L79.9419 499.082 L103.356 499.082 Q105.803 499.082 106.447 498.244 Q107.059 497.375 107.059 493.929 L109.088 493.929 L109.829 503.429 L103.871 503.429 Q109.797 506.199 109.829 511.932 Q109.829 514.83 109.088 516.827 Q108.347 518.792 107.446 519.79 Q106.512 520.788 104.74 521.336 Q102.969 521.851 101.874 521.916 Q100.779 521.98 98.6535 521.98 L88.7663 521.98 Q84.2897 521.98 83.5167 522.624 Q82.7116 523.268 82.7116 527.101 Z" fill="#000000" fill-rule="nonzero" fill-opacity="1" /><path clip-path="url(#clip080)" d="M82.7116 491.656 L81.2623 491.656 Q81.1335 488.629 79.0079 486.632 Q76.8501 484.603 74.2092 483.927 Q71.5684 483.218 68.5088 483.154 L68.5088 481.511 L80.6504 481.511 L80.6504 472.075 L82.7116 472.075 L82.7116 481.511 L101.037 481.511 Q108.154 481.511 108.154 477.067 Q108.154 475.167 106.222 473.911 Q104.257 472.655 100.779 472.655 L97.1398 472.655 L97.1398 471.012 L100.908 471.012 Q104.483 471.012 107.156 472.655 Q109.829 474.297 109.829 477.55 Q109.829 478.741 109.507 479.933 Q109.217 481.092 108.444 482.638 Q107.639 484.152 105.707 485.118 Q103.742 486.052 100.908 486.052 L82.7116 486.052 L82.7116 491.656 Z" fill="#000000" fill-rule="nonzero" fill-opacity="1" /><path clip-path="url(#clip080)" d="M124.644 448.9 Q124.322 448.9 123.613 448.642 L61.3913 425.357 Q61.3269 425.357 60.9726 425.196 Q60.6184 425.035 60.3929 424.939 Q60.1353 424.842 59.942 424.649 Q59.7488 424.423 59.7488 424.166 Q59.7488 423.522 60.554 423.522 Q60.6184 423.522 61.3913 423.715 L123.677 447.064 Q124.805 447.451 125.127 447.708 Q125.449 447.934 125.449 448.32 Q125.449 448.9 124.644 448.9 Z" fill="#000000" fill-rule="nonzero" fill-opacity="1" /><path clip-path="url(#clip080)" d="M119.845 416.236 Q119.845 412.725 119.394 411.92 Q118.975 411.083 116.882 411.083 L85.9966 411.083 Q83.8066 411.083 83.2591 411.92 Q82.7116 412.725 82.7116 416.236 L80.6504 416.236 L79.9419 406.735 L84.2897 406.735 Q79.9419 402.774 79.9419 397.492 Q79.9419 391.888 84.2897 387.798 Q88.6375 383.708 94.8532 383.708 Q101.133 383.708 105.481 388.056 Q109.829 392.403 109.829 398.426 Q109.829 401.711 108.154 403.933 Q106.447 406.123 105.191 406.542 L105.803 406.542 L116.882 406.542 Q119.008 406.542 119.426 405.704 Q119.845 404.867 119.845 401.389 L121.874 401.389 Q121.681 408.313 121.681 408.828 Q121.681 409.473 121.874 416.236 L119.845 416.236 M101.584 406.542 Q102.583 406.542 102.937 406.413 Q103.291 406.252 104.354 405.608 Q108.347 402.999 108.347 398.748 Q108.347 398.716 108.347 398.684 Q108.347 394.915 104.515 392.049 Q100.65 389.183 94.8532 389.183 Q89.3138 389.183 85.4491 391.791 Q81.5844 394.4 81.5844 398.007 Q81.5844 400.584 82.9692 402.838 Q84.3541 405.093 86.8661 406.542 L101.584 406.542 Z" fill="#000000" fill-rule="nonzero" fill-opacity="1" /><path clip-path="url(#clip080)" d="M108.025 379.001 Q106.963 379.999 105.578 379.999 Q104.193 379.999 103.195 379.001 Q102.164 378.002 102.164 376.489 Q102.164 375.039 103.13 374.073 Q104.064 373.075 105.61 373.075 Q107.124 373.075 108.122 374.138 Q109.088 375.168 109.088 376.489 Q109.088 378.002 108.025 379.001 Z" fill="#000000" fill-rule="nonzero" fill-opacity="1" /><path clip-path="url(#clip080)" d="M82.7116 351.392 L80.6504 351.392 L79.9419 341.698 L101.842 341.698 Q103.42 341.698 104.354 341.569 Q105.256 341.44 106.318 340.925 Q107.381 340.377 107.864 339.153 Q108.347 337.897 108.347 335.901 Q108.347 332.326 105.417 330.136 Q102.486 327.914 98.1382 327.914 L86.3831 327.914 Q83.9354 327.914 83.3235 328.783 Q82.7116 329.653 82.7116 333.067 L80.6504 333.067 L79.9419 323.373 L103.356 323.373 Q105.803 323.373 106.447 322.535 Q107.059 321.666 107.059 318.22 L109.088 318.22 L109.829 327.72 L103.871 327.72 Q109.797 330.49 109.829 336.223 Q109.829 339.121 109.088 341.118 Q108.347 343.083 107.446 344.081 Q106.512 345.079 104.74 345.627 Q102.969 346.142 101.874 346.207 Q100.779 346.271 98.6535 346.271 L88.7663 346.271 Q84.2897 346.271 83.5167 346.915 Q82.7116 347.559 82.7116 351.392 Z" fill="#000000" fill-rule="nonzero" fill-opacity="1" /><path clip-path="url(#clip080)" d="M108.025 314.157 Q106.963 315.155 105.578 315.155 Q104.193 315.155 103.195 314.157 Q102.164 313.158 102.164 311.645 Q102.164 310.195 103.13 309.229 Q104.064 308.231 105.61 308.231 Q107.124 308.231 108.122 309.294 Q109.088 310.324 109.088 311.645 Q109.088 313.158 108.025 314.157 Z" fill="#000000" fill-rule="nonzero" fill-opacity="1" /><polyline clip-path="url(#clip082)" style="stroke:#ffa500; stroke-linecap:round; stroke-linejoin:round; stroke-width:2; stroke-opacity:1; fill:none" stroke-dasharray="8, 5" points="271.739,549.789 308.929,520.207 346.118,599.818 383.308,555.622 420.497,640.563 457.686,779.693 494.876,599.7 532.065,598.404 569.254,506.016 606.444,570.344 643.633,554.211 680.823,553.609 718.012,463.928 755.201,586.767 792.391,473.58 829.58,512.932 866.77,547.01 903.959,574.429 941.148,554.481 978.338,521.159 1015.53,364.918 1052.72,499.037 1089.91,451.652 1127.1,563.019 "/>
<polyline clip-path="url(#clip082)" style="stroke:#ffa500; stroke-linecap:round; stroke-linejoin:round; stroke-width:2; stroke-opacity:1; fill:none" stroke-dasharray="8, 5" points="271.739,574.651 308.929,530.703 346.118,548.231 383.308,554.734 420.497,650.367 457.686,707.039 494.876,629.093 532.065,580.073 569.254,426.612 606.444,584.917 643.633,614.256 680.823,528.513 718.012,498.296 755.201,631.505 792.391,571.029 829.58,504.201 866.77,543.53 903.959,637.982 941.148,614.148 978.338,548.698 1015.53,448.206 1052.72,473.142 1089.91,436.953 1127.1,589.685 "/>
<polyline clip-path="url(#clip082)" style="stroke:#ffa500; stroke-linecap:round; stroke-linejoin:round; stroke-width:2; stroke-opacity:1; fill:none" stroke-dasharray="8, 5" points="271.739,536.53 308.929,521.27 346.118,501.808 383.308,562.071 420.497,611.206 457.686,687.466 494.876,596.743 532.065,552.339 569.254,526.492 606.444,537.753 643.633,554.296 680.823,563.799 718.012,440.932 755.201,562.639 792.391,498.846 829.58,512.892 866.77,584.468 903.959,560.058 941.148,574.628 978.338,593.182 1015.53,405.534 1052.72,614.282 1089.91,551.951 1127.1,581.022 "/>
<polyline clip-path="url(#clip082)" style="stroke:#ffa500; stroke-linecap:round; stroke-linejoin:round; stroke-width:2; stroke-opacity:1; fill:none" stroke-dasharray="8, 5" points="271.739,602.205 308.929,623.429 346.118,555.982 383.308,592.013 420.497,623.927 457.686,701.917 494.876,582.377 532.065,601.854 569.254,520.583 606.444,535.925 643.633,496.413 680.823,496.626 718.012,458.101 755.201,627.507 792.391,384.563 829.58,529.127 866.77,569.797 903.959,546.804 941.148,598.407 978.338,589.574 1015.53,371.493 1052.72,561.159 1089.91,402.927 1127.1,578.208 "/>
<polyline clip-path="url(#clip082)" style="stroke:#ffa500; stroke-linecap:round; stroke-linejoin:round; stroke-width:2; stroke-opacity:1; fill:none" stroke-dasharray="8, 5" points="271.739,538.626 308.929,524.348 346.118,590.441 383.308,607.819 420.497,636.13 457.686,767.83 494.876,561.257 532.065,606.649 569.254,473.141 606.444,469.251 643.633,673.511 680.823,538.35 718.012,497.798 755.201,467.206 792.391,434.926 829.58,501.587 866.77,594.841 903.959,624.662 941.148,579.083 978.338,575.059 1015.53,436.911 1052.72,594.173 1089.91,624.28 1127.1,671.792 "/>
<polyline clip-path="url(#clip082)" style="stroke:#ffa500; stroke-linecap:round; stroke-linejoin:round; stroke-width:2; stroke-opacity:1; fill:none" stroke-dasharray="8, 5" points="271.739,573.527 308.929,466.81 346.118,559.139 383.308,572.011 420.497,562.22 457.686,810.364 494.876,647.761 532.065,461.409 569.254,521.017 606.444,477.864 643.633,538.059 680.823,597.309 718.012,487.457 755.201,524.715 792.391,466.358 829.58,408.455 866.77,544.403 903.959,641.635 941.148,581.627 978.338,567.083 1015.53,391.979 1052.72,640.146 1089.91,430.247 1127.1,502.25 "/>
<polyline clip-path="url(#clip082)" style="stroke:#ffa500; stroke-linecap:round; stroke-linejoin:round; stroke-width:2; stroke-opacity:1; fill:none" stroke-dasharray="8, 5" points="271.739,581.23 308.929,577.765 346.118,525.291 383.308,656.777 420.497,644.93 457.686,705.59 494.876,627.929 532.065,573.864 569.254,506.572 606.444,512.871 643.633,540.343 680.823,584.01 718.012,518.485 755.201,506.212 792.391,649.571 829.58,528.592 866.77,568.201 903.959,663.41 941.148,592.254 978.338,604.904 1015.53,425.37 1052.72,506.182 1089.91,521.697 1127.1,562.639 "/>
<polyline clip-path="url(#clip082)" style="stroke:#ffa500; stroke-linecap:round; stroke-linejoin:round; stroke-width:2; stroke-opacity:1; fill:none" stroke-dasharray="8, 5" points="271.739,486.319 308.929,525.112 346.118,575.916 383.308,500.457 420.497,583.185 457.686,793.219 494.876,604.721 532.065,640.881 569.254,524.906 606.444,513.217 643.633,619.857 680.823,560.971 718.012,535.612 755.201,555.047 792.391,459.245 829.58,482.205 866.77,530.521 903.959,559.642 941.148,619.56 978.338,534.098 1015.53,414.346 1052.72,487.945 1089.91,531.542 1127.1,581.31 "/>
<polyline clip-path="url(#clip082)" style="stroke:#ffa500; stroke-linecap:round; stroke-linejoin:round; stroke-width:2; stroke-opacity:1; fill:none" stroke-dasharray="8, 5" points="271.739,523.589 308.929,543.054 346.118,578.511 383.308,558.414 420.497,487.141 457.686,757.094 494.876,593.792 532.065,562.076 569.254,522.898 606.444,527.919 643.633,558.442 680.823,531.053 718.012,550.912 755.201,580.421 792.391,490.376 829.58,490.181 866.77,496.706 903.959,614.727 941.148,542.063 978.338,618.197 1015.53,424.997 1052.72,535.757 1089.91,537.047 1127.1,592.349 "/>
<polyline clip-path="url(#clip082)" style="stroke:#ffa500; stroke-linecap:round; stroke-linejoin:round; stroke-width:2; stroke-opacity:1; fill:none" stroke-dasharray="8, 5" points="271.739,470.786 308.929,583.333 346.118,520.962 383.308,572.654 420.497,605.87 457.686,749.976 494.876,542.414 532.065,543.436 569.254,518.422 606.444,509.108 643.633,541.461 680.823,568.177 718.012,514.335 755.201,527.806 792.391,602.566 829.58,475.773 866.77,513.535 903.959,546.666 941.148,554.583 978.338,571.432 1015.53,454.493 1052.72,553.275 1089.91,487.766 1127.1,590.358 "/>
<polyline clip-path="url(#clip082)" style="stroke:#ffa500; stroke-linecap:round; stroke-linejoin:round; stroke-width:2; stroke-opacity:1; fill:none" stroke-dasharray="8, 5" points="271.739,559.556 308.929,461.888 346.118,572.16 383.308,508.197 420.497,585.261 457.686,757.285 494.876,626.507 532.065,591.591 569.254,509.477 606.444,500.108 643.633,568.724 680.823,576.875 718.012,515.238 755.201,466.544 792.391,479.761 829.58,490.437 866.77,536.582 903.959,534.615 941.148,585.452 978.338,592.557 1015.53,391.7 1052.72,569.414 1089.91,475.591 1127.1,581.072 "/>
<polyline clip-path="url(#clip082)" style="stroke:#ffa500; stroke-linecap:round; stroke-linejoin:round; stroke-width:2; stroke-opacity:1; fill:none" stroke-dasharray="8, 5" points="271.739,585.963 308.929,603.507 346.118,583.292 383.308,582.279 420.497,621.387 457.686,769.054 494.876,610.157 532.065,659.833 569.254,511.084 606.444,512.847 643.633,545.169 680.823,558.978 718.012,521.59 755.201,530.906 792.391,410.242 829.58,470.156 866.77,567.391 903.959,505.424 941.148,513.732 978.338,633.167 1015.53,390.936 1052.72,571.414 1089.91,552.651 1127.1,480.786 "/>
<polyline clip-path="url(#clip082)" style="stroke:#ffa500; stroke-linecap:round; stroke-linejoin:round; stroke-width:2; stroke-opacity:1; fill:none" stroke-dasharray="8, 5" points="271.739,570.61 308.929,575.69 346.118,463.676 383.308,584.925 420.497,603.479 457.686,720.449 494.876,569.998 532.065,517.284 569.254,453.624 606.444,611.993 643.633,535.152 680.823,491.32 718.012,459.138 755.201,574.745 792.391,464.278 829.58,434.084 866.77,679.561 903.959,637.69 941.148,608.832 978.338,574.142 1015.53,420.819 1052.72,492.682 1089.91,526.159 1127.1,576.927 "/>
<polyline clip-path="url(#clip082)" style="stroke:#ffa500; stroke-linecap:round; stroke-linejoin:round; stroke-width:2; stroke-opacity:1; fill:none" stroke-dasharray="8, 5" points="271.739,622.673 308.929,529.147 346.118,586.805 383.308,598.856 420.497,674.897 457.686,741.881 494.876,562.248 532.065,572.258 569.254,445.374 606.444,492.139 643.633,562.469 680.823,563.874 718.012,480.515 755.201,547.8 792.391,483.581 829.58,475.841 866.77,579.428 903.959,512.049 941.148,534.366 978.338,672.394 1015.53,500.58 1052.72,584.207 1089.91,483.431 1127.1,596.77 "/>
<polyline clip-path="url(#clip082)" style="stroke:#ffa500; stroke-linecap:round; stroke-linejoin:round; stroke-width:2; stroke-opacity:1; fill:none" stroke-dasharray="8, 5" points="271.739,608.401 308.929,512.659 346.118,562.931 383.308,545.367 420.497,603.126 457.686,723.649 494.876,491.922 532.065,554.4 569.254,548.793 606.444,477.197 643.633,632.378 680.823,544.897 718.012,496.878 755.201,567.751 792.391,470.609 829.58,479.549 866.77,532.626 903.959,569.082 941.148,531.271 978.338,598.358 1015.53,432.481 1052.72,513.803 1089.91,596.422 1127.1,557.85 "/>
<polyline clip-path="url(#clip082)" style="stroke:#ffa500; stroke-linecap:round; stroke-linejoin:round; stroke-width:2; stroke-opacity:1; fill:none" stroke-dasharray="8, 5" points="271.739,529.604 308.929,565.591 346.118,535.2 383.308,517.076 420.497,602.894 457.686,734.479 494.876,572.526 532.065,553.021 569.254,390.235 606.444,462.112 643.633,567.426 680.823,521.006 718.012,552.241 755.201,520.024 792.391,458.734 829.58,542.858 866.77,662.036 903.959,519.83 941.148,613.03 978.338,586.112 1015.53,440.688 1052.72,493.37 1089.91,521.395 1127.1,577.165 "/>
<polyline clip-path="url(#clip082)" style="stroke:#ffa500; stroke-linecap:round; stroke-linejoin:round; stroke-width:2; stroke-opacity:1; fill:none" stroke-dasharray="8, 5" points="271.739,634.506 308.929,605.694 346.118,574.356 383.308,616.981 420.497,622.979 457.686,749.029 494.876,609.974 532.065,577.373 569.254,528.247 606.444,525.092 643.633,609 680.823,528.988 718.012,552.218 755.201,561.437 792.391,457.249 829.58,506.079 866.77,621.509 903.959,559.573 941.148,592.043 978.338,535.07 1015.53,377.092 1052.72,572.969 1089.91,553.599 1127.1,586.466 "/>
<polyline clip-path="url(#clip082)" style="stroke:#ffa500; stroke-linecap:round; stroke-linejoin:round; stroke-width:2; stroke-opacity:1; fill:none" stroke-dasharray="8, 5" points="271.739,567.448 308.929,506.291 346.118,556.087 383.308,566.725 420.497,571.878 457.686,770.83 494.876,611.932 532.065,582.714 569.254,488.277 606.444,531.399 643.633,531.507 680.823,520.139 718.012,484.775 755.201,580.854 792.391,472.111 829.58,380.538 866.77,415.168 903.959,526.33 941.148,566.578 978.338,562.481 1015.53,439.811 1052.72,543.361 1089.91,498.638 1127.1,698.294 "/>
<polyline clip-path="url(#clip082)" style="stroke:#ffa500; stroke-linecap:round; stroke-linejoin:round; stroke-width:2; stroke-opacity:1; fill:none" stroke-dasharray="8, 5" points="271.739,490.535 308.929,545.921 346.118,672.223 383.308,564.734 420.497,641.513 457.686,744.334 494.876,582.609 532.065,556.742 569.254,583.667 606.444,518.606 643.633,574.276 680.823,552.491 718.012,560.833 755.201,576.269 792.391,426.751 829.58,466.932 866.77,556.967 903.959,556.469 941.148,656.318 978.338,482.211 1015.53,474.459 1052.72,509.245 1089.91,511.353 1127.1,539.935 "/>
<polyline clip-path="url(#clip082)" style="stroke:#ffa500; stroke-linecap:round; stroke-linejoin:round; stroke-width:2; stroke-opacity:1; fill:none" stroke-dasharray="8, 5" points="271.739,551.389 308.929,523.089 346.118,549.328 383.308,588.04 420.497,614.387 457.686,801.267 494.876,636.084 532.065,507.796 569.254,515.987 606.444,520.814 643.633,590.549 680.823,551.241 718.012,506.876 755.201,525.202 792.391,479.527 829.58,479.299 866.77,539.207 903.959,586.762 941.148,562.9 978.338,591.901 1015.53,381.392 1052.72,464.009 1089.91,570.368 1127.1,540.561 "/>
<polyline clip-path="url(#clip082)" style="stroke:#ffa500; stroke-linecap:round; stroke-linejoin:round; stroke-width:2; stroke-opacity:1; fill:none" stroke-dasharray="8, 5" points="271.739,559.202 308.929,513.91 346.118,554.815 383.308,582.075 420.497,596.677 457.686,792.17 494.876,590.022 532.065,576.236 569.254,508.15 606.444,561.11 643.633,578.362 680.823,570.067 718.012,488.664 755.201,535.981 792.391,494.816 829.58,588.41 866.77,598.257 903.959,528.852 941.148,595.427 978.338,614.912 1015.53,458.422 1052.72,510.211 1089.91,518.525 1127.1,613.862 "/>
<polyline clip-path="url(#clip082)" style="stroke:#ffa500; stroke-linecap:round; stroke-linejoin:round; stroke-width:2; stroke-opacity:1; fill:none" stroke-dasharray="8, 5" points="271.739,368.681 308.929,490.705 346.118,585.861 383.308,560.881 420.497,598.326 457.686,810.311 494.876,584.519 532.065,557.259 569.254,514.487 606.444,487.658 643.633,628.989 680.823,594.18 718.012,447.192 755.201,546.851 792.391,442.553 829.58,489.308 866.77,618.347 903.959,497.545 941.148,596.262 978.338,504.764 1015.53,334.768 1052.72,534.565 1089.91,520.311 1127.1,580.753 "/>
<polyline clip-path="url(#clip082)" style="stroke:#ffa500; stroke-linecap:round; stroke-linejoin:round; stroke-width:2; stroke-opacity:1; fill:none" stroke-dasharray="8, 5" points="271.739,480.389 308.929,686.567 346.118,545.112 383.308,570.83 420.497,706.771 457.686,725.583 494.876,574.237 532.065,542.558 569.254,501.737 606.444,528.096 643.633,568.072 680.823,556.325 718.012,447.686 755.201,556.318 792.391,446.762 829.58,515.653 866.77,556.066 903.959,579.469 941.148,572.774 978.338,550.324 1015.53,443.115 1052.72,544.41 1089.91,531.213 1127.1,605.056 "/>
<polyline clip-path="url(#clip082)" style="stroke:#ffa500; stroke-linecap:round; stroke-linejoin:round; stroke-width:2; stroke-opacity:1; fill:none" stroke-dasharray="8, 5" points="271.739,565.386 308.929,502.547 346.118,553.339 383.308,569.025 420.497,613.954 457.686,785.677 494.876,596.599 532.065,536.876 569.254,432.113 606.444,632.47 643.633,549.888 680.823,595.279 718.012,489.241 755.201,598.199 792.391,476.506 829.58,497.743 866.77,530.007 903.959,582.618 941.148,552.161 978.338,599.392 1015.53,430.583 1052.72,497.66 1089.91,574.321 1127.1,539.321 "/>
<polyline clip-path="url(#clip082)" style="stroke:#ffa500; stroke-linecap:round; stroke-linejoin:round; stroke-width:2; stroke-opacity:1; fill:none" stroke-dasharray="8, 5" points="271.739,554.504 308.929,554.268 346.118,577.312 383.308,565.885 420.497,644.604 457.686,719.063 494.876,568.843 532.065,530.328 569.254,494.719 606.444,381.561 643.633,549.673 680.823,557.895 718.012,473.255 755.201,565.013 792.391,459.53 829.58,541.563 866.77,582.924 903.959,613.156 941.148,635.745 978.338,579.498 1015.53,423.893 1052.72,533.673 1089.91,536.286 1127.1,565.32 "/>
<polyline clip-path="url(#clip082)" style="stroke:#ffa500; stroke-linecap:round; stroke-linejoin:round; stroke-width:2; stroke-opacity:1; fill:none" stroke-dasharray="8, 5" points="271.739,474.563 308.929,551.699 346.118,539.246 383.308,585.799 420.497,646.786 457.686,725.111 494.876,592.309 532.065,545.954 569.254,534.045 606.444,541.171 643.633,581.145 680.823,549.075 718.012,519.707 755.201,433.787 792.391,498.308 829.58,492.968 866.77,600.01 903.959,623.227 941.148,571.721 978.338,592.267 1015.53,316.042 1052.72,556.316 1089.91,527.367 1127.1,532.512 "/>
<polyline clip-path="url(#clip082)" style="stroke:#ffa500; stroke-linecap:round; stroke-linejoin:round; stroke-width:2; stroke-opacity:1; fill:none" stroke-dasharray="8, 5" points="271.739,544.879 308.929,462.668 346.118,527.084 383.308,586.91 420.497,697.854 457.686,800.072 494.876,593.433 532.065,494.124 569.254,517.743 606.444,523.115 643.633,643.323 680.823,529.98 718.012,499.147 755.201,525.31 792.391,379.333 829.58,481.985 866.77,619.071 903.959,580.345 941.148,513.649 978.338,495.415 1015.53,414.439 1052.72,514.382 1089.91,349.626 1127.1,604.518 "/>
<polyline clip-path="url(#clip082)" style="stroke:#ffa500; stroke-linecap:round; stroke-linejoin:round; stroke-width:2; stroke-opacity:1; fill:none" stroke-dasharray="8, 5" points="271.739,568.057 308.929,542.874 346.118,574.678 383.308,654.532 420.497,609.128 457.686,782.527 494.876,632.203 532.065,544.45 569.254,548.554 606.444,521.168 643.633,604.202 680.823,562.451 718.012,552.91 755.201,583.812 792.391,503.132 829.58,479.198 866.77,561.883 903.959,601.435 941.148,593.649 978.338,577.852 1015.53,362.589 1052.72,521.006 1089.91,522.536 1127.1,578.641 "/>
<polyline clip-path="url(#clip082)" style="stroke:#ffa500; stroke-linecap:round; stroke-linejoin:round; stroke-width:2; stroke-opacity:1; fill:none" stroke-dasharray="8, 5" points="271.739,598.03 308.929,526.498 346.118,556.482 383.308,583.174 420.497,577.507 457.686,753.674 494.876,621.224 532.065,613.952 569.254,519.171 606.444,529.781 643.633,619.699 680.823,524.588 718.012,506.016 755.201,573.001 792.391,505 829.58,476.973 866.77,533.813 903.959,446.867 941.148,568.019 978.338,651.001 1015.53,413.187 1052.72,413.881 1089.91,505.14 1127.1,491.275 "/>
<polyline clip-path="url(#clip082)" style="stroke:#ffa500; stroke-linecap:round; stroke-linejoin:round; stroke-width:2; stroke-opacity:1; fill:none" stroke-dasharray="8, 5" points="271.739,551.791 308.929,500.598 346.118,545.208 383.308,651.913 420.497,628.203 457.686,783.144 494.876,708.172 532.065,538.144 569.254,598.195 606.444,508.268 643.633,630.139 680.823,532.052 718.012,543.42 755.201,654.674 792.391,548.447 829.58,492.447 866.77,520.731 903.959,594.516 941.148,540.35 978.338,540.149 1015.53,376.07 1052.72,541.871 1089.91,514.186 1127.1,581.758 "/>
<polyline clip-path="url(#clip082)" style="stroke:#ffa500; stroke-linecap:round; stroke-linejoin:round; stroke-width:4; stroke-opacity:1; fill:none" stroke-dasharray="16, 10" points="271.739,368.681 308.929,461.888 346.118,463.676 383.308,500.457 420.497,487.141 457.686,687.466 494.876,491.922 532.065,461.409 569.254,390.235 606.444,381.561 643.633,496.413 680.823,491.32 718.012,440.932 755.201,433.787 792.391,379.333 829.58,380.538 866.77,415.168 903.959,446.867 941.148,513.649 978.338,482.211 1015.53,316.042 1052.72,413.881 1089.91,349.626 1127.1,480.786 "/>
<circle clip-path="url(#clip082)" cx="271.739" cy="368.681" r="10.8" fill="#dd64b5" fill-rule="evenodd" fill-opacity="0.95" stroke="#000000" stroke-opacity="0.95" stroke-width="2.24"/>
<circle clip-path="url(#clip082)" cx="308.929" cy="461.888" r="10.8" fill="#dd64b5" fill-rule="evenodd" fill-opacity="0.95" stroke="#000000" stroke-opacity="0.95" stroke-width="2.24"/>
<circle clip-path="url(#clip082)" cx="346.118" cy="463.676" r="10.8" fill="#dd64b5" fill-rule="evenodd" fill-opacity="0.95" stroke="#000000" stroke-opacity="0.95" stroke-width="2.24"/>
<circle clip-path="url(#clip082)" cx="383.308" cy="500.457" r="10.8" fill="#dd64b5" fill-rule="evenodd" fill-opacity="0.95" stroke="#000000" stroke-opacity="0.95" stroke-width="2.24"/>
<circle clip-path="url(#clip082)" cx="420.497" cy="487.141" r="10.8" fill="#dd64b5" fill-rule="evenodd" fill-opacity="0.95" stroke="#000000" stroke-opacity="0.95" stroke-width="2.24"/>
<circle clip-path="url(#clip082)" cx="457.686" cy="687.466" r="10.8" fill="#dd64b5" fill-rule="evenodd" fill-opacity="0.95" stroke="#000000" stroke-opacity="0.95" stroke-width="2.24"/>
<circle clip-path="url(#clip082)" cx="494.876" cy="491.922" r="10.8" fill="#dd64b5" fill-rule="evenodd" fill-opacity="0.95" stroke="#000000" stroke-opacity="0.95" stroke-width="2.24"/>
<circle clip-path="url(#clip082)" cx="532.065" cy="461.409" r="10.8" fill="#dd64b5" fill-rule="evenodd" fill-opacity="0.95" stroke="#000000" stroke-opacity="0.95" stroke-width="2.24"/>
<circle clip-path="url(#clip082)" cx="569.254" cy="390.235" r="10.8" fill="#dd64b5" fill-rule="evenodd" fill-opacity="0.95" stroke="#000000" stroke-opacity="0.95" stroke-width="2.24"/>
<circle clip-path="url(#clip082)" cx="606.444" cy="381.561" r="10.8" fill="#dd64b5" fill-rule="evenodd" fill-opacity="0.95" stroke="#000000" stroke-opacity="0.95" stroke-width="2.24"/>
<circle clip-path="url(#clip082)" cx="643.633" cy="496.413" r="10.8" fill="#dd64b5" fill-rule="evenodd" fill-opacity="0.95" stroke="#000000" stroke-opacity="0.95" stroke-width="2.24"/>
<circle clip-path="url(#clip082)" cx="680.823" cy="491.32" r="10.8" fill="#dd64b5" fill-rule="evenodd" fill-opacity="0.95" stroke="#000000" stroke-opacity="0.95" stroke-width="2.24"/>
<circle clip-path="url(#clip082)" cx="718.012" cy="440.932" r="10.8" fill="#dd64b5" fill-rule="evenodd" fill-opacity="0.95" stroke="#000000" stroke-opacity="0.95" stroke-width="2.24"/>
<circle clip-path="url(#clip082)" cx="755.201" cy="433.787" r="10.8" fill="#dd64b5" fill-rule="evenodd" fill-opacity="0.95" stroke="#000000" stroke-opacity="0.95" stroke-width="2.24"/>
<circle clip-path="url(#clip082)" cx="792.391" cy="379.333" r="10.8" fill="#dd64b5" fill-rule="evenodd" fill-opacity="0.95" stroke="#000000" stroke-opacity="0.95" stroke-width="2.24"/>
<circle clip-path="url(#clip082)" cx="829.58" cy="380.538" r="10.8" fill="#dd64b5" fill-rule="evenodd" fill-opacity="0.95" stroke="#000000" stroke-opacity="0.95" stroke-width="2.24"/>
<circle clip-path="url(#clip082)" cx="866.77" cy="415.168" r="10.8" fill="#dd64b5" fill-rule="evenodd" fill-opacity="0.95" stroke="#000000" stroke-opacity="0.95" stroke-width="2.24"/>
<circle clip-path="url(#clip082)" cx="903.959" cy="446.867" r="10.8" fill="#dd64b5" fill-rule="evenodd" fill-opacity="0.95" stroke="#000000" stroke-opacity="0.95" stroke-width="2.24"/>
<circle clip-path="url(#clip082)" cx="941.148" cy="513.649" r="10.8" fill="#dd64b5" fill-rule="evenodd" fill-opacity="0.95" stroke="#000000" stroke-opacity="0.95" stroke-width="2.24"/>
<circle clip-path="url(#clip082)" cx="978.338" cy="482.211" r="10.8" fill="#dd64b5" fill-rule="evenodd" fill-opacity="0.95" stroke="#000000" stroke-opacity="0.95" stroke-width="2.24"/>
<circle clip-path="url(#clip082)" cx="1015.53" cy="316.042" r="10.8" fill="#dd64b5" fill-rule="evenodd" fill-opacity="0.95" stroke="#000000" stroke-opacity="0.95" stroke-width="2.24"/>
<circle clip-path="url(#clip082)" cx="1052.72" cy="413.881" r="10.8" fill="#dd64b5" fill-rule="evenodd" fill-opacity="0.95" stroke="#000000" stroke-opacity="0.95" stroke-width="2.24"/>
<circle clip-path="url(#clip082)" cx="1089.91" cy="349.626" r="10.8" fill="#dd64b5" fill-rule="evenodd" fill-opacity="0.95" stroke="#000000" stroke-opacity="0.95" stroke-width="2.24"/>
<circle clip-path="url(#clip082)" cx="1127.1" cy="480.786" r="10.8" fill="#dd64b5" fill-rule="evenodd" fill-opacity="0.95" stroke="#000000" stroke-opacity="0.95" stroke-width="2.24"/>
<polyline clip-path="url(#clip082)" style="stroke:#ffa500; stroke-linecap:round; stroke-linejoin:round; stroke-width:8; stroke-opacity:1; fill:none" stroke-dasharray="32, 20" points="271.739,634.506 308.929,686.567 346.118,672.223 383.308,656.777 420.497,706.771 457.686,810.364 494.876,708.172 532.065,659.833 569.254,598.195 606.444,632.47 643.633,673.511 680.823,597.309 718.012,560.833 755.201,654.674 792.391,649.571 829.58,588.41 866.77,679.561 903.959,663.41 941.148,656.318 978.338,672.394 1015.53,500.58 1052.72,640.146 1089.91,624.28 1127.1,698.294 "/>
<circle clip-path="url(#clip082)" cx="271.739" cy="634.506" r="10.8" fill="#6b9e32" fill-rule="evenodd" fill-opacity="0.95" stroke="#000000" stroke-opacity="0.95" stroke-width="2.24"/>
<circle clip-path="url(#clip082)" cx="308.929" cy="686.567" r="10.8" fill="#6b9e32" fill-rule="evenodd" fill-opacity="0.95" stroke="#000000" stroke-opacity="0.95" stroke-width="2.24"/>
<circle clip-path="url(#clip082)" cx="346.118" cy="672.223" r="10.8" fill="#6b9e32" fill-rule="evenodd" fill-opacity="0.95" stroke="#000000" stroke-opacity="0.95" stroke-width="2.24"/>
<circle clip-path="url(#clip082)" cx="383.308" cy="656.777" r="10.8" fill="#6b9e32" fill-rule="evenodd" fill-opacity="0.95" stroke="#000000" stroke-opacity="0.95" stroke-width="2.24"/>
<circle clip-path="url(#clip082)" cx="420.497" cy="706.771" r="10.8" fill="#6b9e32" fill-rule="evenodd" fill-opacity="0.95" stroke="#000000" stroke-opacity="0.95" stroke-width="2.24"/>
<circle clip-path="url(#clip082)" cx="457.686" cy="810.364" r="10.8" fill="#6b9e32" fill-rule="evenodd" fill-opacity="0.95" stroke="#000000" stroke-opacity="0.95" stroke-width="2.24"/>
<circle clip-path="url(#clip082)" cx="494.876" cy="708.172" r="10.8" fill="#6b9e32" fill-rule="evenodd" fill-opacity="0.95" stroke="#000000" stroke-opacity="0.95" stroke-width="2.24"/>
<circle clip-path="url(#clip082)" cx="532.065" cy="659.833" r="10.8" fill="#6b9e32" fill-rule="evenodd" fill-opacity="0.95" stroke="#000000" stroke-opacity="0.95" stroke-width="2.24"/>
<circle clip-path="url(#clip082)" cx="569.254" cy="598.195" r="10.8" fill="#6b9e32" fill-rule="evenodd" fill-opacity="0.95" stroke="#000000" stroke-opacity="0.95" stroke-width="2.24"/>
<circle clip-path="url(#clip082)" cx="606.444" cy="632.47" r="10.8" fill="#6b9e32" fill-rule="evenodd" fill-opacity="0.95" stroke="#000000" stroke-opacity="0.95" stroke-width="2.24"/>
<circle clip-path="url(#clip082)" cx="643.633" cy="673.511" r="10.8" fill="#6b9e32" fill-rule="evenodd" fill-opacity="0.95" stroke="#000000" stroke-opacity="0.95" stroke-width="2.24"/>
<circle clip-path="url(#clip082)" cx="680.823" cy="597.309" r="10.8" fill="#6b9e32" fill-rule="evenodd" fill-opacity="0.95" stroke="#000000" stroke-opacity="0.95" stroke-width="2.24"/>
<circle clip-path="url(#clip082)" cx="718.012" cy="560.833" r="10.8" fill="#6b9e32" fill-rule="evenodd" fill-opacity="0.95" stroke="#000000" stroke-opacity="0.95" stroke-width="2.24"/>
<circle clip-path="url(#clip082)" cx="755.201" cy="654.674" r="10.8" fill="#6b9e32" fill-rule="evenodd" fill-opacity="0.95" stroke="#000000" stroke-opacity="0.95" stroke-width="2.24"/>
<circle clip-path="url(#clip082)" cx="792.391" cy="649.571" r="10.8" fill="#6b9e32" fill-rule="evenodd" fill-opacity="0.95" stroke="#000000" stroke-opacity="0.95" stroke-width="2.24"/>
<circle clip-path="url(#clip082)" cx="829.58" cy="588.41" r="10.8" fill="#6b9e32" fill-rule="evenodd" fill-opacity="0.95" stroke="#000000" stroke-opacity="0.95" stroke-width="2.24"/>
<circle clip-path="url(#clip082)" cx="866.77" cy="679.561" r="10.8" fill="#6b9e32" fill-rule="evenodd" fill-opacity="0.95" stroke="#000000" stroke-opacity="0.95" stroke-width="2.24"/>
<circle clip-path="url(#clip082)" cx="903.959" cy="663.41" r="10.8" fill="#6b9e32" fill-rule="evenodd" fill-opacity="0.95" stroke="#000000" stroke-opacity="0.95" stroke-width="2.24"/>
<circle clip-path="url(#clip082)" cx="941.148" cy="656.318" r="10.8" fill="#6b9e32" fill-rule="evenodd" fill-opacity="0.95" stroke="#000000" stroke-opacity="0.95" stroke-width="2.24"/>
<circle clip-path="url(#clip082)" cx="978.338" cy="672.394" r="10.8" fill="#6b9e32" fill-rule="evenodd" fill-opacity="0.95" stroke="#000000" stroke-opacity="0.95" stroke-width="2.24"/>
<circle clip-path="url(#clip082)" cx="1015.53" cy="500.58" r="10.8" fill="#6b9e32" fill-rule="evenodd" fill-opacity="0.95" stroke="#000000" stroke-opacity="0.95" stroke-width="2.24"/>
<circle clip-path="url(#clip082)" cx="1052.72" cy="640.146" r="10.8" fill="#6b9e32" fill-rule="evenodd" fill-opacity="0.95" stroke="#000000" stroke-opacity="0.95" stroke-width="2.24"/>
<circle clip-path="url(#clip082)" cx="1089.91" cy="624.28" r="10.8" fill="#6b9e32" fill-rule="evenodd" fill-opacity="0.95" stroke="#000000" stroke-opacity="0.95" stroke-width="2.24"/>
<circle clip-path="url(#clip082)" cx="1127.1" cy="698.294" r="10.8" fill="#6b9e32" fill-rule="evenodd" fill-opacity="0.95" stroke="#000000" stroke-opacity="0.95" stroke-width="2.24"/>
<path clip-path="url(#clip082)" d="M271.739 368.681 L308.929 461.888 L346.118 463.676 L383.308 500.457 L420.497 487.141 L457.686 687.466 L494.876 491.922 L532.065 461.409 L569.254 390.235 L606.444 381.561 L643.633 496.413 L680.823 491.32 L718.012 440.932 L755.201 433.787 L792.391 379.333 L829.58 380.538 L866.77 415.168 L903.959 446.867 L941.148 513.649 L978.338 482.211 L1015.53 316.042 L1052.72 413.881 L1089.91 349.626 L1127.1 480.786 L1127.1 698.294 L1089.91 624.28 L1052.72 640.146 L1015.53 500.58 L978.338 672.394 L941.148 656.318 L903.959 663.41 L866.77 679.561 L829.58 588.41 L792.391 649.571 L755.201 654.674 L718.012 560.833 L680.823 597.309 L643.633 673.511 L606.444 632.47 L569.254 598.195 L532.065 659.833 L494.876 708.172 L457.686 810.364 L420.497 706.771 L383.308 656.777 L346.118 672.223 L308.929 686.567 L271.739 634.506  Z" fill="#009af9" fill-rule="evenodd" fill-opacity="0.15"/>
<polyline clip-path="url(#clip082)" style="stroke:#009af9; stroke-linecap:round; stroke-linejoin:round; stroke-width:4; stroke-opacity:1; fill:none" points="271.739,368.681 308.929,461.888 346.118,463.676 383.308,500.457 420.497,487.141 457.686,687.466 494.876,491.922 532.065,461.409 569.254,390.235 606.444,381.561 643.633,496.413 680.823,491.32 718.012,440.932 755.201,433.787 792.391,379.333 829.58,380.538 866.77,415.168 903.959,446.867 941.148,513.649 978.338,482.211 1015.53,316.042 1052.72,413.881 1089.91,349.626 1127.1,480.786 "/>
</svg>
