<?xml version="1.0" encoding="utf-8"?>
<svg xmlns="http://www.w3.org/2000/svg" xmlns:xlink="http://www.w3.org/1999/xlink" width="300" height="300" viewBox="0 0 1200 1200">
<defs>
  <clipPath id="clip850">
    <rect x="0" y="0" width="1200" height="1200"/>
  </clipPath>
</defs>
<path clip-path="url(#clip850)" d="M0 1200 L1200 1200 L1200 0 L0 0  Z" fill="#ffffff" fill-rule="evenodd" fill-opacity="1"/>
<defs>
  <clipPath id="clip851">
    <rect x="240" y="119" width="841" height="841"/>
  </clipPath>
</defs>
<path clip-path="url(#clip850)" d="M249.208 994.16 L1152.76 994.16 L1152.76 47.2441 L249.208 47.2441  Z" fill="#ffffff" fill-rule="evenodd" fill-opacity="1"/>
<defs>
  <clipPath id="clip852">
    <rect x="249" y="47" width="905" height="948"/>
  </clipPath>
</defs>
<polyline clip-path="url(#clip852)" style="stroke:#808080; stroke-linecap:round; stroke-linejoin:round; stroke-width:4; stroke-opacity:0.1; fill:none" points="237.719,994.16 237.719,47.2441 "/>
<polyline clip-path="url(#clip852)" style="stroke:#808080; stroke-linecap:round; stroke-linejoin:round; stroke-width:4; stroke-opacity:0.1; fill:none" points="423.025,994.16 423.025,47.2441 "/>
<polyline clip-path="url(#clip852)" style="stroke:#808080; stroke-linecap:round; stroke-linejoin:round; stroke-width:4; stroke-opacity:0.1; fill:none" points="608.33,994.16 608.33,47.2441 "/>
<polyline clip-path="url(#clip852)" style="stroke:#808080; stroke-linecap:round; stroke-linejoin:round; stroke-width:4; stroke-opacity:0.1; fill:none" points="793.635,994.16 793.635,47.2441 "/>
<polyline clip-path="url(#clip852)" style="stroke:#808080; stroke-linecap:round; stroke-linejoin:round; stroke-width:4; stroke-opacity:0.1; fill:none" points="978.94,994.16 978.94,47.2441 "/>
<polyline clip-path="url(#clip852)" style="stroke:#808080; stroke-linecap:round; stroke-linejoin:round; stroke-width:4; stroke-opacity:0.1; fill:none" points="1164.24,994.16 1164.24,47.2441 "/>
<polyline clip-path="url(#clip852)" style="stroke:#808080; stroke-linecap:round; stroke-linejoin:round; stroke-width:4; stroke-opacity:0.1; fill:none" points="237.719,994.16 237.719,47.2441 "/>
<polyline clip-path="url(#clip852)" style="stroke:#808080; stroke-linecap:round; stroke-linejoin:round; stroke-width:4; stroke-opacity:0.1; fill:none" points="423.025,994.16 423.025,47.2441 "/>
<polyline clip-path="url(#clip852)" style="stroke:#808080; stroke-linecap:round; stroke-linejoin:round; stroke-width:4; stroke-opacity:0.1; fill:none" points="608.33,994.16 608.33,47.2441 "/>
<polyline clip-path="url(#clip852)" style="stroke:#808080; stroke-linecap:round; stroke-linejoin:round; stroke-width:4; stroke-opacity:0.1; fill:none" points="793.635,994.16 793.635,47.2441 "/>
<polyline clip-path="url(#clip852)" style="stroke:#808080; stroke-linecap:round; stroke-linejoin:round; stroke-width:4; stroke-opacity:0.1; fill:none" points="978.94,994.16 978.94,47.2441 "/>
<polyline clip-path="url(#clip852)" style="stroke:#808080; stroke-linecap:round; stroke-linejoin:round; stroke-width:4; stroke-opacity:0.1; fill:none" points="1164.24,994.16 1164.24,47.2441 "/>
<polyline clip-path="url(#clip852)" style="stroke:#808080; stroke-linecap:round; stroke-linejoin:round; stroke-width:4; stroke-opacity:0.1; fill:none" points="249.208,892.705 1152.76,892.705 "/>
<polyline clip-path="url(#clip852)" style="stroke:#808080; stroke-linecap:round; stroke-linejoin:round; stroke-width:4; stroke-opacity:0.1; fill:none" points="249.208,723.613 1152.76,723.613 "/>
<polyline clip-path="url(#clip852)" style="stroke:#808080; stroke-linecap:round; stroke-linejoin:round; stroke-width:4; stroke-opacity:0.1; fill:none" points="249.208,554.521 1152.76,554.521 "/>
<polyline clip-path="url(#clip852)" style="stroke:#808080; stroke-linecap:round; stroke-linejoin:round; stroke-width:4; stroke-opacity:0.1; fill:none" points="249.208,385.428 1152.76,385.428 "/>
<polyline clip-path="url(#clip852)" style="stroke:#808080; stroke-linecap:round; stroke-linejoin:round; stroke-width:4; stroke-opacity:0.1; fill:none" points="249.208,216.336 1152.76,216.336 "/>
<polyline clip-path="url(#clip852)" style="stroke:#808080; stroke-linecap:round; stroke-linejoin:round; stroke-width:4; stroke-opacity:0.1; fill:none" points="249.208,892.705 1152.76,892.705 "/>
<polyline clip-path="url(#clip852)" style="stroke:#808080; stroke-linecap:round; stroke-linejoin:round; stroke-width:4; stroke-opacity:0.1; fill:none" points="249.208,723.613 1152.76,723.613 "/>
<polyline clip-path="url(#clip852)" style="stroke:#808080; stroke-linecap:round; stroke-linejoin:round; stroke-width:4; stroke-opacity:0.1; fill:none" points="249.208,554.521 1152.76,554.521 "/>
<polyline clip-path="url(#clip852)" style="stroke:#808080; stroke-linecap:round; stroke-linejoin:round; stroke-width:4; stroke-opacity:0.1; fill:none" points="249.208,385.428 1152.76,385.428 "/>
<polyline clip-path="url(#clip852)" style="stroke:#808080; stroke-linecap:round; stroke-linejoin:round; stroke-width:4; stroke-opacity:0.1; fill:none" points="249.208,216.336 1152.76,216.336 "/>
<polyline clip-path="url(#clip850)" style="stroke:#000000; stroke-linecap:round; stroke-linejoin:round; stroke-width:4; stroke-opacity:1; fill:none" points="249.208,994.16 1152.76,994.16 "/>
<polyline clip-path="url(#clip850)" style="stroke:#000000; stroke-linecap:round; stroke-linejoin:round; stroke-width:4; stroke-opacity:1; fill:none" points="249.208,47.2441 1152.76,47.2441 "/>
<polyline clip-path="url(#clip850)" style="stroke:#000000; stroke-linecap:round; stroke-linejoin:round; stroke-width:4; stroke-opacity:1; fill:none" points="237.719,994.16 237.719,975.262 "/>
<polyline clip-path="url(#clip850)" style="stroke:#000000; stroke-linecap:round; stroke-linejoin:round; stroke-width:4; stroke-opacity:1; fill:none" points="423.025,994.16 423.025,975.262 "/>
<polyline clip-path="url(#clip850)" style="stroke:#000000; stroke-linecap:round; stroke-linejoin:round; stroke-width:4; stroke-opacity:1; fill:none" points="608.33,994.16 608.33,975.262 "/>
<polyline clip-path="url(#clip850)" style="stroke:#000000; stroke-linecap:round; stroke-linejoin:round; stroke-width:4; stroke-opacity:1; fill:none" points="793.635,994.16 793.635,975.262 "/>
<polyline clip-path="url(#clip850)" style="stroke:#000000; stroke-linecap:round; stroke-linejoin:round; stroke-width:4; stroke-opacity:1; fill:none" points="978.94,994.16 978.94,975.262 "/>
<polyline clip-path="url(#clip850)" style="stroke:#000000; stroke-linecap:round; stroke-linejoin:round; stroke-width:4; stroke-opacity:1; fill:none" points="1164.24,994.16 1164.24,975.262 "/>
<polyline clip-path="url(#clip850)" style="stroke:#000000; stroke-linecap:round; stroke-linejoin:round; stroke-width:4; stroke-opacity:1; fill:none" points="237.719,47.2441 237.719,66.1417 "/>
<polyline clip-path="url(#clip850)" style="stroke:#000000; stroke-linecap:round; stroke-linejoin:round; stroke-width:4; stroke-opacity:1; fill:none" points="423.025,47.2441 423.025,66.1417 "/>
<polyline clip-path="url(#clip850)" style="stroke:#000000; stroke-linecap:round; stroke-linejoin:round; stroke-width:4; stroke-opacity:1; fill:none" points="608.33,47.2441 608.33,66.1417 "/>
<polyline clip-path="url(#clip850)" style="stroke:#000000; stroke-linecap:round; stroke-linejoin:round; stroke-width:4; stroke-opacity:1; fill:none" points="793.635,47.2441 793.635,66.1417 "/>
<polyline clip-path="url(#clip850)" style="stroke:#000000; stroke-linecap:round; stroke-linejoin:round; stroke-width:4; stroke-opacity:1; fill:none" points="978.94,47.2441 978.94,66.1417 "/>
<polyline clip-path="url(#clip850)" style="stroke:#000000; stroke-linecap:round; stroke-linejoin:round; stroke-width:4; stroke-opacity:1; fill:none" points="1164.24,47.2441 1164.24,66.1417 "/>
<g clip-path="url(#clip850)">
<text style="fill:#000000; fill-opacity:1; font-family:Arial,Helvetica Neue,Helvetica,sans-serif; font-size:48px; text-anchor:middle;" transform="rotate(0, 237.719, 1046.41)" x="237.719" y="1046.41">0</text>
</g>
<g clip-path="url(#clip850)">
<text style="fill:#000000; fill-opacity:1; font-family:Arial,Helvetica Neue,Helvetica,sans-serif; font-size:48px; text-anchor:middle;" transform="rotate(0, 423.025, 1046.41)" x="423.025" y="1046.41">5</text>
</g>
<g clip-path="url(#clip850)">
<text style="fill:#000000; fill-opacity:1; font-family:Arial,Helvetica Neue,Helvetica,sans-serif; font-size:48px; text-anchor:middle;" transform="rotate(0, 608.33, 1046.41)" x="608.33" y="1046.41">10</text>
</g>
<g clip-path="url(#clip850)">
<text style="fill:#000000; fill-opacity:1; font-family:Arial,Helvetica Neue,Helvetica,sans-serif; font-size:48px; text-anchor:middle;" transform="rotate(0, 793.635, 1046.41)" x="793.635" y="1046.41">15</text>
</g>
<g clip-path="url(#clip850)">
<text style="fill:#000000; fill-opacity:1; font-family:Arial,Helvetica Neue,Helvetica,sans-serif; font-size:48px; text-anchor:middle;" transform="rotate(0, 978.94, 1046.41)" x="978.94" y="1046.41">20</text>
</g>
<g clip-path="url(#clip850)">
<text style="fill:#000000; fill-opacity:1; font-family:Arial,Helvetica Neue,Helvetica,sans-serif; font-size:48px; text-anchor:middle;" transform="rotate(0, 1164.24, 1046.41)" x="1164.24" y="1046.41">25</text>
</g>
<path clip-path="url(#clip850)" d="M654.339 1072.69 L654.339 1081.89 L665.305 1081.89 L665.305 1086.03 L654.339 1086.03 L654.339 1103.62 Q654.339 1107.59 655.409 1108.72 Q656.509 1109.84 659.837 1109.84 L665.305 1109.84 L665.305 1114.3 L659.837 1114.3 Q653.673 1114.3 651.33 1112.01 Q648.986 1109.7 648.986 1103.62 L648.986 1086.03 L645.08 1086.03 L645.08 1081.89 L648.986 1081.89 L648.986 1072.69 L654.339 1072.69 Z" fill="#000000" fill-rule="nonzero" fill-opacity="1" /><path clip-path="url(#clip850)" d="M700.606 1071.1 L705.525 1071.1 L690.479 1119.8 L685.56 1119.8 L700.606 1071.1 Z" fill="#000000" fill-rule="nonzero" fill-opacity="1" /><path clip-path="url(#clip850)" d="M756.885 1094.74 L756.885 1114.3 L751.561 1114.3 L751.561 1094.91 Q751.561 1090.31 749.767 1088.03 Q747.973 1085.74 744.385 1085.74 Q740.073 1085.74 737.585 1088.49 Q735.097 1091.24 735.097 1095.98 L735.097 1114.3 L729.744 1114.3 L729.744 1069.28 L735.097 1069.28 L735.097 1086.93 Q737.006 1084 739.581 1082.56 Q742.186 1081.11 745.571 1081.11 Q751.155 1081.11 754.02 1084.58 Q756.885 1088.03 756.885 1094.74 Z" fill="#000000" fill-rule="nonzero" fill-opacity="1" /><polyline clip-path="url(#clip850)" style="stroke:#000000; stroke-linecap:round; stroke-linejoin:round; stroke-width:4; stroke-opacity:1; fill:none" points="249.208,994.16 249.208,47.2441 "/>
<polyline clip-path="url(#clip850)" style="stroke:#000000; stroke-linecap:round; stroke-linejoin:round; stroke-width:4; stroke-opacity:1; fill:none" points="1152.76,994.16 1152.76,47.2441 "/>
<polyline clip-path="url(#clip850)" style="stroke:#000000; stroke-linecap:round; stroke-linejoin:round; stroke-width:4; stroke-opacity:1; fill:none" points="249.208,892.705 268.106,892.705 "/>
<polyline clip-path="url(#clip850)" style="stroke:#000000; stroke-linecap:round; stroke-linejoin:round; stroke-width:4; stroke-opacity:1; fill:none" points="249.208,723.613 268.106,723.613 "/>
<polyline clip-path="url(#clip850)" style="stroke:#000000; stroke-linecap:round; stroke-linejoin:round; stroke-width:4; stroke-opacity:1; fill:none" points="249.208,554.521 268.106,554.521 "/>
<polyline clip-path="url(#clip850)" style="stroke:#000000; stroke-linecap:round; stroke-linejoin:round; stroke-width:4; stroke-opacity:1; fill:none" points="249.208,385.428 268.106,385.428 "/>
<polyline clip-path="url(#clip850)" style="stroke:#000000; stroke-linecap:round; stroke-linejoin:round; stroke-width:4; stroke-opacity:1; fill:none" points="249.208,216.336 268.106,216.336 "/>
<polyline clip-path="url(#clip850)" style="stroke:#000000; stroke-linecap:round; stroke-linejoin:round; stroke-width:4; stroke-opacity:1; fill:none" points="1152.76,892.705 1133.86,892.705 "/>
<polyline clip-path="url(#clip850)" style="stroke:#000000; stroke-linecap:round; stroke-linejoin:round; stroke-width:4; stroke-opacity:1; fill:none" points="1152.76,723.613 1133.86,723.613 "/>
<polyline clip-path="url(#clip850)" style="stroke:#000000; stroke-linecap:round; stroke-linejoin:round; stroke-width:4; stroke-opacity:1; fill:none" points="1152.76,554.521 1133.86,554.521 "/>
<polyline clip-path="url(#clip850)" style="stroke:#000000; stroke-linecap:round; stroke-linejoin:round; stroke-width:4; stroke-opacity:1; fill:none" points="1152.76,385.428 1133.86,385.428 "/>
<polyline clip-path="url(#clip850)" style="stroke:#000000; stroke-linecap:round; stroke-linejoin:round; stroke-width:4; stroke-opacity:1; fill:none" points="1152.76,216.336 1133.86,216.336 "/>
<g clip-path="url(#clip850)">
<text style="fill:#000000; fill-opacity:1; font-family:Arial,Helvetica Neue,Helvetica,sans-serif; font-size:48px; text-anchor:middle;" transform="rotate(0, 184.374, 910.205)" x="184.374" y="910.205">0.35</text>
</g>
<g clip-path="url(#clip850)">
<text style="fill:#000000; fill-opacity:1; font-family:Arial,Helvetica Neue,Helvetica,sans-serif; font-size:48px; text-anchor:middle;" transform="rotate(0, 184.374, 741.113)" x="184.374" y="741.113">0.40</text>
</g>
<g clip-path="url(#clip850)">
<text style="fill:#000000; fill-opacity:1; font-family:Arial,Helvetica Neue,Helvetica,sans-serif; font-size:48px; text-anchor:middle;" transform="rotate(0, 184.374, 572.021)" x="184.374" y="572.021">0.45</text>
</g>
<g clip-path="url(#clip850)">
<text style="fill:#000000; fill-opacity:1; font-family:Arial,Helvetica Neue,Helvetica,sans-serif; font-size:48px; text-anchor:middle;" transform="rotate(0, 184.374, 402.928)" x="184.374" y="402.928">0.50</text>
</g>
<g clip-path="url(#clip850)">
<text style="fill:#000000; fill-opacity:1; font-family:Arial,Helvetica Neue,Helvetica,sans-serif; font-size:48px; text-anchor:middle;" transform="rotate(0, 184.374, 233.836)" x="184.374" y="233.836">0.55</text>
</g>
<path clip-path="url(#clip850)" d="M67.3443 683.982 Q67.3443 690.348 72.0896 694.11 Q76.8349 697.842 85.0236 697.842 Q93.1832 697.842 97.9286 694.11 Q102.674 690.348 102.674 683.982 Q102.674 677.617 97.9286 673.913 Q93.1832 670.18 85.0236 670.18 Q76.8349 670.18 72.0896 673.913 Q67.3443 677.617 67.3443 683.982 M62.5989 683.982 Q62.5989 674.897 68.7042 669.457 Q74.7806 664.017 85.0236 664.017 Q95.2376 664.017 101.343 669.457 Q107.419 674.897 107.419 683.982 Q107.419 693.097 101.343 698.566 Q95.2666 704.006 85.0236 704.006 Q74.7806 704.006 68.7042 698.566 Q62.5989 693.097 62.5989 683.982 Z" fill="#000000" fill-rule="nonzero" fill-opacity="1" /><path clip-path="url(#clip850)" d="M93.7909 655.655 L74.1729 655.655 L74.1729 650.331 L93.5883 650.331 Q98.189 650.331 100.504 648.537 Q102.79 646.743 102.79 643.155 Q102.79 638.844 100.041 636.355 Q97.292 633.838 92.5467 633.838 L74.1729 633.838 L74.1729 628.514 L106.58 628.514 L106.58 633.838 L101.603 633.838 Q104.555 635.777 106.001 638.352 Q107.419 640.898 107.419 644.284 Q107.419 649.868 103.947 652.762 Q100.475 655.655 93.7909 655.655 M73.3917 642.258 L73.3917 642.258 Z" fill="#000000" fill-rule="nonzero" fill-opacity="1" /><path clip-path="url(#clip850)" d="M64.9716 612.281 L74.1729 612.281 L74.1729 601.315 L78.3106 601.315 L78.3106 612.281 L95.9031 612.281 Q99.8672 612.281 100.996 611.211 Q102.124 610.111 102.124 606.784 L102.124 601.315 L106.58 601.315 L106.58 606.784 Q106.58 612.947 104.294 615.291 Q101.979 617.634 95.9031 617.634 L78.3106 617.634 L78.3106 621.541 L74.1729 621.541 L74.1729 617.634 L64.9716 617.634 L64.9716 612.281 Z" fill="#000000" fill-rule="nonzero" fill-opacity="1" /><path clip-path="url(#clip850)" d="M101.719 589.162 L118.906 589.162 L118.906 594.515 L74.1729 594.515 L74.1729 589.162 L79.0919 589.162 Q76.1984 587.484 74.8095 584.938 Q73.3917 582.363 73.3917 578.804 Q73.3917 572.901 78.0792 569.226 Q82.7666 565.522 90.4055 565.522 Q98.0443 565.522 102.732 569.226 Q107.419 572.901 107.419 578.804 Q107.419 582.363 106.03 584.938 Q104.613 587.484 101.719 589.162 M90.4055 571.049 Q84.5317 571.049 81.2041 573.48 Q77.8477 575.881 77.8477 580.106 Q77.8477 584.33 81.2041 586.761 Q84.5317 589.162 90.4055 589.162 Q96.2793 589.162 99.6358 586.761 Q102.963 584.33 102.963 580.106 Q102.963 575.881 99.6358 573.48 Q96.2793 571.049 90.4055 571.049 Z" fill="#000000" fill-rule="nonzero" fill-opacity="1" /><path clip-path="url(#clip850)" d="M93.7909 557.247 L74.1729 557.247 L74.1729 551.923 L93.5883 551.923 Q98.189 551.923 100.504 550.129 Q102.79 548.335 102.79 544.747 Q102.79 540.436 100.041 537.947 Q97.292 535.43 92.5467 535.43 L74.1729 535.43 L74.1729 530.106 L106.58 530.106 L106.58 535.43 L101.603 535.43 Q104.555 537.369 106.001 539.944 Q107.419 542.49 107.419 545.876 Q107.419 551.46 103.947 554.354 Q100.475 557.247 93.7909 557.247 M73.3917 543.85 L73.3917 543.85 Z" fill="#000000" fill-rule="nonzero" fill-opacity="1" /><path clip-path="url(#clip850)" d="M64.9716 513.873 L74.1729 513.873 L74.1729 502.907 L78.3106 502.907 L78.3106 513.873 L95.9031 513.873 Q99.8672 513.873 100.996 512.803 Q102.124 511.703 102.124 508.376 L102.124 502.907 L106.58 502.907 L106.58 508.376 Q106.58 514.539 104.294 516.883 Q101.979 519.226 95.9031 519.226 L78.3106 519.226 L78.3106 523.133 L74.1729 523.133 L74.1729 519.226 L64.9716 519.226 L64.9716 513.873 Z" fill="#000000" fill-rule="nonzero" fill-opacity="1" /><path clip-path="url(#clip850)" d="M63.3802 467.606 L63.3802 462.687 L112.078 477.734 L112.078 482.653 L63.3802 467.606 Z" fill="#000000" fill-rule="nonzero" fill-opacity="1" /><path clip-path="url(#clip850)" d="M101.719 433.116 L118.906 433.116 L118.906 438.469 L74.1729 438.469 L74.1729 433.116 L79.0919 433.116 Q76.1984 431.438 74.8095 428.891 Q73.3917 426.316 73.3917 422.757 Q73.3917 416.854 78.0792 413.18 Q82.7666 409.476 90.4055 409.476 Q98.0443 409.476 102.732 413.18 Q107.419 416.854 107.419 422.757 Q107.419 426.316 106.03 428.891 Q104.613 431.438 101.719 433.116 M90.4055 415.002 Q84.5317 415.002 81.2041 417.433 Q77.8477 419.835 77.8477 424.059 Q77.8477 428.284 81.2041 430.714 Q84.5317 433.116 90.4055 433.116 Q96.2793 433.116 99.6358 430.714 Q102.963 428.284 102.963 424.059 Q102.963 419.835 99.6358 417.433 Q96.2793 415.002 90.4055 415.002 Z" fill="#000000" fill-rule="nonzero" fill-opacity="1" /><path clip-path="url(#clip850)" d="M99.2307 399.898 L99.2307 393.793 L106.58 393.793 L106.58 399.898 L99.2307 399.898 Z" fill="#000000" fill-rule="nonzero" fill-opacity="1" /><path clip-path="url(#clip850)" d="M93.7909 382.364 L74.1729 382.364 L74.1729 377.04 L93.5883 377.04 Q98.189 377.04 100.504 375.246 Q102.79 373.452 102.79 369.864 Q102.79 365.552 100.041 363.064 Q97.292 360.547 92.5467 360.547 L74.1729 360.547 L74.1729 355.223 L106.58 355.223 L106.58 360.547 L101.603 360.547 Q104.555 362.485 106.001 365.061 Q107.419 367.607 107.419 370.992 Q107.419 376.577 103.947 379.47 Q100.475 382.364 93.7909 382.364 M73.3917 368.967 L73.3917 368.967 Z" fill="#000000" fill-rule="nonzero" fill-opacity="1" /><path clip-path="url(#clip850)" d="M99.2307 343.504 L99.2307 337.399 L106.58 337.399 L106.58 343.504 L99.2307 343.504 Z" fill="#000000" fill-rule="nonzero" fill-opacity="1" /><polyline clip-path="url(#clip852)" style="stroke:#ea801c; stroke-linecap:round; stroke-linejoin:round; stroke-width:4.2; stroke-opacity:0.75; fill:none" stroke-dasharray="2, 4" points="274.78,596.664 311.841,564.323 348.902,651.36 385.963,603.042 423.025,695.905 460.086,848.012 497.147,651.231 534.208,649.814 571.269,548.808 608.33,619.136 645.391,601.498 682.452,600.841 719.513,502.794 756.574,637.091 793.635,513.347 830.696,556.369 867.757,593.625 904.818,623.602 941.879,601.793 978.94,565.364 1016,394.549 1053.06,541.178 1090.12,489.374 1127.18,611.128 "/>
<polyline clip-path="url(#clip852)" style="stroke:#ea801c; stroke-linecap:round; stroke-linejoin:round; stroke-width:4.2; stroke-opacity:0.75; fill:none" stroke-dasharray="2, 4" points="274.78,623.845 311.841,575.798 348.902,594.961 385.963,602.071 423.025,706.624 460.086,768.581 497.147,683.366 534.208,629.773 571.269,461.998 608.33,635.069 645.391,667.144 682.452,573.404 719.513,540.368 756.574,686.003 793.635,619.885 830.696,546.824 867.757,589.821 904.818,693.083 941.879,667.026 978.94,595.471 1016,485.606 1053.06,512.868 1090.12,473.303 1127.18,640.281 "/>
<polyline clip-path="url(#clip852)" style="stroke:#ea801c; stroke-linecap:round; stroke-linejoin:round; stroke-width:4.2; stroke-opacity:0.75; fill:none" stroke-dasharray="2, 4" points="274.78,582.168 311.841,565.485 348.902,544.208 385.963,610.091 423.025,663.81 460.086,747.183 497.147,647.998 534.208,599.452 571.269,571.194 608.33,583.505 645.391,601.591 682.452,611.981 719.513,477.654 756.574,610.713 793.635,540.969 830.696,556.325 867.757,634.578 904.818,607.891 941.879,623.82 978.94,644.105 1016,438.954 1053.06,667.172 1090.12,599.028 1127.18,630.811 "/>
<polyline clip-path="url(#clip852)" style="stroke:#ea801c; stroke-linecap:round; stroke-linejoin:round; stroke-width:4.2; stroke-opacity:0.75; fill:none" stroke-dasharray="2, 4" points="274.78,653.969 311.841,677.173 348.902,603.434 385.963,642.826 423.025,677.717 460.086,762.982 497.147,632.292 534.208,653.586 571.269,564.734 608.33,581.507 645.391,538.31 682.452,538.543 719.513,496.424 756.574,681.632 793.635,416.026 830.696,574.075 867.757,618.538 904.818,593.401 941.879,649.817 978.94,640.16 1016,401.738 1053.06,609.095 1090.12,436.103 1127.18,627.734 "/>
<polyline clip-path="url(#clip852)" style="stroke:#ea801c; stroke-linecap:round; stroke-linejoin:round; stroke-width:4.2; stroke-opacity:0.75; fill:none" stroke-dasharray="2, 4" points="274.78,584.46 311.841,568.85 348.902,641.108 385.963,660.107 423.025,691.058 460.086,835.043 497.147,609.202 534.208,658.828 571.269,512.867 608.33,508.614 645.391,731.926 682.452,584.159 719.513,539.824 756.574,506.379 793.635,471.087 830.696,543.966 867.757,645.919 904.818,678.521 941.879,628.69 978.94,624.291 1016,473.258 1053.06,645.189 1090.12,678.103 1127.18,730.047 "/>
<polyline clip-path="url(#clip852)" style="stroke:#ea801c; stroke-linecap:round; stroke-linejoin:round; stroke-width:4.2; stroke-opacity:0.75; fill:none" stroke-dasharray="2, 4" points="274.78,622.616 311.841,505.945 348.902,606.886 385.963,620.959 423.025,610.255 460.086,881.544 497.147,703.774 534.208,500.041 571.269,565.209 608.33,518.03 645.391,583.84 682.452,648.617 719.513,528.518 756.574,569.251 793.635,505.451 830.696,442.147 867.757,590.776 904.818,697.077 941.879,631.472 978.94,615.571 1016,424.135 1053.06,695.449 1090.12,465.972 1127.18,544.691 "/>
<polyline clip-path="url(#clip852)" style="stroke:#ea801c; stroke-linecap:round; stroke-linejoin:round; stroke-width:4.2; stroke-opacity:0.75; fill:none" stroke-dasharray="2, 4" points="274.78,631.038 311.841,627.249 348.902,569.881 385.963,713.631 423.025,700.679 460.086,766.998 497.147,682.092 534.208,622.985 571.269,549.416 608.33,556.303 645.391,586.337 682.452,634.077 719.513,562.441 756.574,549.023 793.635,705.753 830.696,573.49 867.757,616.793 904.818,720.883 941.879,643.09 978.94,656.92 1016,460.64 1053.06,548.99 1090.12,565.952 1127.18,610.713 "/>
<polyline clip-path="url(#clip852)" style="stroke:#ea801c; stroke-linecap:round; stroke-linejoin:round; stroke-width:4.2; stroke-opacity:0.75; fill:none" stroke-dasharray="2, 4" points="274.78,527.274 311.841,569.685 348.902,625.228 385.963,542.731 423.025,633.175 460.086,862.8 497.147,656.72 534.208,696.252 571.269,569.46 608.33,556.681 645.391,673.268 682.452,608.89 719.513,581.165 756.574,602.413 793.635,497.674 830.696,522.776 867.757,575.599 904.818,607.437 941.879,672.943 978.94,579.51 1016,448.588 1053.06,529.051 1090.12,576.715 1127.18,631.126 "/>
<polyline clip-path="url(#clip852)" style="stroke:#ea801c; stroke-linecap:round; stroke-linejoin:round; stroke-width:4.2; stroke-opacity:0.75; fill:none" stroke-dasharray="2, 4" points="274.78,568.02 311.841,589.301 348.902,628.065 385.963,606.094 423.025,528.173 460.086,823.306 497.147,644.772 534.208,610.097 571.269,567.265 608.33,572.754 645.391,606.124 682.452,576.18 719.513,597.892 756.574,630.153 793.635,531.71 830.696,531.496 867.757,538.63 904.818,667.659 941.879,588.217 978.94,671.452 1016,460.232 1053.06,581.324 1090.12,582.734 1127.18,643.193 "/>
<polyline clip-path="url(#clip852)" style="stroke:#ea801c; stroke-linecap:round; stroke-linejoin:round; stroke-width:4.2; stroke-opacity:0.75; fill:none" stroke-dasharray="2, 4" points="274.78,510.292 311.841,633.337 348.902,565.148 385.963,621.662 423.025,657.976 460.086,815.524 497.147,588.601 534.208,589.718 571.269,562.372 608.33,552.189 645.391,587.559 682.452,616.767 719.513,557.904 756.574,572.631 793.635,654.364 830.696,515.744 867.757,557.028 904.818,593.25 941.879,601.905 978.94,620.326 1016,492.479 1053.06,600.475 1090.12,528.856 1127.18,641.018 "/>
<polyline clip-path="url(#clip852)" style="stroke:#ea801c; stroke-linecap:round; stroke-linejoin:round; stroke-width:4.2; stroke-opacity:0.75; fill:none" stroke-dasharray="2, 4" points="274.78,607.343 311.841,500.565 348.902,621.122 385.963,551.193 423.025,635.445 460.086,823.514 497.147,680.538 534.208,642.366 571.269,552.592 608.33,542.349 645.391,617.366 682.452,626.277 719.513,558.891 756.574,505.654 793.635,520.104 830.696,531.776 867.757,582.225 904.818,580.074 941.879,635.653 978.94,643.421 1016,423.829 1053.06,618.12 1090.12,515.545 1127.18,630.865 "/>
<polyline clip-path="url(#clip852)" style="stroke:#ea801c; stroke-linecap:round; stroke-linejoin:round; stroke-width:4.2; stroke-opacity:0.75; fill:none" stroke-dasharray="2, 4" points="274.78,636.212 311.841,655.393 348.902,633.292 385.963,632.184 423.025,674.941 460.086,836.381 497.147,662.663 534.208,716.972 571.269,554.349 608.33,556.276 645.391,591.614 682.452,606.711 719.513,565.835 756.574,576.02 793.635,444.1 830.696,509.604 867.757,615.909 904.818,548.161 941.879,557.244 978.94,687.819 1016,422.994 1053.06,620.306 1090.12,599.793 1127.18,521.225 "/>
<polyline clip-path="url(#clip852)" style="stroke:#ea801c; stroke-linecap:round; stroke-linejoin:round; stroke-width:4.2; stroke-opacity:0.75; fill:none" stroke-dasharray="2, 4" points="274.78,619.427 311.841,624.981 348.902,502.519 385.963,635.077 423.025,655.362 460.086,783.243 497.147,618.758 534.208,561.127 571.269,491.529 608.33,664.67 645.391,580.661 682.452,532.741 719.513,497.558 756.574,623.948 793.635,503.177 830.696,470.167 867.757,738.54 904.818,692.764 941.879,661.215 978.94,623.289 1016,455.665 1053.06,534.231 1090.12,570.83 1127.18,626.333 "/>
<polyline clip-path="url(#clip852)" style="stroke:#ea801c; stroke-linecap:round; stroke-linejoin:round; stroke-width:4.2; stroke-opacity:0.75; fill:none" stroke-dasharray="2, 4" points="274.78,676.347 311.841,574.096 348.902,637.133 385.963,650.308 423.025,733.442 460.086,806.674 497.147,610.285 534.208,621.229 571.269,482.51 608.33,533.637 645.391,610.526 682.452,612.063 719.513,520.928 756.574,594.489 793.635,524.28 830.696,515.819 867.757,629.068 904.818,555.404 941.879,579.802 978.94,730.705 1016,542.866 1053.06,634.293 1090.12,524.117 1127.18,648.027 "/>
<polyline clip-path="url(#clip852)" style="stroke:#ea801c; stroke-linecap:round; stroke-linejoin:round; stroke-width:4.2; stroke-opacity:0.75; fill:none" stroke-dasharray="2, 4" points="274.78,660.743 311.841,556.071 348.902,611.031 385.963,591.829 423.025,654.976 460.086,786.741 497.147,533.399 534.208,601.705 571.269,595.575 608.33,517.301 645.391,686.956 682.452,591.316 719.513,538.818 756.574,616.302 793.635,510.099 830.696,519.872 867.757,577.9 904.818,617.757 941.879,576.419 978.94,649.763 1016,468.414 1053.06,557.322 1090.12,647.647 1127.18,605.477 "/>
<polyline clip-path="url(#clip852)" style="stroke:#ea801c; stroke-linecap:round; stroke-linejoin:round; stroke-width:4.2; stroke-opacity:0.75; fill:none" stroke-dasharray="2, 4" points="274.78,574.596 311.841,613.94 348.902,580.715 385.963,560.9 423.025,654.723 460.086,798.582 497.147,621.522 534.208,600.198 571.269,422.228 608.33,500.809 645.391,615.947 682.452,565.197 719.513,599.345 756.574,564.122 793.635,497.116 830.696,589.086 867.757,719.38 904.818,563.911 941.879,665.804 978.94,636.375 1016,477.386 1053.06,534.983 1090.12,565.621 1127.18,626.594 "/>
<polyline clip-path="url(#clip852)" style="stroke:#ea801c; stroke-linecap:round; stroke-linejoin:round; stroke-width:4.2; stroke-opacity:0.75; fill:none" stroke-dasharray="2, 4" points="274.78,689.284 311.841,657.784 348.902,623.523 385.963,670.124 423.025,676.681 460.086,814.488 497.147,662.463 534.208,626.822 571.269,573.112 608.33,569.664 645.391,661.398 682.452,573.923 719.513,599.32 756.574,609.399 793.635,495.492 830.696,548.878 867.757,675.074 904.818,607.361 941.879,642.859 978.94,580.572 1016,407.859 1053.06,622.006 1090.12,600.829 1127.18,636.763 "/>
<polyline clip-path="url(#clip852)" style="stroke:#ea801c; stroke-linecap:round; stroke-linejoin:round; stroke-width:4.2; stroke-opacity:0.75; fill:none" stroke-dasharray="2, 4" points="274.78,615.97 311.841,549.108 348.902,603.549 385.963,615.18 423.025,620.814 460.086,838.323 497.147,664.603 534.208,632.66 571.269,529.414 608.33,576.559 645.391,576.676 682.452,564.249 719.513,525.586 756.574,630.627 793.635,511.741 830.696,411.626 867.757,449.486 904.818,571.017 941.879,615.019 978.94,610.54 1016,476.427 1053.06,589.637 1090.12,540.741 1127.18,759.021 "/>
<polyline clip-path="url(#clip852)" style="stroke:#ea801c; stroke-linecap:round; stroke-linejoin:round; stroke-width:4.2; stroke-opacity:0.75; fill:none" stroke-dasharray="2, 4" points="274.78,531.883 311.841,592.436 348.902,730.519 385.963,613.003 423.025,696.944 460.086,809.356 497.147,632.545 534.208,604.265 571.269,633.703 608.33,562.572 645.391,623.435 682.452,599.618 719.513,608.738 756.574,625.615 793.635,462.15 830.696,506.079 867.757,604.511 904.818,603.968 941.879,713.129 978.94,522.783 1016,514.308 1053.06,552.338 1090.12,554.643 1127.18,585.891 "/>
<polyline clip-path="url(#clip852)" style="stroke:#ea801c; stroke-linecap:round; stroke-linejoin:round; stroke-width:4.2; stroke-opacity:0.75; fill:none" stroke-dasharray="2, 4" points="274.78,598.414 311.841,567.474 348.902,596.16 385.963,638.483 423.025,667.288 460.086,871.599 497.147,691.008 534.208,550.754 571.269,559.709 608.33,564.987 645.391,641.227 682.452,598.251 719.513,549.749 756.574,569.784 793.635,519.848 830.696,519.6 867.757,585.095 904.818,637.086 941.879,610.998 978.94,642.704 1016,412.56 1053.06,502.883 1090.12,619.163 1127.18,586.576 "/>
<polyline clip-path="url(#clip852)" style="stroke:#ea801c; stroke-linecap:round; stroke-linejoin:round; stroke-width:4.2; stroke-opacity:0.75; fill:none" stroke-dasharray="2, 4" points="274.78,606.955 311.841,557.439 348.902,602.159 385.963,631.961 423.025,647.926 460.086,861.653 497.147,640.65 534.208,625.578 571.269,551.142 608.33,609.041 645.391,627.902 682.452,618.833 719.513,529.838 756.574,581.569 793.635,536.563 830.696,638.887 867.757,649.653 904.818,573.774 941.879,646.559 978.94,667.862 1016,496.774 1053.06,553.395 1090.12,562.484 1127.18,666.713 "/>
<polyline clip-path="url(#clip852)" style="stroke:#ea801c; stroke-linecap:round; stroke-linejoin:round; stroke-width:4.2; stroke-opacity:0.75; fill:none" stroke-dasharray="2, 4" points="274.78,398.663 311.841,532.069 348.902,636.1 385.963,608.791 423.025,649.729 460.086,881.486 497.147,634.634 534.208,604.831 571.269,558.07 608.33,528.738 645.391,683.252 682.452,645.196 719.513,484.497 756.574,593.453 793.635,479.426 830.696,530.542 867.757,671.617 904.818,539.547 941.879,647.472 978.94,547.439 1016,361.587 1053.06,580.02 1090.12,564.436 1127.18,630.516 "/>
<polyline clip-path="url(#clip852)" style="stroke:#ea801c; stroke-linecap:round; stroke-linejoin:round; stroke-width:4.2; stroke-opacity:0.75; fill:none" stroke-dasharray="2, 4" points="274.78,520.791 311.841,746.2 348.902,591.551 385.963,619.668 423.025,768.289 460.086,788.855 497.147,623.393 534.208,588.758 571.269,544.13 608.33,572.947 645.391,616.653 682.452,603.809 719.513,485.038 756.574,603.802 793.635,484.027 830.696,559.344 867.757,603.527 904.818,629.113 941.879,621.793 978.94,597.249 1016,480.04 1053.06,590.784 1090.12,576.356 1127.18,657.086 "/>
<polyline clip-path="url(#clip852)" style="stroke:#ea801c; stroke-linecap:round; stroke-linejoin:round; stroke-width:4.2; stroke-opacity:0.75; fill:none" stroke-dasharray="2, 4" points="274.78,613.716 311.841,545.015 348.902,600.545 385.963,617.694 423.025,666.815 460.086,854.555 497.147,647.841 534.208,582.547 571.269,468.012 608.33,687.057 645.391,596.773 682.452,646.397 719.513,530.469 756.574,649.589 793.635,516.546 830.696,539.764 867.757,575.037 904.818,632.555 941.879,599.257 978.94,650.894 1016,466.339 1053.06,539.673 1090.12,623.484 1127.18,585.22 "/>
<polyline clip-path="url(#clip852)" style="stroke:#ea801c; stroke-linecap:round; stroke-linejoin:round; stroke-width:4.2; stroke-opacity:0.75; fill:none" stroke-dasharray="2, 4" points="274.78,601.819 311.841,601.561 348.902,626.754 385.963,614.261 423.025,700.323 460.086,781.727 497.147,617.496 534.208,575.388 571.269,536.458 608.33,412.744 645.391,596.537 682.452,605.526 719.513,512.992 756.574,613.308 793.635,497.986 830.696,587.671 867.757,632.89 904.818,665.942 941.879,690.638 978.94,629.144 1016,459.025 1053.06,579.045 1090.12,581.901 1127.18,613.644 "/>
<polyline clip-path="url(#clip852)" style="stroke:#ea801c; stroke-linecap:round; stroke-linejoin:round; stroke-width:4.2; stroke-opacity:0.75; fill:none" stroke-dasharray="2, 4" points="274.78,514.421 311.841,598.752 348.902,585.137 385.963,636.033 423.025,702.709 460.086,788.339 497.147,643.151 534.208,592.472 571.269,579.451 608.33,587.242 645.391,630.945 682.452,595.884 719.513,563.776 756.574,469.842 793.635,540.381 830.696,534.543 867.757,651.57 904.818,676.952 941.879,620.642 978.94,643.104 1016,341.115 1053.06,603.8 1090.12,572.151 1127.18,577.776 "/>
<polyline clip-path="url(#clip852)" style="stroke:#ea801c; stroke-linecap:round; stroke-linejoin:round; stroke-width:4.2; stroke-opacity:0.75; fill:none" stroke-dasharray="2, 4" points="274.78,591.296 311.841,501.417 348.902,571.841 385.963,637.248 423.025,758.54 460.086,870.293 497.147,644.379 534.208,535.807 571.269,561.629 608.33,567.502 645.391,698.922 682.452,575.008 719.513,541.298 756.574,569.901 793.635,410.309 830.696,522.535 867.757,672.408 904.818,630.07 941.879,557.153 978.94,537.218 1016,448.689 1053.06,557.955 1090.12,377.831 1127.18,656.498 "/>
<polyline clip-path="url(#clip852)" style="stroke:#ea801c; stroke-linecap:round; stroke-linejoin:round; stroke-width:4.2; stroke-opacity:0.75; fill:none" stroke-dasharray="2, 4" points="274.78,616.636 311.841,589.104 348.902,623.875 385.963,711.177 423.025,661.538 460.086,851.111 497.147,686.765 534.208,590.827 571.269,595.314 608.33,565.374 645.391,656.153 682.452,610.507 719.513,600.077 756.574,633.861 793.635,545.655 830.696,519.488 867.757,609.886 904.818,653.127 941.879,644.615 978.94,627.345 1016,392.003 1053.06,565.196 1090.12,566.869 1127.18,628.207 "/>
<polyline clip-path="url(#clip852)" style="stroke:#ea801c; stroke-linecap:round; stroke-linejoin:round; stroke-width:4.2; stroke-opacity:0.75; fill:none" stroke-dasharray="2, 4" points="274.78,649.405 311.841,571.201 348.902,603.981 385.963,633.163 423.025,626.968 460.086,819.567 497.147,674.762 534.208,666.812 571.269,563.19 608.33,574.79 645.391,673.095 682.452,569.113 719.513,548.808 756.574,622.042 793.635,547.697 830.696,517.056 867.757,579.198 904.818,484.142 941.879,616.594 978.94,707.317 1016,447.32 1053.06,448.079 1090.12,547.85 1127.18,532.693 "/>
<polyline clip-path="url(#clip852)" style="stroke:#ea801c; stroke-linecap:round; stroke-linejoin:round; stroke-width:4.2; stroke-opacity:0.75; fill:none" stroke-dasharray="2, 4" points="274.78,598.853 311.841,542.885 348.902,591.656 385.963,708.314 423.025,682.392 460.086,851.785 497.147,769.82 534.208,583.932 571.269,649.585 608.33,551.27 645.391,684.509 682.452,577.273 719.513,589.701 756.574,711.332 793.635,595.198 830.696,533.974 867.757,564.896 904.818,645.563 941.879,586.345 978.94,586.125 1016,406.742 1053.06,588.008 1090.12,557.741 1127.18,631.616 "/>
<polyline clip-path="url(#clip852)" style="stroke:#a00000; stroke-linecap:round; stroke-linejoin:round; stroke-width:8; stroke-opacity:1; fill:none" stroke-dasharray="4, 8" points="274.78,398.663 311.841,500.565 348.902,502.519 385.963,542.731 423.025,528.173 460.086,747.183 497.147,533.399 534.208,500.041 571.269,422.228 608.33,412.744 645.391,538.31 682.452,532.741 719.513,477.654 756.574,469.842 793.635,410.309 830.696,411.626 867.757,449.486 904.818,484.142 941.879,557.153 978.94,522.783 1016,341.115 1053.06,448.079 1090.12,377.831 1127.18,521.225 "/>
<circle clip-path="url(#clip852)" cx="274.78" cy="398.663" r="10.8" fill="#a00000" fill-rule="evenodd" fill-opacity="1" stroke="#000000" stroke-opacity="1" stroke-width="2.4"/>
<circle clip-path="url(#clip852)" cx="311.841" cy="500.565" r="10.8" fill="#a00000" fill-rule="evenodd" fill-opacity="1" stroke="#000000" stroke-opacity="1" stroke-width="2.4"/>
<circle clip-path="url(#clip852)" cx="348.902" cy="502.519" r="10.8" fill="#a00000" fill-rule="evenodd" fill-opacity="1" stroke="#000000" stroke-opacity="1" stroke-width="2.4"/>
<circle clip-path="url(#clip852)" cx="385.963" cy="542.731" r="10.8" fill="#a00000" fill-rule="evenodd" fill-opacity="1" stroke="#000000" stroke-opacity="1" stroke-width="2.4"/>
<circle clip-path="url(#clip852)" cx="423.025" cy="528.173" r="10.8" fill="#a00000" fill-rule="evenodd" fill-opacity="1" stroke="#000000" stroke-opacity="1" stroke-width="2.4"/>
<circle clip-path="url(#clip852)" cx="460.086" cy="747.183" r="10.8" fill="#a00000" fill-rule="evenodd" fill-opacity="1" stroke="#000000" stroke-opacity="1" stroke-width="2.4"/>
<circle clip-path="url(#clip852)" cx="497.147" cy="533.399" r="10.8" fill="#a00000" fill-rule="evenodd" fill-opacity="1" stroke="#000000" stroke-opacity="1" stroke-width="2.4"/>
<circle clip-path="url(#clip852)" cx="534.208" cy="500.041" r="10.8" fill="#a00000" fill-rule="evenodd" fill-opacity="1" stroke="#000000" stroke-opacity="1" stroke-width="2.4"/>
<circle clip-path="url(#clip852)" cx="571.269" cy="422.228" r="10.8" fill="#a00000" fill-rule="evenodd" fill-opacity="1" stroke="#000000" stroke-opacity="1" stroke-width="2.4"/>
<circle clip-path="url(#clip852)" cx="608.33" cy="412.744" r="10.8" fill="#a00000" fill-rule="evenodd" fill-opacity="1" stroke="#000000" stroke-opacity="1" stroke-width="2.4"/>
<circle clip-path="url(#clip852)" cx="645.391" cy="538.31" r="10.8" fill="#a00000" fill-rule="evenodd" fill-opacity="1" stroke="#000000" stroke-opacity="1" stroke-width="2.4"/>
<circle clip-path="url(#clip852)" cx="682.452" cy="532.741" r="10.8" fill="#a00000" fill-rule="evenodd" fill-opacity="1" stroke="#000000" stroke-opacity="1" stroke-width="2.4"/>
<circle clip-path="url(#clip852)" cx="719.513" cy="477.654" r="10.8" fill="#a00000" fill-rule="evenodd" fill-opacity="1" stroke="#000000" stroke-opacity="1" stroke-width="2.4"/>
<circle clip-path="url(#clip852)" cx="756.574" cy="469.842" r="10.8" fill="#a00000" fill-rule="evenodd" fill-opacity="1" stroke="#000000" stroke-opacity="1" stroke-width="2.4"/>
<circle clip-path="url(#clip852)" cx="793.635" cy="410.309" r="10.8" fill="#a00000" fill-rule="evenodd" fill-opacity="1" stroke="#000000" stroke-opacity="1" stroke-width="2.4"/>
<circle clip-path="url(#clip852)" cx="830.696" cy="411.626" r="10.8" fill="#a00000" fill-rule="evenodd" fill-opacity="1" stroke="#000000" stroke-opacity="1" stroke-width="2.4"/>
<circle clip-path="url(#clip852)" cx="867.757" cy="449.486" r="10.8" fill="#a00000" fill-rule="evenodd" fill-opacity="1" stroke="#000000" stroke-opacity="1" stroke-width="2.4"/>
<circle clip-path="url(#clip852)" cx="904.818" cy="484.142" r="10.8" fill="#a00000" fill-rule="evenodd" fill-opacity="1" stroke="#000000" stroke-opacity="1" stroke-width="2.4"/>
<circle clip-path="url(#clip852)" cx="941.879" cy="557.153" r="10.8" fill="#a00000" fill-rule="evenodd" fill-opacity="1" stroke="#000000" stroke-opacity="1" stroke-width="2.4"/>
<circle clip-path="url(#clip852)" cx="978.94" cy="522.783" r="10.8" fill="#a00000" fill-rule="evenodd" fill-opacity="1" stroke="#000000" stroke-opacity="1" stroke-width="2.4"/>
<circle clip-path="url(#clip852)" cx="1016" cy="341.115" r="10.8" fill="#a00000" fill-rule="evenodd" fill-opacity="1" stroke="#000000" stroke-opacity="1" stroke-width="2.4"/>
<circle clip-path="url(#clip852)" cx="1053.06" cy="448.079" r="10.8" fill="#a00000" fill-rule="evenodd" fill-opacity="1" stroke="#000000" stroke-opacity="1" stroke-width="2.4"/>
<circle clip-path="url(#clip852)" cx="1090.12" cy="377.831" r="10.8" fill="#a00000" fill-rule="evenodd" fill-opacity="1" stroke="#000000" stroke-opacity="1" stroke-width="2.4"/>
<circle clip-path="url(#clip852)" cx="1127.18" cy="521.225" r="10.8" fill="#a00000" fill-rule="evenodd" fill-opacity="1" stroke="#000000" stroke-opacity="1" stroke-width="2.4"/>
<polyline clip-path="url(#clip852)" style="stroke:#a00000; stroke-linecap:round; stroke-linejoin:round; stroke-width:8; stroke-opacity:1; fill:none" stroke-dasharray="4, 8" points="274.78,689.284 311.841,746.2 348.902,730.519 385.963,713.631 423.025,768.289 460.086,881.544 497.147,769.82 534.208,716.972 571.269,649.585 608.33,687.057 645.391,731.926 682.452,648.617 719.513,608.738 756.574,711.332 793.635,705.753 830.696,638.887 867.757,738.54 904.818,720.883 941.879,713.129 978.94,730.705 1016,542.866 1053.06,695.449 1090.12,678.103 1127.18,759.021 "/>
<circle clip-path="url(#clip852)" cx="274.78" cy="689.284" r="10.8" fill="#a00000" fill-rule="evenodd" fill-opacity="1" stroke="#000000" stroke-opacity="1" stroke-width="2.4"/>
<circle clip-path="url(#clip852)" cx="311.841" cy="746.2" r="10.8" fill="#a00000" fill-rule="evenodd" fill-opacity="1" stroke="#000000" stroke-opacity="1" stroke-width="2.4"/>
<circle clip-path="url(#clip852)" cx="348.902" cy="730.519" r="10.8" fill="#a00000" fill-rule="evenodd" fill-opacity="1" stroke="#000000" stroke-opacity="1" stroke-width="2.4"/>
<circle clip-path="url(#clip852)" cx="385.963" cy="713.631" r="10.8" fill="#a00000" fill-rule="evenodd" fill-opacity="1" stroke="#000000" stroke-opacity="1" stroke-width="2.4"/>
<circle clip-path="url(#clip852)" cx="423.025" cy="768.289" r="10.8" fill="#a00000" fill-rule="evenodd" fill-opacity="1" stroke="#000000" stroke-opacity="1" stroke-width="2.4"/>
<circle clip-path="url(#clip852)" cx="460.086" cy="881.544" r="10.8" fill="#a00000" fill-rule="evenodd" fill-opacity="1" stroke="#000000" stroke-opacity="1" stroke-width="2.4"/>
<circle clip-path="url(#clip852)" cx="497.147" cy="769.82" r="10.8" fill="#a00000" fill-rule="evenodd" fill-opacity="1" stroke="#000000" stroke-opacity="1" stroke-width="2.4"/>
<circle clip-path="url(#clip852)" cx="534.208" cy="716.972" r="10.8" fill="#a00000" fill-rule="evenodd" fill-opacity="1" stroke="#000000" stroke-opacity="1" stroke-width="2.4"/>
<circle clip-path="url(#clip852)" cx="571.269" cy="649.585" r="10.8" fill="#a00000" fill-rule="evenodd" fill-opacity="1" stroke="#000000" stroke-opacity="1" stroke-width="2.4"/>
<circle clip-path="url(#clip852)" cx="608.33" cy="687.057" r="10.8" fill="#a00000" fill-rule="evenodd" fill-opacity="1" stroke="#000000" stroke-opacity="1" stroke-width="2.4"/>
<circle clip-path="url(#clip852)" cx="645.391" cy="731.926" r="10.8" fill="#a00000" fill-rule="evenodd" fill-opacity="1" stroke="#000000" stroke-opacity="1" stroke-width="2.4"/>
<circle clip-path="url(#clip852)" cx="682.452" cy="648.617" r="10.8" fill="#a00000" fill-rule="evenodd" fill-opacity="1" stroke="#000000" stroke-opacity="1" stroke-width="2.4"/>
<circle clip-path="url(#clip852)" cx="719.513" cy="608.738" r="10.8" fill="#a00000" fill-rule="evenodd" fill-opacity="1" stroke="#000000" stroke-opacity="1" stroke-width="2.4"/>
<circle clip-path="url(#clip852)" cx="756.574" cy="711.332" r="10.8" fill="#a00000" fill-rule="evenodd" fill-opacity="1" stroke="#000000" stroke-opacity="1" stroke-width="2.4"/>
<circle clip-path="url(#clip852)" cx="793.635" cy="705.753" r="10.8" fill="#a00000" fill-rule="evenodd" fill-opacity="1" stroke="#000000" stroke-opacity="1" stroke-width="2.4"/>
<circle clip-path="url(#clip852)" cx="830.696" cy="638.887" r="10.8" fill="#a00000" fill-rule="evenodd" fill-opacity="1" stroke="#000000" stroke-opacity="1" stroke-width="2.4"/>
<circle clip-path="url(#clip852)" cx="867.757" cy="738.54" r="10.8" fill="#a00000" fill-rule="evenodd" fill-opacity="1" stroke="#000000" stroke-opacity="1" stroke-width="2.4"/>
<circle clip-path="url(#clip852)" cx="904.818" cy="720.883" r="10.8" fill="#a00000" fill-rule="evenodd" fill-opacity="1" stroke="#000000" stroke-opacity="1" stroke-width="2.4"/>
<circle clip-path="url(#clip852)" cx="941.879" cy="713.129" r="10.8" fill="#a00000" fill-rule="evenodd" fill-opacity="1" stroke="#000000" stroke-opacity="1" stroke-width="2.4"/>
<circle clip-path="url(#clip852)" cx="978.94" cy="730.705" r="10.8" fill="#a00000" fill-rule="evenodd" fill-opacity="1" stroke="#000000" stroke-opacity="1" stroke-width="2.4"/>
<circle clip-path="url(#clip852)" cx="1016" cy="542.866" r="10.8" fill="#a00000" fill-rule="evenodd" fill-opacity="1" stroke="#000000" stroke-opacity="1" stroke-width="2.4"/>
<circle clip-path="url(#clip852)" cx="1053.06" cy="695.449" r="10.8" fill="#a00000" fill-rule="evenodd" fill-opacity="1" stroke="#000000" stroke-opacity="1" stroke-width="2.4"/>
<circle clip-path="url(#clip852)" cx="1090.12" cy="678.103" r="10.8" fill="#a00000" fill-rule="evenodd" fill-opacity="1" stroke="#000000" stroke-opacity="1" stroke-width="2.4"/>
<circle clip-path="url(#clip852)" cx="1127.18" cy="759.021" r="10.8" fill="#a00000" fill-rule="evenodd" fill-opacity="1" stroke="#000000" stroke-opacity="1" stroke-width="2.4"/>
<path clip-path="url(#clip852)" d="M274.78 398.663 L311.841 500.565 L348.902 502.519 L385.963 542.731 L423.025 528.173 L460.086 747.183 L497.147 533.399 L534.208 500.041 L571.269 422.228 L608.33 412.744 L645.391 538.31 L682.452 532.741 L719.513 477.654 L756.574 469.842 L793.635 410.309 L830.696 411.626 L867.757 449.486 L904.818 484.142 L941.879 557.153 L978.94 522.783 L1016 341.115 L1053.06 448.079 L1090.12 377.831 L1127.18 521.225 L1127.18 759.021 L1090.12 678.103 L1053.06 695.449 L1016 542.866 L978.94 730.705 L941.879 713.129 L904.818 720.883 L867.757 738.54 L830.696 638.887 L793.635 705.753 L756.574 711.332 L719.513 608.738 L682.452 648.617 L645.391 731.926 L608.33 687.057 L571.269 649.585 L534.208 716.972 L497.147 769.82 L460.086 881.544 L423.025 768.289 L385.963 713.631 L348.902 730.519 L311.841 746.2 L274.78 689.284  Z" fill="#009af9" fill-rule="evenodd" fill-opacity="0.05"/>
<polyline clip-path="url(#clip852)" style="stroke:#009af9; stroke-linecap:round; stroke-linejoin:round; stroke-width:4; stroke-opacity:1; fill:none" points="274.78,398.663 311.841,500.565 348.902,502.519 385.963,542.731 423.025,528.173 460.086,747.183 497.147,533.399 534.208,500.041 571.269,422.228 608.33,412.744 645.391,538.31 682.452,532.741 719.513,477.654 756.574,469.842 793.635,410.309 830.696,411.626 867.757,449.486 904.818,484.142 941.879,557.153 978.94,522.783 1016,341.115 1053.06,448.079 1090.12,377.831 1127.18,521.225 "/>
</svg>
