<?xml version="1.0" encoding="utf-8"?>
<svg xmlns="http://www.w3.org/2000/svg" xmlns:xlink="http://www.w3.org/1999/xlink" width="500" height="250" viewBox="0 0 2000 1000">
<defs>
  <clipPath id="clip630">
    <rect x="0" y="0" width="2000" height="1000"/>
  </clipPath>
</defs>
<path clip-path="url(#clip630)" d="M0 1000 L2000 1000 L2000 0 L0 0  Z" fill="#ffffff" fill-rule="evenodd" fill-opacity="1"/>
<defs>
  <clipPath id="clip631">
    <rect x="400" y="0" width="1401" height="1000"/>
  </clipPath>
</defs>
<path clip-path="url(#clip630)" d="M185.129 848.748 L933.725 848.748 L933.725 47.2441 L185.129 47.2441  Z" fill="#ffffff" fill-rule="evenodd" fill-opacity="1"/>
<defs>
  <clipPath id="clip632">
    <rect x="185" y="47" width="750" height="803"/>
  </clipPath>
</defs>
<polyline clip-path="url(#clip632)" style="stroke:#808080; stroke-linecap:round; stroke-linejoin:round; stroke-width:4; stroke-opacity:0.1; fill:none" points="185.129,848.748 185.129,47.2441 "/>
<polyline clip-path="url(#clip632)" style="stroke:#808080; stroke-linecap:round; stroke-linejoin:round; stroke-width:4; stroke-opacity:0.1; fill:none" points="334.848,848.748 334.848,47.2441 "/>
<polyline clip-path="url(#clip632)" style="stroke:#808080; stroke-linecap:round; stroke-linejoin:round; stroke-width:4; stroke-opacity:0.1; fill:none" points="484.567,848.748 484.567,47.2441 "/>
<polyline clip-path="url(#clip632)" style="stroke:#808080; stroke-linecap:round; stroke-linejoin:round; stroke-width:4; stroke-opacity:0.1; fill:none" points="634.287,848.748 634.287,47.2441 "/>
<polyline clip-path="url(#clip632)" style="stroke:#808080; stroke-linecap:round; stroke-linejoin:round; stroke-width:4; stroke-opacity:0.1; fill:none" points="784.006,848.748 784.006,47.2441 "/>
<polyline clip-path="url(#clip632)" style="stroke:#808080; stroke-linecap:round; stroke-linejoin:round; stroke-width:4; stroke-opacity:0.1; fill:none" points="933.725,848.748 933.725,47.2441 "/>
<polyline clip-path="url(#clip630)" style="stroke:#000000; stroke-linecap:round; stroke-linejoin:round; stroke-width:4; stroke-opacity:1; fill:none" points="185.129,848.748 933.725,848.748 "/>
<polyline clip-path="url(#clip630)" style="stroke:#000000; stroke-linecap:round; stroke-linejoin:round; stroke-width:4; stroke-opacity:1; fill:none" points="185.129,47.2441 933.725,47.2441 "/>
<polyline clip-path="url(#clip630)" style="stroke:#000000; stroke-linecap:round; stroke-linejoin:round; stroke-width:4; stroke-opacity:1; fill:none" points="185.129,848.748 185.129,829.851 "/>
<polyline clip-path="url(#clip630)" style="stroke:#000000; stroke-linecap:round; stroke-linejoin:round; stroke-width:4; stroke-opacity:1; fill:none" points="334.848,848.748 334.848,829.851 "/>
<polyline clip-path="url(#clip630)" style="stroke:#000000; stroke-linecap:round; stroke-linejoin:round; stroke-width:4; stroke-opacity:1; fill:none" points="484.567,848.748 484.567,829.851 "/>
<polyline clip-path="url(#clip630)" style="stroke:#000000; stroke-linecap:round; stroke-linejoin:round; stroke-width:4; stroke-opacity:1; fill:none" points="634.287,848.748 634.287,829.851 "/>
<polyline clip-path="url(#clip630)" style="stroke:#000000; stroke-linecap:round; stroke-linejoin:round; stroke-width:4; stroke-opacity:1; fill:none" points="784.006,848.748 784.006,829.851 "/>
<polyline clip-path="url(#clip630)" style="stroke:#000000; stroke-linecap:round; stroke-linejoin:round; stroke-width:4; stroke-opacity:1; fill:none" points="933.725,848.748 933.725,829.851 "/>
<g clip-path="url(#clip630)">
<text style="fill:#000000; fill-opacity:1; font-family:Book Antiqua,Palatino,Palatino Linotype,Palatino LT STD,Georgia,serif; font-size:51px; font-weight:bold; text-anchor:middle;" transform="rotate(0, 185.129, 909.12)" x="185.129" y="909.12">0</text>
</g>
<g clip-path="url(#clip630)">
<text style="fill:#000000; fill-opacity:1; font-family:Book Antiqua,Palatino,Palatino Linotype,Palatino LT STD,Georgia,serif; font-size:51px; font-weight:bold; text-anchor:middle;" transform="rotate(0, 334.848, 909.12)" x="334.848" y="909.12">5</text>
</g>
<g clip-path="url(#clip630)">
<text style="fill:#000000; fill-opacity:1; font-family:Book Antiqua,Palatino,Palatino Linotype,Palatino LT STD,Georgia,serif; font-size:51px; font-weight:bold; text-anchor:middle;" transform="rotate(0, 484.567, 909.12)" x="484.567" y="909.12">10</text>
</g>
<g clip-path="url(#clip630)">
<text style="fill:#000000; fill-opacity:1; font-family:Book Antiqua,Palatino,Palatino Linotype,Palatino LT STD,Georgia,serif; font-size:51px; font-weight:bold; text-anchor:middle;" transform="rotate(0, 634.287, 909.12)" x="634.287" y="909.12">15</text>
</g>
<g clip-path="url(#clip630)">
<text style="fill:#000000; fill-opacity:1; font-family:Book Antiqua,Palatino,Palatino Linotype,Palatino LT STD,Georgia,serif; font-size:51px; font-weight:bold; text-anchor:middle;" transform="rotate(0, 784.006, 909.12)" x="784.006" y="909.12">20</text>
</g>
<g clip-path="url(#clip630)">
<text style="fill:#000000; fill-opacity:1; font-family:Book Antiqua,Palatino,Palatino Linotype,Palatino LT STD,Georgia,serif; font-size:51px; font-weight:bold; text-anchor:middle;" transform="rotate(0, 933.725, 909.12)" x="933.725" y="909.12">25</text>
</g>
<path clip-path="url(#clip630)" d="M532.764 949.641 Q532.764 950.543 532.345 950.768 Q531.926 950.961 530.767 950.961 L524.583 950.961 L519.688 970.414 Q519.302 972.121 519.302 973.57 Q519.302 975.18 519.785 975.889 Q520.3 976.597 521.363 976.597 Q523.456 976.597 525.711 974.697 Q527.997 972.797 529.93 968.159 Q530.187 967.547 530.316 967.419 Q530.477 967.258 530.896 967.258 Q531.701 967.258 531.701 967.902 Q531.701 968.127 531.25 969.158 Q530.831 970.188 529.897 971.702 Q528.996 973.216 527.804 974.633 Q526.645 976.05 524.873 977.08 Q523.102 978.079 521.202 978.079 Q518.529 978.079 516.822 976.372 Q515.147 974.665 515.147 971.992 Q515.147 971.122 515.823 968.353 Q516.5 965.551 520.171 950.961 L514.342 950.961 Q513.537 950.961 513.215 950.929 Q512.925 950.897 512.699 950.736 Q512.506 950.543 512.506 950.156 Q512.506 949.544 512.764 949.287 Q513.022 948.997 513.344 948.965 Q513.698 948.9 514.503 948.9 L520.687 948.9 L523.263 938.433 Q523.521 937.403 524.165 936.823 Q524.841 936.211 525.228 936.147 Q525.614 936.05 525.904 936.05 Q526.773 936.05 527.289 936.533 Q527.804 936.984 527.804 937.821 Q527.804 938.272 525.099 948.9 L530.896 948.9 Q531.637 948.9 531.926 948.932 Q532.248 948.965 532.506 949.126 Q532.764 949.287 532.764 949.641 Z" fill="#000000" fill-rule="nonzero" fill-opacity="1" /><path clip-path="url(#clip630)" d="M536.078 992.893 Q536.078 992.571 536.336 991.863 L559.621 929.641 Q559.621 929.577 559.782 929.222 Q559.943 928.868 560.039 928.643 Q560.136 928.385 560.329 928.192 Q560.555 927.999 560.812 927.999 Q561.457 927.999 561.457 928.804 Q561.457 928.868 561.263 929.641 L537.914 991.927 Q537.528 993.054 537.27 993.377 Q537.044 993.699 536.658 993.699 Q536.078 993.699 536.078 992.893 Z" fill="#000000" fill-rule="nonzero" fill-opacity="1" /><path clip-path="url(#clip630)" d="M601.108 967.902 Q601.108 968.159 600.818 969.158 Q600.528 970.156 599.82 971.702 Q599.143 973.248 598.209 974.665 Q597.275 976.05 595.73 977.08 Q594.216 978.079 592.477 978.079 Q590.158 978.079 588.612 976.533 Q587.066 974.987 587.066 972.668 Q587.066 972.346 587.098 972.024 Q587.131 971.702 587.163 971.509 Q587.195 971.283 587.292 970.929 Q587.42 970.543 587.453 970.382 Q587.517 970.221 587.678 969.737 Q587.871 969.222 587.936 969.029 Q592.026 958.594 592.026 954.246 Q592.026 949.641 588.451 949.641 Q585.263 949.641 582.106 951.96 Q580.657 953.119 579.272 955.18 Q577.888 957.242 577.63 958.015 Q577.34 959.689 576.921 960.977 Q576.728 961.879 575.794 965.39 L574.345 971.348 L573.089 976.34 Q572.831 977.048 572.123 977.563 Q571.414 978.079 570.641 978.079 Q569.997 978.079 569.353 977.628 Q568.741 977.209 568.741 976.211 Q568.741 975.696 568.999 974.762 L578.564 936.759 L578.757 935.47 Q578.757 935.084 578.596 934.891 Q578.467 934.665 577.694 934.504 Q576.954 934.343 575.472 934.343 Q574.86 934.343 574.57 934.311 Q574.313 934.279 574.087 934.118 Q573.862 933.925 573.862 933.538 Q573.862 932.991 574.087 932.701 Q574.345 932.379 574.538 932.314 Q574.731 932.25 575.118 932.218 Q575.665 932.185 577.501 932.024 Q579.337 931.831 580.915 931.702 Q582.493 931.573 583.169 931.573 Q583.556 931.573 583.749 931.767 Q583.974 931.928 584.007 932.121 L584.039 932.282 L578.886 953.248 Q582.976 948.192 588.644 948.192 Q592.316 948.192 594.28 950.092 Q596.245 951.96 596.245 955.245 Q596.245 959.013 592.219 969.737 Q591.028 972.733 591.028 974.439 Q591.028 975.567 591.382 976.082 Q591.768 976.597 592.606 976.597 Q593.894 976.597 595.021 975.857 Q596.18 975.084 596.986 973.828 Q597.791 972.539 598.338 971.251 Q598.918 969.931 599.337 968.449 Q599.594 967.644 599.723 967.451 Q599.884 967.258 600.335 967.258 Q601.108 967.258 601.108 967.902 Z" fill="#000000" fill-rule="nonzero" fill-opacity="1" /><polyline clip-path="url(#clip632)" style="stroke:#808080; stroke-linecap:round; stroke-linejoin:round; stroke-width:4; stroke-opacity:0.1; fill:none" points="185.129,848.748 933.725,848.748 "/>
<polyline clip-path="url(#clip632)" style="stroke:#808080; stroke-linecap:round; stroke-linejoin:round; stroke-width:4; stroke-opacity:0.1; fill:none" points="185.129,734.248 933.725,734.248 "/>
<polyline clip-path="url(#clip632)" style="stroke:#808080; stroke-linecap:round; stroke-linejoin:round; stroke-width:4; stroke-opacity:0.1; fill:none" points="185.129,619.747 933.725,619.747 "/>
<polyline clip-path="url(#clip632)" style="stroke:#808080; stroke-linecap:round; stroke-linejoin:round; stroke-width:4; stroke-opacity:0.1; fill:none" points="185.129,505.246 933.725,505.246 "/>
<polyline clip-path="url(#clip632)" style="stroke:#808080; stroke-linecap:round; stroke-linejoin:round; stroke-width:4; stroke-opacity:0.1; fill:none" points="185.129,390.746 933.725,390.746 "/>
<polyline clip-path="url(#clip632)" style="stroke:#808080; stroke-linecap:round; stroke-linejoin:round; stroke-width:4; stroke-opacity:0.1; fill:none" points="185.129,276.245 933.725,276.245 "/>
<polyline clip-path="url(#clip632)" style="stroke:#808080; stroke-linecap:round; stroke-linejoin:round; stroke-width:4; stroke-opacity:0.1; fill:none" points="185.129,161.745 933.725,161.745 "/>
<polyline clip-path="url(#clip632)" style="stroke:#808080; stroke-linecap:round; stroke-linejoin:round; stroke-width:4; stroke-opacity:0.1; fill:none" points="185.129,47.2441 933.725,47.2441 "/>
<polyline clip-path="url(#clip630)" style="stroke:#000000; stroke-linecap:round; stroke-linejoin:round; stroke-width:4; stroke-opacity:1; fill:none" points="185.129,848.748 185.129,47.2441 "/>
<polyline clip-path="url(#clip630)" style="stroke:#000000; stroke-linecap:round; stroke-linejoin:round; stroke-width:4; stroke-opacity:1; fill:none" points="933.725,848.748 933.725,47.2441 "/>
<polyline clip-path="url(#clip630)" style="stroke:#000000; stroke-linecap:round; stroke-linejoin:round; stroke-width:4; stroke-opacity:1; fill:none" points="185.129,848.748 204.027,848.748 "/>
<polyline clip-path="url(#clip630)" style="stroke:#000000; stroke-linecap:round; stroke-linejoin:round; stroke-width:4; stroke-opacity:1; fill:none" points="185.129,734.248 204.027,734.248 "/>
<polyline clip-path="url(#clip630)" style="stroke:#000000; stroke-linecap:round; stroke-linejoin:round; stroke-width:4; stroke-opacity:1; fill:none" points="185.129,619.747 204.027,619.747 "/>
<polyline clip-path="url(#clip630)" style="stroke:#000000; stroke-linecap:round; stroke-linejoin:round; stroke-width:4; stroke-opacity:1; fill:none" points="185.129,505.246 204.027,505.246 "/>
<polyline clip-path="url(#clip630)" style="stroke:#000000; stroke-linecap:round; stroke-linejoin:round; stroke-width:4; stroke-opacity:1; fill:none" points="185.129,390.746 204.027,390.746 "/>
<polyline clip-path="url(#clip630)" style="stroke:#000000; stroke-linecap:round; stroke-linejoin:round; stroke-width:4; stroke-opacity:1; fill:none" points="185.129,276.245 204.027,276.245 "/>
<polyline clip-path="url(#clip630)" style="stroke:#000000; stroke-linecap:round; stroke-linejoin:round; stroke-width:4; stroke-opacity:1; fill:none" points="185.129,161.745 204.027,161.745 "/>
<polyline clip-path="url(#clip630)" style="stroke:#000000; stroke-linecap:round; stroke-linejoin:round; stroke-width:4; stroke-opacity:1; fill:none" points="185.129,47.2441 204.027,47.2441 "/>
<g clip-path="url(#clip630)">
<text style="fill:#000000; fill-opacity:1; font-family:Book Antiqua,Palatino,Palatino Linotype,Palatino LT STD,Georgia,serif; font-size:51px; font-weight:bold; text-anchor:middle;" transform="rotate(0, 142.442, 866.248)" x="142.442" y="866.248">0</text>
</g>
<g clip-path="url(#clip630)">
<text style="fill:#000000; fill-opacity:1; font-family:Book Antiqua,Palatino,Palatino Linotype,Palatino LT STD,Georgia,serif; font-size:51px; font-weight:bold; text-anchor:middle;" transform="rotate(0, 129.755, 751.748)" x="129.755" y="751.748">10</text>
</g>
<g clip-path="url(#clip630)">
<text style="fill:#000000; fill-opacity:1; font-family:Book Antiqua,Palatino,Palatino Linotype,Palatino LT STD,Georgia,serif; font-size:51px; font-weight:bold; text-anchor:middle;" transform="rotate(0, 129.755, 637.247)" x="129.755" y="637.247">20</text>
</g>
<g clip-path="url(#clip630)">
<text style="fill:#000000; fill-opacity:1; font-family:Book Antiqua,Palatino,Palatino Linotype,Palatino LT STD,Georgia,serif; font-size:51px; font-weight:bold; text-anchor:middle;" transform="rotate(0, 129.755, 522.746)" x="129.755" y="522.746">30</text>
</g>
<g clip-path="url(#clip630)">
<text style="fill:#000000; fill-opacity:1; font-family:Book Antiqua,Palatino,Palatino Linotype,Palatino LT STD,Georgia,serif; font-size:51px; font-weight:bold; text-anchor:middle;" transform="rotate(0, 129.755, 408.246)" x="129.755" y="408.246">40</text>
</g>
<g clip-path="url(#clip630)">
<text style="fill:#000000; fill-opacity:1; font-family:Book Antiqua,Palatino,Palatino Linotype,Palatino LT STD,Georgia,serif; font-size:51px; font-weight:bold; text-anchor:middle;" transform="rotate(0, 129.755, 293.745)" x="129.755" y="293.745">50</text>
</g>
<g clip-path="url(#clip630)">
<text style="fill:#000000; fill-opacity:1; font-family:Book Antiqua,Palatino,Palatino Linotype,Palatino LT STD,Georgia,serif; font-size:51px; font-weight:bold; text-anchor:middle;" transform="rotate(0, 129.755, 179.245)" x="129.755" y="179.245">60</text>
</g>
<g clip-path="url(#clip630)">
<text style="fill:#000000; fill-opacity:1; font-family:Book Antiqua,Palatino,Palatino Linotype,Palatino LT STD,Georgia,serif; font-size:51px; font-weight:bold; text-anchor:middle;" transform="rotate(0, 129.755, 64.7441)" x="129.755" y="64.7441">70</text>
</g>
<path clip-path="url(#clip630)" d="M39.8519 650.465 Q29.7715 650.465 22.7506 644.024 Q15.6975 637.551 15.6975 628.565 Q15.6975 619.516 22.7506 613.074 Q29.8037 606.601 39.8519 606.601 Q49.8035 606.601 56.7278 613.074 Q63.6521 619.548 63.6521 628.565 Q63.6521 637.454 56.76 643.96 Q49.8679 650.465 39.8519 650.465 M38.918 643.67 Q45.0371 643.67 49.7391 642.221 Q54.409 640.771 56.9532 638.453 Q59.4975 636.102 60.7213 633.589 Q61.9451 631.077 61.9451 628.501 Q61.9451 625.989 60.7535 623.541 Q59.5619 621.061 57.0499 618.71 Q54.5378 616.359 49.8357 614.878 Q45.1337 613.396 38.918 613.396 Q34.0871 613.396 30.2224 614.427 Q26.3255 615.458 23.9744 617.068 Q21.6234 618.678 20.0775 620.772 Q18.5316 622.833 17.9519 624.797 Q17.34 626.73 17.34 628.565 Q17.34 630.884 18.3706 633.3 Q19.4012 635.715 21.6878 638.163 Q23.9422 640.578 28.4188 642.124 Q32.8633 643.67 38.918 643.67 Z" fill="#000000" fill-rule="nonzero" fill-opacity="1" /><path clip-path="url(#clip630)" d="M35.8262 600.245 L33.765 600.245 L33.0565 590.551 L54.9565 590.551 Q56.5346 590.551 57.4685 590.422 Q58.3703 590.293 59.4331 589.778 Q60.4959 589.23 60.979 588.007 Q61.4621 586.751 61.4621 584.754 Q61.4621 581.179 58.5313 578.989 Q55.6006 576.767 51.2528 576.767 L39.4977 576.767 Q37.05 576.767 36.4381 577.636 Q35.8262 578.506 35.8262 581.92 L33.765 581.92 L33.0565 572.226 L56.4701 572.226 Q58.9178 572.226 59.5619 571.388 Q60.1738 570.519 60.1738 567.073 L62.2028 567.073 L62.9435 576.574 L56.9854 576.574 Q62.9113 579.343 62.9435 585.076 Q62.9435 587.974 62.2028 589.971 Q61.4621 591.936 60.5603 592.934 Q59.6263 593.933 57.855 594.48 Q56.0837 594.995 54.9887 595.06 Q53.8937 595.124 51.7681 595.124 L41.8809 595.124 Q37.4043 595.124 36.6313 595.768 Q35.8262 596.412 35.8262 600.245 Z" fill="#000000" fill-rule="nonzero" fill-opacity="1" /><path clip-path="url(#clip630)" d="M35.8262 564.802 L34.3769 564.802 Q34.2481 561.774 32.1225 559.778 Q29.9647 557.749 27.3238 557.072 Q24.683 556.364 21.6234 556.299 L21.6234 554.657 L33.765 554.657 L33.765 545.22 L35.8262 545.22 L35.8262 554.657 L54.1513 554.657 Q61.2688 554.657 61.2688 550.212 Q61.2688 548.312 59.3365 547.056 Q57.3719 545.8 53.8937 545.8 L50.2544 545.8 L50.2544 544.158 L54.0225 544.158 Q57.5974 544.158 60.2704 545.8 Q62.9435 547.443 62.9435 550.695 Q62.9435 551.887 62.6215 553.079 Q62.3316 554.238 61.5587 555.784 Q60.7535 557.298 58.8212 558.264 Q56.8566 559.198 54.0225 559.198 L35.8262 559.198 L35.8262 564.802 Z" fill="#000000" fill-rule="nonzero" fill-opacity="1" /><path clip-path="url(#clip630)" d="M72.9596 543.963 Q72.9596 540.453 72.5087 539.648 Q72.09 538.81 69.9966 538.81 L39.1112 538.81 Q36.9212 538.81 36.3737 539.648 Q35.8262 540.453 35.8262 543.963 L33.765 543.963 L33.0565 534.463 L37.4043 534.463 Q33.0565 530.501 33.0565 525.219 Q33.0565 519.616 37.4043 515.525 Q41.7521 511.435 47.9678 511.435 Q54.2479 511.435 58.5957 515.783 Q62.9435 520.131 62.9435 526.153 Q62.9435 529.438 61.2688 531.661 Q59.5619 533.851 58.3059 534.269 L58.9178 534.269 L69.9966 534.269 Q72.1222 534.269 72.5409 533.432 Q72.9596 532.595 72.9596 529.116 L74.9885 529.116 Q74.7953 536.041 74.7953 536.556 Q74.7953 537.2 74.9885 543.963 L72.9596 543.963 M54.6988 534.269 Q55.6972 534.269 56.0515 534.14 Q56.4057 533.979 57.4685 533.335 Q61.4621 530.727 61.4621 526.475 Q61.4621 526.443 61.4621 526.411 Q61.4621 522.643 57.6296 519.777 Q53.7649 516.91 47.9678 516.91 Q42.4284 516.91 38.5637 519.519 Q34.699 522.128 34.699 525.735 Q34.699 528.311 36.0838 530.566 Q37.4687 532.82 39.9807 534.269 L54.6988 534.269 Z" fill="#000000" fill-rule="nonzero" fill-opacity="1" /><path clip-path="url(#clip630)" d="M35.8262 503.504 L33.765 503.504 L33.0565 493.81 L54.9565 493.81 Q56.5346 493.81 57.4685 493.681 Q58.3703 493.552 59.4331 493.037 Q60.4959 492.49 60.979 491.266 Q61.4621 490.01 61.4621 488.013 Q61.4621 484.438 58.5313 482.248 Q55.6006 480.026 51.2528 480.026 L39.4977 480.026 Q37.05 480.026 36.4381 480.895 Q35.8262 481.765 35.8262 485.179 L33.765 485.179 L33.0565 475.485 L56.4701 475.485 Q58.9178 475.485 59.5619 474.648 Q60.1738 473.778 60.1738 470.332 L62.2028 470.332 L62.9435 479.833 L56.9854 479.833 Q62.9113 482.602 62.9435 488.335 Q62.9435 491.234 62.2028 493.23 Q61.4621 495.195 60.5603 496.193 Q59.6263 497.192 57.855 497.739 Q56.0837 498.254 54.9887 498.319 Q53.8937 498.383 51.7681 498.383 L41.8809 498.383 Q37.4043 498.383 36.6313 499.027 Q35.8262 499.671 35.8262 503.504 Z" fill="#000000" fill-rule="nonzero" fill-opacity="1" /><path clip-path="url(#clip630)" d="M35.8262 468.061 L34.3769 468.061 Q34.2481 465.033 32.1225 463.037 Q29.9647 461.008 27.3238 460.331 Q24.683 459.623 21.6234 459.558 L21.6234 457.916 L33.765 457.916 L33.765 448.48 L35.8262 448.48 L35.8262 457.916 L54.1513 457.916 Q61.2688 457.916 61.2688 453.471 Q61.2688 451.571 59.3365 450.315 Q57.3719 449.059 53.8937 449.059 L50.2544 449.059 L50.2544 447.417 L54.0225 447.417 Q57.5974 447.417 60.2704 449.059 Q62.9435 450.702 62.9435 453.955 Q62.9435 455.146 62.6215 456.338 Q62.3316 457.497 61.5587 459.043 Q60.7535 460.557 58.8212 461.523 Q56.8566 462.457 54.0225 462.457 L35.8262 462.457 L35.8262 468.061 Z" fill="#000000" fill-rule="nonzero" fill-opacity="1" /><path clip-path="url(#clip630)" d="M77.7582 425.305 Q77.4362 425.305 76.7276 425.047 L14.5059 401.762 Q14.4415 401.762 14.0872 401.601 Q13.733 401.44 13.5075 401.343 Q13.2499 401.247 13.0566 401.053 Q12.8634 400.828 12.8634 400.57 Q12.8634 399.926 13.6686 399.926 Q13.733 399.926 14.5059 400.12 L76.792 423.469 Q77.9193 423.855 78.2413 424.113 Q78.5634 424.338 78.5634 424.725 Q78.5634 425.305 77.7582 425.305 Z" fill="#000000" fill-rule="nonzero" fill-opacity="1" /><path clip-path="url(#clip630)" d="M72.9596 375.212 Q72.9596 371.701 72.5087 370.896 Q72.09 370.059 69.9966 370.059 L39.1112 370.059 Q36.9212 370.059 36.3737 370.896 Q35.8262 371.701 35.8262 375.212 L33.765 375.212 L33.0565 365.711 L37.4043 365.711 Q33.0565 361.75 33.0565 356.468 Q33.0565 350.864 37.4043 346.774 Q41.7521 342.684 47.9678 342.684 Q54.2479 342.684 58.5957 347.032 Q62.9435 351.38 62.9435 357.402 Q62.9435 360.687 61.2688 362.909 Q59.5619 365.099 58.3059 365.518 L58.9178 365.518 L69.9966 365.518 Q72.1222 365.518 72.5409 364.681 Q72.9596 363.843 72.9596 360.365 L74.9885 360.365 Q74.7953 367.289 74.7953 367.805 Q74.7953 368.449 74.9885 375.212 L72.9596 375.212 M54.6988 365.518 Q55.6972 365.518 56.0515 365.389 Q56.4057 365.228 57.4685 364.584 Q61.4621 361.975 61.4621 357.724 Q61.4621 357.692 61.4621 357.66 Q61.4621 353.892 57.6296 351.025 Q53.7649 348.159 47.9678 348.159 Q42.4284 348.159 38.5637 350.768 Q34.699 353.376 34.699 356.983 Q34.699 359.56 36.0838 361.814 Q37.4687 364.069 39.9807 365.518 L54.6988 365.518 Z" fill="#000000" fill-rule="nonzero" fill-opacity="1" /><path clip-path="url(#clip630)" d="M61.14 337.978 Q60.0772 338.977 58.6924 338.977 Q57.3075 338.977 56.3091 337.978 Q55.2785 336.98 55.2785 335.466 Q55.2785 334.017 56.2447 333.051 Q57.1787 332.052 58.7246 332.052 Q60.2382 332.052 61.2366 333.115 Q62.2028 334.146 62.2028 335.466 Q62.2028 336.98 61.14 337.978 Z" fill="#000000" fill-rule="nonzero" fill-opacity="1" /><path clip-path="url(#clip630)" d="M35.8262 310.369 L33.765 310.369 L33.0565 300.676 L54.9565 300.676 Q56.5346 300.676 57.4685 300.547 Q58.3703 300.418 59.4331 299.903 Q60.4959 299.355 60.979 298.131 Q61.4621 296.875 61.4621 294.878 Q61.4621 291.304 58.5313 289.114 Q55.6006 286.891 51.2528 286.891 L39.4977 286.891 Q37.05 286.891 36.4381 287.761 Q35.8262 288.631 35.8262 292.044 L33.765 292.044 L33.0565 282.35 L56.4701 282.35 Q58.9178 282.35 59.5619 281.513 Q60.1738 280.643 60.1738 277.197 L62.2028 277.197 L62.9435 286.698 L56.9854 286.698 Q62.9113 289.468 62.9435 295.201 Q62.9435 298.099 62.2028 300.096 Q61.4621 302.06 60.5603 303.059 Q59.6263 304.057 57.855 304.605 Q56.0837 305.12 54.9887 305.184 Q53.8937 305.249 51.7681 305.249 L41.8809 305.249 Q37.4043 305.249 36.6313 305.893 Q35.8262 306.537 35.8262 310.369 Z" fill="#000000" fill-rule="nonzero" fill-opacity="1" /><path clip-path="url(#clip630)" d="M61.14 273.136 Q60.0772 274.134 58.6924 274.134 Q57.3075 274.134 56.3091 273.136 Q55.2785 272.137 55.2785 270.624 Q55.2785 269.175 56.2447 268.208 Q57.1787 267.21 58.7246 267.21 Q60.2382 267.21 61.2366 268.273 Q62.2028 269.303 62.2028 270.624 Q62.2028 272.137 61.14 273.136 Z" fill="#000000" fill-rule="nonzero" fill-opacity="1" /><path clip-path="url(#clip632)" d="M207.587 460.555 L207.587 848.748 L222.559 848.748 L222.559 460.555 L207.587 460.555 L207.587 460.555  Z" fill="#969696" fill-rule="evenodd" fill-opacity="1"/>
<polyline clip-path="url(#clip632)" style="stroke:#969696; stroke-linecap:round; stroke-linejoin:round; stroke-width:4; stroke-opacity:1; fill:none" points="207.587,460.555 207.587,848.748 222.559,848.748 222.559,460.555 207.587,460.555 "/>
<path clip-path="url(#clip632)" d="M237.531 486.633 L237.531 848.748 L252.503 848.748 L252.503 486.633 L237.531 486.633 L237.531 486.633  Z" fill="#969696" fill-rule="evenodd" fill-opacity="1"/>
<polyline clip-path="url(#clip632)" style="stroke:#969696; stroke-linecap:round; stroke-linejoin:round; stroke-width:4; stroke-opacity:1; fill:none" points="237.531,486.633 237.531,848.748 252.503,848.748 252.503,486.633 237.531,486.633 "/>
<path clip-path="url(#clip632)" d="M267.475 538.791 L267.475 848.748 L282.447 848.748 L282.447 538.791 L267.475 538.791 L267.475 538.791  Z" fill="#969696" fill-rule="evenodd" fill-opacity="1"/>
<polyline clip-path="url(#clip632)" style="stroke:#969696; stroke-linecap:round; stroke-linejoin:round; stroke-width:4; stroke-opacity:1; fill:none" points="267.475,538.791 267.475,848.748 282.447,848.748 282.447,538.791 267.475,538.791 "/>
<path clip-path="url(#clip632)" d="M297.418 651.798 L297.418 848.748 L312.39 848.748 L312.39 651.798 L297.418 651.798 L297.418 651.798  Z" fill="#969696" fill-rule="evenodd" fill-opacity="1"/>
<polyline clip-path="url(#clip632)" style="stroke:#969696; stroke-linecap:round; stroke-linejoin:round; stroke-width:4; stroke-opacity:1; fill:none" points="297.418,651.798 297.418,848.748 312.39,848.748 312.39,651.798 297.418,651.798 "/>
<path clip-path="url(#clip632)" d="M327.362 686.57 L327.362 848.748 L342.334 848.748 L342.334 686.57 L327.362 686.57 L327.362 686.57  Z" fill="#969696" fill-rule="evenodd" fill-opacity="1"/>
<polyline clip-path="url(#clip632)" style="stroke:#969696; stroke-linecap:round; stroke-linejoin:round; stroke-width:4; stroke-opacity:1; fill:none" points="327.362,686.57 327.362,848.748 342.334,848.748 342.334,686.57 327.362,686.57 "/>
<path clip-path="url(#clip632)" d="M357.306 599.641 L357.306 848.748 L372.278 848.748 L372.278 599.641 L357.306 599.641 L357.306 599.641  Z" fill="#969696" fill-rule="evenodd" fill-opacity="1"/>
<polyline clip-path="url(#clip632)" style="stroke:#969696; stroke-linecap:round; stroke-linejoin:round; stroke-width:4; stroke-opacity:1; fill:none" points="357.306,599.641 357.306,848.748 372.278,848.748 372.278,599.641 357.306,599.641 "/>
<path clip-path="url(#clip632)" d="M387.25 512.712 L387.25 848.748 L402.222 848.748 L402.222 512.712 L387.25 512.712 L387.25 512.712  Z" fill="#969696" fill-rule="evenodd" fill-opacity="1"/>
<polyline clip-path="url(#clip632)" style="stroke:#969696; stroke-linecap:round; stroke-linejoin:round; stroke-width:4; stroke-opacity:1; fill:none" points="387.25,512.712 387.25,848.748 402.222,848.748 402.222,512.712 387.25,512.712 "/>
<path clip-path="url(#clip632)" d="M417.194 434.476 L417.194 848.748 L432.166 848.748 L432.166 434.476 L417.194 434.476 L417.194 434.476  Z" fill="#969696" fill-rule="evenodd" fill-opacity="1"/>
<polyline clip-path="url(#clip632)" style="stroke:#969696; stroke-linecap:round; stroke-linejoin:round; stroke-width:4; stroke-opacity:1; fill:none" points="417.194,434.476 417.194,848.748 432.166,848.748 432.166,434.476 417.194,434.476 "/>
<path clip-path="url(#clip632)" d="M447.138 382.319 L447.138 848.748 L462.11 848.748 L462.11 382.319 L447.138 382.319 L447.138 382.319  Z" fill="#969696" fill-rule="evenodd" fill-opacity="1"/>
<polyline clip-path="url(#clip632)" style="stroke:#969696; stroke-linecap:round; stroke-linejoin:round; stroke-width:4; stroke-opacity:1; fill:none" points="447.138,382.319 447.138,848.748 462.11,848.748 462.11,382.319 447.138,382.319 "/>
<path clip-path="url(#clip632)" d="M477.082 338.854 L477.082 848.748 L492.053 848.748 L492.053 338.854 L477.082 338.854 L477.082 338.854  Z" fill="#969696" fill-rule="evenodd" fill-opacity="1"/>
<polyline clip-path="url(#clip632)" style="stroke:#969696; stroke-linecap:round; stroke-linejoin:round; stroke-width:4; stroke-opacity:1; fill:none" points="477.082,338.854 477.082,848.748 492.053,848.748 492.053,338.854 477.082,338.854 "/>
<path clip-path="url(#clip632)" d="M507.025 308.429 L507.025 848.748 L521.997 848.748 L521.997 308.429 L507.025 308.429 L507.025 308.429  Z" fill="#969696" fill-rule="evenodd" fill-opacity="1"/>
<polyline clip-path="url(#clip632)" style="stroke:#969696; stroke-linecap:round; stroke-linejoin:round; stroke-width:4; stroke-opacity:1; fill:none" points="507.025,308.429 507.025,848.748 521.997,848.748 521.997,308.429 507.025,308.429 "/>
<path clip-path="url(#clip632)" d="M536.969 325.815 L536.969 848.748 L551.941 848.748 L551.941 325.815 L536.969 325.815 L536.969 325.815  Z" fill="#969696" fill-rule="evenodd" fill-opacity="1"/>
<polyline clip-path="url(#clip632)" style="stroke:#969696; stroke-linecap:round; stroke-linejoin:round; stroke-width:4; stroke-opacity:1; fill:none" points="536.969,325.815 536.969,848.748 551.941,848.748 551.941,325.815 536.969,325.815 "/>
<path clip-path="url(#clip632)" d="M566.913 364.933 L566.913 848.748 L581.885 848.748 L581.885 364.933 L566.913 364.933 L566.913 364.933  Z" fill="#969696" fill-rule="evenodd" fill-opacity="1"/>
<polyline clip-path="url(#clip632)" style="stroke:#969696; stroke-linecap:round; stroke-linejoin:round; stroke-width:4; stroke-opacity:1; fill:none" points="566.913,364.933 566.913,848.748 581.885,848.748 581.885,364.933 566.913,364.933 "/>
<path clip-path="url(#clip632)" d="M596.857 399.704 L596.857 848.748 L611.829 848.748 L611.829 399.704 L596.857 399.704 L596.857 399.704  Z" fill="#969696" fill-rule="evenodd" fill-opacity="1"/>
<polyline clip-path="url(#clip632)" style="stroke:#969696; stroke-linecap:round; stroke-linejoin:round; stroke-width:4; stroke-opacity:1; fill:none" points="596.857,399.704 596.857,848.748 611.829,848.748 611.829,399.704 596.857,399.704 "/>
<path clip-path="url(#clip632)" d="M626.801 364.933 L626.801 848.748 L641.773 848.748 L641.773 364.933 L626.801 364.933 L626.801 364.933  Z" fill="#969696" fill-rule="evenodd" fill-opacity="1"/>
<polyline clip-path="url(#clip632)" style="stroke:#969696; stroke-linecap:round; stroke-linejoin:round; stroke-width:4; stroke-opacity:1; fill:none" points="626.801,364.933 626.801,848.748 641.773,848.748 641.773,364.933 626.801,364.933 "/>
<path clip-path="url(#clip632)" d="M656.745 304.083 L656.745 848.748 L671.716 848.748 L671.716 304.083 L656.745 304.083 L656.745 304.083  Z" fill="#969696" fill-rule="evenodd" fill-opacity="1"/>
<polyline clip-path="url(#clip632)" style="stroke:#969696; stroke-linecap:round; stroke-linejoin:round; stroke-width:4; stroke-opacity:1; fill:none" points="656.745,304.083 656.745,848.748 671.716,848.748 671.716,304.083 656.745,304.083 "/>
<path clip-path="url(#clip632)" d="M686.688 317.122 L686.688 848.748 L701.66 848.748 L701.66 317.122 L686.688 317.122 L686.688 317.122  Z" fill="#969696" fill-rule="evenodd" fill-opacity="1"/>
<polyline clip-path="url(#clip632)" style="stroke:#969696; stroke-linecap:round; stroke-linejoin:round; stroke-width:4; stroke-opacity:1; fill:none" points="686.688,317.122 686.688,848.748 701.66,848.748 701.66,317.122 686.688,317.122 "/>
<path clip-path="url(#clip632)" d="M716.632 321.468 L716.632 848.748 L731.604 848.748 L731.604 321.468 L716.632 321.468 L716.632 321.468  Z" fill="#969696" fill-rule="evenodd" fill-opacity="1"/>
<polyline clip-path="url(#clip632)" style="stroke:#969696; stroke-linecap:round; stroke-linejoin:round; stroke-width:4; stroke-opacity:1; fill:none" points="716.632,321.468 716.632,848.748 731.604,848.748 731.604,321.468 716.632,321.468 "/>
<path clip-path="url(#clip632)" d="M746.576 282.35 L746.576 848.748 L761.548 848.748 L761.548 282.35 L746.576 282.35 L746.576 282.35  Z" fill="#969696" fill-rule="evenodd" fill-opacity="1"/>
<polyline clip-path="url(#clip632)" style="stroke:#969696; stroke-linecap:round; stroke-linejoin:round; stroke-width:4; stroke-opacity:1; fill:none" points="746.576,282.35 746.576,848.748 761.548,848.748 761.548,282.35 746.576,282.35 "/>
<path clip-path="url(#clip632)" d="M776.52 243.232 L776.52 848.748 L791.492 848.748 L791.492 243.232 L776.52 243.232 L776.52 243.232  Z" fill="#969696" fill-rule="evenodd" fill-opacity="1"/>
<polyline clip-path="url(#clip632)" style="stroke:#969696; stroke-linecap:round; stroke-linejoin:round; stroke-width:4; stroke-opacity:1; fill:none" points="776.52,243.232 776.52,848.748 791.492,848.748 791.492,243.232 776.52,243.232 "/>
<path clip-path="url(#clip632)" d="M806.464 217.154 L806.464 848.748 L821.436 848.748 L821.436 217.154 L806.464 217.154 L806.464 217.154  Z" fill="#969696" fill-rule="evenodd" fill-opacity="1"/>
<polyline clip-path="url(#clip632)" style="stroke:#969696; stroke-linecap:round; stroke-linejoin:round; stroke-width:4; stroke-opacity:1; fill:none" points="806.464,217.154 806.464,848.748 821.436,848.748 821.436,217.154 806.464,217.154 "/>
<path clip-path="url(#clip632)" d="M836.408 251.925 L836.408 848.748 L851.38 848.748 L851.38 251.925 L836.408 251.925 L836.408 251.925  Z" fill="#969696" fill-rule="evenodd" fill-opacity="1"/>
<polyline clip-path="url(#clip632)" style="stroke:#969696; stroke-linecap:round; stroke-linejoin:round; stroke-width:4; stroke-opacity:1; fill:none" points="836.408,251.925 836.408,848.748 851.38,848.748 851.38,251.925 836.408,251.925 "/>
<path clip-path="url(#clip632)" d="M866.351 308.429 L866.351 848.748 L881.323 848.748 L881.323 308.429 L866.351 308.429 L866.351 308.429  Z" fill="#969696" fill-rule="evenodd" fill-opacity="1"/>
<polyline clip-path="url(#clip632)" style="stroke:#969696; stroke-linecap:round; stroke-linejoin:round; stroke-width:4; stroke-opacity:1; fill:none" points="866.351,308.429 866.351,848.748 881.323,848.748 881.323,308.429 866.351,308.429 "/>
<path clip-path="url(#clip632)" d="M896.295 343.201 L896.295 848.748 L911.267 848.748 L911.267 343.201 L896.295 343.201 L896.295 343.201  Z" fill="#969696" fill-rule="evenodd" fill-opacity="1"/>
<polyline clip-path="url(#clip632)" style="stroke:#969696; stroke-linecap:round; stroke-linejoin:round; stroke-width:4; stroke-opacity:1; fill:none" points="896.295,343.201 896.295,848.748 911.267,848.748 911.267,343.201 896.295,343.201 "/>
<circle clip-path="url(#clip632)" style="fill:#009af9; stroke:none; fill-opacity:0" cx="215.073" cy="460.555" r="2"/>
<circle clip-path="url(#clip632)" style="fill:#009af9; stroke:none; fill-opacity:0" cx="245.017" cy="486.633" r="2"/>
<circle clip-path="url(#clip632)" style="fill:#009af9; stroke:none; fill-opacity:0" cx="274.961" cy="538.791" r="2"/>
<circle clip-path="url(#clip632)" style="fill:#009af9; stroke:none; fill-opacity:0" cx="304.904" cy="651.798" r="2"/>
<circle clip-path="url(#clip632)" style="fill:#009af9; stroke:none; fill-opacity:0" cx="334.848" cy="686.57" r="2"/>
<circle clip-path="url(#clip632)" style="fill:#009af9; stroke:none; fill-opacity:0" cx="364.792" cy="599.641" r="2"/>
<circle clip-path="url(#clip632)" style="fill:#009af9; stroke:none; fill-opacity:0" cx="394.736" cy="512.712" r="2"/>
<circle clip-path="url(#clip632)" style="fill:#009af9; stroke:none; fill-opacity:0" cx="424.68" cy="434.476" r="2"/>
<circle clip-path="url(#clip632)" style="fill:#009af9; stroke:none; fill-opacity:0" cx="454.624" cy="382.319" r="2"/>
<circle clip-path="url(#clip632)" style="fill:#009af9; stroke:none; fill-opacity:0" cx="484.567" cy="338.854" r="2"/>
<circle clip-path="url(#clip632)" style="fill:#009af9; stroke:none; fill-opacity:0" cx="514.511" cy="308.429" r="2"/>
<circle clip-path="url(#clip632)" style="fill:#009af9; stroke:none; fill-opacity:0" cx="544.455" cy="325.815" r="2"/>
<circle clip-path="url(#clip632)" style="fill:#009af9; stroke:none; fill-opacity:0" cx="574.399" cy="364.933" r="2"/>
<circle clip-path="url(#clip632)" style="fill:#009af9; stroke:none; fill-opacity:0" cx="604.343" cy="399.704" r="2"/>
<circle clip-path="url(#clip632)" style="fill:#009af9; stroke:none; fill-opacity:0" cx="634.287" cy="364.933" r="2"/>
<circle clip-path="url(#clip632)" style="fill:#009af9; stroke:none; fill-opacity:0" cx="664.231" cy="304.083" r="2"/>
<circle clip-path="url(#clip632)" style="fill:#009af9; stroke:none; fill-opacity:0" cx="694.174" cy="317.122" r="2"/>
<circle clip-path="url(#clip632)" style="fill:#009af9; stroke:none; fill-opacity:0" cx="724.118" cy="321.468" r="2"/>
<circle clip-path="url(#clip632)" style="fill:#009af9; stroke:none; fill-opacity:0" cx="754.062" cy="282.35" r="2"/>
<circle clip-path="url(#clip632)" style="fill:#009af9; stroke:none; fill-opacity:0" cx="784.006" cy="243.232" r="2"/>
<circle clip-path="url(#clip632)" style="fill:#009af9; stroke:none; fill-opacity:0" cx="813.95" cy="217.154" r="2"/>
<circle clip-path="url(#clip632)" style="fill:#009af9; stroke:none; fill-opacity:0" cx="843.894" cy="251.925" r="2"/>
<circle clip-path="url(#clip632)" style="fill:#009af9; stroke:none; fill-opacity:0" cx="873.837" cy="308.429" r="2"/>
<circle clip-path="url(#clip632)" style="fill:#009af9; stroke:none; fill-opacity:0" cx="903.781" cy="343.201" r="2"/>
<path clip-path="url(#clip630)" d="M583.787 177.641 L908.772 177.641 L908.772 73.9609 L583.787 73.9609  Z" fill="#ffffff" fill-rule="evenodd" fill-opacity="1"/>
<polyline clip-path="url(#clip630)" style="stroke:#000000; stroke-linecap:round; stroke-linejoin:round; stroke-width:4; stroke-opacity:1; fill:none" points="583.787,177.641 908.772,177.641 908.772,73.9609 583.787,73.9609 583.787,177.641 "/>
<path clip-path="url(#clip630)" d="M592.105 146.537 L642.011 146.537 L642.011 105.065 L592.105 105.065 L592.105 146.537  Z" fill="#969696" fill-rule="evenodd" fill-opacity="1"/>
<polyline clip-path="url(#clip630)" style="stroke:#969696; stroke-linecap:round; stroke-linejoin:round; stroke-width:4; stroke-opacity:1; fill:none" points="592.105,146.537 642.011,146.537 642.011,105.065 592.105,105.065 592.105,146.537 "/>
<path clip-path="url(#clip630)" d="M650.329 137.589 L650.329 127.986 Q650.329 127.447 650.352 127.259 Q650.376 127.072 650.516 126.932 Q650.657 126.791 650.938 126.791 Q651.476 126.791 651.523 127.283 Q651.664 132.038 654.498 134.661 Q657.285 137.261 662.063 137.261 Q664.944 137.261 666.724 135.2 Q668.505 133.115 668.505 130.398 Q668.505 127.798 667.006 125.971 Q666.373 125.151 665.577 124.636 Q664.804 124.097 664.312 123.933 Q663.844 123.769 662.93 123.535 Q656.981 122.106 656.606 121.943 Q653.772 120.982 652.039 118.57 Q650.329 116.134 650.329 113.159 Q650.329 109.318 653.022 106.601 Q655.739 103.86 659.674 103.86 Q661.642 103.86 663.281 104.493 Q664.944 105.102 665.624 105.664 Q666.303 106.226 667.357 107.233 L669.02 104.493 Q669.395 103.86 669.746 103.86 Q670.121 103.86 670.191 104.095 Q670.285 104.305 670.285 105.008 L670.285 114.658 Q670.285 115.197 670.261 115.384 Q670.238 115.572 670.074 115.689 Q669.933 115.806 669.652 115.806 Q669.184 115.806 669.067 115.244 Q667.732 105.219 659.721 105.219 Q656.981 105.219 655.177 107.069 Q653.397 108.896 653.397 111.496 Q653.397 113.604 654.709 115.337 Q656.02 117.047 658.246 117.586 L664.382 119.062 Q667.451 119.788 669.512 122.505 Q671.573 125.222 671.573 128.758 Q671.573 132.834 668.903 135.785 Q666.256 138.736 662.11 138.736 Q659.136 138.736 656.84 137.753 Q654.545 136.769 653.303 135.387 Q652.343 136.98 651.711 137.87 L651.57 138.104 Q651.195 138.736 650.844 138.736 Q650.469 138.736 650.399 138.502 Q650.329 138.268 650.329 137.589 Z" fill="#000000" fill-rule="nonzero" fill-opacity="1" /><path clip-path="url(#clip630)" d="M678.796 143.632 Q678.796 142.625 679.381 142.086 Q679.99 141.571 680.81 141.571 Q681.677 141.571 682.239 142.109 Q682.824 142.671 682.824 143.585 Q682.824 145.365 680.951 145.599 Q681.864 146.466 683.199 146.466 Q684.628 146.466 685.776 145.412 Q686.947 144.358 687.439 143.351 Q687.954 142.343 688.68 140.517 Q689.359 139.088 689.874 137.682 L682.684 120.162 Q682.215 119.015 681.489 118.757 Q680.763 118.499 678.796 118.499 L678.796 117 Q680.951 117.141 683.457 117.141 Q684.932 117.141 688.68 117 L688.68 118.499 Q685.986 118.499 685.986 119.741 Q685.986 119.881 686.267 120.607 L691.608 133.513 L696.456 121.708 Q696.737 121.029 696.737 120.561 Q696.737 118.593 694.489 118.499 L694.489 117 Q697.651 117.141 698.658 117.141 Q700.625 117.141 702.242 117 L702.242 118.499 Q699.033 118.499 697.791 121.568 L689.336 142.039 Q687.04 147.496 683.199 147.52 Q681.372 147.52 680.084 146.396 Q678.796 145.271 678.796 143.632 Z" fill="#000000" fill-rule="nonzero" fill-opacity="1" /><path clip-path="url(#clip630)" d="M705.266 137.05 L705.266 130.726 Q705.266 130.187 705.29 130 Q705.313 129.812 705.454 129.672 Q705.594 129.531 705.875 129.531 Q706.203 129.531 706.32 129.672 Q706.461 129.812 706.554 130.351 Q707.28 133.654 708.826 135.41 Q710.396 137.144 713.23 137.144 Q715.923 137.144 717.282 135.949 Q718.64 134.755 718.64 132.787 Q718.64 129.274 713.651 128.384 Q710.77 127.798 709.576 127.423 Q708.381 127.025 707.327 126.159 Q705.266 124.472 705.266 122.083 Q705.266 119.694 707.07 117.937 Q708.897 116.181 712.925 116.181 Q715.619 116.181 717.446 117.539 Q717.985 117.118 718.266 116.766 Q718.898 116.181 719.226 116.181 Q719.601 116.181 719.671 116.438 Q719.741 116.672 719.741 117.352 L719.741 122.177 Q719.741 122.715 719.718 122.903 Q719.694 123.09 719.554 123.231 Q719.413 123.348 719.109 123.348 Q718.57 123.348 718.547 122.903 Q718.172 117.094 712.925 117.094 Q710.091 117.094 708.826 118.195 Q707.562 119.272 707.562 120.748 Q707.562 121.568 707.936 122.2 Q708.334 122.809 708.826 123.184 Q709.342 123.535 710.279 123.887 Q711.215 124.215 711.778 124.332 Q712.363 124.449 713.464 124.683 Q717.305 125.409 718.921 126.978 Q720.936 128.993 720.936 131.546 Q720.936 134.38 719.015 136.3 Q717.094 138.221 713.23 138.221 Q710.115 138.221 707.936 136.137 Q707.655 136.418 707.444 136.675 Q707.234 136.909 707.14 137.003 Q707.07 137.097 707.046 137.167 Q707.023 137.214 706.976 137.261 Q706.016 138.221 705.781 138.221 Q705.407 138.221 705.336 137.963 Q705.266 137.729 705.266 137.05 Z" fill="#000000" fill-rule="nonzero" fill-opacity="1" /><path clip-path="url(#clip630)" d="M722.292 118.499 L722.292 117.445 Q724.494 117.352 725.946 115.806 Q727.422 114.237 727.914 112.316 Q728.429 110.395 728.476 108.17 L729.67 108.17 L729.67 117 L736.533 117 L736.533 118.499 L729.67 118.499 L729.67 131.827 Q729.67 137.003 732.903 137.003 Q734.285 137.003 735.198 135.598 Q736.112 134.169 736.112 131.639 L736.112 128.993 L737.306 128.993 L737.306 131.733 Q737.306 134.333 736.112 136.277 Q734.917 138.221 732.551 138.221 Q731.685 138.221 730.818 137.987 Q729.975 137.776 728.851 137.214 Q727.75 136.628 727.047 135.223 Q726.368 133.794 726.368 131.733 L726.368 118.499 L722.292 118.499 Z" fill="#000000" fill-rule="nonzero" fill-opacity="1" /><path clip-path="url(#clip630)" d="M739.534 127.119 Q739.534 122.598 742.439 119.389 Q745.343 116.181 749.512 116.181 Q753.728 116.181 755.907 118.921 Q758.108 121.661 758.108 125.596 Q758.108 126.323 757.921 126.463 Q757.734 126.604 756.914 126.604 L743.516 126.604 Q743.516 131.499 744.968 133.794 Q746.983 137.003 750.379 137.003 Q750.847 137.003 751.41 136.909 Q751.972 136.816 753.119 136.418 Q754.267 135.996 755.274 134.895 Q756.281 133.794 756.867 132.061 Q757.007 131.382 757.476 131.405 Q758.108 131.405 758.108 131.967 Q758.108 132.389 757.64 133.349 Q757.195 134.286 756.328 135.41 Q755.462 136.535 753.775 137.378 Q752.112 138.221 750.098 138.221 Q745.882 138.221 742.696 135.036 Q739.534 131.827 739.534 127.119 M743.563 125.596 L754.946 125.596 Q754.946 124.589 754.759 123.465 Q754.595 122.341 754.08 120.795 Q753.588 119.226 752.417 118.242 Q751.246 117.258 749.512 117.258 Q748.739 117.258 747.896 117.586 Q747.076 117.914 746.069 118.71 Q745.062 119.507 744.359 121.31 Q743.657 123.114 743.563 125.596 Z" fill="#000000" fill-rule="nonzero" fill-opacity="1" /><path clip-path="url(#clip630)" d="M759.663 137.682 L759.663 136.207 Q762.216 136.207 762.801 135.902 Q763.387 135.574 763.387 134.029 L763.387 121.17 Q763.387 119.389 762.755 118.944 Q762.146 118.499 759.663 118.499 L759.663 117 L766.409 116.485 L766.409 121.521 Q768.657 116.485 773.506 116.485 Q779.127 116.485 779.9 121.17 Q780.72 119.343 782.429 117.914 Q784.163 116.485 786.856 116.485 Q790.463 116.485 791.892 118.265 Q792.946 119.46 793.157 120.795 Q793.368 122.13 793.368 125.596 L793.368 134.755 Q793.415 135.762 794.188 135.996 Q794.961 136.207 797.115 136.207 L797.115 137.682 Q792.22 137.542 791.752 137.542 Q791.377 137.542 786.318 137.682 L786.318 136.207 Q788.871 136.207 789.456 135.902 Q790.065 135.574 790.065 134.029 L790.065 122.856 Q790.065 120.42 789.316 118.991 Q788.566 117.539 786.505 117.539 Q784.022 117.539 782.031 119.624 Q780.04 121.708 780.04 125.222 L780.04 134.029 Q780.04 135.574 780.626 135.902 Q781.235 136.207 783.788 136.207 L783.788 137.682 Q778.893 137.542 778.401 137.542 Q778.026 137.542 772.99 137.682 L772.99 136.207 Q775.543 136.207 776.129 135.902 Q776.738 135.574 776.738 134.029 L776.738 122.856 Q776.738 120.42 775.988 118.991 Q775.239 117.539 773.178 117.539 Q770.695 117.539 768.704 119.624 Q766.713 121.708 766.713 125.222 L766.713 134.029 Q766.713 135.574 767.299 135.902 Q767.908 136.207 770.437 136.207 L770.437 137.682 Q765.542 137.542 765.073 137.542 Q764.699 137.542 759.663 137.682 Z" fill="#000000" fill-rule="nonzero" fill-opacity="1" /><path clip-path="url(#clip630)" d="M811.896 137.682 L811.896 136.207 Q814.449 136.207 815.035 135.902 Q815.62 135.574 815.62 134.029 L815.62 109.084 Q815.62 107.304 814.988 106.858 Q814.379 106.413 811.896 106.413 L811.896 104.914 L818.782 104.399 L818.782 134.029 Q818.782 135.574 819.391 135.902 Q820 136.207 822.53 136.207 L822.53 137.682 Q821.944 137.682 820.726 137.636 Q819.508 137.589 818.618 137.565 Q817.728 137.542 817.213 137.542 Q816.651 137.542 811.896 137.682 Z" fill="#000000" fill-rule="nonzero" fill-opacity="1" /><path clip-path="url(#clip630)" d="M829.748 135.106 Q826.586 131.967 826.586 127.423 Q826.586 122.856 829.678 119.53 Q832.793 116.181 837.243 116.181 Q841.6 116.181 844.715 119.507 Q847.854 122.809 847.854 127.423 Q847.854 131.944 844.692 135.083 Q841.553 138.221 837.197 138.221 Q832.934 138.221 829.748 135.106 M830.568 127.025 Q830.568 131.686 831.786 133.794 Q833.66 137.003 837.243 137.003 Q839.024 137.003 840.499 136.043 Q841.998 135.083 842.818 133.466 Q843.872 131.358 843.872 127.025 Q843.872 122.411 842.607 120.373 Q840.733 117.258 837.197 117.258 Q835.651 117.258 834.128 118.078 Q832.629 118.874 831.716 120.467 Q830.568 122.575 830.568 127.025 Z" fill="#000000" fill-rule="nonzero" fill-opacity="1" /><path clip-path="url(#clip630)" d="M850.343 133.115 Q850.343 129.04 855.144 126.885 Q858.025 125.503 863.975 125.151 L863.975 123.395 Q863.975 120.42 862.405 118.851 Q860.859 117.258 858.892 117.258 Q855.379 117.258 853.692 119.46 Q855.121 119.507 855.636 120.233 Q856.152 120.935 856.152 121.661 Q856.152 122.622 855.543 123.254 Q854.957 123.863 853.95 123.863 Q852.989 123.863 852.357 123.278 Q851.725 122.669 851.725 121.615 Q851.725 119.272 853.833 117.726 Q855.964 116.181 858.986 116.181 Q862.921 116.181 865.544 118.827 Q866.364 119.647 866.762 120.701 Q867.183 121.755 867.23 122.458 Q867.277 123.137 867.277 124.496 L867.277 134.075 Q867.277 134.356 867.371 134.825 Q867.465 135.293 867.886 135.902 Q868.331 136.488 869.057 136.488 Q870.791 136.488 870.767 133.42 L870.767 130.726 L871.985 130.726 L871.985 133.42 Q871.985 135.973 870.627 136.98 Q869.292 137.963 868.05 137.963 Q866.457 137.963 865.45 136.792 Q864.443 135.621 864.303 134.029 Q863.576 135.855 861.913 137.05 Q860.274 138.221 858.025 138.221 Q856.292 138.221 854.652 137.776 Q853.036 137.354 851.678 136.16 Q850.343 134.942 850.343 133.115 M854.043 133.068 Q854.043 134.848 855.308 135.996 Q856.573 137.144 858.353 137.144 Q860.368 137.144 862.171 135.598 Q863.975 134.029 863.975 130.96 L863.975 126.159 Q858.658 126.346 856.339 128.477 Q854.043 130.585 854.043 133.068 Z" fill="#000000" fill-rule="nonzero" fill-opacity="1" /><path clip-path="url(#clip630)" d="M874.099 127.377 Q874.099 122.809 877.285 119.647 Q880.47 116.485 884.78 116.485 Q888.434 116.485 890.823 119.46 L890.823 109.084 Q890.823 107.304 890.19 106.858 Q889.581 106.413 887.099 106.413 L887.099 104.914 L894.008 104.399 L894.008 133.513 Q894.008 135.293 894.617 135.762 Q895.25 136.207 897.733 136.207 L897.733 137.682 L890.682 138.221 L890.682 135.036 Q888.2 138.198 884.265 138.221 Q880.142 138.221 877.121 135.059 Q874.099 131.897 874.099 127.377 M878.081 127.423 Q878.081 131.874 879.463 134.075 Q881.384 137.144 884.499 137.144 Q888.059 137.144 890.167 133.794 Q890.706 132.975 890.682 132.014 L890.682 122.177 Q890.682 121.216 890.167 120.42 Q888.2 117.539 884.991 117.539 Q881.641 117.539 879.557 120.607 Q878.081 122.903 878.081 127.423 Z" fill="#000000" fill-rule="nonzero" fill-opacity="1" /><path clip-path="url(#clip630)" d="M1204.16 848.748 L1952.76 848.748 L1952.76 47.2441 L1204.16 47.2441  Z" fill="#ffffff" fill-rule="evenodd" fill-opacity="1"/>
<defs>
  <clipPath id="clip633">
    <rect x="1204" y="47" width="750" height="803"/>
  </clipPath>
</defs>
<polyline clip-path="url(#clip633)" style="stroke:#808080; stroke-linecap:round; stroke-linejoin:round; stroke-width:4; stroke-opacity:0.1; fill:none" points="1194.64,848.748 1194.64,47.2441 "/>
<polyline clip-path="url(#clip633)" style="stroke:#808080; stroke-linecap:round; stroke-linejoin:round; stroke-width:4; stroke-opacity:0.1; fill:none" points="1348.17,848.748 1348.17,47.2441 "/>
<polyline clip-path="url(#clip633)" style="stroke:#808080; stroke-linecap:round; stroke-linejoin:round; stroke-width:4; stroke-opacity:0.1; fill:none" points="1501.69,848.748 1501.69,47.2441 "/>
<polyline clip-path="url(#clip633)" style="stroke:#808080; stroke-linecap:round; stroke-linejoin:round; stroke-width:4; stroke-opacity:0.1; fill:none" points="1655.22,848.748 1655.22,47.2441 "/>
<polyline clip-path="url(#clip633)" style="stroke:#808080; stroke-linecap:round; stroke-linejoin:round; stroke-width:4; stroke-opacity:0.1; fill:none" points="1808.75,848.748 1808.75,47.2441 "/>
<polyline clip-path="url(#clip633)" style="stroke:#808080; stroke-linecap:round; stroke-linejoin:round; stroke-width:4; stroke-opacity:0.1; fill:none" points="1962.27,848.748 1962.27,47.2441 "/>
<polyline clip-path="url(#clip630)" style="stroke:#000000; stroke-linecap:round; stroke-linejoin:round; stroke-width:4; stroke-opacity:1; fill:none" points="1204.16,848.748 1952.76,848.748 "/>
<polyline clip-path="url(#clip630)" style="stroke:#000000; stroke-linecap:round; stroke-linejoin:round; stroke-width:4; stroke-opacity:1; fill:none" points="1204.16,47.2441 1952.76,47.2441 "/>
<polyline clip-path="url(#clip630)" style="stroke:#000000; stroke-linecap:round; stroke-linejoin:round; stroke-width:4; stroke-opacity:1; fill:none" points="1194.64,848.748 1194.64,829.851 "/>
<polyline clip-path="url(#clip630)" style="stroke:#000000; stroke-linecap:round; stroke-linejoin:round; stroke-width:4; stroke-opacity:1; fill:none" points="1348.17,848.748 1348.17,829.851 "/>
<polyline clip-path="url(#clip630)" style="stroke:#000000; stroke-linecap:round; stroke-linejoin:round; stroke-width:4; stroke-opacity:1; fill:none" points="1501.69,848.748 1501.69,829.851 "/>
<polyline clip-path="url(#clip630)" style="stroke:#000000; stroke-linecap:round; stroke-linejoin:round; stroke-width:4; stroke-opacity:1; fill:none" points="1655.22,848.748 1655.22,829.851 "/>
<polyline clip-path="url(#clip630)" style="stroke:#000000; stroke-linecap:round; stroke-linejoin:round; stroke-width:4; stroke-opacity:1; fill:none" points="1808.75,848.748 1808.75,829.851 "/>
<polyline clip-path="url(#clip630)" style="stroke:#000000; stroke-linecap:round; stroke-linejoin:round; stroke-width:4; stroke-opacity:1; fill:none" points="1962.27,848.748 1962.27,829.851 "/>
<g clip-path="url(#clip630)">
<text style="fill:#000000; fill-opacity:1; font-family:Book Antiqua,Palatino,Palatino Linotype,Palatino LT STD,Georgia,serif; font-size:51px; font-weight:bold; text-anchor:middle;" transform="rotate(0, 1194.64, 909.12)" x="1194.64" y="909.12">0</text>
</g>
<g clip-path="url(#clip630)">
<text style="fill:#000000; fill-opacity:1; font-family:Book Antiqua,Palatino,Palatino Linotype,Palatino LT STD,Georgia,serif; font-size:51px; font-weight:bold; text-anchor:middle;" transform="rotate(0, 1348.17, 909.12)" x="1348.17" y="909.12">5</text>
</g>
<g clip-path="url(#clip630)">
<text style="fill:#000000; fill-opacity:1; font-family:Book Antiqua,Palatino,Palatino Linotype,Palatino LT STD,Georgia,serif; font-size:51px; font-weight:bold; text-anchor:middle;" transform="rotate(0, 1501.69, 909.12)" x="1501.69" y="909.12">10</text>
</g>
<g clip-path="url(#clip630)">
<text style="fill:#000000; fill-opacity:1; font-family:Book Antiqua,Palatino,Palatino Linotype,Palatino LT STD,Georgia,serif; font-size:51px; font-weight:bold; text-anchor:middle;" transform="rotate(0, 1655.22, 909.12)" x="1655.22" y="909.12">15</text>
</g>
<g clip-path="url(#clip630)">
<text style="fill:#000000; fill-opacity:1; font-family:Book Antiqua,Palatino,Palatino Linotype,Palatino LT STD,Georgia,serif; font-size:51px; font-weight:bold; text-anchor:middle;" transform="rotate(0, 1808.75, 909.12)" x="1808.75" y="909.12">20</text>
</g>
<g clip-path="url(#clip630)">
<text style="fill:#000000; fill-opacity:1; font-family:Book Antiqua,Palatino,Palatino Linotype,Palatino LT STD,Georgia,serif; font-size:51px; font-weight:bold; text-anchor:middle;" transform="rotate(0, 1962.27, 909.12)" x="1962.27" y="909.12">25</text>
</g>
<path clip-path="url(#clip630)" d="M1551.79 949.641 Q1551.79 950.543 1551.38 950.768 Q1550.96 950.961 1549.8 950.961 L1543.61 950.961 L1538.72 970.414 Q1538.33 972.121 1538.33 973.57 Q1538.33 975.18 1538.82 975.889 Q1539.33 976.597 1540.39 976.597 Q1542.49 976.597 1544.74 974.697 Q1547.03 972.797 1548.96 968.159 Q1549.22 967.547 1549.35 967.419 Q1549.51 967.258 1549.93 967.258 Q1550.73 967.258 1550.73 967.902 Q1550.73 968.127 1550.28 969.158 Q1549.86 970.188 1548.93 971.702 Q1548.03 973.216 1546.83 974.633 Q1545.68 976.05 1543.9 977.08 Q1542.13 978.079 1540.23 978.079 Q1537.56 978.079 1535.85 976.372 Q1534.18 974.665 1534.18 971.992 Q1534.18 971.122 1534.85 968.353 Q1535.53 965.551 1539.2 950.961 L1533.37 950.961 Q1532.57 950.961 1532.25 950.929 Q1531.96 950.897 1531.73 950.736 Q1531.54 950.543 1531.54 950.156 Q1531.54 949.544 1531.79 949.287 Q1532.05 948.997 1532.37 948.965 Q1532.73 948.9 1533.53 948.9 L1539.72 948.9 L1542.29 938.433 Q1542.55 937.403 1543.2 936.823 Q1543.87 936.211 1544.26 936.147 Q1544.64 936.05 1544.93 936.05 Q1545.8 936.05 1546.32 936.533 Q1546.83 936.984 1546.83 937.821 Q1546.83 938.272 1544.13 948.9 L1549.93 948.9 Q1550.67 948.9 1550.96 948.932 Q1551.28 948.965 1551.54 949.126 Q1551.79 949.287 1551.79 949.641 Z" fill="#000000" fill-rule="nonzero" fill-opacity="1" /><path clip-path="url(#clip630)" d="M1555.11 992.893 Q1555.11 992.571 1555.37 991.863 L1578.65 929.641 Q1578.65 929.577 1578.81 929.222 Q1578.97 928.868 1579.07 928.643 Q1579.17 928.385 1579.36 928.192 Q1579.59 927.999 1579.84 927.999 Q1580.49 927.999 1580.49 928.804 Q1580.49 928.868 1580.29 929.641 L1556.94 991.927 Q1556.56 993.054 1556.3 993.377 Q1556.08 993.699 1555.69 993.699 Q1555.11 993.699 1555.11 992.893 Z" fill="#000000" fill-rule="nonzero" fill-opacity="1" /><path clip-path="url(#clip630)" d="M1620.14 967.902 Q1620.14 968.159 1619.85 969.158 Q1619.56 970.156 1618.85 971.702 Q1618.17 973.248 1617.24 974.665 Q1616.31 976.05 1614.76 977.08 Q1613.25 978.079 1611.51 978.079 Q1609.19 978.079 1607.64 976.533 Q1606.1 974.987 1606.1 972.668 Q1606.1 972.346 1606.13 972.024 Q1606.16 971.702 1606.19 971.509 Q1606.23 971.283 1606.32 970.929 Q1606.45 970.543 1606.48 970.382 Q1606.55 970.221 1606.71 969.737 Q1606.9 969.222 1606.97 969.029 Q1611.06 958.594 1611.06 954.246 Q1611.06 949.641 1607.48 949.641 Q1604.29 949.641 1601.14 951.96 Q1599.69 953.119 1598.3 955.18 Q1596.92 957.242 1596.66 958.015 Q1596.37 959.689 1595.95 960.977 Q1595.76 961.879 1594.82 965.39 L1593.38 971.348 L1592.12 976.34 Q1591.86 977.048 1591.15 977.563 Q1590.44 978.079 1589.67 978.079 Q1589.03 978.079 1588.38 977.628 Q1587.77 977.209 1587.77 976.211 Q1587.77 975.696 1588.03 974.762 L1597.59 936.759 L1597.79 935.47 Q1597.79 935.084 1597.63 934.891 Q1597.5 934.665 1596.73 934.504 Q1595.98 934.343 1594.5 934.343 Q1593.89 934.343 1593.6 934.311 Q1593.34 934.279 1593.12 934.118 Q1592.89 933.925 1592.89 933.538 Q1592.89 932.991 1593.12 932.701 Q1593.38 932.379 1593.57 932.314 Q1593.76 932.25 1594.15 932.218 Q1594.7 932.185 1596.53 932.024 Q1598.37 931.831 1599.95 931.702 Q1601.52 931.573 1602.2 931.573 Q1602.59 931.573 1602.78 931.767 Q1603.01 931.928 1603.04 932.121 L1603.07 932.282 L1597.92 953.248 Q1602.01 948.192 1607.68 948.192 Q1611.35 948.192 1613.31 950.092 Q1615.28 951.96 1615.28 955.245 Q1615.28 959.013 1611.25 969.737 Q1610.06 972.733 1610.06 974.439 Q1610.06 975.567 1610.41 976.082 Q1610.8 976.597 1611.64 976.597 Q1612.92 976.597 1614.05 975.857 Q1615.21 975.084 1616.02 973.828 Q1616.82 972.539 1617.37 971.251 Q1617.95 969.931 1618.37 968.449 Q1618.63 967.644 1618.75 967.451 Q1618.91 967.258 1619.37 967.258 Q1620.14 967.258 1620.14 967.902 Z" fill="#000000" fill-rule="nonzero" fill-opacity="1" /><polyline clip-path="url(#clip633)" style="stroke:#808080; stroke-linecap:round; stroke-linejoin:round; stroke-width:4; stroke-opacity:0.1; fill:none" points="1204.16,762.873 1952.76,762.873 "/>
<polyline clip-path="url(#clip633)" style="stroke:#808080; stroke-linecap:round; stroke-linejoin:round; stroke-width:4; stroke-opacity:0.1; fill:none" points="1204.16,619.747 1952.76,619.747 "/>
<polyline clip-path="url(#clip633)" style="stroke:#808080; stroke-linecap:round; stroke-linejoin:round; stroke-width:4; stroke-opacity:0.1; fill:none" points="1204.16,476.621 1952.76,476.621 "/>
<polyline clip-path="url(#clip633)" style="stroke:#808080; stroke-linecap:round; stroke-linejoin:round; stroke-width:4; stroke-opacity:0.1; fill:none" points="1204.16,333.496 1952.76,333.496 "/>
<polyline clip-path="url(#clip633)" style="stroke:#808080; stroke-linecap:round; stroke-linejoin:round; stroke-width:4; stroke-opacity:0.1; fill:none" points="1204.16,190.37 1952.76,190.37 "/>
<polyline clip-path="url(#clip630)" style="stroke:#000000; stroke-linecap:round; stroke-linejoin:round; stroke-width:4; stroke-opacity:1; fill:none" points="1204.16,848.748 1204.16,47.2441 "/>
<polyline clip-path="url(#clip630)" style="stroke:#000000; stroke-linecap:round; stroke-linejoin:round; stroke-width:4; stroke-opacity:1; fill:none" points="1952.76,848.748 1952.76,47.2441 "/>
<polyline clip-path="url(#clip630)" style="stroke:#000000; stroke-linecap:round; stroke-linejoin:round; stroke-width:4; stroke-opacity:1; fill:none" points="1204.16,762.873 1223.06,762.873 "/>
<polyline clip-path="url(#clip630)" style="stroke:#000000; stroke-linecap:round; stroke-linejoin:round; stroke-width:4; stroke-opacity:1; fill:none" points="1204.16,619.747 1223.06,619.747 "/>
<polyline clip-path="url(#clip630)" style="stroke:#000000; stroke-linecap:round; stroke-linejoin:round; stroke-width:4; stroke-opacity:1; fill:none" points="1204.16,476.621 1223.06,476.621 "/>
<polyline clip-path="url(#clip630)" style="stroke:#000000; stroke-linecap:round; stroke-linejoin:round; stroke-width:4; stroke-opacity:1; fill:none" points="1204.16,333.496 1223.06,333.496 "/>
<polyline clip-path="url(#clip630)" style="stroke:#000000; stroke-linecap:round; stroke-linejoin:round; stroke-width:4; stroke-opacity:1; fill:none" points="1204.16,190.37 1223.06,190.37 "/>
<g clip-path="url(#clip630)">
<text style="fill:#000000; fill-opacity:1; font-family:Book Antiqua,Palatino,Palatino Linotype,Palatino LT STD,Georgia,serif; font-size:51px; font-weight:bold; text-anchor:middle;" transform="rotate(0, 1129.75, 780.373)" x="1129.75" y="780.373">0.35</text>
</g>
<g clip-path="url(#clip630)">
<text style="fill:#000000; fill-opacity:1; font-family:Book Antiqua,Palatino,Palatino Linotype,Palatino LT STD,Georgia,serif; font-size:51px; font-weight:bold; text-anchor:middle;" transform="rotate(0, 1129.75, 637.247)" x="1129.75" y="637.247">0.40</text>
</g>
<g clip-path="url(#clip630)">
<text style="fill:#000000; fill-opacity:1; font-family:Book Antiqua,Palatino,Palatino Linotype,Palatino LT STD,Georgia,serif; font-size:51px; font-weight:bold; text-anchor:middle;" transform="rotate(0, 1129.75, 494.121)" x="1129.75" y="494.121">0.45</text>
</g>
<g clip-path="url(#clip630)">
<text style="fill:#000000; fill-opacity:1; font-family:Book Antiqua,Palatino,Palatino Linotype,Palatino LT STD,Georgia,serif; font-size:51px; font-weight:bold; text-anchor:middle;" transform="rotate(0, 1129.75, 350.996)" x="1129.75" y="350.996">0.50</text>
</g>
<g clip-path="url(#clip630)">
<text style="fill:#000000; fill-opacity:1; font-family:Book Antiqua,Palatino,Palatino Linotype,Palatino LT STD,Georgia,serif; font-size:51px; font-weight:bold; text-anchor:middle;" transform="rotate(0, 1129.75, 207.87)" x="1129.75" y="207.87">0.55</text>
</g>
<path clip-path="url(#clip630)" d="M1020.82 650.465 Q1010.74 650.465 1003.72 644.024 Q996.667 637.551 996.667 628.565 Q996.667 619.516 1003.72 613.074 Q1010.77 606.601 1020.82 606.601 Q1030.77 606.601 1037.7 613.074 Q1044.62 619.548 1044.62 628.565 Q1044.62 637.454 1037.73 643.96 Q1030.84 650.465 1020.82 650.465 M1019.89 643.67 Q1026.01 643.67 1030.71 642.221 Q1035.38 640.771 1037.92 638.453 Q1040.47 636.102 1041.69 633.589 Q1042.91 631.077 1042.91 628.501 Q1042.91 625.989 1041.72 623.541 Q1040.53 621.061 1038.02 618.71 Q1035.51 616.359 1030.8 614.878 Q1026.1 613.396 1019.89 613.396 Q1015.06 613.396 1011.19 614.427 Q1007.29 615.458 1004.94 617.068 Q1002.59 618.678 1001.05 620.772 Q999.501 622.833 998.921 624.797 Q998.309 626.73 998.309 628.565 Q998.309 630.884 999.34 633.3 Q1000.37 635.715 1002.66 638.163 Q1004.91 640.578 1009.39 642.124 Q1013.83 643.67 1019.89 643.67 Z" fill="#000000" fill-rule="nonzero" fill-opacity="1" /><path clip-path="url(#clip630)" d="M1016.8 600.245 L1014.73 600.245 L1014.03 590.551 L1035.93 590.551 Q1037.5 590.551 1038.44 590.422 Q1039.34 590.293 1040.4 589.778 Q1041.47 589.23 1041.95 588.007 Q1042.43 586.751 1042.43 584.754 Q1042.43 581.179 1039.5 578.989 Q1036.57 576.767 1032.22 576.767 L1020.47 576.767 Q1018.02 576.767 1017.41 577.636 Q1016.8 578.506 1016.8 581.92 L1014.73 581.92 L1014.03 572.226 L1037.44 572.226 Q1039.89 572.226 1040.53 571.388 Q1041.14 570.519 1041.14 567.073 L1043.17 567.073 L1043.91 576.574 L1037.95 576.574 Q1043.88 579.343 1043.91 585.076 Q1043.91 587.974 1043.17 589.971 Q1042.43 591.936 1041.53 592.934 Q1040.6 593.933 1038.82 594.48 Q1037.05 594.995 1035.96 595.06 Q1034.86 595.124 1032.74 595.124 L1022.85 595.124 Q1018.37 595.124 1017.6 595.768 Q1016.8 596.412 1016.8 600.245 Z" fill="#000000" fill-rule="nonzero" fill-opacity="1" /><path clip-path="url(#clip630)" d="M1016.8 564.802 L1015.35 564.802 Q1015.22 561.774 1013.09 559.778 Q1010.93 557.749 1008.29 557.072 Q1005.65 556.364 1002.59 556.299 L1002.59 554.657 L1014.73 554.657 L1014.73 545.22 L1016.8 545.22 L1016.8 554.657 L1035.12 554.657 Q1042.24 554.657 1042.24 550.212 Q1042.24 548.312 1040.31 547.056 Q1038.34 545.8 1034.86 545.8 L1031.22 545.8 L1031.22 544.158 L1034.99 544.158 Q1038.57 544.158 1041.24 545.8 Q1043.91 547.443 1043.91 550.695 Q1043.91 551.887 1043.59 553.079 Q1043.3 554.238 1042.53 555.784 Q1041.72 557.298 1039.79 558.264 Q1037.83 559.198 1034.99 559.198 L1016.8 559.198 L1016.8 564.802 Z" fill="#000000" fill-rule="nonzero" fill-opacity="1" /><path clip-path="url(#clip630)" d="M1053.93 543.963 Q1053.93 540.453 1053.48 539.648 Q1053.06 538.81 1050.97 538.81 L1020.08 538.81 Q1017.89 538.81 1017.34 539.648 Q1016.8 540.453 1016.8 543.963 L1014.73 543.963 L1014.03 534.463 L1018.37 534.463 Q1014.03 530.501 1014.03 525.219 Q1014.03 519.616 1018.37 515.525 Q1022.72 511.435 1028.94 511.435 Q1035.22 511.435 1039.56 515.783 Q1043.91 520.131 1043.91 526.153 Q1043.91 529.438 1042.24 531.661 Q1040.53 533.851 1039.28 534.269 L1039.89 534.269 L1050.97 534.269 Q1053.09 534.269 1053.51 533.432 Q1053.93 532.595 1053.93 529.116 L1055.96 529.116 Q1055.76 536.041 1055.76 536.556 Q1055.76 537.2 1055.96 543.963 L1053.93 543.963 M1035.67 534.269 Q1036.67 534.269 1037.02 534.14 Q1037.37 533.979 1038.44 533.335 Q1042.43 530.727 1042.43 526.475 Q1042.43 526.443 1042.43 526.411 Q1042.43 522.643 1038.6 519.777 Q1034.73 516.91 1028.94 516.91 Q1023.4 516.91 1019.53 519.519 Q1015.67 522.128 1015.67 525.735 Q1015.67 528.311 1017.05 530.566 Q1018.44 532.82 1020.95 534.269 L1035.67 534.269 Z" fill="#000000" fill-rule="nonzero" fill-opacity="1" /><path clip-path="url(#clip630)" d="M1016.8 503.504 L1014.73 503.504 L1014.03 493.81 L1035.93 493.81 Q1037.5 493.81 1038.44 493.681 Q1039.34 493.552 1040.4 493.037 Q1041.47 492.49 1041.95 491.266 Q1042.43 490.01 1042.43 488.013 Q1042.43 484.438 1039.5 482.248 Q1036.57 480.026 1032.22 480.026 L1020.47 480.026 Q1018.02 480.026 1017.41 480.895 Q1016.8 481.765 1016.8 485.179 L1014.73 485.179 L1014.03 475.485 L1037.44 475.485 Q1039.89 475.485 1040.53 474.648 Q1041.14 473.778 1041.14 470.332 L1043.17 470.332 L1043.91 479.833 L1037.95 479.833 Q1043.88 482.602 1043.91 488.335 Q1043.91 491.234 1043.17 493.23 Q1042.43 495.195 1041.53 496.193 Q1040.6 497.192 1038.82 497.739 Q1037.05 498.254 1035.96 498.319 Q1034.86 498.383 1032.74 498.383 L1022.85 498.383 Q1018.37 498.383 1017.6 499.027 Q1016.8 499.671 1016.8 503.504 Z" fill="#000000" fill-rule="nonzero" fill-opacity="1" /><path clip-path="url(#clip630)" d="M1016.8 468.061 L1015.35 468.061 Q1015.22 465.033 1013.09 463.037 Q1010.93 461.008 1008.29 460.331 Q1005.65 459.623 1002.59 459.558 L1002.59 457.916 L1014.73 457.916 L1014.73 448.48 L1016.8 448.48 L1016.8 457.916 L1035.12 457.916 Q1042.24 457.916 1042.24 453.471 Q1042.24 451.571 1040.31 450.315 Q1038.34 449.059 1034.86 449.059 L1031.22 449.059 L1031.22 447.417 L1034.99 447.417 Q1038.57 447.417 1041.24 449.059 Q1043.91 450.702 1043.91 453.955 Q1043.91 455.146 1043.59 456.338 Q1043.3 457.497 1042.53 459.043 Q1041.72 460.557 1039.79 461.523 Q1037.83 462.457 1034.99 462.457 L1016.8 462.457 L1016.8 468.061 Z" fill="#000000" fill-rule="nonzero" fill-opacity="1" /><path clip-path="url(#clip630)" d="M1058.73 425.305 Q1058.41 425.305 1057.7 425.047 L995.475 401.762 Q995.411 401.762 995.056 401.601 Q994.702 401.44 994.477 401.343 Q994.219 401.247 994.026 401.053 Q993.833 400.828 993.833 400.57 Q993.833 399.926 994.638 399.926 Q994.702 399.926 995.475 400.12 L1057.76 423.469 Q1058.89 423.855 1059.21 424.113 Q1059.53 424.338 1059.53 424.725 Q1059.53 425.305 1058.73 425.305 Z" fill="#000000" fill-rule="nonzero" fill-opacity="1" /><path clip-path="url(#clip630)" d="M1053.93 375.212 Q1053.93 371.701 1053.48 370.896 Q1053.06 370.059 1050.97 370.059 L1020.08 370.059 Q1017.89 370.059 1017.34 370.896 Q1016.8 371.701 1016.8 375.212 L1014.73 375.212 L1014.03 365.711 L1018.37 365.711 Q1014.03 361.75 1014.03 356.468 Q1014.03 350.864 1018.37 346.774 Q1022.72 342.684 1028.94 342.684 Q1035.22 342.684 1039.56 347.032 Q1043.91 351.38 1043.91 357.402 Q1043.91 360.687 1042.24 362.909 Q1040.53 365.099 1039.28 365.518 L1039.89 365.518 L1050.97 365.518 Q1053.09 365.518 1053.51 364.681 Q1053.93 363.843 1053.93 360.365 L1055.96 360.365 Q1055.76 367.289 1055.76 367.805 Q1055.76 368.449 1055.96 375.212 L1053.93 375.212 M1035.67 365.518 Q1036.67 365.518 1037.02 365.389 Q1037.37 365.228 1038.44 364.584 Q1042.43 361.975 1042.43 357.724 Q1042.43 357.692 1042.43 357.66 Q1042.43 353.892 1038.6 351.025 Q1034.73 348.159 1028.94 348.159 Q1023.4 348.159 1019.53 350.768 Q1015.67 353.376 1015.67 356.983 Q1015.67 359.56 1017.05 361.814 Q1018.44 364.069 1020.95 365.518 L1035.67 365.518 Z" fill="#000000" fill-rule="nonzero" fill-opacity="1" /><path clip-path="url(#clip630)" d="M1042.11 337.978 Q1041.05 338.977 1039.66 338.977 Q1038.28 338.977 1037.28 337.978 Q1036.25 336.98 1036.25 335.466 Q1036.25 334.017 1037.21 333.051 Q1038.15 332.052 1039.69 332.052 Q1041.21 332.052 1042.21 333.115 Q1043.17 334.146 1043.17 335.466 Q1043.17 336.98 1042.11 337.978 Z" fill="#000000" fill-rule="nonzero" fill-opacity="1" /><path clip-path="url(#clip630)" d="M1016.8 310.369 L1014.73 310.369 L1014.03 300.676 L1035.93 300.676 Q1037.5 300.676 1038.44 300.547 Q1039.34 300.418 1040.4 299.903 Q1041.47 299.355 1041.95 298.131 Q1042.43 296.875 1042.43 294.878 Q1042.43 291.304 1039.5 289.114 Q1036.57 286.891 1032.22 286.891 L1020.47 286.891 Q1018.02 286.891 1017.41 287.761 Q1016.8 288.631 1016.8 292.044 L1014.73 292.044 L1014.03 282.35 L1037.44 282.35 Q1039.89 282.35 1040.53 281.513 Q1041.14 280.643 1041.14 277.197 L1043.17 277.197 L1043.91 286.698 L1037.95 286.698 Q1043.88 289.468 1043.91 295.201 Q1043.91 298.099 1043.17 300.096 Q1042.43 302.06 1041.53 303.059 Q1040.6 304.057 1038.82 304.605 Q1037.05 305.12 1035.96 305.184 Q1034.86 305.249 1032.74 305.249 L1022.85 305.249 Q1018.37 305.249 1017.6 305.893 Q1016.8 306.537 1016.8 310.369 Z" fill="#000000" fill-rule="nonzero" fill-opacity="1" /><path clip-path="url(#clip630)" d="M1042.11 273.136 Q1041.05 274.134 1039.66 274.134 Q1038.28 274.134 1037.28 273.136 Q1036.25 272.137 1036.25 270.624 Q1036.25 269.175 1037.21 268.208 Q1038.15 267.21 1039.69 267.21 Q1041.21 267.21 1042.21 268.273 Q1043.17 269.303 1043.17 270.624 Q1043.17 272.137 1042.11 273.136 Z" fill="#000000" fill-rule="nonzero" fill-opacity="1" /><polyline clip-path="url(#clip633)" style="stroke:#6495ed; stroke-linecap:round; stroke-linejoin:round; stroke-width:1; stroke-opacity:1; fill:none" points="1225.35,542.765 1256.05,397.254 1286.76,611.389 1317.46,573.871 1348.17,619.617 1378.87,728.776 1409.58,529.605 1440.28,531.757 1470.99,482.667 1501.69,460.509 1532.4,459.995 1563.11,501.768 1593.81,446.457 1624.52,548.133 1655.22,457.068 1685.93,471.039 1716.63,457.807 1747.34,498.086 1778.04,581.324 1808.75,583.666 1839.45,417.469 1870.16,500.611 1900.86,487.392 1931.57,581.672 "/>
<polyline clip-path="url(#clip633)" style="stroke:#6495ed; stroke-linecap:round; stroke-linejoin:round; stroke-width:1; stroke-opacity:1; fill:none" points="1225.35,504.766 1256.05,499.136 1286.76,495.984 1317.46,532.938 1348.17,556.839 1378.87,713.27 1409.58,398.51 1440.28,538.414 1470.99,457.351 1501.69,505.688 1532.4,517.448 1563.11,483.567 1593.81,466.779 1624.52,505.685 1655.22,384.866 1685.93,414.679 1716.63,511.206 1747.34,537.369 1778.04,545.591 1808.75,580.684 1839.45,351.82 1870.16,480.265 1900.86,491.534 1931.57,452.763 "/>
<polyline clip-path="url(#clip633)" style="stroke:#6495ed; stroke-linecap:round; stroke-linejoin:round; stroke-width:1; stroke-opacity:1; fill:none" points="1225.35,523.412 1256.05,571.761 1286.76,475.61 1317.46,536.022 1348.17,580.027 1378.87,683.643 1409.58,611.586 1440.28,414.101 1470.99,483.031 1501.69,440.828 1532.4,498.048 1563.11,472.806 1593.81,507.303 1624.52,521.645 1655.22,413.548 1685.93,478.681 1716.63,498.227 1747.34,497.977 1778.04,533.184 1808.75,422.399 1839.45,396.241 1870.16,391.398 1900.86,469.767 1931.57,507.436 "/>
<polyline clip-path="url(#clip633)" style="stroke:#6495ed; stroke-linecap:round; stroke-linejoin:round; stroke-width:1; stroke-opacity:1; fill:none" points="1225.35,490.398 1256.05,443.308 1286.76,497.642 1317.46,546.566 1348.17,524.508 1378.87,650.406 1409.58,522.072 1440.28,520.384 1470.99,483.087 1501.69,481.634 1532.4,523.515 1563.11,535.404 1593.81,461.376 1624.52,508.027 1655.22,463.329 1685.93,476.372 1716.63,446.007 1747.34,562.583 1778.04,545.621 1808.75,567.152 1839.45,382.372 1870.16,466.084 1900.86,460.538 1931.57,537.866 "/>
<polyline clip-path="url(#clip633)" style="stroke:#6495ed; stroke-linecap:round; stroke-linejoin:round; stroke-width:1; stroke-opacity:1; fill:none" points="1225.35,454.987 1256.05,529.106 1286.76,585.859 1317.46,594.179 1348.17,487.312 1378.87,670.276 1409.58,515.612 1440.28,520.854 1470.99,471.357 1501.69,494.192 1532.4,538.335 1563.11,508.175 1593.81,511.381 1624.52,542.435 1655.22,468.778 1685.93,481.38 1716.63,535.537 1747.34,559.794 1778.04,538.729 1808.75,480.287 1839.45,447.477 1870.16,479.879 1900.86,460.429 1931.57,559.488 "/>
<polyline clip-path="url(#clip633)" style="stroke:#6495ed; stroke-linecap:round; stroke-linejoin:round; stroke-width:1; stroke-opacity:1; fill:none" points="1225.35,488.945 1256.05,467.705 1286.76,512.374 1317.46,466.755 1348.17,547.743 1378.87,650.165 1409.58,528.443 1440.28,532.85 1470.99,435.159 1501.69,556.039 1532.4,505.626 1563.11,554.512 1593.81,444.251 1624.52,577.76 1655.22,475.469 1685.93,417.172 1716.63,486.383 1747.34,528.767 1778.04,544.127 1808.75,543.553 1839.45,371.045 1870.16,523.097 1900.86,487.541 1931.57,547.711 "/>
<polyline clip-path="url(#clip633)" style="stroke:#6495ed; stroke-linecap:round; stroke-linejoin:round; stroke-width:1; stroke-opacity:1; fill:none" points="1225.35,532.492 1256.05,518.833 1286.76,519.982 1317.46,472.83 1348.17,556.17 1378.87,723.172 1409.58,535.572 1440.28,526.967 1470.99,499.363 1501.69,536.64 1532.4,543.129 1563.11,539.713 1593.81,485.018 1624.52,520.844 1655.22,466.681 1685.93,432.301 1716.63,527.317 1747.34,538.321 1778.04,516.67 1808.75,505.543 1839.45,400.917 1870.16,474.931 1900.86,494.456 1931.57,551.336 "/>
<polyline clip-path="url(#clip633)" style="stroke:#6495ed; stroke-linecap:round; stroke-linejoin:round; stroke-width:1; stroke-opacity:1; fill:none" points="1225.35,465.47 1256.05,474.645 1286.76,521.326 1317.46,539.578 1348.17,592.652 1378.87,708.745 1409.58,497.202 1440.28,552.492 1470.99,502.391 1501.69,523.086 1532.4,525.783 1563.11,560.823 1593.81,438.195 1624.52,434.848 1655.22,433.743 1685.93,436.352 1716.63,510.274 1747.34,528.629 1778.04,550.281 1808.75,506.425 1839.45,351.183 1870.16,480.362 1900.86,478.842 1931.57,615.793 "/>
<polyline clip-path="url(#clip633)" style="stroke:#6495ed; stroke-linecap:round; stroke-linejoin:round; stroke-width:1; stroke-opacity:1; fill:none" points="1225.35,487.681 1256.05,444.532 1286.76,512.545 1317.46,522.864 1348.17,594.934 1378.87,645.267 1409.58,549.958 1440.28,593.173 1470.99,482.045 1501.69,475.661 1532.4,506.42 1563.11,429.979 1593.81,465.641 1624.52,570.824 1655.22,493.345 1685.93,468.56 1716.63,465.062 1747.34,489.427 1778.04,539.355 1808.75,540.171 1839.45,405.476 1870.16,520.454 1900.86,495.042 1931.57,430.906 "/>
<polyline clip-path="url(#clip633)" style="stroke:#6495ed; stroke-linecap:round; stroke-linejoin:round; stroke-width:1; stroke-opacity:1; fill:none" points="1225.35,503.009 1256.05,521.279 1286.76,540.966 1317.46,538.409 1348.17,563.52 1378.87,713.461 1409.58,479.736 1440.28,550.736 1470.99,514.744 1501.69,482.003 1532.4,532.522 1563.11,560.79 1593.81,379.163 1624.52,557.504 1655.22,435.749 1685.93,476.433 1716.63,496.57 1747.34,558.907 1778.04,596.536 1808.75,569.767 1839.45,399.058 1870.16,480.999 1900.86,483.533 1931.57,561.146 "/>
<polyline clip-path="url(#clip633)" style="stroke:#6495ed; stroke-linecap:round; stroke-linejoin:round; stroke-width:1; stroke-opacity:1; fill:none" points="1225.35,524.378 1256.05,468.136 1286.76,514.236 1317.46,506.378 1348.17,530.453 1378.87,690.166 1409.58,616.182 1440.28,514.215 1470.99,475.947 1501.69,464.549 1532.4,590.087 1563.11,526.105 1593.81,417.317 1624.52,447.899 1655.22,379.644 1685.93,461.999 1716.63,544.158 1747.34,491.311 1778.04,575.796 1808.75,558.632 1839.45,429.235 1870.16,388.7 1900.86,495.219 1931.57,546.423 "/>
<polyline clip-path="url(#clip633)" style="stroke:#6495ed; stroke-linecap:round; stroke-linejoin:round; stroke-width:1; stroke-opacity:1; fill:none" points="1225.35,504.145 1256.05,457.362 1286.76,445.179 1317.46,415.66 1348.17,539.88 1378.87,672.452 1409.58,545.14 1440.28,513.524 1470.99,492.941 1501.69,456.021 1532.4,548.757 1563.11,539.899 1593.81,508.229 1624.52,522.966 1655.22,464.031 1685.93,470.263 1716.63,511.443 1747.34,524.966 1778.04,486.884 1808.75,569.159 1839.45,360.844 1870.16,461.19 1900.86,515.443 1931.57,523.133 "/>
<polyline clip-path="url(#clip633)" style="stroke:#6495ed; stroke-linecap:round; stroke-linejoin:round; stroke-width:1; stroke-opacity:1; fill:none" points="1225.35,509.361 1256.05,553.568 1286.76,454.83 1317.46,540.603 1348.17,560.378 1378.87,620.32 1409.58,574.919 1440.28,499.377 1470.99,469.577 1501.69,454.621 1532.4,573.674 1563.11,484.17 1593.81,455.235 1624.52,524.533 1655.22,454.675 1685.93,501.133 1716.63,507.264 1747.34,548.888 1778.04,545.549 1808.75,586.726 1839.45,427.357 1870.16,504.777 1900.86,484.691 1931.57,578.788 "/>
<polyline clip-path="url(#clip633)" style="stroke:#6495ed; stroke-linecap:round; stroke-linejoin:round; stroke-width:1; stroke-opacity:1; fill:none" points="1225.35,577.657 1256.05,484.348 1286.76,540.6 1317.46,654.834 1348.17,579.106 1378.87,769.606 1409.58,624.585 1440.28,492.383 1470.99,478.383 1501.69,541.646 1532.4,493.499 1563.11,538.936 1593.81,481.283 1624.52,527.756 1655.22,465.866 1685.93,458.763 1716.63,518.272 1747.34,553.4 1778.04,479.465 1808.75,560.632 1839.45,485.444 1870.16,384.197 1900.86,402.028 1931.57,561.48 "/>
<polyline clip-path="url(#clip633)" style="stroke:#6495ed; stroke-linecap:round; stroke-linejoin:round; stroke-width:1; stroke-opacity:1; fill:none" points="1225.35,507.728 1256.05,535.441 1286.76,510.876 1317.46,509.81 1348.17,577.302 1378.87,665.697 1409.58,586.01 1440.28,564.362 1470.99,513.283 1501.69,487.467 1532.4,541.973 1563.11,520.9 1593.81,457.405 1624.52,578.692 1655.22,468.439 1685.93,431.097 1716.63,538.739 1747.34,560.097 1778.04,494.259 1808.75,565.911 1839.45,317.055 1870.16,537.478 1900.86,473.193 1931.57,493.759 "/>
<polyline clip-path="url(#clip633)" style="stroke:#6495ed; stroke-linecap:round; stroke-linejoin:round; stroke-width:1; stroke-opacity:1; fill:none" points="1225.35,516.248 1256.05,588.181 1286.76,562.597 1317.46,529.874 1348.17,535.684 1378.87,725.049 1409.58,534.507 1440.28,513.866 1470.99,490.276 1501.69,465.962 1532.4,530.768 1563.11,460.972 1593.81,423.201 1624.52,491.522 1655.22,459.813 1685.93,485.972 1716.63,446.02 1747.34,675.249 1778.04,482.375 1808.75,547.02 1839.45,453.67 1870.16,517.072 1900.86,500.542 1931.57,541.626 "/>
<polyline clip-path="url(#clip633)" style="stroke:#6495ed; stroke-linecap:round; stroke-linejoin:round; stroke-width:1; stroke-opacity:1; fill:none" points="1225.35,595.803 1256.05,734.69 1286.76,504.809 1317.46,492.608 1348.17,576.23 1378.87,685.28 1409.58,562.492 1440.28,525.142 1470.99,469.961 1501.69,469.58 1532.4,593.723 1563.11,512.566 1593.81,488.396 1624.52,597.903 1655.22,451.489 1685.93,379.422 1716.63,489.029 1747.34,539.288 1778.04,556.879 1808.75,593.476 1839.45,387.324 1870.16,484.633 1900.86,554.402 1931.57,590.562 "/>
<polyline clip-path="url(#clip633)" style="stroke:#6495ed; stroke-linecap:round; stroke-linejoin:round; stroke-width:1; stroke-opacity:1; fill:none" points="1225.35,480.47 1256.05,556.272 1286.76,523.422 1317.46,583.845 1348.17,504.08 1378.87,641.859 1409.58,575.531 1440.28,526.079 1470.99,463.708 1501.69,436.718 1532.4,523.155 1563.11,527.879 1593.81,465.442 1624.52,533.129 1655.22,411.766 1685.93,456.35 1716.63,539.453 1747.34,537.06 1778.04,560.579 1808.75,546.435 1839.45,395.78 1870.16,527.274 1900.86,491.814 1931.57,543.912 "/>
<polyline clip-path="url(#clip633)" style="stroke:#6495ed; stroke-linecap:round; stroke-linejoin:round; stroke-width:1; stroke-opacity:1; fill:none" points="1225.35,459.928 1256.05,498.91 1286.76,525.837 1317.46,549.597 1348.17,572.51 1378.87,668.789 1409.58,545.668 1440.28,491.273 1470.99,478.515 1501.69,448.731 1532.4,652.482 1563.11,531.365 1593.81,536.934 1624.52,501.265 1655.22,443.795 1685.93,451.8 1716.63,592.234 1747.34,424.537 1778.04,477.284 1808.75,630.699 1839.45,410.948 1870.16,491.988 1900.86,466.412 1931.57,600.348 "/>
<polyline clip-path="url(#clip633)" style="stroke:#6495ed; stroke-linecap:round; stroke-linejoin:round; stroke-width:1; stroke-opacity:1; fill:none" points="1225.35,557.253 1256.05,456.507 1286.76,591.157 1317.46,564.701 1348.17,547.579 1378.87,735.226 1409.58,563.799 1440.28,504.604 1470.99,458.21 1501.69,427.971 1532.4,633.337 1563.11,479.896 1593.81,421.151 1624.52,557.053 1655.22,414.522 1685.93,406.464 1716.63,493.004 1747.34,534.258 1778.04,593.831 1808.75,512.239 1839.45,399.453 1870.16,501.531 1900.86,511.806 1931.57,542.415 "/>
<polyline clip-path="url(#clip633)" style="stroke:#6495ed; stroke-linecap:round; stroke-linejoin:round; stroke-width:1; stroke-opacity:1; fill:none" points="1225.35,491.766 1256.05,449.847 1286.76,407.175 1317.46,452.725 1348.17,557.757 1378.87,695.075 1409.58,516.29 1440.28,565.265 1470.99,472.752 1501.69,471.304 1532.4,493.778 1563.11,523.514 1593.81,454.075 1624.52,529.676 1655.22,405.734 1685.93,477.493 1716.63,589.68 1747.34,534.811 1778.04,533.848 1808.75,535.211 1839.45,410.89 1870.16,504.86 1900.86,327.84 1931.57,540.48 "/>
<polyline clip-path="url(#clip633)" style="stroke:#6495ed; stroke-linecap:round; stroke-linejoin:round; stroke-width:1; stroke-opacity:1; fill:none" points="1225.35,391.19 1256.05,506.549 1286.76,455.829 1317.46,538.269 1348.17,569.534 1378.87,645.285 1409.58,555.254 1440.28,491.894 1470.99,480.474 1501.69,388.743 1532.4,524.265 1563.11,479.063 1593.81,447.03 1624.52,542.811 1655.22,496.023 1685.93,549.641 1716.63,549.83 1747.34,516.539 1778.04,595.614 1808.75,533.178 1839.45,355.696 1870.16,467.725 1900.86,511.525 1931.57,541.835 "/>
<polyline clip-path="url(#clip633)" style="stroke:#6495ed; stroke-linecap:round; stroke-linejoin:round; stroke-width:1; stroke-opacity:1; fill:none" points="1225.35,527.255 1256.05,467.708 1286.76,516.674 1317.46,553.295 1348.17,530.634 1378.87,772.756 1409.58,570.229 1440.28,505.981 1470.99,467.7 1501.69,433.65 1532.4,552.783 1563.11,479.905 1593.81,486.584 1624.52,558.731 1655.22,407.926 1685.93,462.508 1716.63,411.255 1747.34,543.481 1778.04,541.289 1808.75,554.064 1839.45,412.521 1870.16,485.649 1900.86,467.192 1931.57,563.145 "/>
<polyline clip-path="url(#clip633)" style="stroke:#6495ed; stroke-linecap:round; stroke-linejoin:round; stroke-width:1; stroke-opacity:1; fill:none" points="1225.35,444.58 1256.05,481.137 1286.76,533.627 1317.46,590.637 1348.17,626.959 1378.87,771.154 1409.58,564.168 1440.28,501.273 1470.99,459.784 1501.69,497.801 1532.4,552.035 1563.11,513.117 1593.81,365.92 1624.52,608.012 1655.22,426.147 1685.93,497.315 1716.63,564.875 1747.34,520.916 1778.04,543.909 1808.75,540.061 1839.45,400.789 1870.16,607.005 1900.86,461.354 1931.57,537.569 "/>
<polyline clip-path="url(#clip633)" style="stroke:#6495ed; stroke-linecap:round; stroke-linejoin:round; stroke-width:1; stroke-opacity:1; fill:none" points="1225.35,534.66 1256.05,483.734 1286.76,505.346 1317.46,512.804 1348.17,577.296 1378.87,702.715 1409.58,490.075 1440.28,382.816 1470.99,614.305 1501.69,512.87 1532.4,550.787 1563.11,525.421 1593.81,459.797 1624.52,536.413 1655.22,434.832 1685.93,464.864 1716.63,462.247 1747.34,488.127 1778.04,557.672 1808.75,552.619 1839.45,385.11 1870.16,400.655 1900.86,547.641 1931.57,580.918 "/>
<polyline clip-path="url(#clip633)" style="stroke:#6495ed; stroke-linecap:round; stroke-linejoin:round; stroke-width:1; stroke-opacity:1; fill:none" points="1225.35,435.105 1256.05,482.363 1286.76,481.531 1317.46,523.997 1348.17,506.79 1378.87,720.545 1409.58,562.378 1440.28,542.514 1470.99,461.229 1501.69,407.675 1532.4,496.625 1563.11,567.843 1593.81,505.801 1624.52,544.351 1655.22,395.392 1685.93,405.024 1716.63,478.453 1747.34,538.493 1778.04,521.585 1808.75,558.811 1839.45,378.761 1870.16,524.568 1900.86,516.598 1931.57,549.383 "/>
<polyline clip-path="url(#clip633)" style="stroke:#6495ed; stroke-linecap:round; stroke-linejoin:round; stroke-width:1; stroke-opacity:1; fill:none" points="1225.35,536.147 1256.05,428.139 1286.76,531.852 1317.46,542.122 1348.17,567.101 1378.87,671.752 1409.58,478.43 1440.28,517.608 1470.99,470.45 1501.69,457.513 1532.4,626.372 1563.11,505.041 1593.81,474.359 1624.52,537.465 1655.22,483.38 1685.93,490.84 1716.63,508.9 1747.34,500.533 1778.04,537.853 1808.75,480.295 1839.45,346.414 1870.16,479.921 1900.86,453.107 1931.57,619.602 "/>
<polyline clip-path="url(#clip633)" style="stroke:#6495ed; stroke-linecap:round; stroke-linejoin:round; stroke-width:1; stroke-opacity:1; fill:none" points="1225.35,470.927 1256.05,488.025 1286.76,481.635 1317.46,541.034 1348.17,541.973 1378.87,648.449 1409.58,587.178 1440.28,495.714 1470.99,500.13 1501.69,500.301 1532.4,495.323 1563.11,531.178 1593.81,473.156 1624.52,520.74 1655.22,456.111 1685.93,448.822 1716.63,509.049 1747.34,473.654 1778.04,536.691 1808.75,558.45 1839.45,338.392 1870.16,502.575 1900.86,484.212 1931.57,439.563 "/>
<polyline clip-path="url(#clip633)" style="stroke:#6495ed; stroke-linecap:round; stroke-linejoin:round; stroke-width:1; stroke-opacity:1; fill:none" points="1225.35,496.052 1256.05,505.629 1286.76,469.174 1317.46,582.386 1348.17,516.836 1378.87,674.96 1409.58,591.626 1440.28,519.062 1470.99,471.083 1501.69,505.94 1532.4,535.52 1563.11,511.216 1593.81,459.752 1624.52,498.981 1655.22,410.956 1685.93,543.781 1716.63,499.338 1747.34,533.732 1778.04,547.778 1808.75,542.882 1839.45,403.573 1870.16,531.242 1900.86,448.317 1931.57,518.672 "/>
<polyline clip-path="url(#clip633)" style="stroke:#6495ed; stroke-linecap:round; stroke-linejoin:round; stroke-width:1; stroke-opacity:1; fill:none" points="1225.35,491.157 1256.05,554.777 1286.76,512.981 1317.46,543.799 1348.17,624.839 1378.87,707.669 1409.58,559.296 1440.28,507.141 1470.99,440.57 1501.69,513.086 1532.4,459.366 1563.11,495.006 1593.81,482.587 1624.52,602.95 1655.22,433.075 1685.93,508.801 1716.63,494.798 1747.34,532.194 1778.04,566.093 1808.75,627.789 1839.45,398.153 1870.16,401.748 1900.86,520.195 1931.57,561.928 "/>
<polyline clip-path="url(#clip633)" style="stroke:#ffa500; stroke-linecap:round; stroke-linejoin:round; stroke-width:16; stroke-opacity:1; fill:none" points="1225.35,391.19 1256.05,397.254 1286.76,407.175 1317.46,415.66 1348.17,487.312 1378.87,620.32 1409.58,398.51 1440.28,382.816 1470.99,435.159 1501.69,388.743 1532.4,459.366 1563.11,429.979 1593.81,365.92 1624.52,434.848 1655.22,379.644 1685.93,379.422 1716.63,411.255 1747.34,424.537 1778.04,477.284 1808.75,422.399 1839.45,317.055 1870.16,384.197 1900.86,327.84 1931.57,430.906 "/>
<circle clip-path="url(#clip633)" cx="1225.35" cy="391.19" r="7.2" fill="#dd64b5" fill-rule="evenodd" fill-opacity="1" stroke="#000000" stroke-opacity="1" stroke-width="2"/>
<circle clip-path="url(#clip633)" cx="1256.05" cy="397.254" r="7.2" fill="#dd64b5" fill-rule="evenodd" fill-opacity="1" stroke="#000000" stroke-opacity="1" stroke-width="2"/>
<circle clip-path="url(#clip633)" cx="1286.76" cy="407.175" r="7.2" fill="#dd64b5" fill-rule="evenodd" fill-opacity="1" stroke="#000000" stroke-opacity="1" stroke-width="2"/>
<circle clip-path="url(#clip633)" cx="1317.46" cy="415.66" r="7.2" fill="#dd64b5" fill-rule="evenodd" fill-opacity="1" stroke="#000000" stroke-opacity="1" stroke-width="2"/>
<circle clip-path="url(#clip633)" cx="1348.17" cy="487.312" r="7.2" fill="#dd64b5" fill-rule="evenodd" fill-opacity="1" stroke="#000000" stroke-opacity="1" stroke-width="2"/>
<circle clip-path="url(#clip633)" cx="1378.87" cy="620.32" r="7.2" fill="#dd64b5" fill-rule="evenodd" fill-opacity="1" stroke="#000000" stroke-opacity="1" stroke-width="2"/>
<circle clip-path="url(#clip633)" cx="1409.58" cy="398.51" r="7.2" fill="#dd64b5" fill-rule="evenodd" fill-opacity="1" stroke="#000000" stroke-opacity="1" stroke-width="2"/>
<circle clip-path="url(#clip633)" cx="1440.28" cy="382.816" r="7.2" fill="#dd64b5" fill-rule="evenodd" fill-opacity="1" stroke="#000000" stroke-opacity="1" stroke-width="2"/>
<circle clip-path="url(#clip633)" cx="1470.99" cy="435.159" r="7.2" fill="#dd64b5" fill-rule="evenodd" fill-opacity="1" stroke="#000000" stroke-opacity="1" stroke-width="2"/>
<circle clip-path="url(#clip633)" cx="1501.69" cy="388.743" r="7.2" fill="#dd64b5" fill-rule="evenodd" fill-opacity="1" stroke="#000000" stroke-opacity="1" stroke-width="2"/>
<circle clip-path="url(#clip633)" cx="1532.4" cy="459.366" r="7.2" fill="#dd64b5" fill-rule="evenodd" fill-opacity="1" stroke="#000000" stroke-opacity="1" stroke-width="2"/>
<circle clip-path="url(#clip633)" cx="1563.11" cy="429.979" r="7.2" fill="#dd64b5" fill-rule="evenodd" fill-opacity="1" stroke="#000000" stroke-opacity="1" stroke-width="2"/>
<circle clip-path="url(#clip633)" cx="1593.81" cy="365.92" r="7.2" fill="#dd64b5" fill-rule="evenodd" fill-opacity="1" stroke="#000000" stroke-opacity="1" stroke-width="2"/>
<circle clip-path="url(#clip633)" cx="1624.52" cy="434.848" r="7.2" fill="#dd64b5" fill-rule="evenodd" fill-opacity="1" stroke="#000000" stroke-opacity="1" stroke-width="2"/>
<circle clip-path="url(#clip633)" cx="1655.22" cy="379.644" r="7.2" fill="#dd64b5" fill-rule="evenodd" fill-opacity="1" stroke="#000000" stroke-opacity="1" stroke-width="2"/>
<circle clip-path="url(#clip633)" cx="1685.93" cy="379.422" r="7.2" fill="#dd64b5" fill-rule="evenodd" fill-opacity="1" stroke="#000000" stroke-opacity="1" stroke-width="2"/>
<circle clip-path="url(#clip633)" cx="1716.63" cy="411.255" r="7.2" fill="#dd64b5" fill-rule="evenodd" fill-opacity="1" stroke="#000000" stroke-opacity="1" stroke-width="2"/>
<circle clip-path="url(#clip633)" cx="1747.34" cy="424.537" r="7.2" fill="#dd64b5" fill-rule="evenodd" fill-opacity="1" stroke="#000000" stroke-opacity="1" stroke-width="2"/>
<circle clip-path="url(#clip633)" cx="1778.04" cy="477.284" r="7.2" fill="#dd64b5" fill-rule="evenodd" fill-opacity="1" stroke="#000000" stroke-opacity="1" stroke-width="2"/>
<circle clip-path="url(#clip633)" cx="1808.75" cy="422.399" r="7.2" fill="#dd64b5" fill-rule="evenodd" fill-opacity="1" stroke="#000000" stroke-opacity="1" stroke-width="2"/>
<circle clip-path="url(#clip633)" cx="1839.45" cy="317.055" r="7.2" fill="#dd64b5" fill-rule="evenodd" fill-opacity="1" stroke="#000000" stroke-opacity="1" stroke-width="2"/>
<circle clip-path="url(#clip633)" cx="1870.16" cy="384.197" r="7.2" fill="#dd64b5" fill-rule="evenodd" fill-opacity="1" stroke="#000000" stroke-opacity="1" stroke-width="2"/>
<circle clip-path="url(#clip633)" cx="1900.86" cy="327.84" r="7.2" fill="#dd64b5" fill-rule="evenodd" fill-opacity="1" stroke="#000000" stroke-opacity="1" stroke-width="2"/>
<circle clip-path="url(#clip633)" cx="1931.57" cy="430.906" r="7.2" fill="#dd64b5" fill-rule="evenodd" fill-opacity="1" stroke="#000000" stroke-opacity="1" stroke-width="2"/>
<polyline clip-path="url(#clip633)" style="stroke:#ffa500; stroke-linecap:round; stroke-linejoin:round; stroke-width:16; stroke-opacity:1; fill:none" points="1225.35,595.803 1256.05,734.69 1286.76,611.389 1317.46,654.834 1348.17,626.959 1378.87,772.756 1409.58,624.585 1440.28,593.173 1470.99,614.305 1501.69,556.039 1532.4,652.482 1563.11,567.843 1593.81,536.934 1624.52,608.012 1655.22,496.023 1685.93,549.641 1716.63,592.234 1747.34,675.249 1778.04,596.536 1808.75,630.699 1839.45,485.444 1870.16,607.005 1900.86,554.402 1931.57,619.602 "/>
<circle clip-path="url(#clip633)" cx="1225.35" cy="595.803" r="7.2" fill="#6b9e32" fill-rule="evenodd" fill-opacity="1" stroke="#000000" stroke-opacity="1" stroke-width="2"/>
<circle clip-path="url(#clip633)" cx="1256.05" cy="734.69" r="7.2" fill="#6b9e32" fill-rule="evenodd" fill-opacity="1" stroke="#000000" stroke-opacity="1" stroke-width="2"/>
<circle clip-path="url(#clip633)" cx="1286.76" cy="611.389" r="7.2" fill="#6b9e32" fill-rule="evenodd" fill-opacity="1" stroke="#000000" stroke-opacity="1" stroke-width="2"/>
<circle clip-path="url(#clip633)" cx="1317.46" cy="654.834" r="7.2" fill="#6b9e32" fill-rule="evenodd" fill-opacity="1" stroke="#000000" stroke-opacity="1" stroke-width="2"/>
<circle clip-path="url(#clip633)" cx="1348.17" cy="626.959" r="7.2" fill="#6b9e32" fill-rule="evenodd" fill-opacity="1" stroke="#000000" stroke-opacity="1" stroke-width="2"/>
<circle clip-path="url(#clip633)" cx="1378.87" cy="772.756" r="7.2" fill="#6b9e32" fill-rule="evenodd" fill-opacity="1" stroke="#000000" stroke-opacity="1" stroke-width="2"/>
<circle clip-path="url(#clip633)" cx="1409.58" cy="624.585" r="7.2" fill="#6b9e32" fill-rule="evenodd" fill-opacity="1" stroke="#000000" stroke-opacity="1" stroke-width="2"/>
<circle clip-path="url(#clip633)" cx="1440.28" cy="593.173" r="7.2" fill="#6b9e32" fill-rule="evenodd" fill-opacity="1" stroke="#000000" stroke-opacity="1" stroke-width="2"/>
<circle clip-path="url(#clip633)" cx="1470.99" cy="614.305" r="7.2" fill="#6b9e32" fill-rule="evenodd" fill-opacity="1" stroke="#000000" stroke-opacity="1" stroke-width="2"/>
<circle clip-path="url(#clip633)" cx="1501.69" cy="556.039" r="7.2" fill="#6b9e32" fill-rule="evenodd" fill-opacity="1" stroke="#000000" stroke-opacity="1" stroke-width="2"/>
<circle clip-path="url(#clip633)" cx="1532.4" cy="652.482" r="7.2" fill="#6b9e32" fill-rule="evenodd" fill-opacity="1" stroke="#000000" stroke-opacity="1" stroke-width="2"/>
<circle clip-path="url(#clip633)" cx="1563.11" cy="567.843" r="7.2" fill="#6b9e32" fill-rule="evenodd" fill-opacity="1" stroke="#000000" stroke-opacity="1" stroke-width="2"/>
<circle clip-path="url(#clip633)" cx="1593.81" cy="536.934" r="7.2" fill="#6b9e32" fill-rule="evenodd" fill-opacity="1" stroke="#000000" stroke-opacity="1" stroke-width="2"/>
<circle clip-path="url(#clip633)" cx="1624.52" cy="608.012" r="7.2" fill="#6b9e32" fill-rule="evenodd" fill-opacity="1" stroke="#000000" stroke-opacity="1" stroke-width="2"/>
<circle clip-path="url(#clip633)" cx="1655.22" cy="496.023" r="7.2" fill="#6b9e32" fill-rule="evenodd" fill-opacity="1" stroke="#000000" stroke-opacity="1" stroke-width="2"/>
<circle clip-path="url(#clip633)" cx="1685.93" cy="549.641" r="7.2" fill="#6b9e32" fill-rule="evenodd" fill-opacity="1" stroke="#000000" stroke-opacity="1" stroke-width="2"/>
<circle clip-path="url(#clip633)" cx="1716.63" cy="592.234" r="7.2" fill="#6b9e32" fill-rule="evenodd" fill-opacity="1" stroke="#000000" stroke-opacity="1" stroke-width="2"/>
<circle clip-path="url(#clip633)" cx="1747.34" cy="675.249" r="7.2" fill="#6b9e32" fill-rule="evenodd" fill-opacity="1" stroke="#000000" stroke-opacity="1" stroke-width="2"/>
<circle clip-path="url(#clip633)" cx="1778.04" cy="596.536" r="7.2" fill="#6b9e32" fill-rule="evenodd" fill-opacity="1" stroke="#000000" stroke-opacity="1" stroke-width="2"/>
<circle clip-path="url(#clip633)" cx="1808.75" cy="630.699" r="7.2" fill="#6b9e32" fill-rule="evenodd" fill-opacity="1" stroke="#000000" stroke-opacity="1" stroke-width="2"/>
<circle clip-path="url(#clip633)" cx="1839.45" cy="485.444" r="7.2" fill="#6b9e32" fill-rule="evenodd" fill-opacity="1" stroke="#000000" stroke-opacity="1" stroke-width="2"/>
<circle clip-path="url(#clip633)" cx="1870.16" cy="607.005" r="7.2" fill="#6b9e32" fill-rule="evenodd" fill-opacity="1" stroke="#000000" stroke-opacity="1" stroke-width="2"/>
<circle clip-path="url(#clip633)" cx="1900.86" cy="554.402" r="7.2" fill="#6b9e32" fill-rule="evenodd" fill-opacity="1" stroke="#000000" stroke-opacity="1" stroke-width="2"/>
<circle clip-path="url(#clip633)" cx="1931.57" cy="619.602" r="7.2" fill="#6b9e32" fill-rule="evenodd" fill-opacity="1" stroke="#000000" stroke-opacity="1" stroke-width="2"/>
</svg>
