<?xml version="1.0" encoding="utf-8"?>
<svg xmlns="http://www.w3.org/2000/svg" xmlns:xlink="http://www.w3.org/1999/xlink" width="400" height="300" viewBox="0 0 1600 1200">
<defs>
  <clipPath id="clip800">
    <rect x="0" y="0" width="1600" height="1200"/>
  </clipPath>
</defs>
<path clip-path="url(#clip800)" d="M0 1200 L1600 1200 L1600 0 L0 0  Z" fill="#ffffff" fill-rule="evenodd" fill-opacity="1"/>
<defs>
  <clipPath id="clip801">
    <rect x="320" y="0" width="1121" height="1121"/>
  </clipPath>
</defs>
<path clip-path="url(#clip800)" d="M153.193 1095.85 L1552.76 1095.85 L1552.76 47.2441 L153.193 47.2441  Z" fill="#ffffff" fill-rule="evenodd" fill-opacity="1"/>
<defs>
  <clipPath id="clip802">
    <rect x="153" y="47" width="1401" height="1050"/>
  </clipPath>
</defs>
<polyline clip-path="url(#clip802)" style="stroke:#000000; stroke-linecap:round; stroke-linejoin:round; stroke-width:2; stroke-opacity:0.1; fill:none" points="422.428,1095.85 422.428,47.2441 "/>
<polyline clip-path="url(#clip802)" style="stroke:#000000; stroke-linecap:round; stroke-linejoin:round; stroke-width:2; stroke-opacity:0.1; fill:none" points="709.459,1095.85 709.459,47.2441 "/>
<polyline clip-path="url(#clip802)" style="stroke:#000000; stroke-linecap:round; stroke-linejoin:round; stroke-width:2; stroke-opacity:0.1; fill:none" points="996.49,1095.85 996.49,47.2441 "/>
<polyline clip-path="url(#clip802)" style="stroke:#000000; stroke-linecap:round; stroke-linejoin:round; stroke-width:2; stroke-opacity:0.1; fill:none" points="1283.52,1095.85 1283.52,47.2441 "/>
<polyline clip-path="url(#clip800)" style="stroke:#000000; stroke-linecap:round; stroke-linejoin:round; stroke-width:4; stroke-opacity:1; fill:none" points="153.193,1095.85 1552.76,1095.85 "/>
<polyline clip-path="url(#clip800)" style="stroke:#000000; stroke-linecap:round; stroke-linejoin:round; stroke-width:4; stroke-opacity:1; fill:none" points="422.428,1095.85 422.428,1076.95 "/>
<polyline clip-path="url(#clip800)" style="stroke:#000000; stroke-linecap:round; stroke-linejoin:round; stroke-width:4; stroke-opacity:1; fill:none" points="709.459,1095.85 709.459,1076.95 "/>
<polyline clip-path="url(#clip800)" style="stroke:#000000; stroke-linecap:round; stroke-linejoin:round; stroke-width:4; stroke-opacity:1; fill:none" points="996.49,1095.85 996.49,1076.95 "/>
<polyline clip-path="url(#clip800)" style="stroke:#000000; stroke-linecap:round; stroke-linejoin:round; stroke-width:4; stroke-opacity:1; fill:none" points="1283.52,1095.85 1283.52,1076.95 "/>
<path clip-path="url(#clip800)" d="M415.136 1115.13 L428.904 1115.13 L428.904 1118.08 L418.348 1118.08 L418.348 1124.43 Q419.112 1124.17 419.876 1124.05 Q420.64 1123.91 421.404 1123.91 Q425.744 1123.91 428.279 1126.29 Q430.813 1128.67 430.813 1132.73 Q430.813 1136.92 428.209 1139.24 Q425.605 1141.55 420.866 1141.55 Q419.234 1141.55 417.532 1141.27 Q415.848 1141 414.043 1140.44 L414.043 1136.92 Q415.605 1137.77 417.272 1138.18 Q418.939 1138.6 420.796 1138.6 Q423.8 1138.6 425.553 1137.02 Q427.307 1135.44 427.307 1132.73 Q427.307 1130.02 425.553 1128.44 Q423.8 1126.86 420.796 1126.86 Q419.39 1126.86 417.984 1127.18 Q416.595 1127.49 415.136 1128.15 L415.136 1115.13 Z" fill="#000000" fill-rule="nonzero" fill-opacity="1" /><path clip-path="url(#clip800)" d="M690.475 1138.1 L696.204 1138.1 L696.204 1118.32 L689.971 1119.57 L689.971 1116.38 L696.169 1115.13 L699.676 1115.13 L699.676 1138.1 L705.405 1138.1 L705.405 1141.05 L690.475 1141.05 L690.475 1138.1 Z" fill="#000000" fill-rule="nonzero" fill-opacity="1" /><path clip-path="url(#clip800)" d="M719.989 1117.44 Q717.28 1117.44 715.909 1120.11 Q714.555 1122.77 714.555 1128.11 Q714.555 1133.44 715.909 1136.12 Q717.28 1138.77 719.989 1138.77 Q722.714 1138.77 724.068 1136.12 Q725.44 1133.44 725.44 1128.11 Q725.44 1122.77 724.068 1120.11 Q722.714 1117.44 719.989 1117.44 M719.989 1114.66 Q724.346 1114.66 726.638 1118.11 Q728.947 1121.55 728.947 1128.11 Q728.947 1134.66 726.638 1138.11 Q724.346 1141.55 719.989 1141.55 Q715.631 1141.55 713.322 1138.11 Q711.03 1134.66 711.03 1128.11 Q711.03 1121.55 713.322 1118.11 Q715.631 1114.66 719.989 1114.66 Z" fill="#000000" fill-rule="nonzero" fill-opacity="1" /><path clip-path="url(#clip800)" d="M977.879 1138.1 L983.608 1138.1 L983.608 1118.32 L977.375 1119.57 L977.375 1116.38 L983.573 1115.13 L987.08 1115.13 L987.08 1138.1 L992.809 1138.1 L992.809 1141.05 L977.879 1141.05 L977.879 1138.1 Z" fill="#000000" fill-rule="nonzero" fill-opacity="1" /><path clip-path="url(#clip800)" d="M999.927 1115.13 L1013.69 1115.13 L1013.69 1118.08 L1003.14 1118.08 L1003.14 1124.43 Q1003.9 1124.17 1004.67 1124.05 Q1005.43 1123.91 1006.19 1123.91 Q1010.54 1123.91 1013.07 1126.29 Q1015.6 1128.67 1015.6 1132.73 Q1015.6 1136.92 1013 1139.24 Q1010.4 1141.55 1005.66 1141.55 Q1004.02 1141.55 1002.32 1141.27 Q1000.64 1141 998.834 1140.44 L998.834 1136.92 Q1000.4 1137.77 1002.06 1138.18 Q1003.73 1138.6 1005.59 1138.6 Q1008.59 1138.6 1010.34 1137.02 Q1012.1 1135.44 1012.1 1132.73 Q1012.1 1130.02 1010.34 1128.44 Q1008.59 1126.86 1005.59 1126.86 Q1004.18 1126.86 1002.77 1127.18 Q1001.39 1127.49 999.927 1128.15 L999.927 1115.13 Z" fill="#000000" fill-rule="nonzero" fill-opacity="1" /><path clip-path="url(#clip800)" d="M1267.6 1138.1 L1279.84 1138.1 L1279.84 1141.05 L1263.38 1141.05 L1263.38 1138.1 Q1265.38 1136.03 1268.82 1132.56 Q1272.27 1129.07 1273.16 1128.06 Q1274.84 1126.17 1275.5 1124.87 Q1276.18 1123.55 1276.18 1122.28 Q1276.18 1120.21 1274.72 1118.91 Q1273.28 1117.61 1270.95 1117.61 Q1269.3 1117.61 1267.46 1118.18 Q1265.64 1118.76 1263.56 1119.92 L1263.56 1116.38 Q1265.67 1115.53 1267.51 1115.09 Q1269.35 1114.66 1270.88 1114.66 Q1274.91 1114.66 1277.31 1116.67 Q1279.7 1118.69 1279.7 1122.05 Q1279.7 1123.65 1279.09 1125.09 Q1278.5 1126.52 1276.92 1128.46 Q1276.49 1128.96 1274.16 1131.38 Q1271.84 1133.77 1267.6 1138.1 Z" fill="#000000" fill-rule="nonzero" fill-opacity="1" /><path clip-path="url(#clip800)" d="M1294.7 1117.44 Q1291.99 1117.44 1290.62 1120.11 Q1289.27 1122.77 1289.27 1128.11 Q1289.27 1133.44 1290.62 1136.12 Q1291.99 1138.77 1294.7 1138.77 Q1297.43 1138.77 1298.78 1136.12 Q1300.15 1133.44 1300.15 1128.11 Q1300.15 1122.77 1298.78 1120.11 Q1297.43 1117.44 1294.7 1117.44 M1294.7 1114.66 Q1299.06 1114.66 1301.35 1118.11 Q1303.66 1121.55 1303.66 1128.11 Q1303.66 1134.66 1301.35 1138.11 Q1299.06 1141.55 1294.7 1141.55 Q1290.34 1141.55 1288.03 1138.11 Q1285.74 1134.66 1285.74 1128.11 Q1285.74 1121.55 1288.03 1118.11 Q1290.34 1114.66 1294.7 1114.66 Z" fill="#000000" fill-rule="nonzero" fill-opacity="1" /><polyline clip-path="url(#clip802)" style="stroke:#000000; stroke-linecap:round; stroke-linejoin:round; stroke-width:2; stroke-opacity:0.1; fill:none" points="153.193,1010.5 1552.76,1010.5 "/>
<polyline clip-path="url(#clip802)" style="stroke:#000000; stroke-linecap:round; stroke-linejoin:round; stroke-width:2; stroke-opacity:0.1; fill:none" points="153.193,778.075 1552.76,778.075 "/>
<polyline clip-path="url(#clip802)" style="stroke:#000000; stroke-linecap:round; stroke-linejoin:round; stroke-width:2; stroke-opacity:0.1; fill:none" points="153.193,545.653 1552.76,545.653 "/>
<polyline clip-path="url(#clip802)" style="stroke:#000000; stroke-linecap:round; stroke-linejoin:round; stroke-width:2; stroke-opacity:0.1; fill:none" points="153.193,313.232 1552.76,313.232 "/>
<polyline clip-path="url(#clip802)" style="stroke:#000000; stroke-linecap:round; stroke-linejoin:round; stroke-width:2; stroke-opacity:0.1; fill:none" points="153.193,80.8108 1552.76,80.8108 "/>
<polyline clip-path="url(#clip800)" style="stroke:#000000; stroke-linecap:round; stroke-linejoin:round; stroke-width:4; stroke-opacity:1; fill:none" points="153.193,1095.85 153.193,47.2441 "/>
<polyline clip-path="url(#clip800)" style="stroke:#000000; stroke-linecap:round; stroke-linejoin:round; stroke-width:4; stroke-opacity:1; fill:none" points="153.193,1010.5 172.091,1010.5 "/>
<polyline clip-path="url(#clip800)" style="stroke:#000000; stroke-linecap:round; stroke-linejoin:round; stroke-width:4; stroke-opacity:1; fill:none" points="153.193,778.075 172.091,778.075 "/>
<polyline clip-path="url(#clip800)" style="stroke:#000000; stroke-linecap:round; stroke-linejoin:round; stroke-width:4; stroke-opacity:1; fill:none" points="153.193,545.653 172.091,545.653 "/>
<polyline clip-path="url(#clip800)" style="stroke:#000000; stroke-linecap:round; stroke-linejoin:round; stroke-width:4; stroke-opacity:1; fill:none" points="153.193,313.232 172.091,313.232 "/>
<polyline clip-path="url(#clip800)" style="stroke:#000000; stroke-linecap:round; stroke-linejoin:round; stroke-width:4; stroke-opacity:1; fill:none" points="153.193,80.8108 172.091,80.8108 "/>
<path clip-path="url(#clip800)" d="M56.7977 1020.5 L62.5268 1020.5 L62.5268 1000.73 L56.2942 1001.98 L56.2942 998.786 L62.4921 997.536 L65.999 997.536 L65.999 1020.5 L71.7281 1020.5 L71.7281 1023.46 L56.7977 1023.46 L56.7977 1020.5 Z" fill="#000000" fill-rule="nonzero" fill-opacity="1" /><path clip-path="url(#clip800)" d="M78.8114 1019.05 L82.4746 1019.05 L82.4746 1023.46 L78.8114 1023.46 L78.8114 1019.05 Z" fill="#000000" fill-rule="nonzero" fill-opacity="1" /><path clip-path="url(#clip800)" d="M97.6134 999.845 Q94.9051 999.845 93.5336 1002.52 Q92.1794 1005.18 92.1794 1010.52 Q92.1794 1015.85 93.5336 1018.53 Q94.9051 1021.18 97.6134 1021.18 Q100.339 1021.18 101.693 1018.53 Q103.065 1015.85 103.065 1010.52 Q103.065 1005.18 101.693 1002.52 Q100.339 999.845 97.6134 999.845 M97.6134 997.067 Q101.971 997.067 104.263 1000.52 Q106.572 1003.96 106.572 1010.52 Q106.572 1017.07 104.263 1020.52 Q101.971 1023.96 97.6134 1023.96 Q93.2558 1023.96 90.9468 1020.52 Q88.6551 1017.07 88.6551 1010.52 Q88.6551 1003.96 90.9468 1000.52 Q93.2558 997.067 97.6134 997.067 Z" fill="#000000" fill-rule="nonzero" fill-opacity="1" /><path clip-path="url(#clip800)" d="M120.235 999.845 Q117.527 999.845 116.155 1002.52 Q114.801 1005.18 114.801 1010.52 Q114.801 1015.85 116.155 1018.53 Q117.527 1021.18 120.235 1021.18 Q122.961 1021.18 124.315 1018.53 Q125.686 1015.85 125.686 1010.52 Q125.686 1005.18 124.315 1002.52 Q122.961 999.845 120.235 999.845 M120.235 997.067 Q124.592 997.067 126.884 1000.52 Q129.193 1003.96 129.193 1010.52 Q129.193 1017.07 126.884 1020.52 Q124.592 1023.96 120.235 1023.96 Q115.877 1023.96 113.568 1020.52 Q111.277 1017.07 111.277 1010.52 Q111.277 1003.96 113.568 1000.52 Q115.877 997.067 120.235 997.067 Z" fill="#000000" fill-rule="nonzero" fill-opacity="1" /><path clip-path="url(#clip800)" d="M57.5442 788.083 L63.2733 788.083 L63.2733 768.309 L57.0407 769.559 L57.0407 766.365 L63.2386 765.115 L66.7455 765.115 L66.7455 788.083 L72.4747 788.083 L72.4747 791.035 L57.5442 791.035 L57.5442 788.083 Z" fill="#000000" fill-rule="nonzero" fill-opacity="1" /><path clip-path="url(#clip800)" d="M79.558 786.625 L83.2211 786.625 L83.2211 791.035 L79.558 791.035 L79.558 786.625 Z" fill="#000000" fill-rule="nonzero" fill-opacity="1" /><path clip-path="url(#clip800)" d="M93.8808 788.083 L106.12 788.083 L106.12 791.035 L89.6621 791.035 L89.6621 788.083 Q91.6586 786.018 95.0961 782.545 Q98.5509 779.056 99.4363 778.049 Q101.12 776.156 101.78 774.854 Q102.457 773.535 102.457 772.268 Q102.457 770.202 100.999 768.9 Q99.5579 767.597 97.2315 767.597 Q95.5822 767.597 93.7419 768.17 Q91.919 768.743 89.8357 769.906 L89.8357 766.365 Q91.9537 765.514 93.794 765.08 Q95.6343 764.646 97.162 764.646 Q101.19 764.646 103.586 766.66 Q105.981 768.674 105.981 772.042 Q105.981 773.639 105.374 775.08 Q104.784 776.504 103.204 778.448 Q102.77 778.952 100.443 781.365 Q98.1169 783.761 93.8808 788.083 Z" fill="#000000" fill-rule="nonzero" fill-opacity="1" /><path clip-path="url(#clip800)" d="M113.516 765.115 L127.283 765.115 L127.283 768.066 L116.728 768.066 L116.728 774.42 Q117.492 774.16 118.256 774.038 Q119.02 773.9 119.783 773.9 Q124.124 773.9 126.658 776.278 Q129.193 778.656 129.193 782.719 Q129.193 786.903 126.589 789.229 Q123.985 791.538 119.245 791.538 Q117.613 791.538 115.912 791.261 Q114.228 790.983 112.422 790.427 L112.422 786.903 Q113.985 787.754 115.652 788.17 Q117.318 788.587 119.176 788.587 Q122.179 788.587 123.933 787.007 Q125.686 785.427 125.686 782.719 Q125.686 780.011 123.933 778.431 Q122.179 776.851 119.176 776.851 Q117.77 776.851 116.363 777.163 Q114.974 777.476 113.516 778.136 L113.516 765.115 Z" fill="#000000" fill-rule="nonzero" fill-opacity="1" /><path clip-path="url(#clip800)" d="M56.7977 555.662 L62.5268 555.662 L62.5268 535.888 L56.2942 537.138 L56.2942 533.943 L62.4921 532.693 L65.999 532.693 L65.999 555.662 L71.7281 555.662 L71.7281 558.613 L56.7977 558.613 L56.7977 555.662 Z" fill="#000000" fill-rule="nonzero" fill-opacity="1" /><path clip-path="url(#clip800)" d="M78.8114 554.204 L82.4746 554.204 L82.4746 558.613 L78.8114 558.613 L78.8114 554.204 Z" fill="#000000" fill-rule="nonzero" fill-opacity="1" /><path clip-path="url(#clip800)" d="M90.1482 532.693 L103.915 532.693 L103.915 535.645 L93.36 535.645 L93.36 541.999 Q94.1239 541.739 94.8877 541.617 Q95.6516 541.478 96.4155 541.478 Q100.756 541.478 103.29 543.857 Q105.825 546.235 105.825 550.298 Q105.825 554.482 103.221 556.808 Q100.617 559.117 95.8773 559.117 Q94.2454 559.117 92.544 558.839 Q90.86 558.561 89.0544 558.006 L89.0544 554.482 Q90.6169 555.332 92.2836 555.749 Q93.9503 556.166 95.8079 556.166 Q98.8113 556.166 100.565 554.586 Q102.318 553.006 102.318 550.298 Q102.318 547.589 100.565 546.009 Q98.8113 544.43 95.8079 544.43 Q94.4016 544.43 92.9954 544.742 Q91.6065 545.055 90.1482 545.714 L90.1482 532.693 Z" fill="#000000" fill-rule="nonzero" fill-opacity="1" /><path clip-path="url(#clip800)" d="M120.235 535.003 Q117.527 535.003 116.155 537.676 Q114.801 540.332 114.801 545.68 Q114.801 551.009 116.155 553.683 Q117.527 556.339 120.235 556.339 Q122.961 556.339 124.315 553.683 Q125.686 551.009 125.686 545.68 Q125.686 540.332 124.315 537.676 Q122.961 535.003 120.235 535.003 M120.235 532.225 Q124.592 532.225 126.884 535.68 Q129.193 539.117 129.193 545.68 Q129.193 552.225 126.884 555.679 Q124.592 559.117 120.235 559.117 Q115.877 559.117 113.568 555.679 Q111.277 552.225 111.277 545.68 Q111.277 539.117 113.568 535.68 Q115.877 532.225 120.235 532.225 Z" fill="#000000" fill-rule="nonzero" fill-opacity="1" /><path clip-path="url(#clip800)" d="M57.5442 323.241 L63.2733 323.241 L63.2733 303.467 L57.0407 304.717 L57.0407 301.522 L63.2386 300.272 L66.7455 300.272 L66.7455 323.241 L72.4747 323.241 L72.4747 326.192 L57.5442 326.192 L57.5442 323.241 Z" fill="#000000" fill-rule="nonzero" fill-opacity="1" /><path clip-path="url(#clip800)" d="M79.558 321.782 L83.2211 321.782 L83.2211 326.192 L79.558 326.192 L79.558 321.782 Z" fill="#000000" fill-rule="nonzero" fill-opacity="1" /><path clip-path="url(#clip800)" d="M89.9746 300.272 L106.641 300.272 L106.641 301.765 L97.2315 326.192 L93.5683 326.192 L102.422 303.224 L89.9746 303.224 L89.9746 300.272 Z" fill="#000000" fill-rule="nonzero" fill-opacity="1" /><path clip-path="url(#clip800)" d="M113.516 300.272 L127.283 300.272 L127.283 303.224 L116.728 303.224 L116.728 309.578 Q117.492 309.317 118.256 309.196 Q119.02 309.057 119.783 309.057 Q124.124 309.057 126.658 311.435 Q129.193 313.814 129.193 317.876 Q129.193 322.06 126.589 324.387 Q123.985 326.696 119.245 326.696 Q117.613 326.696 115.912 326.418 Q114.228 326.14 112.422 325.585 L112.422 322.06 Q113.985 322.911 115.652 323.328 Q117.318 323.744 119.176 323.744 Q122.179 323.744 123.933 322.164 Q125.686 320.585 125.686 317.876 Q125.686 315.168 123.933 313.588 Q122.179 312.008 119.176 312.008 Q117.77 312.008 116.363 312.321 Q114.974 312.633 113.516 313.293 L113.516 300.272 Z" fill="#000000" fill-rule="nonzero" fill-opacity="1" /><path clip-path="url(#clip800)" d="M59.2109 90.8194 L71.4504 90.8194 L71.4504 93.7708 L54.9921 93.7708 L54.9921 90.8194 Q56.9886 88.7535 60.4261 85.2813 Q63.881 81.7917 64.7664 80.7848 Q66.4504 78.8924 67.1101 77.5903 Q67.7872 76.2709 67.7872 75.0035 Q67.7872 72.9376 66.3289 71.6355 Q64.8879 70.3334 62.5615 70.3334 Q60.9122 70.3334 59.072 70.9063 Q57.2491 71.4793 55.1657 72.6424 L55.1657 69.1008 Q57.2838 68.2501 59.124 67.8161 Q60.9643 67.3821 62.4921 67.3821 Q66.5198 67.3821 68.9157 69.3959 Q71.3115 71.4098 71.3115 74.7779 Q71.3115 76.3751 70.7038 77.816 Q70.1136 79.2396 68.5337 81.1841 Q68.0997 81.6875 65.7733 84.1007 Q63.4469 86.4965 59.2109 90.8194 Z" fill="#000000" fill-rule="nonzero" fill-opacity="1" /><path clip-path="url(#clip800)" d="M78.8114 89.3611 L82.4746 89.3611 L82.4746 93.7708 L78.8114 93.7708 L78.8114 89.3611 Z" fill="#000000" fill-rule="nonzero" fill-opacity="1" /><path clip-path="url(#clip800)" d="M97.6134 70.1598 Q94.9051 70.1598 93.5336 72.8334 Q92.1794 75.4897 92.1794 80.8369 Q92.1794 86.1667 93.5336 88.8403 Q94.9051 91.4965 97.6134 91.4965 Q100.339 91.4965 101.693 88.8403 Q103.065 86.1667 103.065 80.8369 Q103.065 75.4897 101.693 72.8334 Q100.339 70.1598 97.6134 70.1598 M97.6134 67.3821 Q101.971 67.3821 104.263 70.8369 Q106.572 74.2744 106.572 80.8369 Q106.572 87.382 104.263 90.8368 Q101.971 94.2743 97.6134 94.2743 Q93.2558 94.2743 90.9468 90.8368 Q88.6551 87.382 88.6551 80.8369 Q88.6551 74.2744 90.9468 70.8369 Q93.2558 67.3821 97.6134 67.3821 Z" fill="#000000" fill-rule="nonzero" fill-opacity="1" /><path clip-path="url(#clip800)" d="M120.235 70.1598 Q117.527 70.1598 116.155 72.8334 Q114.801 75.4897 114.801 80.8369 Q114.801 86.1667 116.155 88.8403 Q117.527 91.4965 120.235 91.4965 Q122.961 91.4965 124.315 88.8403 Q125.686 86.1667 125.686 80.8369 Q125.686 75.4897 124.315 72.8334 Q122.961 70.1598 120.235 70.1598 M120.235 67.3821 Q124.592 67.3821 126.884 70.8369 Q129.193 74.2744 129.193 80.8369 Q129.193 87.382 126.884 90.8368 Q124.592 94.2743 120.235 94.2743 Q115.877 94.2743 113.568 90.8368 Q111.277 87.382 111.277 80.8369 Q111.277 74.2744 113.568 70.8369 Q115.877 67.3821 120.235 67.3821 Z" fill="#000000" fill-rule="nonzero" fill-opacity="1" /><polyline clip-path="url(#clip802)" style="stroke:#009af9; stroke-linecap:round; stroke-linejoin:round; stroke-width:4; stroke-opacity:1; fill:none" points="192.803,647.343 250.21,426.116 307.616,76.9216 365.022,76.9216 422.428,76.9216 479.834,426.116 537.24,426.116 594.647,426.116 652.053,614.992 709.459,793.014 766.865,955.894 824.271,955.894 881.678,955.894 939.084,955.894 996.49,955.894 1053.9,995.12 1111.3,995.12 1168.71,995.12 1226.11,995.12 1283.52,995.12 1340.93,995.12 1398.33,995.12 1455.74,995.12 1513.15,995.12 "/>
<circle clip-path="url(#clip802)" cx="192.803" cy="647.343" r="14.4" fill="#009af9" fill-rule="evenodd" fill-opacity="1" stroke="#000000" stroke-opacity="1" stroke-width="2.4"/>
<circle clip-path="url(#clip802)" cx="250.21" cy="426.116" r="14.4" fill="#009af9" fill-rule="evenodd" fill-opacity="1" stroke="#000000" stroke-opacity="1" stroke-width="2.4"/>
<circle clip-path="url(#clip802)" cx="307.616" cy="76.9216" r="14.4" fill="#009af9" fill-rule="evenodd" fill-opacity="1" stroke="#000000" stroke-opacity="1" stroke-width="2.4"/>
<circle clip-path="url(#clip802)" cx="365.022" cy="76.9216" r="14.4" fill="#009af9" fill-rule="evenodd" fill-opacity="1" stroke="#000000" stroke-opacity="1" stroke-width="2.4"/>
<circle clip-path="url(#clip802)" cx="422.428" cy="76.9216" r="14.4" fill="#009af9" fill-rule="evenodd" fill-opacity="1" stroke="#000000" stroke-opacity="1" stroke-width="2.4"/>
<circle clip-path="url(#clip802)" cx="479.834" cy="426.116" r="14.4" fill="#009af9" fill-rule="evenodd" fill-opacity="1" stroke="#000000" stroke-opacity="1" stroke-width="2.4"/>
<circle clip-path="url(#clip802)" cx="537.24" cy="426.116" r="14.4" fill="#009af9" fill-rule="evenodd" fill-opacity="1" stroke="#000000" stroke-opacity="1" stroke-width="2.4"/>
<circle clip-path="url(#clip802)" cx="594.647" cy="426.116" r="14.4" fill="#009af9" fill-rule="evenodd" fill-opacity="1" stroke="#000000" stroke-opacity="1" stroke-width="2.4"/>
<circle clip-path="url(#clip802)" cx="652.053" cy="614.992" r="14.4" fill="#009af9" fill-rule="evenodd" fill-opacity="1" stroke="#000000" stroke-opacity="1" stroke-width="2.4"/>
<circle clip-path="url(#clip802)" cx="709.459" cy="793.014" r="14.4" fill="#009af9" fill-rule="evenodd" fill-opacity="1" stroke="#000000" stroke-opacity="1" stroke-width="2.4"/>
<circle clip-path="url(#clip802)" cx="766.865" cy="955.894" r="14.4" fill="#009af9" fill-rule="evenodd" fill-opacity="1" stroke="#000000" stroke-opacity="1" stroke-width="2.4"/>
<circle clip-path="url(#clip802)" cx="824.271" cy="955.894" r="14.4" fill="#009af9" fill-rule="evenodd" fill-opacity="1" stroke="#000000" stroke-opacity="1" stroke-width="2.4"/>
<circle clip-path="url(#clip802)" cx="881.678" cy="955.894" r="14.4" fill="#009af9" fill-rule="evenodd" fill-opacity="1" stroke="#000000" stroke-opacity="1" stroke-width="2.4"/>
<circle clip-path="url(#clip802)" cx="939.084" cy="955.894" r="14.4" fill="#009af9" fill-rule="evenodd" fill-opacity="1" stroke="#000000" stroke-opacity="1" stroke-width="2.4"/>
<circle clip-path="url(#clip802)" cx="996.49" cy="955.894" r="14.4" fill="#009af9" fill-rule="evenodd" fill-opacity="1" stroke="#000000" stroke-opacity="1" stroke-width="2.4"/>
<circle clip-path="url(#clip802)" cx="1053.9" cy="995.12" r="14.4" fill="#009af9" fill-rule="evenodd" fill-opacity="1" stroke="#000000" stroke-opacity="1" stroke-width="2.4"/>
<circle clip-path="url(#clip802)" cx="1111.3" cy="995.12" r="14.4" fill="#009af9" fill-rule="evenodd" fill-opacity="1" stroke="#000000" stroke-opacity="1" stroke-width="2.4"/>
<circle clip-path="url(#clip802)" cx="1168.71" cy="995.12" r="14.4" fill="#009af9" fill-rule="evenodd" fill-opacity="1" stroke="#000000" stroke-opacity="1" stroke-width="2.4"/>
<circle clip-path="url(#clip802)" cx="1226.11" cy="995.12" r="14.4" fill="#009af9" fill-rule="evenodd" fill-opacity="1" stroke="#000000" stroke-opacity="1" stroke-width="2.4"/>
<circle clip-path="url(#clip802)" cx="1283.52" cy="995.12" r="14.4" fill="#009af9" fill-rule="evenodd" fill-opacity="1" stroke="#000000" stroke-opacity="1" stroke-width="2.4"/>
<circle clip-path="url(#clip802)" cx="1340.93" cy="995.12" r="14.4" fill="#009af9" fill-rule="evenodd" fill-opacity="1" stroke="#000000" stroke-opacity="1" stroke-width="2.4"/>
<circle clip-path="url(#clip802)" cx="1398.33" cy="995.12" r="14.4" fill="#009af9" fill-rule="evenodd" fill-opacity="1" stroke="#000000" stroke-opacity="1" stroke-width="2.4"/>
<circle clip-path="url(#clip802)" cx="1455.74" cy="995.12" r="14.4" fill="#009af9" fill-rule="evenodd" fill-opacity="1" stroke="#000000" stroke-opacity="1" stroke-width="2.4"/>
<circle clip-path="url(#clip802)" cx="1513.15" cy="995.12" r="14.4" fill="#009af9" fill-rule="evenodd" fill-opacity="1" stroke="#000000" stroke-opacity="1" stroke-width="2.4"/>
<polyline clip-path="url(#clip802)" style="stroke:#e26f46; stroke-linecap:round; stroke-linejoin:round; stroke-width:4; stroke-opacity:1; fill:none" points="192.803,829.775 250.21,829.775 307.616,819.908 365.022,819.908 422.428,819.908 479.834,976.829 537.24,976.829 594.647,1066.17 652.053,710.004 709.459,1000.23 766.865,1000.23 824.271,1000.23 881.678,1000.23 939.084,1000.23 996.49,1000.23 1053.9,1000.23 1111.3,1000.23 1168.71,1000.23 1226.11,1000.23 1283.52,1000.23 1340.93,1000.23 1398.33,1000.23 1455.74,1000.23 1513.15,863.288 "/>
<path clip-path="url(#clip800)" d="M1286.92 198.838 L1506.1 198.838 L1506.1 82.1976 L1286.92 82.1976  Z" fill="#ffffff" fill-rule="evenodd" fill-opacity="1"/>
<polyline clip-path="url(#clip800)" style="stroke:#000000; stroke-linecap:round; stroke-linejoin:round; stroke-width:4; stroke-opacity:1; fill:none" points="1286.92,198.838 1506.1,198.838 1506.1,82.1976 1286.92,82.1976 1286.92,198.838 "/>
<polyline clip-path="url(#clip800)" style="stroke:#009af9; stroke-linecap:round; stroke-linejoin:round; stroke-width:3; stroke-opacity:1; fill:none" points="1302.47,121.078 1395.77,121.078 "/>
<circle clip-path="url(#clip800)" cx="1349.12" cy="121.078" r="15.36" fill="#009af9" fill-rule="evenodd" fill-opacity="1" stroke="#000000" stroke-opacity="1" stroke-width="2.56"/>
<path clip-path="url(#clip800)" d="M1435.79 109.283 Q1435.79 109.617 1435.72 109.898 L1434.74 116.152 Q1434.69 116.626 1434.58 116.802 Q1434.49 116.977 1434.21 116.977 Q1433.77 116.977 1433.77 116.521 Q1433.77 116.257 1433.88 115.835 Q1434.18 113.85 1434.18 112.955 Q1434.18 112.357 1434.06 111.918 Q1433.95 111.461 1433.77 111.145 Q1433.62 110.829 1433.25 110.618 Q1432.88 110.407 1432.53 110.284 Q1432.18 110.161 1431.54 110.109 Q1430.91 110.038 1430.37 110.021 Q1429.82 110.003 1428.93 110.003 Q1426.98 110.003 1426.66 110.074 Q1426.33 110.161 1426.15 110.425 Q1425.99 110.671 1425.82 111.409 L1421.04 130.504 L1420.9 131.259 Q1420.9 131.681 1421.16 131.821 Q1421.43 131.962 1422.23 132.05 Q1423.39 132.138 1424.53 132.138 Q1424.57 132.138 1424.64 132.138 Q1425.03 132.138 1425.18 132.155 Q1425.34 132.155 1425.5 132.19 Q1425.66 132.225 1425.69 132.313 Q1425.75 132.383 1425.75 132.524 Q1425.75 132.858 1425.61 133.033 Q1425.47 133.192 1425.32 133.227 Q1425.2 133.244 1424.96 133.244 Q1424.46 133.244 1423.41 133.209 Q1422.36 133.174 1421.83 133.174 L1418.84 133.139 L1415.79 133.174 Q1415.31 133.174 1414.31 133.209 Q1413.31 133.244 1412.83 133.244 Q1412.22 133.244 1412.22 132.805 Q1412.22 132.313 1412.45 132.225 Q1412.69 132.138 1413.73 132.138 Q1415.19 132.138 1415.98 132.067 Q1416.77 131.997 1417.19 131.751 Q1417.63 131.505 1417.75 131.259 Q1417.88 130.996 1418.02 130.398 L1422.85 111.198 Q1422.99 110.776 1422.99 110.442 Q1422.99 110.267 1422.94 110.197 Q1422.9 110.126 1422.67 110.074 Q1422.44 110.003 1421.97 110.003 L1420.56 110.003 Q1419.12 110.003 1418.23 110.074 Q1417.35 110.126 1416.51 110.39 Q1415.68 110.653 1415.19 111.022 Q1414.71 111.391 1414.19 112.146 Q1413.66 112.902 1413.27 113.815 Q1412.91 114.729 1412.38 116.222 Q1412.2 116.714 1412.1 116.854 Q1412.01 116.977 1411.76 116.977 Q1411.59 116.977 1411.45 116.872 Q1411.32 116.749 1411.32 116.591 Q1411.5 116.011 1411.53 115.941 L1413.7 109.599 Q1413.87 109.09 1414.03 109.002 Q1414.21 108.897 1414.86 108.897 L1434.81 108.897 Q1435.13 108.897 1435.23 108.897 Q1435.34 108.897 1435.51 108.932 Q1435.69 108.967 1435.74 109.055 Q1435.79 109.143 1435.79 109.283 Z" fill="#000000" fill-rule="nonzero" fill-opacity="1" /><path clip-path="url(#clip800)" d="M1463.1 109.072 Q1463.1 109.792 1462.51 109.792 Q1461.45 109.828 1460.73 110.038 Q1460.01 110.232 1459.59 110.618 Q1459.19 111.005 1458.96 111.426 Q1458.75 111.83 1458.61 112.445 L1455.41 125.216 Q1454.5 128.817 1451.54 131.435 Q1448.59 134.035 1445.24 134.035 Q1443.32 134.035 1441.73 133.244 Q1440.14 132.454 1439.16 130.855 Q1438.18 129.257 1438.18 127.131 Q1438.18 126.112 1438.44 125.041 L1440.62 116.152 L1441.43 112.99 Q1442.02 110.653 1442.02 110.442 Q1442.02 110.109 1441.81 110.021 Q1441.62 109.915 1441.06 109.863 L1439.69 109.792 Q1439.27 109.792 1439.09 109.775 Q1438.93 109.757 1438.81 109.67 Q1438.69 109.582 1438.69 109.388 Q1438.69 109.143 1438.74 108.984 Q1438.81 108.809 1438.93 108.756 Q1439.05 108.703 1439.14 108.686 Q1439.23 108.668 1439.37 108.668 L1444.01 108.774 L1448.61 108.668 Q1449.12 108.668 1449.12 109.072 Q1449.12 109.582 1448.89 109.687 Q1448.66 109.792 1447.89 109.792 Q1446.57 109.792 1445.98 109.968 Q1445.4 110.126 1445.22 110.407 Q1445.06 110.671 1444.87 111.444 L1441.37 125.445 Q1441.2 126.147 1441.09 126.85 Q1441 127.535 1441 127.886 L1440.99 128.238 Q1440.99 130.469 1442.22 131.698 Q1443.46 132.928 1445.38 132.928 Q1448.19 132.928 1450.81 130.697 Q1453.44 128.466 1454.34 124.97 L1457.57 112.129 Q1457.68 111.813 1457.68 111.374 Q1457.68 110.671 1457.15 110.249 Q1456.64 109.81 1455.23 109.792 Q1454.58 109.792 1454.58 109.388 Q1454.58 109.055 1454.71 108.897 Q1454.85 108.721 1454.95 108.703 Q1455.08 108.668 1455.23 108.668 Q1455.83 108.668 1457.1 108.721 Q1458.36 108.774 1458.98 108.774 Q1459.59 108.774 1460.82 108.721 Q1462.05 108.668 1462.65 108.668 Q1462.86 108.668 1462.96 108.774 Q1463.09 108.861 1463.1 108.967 L1463.1 109.072 Z" fill="#000000" fill-rule="nonzero" fill-opacity="1" /><path clip-path="url(#clip800)" d="M1490.63 108.247 L1488.36 117.417 Q1488.2 117.996 1488.1 118.066 Q1488.01 118.137 1487.73 118.137 Q1487.19 118.137 1487.19 117.768 Q1487.19 117.733 1487.24 117.276 Q1487.29 116.802 1487.29 115.941 Q1487.29 112.761 1485.75 110.882 Q1484.22 109.002 1481.49 109.002 Q1479.14 109.002 1476.77 110.197 Q1474.41 111.391 1472.73 113.341 Q1471.46 114.817 1470.53 116.679 Q1469.62 118.541 1469.18 120.245 Q1468.76 121.949 1468.57 123.231 Q1468.37 124.514 1468.37 125.445 Q1468.37 126.797 1468.65 127.939 Q1468.95 129.081 1469.48 129.889 Q1470.01 130.679 1470.67 131.294 Q1471.36 131.892 1472.15 132.243 Q1472.96 132.594 1473.76 132.77 Q1474.57 132.928 1475.42 132.928 Q1478.81 132.928 1482.04 130.293 Q1484.6 128.132 1485.68 124.601 Q1485.76 124.25 1486.13 124.25 Q1486.57 124.25 1486.57 124.601 Q1486.57 124.672 1486.48 125.023 Q1486.4 125.357 1486.13 126.042 Q1485.87 126.709 1485.46 127.465 Q1485.06 128.22 1484.3 129.169 Q1483.55 130.117 1482.62 130.943 Q1481.04 132.313 1479.03 133.174 Q1477.03 134.035 1474.84 134.035 Q1472.1 134.035 1469.88 132.823 Q1467.67 131.611 1466.37 129.344 Q1465.09 127.078 1465.09 124.18 Q1465.09 121.123 1466.49 118.119 Q1467.9 115.115 1470.13 112.884 Q1472.36 110.653 1475.31 109.265 Q1478.26 107.878 1481.21 107.878 Q1482.34 107.878 1483.34 108.176 Q1484.34 108.475 1484.94 108.844 Q1485.55 109.213 1486.1 109.757 Q1486.64 110.284 1486.82 110.53 Q1487.01 110.776 1487.19 111.075 L1489.7 108.317 Q1490.14 107.878 1490.24 107.878 Q1490.45 107.878 1490.54 108.001 Q1490.63 108.124 1490.63 108.247 Z" fill="#000000" fill-rule="nonzero" fill-opacity="1" /><polyline clip-path="url(#clip800)" style="stroke:#e26f46; stroke-linecap:round; stroke-linejoin:round; stroke-width:3; stroke-opacity:1; fill:none" points="1302.47,159.958 1395.77,159.958 "/>
<path clip-path="url(#clip800)" d="M1421.71 174.723 Q1420.35 178.195 1419.07 179.254 Q1417.78 180.313 1415.63 180.313 L1413.08 180.313 L1413.08 177.64 L1414.95 177.64 Q1416.27 177.64 1417 177.015 Q1417.73 176.39 1418.62 174.063 L1419.19 172.605 L1411.32 153.473 L1414.71 153.473 L1420.79 168.681 L1426.86 153.473 L1430.25 153.473 L1421.71 174.723 Z" fill="#000000" fill-rule="nonzero" fill-opacity="1" /><path clip-path="url(#clip800)" d="M1438.13 169.966 L1450.37 169.966 L1450.37 172.918 L1433.91 172.918 L1433.91 169.966 Q1435.91 167.9 1439.34 164.428 Q1442.8 160.938 1443.69 159.932 Q1445.37 158.039 1446.03 156.737 Q1446.71 155.418 1446.71 154.15 Q1446.71 152.084 1445.25 150.782 Q1443.81 149.48 1441.48 149.48 Q1439.83 149.48 1437.99 150.053 Q1436.17 150.626 1434.08 151.789 L1434.08 148.248 Q1436.2 147.397 1438.04 146.963 Q1439.88 146.529 1441.41 146.529 Q1445.44 146.529 1447.83 148.543 Q1450.23 150.557 1450.23 153.925 Q1450.23 155.522 1449.62 156.963 Q1449.03 158.386 1447.45 160.331 Q1447.02 160.834 1444.69 163.247 Q1442.37 165.643 1438.13 169.966 Z" fill="#000000" fill-rule="nonzero" fill-opacity="1" /></svg>
