<?xml version="1.0" encoding="utf-8"?>
<svg xmlns="http://www.w3.org/2000/svg" xmlns:xlink="http://www.w3.org/1999/xlink" width="300" height="300" viewBox="0 0 1200 1200">
<defs>
  <clipPath id="clip950">
    <rect x="0" y="0" width="1200" height="1200"/>
  </clipPath>
</defs>
<path clip-path="url(#clip950)" d="M0 1200 L1200 1200 L1200 0 L0 0  Z" fill="#ffffff" fill-rule="evenodd" fill-opacity="1"/>
<defs>
  <clipPath id="clip951">
    <rect x="240" y="120" width="841" height="841"/>
  </clipPath>
</defs>
<defs>
  <clipPath id="clip952">
    <rect x="298" y="47" width="855" height="1025"/>
  </clipPath>
</defs>
<polyline clip-path="url(#clip952)" style="stroke:#000000; stroke-linecap:round; stroke-linejoin:round; stroke-width:2; stroke-opacity:0.25; fill:none" points="457.188,1071.26 457.188,47.2441 "/>
<polyline clip-path="url(#clip952)" style="stroke:#000000; stroke-linecap:round; stroke-linejoin:round; stroke-width:2; stroke-opacity:0.25; fill:none" points="994.306,1071.26 994.306,47.2441 "/>
<polyline clip-path="url(#clip950)" style="stroke:#000000; stroke-linecap:round; stroke-linejoin:round; stroke-width:4; stroke-opacity:1; fill:none" points="298.738,1071.26 1152.76,1071.26 "/>
<polyline clip-path="url(#clip950)" style="stroke:#000000; stroke-linecap:round; stroke-linejoin:round; stroke-width:4; stroke-opacity:1; fill:none" points="298.738,47.2441 1152.76,47.2441 "/>
<polyline clip-path="url(#clip950)" style="stroke:#000000; stroke-linecap:round; stroke-linejoin:round; stroke-width:4; stroke-opacity:1; fill:none" points="457.188,1071.26 457.188,1052.37 "/>
<polyline clip-path="url(#clip950)" style="stroke:#000000; stroke-linecap:round; stroke-linejoin:round; stroke-width:4; stroke-opacity:1; fill:none" points="994.306,1071.26 994.306,1052.37 "/>
<g clip-path="url(#clip950)">
<text style="fill:#000000; fill-opacity:1; font-family:Book Antiqua,Palatino,Palatino Linotype,Palatino LT STD,Georgia,serif; font-size:51px; font-weight:bold; text-anchor:middle;" transform="rotate(0, 457.188, 1125.24)" x="457.188" y="1125.24">Case 1</text>
</g>
<g clip-path="url(#clip950)">
<text style="fill:#000000; fill-opacity:1; font-family:Book Antiqua,Palatino,Palatino Linotype,Palatino LT STD,Georgia,serif; font-size:51px; font-weight:bold; text-anchor:middle;" transform="rotate(0, 994.306, 1125.24)" x="994.306" y="1125.24">Case 2</text>
</g>
<polyline clip-path="url(#clip952)" style="stroke:#000000; stroke-linecap:round; stroke-linejoin:round; stroke-width:2; stroke-opacity:0.25; fill:none" points="298.738,1071.26 1152.76,1071.26 "/>
<polyline clip-path="url(#clip952)" style="stroke:#000000; stroke-linecap:round; stroke-linejoin:round; stroke-width:2; stroke-opacity:0.25; fill:none" points="298.738,778.687 1152.76,778.687 "/>
<polyline clip-path="url(#clip952)" style="stroke:#000000; stroke-linecap:round; stroke-linejoin:round; stroke-width:2; stroke-opacity:0.25; fill:none" points="298.738,486.11 1152.76,486.11 "/>
<polyline clip-path="url(#clip952)" style="stroke:#000000; stroke-linecap:round; stroke-linejoin:round; stroke-width:2; stroke-opacity:0.25; fill:none" points="298.738,193.533 1152.76,193.533 "/>
<polyline clip-path="url(#clip950)" style="stroke:#000000; stroke-linecap:round; stroke-linejoin:round; stroke-width:4; stroke-opacity:1; fill:none" points="298.738,1071.26 298.738,47.2441 "/>
<polyline clip-path="url(#clip950)" style="stroke:#000000; stroke-linecap:round; stroke-linejoin:round; stroke-width:4; stroke-opacity:1; fill:none" points="1152.76,1071.26 1152.76,47.2441 "/>
<polyline clip-path="url(#clip950)" style="stroke:#000000; stroke-linecap:round; stroke-linejoin:round; stroke-width:4; stroke-opacity:1; fill:none" points="298.738,1071.26 317.635,1071.26 "/>
<polyline clip-path="url(#clip950)" style="stroke:#000000; stroke-linecap:round; stroke-linejoin:round; stroke-width:4; stroke-opacity:1; fill:none" points="298.738,778.687 317.635,778.687 "/>
<polyline clip-path="url(#clip950)" style="stroke:#000000; stroke-linecap:round; stroke-linejoin:round; stroke-width:4; stroke-opacity:1; fill:none" points="298.738,486.11 317.635,486.11 "/>
<polyline clip-path="url(#clip950)" style="stroke:#000000; stroke-linecap:round; stroke-linejoin:round; stroke-width:4; stroke-opacity:1; fill:none" points="298.738,193.533 317.635,193.533 "/>
<g clip-path="url(#clip950)">
<text style="fill:#000000; fill-opacity:1; font-family:Book Antiqua,Palatino,Palatino Linotype,Palatino LT STD,Georgia,serif; font-size:51px; font-weight:bold; text-anchor:middle;" transform="rotate(0, 212.379, 1088.76)" x="212.379" y="1088.76">−0.350</text>
</g>
<g clip-path="url(#clip950)">
<text style="fill:#000000; fill-opacity:1; font-family:Book Antiqua,Palatino,Palatino Linotype,Palatino LT STD,Georgia,serif; font-size:51px; font-weight:bold; text-anchor:middle;" transform="rotate(0, 212.379, 796.187)" x="212.379" y="796.187">−0.345</text>
</g>
<g clip-path="url(#clip950)">
<text style="fill:#000000; fill-opacity:1; font-family:Book Antiqua,Palatino,Palatino Linotype,Palatino LT STD,Georgia,serif; font-size:51px; font-weight:bold; text-anchor:middle;" transform="rotate(0, 212.379, 503.61)" x="212.379" y="503.61">−0.340</text>
</g>
<g clip-path="url(#clip950)">
<text style="fill:#000000; fill-opacity:1; font-family:Book Antiqua,Palatino,Palatino Linotype,Palatino LT STD,Georgia,serif; font-size:51px; font-weight:bold; text-anchor:middle;" transform="rotate(0, 212.379, 211.033)" x="212.379" y="211.033">−0.335</text>
</g>
<path clip-path="url(#clip950)" d="M113.196 703.616 Q112.938 703.616 111.264 702.747 Q109.557 701.877 103.47 698.818 Q97.3508 695.758 90.9418 692.602 L68.0757 681.233 Q66.6264 680.428 66.6264 679.397 Q66.6264 678.464 67.2061 678.045 Q67.7858 677.626 71.6827 675.694 Q73.5829 674.695 74.8067 674.116 L112.133 655.469 Q112.938 655.146 113.196 655.114 Q113.84 655.114 113.84 656.241 L113.84 701.877 Q113.84 703.616 113.196 703.616 M108.816 699.269 L108.816 663.778 L73.1964 681.523 L108.816 699.269 Z" fill="#000000" fill-rule="nonzero" fill-opacity="1" /><path clip-path="url(#clip950)" d="M71.876 616.083 Q73.6473 616.083 74.7423 617.21 Q75.8373 618.305 75.8373 619.69 Q75.8373 620.689 75.2254 621.429 Q74.6134 622.138 73.5507 622.138 Q72.4557 622.138 71.2962 621.301 Q70.1368 620.463 69.9758 618.563 Q68.7842 619.819 68.7842 621.816 Q68.7842 622.814 69.4283 623.652 Q70.0402 624.457 71.0386 624.908 Q72.0692 625.391 77.8984 626.486 Q79.7986 626.84 81.6343 627.162 Q83.4701 627.484 85.4024 627.871 L85.4024 622.396 Q85.4024 621.687 85.4346 621.397 Q85.4668 621.107 85.6279 620.882 Q85.7889 620.624 86.1431 620.624 Q87.0449 620.624 87.2704 621.043 Q87.4636 621.429 87.4636 622.589 L87.4636 628.257 L108.365 632.218 Q108.977 632.315 110.909 632.734 Q112.81 633.12 115.934 634.054 Q119.09 634.988 120.958 635.922 Q122.02 636.437 123.019 637.114 Q124.049 637.758 125.08 638.692 Q126.111 639.626 126.723 640.849 Q127.367 642.073 127.367 643.362 Q127.367 645.552 126.143 647.258 Q124.919 648.965 122.826 648.965 Q121.054 648.965 119.959 647.87 Q118.864 646.743 118.864 645.358 Q118.864 644.36 119.476 643.651 Q120.088 642.911 121.151 642.911 Q121.602 642.911 122.117 643.072 Q122.632 643.233 123.212 643.587 Q123.824 643.941 124.243 644.714 Q124.661 645.487 124.726 646.55 Q125.917 645.294 125.917 643.362 Q125.917 642.75 125.66 642.202 Q125.434 641.655 124.855 641.204 Q124.275 640.721 123.695 640.366 Q123.148 640.012 122.085 639.658 Q121.054 639.304 120.281 639.078 Q119.508 638.853 118.124 638.563 Q116.739 638.241 115.901 638.08 Q115.096 637.919 113.518 637.629 L87.4636 632.701 L87.4636 637.049 Q87.4636 637.822 87.4314 638.144 Q87.3992 638.434 87.2381 638.659 Q87.0449 638.885 86.6584 638.885 Q86.0465 638.885 85.7889 638.627 Q85.499 638.337 85.4668 638.015 Q85.4024 637.693 85.4024 636.92 L85.4024 632.347 Q77.2543 630.801 75.0643 630.189 Q72.7455 629.481 71.1352 628.386 Q69.4927 627.291 68.7198 626.067 Q67.9468 624.843 67.657 623.845 Q67.3349 622.814 67.3349 621.816 Q67.3349 619.561 68.5587 617.822 Q69.7504 616.083 71.876 616.083 Z" fill="#000000" fill-rule="nonzero" fill-opacity="1" /><path clip-path="url(#clip950)" d="M97.3508 607.203 Q86.2076 607.203 77.2221 603.049 Q73.454 601.277 70.2979 598.797 Q67.1417 596.318 65.7568 594.675 Q64.372 593.033 64.372 592.582 Q64.372 591.938 65.0161 591.905 Q65.3382 591.905 66.1433 592.775 Q76.9645 603.403 97.3508 603.371 Q117.802 603.371 128.204 593.033 Q129.331 591.905 129.685 591.905 Q130.33 591.905 130.33 592.582 Q130.33 593.033 129.009 594.611 Q127.689 596.189 124.661 598.636 Q121.634 601.084 117.93 602.855 Q108.945 607.203 97.3508 607.203 Z" fill="#000000" fill-rule="nonzero" fill-opacity="1" /><path clip-path="url(#clip950)" d="M86.1431 566.634 Q87.0449 566.634 87.2704 567.053 Q87.4636 567.472 87.4636 568.631 L87.4636 574.815 L106.916 579.71 Q108.623 580.096 110.072 580.096 Q111.682 580.096 112.391 579.613 Q113.099 579.098 113.099 578.035 Q113.099 575.942 111.199 573.687 Q109.299 571.401 104.662 569.468 Q104.05 569.211 103.921 569.082 Q103.76 568.921 103.76 568.502 Q103.76 567.697 104.404 567.697 Q104.629 567.697 105.66 568.148 Q106.69 568.567 108.204 569.501 Q109.718 570.402 111.135 571.594 Q112.552 572.753 113.583 574.525 Q114.581 576.296 114.581 578.196 Q114.581 580.869 112.874 582.576 Q111.167 584.251 108.494 584.251 Q107.624 584.251 104.855 583.575 Q102.053 582.898 87.4636 579.227 L87.4636 585.056 Q87.4636 585.861 87.4314 586.183 Q87.3992 586.473 87.2381 586.699 Q87.0449 586.892 86.6584 586.892 Q86.0465 586.892 85.7889 586.634 Q85.499 586.376 85.4668 586.054 Q85.4024 585.7 85.4024 584.895 L85.4024 578.711 L74.9355 576.135 Q73.9049 575.877 73.3252 575.233 Q72.7133 574.557 72.6489 574.17 Q72.5523 573.784 72.5523 573.494 Q72.5523 572.625 73.0354 572.109 Q73.4862 571.594 74.3236 571.594 Q74.7745 571.594 85.4024 574.299 L85.4024 568.502 Q85.4024 567.761 85.4346 567.472 Q85.4668 567.15 85.6279 566.892 Q85.7889 566.634 86.1431 566.634 Z" fill="#000000" fill-rule="nonzero" fill-opacity="1" /><path clip-path="url(#clip950)" d="M129.685 561.471 Q129.363 561.471 128.558 560.633 Q117.737 550.005 97.3508 550.005 Q76.9001 550.005 66.562 560.215 Q65.3704 561.471 65.0161 561.471 Q64.372 561.471 64.372 560.827 Q64.372 560.376 65.6924 558.798 Q67.0129 557.187 70.0402 554.772 Q73.0676 552.324 76.7712 550.521 Q85.7567 546.173 97.3508 546.173 Q108.494 546.173 117.479 550.328 Q121.248 552.099 124.404 554.579 Q127.56 557.059 128.945 558.701 Q130.33 560.344 130.33 560.827 Q130.33 561.471 129.685 561.471 Z" fill="#000000" fill-rule="nonzero" fill-opacity="1" /><path clip-path="url(#clip950)" d="M129.396 536.143 Q129.074 536.143 128.365 535.886 L66.1433 512.601 Q66.0789 512.601 65.7246 512.44 Q65.3704 512.279 65.1449 512.182 Q64.8873 512.086 64.694 511.892 Q64.5008 511.667 64.5008 511.409 Q64.5008 510.765 65.306 510.765 Q65.3704 510.765 66.1433 510.958 L128.429 534.308 Q129.557 534.694 129.879 534.952 Q130.201 535.177 130.201 535.564 Q130.201 536.143 129.396 536.143 Z" fill="#000000" fill-rule="nonzero" fill-opacity="1" /><path clip-path="url(#clip950)" d="M69.5249 447.956 Q70.4589 447.956 70.6521 448.375 Q70.8454 448.762 70.8454 450.179 Q70.8454 452.594 71.1674 453.689 Q71.4573 454.752 71.9726 455.074 Q72.4557 455.364 73.8727 455.718 L109.492 464.639 Q109.525 464.639 109.975 464.736 Q110.394 464.832 110.62 464.832 Q111.038 464.832 111.296 464.575 Q111.554 464.285 111.682 463.576 Q111.779 462.868 111.811 462.32 Q111.811 461.741 111.811 460.549 Q111.811 459.067 112.069 458.842 Q112.23 458.713 112.52 458.713 Q113.132 458.713 113.454 458.971 Q113.744 459.196 113.808 459.422 Q113.84 459.615 113.84 460.001 Q113.84 460.678 113.776 462.127 Q113.711 463.576 113.711 464.317 L113.647 468.536 L113.84 476.909 Q113.84 477.811 113.099 477.811 Q112.455 477.811 112.165 477.586 Q111.876 477.36 111.843 477.135 Q111.811 476.877 111.811 476.233 Q111.811 472.916 111.489 471.821 Q111.135 470.694 109.621 470.243 L91.4249 465.702 L91.4249 485.798 L109.492 490.307 Q109.525 490.307 109.975 490.404 Q110.394 490.5 110.62 490.5 Q111.038 490.5 111.296 490.243 Q111.554 489.953 111.682 489.244 Q111.779 488.536 111.811 487.988 Q111.811 487.409 111.811 486.217 Q111.811 484.735 112.069 484.478 Q112.23 484.349 112.52 484.349 Q112.971 484.349 113.293 484.478 Q113.583 484.574 113.679 484.832 Q113.776 485.058 113.808 485.219 Q113.84 485.38 113.84 485.669 Q113.84 486.346 113.776 487.795 Q113.711 489.212 113.711 489.953 L113.647 494.172 L113.84 502.545 Q113.84 503.479 113.099 503.479 Q112.455 503.479 112.198 503.254 Q111.908 503.028 111.876 502.739 Q111.811 502.449 111.811 501.708 Q111.811 500.098 111.715 499.132 Q111.618 498.165 111.489 497.553 Q111.328 496.909 110.877 496.587 Q110.426 496.233 110.04 496.072 Q109.621 495.911 108.687 495.685 L73.2608 486.861 Q72.198 486.603 72.037 486.603 Q71.4251 486.603 71.264 486.99 Q71.0708 487.344 70.9742 488.375 L70.8454 490.887 Q70.8454 491.66 70.8132 491.982 Q70.781 492.272 70.6199 492.497 Q70.4589 492.723 70.1046 492.723 Q69.6537 492.723 69.3639 492.626 Q69.0418 492.497 68.9452 492.272 Q68.8486 492.046 68.8164 491.885 Q68.7842 491.724 68.7842 491.467 L68.9774 482.964 L68.7842 474.526 Q68.7842 473.592 69.5249 473.592 Q70.4589 473.592 70.6521 474.011 Q70.8454 474.43 70.8454 475.847 Q70.8454 478.198 71.1674 479.293 Q71.4573 480.388 71.9726 480.742 Q72.4879 481.064 73.8727 481.386 L89.3637 485.283 L89.3637 465.154 L73.2608 461.193 Q72.1014 460.935 72.037 460.935 Q71.4251 460.935 71.264 461.322 Q71.0708 461.676 70.9742 462.707 L70.8454 465.219 Q70.8454 465.992 70.8132 466.314 Q70.781 466.604 70.6199 466.861 Q70.4589 467.087 70.1046 467.087 Q69.6537 467.087 69.3639 466.99 Q69.0418 466.861 68.9452 466.636 Q68.8486 466.41 68.8164 466.249 Q68.7842 466.088 68.7842 465.831 L68.9774 457.328 L68.7842 448.858 Q68.7842 447.956 69.5249 447.956 Z" fill="#000000" fill-rule="nonzero" fill-opacity="1" /><path clip-path="url(#clip950)" d="M85.338 417.305 Q85.5634 417.305 86.5296 417.853 Q87.4636 418.368 89.8146 420.268 Q92.1656 422.168 94.9031 425.002 Q95.9659 426.065 97.4474 427.676 Q98.9289 429.286 99.8951 430.381 L100.861 431.476 Q104.404 435.663 108.365 439.334 Q108.269 439.076 108.236 438.626 Q108.172 438.175 108.172 437.853 L108.172 437.531 Q108.172 435.856 109.299 432.925 Q110.137 430.349 110.137 429.028 Q110.137 427.74 109.686 426.323 Q109.235 424.906 107.914 423.36 Q106.594 421.814 104.597 421.106 Q104.275 420.977 104.178 420.912 Q104.05 420.848 103.921 420.655 Q103.76 420.461 103.76 420.204 Q103.76 419.85 103.953 419.624 Q104.146 419.399 104.404 419.399 Q104.984 419.399 106.143 419.85 Q107.302 420.268 108.752 421.202 Q110.201 422.104 111.521 423.296 Q112.81 424.455 113.711 426.194 Q114.581 427.933 114.581 429.769 Q114.581 431.089 113.937 432.056 Q113.325 433.022 112.133 433.988 Q110.62 435.308 110.137 436.017 Q109.621 436.725 109.621 437.82 Q109.621 440.751 113.711 443.424 Q114.291 443.714 114.42 443.907 Q114.581 444.068 114.581 444.455 Q114.549 445.26 113.905 445.26 Q113.647 445.26 112.52 444.551 Q111.36 443.811 109.331 442.168 Q107.302 440.493 105.273 438.465 L99.734 432.539 Q94.1946 425.969 91.0706 423.36 Q91.0706 424.455 91.0384 424.938 Q91.0062 425.389 90.813 426.291 Q90.5876 427.192 90.1045 428.448 Q89.1061 431.379 89.1061 432.603 Q89.1061 432.925 89.1383 433.279 Q89.1705 433.634 89.3315 434.439 Q89.4926 435.212 89.8146 435.856 Q90.1045 436.5 90.7486 437.176 Q91.3605 437.853 92.1978 438.207 Q92.4555 438.303 92.5843 438.368 Q92.7131 438.432 92.842 438.626 Q92.9386 438.787 92.9386 439.044 Q92.9386 439.431 92.7131 439.656 Q92.4877 439.849 92.1978 439.849 Q91.6181 439.849 90.4265 439.27 Q89.2349 438.69 87.9467 437.724 Q86.6262 436.758 85.6601 435.18 Q84.6939 433.601 84.6939 431.862 Q84.6939 430.832 85.1448 429.962 Q85.5956 429.06 86.0787 428.61 Q86.5296 428.126 87.528 427.321 Q88.3009 426.645 88.623 426.323 Q88.9451 426.001 89.2993 425.357 Q89.6214 424.68 89.6214 423.94 Q89.6214 422.716 88.6874 421.589 Q87.7212 420.461 85.4024 419.012 Q84.6939 418.626 84.6939 418.014 Q84.6939 417.305 85.338 417.305 Z" fill="#000000" fill-rule="nonzero" fill-opacity="1" /><path clip-path="url(#clip952)" d="M457.188 834.015 L390.048 834.015 L524.327 834.015 L457.188 834.015 L457.188 795.852 L457.188 834.015  Z" fill="#009af9" fill-rule="evenodd" fill-opacity="0.5"/>
<polyline clip-path="url(#clip952)" style="stroke:#000000; stroke-linecap:round; stroke-linejoin:round; stroke-width:4; stroke-opacity:1; fill:none" points="457.188,834.015 390.048,834.015 524.327,834.015 457.188,834.015 457.188,795.852 457.188,834.015 "/>
<path clip-path="url(#clip952)" d="M591.467 795.852 L591.467 782.667 L524.327 776.87 L390.048 776.87 L322.908 782.667 L322.908 795.852 L591.467 795.852 L591.467 782.667 L591.467 795.852  Z" fill="#009af9" fill-rule="evenodd" fill-opacity="0.5"/>
<polyline clip-path="url(#clip952)" style="stroke:#000000; stroke-linecap:round; stroke-linejoin:round; stroke-width:4; stroke-opacity:1; fill:none" points="591.467,795.852 591.467,782.667 524.327,776.87 390.048,776.87 322.908,782.667 322.908,795.852 591.467,795.852 591.467,782.667 591.467,795.852 "/>
<path clip-path="url(#clip952)" d="M591.467 771.074 L591.467 759.164 L322.908 759.164 L322.908 771.074 L390.048 776.87 L524.327 776.87 L591.467 771.074 L591.467 759.164 L591.467 771.074  Z" fill="#009af9" fill-rule="evenodd" fill-opacity="0.5"/>
<polyline clip-path="url(#clip952)" style="stroke:#000000; stroke-linecap:round; stroke-linejoin:round; stroke-width:4; stroke-opacity:1; fill:none" points="591.467,771.074 591.467,759.164 322.908,759.164 322.908,771.074 390.048,776.87 524.327,776.87 591.467,771.074 591.467,759.164 591.467,771.074 "/>
<path clip-path="url(#clip952)" d="M457.188 717.61 L390.048 717.61 L524.327 717.61 L457.188 717.61 L457.188 759.164 L457.188 717.61  Z" fill="#009af9" fill-rule="evenodd" fill-opacity="0.5"/>
<polyline clip-path="url(#clip952)" style="stroke:#000000; stroke-linecap:round; stroke-linejoin:round; stroke-width:4; stroke-opacity:1; fill:none" points="457.188,717.61 390.048,717.61 524.327,717.61 457.188,717.61 457.188,759.164 457.188,717.61 "/>
<circle clip-path="url(#clip952)" cx="457.188" cy="865.923" r="14.4" fill="#009af9" fill-rule="evenodd" fill-opacity="1" stroke="#000000" stroke-opacity="1" stroke-width="2.4"/>
<circle clip-path="url(#clip952)" cx="457.188" cy="865.923" r="14.4" fill="#009af9" fill-rule="evenodd" fill-opacity="1" stroke="#000000" stroke-opacity="1" stroke-width="2.4"/>
<circle clip-path="url(#clip952)" cx="457.188" cy="865.923" r="14.4" fill="#009af9" fill-rule="evenodd" fill-opacity="1" stroke="#000000" stroke-opacity="1" stroke-width="2.4"/>
<circle clip-path="url(#clip952)" cx="457.188" cy="690.29" r="14.4" fill="#009af9" fill-rule="evenodd" fill-opacity="1" stroke="#000000" stroke-opacity="1" stroke-width="2.4"/>
<polyline clip-path="url(#clip952)" style="stroke:#009af9; stroke-linecap:round; stroke-linejoin:round; stroke-width:0; stroke-opacity:1; fill:none" points="457.188,834.015 390.048,834.015 524.327,834.015 457.188,834.015 457.188,795.852 "/>
<polyline clip-path="url(#clip952)" style="stroke:#009af9; stroke-linecap:round; stroke-linejoin:round; stroke-width:0; stroke-opacity:1; fill:none" points="591.467,795.852 591.467,782.667 524.327,776.87 390.048,776.87 322.908,782.667 322.908,795.852 591.467,795.852 591.467,782.667 "/>
<polyline clip-path="url(#clip952)" style="stroke:#009af9; stroke-linecap:round; stroke-linejoin:round; stroke-width:0; stroke-opacity:1; fill:none" points="591.467,771.074 591.467,759.164 322.908,759.164 322.908,771.074 390.048,776.87 524.327,776.87 591.467,771.074 591.467,759.164 "/>
<polyline clip-path="url(#clip952)" style="stroke:#009af9; stroke-linecap:round; stroke-linejoin:round; stroke-width:0; stroke-opacity:1; fill:none" points="457.188,717.61 390.048,717.61 524.327,717.61 457.188,717.61 457.188,759.164 "/>
<path clip-path="url(#clip952)" d="M994.306 908.212 L927.166 908.212 L1061.45 908.212 L994.306 908.212 L994.306 822.877 L994.306 908.212  Z" fill="#e26f46" fill-rule="evenodd" fill-opacity="0.25"/>
<polyline clip-path="url(#clip952)" style="stroke:#000000; stroke-linecap:round; stroke-linejoin:round; stroke-width:4; stroke-opacity:1; fill:none" points="994.306,908.212 927.166,908.212 1061.45,908.212 994.306,908.212 994.306,822.877 994.306,908.212 "/>
<path clip-path="url(#clip952)" d="M1128.59 822.877 L1128.59 779.642 L860.026 779.642 L860.026 822.877 L1128.59 822.877 L1128.59 779.642 L1128.59 822.877  Z" fill="#e26f46" fill-rule="evenodd" fill-opacity="0.25"/>
<polyline clip-path="url(#clip952)" style="stroke:#000000; stroke-linecap:round; stroke-linejoin:round; stroke-width:4; stroke-opacity:1; fill:none" points="1128.59,822.877 1128.59,779.642 860.026,779.642 860.026,822.877 1128.59,822.877 1128.59,779.642 1128.59,822.877 "/>
<path clip-path="url(#clip952)" d="M1128.59 749.798 L860.026 749.798 L860.026 779.642 L1128.59 779.642 L1128.59 749.798 L994.306 749.798 L1128.59 749.798  Z" fill="#e26f46" fill-rule="evenodd" fill-opacity="0.25"/>
<polyline clip-path="url(#clip952)" style="stroke:#000000; stroke-linecap:round; stroke-linejoin:round; stroke-width:4; stroke-opacity:1; fill:none" points="1128.59,749.798 860.026,749.798 860.026,779.642 1128.59,779.642 1128.59,749.798 994.306,749.798 1128.59,749.798 "/>
<path clip-path="url(#clip952)" d="M994.306 644.653 L927.166 644.653 L1061.45 644.653 L994.306 644.653 L994.306 749.798 L994.306 644.653  Z" fill="#e26f46" fill-rule="evenodd" fill-opacity="0.25"/>
<polyline clip-path="url(#clip952)" style="stroke:#000000; stroke-linecap:round; stroke-linejoin:round; stroke-width:4; stroke-opacity:1; fill:none" points="994.306,644.653 927.166,644.653 1061.45,644.653 994.306,644.653 994.306,749.798 994.306,644.653 "/>
<polyline clip-path="url(#clip952)" style="stroke:#e26f46; stroke-linecap:round; stroke-linejoin:round; stroke-width:0; stroke-opacity:1; fill:none" points="994.306,908.212 927.166,908.212 1061.45,908.212 994.306,908.212 994.306,822.877 "/>
<polyline clip-path="url(#clip952)" style="stroke:#e26f46; stroke-linecap:round; stroke-linejoin:round; stroke-width:0; stroke-opacity:1; fill:none" points="1128.59,822.877 1128.59,779.642 860.026,779.642 860.026,822.877 1128.59,822.877 1128.59,779.642 "/>
<polyline clip-path="url(#clip952)" style="stroke:#e26f46; stroke-linecap:round; stroke-linejoin:round; stroke-width:0; stroke-opacity:1; fill:none" points="1128.59,749.798 860.026,749.798 860.026,779.642 1128.59,779.642 1128.59,749.798 994.306,749.798 "/>
<polyline clip-path="url(#clip952)" style="stroke:#e26f46; stroke-linecap:round; stroke-linejoin:round; stroke-width:0; stroke-opacity:1; fill:none" points="994.306,644.653 927.166,644.653 1061.45,644.653 994.306,644.653 994.306,749.798 "/>
<path clip-path="url(#clip950)" d="M541.395 242.607 L1124.29 242.607 L1124.29 81.3781 L541.395 81.3781  Z" fill="#ffffff" fill-rule="evenodd" fill-opacity="1"/>
<polyline clip-path="url(#clip950)" style="stroke:#000000; stroke-linecap:round; stroke-linejoin:round; stroke-width:4; stroke-opacity:1; fill:none" points="541.395,242.607 1124.29,242.607 1124.29,81.3781 541.395,81.3781 541.395,242.607 "/>
<path clip-path="url(#clip950)" d="M550.884 156.618 L607.819 156.618 L607.819 113.624 L550.884 113.624 L550.884 156.618  Z" fill="#009af9" fill-rule="evenodd" fill-opacity="0.5"/>
<polyline clip-path="url(#clip950)" style="stroke:#000000; stroke-linecap:round; stroke-linejoin:round; stroke-width:4; stroke-opacity:1; fill:none" points="550.884,156.618 607.819,156.618 607.819,113.624 550.884,113.624 550.884,156.618 "/>
<g clip-path="url(#clip950)">
<text style="fill:#000000; fill-opacity:1; font-family:Book Antiqua,Palatino,Palatino Linotype,Palatino LT STD,Georgia,serif; font-size:51px; font-weight:bold; text-anchor:start;" transform="rotate(0, 617.308, 152.621)" x="617.308" y="152.621">Residual 1: N(0,0.001)</text>
</g>
<path clip-path="url(#clip950)" d="M550.884 210.362 L607.819 210.362 L607.819 167.367 L550.884 167.367 L550.884 210.362  Z" fill="#e26f46" fill-rule="evenodd" fill-opacity="0.25"/>
<polyline clip-path="url(#clip950)" style="stroke:#000000; stroke-linecap:round; stroke-linejoin:round; stroke-width:4; stroke-opacity:1; fill:none" points="550.884,210.362 607.819,210.362 607.819,167.367 550.884,167.367 550.884,210.362 "/>
<g clip-path="url(#clip950)">
<text style="fill:#000000; fill-opacity:1; font-family:Book Antiqua,Palatino,Palatino Linotype,Palatino LT STD,Georgia,serif; font-size:51px; font-weight:bold; text-anchor:start;" transform="rotate(0, 617.308, 206.364)" x="617.308" y="206.364">Residual 2: N(0,0.010)</text>
</g>
</svg>
