<?xml version="1.0" encoding="utf-8"?>
<svg xmlns="http://www.w3.org/2000/svg" xmlns:xlink="http://www.w3.org/1999/xlink" width="300" height="300" viewBox="0 0 1200 1200">
<defs>
  <clipPath id="clip910">
    <rect x="0" y="0" width="1200" height="1200"/>
  </clipPath>
</defs>
<path clip-path="url(#clip910)" d="M0 1200 L1200 1200 L1200 0 L0 0  Z" fill="#ffffff" fill-rule="evenodd" fill-opacity="1"/>
<defs>
  <clipPath id="clip911">
    <rect x="240" y="120" width="841" height="841"/>
  </clipPath>
</defs>
<defs>
  <clipPath id="clip912">
    <rect x="263" y="47" width="890" height="877"/>
  </clipPath>
</defs>
<polyline clip-path="url(#clip912)" style="stroke:#000000; stroke-linecap:round; stroke-linejoin:round; stroke-width:2; stroke-opacity:0.25; fill:none" points="346.383,923.078 346.383,47.2441 "/>
<polyline clip-path="url(#clip912)" style="stroke:#000000; stroke-linecap:round; stroke-linejoin:round; stroke-width:2; stroke-opacity:0.25; fill:none" points="465.439,923.078 465.439,47.2441 "/>
<polyline clip-path="url(#clip912)" style="stroke:#000000; stroke-linecap:round; stroke-linejoin:round; stroke-width:2; stroke-opacity:0.25; fill:none" points="584.494,923.078 584.494,47.2441 "/>
<polyline clip-path="url(#clip912)" style="stroke:#000000; stroke-linecap:round; stroke-linejoin:round; stroke-width:2; stroke-opacity:0.25; fill:none" points="703.549,923.078 703.549,47.2441 "/>
<polyline clip-path="url(#clip912)" style="stroke:#000000; stroke-linecap:round; stroke-linejoin:round; stroke-width:2; stroke-opacity:0.25; fill:none" points="822.605,923.078 822.605,47.2441 "/>
<polyline clip-path="url(#clip912)" style="stroke:#000000; stroke-linecap:round; stroke-linejoin:round; stroke-width:2; stroke-opacity:0.25; fill:none" points="941.66,923.078 941.66,47.2441 "/>
<polyline clip-path="url(#clip912)" style="stroke:#000000; stroke-linecap:round; stroke-linejoin:round; stroke-width:2; stroke-opacity:0.25; fill:none" points="1060.72,923.078 1060.72,47.2441 "/>
<polyline clip-path="url(#clip910)" style="stroke:#000000; stroke-linecap:round; stroke-linejoin:round; stroke-width:4; stroke-opacity:1; fill:none" points="263.518,923.078 1152.76,923.078 "/>
<polyline clip-path="url(#clip910)" style="stroke:#000000; stroke-linecap:round; stroke-linejoin:round; stroke-width:4; stroke-opacity:1; fill:none" points="263.518,47.2441 1152.76,47.2441 "/>
<polyline clip-path="url(#clip910)" style="stroke:#000000; stroke-linecap:round; stroke-linejoin:round; stroke-width:4; stroke-opacity:1; fill:none" points="346.383,923.078 346.383,904.181 "/>
<polyline clip-path="url(#clip910)" style="stroke:#000000; stroke-linecap:round; stroke-linejoin:round; stroke-width:4; stroke-opacity:1; fill:none" points="465.439,923.078 465.439,904.181 "/>
<polyline clip-path="url(#clip910)" style="stroke:#000000; stroke-linecap:round; stroke-linejoin:round; stroke-width:4; stroke-opacity:1; fill:none" points="584.494,923.078 584.494,904.181 "/>
<polyline clip-path="url(#clip910)" style="stroke:#000000; stroke-linecap:round; stroke-linejoin:round; stroke-width:4; stroke-opacity:1; fill:none" points="703.549,923.078 703.549,904.181 "/>
<polyline clip-path="url(#clip910)" style="stroke:#000000; stroke-linecap:round; stroke-linejoin:round; stroke-width:4; stroke-opacity:1; fill:none" points="822.605,923.078 822.605,904.181 "/>
<polyline clip-path="url(#clip910)" style="stroke:#000000; stroke-linecap:round; stroke-linejoin:round; stroke-width:4; stroke-opacity:1; fill:none" points="941.66,923.078 941.66,904.181 "/>
<polyline clip-path="url(#clip910)" style="stroke:#000000; stroke-linecap:round; stroke-linejoin:round; stroke-width:4; stroke-opacity:1; fill:none" points="1060.72,923.078 1060.72,904.181 "/>
<g clip-path="url(#clip910)">
<text style="fill:#000000; fill-opacity:1; font-family:Book Antiqua,Palatino,Palatino Linotype,Palatino LT STD,Georgia,serif; font-size:51px; font-weight:bold; text-anchor:middle;" transform="rotate(-30, 295.933, 1005.28)" x="295.933" y="1005.28">−0.348</text>
</g>
<g clip-path="url(#clip910)">
<text style="fill:#000000; fill-opacity:1; font-family:Book Antiqua,Palatino,Palatino Linotype,Palatino LT STD,Georgia,serif; font-size:51px; font-weight:bold; text-anchor:middle;" transform="rotate(-30, 414.988, 1005.28)" x="414.988" y="1005.28">−0.347</text>
</g>
<g clip-path="url(#clip910)">
<text style="fill:#000000; fill-opacity:1; font-family:Book Antiqua,Palatino,Palatino Linotype,Palatino LT STD,Georgia,serif; font-size:51px; font-weight:bold; text-anchor:middle;" transform="rotate(-30, 534.043, 1005.28)" x="534.043" y="1005.28">−0.346</text>
</g>
<g clip-path="url(#clip910)">
<text style="fill:#000000; fill-opacity:1; font-family:Book Antiqua,Palatino,Palatino Linotype,Palatino LT STD,Georgia,serif; font-size:51px; font-weight:bold; text-anchor:middle;" transform="rotate(-30, 653.099, 1005.28)" x="653.099" y="1005.28">−0.345</text>
</g>
<g clip-path="url(#clip910)">
<text style="fill:#000000; fill-opacity:1; font-family:Book Antiqua,Palatino,Palatino Linotype,Palatino LT STD,Georgia,serif; font-size:51px; font-weight:bold; text-anchor:middle;" transform="rotate(-30, 772.154, 1005.28)" x="772.154" y="1005.28">−0.344</text>
</g>
<g clip-path="url(#clip910)">
<text style="fill:#000000; fill-opacity:1; font-family:Book Antiqua,Palatino,Palatino Linotype,Palatino LT STD,Georgia,serif; font-size:51px; font-weight:bold; text-anchor:middle;" transform="rotate(-30, 891.21, 1005.28)" x="891.21" y="1005.28">−0.343</text>
</g>
<g clip-path="url(#clip910)">
<text style="fill:#000000; fill-opacity:1; font-family:Book Antiqua,Palatino,Palatino Linotype,Palatino LT STD,Georgia,serif; font-size:51px; font-weight:bold; text-anchor:middle;" transform="rotate(-30, 1010.26, 1005.28)" x="1010.26" y="1005.28">−0.342</text>
</g>
<path clip-path="url(#clip910)" d="M563.775 1100.18 Q563.775 1099.92 564.645 1098.25 Q565.514 1096.54 568.574 1090.45 Q571.633 1084.33 574.789 1077.93 L586.158 1055.06 Q586.963 1053.61 587.994 1053.61 Q588.928 1053.61 589.347 1054.19 Q589.765 1054.77 591.698 1058.67 Q592.696 1060.57 593.276 1061.79 L611.923 1099.12 Q612.245 1099.92 612.277 1100.18 Q612.277 1100.82 611.15 1100.82 L565.514 1100.82 Q563.775 1100.82 563.775 1100.18 M568.123 1095.8 L603.614 1095.8 L585.868 1060.18 L568.123 1095.8 Z" fill="#000000" fill-rule="nonzero" fill-opacity="1" /><path clip-path="url(#clip910)" d="M651.308 1058.86 Q651.308 1060.63 650.181 1061.73 Q649.086 1062.82 647.701 1062.82 Q646.703 1062.82 645.962 1062.21 Q645.253 1061.6 645.253 1060.53 Q645.253 1059.44 646.091 1058.28 Q646.928 1057.12 648.828 1056.96 Q647.572 1055.77 645.576 1055.77 Q644.577 1055.77 643.74 1056.41 Q642.935 1057.02 642.484 1058.02 Q642.001 1059.05 640.906 1064.88 Q640.551 1066.78 640.229 1068.62 Q639.907 1070.45 639.521 1072.39 L644.996 1072.39 Q645.704 1072.39 645.994 1072.42 Q646.284 1072.45 646.51 1072.61 Q646.767 1072.77 646.767 1073.13 Q646.767 1074.03 646.348 1074.25 Q645.962 1074.45 644.803 1074.45 L639.134 1074.45 L635.173 1095.35 Q635.076 1095.96 634.658 1097.89 Q634.271 1099.79 633.337 1102.92 Q632.403 1106.07 631.469 1107.94 Q630.954 1109 630.278 1110 Q629.634 1111.03 628.7 1112.06 Q627.766 1113.09 626.542 1113.71 Q625.318 1114.35 624.03 1114.35 Q621.84 1114.35 620.133 1113.13 Q618.426 1111.9 618.426 1109.81 Q618.426 1108.04 619.521 1106.94 Q620.648 1105.85 622.033 1105.85 Q623.031 1105.85 623.74 1106.46 Q624.481 1107.07 624.481 1108.13 Q624.481 1108.59 624.32 1109.1 Q624.159 1109.62 623.804 1110.2 Q623.45 1110.81 622.677 1111.23 Q621.904 1111.65 620.841 1111.71 Q622.097 1112.9 624.03 1112.9 Q624.642 1112.9 625.189 1112.64 Q625.737 1112.42 626.188 1111.84 Q626.671 1111.26 627.025 1110.68 Q627.379 1110.13 627.734 1109.07 Q628.088 1108.04 628.313 1107.27 Q628.539 1106.49 628.829 1105.11 Q629.151 1103.72 629.312 1102.89 Q629.473 1102.08 629.762 1100.5 L634.69 1074.45 L630.342 1074.45 Q629.569 1074.45 629.247 1074.42 Q628.957 1074.38 628.732 1074.22 Q628.506 1074.03 628.506 1073.64 Q628.506 1073.03 628.764 1072.77 Q629.054 1072.48 629.376 1072.45 Q629.698 1072.39 630.471 1072.39 L635.044 1072.39 Q636.59 1064.24 637.202 1062.05 Q637.911 1059.73 639.006 1058.12 Q640.101 1056.48 641.324 1055.7 Q642.548 1054.93 643.547 1054.64 Q644.577 1054.32 645.576 1054.32 Q647.83 1054.32 649.569 1055.54 Q651.308 1056.73 651.308 1058.86 Z" fill="#000000" fill-rule="nonzero" fill-opacity="1" /><path clip-path="url(#clip910)" d="M660.188 1084.33 Q660.188 1073.19 664.343 1064.21 Q666.114 1060.44 668.594 1057.28 Q671.074 1054.13 672.716 1052.74 Q674.359 1051.36 674.81 1051.36 Q675.454 1051.36 675.486 1052 Q675.486 1052.32 674.616 1053.13 Q663.988 1063.95 664.021 1084.33 Q664.021 1104.79 674.359 1115.19 Q675.486 1116.31 675.486 1116.67 Q675.486 1117.31 674.81 1117.31 Q674.359 1117.31 672.781 1115.99 Q671.203 1114.67 668.755 1111.65 Q666.307 1108.62 664.536 1104.91 Q660.188 1095.93 660.188 1084.33 Z" fill="#000000" fill-rule="nonzero" fill-opacity="1" /><path clip-path="url(#clip910)" d="M700.757 1073.13 Q700.757 1074.03 700.338 1074.25 Q699.92 1074.45 698.76 1074.45 L692.577 1074.45 L687.682 1093.9 Q687.295 1095.61 687.295 1097.06 Q687.295 1098.67 687.778 1099.37 Q688.293 1100.08 689.356 1100.08 Q691.45 1100.08 693.704 1098.18 Q695.991 1096.28 697.923 1091.65 Q698.181 1091.03 698.309 1090.9 Q698.47 1090.74 698.889 1090.74 Q699.694 1090.74 699.694 1091.39 Q699.694 1091.61 699.243 1092.64 Q698.825 1093.67 697.891 1095.19 Q696.989 1096.7 695.797 1098.12 Q694.638 1099.54 692.867 1100.57 Q691.095 1101.56 689.195 1101.56 Q686.522 1101.56 684.815 1099.86 Q683.14 1098.15 683.14 1095.48 Q683.14 1094.61 683.817 1091.84 Q684.493 1089.04 688.165 1074.45 L682.335 1074.45 Q681.53 1074.45 681.208 1074.42 Q680.918 1074.38 680.693 1074.22 Q680.5 1074.03 680.5 1073.64 Q680.5 1073.03 680.757 1072.77 Q681.015 1072.48 681.337 1072.45 Q681.691 1072.39 682.496 1072.39 L688.68 1072.39 L691.256 1061.92 Q691.514 1060.89 692.158 1060.31 Q692.834 1059.7 693.221 1059.63 Q693.607 1059.54 693.897 1059.54 Q694.767 1059.54 695.282 1060.02 Q695.797 1060.47 695.797 1061.31 Q695.797 1061.76 693.092 1072.39 L698.889 1072.39 Q699.63 1072.39 699.92 1072.42 Q700.242 1072.45 700.499 1072.61 Q700.757 1072.77 700.757 1073.13 Z" fill="#000000" fill-rule="nonzero" fill-opacity="1" /><path clip-path="url(#clip910)" d="M705.921 1116.67 Q705.921 1116.35 706.758 1115.54 Q717.386 1104.72 717.386 1084.33 Q717.386 1063.88 707.177 1053.55 Q705.921 1052.35 705.921 1052 Q705.921 1051.36 706.565 1051.36 Q707.016 1051.36 708.594 1052.68 Q710.204 1054 712.619 1057.02 Q715.067 1060.05 716.871 1063.75 Q721.218 1072.74 721.218 1084.33 Q721.218 1095.48 717.064 1104.46 Q715.293 1108.23 712.813 1111.39 Q710.333 1114.54 708.69 1115.93 Q707.048 1117.31 706.565 1117.31 Q705.921 1117.31 705.921 1116.67 Z" fill="#000000" fill-rule="nonzero" fill-opacity="1" /><path clip-path="url(#clip910)" d="M731.248 1116.38 Q731.248 1116.06 731.506 1115.35 L754.79 1053.13 Q754.79 1053.06 754.952 1052.71 Q755.113 1052.35 755.209 1052.13 Q755.306 1051.87 755.499 1051.68 Q755.724 1051.48 755.982 1051.48 Q756.626 1051.48 756.626 1052.29 Q756.626 1052.35 756.433 1053.13 L733.084 1115.41 Q732.697 1116.54 732.44 1116.86 Q732.214 1117.18 731.828 1117.18 Q731.248 1117.18 731.248 1116.38 Z" fill="#000000" fill-rule="nonzero" fill-opacity="1" /><path clip-path="url(#clip910)" d="M819.435 1056.51 Q819.435 1057.44 819.016 1057.64 Q818.63 1057.83 817.213 1057.83 Q814.797 1057.83 813.702 1058.15 Q812.64 1058.44 812.317 1058.96 Q812.028 1059.44 811.673 1060.86 L802.752 1096.48 Q802.752 1096.51 802.656 1096.96 Q802.559 1097.38 802.559 1097.6 Q802.559 1098.02 802.817 1098.28 Q803.107 1098.54 803.815 1098.67 Q804.524 1098.76 805.071 1098.79 Q805.651 1098.79 806.842 1098.79 Q808.324 1098.79 808.549 1099.05 Q808.678 1099.21 808.678 1099.5 Q808.678 1100.12 808.421 1100.44 Q808.195 1100.73 807.97 1100.79 Q807.776 1100.82 807.39 1100.82 Q806.714 1100.82 805.264 1100.76 Q803.815 1100.7 803.074 1100.7 L798.855 1100.63 L790.482 1100.82 Q789.58 1100.82 789.58 1100.08 Q789.58 1099.44 789.806 1099.15 Q790.031 1098.86 790.256 1098.83 Q790.514 1098.79 791.158 1098.79 Q794.475 1098.79 795.57 1098.47 Q796.698 1098.12 797.149 1096.6 L801.69 1078.41 L781.593 1078.41 L777.084 1096.48 Q777.084 1096.51 776.988 1096.96 Q776.891 1097.38 776.891 1097.6 Q776.891 1098.02 777.149 1098.28 Q777.439 1098.54 778.147 1098.67 Q778.856 1098.76 779.403 1098.79 Q779.983 1098.79 781.174 1098.79 Q782.656 1098.79 782.914 1099.05 Q783.042 1099.21 783.042 1099.5 Q783.042 1099.95 782.914 1100.28 Q782.817 1100.57 782.559 1100.66 Q782.334 1100.76 782.173 1100.79 Q782.012 1100.82 781.722 1100.82 Q781.046 1100.82 779.596 1100.76 Q778.179 1100.7 777.439 1100.7 L773.22 1100.63 L764.846 1100.82 Q763.912 1100.82 763.912 1100.08 Q763.912 1099.44 764.138 1099.18 Q764.363 1098.89 764.653 1098.86 Q764.943 1098.79 765.683 1098.79 Q767.294 1098.79 768.26 1098.7 Q769.226 1098.6 769.838 1098.47 Q770.482 1098.31 770.804 1097.86 Q771.158 1097.41 771.319 1097.02 Q771.48 1096.6 771.706 1095.67 L780.53 1060.24 Q780.788 1059.18 780.788 1059.02 Q780.788 1058.41 780.401 1058.25 Q780.047 1058.05 779.017 1057.96 L776.505 1057.83 Q775.732 1057.83 775.41 1057.8 Q775.12 1057.76 774.894 1057.6 Q774.669 1057.44 774.669 1057.09 Q774.669 1056.64 774.765 1056.35 Q774.894 1056.03 775.12 1055.93 Q775.345 1055.83 775.506 1055.8 Q775.667 1055.77 775.925 1055.77 L784.427 1055.96 L792.865 1055.77 Q793.799 1055.77 793.799 1056.51 Q793.799 1057.44 793.38 1057.64 Q792.962 1057.83 791.545 1057.83 Q789.194 1057.83 788.099 1058.15 Q787.004 1058.44 786.649 1058.96 Q786.327 1059.47 786.005 1060.86 L782.108 1076.35 L802.237 1076.35 L806.198 1060.24 Q806.456 1059.09 806.456 1059.02 Q806.456 1058.41 806.07 1058.25 Q805.715 1058.05 804.685 1057.96 L802.173 1057.83 Q801.4 1057.83 801.078 1057.8 Q800.788 1057.76 800.53 1057.6 Q800.305 1057.44 800.305 1057.09 Q800.305 1056.64 800.401 1056.35 Q800.53 1056.03 800.756 1055.93 Q800.981 1055.83 801.142 1055.8 Q801.303 1055.77 801.561 1055.77 L810.063 1055.96 L818.533 1055.77 Q819.435 1055.77 819.435 1056.51 Z" fill="#000000" fill-rule="nonzero" fill-opacity="1" /><path clip-path="url(#clip910)" d="M850.086 1072.32 Q850.086 1072.55 849.539 1073.51 Q849.023 1074.45 847.123 1076.8 Q845.223 1079.15 842.389 1081.89 Q841.326 1082.95 839.716 1084.43 Q838.106 1085.91 837.011 1086.88 L835.916 1087.84 Q831.729 1091.39 828.057 1095.35 Q828.315 1095.25 828.766 1095.22 Q829.217 1095.16 829.539 1095.16 L829.861 1095.16 Q831.536 1095.16 834.466 1096.28 Q837.043 1097.12 838.363 1097.12 Q839.651 1097.12 841.068 1096.67 Q842.486 1096.22 844.031 1094.9 Q845.577 1093.58 846.286 1091.58 Q846.415 1091.26 846.479 1091.16 Q846.543 1091.03 846.737 1090.9 Q846.93 1090.74 847.188 1090.74 Q847.542 1090.74 847.767 1090.94 Q847.993 1091.13 847.993 1091.39 Q847.993 1091.97 847.542 1093.13 Q847.123 1094.29 846.189 1095.74 Q845.287 1097.18 844.096 1098.51 Q842.936 1099.79 841.197 1100.7 Q839.458 1101.56 837.622 1101.56 Q836.302 1101.56 835.336 1100.92 Q834.37 1100.31 833.403 1099.12 Q832.083 1097.6 831.375 1097.12 Q830.666 1096.6 829.571 1096.6 Q826.64 1096.6 823.967 1100.7 Q823.677 1101.27 823.484 1101.4 Q823.323 1101.56 822.937 1101.56 Q822.131 1101.53 822.131 1100.89 Q822.131 1100.63 822.84 1099.5 Q823.581 1098.34 825.223 1096.32 Q826.898 1094.29 828.927 1092.26 L834.853 1086.72 Q841.423 1081.18 844.031 1078.05 Q842.936 1078.05 842.453 1078.02 Q842.002 1077.99 841.101 1077.8 Q840.199 1077.57 838.943 1077.09 Q836.012 1076.09 834.788 1076.09 Q834.466 1076.09 834.112 1076.12 Q833.758 1076.15 832.953 1076.32 Q832.18 1076.48 831.536 1076.8 Q830.891 1077.09 830.215 1077.73 Q829.539 1078.34 829.185 1079.18 Q829.088 1079.44 829.023 1079.57 Q828.959 1079.7 828.766 1079.83 Q828.605 1079.92 828.347 1079.92 Q827.961 1079.92 827.735 1079.7 Q827.542 1079.47 827.542 1079.18 Q827.542 1078.6 828.122 1077.41 Q828.701 1076.22 829.668 1074.93 Q830.634 1073.61 832.212 1072.64 Q833.79 1071.68 835.529 1071.68 Q836.56 1071.68 837.429 1072.13 Q838.331 1072.58 838.782 1073.06 Q839.265 1073.51 840.07 1074.51 Q840.746 1075.28 841.068 1075.61 Q841.391 1075.93 842.035 1076.28 Q842.711 1076.61 843.452 1076.61 Q844.676 1076.61 845.803 1075.67 Q846.93 1074.7 848.379 1072.39 Q848.766 1071.68 849.378 1071.68 Q850.086 1071.68 850.086 1072.32 Z" fill="#000000" fill-rule="nonzero" fill-opacity="1" /><polyline clip-path="url(#clip912)" style="stroke:#000000; stroke-linecap:round; stroke-linejoin:round; stroke-width:2; stroke-opacity:0.25; fill:none" points="263.518,923.078 1152.76,923.078 "/>
<polyline clip-path="url(#clip912)" style="stroke:#000000; stroke-linecap:round; stroke-linejoin:round; stroke-width:2; stroke-opacity:0.25; fill:none" points="263.518,777.106 1152.76,777.106 "/>
<polyline clip-path="url(#clip912)" style="stroke:#000000; stroke-linecap:round; stroke-linejoin:round; stroke-width:2; stroke-opacity:0.25; fill:none" points="263.518,631.133 1152.76,631.133 "/>
<polyline clip-path="url(#clip912)" style="stroke:#000000; stroke-linecap:round; stroke-linejoin:round; stroke-width:2; stroke-opacity:0.25; fill:none" points="263.518,485.161 1152.76,485.161 "/>
<polyline clip-path="url(#clip912)" style="stroke:#000000; stroke-linecap:round; stroke-linejoin:round; stroke-width:2; stroke-opacity:0.25; fill:none" points="263.518,339.189 1152.76,339.189 "/>
<polyline clip-path="url(#clip912)" style="stroke:#000000; stroke-linecap:round; stroke-linejoin:round; stroke-width:2; stroke-opacity:0.25; fill:none" points="263.518,193.216 1152.76,193.216 "/>
<polyline clip-path="url(#clip912)" style="stroke:#000000; stroke-linecap:round; stroke-linejoin:round; stroke-width:2; stroke-opacity:0.25; fill:none" points="263.518,47.2441 1152.76,47.2441 "/>
<polyline clip-path="url(#clip910)" style="stroke:#000000; stroke-linecap:round; stroke-linejoin:round; stroke-width:4; stroke-opacity:1; fill:none" points="263.518,923.078 263.518,47.2441 "/>
<polyline clip-path="url(#clip910)" style="stroke:#000000; stroke-linecap:round; stroke-linejoin:round; stroke-width:4; stroke-opacity:1; fill:none" points="1152.76,923.078 1152.76,47.2441 "/>
<polyline clip-path="url(#clip910)" style="stroke:#000000; stroke-linecap:round; stroke-linejoin:round; stroke-width:4; stroke-opacity:1; fill:none" points="263.518,923.078 282.416,923.078 "/>
<polyline clip-path="url(#clip910)" style="stroke:#000000; stroke-linecap:round; stroke-linejoin:round; stroke-width:4; stroke-opacity:1; fill:none" points="263.518,777.106 282.416,777.106 "/>
<polyline clip-path="url(#clip910)" style="stroke:#000000; stroke-linecap:round; stroke-linejoin:round; stroke-width:4; stroke-opacity:1; fill:none" points="263.518,631.133 282.416,631.133 "/>
<polyline clip-path="url(#clip910)" style="stroke:#000000; stroke-linecap:round; stroke-linejoin:round; stroke-width:4; stroke-opacity:1; fill:none" points="263.518,485.161 282.416,485.161 "/>
<polyline clip-path="url(#clip910)" style="stroke:#000000; stroke-linecap:round; stroke-linejoin:round; stroke-width:4; stroke-opacity:1; fill:none" points="263.518,339.189 282.416,339.189 "/>
<polyline clip-path="url(#clip910)" style="stroke:#000000; stroke-linecap:round; stroke-linejoin:round; stroke-width:4; stroke-opacity:1; fill:none" points="263.518,193.216 282.416,193.216 "/>
<polyline clip-path="url(#clip910)" style="stroke:#000000; stroke-linecap:round; stroke-linejoin:round; stroke-width:4; stroke-opacity:1; fill:none" points="263.518,47.2441 282.416,47.2441 "/>
<g clip-path="url(#clip910)">
<text style="fill:#000000; fill-opacity:1; font-family:Book Antiqua,Palatino,Palatino Linotype,Palatino LT STD,Georgia,serif; font-size:51px; font-weight:bold; text-anchor:middle;" transform="rotate(0, 232.831, 940.578)" x="232.831" y="940.578">0</text>
</g>
<g clip-path="url(#clip910)">
<text style="fill:#000000; fill-opacity:1; font-family:Book Antiqua,Palatino,Palatino Linotype,Palatino LT STD,Georgia,serif; font-size:51px; font-weight:bold; text-anchor:middle;" transform="rotate(0, 207.456, 794.606)" x="207.456" y="794.606">200</text>
</g>
<g clip-path="url(#clip910)">
<text style="fill:#000000; fill-opacity:1; font-family:Book Antiqua,Palatino,Palatino Linotype,Palatino LT STD,Georgia,serif; font-size:51px; font-weight:bold; text-anchor:middle;" transform="rotate(0, 207.456, 648.633)" x="207.456" y="648.633">400</text>
</g>
<g clip-path="url(#clip910)">
<text style="fill:#000000; fill-opacity:1; font-family:Book Antiqua,Palatino,Palatino Linotype,Palatino LT STD,Georgia,serif; font-size:51px; font-weight:bold; text-anchor:middle;" transform="rotate(0, 207.456, 502.661)" x="207.456" y="502.661">600</text>
</g>
<g clip-path="url(#clip910)">
<text style="fill:#000000; fill-opacity:1; font-family:Book Antiqua,Palatino,Palatino Linotype,Palatino LT STD,Georgia,serif; font-size:51px; font-weight:bold; text-anchor:middle;" transform="rotate(0, 207.456, 356.689)" x="207.456" y="356.689">800</text>
</g>
<g clip-path="url(#clip910)">
<text style="fill:#000000; fill-opacity:1; font-family:Book Antiqua,Palatino,Palatino Linotype,Palatino LT STD,Georgia,serif; font-size:51px; font-weight:bold; text-anchor:middle;" transform="rotate(0, 194.769, 210.716)" x="194.769" y="210.716">1000</text>
</g>
<g clip-path="url(#clip910)">
<text style="fill:#000000; fill-opacity:1; font-family:Book Antiqua,Palatino,Palatino Linotype,Palatino LT STD,Georgia,serif; font-size:51px; font-weight:bold; text-anchor:middle;" transform="rotate(0, 194.769, 64.7441)" x="194.769" y="64.7441">1200</text>
</g>
<path clip-path="url(#clip910)" d="M95.2252 502.868 Q99.9273 502.868 104.468 505.251 Q109.009 507.602 111.811 511.306 Q114.581 515.009 114.581 518.777 Q114.581 521.032 113.357 522.545 Q112.101 524.027 110.33 524.832 Q112.52 525.444 117.769 526.764 Q123.019 528.085 123.534 528.085 Q123.824 528.085 123.953 528.02 Q124.082 527.956 124.243 527.666 Q124.436 527.376 124.5 526.668 Q124.597 525.959 124.597 524.768 Q124.597 524.156 124.597 523.93 Q124.629 523.673 124.79 523.447 Q124.951 523.19 125.305 523.19 Q126.626 523.19 126.626 524.381 Q126.626 525.444 126.529 527.634 Q126.433 529.824 126.433 530.919 Q126.433 531.853 126.529 533.721 Q126.626 535.589 126.626 536.458 Q126.626 537.328 125.853 537.328 Q125.402 537.328 125.112 537.199 Q124.855 537.103 124.726 536.845 Q124.629 536.587 124.597 536.362 Q124.597 536.169 124.597 535.782 Q124.597 534.301 124.339 533.657 Q124.114 533.012 123.631 532.787 Q123.18 532.529 121.892 532.239 L92.5199 524.832 Q90.5554 524.381 89.1705 524.381 Q87.4314 524.381 86.7873 524.929 Q86.1431 525.476 86.1431 526.442 Q86.1431 528.117 88.1399 529.212 Q90.1367 530.307 94.0014 531.241 Q95.0642 531.531 95.2896 531.724 Q95.5151 531.885 95.5151 532.368 Q95.4828 533.173 94.8387 533.173 Q94.6777 533.173 93.6471 532.916 Q92.5843 532.658 91.0384 532.175 Q89.4604 531.66 88.462 531.112 Q87.7856 530.79 87.3348 530.5 Q86.8839 530.21 86.1754 529.631 Q85.4668 529.019 85.0804 528.149 Q84.6939 527.28 84.6939 526.217 Q84.6939 524.156 85.9177 522.449 Q87.1415 520.742 89.6214 520.291 Q87.4636 518.455 86.0787 516.201 Q84.6939 513.947 84.6939 511.66 Q84.6939 507.86 87.6568 505.38 Q90.5876 502.868 95.2252 502.868 M92.3267 507.634 Q89.3959 507.634 87.7856 508.761 Q86.1431 509.856 86.1431 511.853 Q86.1431 514.333 88.6552 517.199 Q91.0384 520.033 93.2606 520.613 L106.175 523.866 L107.238 524.059 Q107.431 524.059 108.011 523.963 Q108.558 523.834 109.46 523.479 Q110.362 523.093 111.167 522.578 Q111.94 522.03 112.52 521.064 Q113.099 520.066 113.099 518.842 Q113.099 516.877 111.36 514.752 Q109.621 512.594 106.336 510.984 Q104.211 509.985 99.6374 508.826 Q95.032 507.634 92.3267 507.634 Z" fill="#000000" fill-rule="nonzero" fill-opacity="1" /><path clip-path="url(#clip910)" d="M68.7842 467.528 L106.916 477.029 Q108.623 477.415 110.072 477.415 Q113.099 477.415 113.099 475.45 Q113.099 474.484 112.488 473.711 Q111.876 472.938 110.587 472.326 Q109.299 471.715 108.108 471.328 Q106.884 470.942 104.951 470.426 Q104.178 470.265 103.985 470.136 Q103.76 469.975 103.76 469.525 Q103.76 468.719 104.404 468.719 Q108.558 469.589 110.942 470.716 Q114.581 472.52 114.581 475.579 Q114.581 477.898 113.164 479.541 Q111.747 481.183 109.621 481.57 Q114.581 485.789 114.581 490.169 Q114.581 494.033 111.65 496.481 Q108.687 498.929 104.017 498.929 Q99.3153 498.929 94.8065 496.61 Q90.2977 494.259 87.4958 490.555 Q84.6939 486.851 84.6939 483.051 Q84.6939 479.025 88.9129 476.964 L73.2608 473.003 L71.9726 472.81 Q71.5861 472.81 71.3929 472.971 Q71.1674 473.099 71.0064 473.872 Q70.8454 474.613 70.8454 476.095 Q70.8454 476.706 70.8132 476.996 Q70.781 477.254 70.6199 477.479 Q70.4267 477.705 70.0402 477.705 Q68.913 477.705 68.7842 476.771 Q68.0757 470.587 68.0757 468.397 Q68.0757 468.011 68.2689 467.785 Q68.4299 467.56 68.6232 467.56 L68.7842 467.528 M91.9402 477.769 Q91.6504 477.769 90.8452 477.995 Q90.0401 478.22 88.9129 478.735 Q87.7856 479.251 86.9805 480.378 Q86.1431 481.473 86.1431 482.954 Q86.1431 484.951 87.8501 487.045 Q89.557 489.106 92.4555 490.619 Q94.7743 491.779 99.6374 493.035 Q104.5 494.259 106.916 494.259 Q108.397 494.259 109.718 493.937 Q111.006 493.582 112.069 492.584 Q113.099 491.586 113.099 490.04 Q113.099 486.272 108.43 482.568 Q107.624 481.859 107.302 481.698 Q106.948 481.505 105.982 481.248 L93.0674 477.963 Q92.1012 477.769 91.9402 477.769 Z" fill="#000000" fill-rule="nonzero" fill-opacity="1" /><path clip-path="url(#clip910)" d="M71.876 432.106 Q73.6473 432.106 74.7423 433.234 Q75.8373 434.329 75.8373 435.713 Q75.8373 436.712 75.2254 437.453 Q74.6134 438.161 73.5507 438.161 Q72.4557 438.161 71.2962 437.324 Q70.1368 436.486 69.9758 434.586 Q68.7842 435.842 68.7842 437.839 Q68.7842 438.837 69.4283 439.675 Q70.0402 440.48 71.0386 440.931 Q72.0692 441.414 77.8984 442.509 Q79.7986 442.863 81.6343 443.185 Q83.4701 443.507 85.4024 443.894 L85.4024 438.419 Q85.4024 437.71 85.4346 437.42 Q85.4668 437.13 85.6279 436.905 Q85.7889 436.647 86.1431 436.647 Q87.0449 436.647 87.2704 437.066 Q87.4636 437.453 87.4636 438.612 L87.4636 444.28 L108.365 448.241 Q108.977 448.338 110.909 448.757 Q112.81 449.143 115.934 450.077 Q119.09 451.011 120.958 451.945 Q122.02 452.46 123.019 453.137 Q124.049 453.781 125.08 454.715 Q126.111 455.649 126.723 456.873 Q127.367 458.096 127.367 459.385 Q127.367 461.575 126.143 463.282 Q124.919 464.989 122.826 464.989 Q121.054 464.989 119.959 463.894 Q118.864 462.766 118.864 461.381 Q118.864 460.383 119.476 459.675 Q120.088 458.934 121.151 458.934 Q121.602 458.934 122.117 459.095 Q122.632 459.256 123.212 459.61 Q123.824 459.964 124.243 460.737 Q124.661 461.51 124.726 462.573 Q125.917 461.317 125.917 459.385 Q125.917 458.773 125.66 458.225 Q125.434 457.678 124.855 457.227 Q124.275 456.744 123.695 456.39 Q123.148 456.035 122.085 455.681 Q121.054 455.327 120.281 455.101 Q119.508 454.876 118.124 454.586 Q116.739 454.264 115.901 454.103 Q115.096 453.942 113.518 453.652 L87.4636 448.725 L87.4636 453.072 Q87.4636 453.845 87.4314 454.167 Q87.3992 454.457 87.2381 454.683 Q87.0449 454.908 86.6584 454.908 Q86.0465 454.908 85.7889 454.65 Q85.499 454.361 85.4668 454.039 Q85.4024 453.716 85.4024 452.944 L85.4024 448.37 Q77.2543 446.824 75.0643 446.212 Q72.7455 445.504 71.1352 444.409 Q69.4927 443.314 68.7198 442.09 Q67.9468 440.866 67.657 439.868 Q67.3349 438.837 67.3349 437.839 Q67.3349 435.585 68.5587 433.845 Q69.7504 432.106 71.876 432.106 Z" fill="#000000" fill-rule="nonzero" fill-opacity="1" /><path clip-path="url(#clip912)" d="M446.224 923.057 L448.822 923.046 L451.42 923.028 L454.018 922.999 L456.616 922.953 L459.215 922.883 L461.813 922.78 L464.411 922.63 L467.009 922.415 L469.607 922.112 L472.205 921.696 L474.803 921.133 L477.401 920.387 L479.999 919.417 L482.597 918.181 L485.195 916.638 L487.793 914.749 L490.391 912.487 L492.989 909.836 L495.587 906.798 L498.185 903.399 L500.784 899.689 L503.382 895.743 L505.98 891.667 L508.578 887.587 L511.176 883.648 L513.774 880.004 L516.372 876.808 L518.97 874.204 L521.568 872.313 L524.166 871.223 L526.764 870.983 L529.362 871.598 L531.96 873.028 L534.558 875.187 L537.156 877.956 L539.754 881.183 L542.353 884.699 L544.951 888.327 L547.549 891.891 L550.147 895.228 L552.745 898.192 L555.343 900.661 L557.941 902.538 L560.539 903.754 L563.137 904.262 L565.735 904.037 L568.333 903.07 L570.931 901.365 L573.529 898.932 L576.127 895.784 L578.725 891.931 L581.323 887.381 L583.922 882.132 L586.52 876.178 L589.118 869.505 L591.716 862.095 L594.314 853.929 L596.912 844.99 L599.51 835.272 L602.108 824.778 L604.706 813.528 L607.304 801.559 L609.902 788.924 L612.5 775.69 L615.098 761.934 L617.696 747.734 L620.294 733.161 L622.892 718.277 L625.49 703.121 L628.089 687.713 L630.687 672.05 L633.285 656.11 L635.883 639.86 L638.481 623.267 L641.079 606.308 L643.677 588.981 L646.275 571.321 L648.873 553.401 L651.471 535.345 L654.069 517.322 L656.667 499.545 L659.265 482.262 L661.863 465.746 L664.461 450.276 L667.059 436.122 L669.658 423.523 L672.256 412.673 L674.854 403.697 L677.452 396.642 L680.05 391.46 L682.648 388.007 L685.246 386.04 L687.844 385.234 L690.442 385.191 L693.04 385.475 L695.638 385.638 L698.236 385.259 L700.834 383.983 L703.432 381.55 L706.03 377.829 L708.628 372.831 L711.227 366.716 L713.825 359.785 L716.423 352.465 L719.021 345.275 L721.619 338.792 L724.217 333.614 L726.815 330.316 L729.413 329.417 L732.011 331.35 L734.609 336.441 L737.207 344.892 L739.805 356.778 L742.403 372.046 L745.001 390.52 L747.599 411.915 L750.197 435.848 L752.795 461.854 L755.394 489.406 L757.992 517.935 L760.59 546.851 L763.188 575.568 L765.786 603.523 L768.384 630.204 L770.982 655.165 L773.58 678.05 L776.178 698.599 L778.776 716.662 L781.374 732.198 L783.972 745.269 L786.57 756.033 L789.168 764.725 L791.766 771.642 L794.364 777.122 L796.963 781.521 L799.561 785.193 L802.159 788.474 L804.757 791.666 L807.355 795.027 L809.953 798.759 L812.551 803.008 L815.149 807.861 L817.747 813.35 L820.345 819.453 L822.943 826.102 L825.541 833.193 L828.139 840.59 L830.737 848.142 L833.335 855.685 L835.933 863.057 L838.532 870.103 L841.13 876.686 L843.728 882.69 L846.326 888.026 L848.924 892.637 L851.522 896.493 L854.12 899.599 L856.718 901.986 L859.316 903.71 L861.914 904.85 L864.512 905.499 L867.11 905.764 L869.708 905.754 L872.306 905.579 L874.904 905.342 L877.502 905.136 L880.1 905.038 L882.699 905.107 L885.297 905.383 L887.895 905.883 L890.493 906.607 L893.091 907.538 L895.689 908.646 L898.287 909.888 L900.885 911.219 L903.483 912.591 L906.081 913.956 L908.679 915.276 L911.277 916.515 L913.875 917.65 L916.473 918.663 L919.071 919.547 L921.669 920.301 L924.268 920.931 L926.866 921.446 L929.464 921.858 L932.062 922.181 L934.66 922.43 L937.258 922.617 L939.856 922.756 L942.454 922.857 L945.052 922.929 L947.65 922.979 L950.248 923.013 L952.846 923.035 L955.444 923.05 L958.042 923.058 L960.64 923.062 L963.238 923.062 L963.238 923.078 L960.64 923.078 L958.042 923.078 L955.444 923.078 L952.846 923.078 L950.248 923.078 L947.65 923.078 L945.052 923.078 L942.454 923.078 L939.856 923.078 L937.258 923.078 L934.66 923.078 L932.062 923.078 L929.464 923.078 L926.866 923.078 L924.268 923.078 L921.669 923.078 L919.071 923.078 L916.473 923.078 L913.875 923.078 L911.277 923.078 L908.679 923.078 L906.081 923.078 L903.483 923.078 L900.885 923.078 L898.287 923.078 L895.689 923.078 L893.091 923.078 L890.493 923.078 L887.895 923.078 L885.297 923.078 L882.699 923.078 L880.1 923.078 L877.502 923.078 L874.904 923.078 L872.306 923.078 L869.708 923.078 L867.11 923.078 L864.512 923.078 L861.914 923.078 L859.316 923.078 L856.718 923.078 L854.12 923.078 L851.522 923.078 L848.924 923.078 L846.326 923.078 L843.728 923.078 L841.13 923.078 L838.532 923.078 L835.933 923.078 L833.335 923.078 L830.737 923.078 L828.139 923.078 L825.541 923.078 L822.943 923.078 L820.345 923.078 L817.747 923.078 L815.149 923.078 L812.551 923.078 L809.953 923.078 L807.355 923.078 L804.757 923.078 L802.159 923.078 L799.561 923.078 L796.963 923.078 L794.364 923.078 L791.766 923.078 L789.168 923.078 L786.57 923.078 L783.972 923.078 L781.374 923.078 L778.776 923.078 L776.178 923.078 L773.58 923.078 L770.982 923.078 L768.384 923.078 L765.786 923.078 L763.188 923.078 L760.59 923.078 L757.992 923.078 L755.394 923.078 L752.795 923.078 L750.197 923.078 L747.599 923.078 L745.001 923.078 L742.403 923.078 L739.805 923.078 L737.207 923.078 L734.609 923.078 L732.011 923.078 L729.413 923.078 L726.815 923.078 L724.217 923.078 L721.619 923.078 L719.021 923.078 L716.423 923.078 L713.825 923.078 L711.227 923.078 L708.628 923.078 L706.03 923.078 L703.432 923.078 L700.834 923.078 L698.236 923.078 L695.638 923.078 L693.04 923.078 L690.442 923.078 L687.844 923.078 L685.246 923.078 L682.648 923.078 L680.05 923.078 L677.452 923.078 L674.854 923.078 L672.256 923.078 L669.658 923.078 L667.059 923.078 L664.461 923.078 L661.863 923.078 L659.265 923.078 L656.667 923.078 L654.069 923.078 L651.471 923.078 L648.873 923.078 L646.275 923.078 L643.677 923.078 L641.079 923.078 L638.481 923.078 L635.883 923.078 L633.285 923.078 L630.687 923.078 L628.089 923.078 L625.49 923.078 L622.892 923.078 L620.294 923.078 L617.696 923.078 L615.098 923.078 L612.5 923.078 L609.902 923.078 L607.304 923.078 L604.706 923.078 L602.108 923.078 L599.51 923.078 L596.912 923.078 L594.314 923.078 L591.716 923.078 L589.118 923.078 L586.52 923.078 L583.922 923.078 L581.323 923.078 L578.725 923.078 L576.127 923.078 L573.529 923.078 L570.931 923.078 L568.333 923.078 L565.735 923.078 L563.137 923.078 L560.539 923.078 L557.941 923.078 L555.343 923.078 L552.745 923.078 L550.147 923.078 L547.549 923.078 L544.951 923.078 L542.353 923.078 L539.754 923.078 L537.156 923.078 L534.558 923.078 L531.96 923.078 L529.362 923.078 L526.764 923.078 L524.166 923.078 L521.568 923.078 L518.97 923.078 L516.372 923.078 L513.774 923.078 L511.176 923.078 L508.578 923.078 L505.98 923.078 L503.382 923.078 L500.784 923.078 L498.185 923.078 L495.587 923.078 L492.989 923.078 L490.391 923.078 L487.793 923.078 L485.195 923.078 L482.597 923.078 L479.999 923.078 L477.401 923.078 L474.803 923.078 L472.205 923.078 L469.607 923.078 L467.009 923.078 L464.411 923.078 L461.813 923.078 L459.215 923.078 L456.616 923.078 L454.018 923.078 L451.42 923.078 L448.822 923.078 L446.224 923.078  Z" fill="#87ceeb" fill-rule="evenodd" fill-opacity="0.25"/>
<polyline clip-path="url(#clip912)" style="stroke:#009af9; stroke-linecap:round; stroke-linejoin:round; stroke-width:8; stroke-opacity:1; fill:none" points="446.224,923.057 448.822,923.046 451.42,923.028 454.018,922.999 456.616,922.953 459.215,922.883 461.813,922.78 464.411,922.63 467.009,922.415 469.607,922.112 472.205,921.696 474.803,921.133 477.401,920.387 479.999,919.417 482.597,918.181 485.195,916.638 487.793,914.749 490.391,912.487 492.989,909.836 495.587,906.798 498.185,903.399 500.784,899.689 503.382,895.743 505.98,891.667 508.578,887.587 511.176,883.648 513.774,880.004 516.372,876.808 518.97,874.204 521.568,872.313 524.166,871.223 526.764,870.983 529.362,871.598 531.96,873.028 534.558,875.187 537.156,877.956 539.754,881.183 542.353,884.699 544.951,888.327 547.549,891.891 550.147,895.228 552.745,898.192 555.343,900.661 557.941,902.538 560.539,903.754 563.137,904.262 565.735,904.037 568.333,903.07 570.931,901.365 573.529,898.932 576.127,895.784 578.725,891.931 581.323,887.381 583.922,882.132 586.52,876.178 589.118,869.505 591.716,862.095 594.314,853.929 596.912,844.99 599.51,835.272 602.108,824.778 604.706,813.528 607.304,801.559 609.902,788.924 612.5,775.69 615.098,761.934 617.696,747.734 620.294,733.161 622.892,718.277 625.49,703.121 628.089,687.713 630.687,672.05 633.285,656.11 635.883,639.86 638.481,623.267 641.079,606.308 643.677,588.981 646.275,571.321 648.873,553.401 651.471,535.345 654.069,517.322 656.667,499.545 659.265,482.262 661.863,465.746 664.461,450.276 667.059,436.122 669.658,423.523 672.256,412.673 674.854,403.697 677.452,396.642 680.05,391.46 682.648,388.007 685.246,386.04 687.844,385.234 690.442,385.191 693.04,385.475 695.638,385.638 698.236,385.259 700.834,383.983 703.432,381.55 706.03,377.829 708.628,372.831 711.227,366.716 713.825,359.785 716.423,352.465 719.021,345.275 721.619,338.792 724.217,333.614 726.815,330.316 729.413,329.417 732.011,331.35 734.609,336.441 737.207,344.892 739.805,356.778 742.403,372.046 745.001,390.52 747.599,411.915 750.197,435.848 752.795,461.854 755.394,489.406 757.992,517.935 760.59,546.851 763.188,575.568 765.786,603.523 768.384,630.204 770.982,655.165 773.58,678.05 776.178,698.599 778.776,716.662 781.374,732.198 783.972,745.269 786.57,756.033 789.168,764.725 791.766,771.642 794.364,777.122 796.963,781.521 799.561,785.193 802.159,788.474 804.757,791.666 807.355,795.027 809.953,798.759 812.551,803.008 815.149,807.861 817.747,813.35 820.345,819.453 822.943,826.102 825.541,833.193 828.139,840.59 830.737,848.142 833.335,855.685 835.933,863.057 838.532,870.103 841.13,876.686 843.728,882.69 846.326,888.026 848.924,892.637 851.522,896.493 854.12,899.599 856.718,901.986 859.316,903.71 861.914,904.85 864.512,905.499 867.11,905.764 869.708,905.754 872.306,905.579 874.904,905.342 877.502,905.136 880.1,905.038 882.699,905.107 885.297,905.383 887.895,905.883 890.493,906.607 893.091,907.538 895.689,908.646 898.287,909.888 900.885,911.219 903.483,912.591 906.081,913.956 908.679,915.276 911.277,916.515 913.875,917.65 916.473,918.663 919.071,919.547 921.669,920.301 924.268,920.931 926.866,921.446 929.464,921.858 932.062,922.181 934.66,922.43 937.258,922.617 939.856,922.756 942.454,922.857 945.052,922.929 947.65,922.979 950.248,923.013 952.846,923.035 955.444,923.05 958.042,923.058 960.64,923.062 963.238,923.062 "/>
<path clip-path="url(#clip912)" d="M288.685 923.073 L292.901 923.072 L297.116 923.07 L301.332 923.066 L305.547 923.061 L309.763 923.052 L313.979 923.041 L318.194 923.024 L322.41 923.001 L326.625 922.969 L330.841 922.926 L335.057 922.868 L339.272 922.792 L343.488 922.693 L347.703 922.565 L351.919 922.403 L356.135 922.201 L360.35 921.951 L364.566 921.646 L368.781 921.278 L372.997 920.842 L377.213 920.331 L381.428 919.74 L385.644 919.065 L389.859 918.305 L394.075 917.46 L398.291 916.534 L402.506 915.531 L406.722 914.459 L410.937 913.327 L415.153 912.147 L419.369 910.931 L423.584 909.69 L427.8 908.436 L432.015 907.177 L436.231 905.919 L440.447 904.664 L444.662 903.408 L448.878 902.142 L453.093 900.85 L457.309 899.51 L461.525 898.094 L465.74 896.567 L469.956 894.892 L474.171 893.025 L478.387 890.925 L482.603 888.546 L486.818 885.849 L491.034 882.797 L495.249 879.359 L499.465 875.509 L503.68 871.234 L507.896 866.523 L512.112 861.377 L516.327 855.802 L520.543 849.809 L524.758 843.412 L528.974 836.627 L533.19 829.469 L537.405 821.952 L541.621 814.087 L545.836 805.886 L550.052 797.362 L554.268 788.529 L558.483 779.411 L562.699 770.043 L566.914 760.472 L571.13 750.766 L575.346 741.009 L579.561 731.306 L583.777 721.777 L587.992 712.553 L592.208 703.77 L596.424 695.559 L600.639 688.04 L604.855 681.308 L609.07 675.429 L613.286 670.43 L617.502 666.3 L621.717 662.982 L625.933 660.38 L630.148 658.365 L634.364 656.782 L638.58 655.458 L642.795 654.218 L647.011 652.894 L651.226 651.338 L655.442 649.431 L659.658 647.088 L663.873 644.266 L668.089 640.967 L672.304 637.234 L676.52 633.147 L680.736 628.824 L684.951 624.406 L689.167 620.057 L693.382 615.948 L697.598 612.257 L701.814 609.153 L706.029 606.793 L710.245 605.316 L714.46 604.835 L718.676 605.432 L722.892 607.161 L727.107 610.038 L731.323 614.046 L735.538 619.135 L739.754 625.222 L743.97 632.199 L748.185 639.933 L752.401 648.275 L756.616 657.065 L760.832 666.141 L765.047 675.343 L769.263 684.52 L773.479 693.538 L777.694 702.281 L781.91 710.658 L786.125 718.6 L790.341 726.065 L794.557 733.033 L798.772 739.505 L802.988 745.501 L807.203 751.053 L811.419 756.204 L815.635 761.004 L819.85 765.503 L824.066 769.753 L828.281 773.805 L832.497 777.705 L836.713 781.495 L840.928 785.214 L845.144 788.898 L849.359 792.577 L853.575 796.282 L857.791 800.037 L862.006 803.864 L866.222 807.782 L870.437 811.804 L874.653 815.938 L878.869 820.186 L883.084 824.545 L887.3 829.002 L891.515 833.54 L895.731 838.136 L899.947 842.761 L904.162 847.382 L908.378 851.968 L912.593 856.482 L916.809 860.892 L921.025 865.169 L925.24 869.285 L929.456 873.221 L933.671 876.959 L937.887 880.49 L942.103 883.809 L946.318 886.916 L950.534 889.816 L954.749 892.517 L958.965 895.031 L963.181 897.37 L967.396 899.548 L971.612 901.581 L975.827 903.481 L980.043 905.26 L984.259 906.931 L988.474 908.5 L992.69 909.976 L996.905 911.362 L1001.12 912.661 L1005.34 913.876 L1009.55 915.005 L1013.77 916.049 L1017.98 917.007 L1022.2 917.879 L1026.41 918.666 L1030.63 919.369 L1034.85 919.991 L1039.06 920.534 L1043.28 921.003 L1047.49 921.404 L1051.71 921.742 L1055.92 922.023 L1060.14 922.255 L1064.35 922.443 L1068.57 922.594 L1072.79 922.713 L1077 922.806 L1081.22 922.878 L1085.43 922.932 L1089.65 922.973 L1093.86 923.004 L1098.08 923.026 L1102.3 923.042 L1106.51 923.053 L1110.73 923.061 L1114.94 923.066 L1119.16 923.07 L1123.37 923.072 L1127.59 923.073 L1127.59 923.078 L1123.37 923.078 L1119.16 923.078 L1114.94 923.078 L1110.73 923.078 L1106.51 923.078 L1102.3 923.078 L1098.08 923.078 L1093.86 923.078 L1089.65 923.078 L1085.43 923.078 L1081.22 923.078 L1077 923.078 L1072.79 923.078 L1068.57 923.078 L1064.35 923.078 L1060.14 923.078 L1055.92 923.078 L1051.71 923.078 L1047.49 923.078 L1043.28 923.078 L1039.06 923.078 L1034.85 923.078 L1030.63 923.078 L1026.41 923.078 L1022.2 923.078 L1017.98 923.078 L1013.77 923.078 L1009.55 923.078 L1005.34 923.078 L1001.12 923.078 L996.905 923.078 L992.69 923.078 L988.474 923.078 L984.259 923.078 L980.043 923.078 L975.827 923.078 L971.612 923.078 L967.396 923.078 L963.181 923.078 L958.965 923.078 L954.749 923.078 L950.534 923.078 L946.318 923.078 L942.103 923.078 L937.887 923.078 L933.671 923.078 L929.456 923.078 L925.24 923.078 L921.025 923.078 L916.809 923.078 L912.593 923.078 L908.378 923.078 L904.162 923.078 L899.947 923.078 L895.731 923.078 L891.515 923.078 L887.3 923.078 L883.084 923.078 L878.869 923.078 L874.653 923.078 L870.437 923.078 L866.222 923.078 L862.006 923.078 L857.791 923.078 L853.575 923.078 L849.359 923.078 L845.144 923.078 L840.928 923.078 L836.713 923.078 L832.497 923.078 L828.281 923.078 L824.066 923.078 L819.85 923.078 L815.635 923.078 L811.419 923.078 L807.203 923.078 L802.988 923.078 L798.772 923.078 L794.557 923.078 L790.341 923.078 L786.125 923.078 L781.91 923.078 L777.694 923.078 L773.479 923.078 L769.263 923.078 L765.047 923.078 L760.832 923.078 L756.616 923.078 L752.401 923.078 L748.185 923.078 L743.97 923.078 L739.754 923.078 L735.538 923.078 L731.323 923.078 L727.107 923.078 L722.892 923.078 L718.676 923.078 L714.46 923.078 L710.245 923.078 L706.029 923.078 L701.814 923.078 L697.598 923.078 L693.382 923.078 L689.167 923.078 L684.951 923.078 L680.736 923.078 L676.52 923.078 L672.304 923.078 L668.089 923.078 L663.873 923.078 L659.658 923.078 L655.442 923.078 L651.226 923.078 L647.011 923.078 L642.795 923.078 L638.58 923.078 L634.364 923.078 L630.148 923.078 L625.933 923.078 L621.717 923.078 L617.502 923.078 L613.286 923.078 L609.07 923.078 L604.855 923.078 L600.639 923.078 L596.424 923.078 L592.208 923.078 L587.992 923.078 L583.777 923.078 L579.561 923.078 L575.346 923.078 L571.13 923.078 L566.914 923.078 L562.699 923.078 L558.483 923.078 L554.268 923.078 L550.052 923.078 L545.836 923.078 L541.621 923.078 L537.405 923.078 L533.19 923.078 L528.974 923.078 L524.758 923.078 L520.543 923.078 L516.327 923.078 L512.112 923.078 L507.896 923.078 L503.68 923.078 L499.465 923.078 L495.249 923.078 L491.034 923.078 L486.818 923.078 L482.603 923.078 L478.387 923.078 L474.171 923.078 L469.956 923.078 L465.74 923.078 L461.525 923.078 L457.309 923.078 L453.093 923.078 L448.878 923.078 L444.662 923.078 L440.447 923.078 L436.231 923.078 L432.015 923.078 L427.8 923.078 L423.584 923.078 L419.369 923.078 L415.153 923.078 L410.937 923.078 L406.722 923.078 L402.506 923.078 L398.291 923.078 L394.075 923.078 L389.859 923.078 L385.644 923.078 L381.428 923.078 L377.213 923.078 L372.997 923.078 L368.781 923.078 L364.566 923.078 L360.35 923.078 L356.135 923.078 L351.919 923.078 L347.703 923.078 L343.488 923.078 L339.272 923.078 L335.057 923.078 L330.841 923.078 L326.625 923.078 L322.41 923.078 L318.194 923.078 L313.979 923.078 L309.763 923.078 L305.547 923.078 L301.332 923.078 L297.116 923.078 L292.901 923.078 L288.685 923.078  Z" fill="#ffa500" fill-rule="evenodd" fill-opacity="0.5"/>
<polyline clip-path="url(#clip912)" style="stroke:#e26f46; stroke-linecap:round; stroke-linejoin:round; stroke-width:8; stroke-opacity:1; fill:none" points="288.685,923.073 292.901,923.072 297.116,923.07 301.332,923.066 305.547,923.061 309.763,923.052 313.979,923.041 318.194,923.024 322.41,923.001 326.625,922.969 330.841,922.926 335.057,922.868 339.272,922.792 343.488,922.693 347.703,922.565 351.919,922.403 356.135,922.201 360.35,921.951 364.566,921.646 368.781,921.278 372.997,920.842 377.213,920.331 381.428,919.74 385.644,919.065 389.859,918.305 394.075,917.46 398.291,916.534 402.506,915.531 406.722,914.459 410.937,913.327 415.153,912.147 419.369,910.931 423.584,909.69 427.8,908.436 432.015,907.177 436.231,905.919 440.447,904.664 444.662,903.408 448.878,902.142 453.093,900.85 457.309,899.51 461.525,898.094 465.74,896.567 469.956,894.892 474.171,893.025 478.387,890.925 482.603,888.546 486.818,885.849 491.034,882.797 495.249,879.359 499.465,875.509 503.68,871.234 507.896,866.523 512.112,861.377 516.327,855.802 520.543,849.809 524.758,843.412 528.974,836.627 533.19,829.469 537.405,821.952 541.621,814.087 545.836,805.886 550.052,797.362 554.268,788.529 558.483,779.411 562.699,770.043 566.914,760.472 571.13,750.766 575.346,741.009 579.561,731.306 583.777,721.777 587.992,712.553 592.208,703.77 596.424,695.559 600.639,688.04 604.855,681.308 609.07,675.429 613.286,670.43 617.502,666.3 621.717,662.982 625.933,660.38 630.148,658.365 634.364,656.782 638.58,655.458 642.795,654.218 647.011,652.894 651.226,651.338 655.442,649.431 659.658,647.088 663.873,644.266 668.089,640.967 672.304,637.234 676.52,633.147 680.736,628.824 684.951,624.406 689.167,620.057 693.382,615.948 697.598,612.257 701.814,609.153 706.029,606.793 710.245,605.316 714.46,604.835 718.676,605.432 722.892,607.161 727.107,610.038 731.323,614.046 735.538,619.135 739.754,625.222 743.97,632.199 748.185,639.933 752.401,648.275 756.616,657.065 760.832,666.141 765.047,675.343 769.263,684.52 773.479,693.538 777.694,702.281 781.91,710.658 786.125,718.6 790.341,726.065 794.557,733.033 798.772,739.505 802.988,745.501 807.203,751.053 811.419,756.204 815.635,761.004 819.85,765.503 824.066,769.753 828.281,773.805 832.497,777.705 836.713,781.495 840.928,785.214 845.144,788.898 849.359,792.577 853.575,796.282 857.791,800.037 862.006,803.864 866.222,807.782 870.437,811.804 874.653,815.938 878.869,820.186 883.084,824.545 887.3,829.002 891.515,833.54 895.731,838.136 899.947,842.761 904.162,847.382 908.378,851.968 912.593,856.482 916.809,860.892 921.025,865.169 925.24,869.285 929.456,873.221 933.671,876.959 937.887,880.49 942.103,883.809 946.318,886.916 950.534,889.816 954.749,892.517 958.965,895.031 963.181,897.37 967.396,899.548 971.612,901.581 975.827,903.481 980.043,905.26 984.259,906.931 988.474,908.5 992.69,909.976 996.905,911.362 1001.12,912.661 1005.34,913.876 1009.55,915.005 1013.77,916.049 1017.98,917.007 1022.2,917.879 1026.41,918.666 1030.63,919.369 1034.85,919.991 1039.06,920.534 1043.28,921.003 1047.49,921.404 1051.71,921.742 1055.92,922.023 1060.14,922.255 1064.35,922.443 1068.57,922.594 1072.79,922.713 1077,922.806 1081.22,922.878 1085.43,922.932 1089.65,922.973 1093.86,923.004 1098.08,923.026 1102.3,923.042 1106.51,923.053 1110.73,923.061 1114.94,923.066 1119.16,923.07 1123.37,923.072 1127.59,923.073 "/>
<path clip-path="url(#clip910)" d="M536.699 237.668 L1123.11 237.668 L1123.11 76.4386 L536.699 76.4386  Z" fill="#ffffff" fill-rule="evenodd" fill-opacity="1"/>
<polyline clip-path="url(#clip910)" style="stroke:#000000; stroke-linecap:round; stroke-linejoin:round; stroke-width:4; stroke-opacity:1; fill:none" points="536.699,237.668 1123.11,237.668 1123.11,76.4386 536.699,76.4386 536.699,237.668 "/>
<path clip-path="url(#clip910)" d="M546.58 151.679 L605.862 151.679 L605.862 108.684 L546.58 108.684 L546.58 151.679  Z" fill="#87ceeb" fill-rule="evenodd" fill-opacity="0.25"/>
<polyline clip-path="url(#clip910)" style="stroke:#009af9; stroke-linecap:round; stroke-linejoin:round; stroke-width:8; stroke-opacity:1; fill:none" points="546.58,108.684 605.862,108.684 "/>
<g clip-path="url(#clip910)">
<text style="fill:#000000; fill-opacity:1; font-family:Book Antiqua,Palatino,Palatino Linotype,Palatino LT STD,Georgia,serif; font-size:51px; font-weight:bold; text-anchor:start;" transform="rotate(0, 615.743, 147.682)" x="615.743" y="147.682">Residual 1: N(0,0.001)</text>
</g>
<path clip-path="url(#clip910)" d="M546.58 205.422 L605.862 205.422 L605.862 162.427 L546.58 162.427 L546.58 205.422  Z" fill="#ffa500" fill-rule="evenodd" fill-opacity="0.5"/>
<polyline clip-path="url(#clip910)" style="stroke:#e26f46; stroke-linecap:round; stroke-linejoin:round; stroke-width:8; stroke-opacity:1; fill:none" points="546.58,162.427 605.862,162.427 "/>
<g clip-path="url(#clip910)">
<text style="fill:#000000; fill-opacity:1; font-family:Book Antiqua,Palatino,Palatino Linotype,Palatino LT STD,Georgia,serif; font-size:51px; font-weight:bold; text-anchor:start;" transform="rotate(0, 615.743, 201.425)" x="615.743" y="201.425">Residual 2: N(0,0.010)</text>
</g>
</svg>
