<?xml version="1.0" encoding="utf-8"?>
<svg xmlns="http://www.w3.org/2000/svg" xmlns:xlink="http://www.w3.org/1999/xlink" width="500" height="280" viewBox="0 0 2000 1120">
<defs>
  <clipPath id="clip990">
    <rect x="0" y="0" width="2000" height="1120"/>
  </clipPath>
</defs>
<path clip-path="url(#clip990)" d="M0 1120 L2000 1120 L2000 0 L0 0  Z" fill="#ffffff" fill-rule="evenodd" fill-opacity="1"/>
<defs>
  <clipPath id="clip991">
    <rect x="400" y="0" width="1401" height="1120"/>
  </clipPath>
</defs>
<defs>
  <clipPath id="clip992">
    <rect x="275" y="47" width="696" height="880"/>
  </clipPath>
</defs>
<polyline clip-path="url(#clip992)" style="stroke:#000000; stroke-linecap:round; stroke-linejoin:round; stroke-width:2; stroke-opacity:0.25; fill:none" points="404.319,925.798 404.319,47.2441 "/>
<polyline clip-path="url(#clip992)" style="stroke:#000000; stroke-linecap:round; stroke-linejoin:round; stroke-width:2; stroke-opacity:0.25; fill:none" points="841.421,925.798 841.421,47.2441 "/>
<polyline clip-path="url(#clip990)" style="stroke:#000000; stroke-linecap:round; stroke-linejoin:round; stroke-width:4; stroke-opacity:1; fill:none" points="275.374,925.798 970.366,925.798 "/>
<polyline clip-path="url(#clip990)" style="stroke:#000000; stroke-linecap:round; stroke-linejoin:round; stroke-width:4; stroke-opacity:1; fill:none" points="275.374,47.2441 970.366,47.2441 "/>
<polyline clip-path="url(#clip990)" style="stroke:#000000; stroke-linecap:round; stroke-linejoin:round; stroke-width:4; stroke-opacity:1; fill:none" points="404.319,925.798 404.319,906.9 "/>
<polyline clip-path="url(#clip990)" style="stroke:#000000; stroke-linecap:round; stroke-linejoin:round; stroke-width:4; stroke-opacity:1; fill:none" points="841.421,925.798 841.421,906.9 "/>
<g clip-path="url(#clip990)">
<text style="fill:#000000; fill-opacity:1; font-family:Book Antiqua,Palatino,Palatino Linotype,Palatino LT STD,Georgia,serif; font-size:51px; font-weight:bold; text-anchor:middle;" transform="rotate(0, 404.319, 986.17)" x="404.319" y="986.17">Case 1</text>
</g>
<g clip-path="url(#clip990)">
<text style="fill:#000000; fill-opacity:1; font-family:Book Antiqua,Palatino,Palatino Linotype,Palatino LT STD,Georgia,serif; font-size:51px; font-weight:bold; text-anchor:middle;" transform="rotate(0, 841.421, 986.17)" x="841.421" y="986.17">Case 2</text>
</g>
<polyline clip-path="url(#clip992)" style="stroke:#000000; stroke-linecap:round; stroke-linejoin:round; stroke-width:2; stroke-opacity:0.25; fill:none" points="275.374,925.798 970.366,925.798 "/>
<polyline clip-path="url(#clip992)" style="stroke:#000000; stroke-linecap:round; stroke-linejoin:round; stroke-width:2; stroke-opacity:0.25; fill:none" points="275.374,674.783 970.366,674.783 "/>
<polyline clip-path="url(#clip992)" style="stroke:#000000; stroke-linecap:round; stroke-linejoin:round; stroke-width:2; stroke-opacity:0.25; fill:none" points="275.374,423.767 970.366,423.767 "/>
<polyline clip-path="url(#clip992)" style="stroke:#000000; stroke-linecap:round; stroke-linejoin:round; stroke-width:2; stroke-opacity:0.25; fill:none" points="275.374,172.752 970.366,172.752 "/>
<polyline clip-path="url(#clip990)" style="stroke:#000000; stroke-linecap:round; stroke-linejoin:round; stroke-width:4; stroke-opacity:1; fill:none" points="275.374,925.798 275.374,47.2441 "/>
<polyline clip-path="url(#clip990)" style="stroke:#000000; stroke-linecap:round; stroke-linejoin:round; stroke-width:4; stroke-opacity:1; fill:none" points="970.366,925.798 970.366,47.2441 "/>
<polyline clip-path="url(#clip990)" style="stroke:#000000; stroke-linecap:round; stroke-linejoin:round; stroke-width:4; stroke-opacity:1; fill:none" points="275.374,925.798 294.272,925.798 "/>
<polyline clip-path="url(#clip990)" style="stroke:#000000; stroke-linecap:round; stroke-linejoin:round; stroke-width:4; stroke-opacity:1; fill:none" points="275.374,674.783 294.272,674.783 "/>
<polyline clip-path="url(#clip990)" style="stroke:#000000; stroke-linecap:round; stroke-linejoin:round; stroke-width:4; stroke-opacity:1; fill:none" points="275.374,423.767 294.272,423.767 "/>
<polyline clip-path="url(#clip990)" style="stroke:#000000; stroke-linecap:round; stroke-linejoin:round; stroke-width:4; stroke-opacity:1; fill:none" points="275.374,172.752 294.272,172.752 "/>
<g clip-path="url(#clip990)">
<text style="fill:#000000; fill-opacity:1; font-family:Book Antiqua,Palatino,Palatino Linotype,Palatino LT STD,Georgia,serif; font-size:51px; font-weight:bold; text-anchor:middle;" transform="rotate(0, 177.016, 943.298)" x="177.016" y="943.298">−0.350</text>
</g>
<g clip-path="url(#clip990)">
<text style="fill:#000000; fill-opacity:1; font-family:Book Antiqua,Palatino,Palatino Linotype,Palatino LT STD,Georgia,serif; font-size:51px; font-weight:bold; text-anchor:middle;" transform="rotate(0, 177.016, 692.283)" x="177.016" y="692.283">−0.345</text>
</g>
<g clip-path="url(#clip990)">
<text style="fill:#000000; fill-opacity:1; font-family:Book Antiqua,Palatino,Palatino Linotype,Palatino LT STD,Georgia,serif; font-size:51px; font-weight:bold; text-anchor:middle;" transform="rotate(0, 177.016, 441.267)" x="177.016" y="441.267">−0.340</text>
</g>
<g clip-path="url(#clip990)">
<text style="fill:#000000; fill-opacity:1; font-family:Book Antiqua,Palatino,Palatino Linotype,Palatino LT STD,Georgia,serif; font-size:51px; font-weight:bold; text-anchor:middle;" transform="rotate(0, 177.016, 190.252)" x="177.016" y="190.252">−0.335</text>
</g>
<path clip-path="url(#clip990)" d="M65.8355 630.877 Q65.5778 630.877 63.9031 630.008 Q62.1962 629.138 56.1093 626.079 Q49.9902 623.019 43.5812 619.863 L20.7151 608.494 Q19.2658 607.689 19.2658 606.659 Q19.2658 605.725 19.8455 605.306 Q20.4252 604.887 24.3221 602.955 Q26.2223 601.957 27.4461 601.377 L64.7727 582.73 Q65.5778 582.408 65.8355 582.375 Q66.4796 582.375 66.4796 583.503 L66.4796 629.138 Q66.4796 630.877 65.8355 630.877 M61.4555 626.53 L61.4555 591.039 L25.8358 608.784 L61.4555 626.53 Z" fill="#000000" fill-rule="nonzero" fill-opacity="1" /><path clip-path="url(#clip990)" d="M24.5154 543.346 Q26.2867 543.346 27.3817 544.474 Q28.4767 545.569 28.4767 546.954 Q28.4767 547.952 27.8648 548.693 Q27.2529 549.401 26.1901 549.401 Q25.0951 549.401 23.9357 548.564 Q22.7762 547.726 22.6152 545.826 Q21.4236 547.082 21.4236 549.079 Q21.4236 550.077 22.0677 550.915 Q22.6796 551.72 23.678 552.171 Q24.7086 552.654 30.5379 553.749 Q32.438 554.103 34.2737 554.425 Q36.1095 554.747 38.0418 555.134 L38.0418 549.659 Q38.0418 548.95 38.074 548.66 Q38.1062 548.371 38.2673 548.145 Q38.4283 547.887 38.7826 547.887 Q39.6843 547.887 39.9098 548.306 Q40.103 548.693 40.103 549.852 L40.103 555.52 L61.0046 559.482 Q61.6165 559.578 63.5489 559.997 Q65.449 560.383 68.573 561.317 Q71.7291 562.251 73.5971 563.185 Q74.6599 563.701 75.6583 564.377 Q76.6889 565.021 77.7194 565.955 Q78.75 566.889 79.3619 568.113 Q80.0061 569.337 80.0061 570.625 Q80.0061 572.815 78.7822 574.522 Q77.5584 576.229 75.465 576.229 Q73.6937 576.229 72.5987 575.134 Q71.5037 574.006 71.5037 572.622 Q71.5037 571.623 72.1156 570.915 Q72.7275 570.174 73.7903 570.174 Q74.2412 570.174 74.7565 570.335 Q75.2718 570.496 75.8515 570.85 Q76.4634 571.205 76.8821 571.977 Q77.3008 572.75 77.3652 573.813 Q78.5568 572.557 78.5568 570.625 Q78.5568 570.013 78.2991 569.465 Q78.0737 568.918 77.494 568.467 Q76.9143 567.984 76.3346 567.63 Q75.7871 567.275 74.7243 566.921 Q73.6937 566.567 72.9208 566.341 Q72.1478 566.116 70.763 565.826 Q69.3781 565.504 68.5408 565.343 Q67.7356 565.182 66.1575 564.892 L40.103 559.965 L40.103 564.312 Q40.103 565.085 40.0708 565.407 Q40.0386 565.697 39.8776 565.923 Q39.6843 566.148 39.2978 566.148 Q38.6859 566.148 38.4283 565.891 Q38.1384 565.601 38.1062 565.279 Q38.0418 564.957 38.0418 564.184 L38.0418 559.61 Q29.8937 558.065 27.7037 557.453 Q25.3849 556.744 23.7746 555.649 Q22.1321 554.554 21.3592 553.33 Q20.5862 552.106 20.2964 551.108 Q19.9743 550.077 19.9743 549.079 Q19.9743 546.825 21.1982 545.086 Q22.3898 543.346 24.5154 543.346 Z" fill="#000000" fill-rule="nonzero" fill-opacity="1" /><path clip-path="url(#clip990)" d="M49.9902 534.468 Q38.847 534.468 29.8615 530.313 Q26.0934 528.542 22.9373 526.062 Q19.7811 523.582 18.3962 521.94 Q17.0114 520.297 17.0114 519.846 Q17.0114 519.202 17.6555 519.17 Q17.9776 519.17 18.7827 520.04 Q29.6039 530.667 49.9902 530.635 Q70.4409 530.635 80.8434 520.297 Q81.9706 519.17 82.3249 519.17 Q82.969 519.17 82.969 519.846 Q82.969 520.297 81.6486 521.875 Q80.3281 523.453 77.3008 525.901 Q74.2734 528.349 70.5697 530.12 Q61.5843 534.468 49.9902 534.468 Z" fill="#000000" fill-rule="nonzero" fill-opacity="1" /><path clip-path="url(#clip990)" d="M38.7826 493.9 Q39.6843 493.9 39.9098 494.319 Q40.103 494.737 40.103 495.897 L40.103 502.08 L59.5553 506.975 Q61.2622 507.362 62.7115 507.362 Q64.3218 507.362 65.0303 506.879 Q65.7389 506.364 65.7389 505.301 Q65.7389 503.207 63.8387 500.953 Q61.9386 498.666 57.3009 496.734 Q56.689 496.476 56.5602 496.347 Q56.3992 496.186 56.3992 495.768 Q56.3992 494.963 57.0433 494.963 Q57.2687 494.963 58.2993 495.414 Q59.3299 495.832 60.8436 496.766 Q62.3572 497.668 63.7743 498.86 Q65.1914 500.019 66.2219 501.79 Q67.2203 503.562 67.2203 505.462 Q67.2203 508.135 65.5134 509.842 Q63.8065 511.516 61.1334 511.516 Q60.2639 511.516 57.4942 510.84 Q54.6922 510.164 40.103 506.492 L40.103 512.322 Q40.103 513.127 40.0708 513.449 Q40.0386 513.739 39.8776 513.964 Q39.6843 514.157 39.2978 514.157 Q38.6859 514.157 38.4283 513.9 Q38.1384 513.642 38.1062 513.32 Q38.0418 512.966 38.0418 512.161 L38.0418 505.977 L27.5749 503.401 Q26.5443 503.143 25.9646 502.499 Q25.3527 501.822 25.2883 501.436 Q25.1917 501.05 25.1917 500.76 Q25.1917 499.89 25.6748 499.375 Q26.1256 498.86 26.963 498.86 Q27.4139 498.86 38.0418 501.565 L38.0418 495.768 Q38.0418 495.027 38.074 494.737 Q38.1062 494.415 38.2673 494.158 Q38.4283 493.9 38.7826 493.9 Z" fill="#000000" fill-rule="nonzero" fill-opacity="1" /><path clip-path="url(#clip990)" d="M82.3249 488.737 Q82.0028 488.737 81.1977 487.9 Q70.3765 477.272 49.9902 477.272 Q29.5395 477.272 19.2014 487.481 Q18.0098 488.737 17.6555 488.737 Q17.0114 488.737 17.0114 488.093 Q17.0114 487.642 18.3318 486.064 Q19.6523 484.454 22.6796 482.038 Q25.707 479.591 29.4106 477.787 Q38.3961 473.44 49.9902 473.44 Q61.1334 473.44 70.1189 477.594 Q73.8869 479.365 77.0431 481.845 Q80.1993 484.325 81.5841 485.968 Q82.969 487.61 82.969 488.093 Q82.969 488.737 82.3249 488.737 Z" fill="#000000" fill-rule="nonzero" fill-opacity="1" /><path clip-path="url(#clip990)" d="M82.035 463.411 Q81.713 463.411 81.0044 463.153 L18.7827 439.868 Q18.7183 439.868 18.364 439.707 Q18.0098 439.546 17.7843 439.45 Q17.5267 439.353 17.3334 439.16 Q17.1402 438.934 17.1402 438.677 Q17.1402 438.033 17.9454 438.033 Q18.0098 438.033 18.7827 438.226 L81.0688 461.575 Q82.1961 461.962 82.5181 462.219 Q82.8402 462.445 82.8402 462.831 Q82.8402 463.411 82.035 463.411 Z" fill="#000000" fill-rule="nonzero" fill-opacity="1" /><path clip-path="url(#clip990)" d="M22.1643 375.225 Q23.0983 375.225 23.2915 375.644 Q23.4848 376.03 23.4848 377.447 Q23.4848 379.863 23.8068 380.958 Q24.0967 382.021 24.612 382.343 Q25.0951 382.633 26.5121 382.987 L62.1318 391.908 Q62.164 391.908 62.6149 392.004 Q63.0336 392.101 63.259 392.101 Q63.6777 392.101 63.9353 391.843 Q64.193 391.554 64.3218 390.845 Q64.4184 390.137 64.4506 389.589 Q64.4506 389.009 64.4506 387.818 Q64.4506 386.336 64.7083 386.111 Q64.8693 385.982 65.1592 385.982 Q65.7711 385.982 66.0931 386.24 Q66.383 386.465 66.4474 386.691 Q66.4796 386.884 66.4796 387.27 Q66.4796 387.947 66.4152 389.396 Q66.3508 390.845 66.3508 391.586 L66.2864 395.805 L66.4796 404.178 Q66.4796 405.08 65.7389 405.08 Q65.0947 405.08 64.8049 404.855 Q64.515 404.629 64.4828 404.404 Q64.4506 404.146 64.4506 403.502 Q64.4506 400.185 64.1286 399.09 Q63.7743 397.963 62.2606 397.512 L44.0643 392.971 L44.0643 413.067 L62.1318 417.576 Q62.164 417.576 62.6149 417.673 Q63.0336 417.769 63.259 417.769 Q63.6777 417.769 63.9353 417.512 Q64.193 417.222 64.3218 416.513 Q64.4184 415.805 64.4506 415.257 Q64.4506 414.677 64.4506 413.486 Q64.4506 412.004 64.7083 411.747 Q64.8693 411.618 65.1592 411.618 Q65.61 411.618 65.9321 411.747 Q66.2219 411.843 66.3186 412.101 Q66.4152 412.326 66.4474 412.487 Q66.4796 412.648 66.4796 412.938 Q66.4796 413.615 66.4152 415.064 Q66.3508 416.481 66.3508 417.222 L66.2864 421.441 L66.4796 429.814 Q66.4796 430.748 65.7389 430.748 Q65.0947 430.748 64.8371 430.523 Q64.5472 430.297 64.515 430.007 Q64.4506 429.718 64.4506 428.977 Q64.4506 427.367 64.354 426.4 Q64.2574 425.434 64.1286 424.822 Q63.9675 424.178 63.5167 423.856 Q63.0658 423.502 62.6793 423.341 Q62.2606 423.18 61.3267 422.954 L25.9002 414.13 Q24.8374 413.872 24.6764 413.872 Q24.0645 413.872 23.9034 414.259 Q23.7102 414.613 23.6136 415.644 L23.4848 418.156 Q23.4848 418.929 23.4526 419.251 Q23.4204 419.54 23.2593 419.766 Q23.0983 419.991 22.744 419.991 Q22.2932 419.991 22.0033 419.895 Q21.6812 419.766 21.5846 419.54 Q21.488 419.315 21.4558 419.154 Q21.4236 418.993 21.4236 418.735 L21.6168 410.233 L21.4236 401.795 Q21.4236 400.861 22.1643 400.861 Q23.0983 400.861 23.2915 401.28 Q23.4848 401.698 23.4848 403.116 Q23.4848 405.467 23.8068 406.562 Q24.0967 407.657 24.612 408.011 Q25.1273 408.333 26.5121 408.655 L42.0031 412.552 L42.0031 392.423 L25.9002 388.462 Q24.7408 388.204 24.6764 388.204 Q24.0645 388.204 23.9034 388.591 Q23.7102 388.945 23.6136 389.976 L23.4848 392.488 Q23.4848 393.261 23.4526 393.583 Q23.4204 393.872 23.2593 394.13 Q23.0983 394.356 22.744 394.356 Q22.2932 394.356 22.0033 394.259 Q21.6812 394.13 21.5846 393.905 Q21.488 393.679 21.4558 393.518 Q21.4236 393.357 21.4236 393.099 L21.6168 384.597 L21.4236 376.127 Q21.4236 375.225 22.1643 375.225 Z" fill="#000000" fill-rule="nonzero" fill-opacity="1" /><path clip-path="url(#clip990)" d="M37.9774 344.576 Q38.2028 344.576 39.169 345.124 Q40.103 345.639 42.454 347.539 Q44.805 349.439 47.5425 352.273 Q48.6053 353.336 50.0868 354.947 Q51.5683 356.557 52.5345 357.652 L53.5006 358.747 Q57.0433 362.934 61.0046 366.605 Q60.908 366.347 60.8758 365.897 Q60.8114 365.446 60.8114 365.124 L60.8114 364.802 Q60.8114 363.127 61.9386 360.196 Q62.7759 357.62 62.7759 356.299 Q62.7759 355.011 62.325 353.594 Q61.8742 352.177 60.5537 350.631 Q59.2333 349.085 57.2365 348.377 Q56.9145 348.248 56.8178 348.183 Q56.689 348.119 56.5602 347.926 Q56.3992 347.732 56.3992 347.475 Q56.3992 347.121 56.5924 346.895 Q56.7856 346.67 57.0433 346.67 Q57.623 346.67 58.7824 347.121 Q59.9418 347.539 61.3911 348.473 Q62.8403 349.375 64.1608 350.567 Q65.449 351.726 66.3508 353.465 Q67.2203 355.204 67.2203 357.04 Q67.2203 358.36 66.5762 359.327 Q65.9643 360.293 64.7727 361.259 Q63.259 362.579 62.7759 363.288 Q62.2606 363.996 62.2606 365.091 Q62.2606 368.022 66.3508 370.695 Q66.9305 370.985 67.0593 371.178 Q67.2203 371.339 67.2203 371.726 Q67.1881 372.531 66.544 372.531 Q66.2864 372.531 65.1592 371.822 Q63.9997 371.082 61.9708 369.439 Q59.9418 367.764 57.9128 365.736 L52.3734 359.81 Q46.834 353.24 43.71 350.631 Q43.71 351.726 43.6778 352.209 Q43.6456 352.66 43.4524 353.562 Q43.227 354.463 42.7439 355.72 Q41.7455 358.65 41.7455 359.874 Q41.7455 360.196 41.7777 360.55 Q41.8099 360.905 41.9709 361.71 Q42.132 362.483 42.454 363.127 Q42.7439 363.771 43.388 364.447 Q43.9999 365.124 44.8373 365.478 Q45.0949 365.574 45.2237 365.639 Q45.3525 365.703 45.4814 365.897 Q45.578 366.058 45.578 366.315 Q45.578 366.702 45.3525 366.927 Q45.1271 367.12 44.8373 367.12 Q44.2575 367.12 43.0659 366.541 Q41.8743 365.961 40.5861 364.995 Q39.2656 364.029 38.2995 362.451 Q37.3333 360.872 37.3333 359.133 Q37.3333 358.103 37.7842 357.233 Q38.2351 356.331 38.7181 355.881 Q39.169 355.397 40.1674 354.592 Q40.9403 353.916 41.2624 353.594 Q41.5845 353.272 41.9387 352.628 Q42.2608 351.951 42.2608 351.211 Q42.2608 349.987 41.3268 348.86 Q40.3606 347.732 38.0418 346.283 Q37.3333 345.897 37.3333 345.285 Q37.3333 344.576 37.9774 344.576 Z" fill="#000000" fill-rule="nonzero" fill-opacity="1" /><path clip-path="url(#clip992)" d="M404.319 722.25 L349.682 722.25 L458.957 722.25 L404.319 722.25 L404.319 689.509 L404.319 722.25  Z" fill="#009af9" fill-rule="evenodd" fill-opacity="0.5"/>
<polyline clip-path="url(#clip992)" style="stroke:#000000; stroke-linecap:round; stroke-linejoin:round; stroke-width:4; stroke-opacity:1; fill:none" points="404.319,722.25 349.682,722.25 458.957,722.25 404.319,722.25 404.319,689.509 404.319,722.25 "/>
<path clip-path="url(#clip992)" d="M513.595 689.509 L513.595 678.197 L458.957 673.224 L349.682 673.224 L295.044 678.197 L295.044 689.509 L513.595 689.509 L513.595 678.197 L513.595 689.509  Z" fill="#009af9" fill-rule="evenodd" fill-opacity="0.5"/>
<polyline clip-path="url(#clip992)" style="stroke:#000000; stroke-linecap:round; stroke-linejoin:round; stroke-width:4; stroke-opacity:1; fill:none" points="513.595,689.509 513.595,678.197 458.957,673.224 349.682,673.224 295.044,678.197 295.044,689.509 513.595,689.509 513.595,678.197 513.595,689.509 "/>
<path clip-path="url(#clip992)" d="M513.595 668.25 L513.595 658.032 L295.044 658.032 L295.044 668.25 L349.682 673.224 L458.957 673.224 L513.595 668.25 L513.595 658.032 L513.595 668.25  Z" fill="#009af9" fill-rule="evenodd" fill-opacity="0.5"/>
<polyline clip-path="url(#clip992)" style="stroke:#000000; stroke-linecap:round; stroke-linejoin:round; stroke-width:4; stroke-opacity:1; fill:none" points="513.595,668.25 513.595,658.032 295.044,658.032 295.044,668.25 349.682,673.224 458.957,673.224 513.595,668.25 513.595,658.032 513.595,668.25 "/>
<path clip-path="url(#clip992)" d="M404.319 622.381 L349.682 622.381 L458.957 622.381 L404.319 622.381 L404.319 658.032 L404.319 622.381  Z" fill="#009af9" fill-rule="evenodd" fill-opacity="0.5"/>
<polyline clip-path="url(#clip992)" style="stroke:#000000; stroke-linecap:round; stroke-linejoin:round; stroke-width:4; stroke-opacity:1; fill:none" points="404.319,622.381 349.682,622.381 458.957,622.381 404.319,622.381 404.319,658.032 404.319,622.381 "/>
<circle clip-path="url(#clip992)" cx="404.319" cy="749.626" r="14.4" fill="#009af9" fill-rule="evenodd" fill-opacity="1" stroke="#000000" stroke-opacity="1" stroke-width="2.24"/>
<circle clip-path="url(#clip992)" cx="404.319" cy="749.626" r="14.4" fill="#009af9" fill-rule="evenodd" fill-opacity="1" stroke="#000000" stroke-opacity="1" stroke-width="2.24"/>
<circle clip-path="url(#clip992)" cx="404.319" cy="749.626" r="14.4" fill="#009af9" fill-rule="evenodd" fill-opacity="1" stroke="#000000" stroke-opacity="1" stroke-width="2.24"/>
<circle clip-path="url(#clip992)" cx="404.319" cy="598.943" r="14.4" fill="#009af9" fill-rule="evenodd" fill-opacity="1" stroke="#000000" stroke-opacity="1" stroke-width="2.24"/>
<polyline clip-path="url(#clip992)" style="stroke:#009af9; stroke-linecap:round; stroke-linejoin:round; stroke-width:0; stroke-opacity:1; fill:none" points="404.319,722.25 349.682,722.25 458.957,722.25 404.319,722.25 404.319,689.509 "/>
<polyline clip-path="url(#clip992)" style="stroke:#009af9; stroke-linecap:round; stroke-linejoin:round; stroke-width:0; stroke-opacity:1; fill:none" points="513.595,689.509 513.595,678.197 458.957,673.224 349.682,673.224 295.044,678.197 295.044,689.509 513.595,689.509 513.595,678.197 "/>
<polyline clip-path="url(#clip992)" style="stroke:#009af9; stroke-linecap:round; stroke-linejoin:round; stroke-width:0; stroke-opacity:1; fill:none" points="513.595,668.25 513.595,658.032 295.044,658.032 295.044,668.25 349.682,673.224 458.957,673.224 513.595,668.25 513.595,658.032 "/>
<polyline clip-path="url(#clip992)" style="stroke:#009af9; stroke-linecap:round; stroke-linejoin:round; stroke-width:0; stroke-opacity:1; fill:none" points="404.319,622.381 349.682,622.381 458.957,622.381 404.319,622.381 404.319,658.032 "/>
<path clip-path="url(#clip992)" d="M841.421 785.907 L786.783 785.907 L896.059 785.907 L841.421 785.907 L841.421 712.695 L841.421 785.907  Z" fill="#e26f46" fill-rule="evenodd" fill-opacity="0.25"/>
<polyline clip-path="url(#clip992)" style="stroke:#000000; stroke-linecap:round; stroke-linejoin:round; stroke-width:4; stroke-opacity:1; fill:none" points="841.421,785.907 786.783,785.907 896.059,785.907 841.421,785.907 841.421,712.695 841.421,785.907 "/>
<path clip-path="url(#clip992)" d="M950.696 712.695 L950.696 675.602 L732.145 675.602 L732.145 712.695 L950.696 712.695 L950.696 675.602 L950.696 712.695  Z" fill="#e26f46" fill-rule="evenodd" fill-opacity="0.25"/>
<polyline clip-path="url(#clip992)" style="stroke:#000000; stroke-linecap:round; stroke-linejoin:round; stroke-width:4; stroke-opacity:1; fill:none" points="950.696,712.695 950.696,675.602 732.145,675.602 732.145,712.695 950.696,712.695 950.696,675.602 950.696,712.695 "/>
<path clip-path="url(#clip992)" d="M950.696 649.997 L732.145 649.997 L732.145 675.602 L950.696 675.602 L950.696 649.997 L841.421 649.997 L950.696 649.997  Z" fill="#e26f46" fill-rule="evenodd" fill-opacity="0.25"/>
<polyline clip-path="url(#clip992)" style="stroke:#000000; stroke-linecap:round; stroke-linejoin:round; stroke-width:4; stroke-opacity:1; fill:none" points="950.696,649.997 732.145,649.997 732.145,675.602 950.696,675.602 950.696,649.997 841.421,649.997 950.696,649.997 "/>
<path clip-path="url(#clip992)" d="M841.421 559.789 L786.783 559.789 L896.059 559.789 L841.421 559.789 L841.421 649.997 L841.421 559.789  Z" fill="#e26f46" fill-rule="evenodd" fill-opacity="0.25"/>
<polyline clip-path="url(#clip992)" style="stroke:#000000; stroke-linecap:round; stroke-linejoin:round; stroke-width:4; stroke-opacity:1; fill:none" points="841.421,559.789 786.783,559.789 896.059,559.789 841.421,559.789 841.421,649.997 841.421,559.789 "/>
<polyline clip-path="url(#clip992)" style="stroke:#e26f46; stroke-linecap:round; stroke-linejoin:round; stroke-width:0; stroke-opacity:1; fill:none" points="841.421,785.907 786.783,785.907 896.059,785.907 841.421,785.907 841.421,712.695 "/>
<polyline clip-path="url(#clip992)" style="stroke:#e26f46; stroke-linecap:round; stroke-linejoin:round; stroke-width:0; stroke-opacity:1; fill:none" points="950.696,712.695 950.696,675.602 732.145,675.602 732.145,712.695 950.696,712.695 950.696,675.602 "/>
<polyline clip-path="url(#clip992)" style="stroke:#e26f46; stroke-linecap:round; stroke-linejoin:round; stroke-width:0; stroke-opacity:1; fill:none" points="950.696,649.997 732.145,649.997 732.145,675.602 950.696,675.602 950.696,649.997 841.421,649.997 "/>
<polyline clip-path="url(#clip992)" style="stroke:#e26f46; stroke-linecap:round; stroke-linejoin:round; stroke-width:0; stroke-opacity:1; fill:none" points="841.421,559.789 786.783,559.789 896.059,559.789 841.421,559.789 841.421,649.997 "/>
<path clip-path="url(#clip990)" d="M380.209 237.758 L947.199 237.758 L947.199 76.5292 L380.209 76.5292  Z" fill="#ffffff" fill-rule="evenodd" fill-opacity="1"/>
<polyline clip-path="url(#clip990)" style="stroke:#000000; stroke-linecap:round; stroke-linejoin:round; stroke-width:4; stroke-opacity:1; fill:none" points="380.209,237.758 947.199,237.758 947.199,76.5292 380.209,76.5292 380.209,237.758 "/>
<path clip-path="url(#clip990)" d="M387.931 151.77 L434.264 151.77 L434.264 108.775 L387.931 108.775 L387.931 151.77  Z" fill="#009af9" fill-rule="evenodd" fill-opacity="0.5"/>
<polyline clip-path="url(#clip990)" style="stroke:#000000; stroke-linecap:round; stroke-linejoin:round; stroke-width:4; stroke-opacity:1; fill:none" points="387.931,151.77 434.264,151.77 434.264,108.775 387.931,108.775 387.931,151.77 "/>
<g clip-path="url(#clip990)">
<text style="fill:#000000; fill-opacity:1; font-family:Book Antiqua,Palatino,Palatino Linotype,Palatino LT STD,Georgia,serif; font-size:51px; font-weight:bold; text-anchor:start;" transform="rotate(0, 441.986, 147.772)" x="441.986" y="147.772">Residual 1: N(0,0.001)</text>
</g>
<path clip-path="url(#clip990)" d="M387.931 205.513 L434.264 205.513 L434.264 162.518 L387.931 162.518 L387.931 205.513  Z" fill="#e26f46" fill-rule="evenodd" fill-opacity="0.25"/>
<polyline clip-path="url(#clip990)" style="stroke:#000000; stroke-linecap:round; stroke-linejoin:round; stroke-width:4; stroke-opacity:1; fill:none" points="387.931,205.513 434.264,205.513 434.264,162.518 387.931,162.518 387.931,205.513 "/>
<g clip-path="url(#clip990)">
<text style="fill:#000000; fill-opacity:1; font-family:Book Antiqua,Palatino,Palatino Linotype,Palatino LT STD,Georgia,serif; font-size:51px; font-weight:bold; text-anchor:start;" transform="rotate(0, 441.986, 201.515)" x="441.986" y="201.515">Residual 2: N(0,0.010)</text>
</g>
<defs>
  <clipPath id="clip993">
    <rect x="1257" y="47" width="696" height="880"/>
  </clipPath>
</defs>
<polyline clip-path="url(#clip993)" style="stroke:#000000; stroke-linecap:round; stroke-linejoin:round; stroke-width:2; stroke-opacity:0.25; fill:none" points="1322.53,925.798 1322.53,47.2441 "/>
<polyline clip-path="url(#clip993)" style="stroke:#000000; stroke-linecap:round; stroke-linejoin:round; stroke-width:2; stroke-opacity:0.25; fill:none" points="1415.58,925.798 1415.58,47.2441 "/>
<polyline clip-path="url(#clip993)" style="stroke:#000000; stroke-linecap:round; stroke-linejoin:round; stroke-width:2; stroke-opacity:0.25; fill:none" points="1508.63,925.798 1508.63,47.2441 "/>
<polyline clip-path="url(#clip993)" style="stroke:#000000; stroke-linecap:round; stroke-linejoin:round; stroke-width:2; stroke-opacity:0.25; fill:none" points="1601.67,925.798 1601.67,47.2441 "/>
<polyline clip-path="url(#clip993)" style="stroke:#000000; stroke-linecap:round; stroke-linejoin:round; stroke-width:2; stroke-opacity:0.25; fill:none" points="1694.72,925.798 1694.72,47.2441 "/>
<polyline clip-path="url(#clip993)" style="stroke:#000000; stroke-linecap:round; stroke-linejoin:round; stroke-width:2; stroke-opacity:0.25; fill:none" points="1787.77,925.798 1787.77,47.2441 "/>
<polyline clip-path="url(#clip993)" style="stroke:#000000; stroke-linecap:round; stroke-linejoin:round; stroke-width:2; stroke-opacity:0.25; fill:none" points="1880.82,925.798 1880.82,47.2441 "/>
<polyline clip-path="url(#clip990)" style="stroke:#000000; stroke-linecap:round; stroke-linejoin:round; stroke-width:4; stroke-opacity:1; fill:none" points="1257.76,925.798 1952.76,925.798 "/>
<polyline clip-path="url(#clip990)" style="stroke:#000000; stroke-linecap:round; stroke-linejoin:round; stroke-width:4; stroke-opacity:1; fill:none" points="1257.76,47.2441 1952.76,47.2441 "/>
<polyline clip-path="url(#clip990)" style="stroke:#000000; stroke-linecap:round; stroke-linejoin:round; stroke-width:4; stroke-opacity:1; fill:none" points="1322.53,925.798 1322.53,906.9 "/>
<polyline clip-path="url(#clip990)" style="stroke:#000000; stroke-linecap:round; stroke-linejoin:round; stroke-width:4; stroke-opacity:1; fill:none" points="1415.58,925.798 1415.58,906.9 "/>
<polyline clip-path="url(#clip990)" style="stroke:#000000; stroke-linecap:round; stroke-linejoin:round; stroke-width:4; stroke-opacity:1; fill:none" points="1508.63,925.798 1508.63,906.9 "/>
<polyline clip-path="url(#clip990)" style="stroke:#000000; stroke-linecap:round; stroke-linejoin:round; stroke-width:4; stroke-opacity:1; fill:none" points="1601.67,925.798 1601.67,906.9 "/>
<polyline clip-path="url(#clip990)" style="stroke:#000000; stroke-linecap:round; stroke-linejoin:round; stroke-width:4; stroke-opacity:1; fill:none" points="1694.72,925.798 1694.72,906.9 "/>
<polyline clip-path="url(#clip990)" style="stroke:#000000; stroke-linecap:round; stroke-linejoin:round; stroke-width:4; stroke-opacity:1; fill:none" points="1787.77,925.798 1787.77,906.9 "/>
<polyline clip-path="url(#clip990)" style="stroke:#000000; stroke-linecap:round; stroke-linejoin:round; stroke-width:4; stroke-opacity:1; fill:none" points="1880.82,925.798 1880.82,906.9 "/>
<g clip-path="url(#clip990)">
<text style="fill:#000000; fill-opacity:1; font-family:Book Antiqua,Palatino,Palatino Linotype,Palatino LT STD,Georgia,serif; font-size:51px; font-weight:bold; text-anchor:middle;" transform="rotate(-30, 1272.08, 1014.4)" x="1272.08" y="1014.4">−0.348</text>
</g>
<g clip-path="url(#clip990)">
<text style="fill:#000000; fill-opacity:1; font-family:Book Antiqua,Palatino,Palatino Linotype,Palatino LT STD,Georgia,serif; font-size:51px; font-weight:bold; text-anchor:middle;" transform="rotate(-30, 1365.13, 1014.4)" x="1365.13" y="1014.4">−0.347</text>
</g>
<g clip-path="url(#clip990)">
<text style="fill:#000000; fill-opacity:1; font-family:Book Antiqua,Palatino,Palatino Linotype,Palatino LT STD,Georgia,serif; font-size:51px; font-weight:bold; text-anchor:middle;" transform="rotate(-30, 1458.18, 1014.4)" x="1458.18" y="1014.4">−0.346</text>
</g>
<g clip-path="url(#clip990)">
<text style="fill:#000000; fill-opacity:1; font-family:Book Antiqua,Palatino,Palatino Linotype,Palatino LT STD,Georgia,serif; font-size:51px; font-weight:bold; text-anchor:middle;" transform="rotate(-30, 1551.22, 1014.4)" x="1551.22" y="1014.4">−0.345</text>
</g>
<g clip-path="url(#clip990)">
<text style="fill:#000000; fill-opacity:1; font-family:Book Antiqua,Palatino,Palatino Linotype,Palatino LT STD,Georgia,serif; font-size:51px; font-weight:bold; text-anchor:middle;" transform="rotate(-30, 1644.27, 1014.4)" x="1644.27" y="1014.4">−0.344</text>
</g>
<g clip-path="url(#clip990)">
<text style="fill:#000000; fill-opacity:1; font-family:Book Antiqua,Palatino,Palatino Linotype,Palatino LT STD,Georgia,serif; font-size:51px; font-weight:bold; text-anchor:middle;" transform="rotate(-30, 1737.32, 1014.4)" x="1737.32" y="1014.4">−0.343</text>
</g>
<g clip-path="url(#clip990)">
<text style="fill:#000000; fill-opacity:1; font-family:Book Antiqua,Palatino,Palatino Linotype,Palatino LT STD,Georgia,serif; font-size:51px; font-weight:bold; text-anchor:middle;" transform="rotate(-30, 1830.37, 1014.4)" x="1830.37" y="1014.4">−0.342</text>
</g>
<path clip-path="url(#clip990)" d="M1460.9 1114.9 Q1460.9 1114.64 1461.77 1112.97 Q1462.64 1111.26 1465.7 1105.18 Q1468.76 1099.06 1471.92 1092.65 L1483.29 1069.78 Q1484.09 1068.33 1485.12 1068.33 Q1486.06 1068.33 1486.48 1068.91 Q1486.89 1069.49 1488.83 1073.39 Q1489.82 1075.29 1490.4 1076.51 L1509.05 1113.84 Q1509.37 1114.64 1509.41 1114.9 Q1509.41 1115.55 1508.28 1115.55 L1462.64 1115.55 Q1460.9 1115.55 1460.9 1114.9 M1465.25 1110.52 L1500.74 1110.52 L1483 1074.9 L1465.25 1110.52 Z" fill="#000000" fill-rule="nonzero" fill-opacity="1" /><path clip-path="url(#clip990)" d="M1548.43 1073.58 Q1548.43 1075.35 1547.31 1076.45 Q1546.21 1077.54 1544.83 1077.54 Q1543.83 1077.54 1543.09 1076.93 Q1542.38 1076.32 1542.38 1075.26 Q1542.38 1074.16 1543.22 1073 Q1544.05 1071.84 1545.96 1071.68 Q1544.7 1070.49 1542.7 1070.49 Q1541.7 1070.49 1540.87 1071.13 Q1540.06 1071.75 1539.61 1072.74 Q1539.13 1073.78 1538.03 1079.6 Q1537.68 1081.5 1537.36 1083.34 Q1537.03 1085.18 1536.65 1087.11 L1542.12 1087.11 Q1542.83 1087.11 1543.12 1087.14 Q1543.41 1087.17 1543.64 1087.33 Q1543.89 1087.5 1543.89 1087.85 Q1543.89 1088.75 1543.48 1088.98 Q1543.09 1089.17 1541.93 1089.17 L1536.26 1089.17 L1532.3 1110.07 Q1532.2 1110.68 1531.78 1112.62 Q1531.4 1114.52 1530.46 1117.64 Q1529.53 1120.8 1528.6 1122.66 Q1528.08 1123.73 1527.4 1124.73 Q1526.76 1125.76 1525.83 1126.79 Q1524.89 1127.82 1523.67 1128.43 Q1522.44 1129.07 1521.16 1129.07 Q1518.97 1129.07 1517.26 1127.85 Q1515.55 1126.63 1515.55 1124.53 Q1515.55 1122.76 1516.65 1121.67 Q1517.77 1120.57 1519.16 1120.57 Q1520.16 1120.57 1520.87 1121.18 Q1521.61 1121.79 1521.61 1122.86 Q1521.61 1123.31 1521.45 1123.82 Q1521.29 1124.34 1520.93 1124.92 Q1520.58 1125.53 1519.8 1125.95 Q1519.03 1126.37 1517.97 1126.43 Q1519.22 1127.62 1521.16 1127.62 Q1521.77 1127.62 1522.32 1127.37 Q1522.86 1127.14 1523.31 1126.56 Q1523.8 1125.98 1524.15 1125.4 Q1524.51 1124.85 1524.86 1123.79 Q1525.21 1122.76 1525.44 1121.99 Q1525.67 1121.21 1525.96 1119.83 Q1526.28 1118.44 1526.44 1117.61 Q1526.6 1116.8 1526.89 1115.22 L1531.82 1089.17 L1527.47 1089.17 Q1526.7 1089.17 1526.37 1089.14 Q1526.08 1089.11 1525.86 1088.94 Q1525.63 1088.75 1525.63 1088.36 Q1525.63 1087.75 1525.89 1087.5 Q1526.18 1087.21 1526.5 1087.17 Q1526.82 1087.11 1527.6 1087.11 L1532.17 1087.11 Q1533.72 1078.96 1534.33 1076.77 Q1535.04 1074.45 1536.13 1072.84 Q1537.23 1071.2 1538.45 1070.43 Q1539.67 1069.65 1540.67 1069.36 Q1541.7 1069.04 1542.7 1069.04 Q1544.96 1069.04 1546.7 1070.26 Q1548.43 1071.46 1548.43 1073.58 Z" fill="#000000" fill-rule="nonzero" fill-opacity="1" /><path clip-path="url(#clip990)" d="M1557.31 1099.06 Q1557.31 1087.91 1561.47 1078.93 Q1563.24 1075.16 1565.72 1072 Q1568.2 1068.85 1569.84 1067.46 Q1571.48 1066.08 1571.94 1066.08 Q1572.58 1066.08 1572.61 1066.72 Q1572.61 1067.04 1571.74 1067.85 Q1561.11 1078.67 1561.15 1099.06 Q1561.15 1119.51 1571.48 1129.91 Q1572.61 1131.04 1572.61 1131.39 Q1572.61 1132.04 1571.94 1132.04 Q1571.48 1132.04 1569.91 1130.72 Q1568.33 1129.39 1565.88 1126.37 Q1563.43 1123.34 1561.66 1119.64 Q1557.31 1110.65 1557.31 1099.06 Z" fill="#000000" fill-rule="nonzero" fill-opacity="1" /><path clip-path="url(#clip990)" d="M1597.88 1087.85 Q1597.88 1088.75 1597.46 1088.98 Q1597.04 1089.17 1595.88 1089.17 L1589.7 1089.17 L1584.81 1108.62 Q1584.42 1110.33 1584.42 1111.78 Q1584.42 1113.39 1584.9 1114.1 Q1585.42 1114.81 1586.48 1114.81 Q1588.57 1114.81 1590.83 1112.91 Q1593.12 1111.01 1595.05 1106.37 Q1595.31 1105.76 1595.43 1105.63 Q1595.59 1105.47 1596.01 1105.47 Q1596.82 1105.47 1596.82 1106.11 Q1596.82 1106.34 1596.37 1107.37 Q1595.95 1108.4 1595.02 1109.91 Q1594.11 1111.42 1592.92 1112.84 Q1591.76 1114.26 1589.99 1115.29 Q1588.22 1116.29 1586.32 1116.29 Q1583.65 1116.29 1581.94 1114.58 Q1580.26 1112.87 1580.26 1110.2 Q1580.26 1109.33 1580.94 1106.56 Q1581.62 1103.76 1585.29 1089.17 L1579.46 1089.17 Q1578.65 1089.17 1578.33 1089.14 Q1578.04 1089.11 1577.82 1088.94 Q1577.62 1088.75 1577.62 1088.36 Q1577.62 1087.75 1577.88 1087.5 Q1578.14 1087.21 1578.46 1087.17 Q1578.82 1087.11 1579.62 1087.11 L1585.8 1087.11 L1588.38 1076.64 Q1588.64 1075.61 1589.28 1075.03 Q1589.96 1074.42 1590.35 1074.36 Q1590.73 1074.26 1591.02 1074.26 Q1591.89 1074.26 1592.41 1074.74 Q1592.92 1075.19 1592.92 1076.03 Q1592.92 1076.48 1590.22 1087.11 L1596.01 1087.11 Q1596.75 1087.11 1597.04 1087.14 Q1597.37 1087.17 1597.62 1087.33 Q1597.88 1087.5 1597.88 1087.85 Z" fill="#000000" fill-rule="nonzero" fill-opacity="1" /><path clip-path="url(#clip990)" d="M1603.04 1131.39 Q1603.04 1131.07 1603.88 1130.26 Q1614.51 1119.44 1614.51 1099.06 Q1614.51 1078.61 1604.3 1068.27 Q1603.04 1067.08 1603.04 1066.72 Q1603.04 1066.08 1603.69 1066.08 Q1604.14 1066.08 1605.72 1067.4 Q1607.33 1068.72 1609.74 1071.75 Q1612.19 1074.77 1613.99 1078.48 Q1618.34 1087.46 1618.34 1099.06 Q1618.34 1110.2 1614.19 1119.19 Q1612.42 1122.95 1609.94 1126.11 Q1607.46 1129.27 1605.81 1130.65 Q1604.17 1132.04 1603.69 1132.04 Q1603.04 1132.04 1603.04 1131.39 Z" fill="#000000" fill-rule="nonzero" fill-opacity="1" /><path clip-path="url(#clip990)" d="M1628.37 1131.1 Q1628.37 1130.78 1628.63 1130.07 L1651.91 1067.85 Q1651.91 1067.79 1652.07 1067.43 Q1652.24 1067.08 1652.33 1066.85 Q1652.43 1066.59 1652.62 1066.4 Q1652.85 1066.21 1653.1 1066.21 Q1653.75 1066.21 1653.75 1067.01 Q1653.75 1067.08 1653.56 1067.85 L1630.21 1130.14 Q1629.82 1131.26 1629.56 1131.58 Q1629.34 1131.91 1628.95 1131.91 Q1628.37 1131.91 1628.37 1131.1 Z" fill="#000000" fill-rule="nonzero" fill-opacity="1" /><path clip-path="url(#clip990)" d="M1716.56 1071.23 Q1716.56 1072.17 1716.14 1072.36 Q1715.75 1072.55 1714.33 1072.55 Q1711.92 1072.55 1710.82 1072.87 Q1709.76 1073.16 1709.44 1073.68 Q1709.15 1074.16 1708.79 1075.58 L1699.87 1111.2 Q1699.87 1111.23 1699.78 1111.68 Q1699.68 1112.1 1699.68 1112.33 Q1699.68 1112.74 1699.94 1113 Q1700.23 1113.26 1700.94 1113.39 Q1701.64 1113.49 1702.19 1113.52 Q1702.77 1113.52 1703.96 1113.52 Q1705.45 1113.52 1705.67 1113.78 Q1705.8 1113.94 1705.8 1114.23 Q1705.8 1114.84 1705.54 1115.16 Q1705.32 1115.45 1705.09 1115.51 Q1704.9 1115.55 1704.51 1115.55 Q1703.83 1115.55 1702.39 1115.48 Q1700.94 1115.42 1700.2 1115.42 L1695.98 1115.35 L1687.6 1115.55 Q1686.7 1115.55 1686.7 1114.81 Q1686.7 1114.16 1686.93 1113.87 Q1687.15 1113.58 1687.38 1113.55 Q1687.64 1113.52 1688.28 1113.52 Q1691.6 1113.52 1692.69 1113.2 Q1693.82 1112.84 1694.27 1111.33 L1698.81 1093.13 L1678.71 1093.13 L1674.21 1111.2 Q1674.21 1111.23 1674.11 1111.68 Q1674.01 1112.1 1674.01 1112.33 Q1674.01 1112.74 1674.27 1113 Q1674.56 1113.26 1675.27 1113.39 Q1675.98 1113.49 1676.52 1113.52 Q1677.1 1113.52 1678.3 1113.52 Q1679.78 1113.52 1680.03 1113.78 Q1680.16 1113.94 1680.16 1114.23 Q1680.16 1114.68 1680.03 1115 Q1679.94 1115.29 1679.68 1115.39 Q1679.45 1115.48 1679.29 1115.51 Q1679.13 1115.55 1678.84 1115.55 Q1678.17 1115.55 1676.72 1115.48 Q1675.3 1115.42 1674.56 1115.42 L1670.34 1115.35 L1661.97 1115.55 Q1661.03 1115.55 1661.03 1114.81 Q1661.03 1114.16 1661.26 1113.9 Q1661.48 1113.61 1661.77 1113.58 Q1662.06 1113.52 1662.8 1113.52 Q1664.41 1113.52 1665.38 1113.42 Q1666.35 1113.32 1666.96 1113.2 Q1667.6 1113.03 1667.93 1112.58 Q1668.28 1112.13 1668.44 1111.75 Q1668.6 1111.33 1668.83 1110.39 L1677.65 1074.97 Q1677.91 1073.9 1677.91 1073.74 Q1677.91 1073.13 1677.52 1072.97 Q1677.17 1072.78 1676.14 1072.68 L1673.63 1072.55 Q1672.85 1072.55 1672.53 1072.52 Q1672.24 1072.49 1672.02 1072.33 Q1671.79 1072.17 1671.79 1071.81 Q1671.79 1071.36 1671.89 1071.07 Q1672.02 1070.75 1672.24 1070.65 Q1672.47 1070.55 1672.63 1070.52 Q1672.79 1070.49 1673.05 1070.49 L1681.55 1070.68 L1689.99 1070.49 Q1690.92 1070.49 1690.92 1071.23 Q1690.92 1072.17 1690.5 1072.36 Q1690.08 1072.55 1688.67 1072.55 Q1686.31 1072.55 1685.22 1072.87 Q1684.12 1073.16 1683.77 1073.68 Q1683.45 1074.19 1683.13 1075.58 L1679.23 1091.07 L1699.36 1091.07 L1703.32 1074.97 Q1703.58 1073.81 1703.58 1073.74 Q1703.58 1073.13 1703.19 1072.97 Q1702.84 1072.78 1701.81 1072.68 L1699.29 1072.55 Q1698.52 1072.55 1698.2 1072.52 Q1697.91 1072.49 1697.65 1072.33 Q1697.43 1072.17 1697.43 1071.81 Q1697.43 1071.36 1697.52 1071.07 Q1697.65 1070.75 1697.88 1070.65 Q1698.1 1070.55 1698.26 1070.52 Q1698.42 1070.49 1698.68 1070.49 L1707.18 1070.68 L1715.65 1070.49 Q1716.56 1070.49 1716.56 1071.23 Z" fill="#000000" fill-rule="nonzero" fill-opacity="1" /><path clip-path="url(#clip990)" d="M1747.21 1087.04 Q1747.21 1087.27 1746.66 1088.24 Q1746.14 1089.17 1744.24 1091.52 Q1742.34 1093.87 1739.51 1096.61 Q1738.45 1097.67 1736.83 1099.15 Q1735.22 1100.64 1734.13 1101.6 L1733.03 1102.57 Q1728.85 1106.11 1725.18 1110.07 Q1725.43 1109.97 1725.88 1109.94 Q1726.34 1109.88 1726.66 1109.88 L1726.98 1109.88 Q1728.65 1109.88 1731.59 1111.01 Q1734.16 1111.84 1735.48 1111.84 Q1736.77 1111.84 1738.19 1111.39 Q1739.6 1110.94 1741.15 1109.62 Q1742.7 1108.3 1743.4 1106.3 Q1743.53 1105.98 1743.6 1105.88 Q1743.66 1105.76 1743.86 1105.63 Q1744.05 1105.47 1744.31 1105.47 Q1744.66 1105.47 1744.89 1105.66 Q1745.11 1105.85 1745.11 1106.11 Q1745.11 1106.69 1744.66 1107.85 Q1744.24 1109.01 1743.31 1110.46 Q1742.41 1111.91 1741.21 1113.23 Q1740.06 1114.52 1738.32 1115.42 Q1736.58 1116.29 1734.74 1116.29 Q1733.42 1116.29 1732.45 1115.64 Q1731.49 1115.03 1730.52 1113.84 Q1729.2 1112.33 1728.49 1111.84 Q1727.78 1111.33 1726.69 1111.33 Q1723.76 1111.33 1721.09 1115.42 Q1720.8 1116 1720.6 1116.13 Q1720.44 1116.29 1720.06 1116.29 Q1719.25 1116.25 1719.25 1115.61 Q1719.25 1115.35 1719.96 1114.23 Q1720.7 1113.07 1722.34 1111.04 Q1724.02 1109.01 1726.05 1106.98 L1731.97 1101.44 Q1738.54 1095.9 1741.15 1092.78 Q1740.06 1092.78 1739.57 1092.74 Q1739.12 1092.71 1738.22 1092.52 Q1737.32 1092.29 1736.06 1091.81 Q1733.13 1090.81 1731.91 1090.81 Q1731.59 1090.81 1731.23 1090.84 Q1730.88 1090.88 1730.07 1091.04 Q1729.3 1091.2 1728.65 1091.52 Q1728.01 1091.81 1727.33 1092.45 Q1726.66 1093.07 1726.3 1093.9 Q1726.21 1094.16 1726.14 1094.29 Q1726.08 1094.42 1725.88 1094.55 Q1725.72 1094.64 1725.47 1094.64 Q1725.08 1094.64 1724.85 1094.42 Q1724.66 1094.19 1724.66 1093.9 Q1724.66 1093.32 1725.24 1092.13 Q1725.82 1090.94 1726.79 1089.65 Q1727.75 1088.33 1729.33 1087.37 Q1730.91 1086.4 1732.65 1086.4 Q1733.68 1086.4 1734.55 1086.85 Q1735.45 1087.3 1735.9 1087.78 Q1736.38 1088.24 1737.19 1089.23 Q1737.87 1090.01 1738.19 1090.33 Q1738.51 1090.65 1739.15 1091.01 Q1739.83 1091.33 1740.57 1091.33 Q1741.79 1091.33 1742.92 1090.39 Q1744.05 1089.43 1745.5 1087.11 Q1745.88 1086.4 1746.5 1086.4 Q1747.21 1086.4 1747.21 1087.04 Z" fill="#000000" fill-rule="nonzero" fill-opacity="1" /><polyline clip-path="url(#clip993)" style="stroke:#000000; stroke-linecap:round; stroke-linejoin:round; stroke-width:2; stroke-opacity:0.25; fill:none" points="1257.76,925.798 1952.76,925.798 "/>
<polyline clip-path="url(#clip993)" style="stroke:#000000; stroke-linecap:round; stroke-linejoin:round; stroke-width:2; stroke-opacity:0.25; fill:none" points="1257.76,779.372 1952.76,779.372 "/>
<polyline clip-path="url(#clip993)" style="stroke:#000000; stroke-linecap:round; stroke-linejoin:round; stroke-width:2; stroke-opacity:0.25; fill:none" points="1257.76,632.947 1952.76,632.947 "/>
<polyline clip-path="url(#clip993)" style="stroke:#000000; stroke-linecap:round; stroke-linejoin:round; stroke-width:2; stroke-opacity:0.25; fill:none" points="1257.76,486.521 1952.76,486.521 "/>
<polyline clip-path="url(#clip993)" style="stroke:#000000; stroke-linecap:round; stroke-linejoin:round; stroke-width:2; stroke-opacity:0.25; fill:none" points="1257.76,340.095 1952.76,340.095 "/>
<polyline clip-path="url(#clip993)" style="stroke:#000000; stroke-linecap:round; stroke-linejoin:round; stroke-width:2; stroke-opacity:0.25; fill:none" points="1257.76,193.67 1952.76,193.67 "/>
<polyline clip-path="url(#clip993)" style="stroke:#000000; stroke-linecap:round; stroke-linejoin:round; stroke-width:2; stroke-opacity:0.25; fill:none" points="1257.76,47.2441 1952.76,47.2441 "/>
<polyline clip-path="url(#clip990)" style="stroke:#000000; stroke-linecap:round; stroke-linejoin:round; stroke-width:4; stroke-opacity:1; fill:none" points="1257.76,925.798 1257.76,47.2441 "/>
<polyline clip-path="url(#clip990)" style="stroke:#000000; stroke-linecap:round; stroke-linejoin:round; stroke-width:4; stroke-opacity:1; fill:none" points="1952.76,925.798 1952.76,47.2441 "/>
<polyline clip-path="url(#clip990)" style="stroke:#000000; stroke-linecap:round; stroke-linejoin:round; stroke-width:4; stroke-opacity:1; fill:none" points="1257.76,925.798 1276.66,925.798 "/>
<polyline clip-path="url(#clip990)" style="stroke:#000000; stroke-linecap:round; stroke-linejoin:round; stroke-width:4; stroke-opacity:1; fill:none" points="1257.76,779.372 1276.66,779.372 "/>
<polyline clip-path="url(#clip990)" style="stroke:#000000; stroke-linecap:round; stroke-linejoin:round; stroke-width:4; stroke-opacity:1; fill:none" points="1257.76,632.947 1276.66,632.947 "/>
<polyline clip-path="url(#clip990)" style="stroke:#000000; stroke-linecap:round; stroke-linejoin:round; stroke-width:4; stroke-opacity:1; fill:none" points="1257.76,486.521 1276.66,486.521 "/>
<polyline clip-path="url(#clip990)" style="stroke:#000000; stroke-linecap:round; stroke-linejoin:round; stroke-width:4; stroke-opacity:1; fill:none" points="1257.76,340.095 1276.66,340.095 "/>
<polyline clip-path="url(#clip990)" style="stroke:#000000; stroke-linecap:round; stroke-linejoin:round; stroke-width:4; stroke-opacity:1; fill:none" points="1257.76,193.67 1276.66,193.67 "/>
<polyline clip-path="url(#clip990)" style="stroke:#000000; stroke-linecap:round; stroke-linejoin:round; stroke-width:4; stroke-opacity:1; fill:none" points="1257.76,47.2441 1276.66,47.2441 "/>
<g clip-path="url(#clip990)">
<text style="fill:#000000; fill-opacity:1; font-family:Book Antiqua,Palatino,Palatino Linotype,Palatino LT STD,Georgia,serif; font-size:51px; font-weight:bold; text-anchor:middle;" transform="rotate(0, 1215.08, 943.298)" x="1215.08" y="943.298">0</text>
</g>
<g clip-path="url(#clip990)">
<text style="fill:#000000; fill-opacity:1; font-family:Book Antiqua,Palatino,Palatino Linotype,Palatino LT STD,Georgia,serif; font-size:51px; font-weight:bold; text-anchor:middle;" transform="rotate(0, 1189.7, 796.872)" x="1189.7" y="796.872">200</text>
</g>
<g clip-path="url(#clip990)">
<text style="fill:#000000; fill-opacity:1; font-family:Book Antiqua,Palatino,Palatino Linotype,Palatino LT STD,Georgia,serif; font-size:51px; font-weight:bold; text-anchor:middle;" transform="rotate(0, 1189.7, 650.447)" x="1189.7" y="650.447">400</text>
</g>
<g clip-path="url(#clip990)">
<text style="fill:#000000; fill-opacity:1; font-family:Book Antiqua,Palatino,Palatino Linotype,Palatino LT STD,Georgia,serif; font-size:51px; font-weight:bold; text-anchor:middle;" transform="rotate(0, 1189.7, 504.021)" x="1189.7" y="504.021">600</text>
</g>
<g clip-path="url(#clip990)">
<text style="fill:#000000; fill-opacity:1; font-family:Book Antiqua,Palatino,Palatino Linotype,Palatino LT STD,Georgia,serif; font-size:51px; font-weight:bold; text-anchor:middle;" transform="rotate(0, 1189.7, 357.595)" x="1189.7" y="357.595">800</text>
</g>
<g clip-path="url(#clip990)">
<text style="fill:#000000; fill-opacity:1; font-family:Book Antiqua,Palatino,Palatino Linotype,Palatino LT STD,Georgia,serif; font-size:51px; font-weight:bold; text-anchor:middle;" transform="rotate(0, 1177.02, 211.17)" x="1177.02" y="211.17">1000</text>
</g>
<g clip-path="url(#clip990)">
<text style="fill:#000000; fill-opacity:1; font-family:Book Antiqua,Palatino,Palatino Linotype,Palatino LT STD,Georgia,serif; font-size:51px; font-weight:bold; text-anchor:middle;" transform="rotate(0, 1177.02, 64.7441)" x="1177.02" y="64.7441">1200</text>
</g>
<path clip-path="url(#clip990)" d="M1065.47 504.226 Q1070.17 504.226 1074.71 506.609 Q1079.25 508.96 1082.05 512.664 Q1084.82 516.367 1084.82 520.135 Q1084.82 522.39 1083.6 523.903 Q1082.34 525.385 1080.57 526.19 Q1082.76 526.802 1088.01 528.122 Q1093.26 529.443 1093.78 529.443 Q1094.07 529.443 1094.2 529.378 Q1094.32 529.314 1094.49 529.024 Q1094.68 528.734 1094.74 528.026 Q1094.84 527.317 1094.84 526.126 Q1094.84 525.514 1094.84 525.288 Q1094.87 525.031 1095.03 524.805 Q1095.19 524.548 1095.55 524.548 Q1096.87 524.548 1096.87 525.739 Q1096.87 526.802 1096.77 528.992 Q1096.68 531.182 1096.68 532.277 Q1096.68 533.211 1096.77 535.079 Q1096.87 536.947 1096.87 537.816 Q1096.87 538.686 1096.1 538.686 Q1095.64 538.686 1095.36 538.557 Q1095.1 538.461 1094.97 538.203 Q1094.87 537.945 1094.84 537.72 Q1094.84 537.527 1094.84 537.14 Q1094.84 535.659 1094.58 535.014 Q1094.36 534.37 1093.87 534.145 Q1093.42 533.887 1092.13 533.597 L1062.76 526.19 Q1060.8 525.739 1059.41 525.739 Q1057.67 525.739 1057.03 526.287 Q1056.39 526.834 1056.39 527.8 Q1056.39 529.475 1058.38 530.57 Q1060.38 531.665 1064.24 532.599 Q1065.31 532.889 1065.53 533.082 Q1065.76 533.243 1065.76 533.726 Q1065.73 534.531 1065.08 534.531 Q1064.92 534.531 1063.89 534.274 Q1062.83 534.016 1061.28 533.533 Q1059.7 533.018 1058.7 532.47 Q1058.03 532.148 1057.58 531.858 Q1057.13 531.568 1056.42 530.989 Q1055.71 530.377 1055.32 529.507 Q1054.94 528.638 1054.94 527.575 Q1054.94 525.514 1056.16 523.807 Q1057.38 522.1 1059.86 521.649 Q1057.71 519.813 1056.32 517.559 Q1054.94 515.305 1054.94 513.018 Q1054.94 509.218 1057.9 506.738 Q1060.83 504.226 1065.47 504.226 M1062.57 508.992 Q1059.64 508.992 1058.03 510.119 Q1056.39 511.214 1056.39 513.211 Q1056.39 515.691 1058.9 518.557 Q1061.28 521.391 1063.5 521.971 L1076.42 525.224 L1077.48 525.417 Q1077.67 525.417 1078.25 525.321 Q1078.8 525.192 1079.7 524.837 Q1080.6 524.451 1081.41 523.936 Q1082.18 523.388 1082.76 522.422 Q1083.34 521.424 1083.34 520.2 Q1083.34 518.235 1081.6 516.11 Q1079.86 513.952 1076.58 512.342 Q1074.45 511.343 1069.88 510.184 Q1065.27 508.992 1062.57 508.992 Z" fill="#000000" fill-rule="nonzero" fill-opacity="1" /><path clip-path="url(#clip990)" d="M1039.03 468.887 L1077.16 478.388 Q1078.87 478.774 1080.31 478.774 Q1083.34 478.774 1083.34 476.81 Q1083.34 475.844 1082.73 475.071 Q1082.12 474.298 1080.83 473.686 Q1079.54 473.074 1078.35 472.687 Q1077.13 472.301 1075.19 471.786 Q1074.42 471.625 1074.23 471.496 Q1074 471.335 1074 470.884 Q1074 470.079 1074.65 470.079 Q1078.8 470.948 1081.18 472.075 Q1084.82 473.879 1084.82 476.939 Q1084.82 479.257 1083.41 480.9 Q1081.99 482.542 1079.86 482.929 Q1084.82 487.148 1084.82 491.528 Q1084.82 495.393 1081.89 497.84 Q1078.93 500.288 1074.26 500.288 Q1069.56 500.288 1065.05 497.969 Q1060.54 495.618 1057.74 491.914 Q1054.94 488.211 1054.94 484.41 Q1054.94 480.385 1059.16 478.323 L1043.5 474.362 L1042.22 474.169 Q1041.83 474.169 1041.64 474.33 Q1041.41 474.459 1041.25 475.232 Q1041.09 475.972 1041.09 477.454 Q1041.09 478.066 1041.06 478.356 Q1041.02 478.613 1040.86 478.839 Q1040.67 479.064 1040.28 479.064 Q1039.16 479.064 1039.03 478.13 Q1038.32 471.947 1038.32 469.757 Q1038.32 469.37 1038.51 469.145 Q1038.67 468.919 1038.87 468.919 L1039.03 468.887 M1062.18 479.129 Q1061.89 479.129 1061.09 479.354 Q1060.28 479.579 1059.16 480.095 Q1058.03 480.61 1057.22 481.737 Q1056.39 482.832 1056.39 484.314 Q1056.39 486.31 1058.09 488.404 Q1059.8 490.465 1062.7 491.979 Q1065.02 493.138 1069.88 494.394 Q1074.74 495.618 1077.16 495.618 Q1078.64 495.618 1079.96 495.296 Q1081.25 494.942 1082.31 493.943 Q1083.34 492.945 1083.34 491.399 Q1083.34 487.631 1078.67 483.927 Q1077.87 483.219 1077.55 483.058 Q1077.19 482.864 1076.22 482.607 L1063.31 479.322 Q1062.34 479.129 1062.18 479.129 Z" fill="#000000" fill-rule="nonzero" fill-opacity="1" /><path clip-path="url(#clip990)" d="M1042.12 433.467 Q1043.89 433.467 1044.99 434.594 Q1046.08 435.689 1046.08 437.074 Q1046.08 438.072 1045.47 438.813 Q1044.86 439.522 1043.79 439.522 Q1042.7 439.522 1041.54 438.684 Q1040.38 437.847 1040.22 435.947 Q1039.03 437.203 1039.03 439.2 Q1039.03 440.198 1039.67 441.035 Q1040.28 441.841 1041.28 442.291 Q1042.31 442.774 1048.14 443.869 Q1050.04 444.224 1051.88 444.546 Q1053.71 444.868 1055.65 445.254 L1055.65 439.779 Q1055.65 439.071 1055.68 438.781 Q1055.71 438.491 1055.87 438.266 Q1056.03 438.008 1056.39 438.008 Q1057.29 438.008 1057.51 438.427 Q1057.71 438.813 1057.71 439.973 L1057.71 445.641 L1078.61 449.602 Q1079.22 449.699 1081.15 450.117 Q1083.05 450.504 1086.18 451.438 Q1089.33 452.372 1091.2 453.306 Q1092.26 453.821 1093.26 454.497 Q1094.29 455.142 1095.32 456.075 Q1096.35 457.009 1096.97 458.233 Q1097.61 459.457 1097.61 460.745 Q1097.61 462.935 1096.39 464.642 Q1095.16 466.349 1093.07 466.349 Q1091.3 466.349 1090.2 465.254 Q1089.11 464.127 1089.11 462.742 Q1089.11 461.744 1089.72 461.035 Q1090.33 460.294 1091.39 460.294 Q1091.84 460.294 1092.36 460.455 Q1092.88 460.617 1093.45 460.971 Q1094.07 461.325 1094.49 462.098 Q1094.9 462.871 1094.97 463.934 Q1096.16 462.678 1096.16 460.745 Q1096.16 460.133 1095.9 459.586 Q1095.68 459.038 1095.1 458.588 Q1094.52 458.104 1093.94 457.75 Q1093.39 457.396 1092.33 457.042 Q1091.3 456.687 1090.52 456.462 Q1089.75 456.237 1088.37 455.947 Q1086.98 455.625 1086.14 455.464 Q1085.34 455.303 1083.76 455.013 L1057.71 450.085 L1057.71 454.433 Q1057.71 455.206 1057.67 455.528 Q1057.64 455.818 1057.48 456.043 Q1057.29 456.269 1056.9 456.269 Q1056.29 456.269 1056.03 456.011 Q1055.74 455.721 1055.71 455.399 Q1055.65 455.077 1055.65 454.304 L1055.65 449.731 Q1047.5 448.185 1045.31 447.573 Q1042.99 446.865 1041.38 445.77 Q1039.74 444.675 1038.96 443.451 Q1038.19 442.227 1037.9 441.229 Q1037.58 440.198 1037.58 439.2 Q1037.58 436.945 1038.8 435.206 Q1039.99 433.467 1042.12 433.467 Z" fill="#000000" fill-rule="nonzero" fill-opacity="1" /><path clip-path="url(#clip993)" d="M1400.56 925.777 L1402.59 925.766 L1404.62 925.748 L1406.65 925.718 L1408.68 925.672 L1410.71 925.603 L1412.74 925.499 L1414.77 925.348 L1416.8 925.132 L1418.84 924.829 L1420.87 924.412 L1422.9 923.847 L1424.93 923.099 L1426.96 922.126 L1428.99 920.886 L1431.02 919.338 L1433.05 917.443 L1435.08 915.174 L1437.11 912.515 L1439.14 909.468 L1441.17 906.058 L1443.2 902.336 L1445.23 898.378 L1447.26 894.29 L1449.29 890.197 L1451.32 886.245 L1453.35 882.59 L1455.38 879.384 L1457.42 876.773 L1459.45 874.875 L1461.48 873.782 L1463.51 873.541 L1465.54 874.158 L1467.57 875.592 L1469.6 877.758 L1471.63 880.535 L1473.66 883.773 L1475.69 887.3 L1477.72 890.939 L1479.75 894.514 L1481.78 897.861 L1483.81 900.834 L1485.84 903.311 L1487.87 905.194 L1489.9 906.414 L1491.93 906.923 L1493.96 906.698 L1496 905.728 L1498.03 904.018 L1500.06 901.577 L1502.09 898.419 L1504.12 894.554 L1506.15 889.99 L1508.18 884.725 L1510.21 878.752 L1512.24 872.059 L1514.27 864.626 L1516.3 856.434 L1518.33 847.468 L1520.36 837.719 L1522.39 827.193 L1524.42 815.908 L1526.45 803.902 L1528.48 791.227 L1530.51 777.953 L1532.55 764.154 L1534.58 749.909 L1536.61 735.292 L1538.64 720.361 L1540.67 705.158 L1542.7 689.702 L1544.73 673.99 L1546.76 658 L1548.79 641.7 L1550.82 625.056 L1552.85 608.044 L1554.88 590.664 L1556.91 572.948 L1558.94 554.973 L1560.97 536.861 L1563 518.782 L1565.03 500.949 L1567.06 483.613 L1569.09 467.046 L1571.13 451.528 L1573.16 437.329 L1575.19 424.692 L1577.22 413.808 L1579.25 404.804 L1581.28 397.727 L1583.31 392.529 L1585.34 389.065 L1587.37 387.092 L1589.4 386.283 L1591.43 386.241 L1593.46 386.525 L1595.49 386.689 L1597.52 386.309 L1599.55 385.028 L1601.58 382.588 L1603.61 378.856 L1605.64 373.842 L1607.67 367.708 L1609.71 360.756 L1611.74 353.413 L1613.77 346.2 L1615.8 339.698 L1617.83 334.504 L1619.86 331.195 L1621.89 330.294 L1623.92 332.233 L1625.95 337.339 L1627.98 345.816 L1630.01 357.739 L1632.04 373.054 L1634.07 391.586 L1636.1 413.048 L1638.13 437.055 L1640.16 463.141 L1642.19 490.779 L1644.22 519.396 L1646.26 548.403 L1648.29 577.209 L1650.32 605.251 L1652.35 632.014 L1654.38 657.053 L1656.41 680.009 L1658.44 700.622 L1660.47 718.741 L1662.5 734.325 L1664.53 747.437 L1666.56 758.234 L1668.59 766.953 L1670.62 773.892 L1672.65 779.389 L1674.68 783.801 L1676.71 787.484 L1678.74 790.776 L1680.77 793.978 L1682.8 797.349 L1684.84 801.092 L1686.87 805.355 L1688.9 810.223 L1690.93 815.729 L1692.96 821.851 L1694.99 828.521 L1697.02 835.633 L1699.05 843.054 L1701.08 850.63 L1703.11 858.196 L1705.14 865.591 L1707.17 872.659 L1709.2 879.262 L1711.23 885.284 L1713.26 890.637 L1715.29 895.262 L1717.32 899.131 L1719.35 902.246 L1721.38 904.64 L1723.42 906.37 L1725.45 907.513 L1727.48 908.164 L1729.51 908.43 L1731.54 908.42 L1733.57 908.244 L1735.6 908.007 L1737.63 907.8 L1739.66 907.702 L1741.69 907.772 L1743.72 908.048 L1745.75 908.549 L1747.78 909.276 L1749.81 910.21 L1751.84 911.321 L1753.87 912.567 L1755.9 913.902 L1757.93 915.278 L1759.97 916.648 L1762 917.971 L1764.03 919.215 L1766.06 920.353 L1768.09 921.369 L1770.12 922.256 L1772.15 923.013 L1774.18 923.644 L1776.21 924.161 L1778.24 924.574 L1780.27 924.898 L1782.3 925.148 L1784.33 925.336 L1786.36 925.475 L1788.39 925.576 L1790.42 925.648 L1792.45 925.698 L1794.48 925.732 L1796.51 925.755 L1798.55 925.77 L1800.58 925.778 L1802.61 925.782 L1804.64 925.781 L1804.64 925.798 L1802.61 925.798 L1800.58 925.798 L1798.55 925.798 L1796.51 925.798 L1794.48 925.798 L1792.45 925.798 L1790.42 925.798 L1788.39 925.798 L1786.36 925.798 L1784.33 925.798 L1782.3 925.798 L1780.27 925.798 L1778.24 925.798 L1776.21 925.798 L1774.18 925.798 L1772.15 925.798 L1770.12 925.798 L1768.09 925.798 L1766.06 925.798 L1764.03 925.798 L1762 925.798 L1759.97 925.798 L1757.93 925.798 L1755.9 925.798 L1753.87 925.798 L1751.84 925.798 L1749.81 925.798 L1747.78 925.798 L1745.75 925.798 L1743.72 925.798 L1741.69 925.798 L1739.66 925.798 L1737.63 925.798 L1735.6 925.798 L1733.57 925.798 L1731.54 925.798 L1729.51 925.798 L1727.48 925.798 L1725.45 925.798 L1723.42 925.798 L1721.38 925.798 L1719.35 925.798 L1717.32 925.798 L1715.29 925.798 L1713.26 925.798 L1711.23 925.798 L1709.2 925.798 L1707.17 925.798 L1705.14 925.798 L1703.11 925.798 L1701.08 925.798 L1699.05 925.798 L1697.02 925.798 L1694.99 925.798 L1692.96 925.798 L1690.93 925.798 L1688.9 925.798 L1686.87 925.798 L1684.84 925.798 L1682.8 925.798 L1680.77 925.798 L1678.74 925.798 L1676.71 925.798 L1674.68 925.798 L1672.65 925.798 L1670.62 925.798 L1668.59 925.798 L1666.56 925.798 L1664.53 925.798 L1662.5 925.798 L1660.47 925.798 L1658.44 925.798 L1656.41 925.798 L1654.38 925.798 L1652.35 925.798 L1650.32 925.798 L1648.29 925.798 L1646.26 925.798 L1644.22 925.798 L1642.19 925.798 L1640.16 925.798 L1638.13 925.798 L1636.1 925.798 L1634.07 925.798 L1632.04 925.798 L1630.01 925.798 L1627.98 925.798 L1625.95 925.798 L1623.92 925.798 L1621.89 925.798 L1619.86 925.798 L1617.83 925.798 L1615.8 925.798 L1613.77 925.798 L1611.74 925.798 L1609.71 925.798 L1607.67 925.798 L1605.64 925.798 L1603.61 925.798 L1601.58 925.798 L1599.55 925.798 L1597.52 925.798 L1595.49 925.798 L1593.46 925.798 L1591.43 925.798 L1589.4 925.798 L1587.37 925.798 L1585.34 925.798 L1583.31 925.798 L1581.28 925.798 L1579.25 925.798 L1577.22 925.798 L1575.19 925.798 L1573.16 925.798 L1571.13 925.798 L1569.09 925.798 L1567.06 925.798 L1565.03 925.798 L1563 925.798 L1560.97 925.798 L1558.94 925.798 L1556.91 925.798 L1554.88 925.798 L1552.85 925.798 L1550.82 925.798 L1548.79 925.798 L1546.76 925.798 L1544.73 925.798 L1542.7 925.798 L1540.67 925.798 L1538.64 925.798 L1536.61 925.798 L1534.58 925.798 L1532.55 925.798 L1530.51 925.798 L1528.48 925.798 L1526.45 925.798 L1524.42 925.798 L1522.39 925.798 L1520.36 925.798 L1518.33 925.798 L1516.3 925.798 L1514.27 925.798 L1512.24 925.798 L1510.21 925.798 L1508.18 925.798 L1506.15 925.798 L1504.12 925.798 L1502.09 925.798 L1500.06 925.798 L1498.03 925.798 L1496 925.798 L1493.96 925.798 L1491.93 925.798 L1489.9 925.798 L1487.87 925.798 L1485.84 925.798 L1483.81 925.798 L1481.78 925.798 L1479.75 925.798 L1477.72 925.798 L1475.69 925.798 L1473.66 925.798 L1471.63 925.798 L1469.6 925.798 L1467.57 925.798 L1465.54 925.798 L1463.51 925.798 L1461.48 925.798 L1459.45 925.798 L1457.42 925.798 L1455.38 925.798 L1453.35 925.798 L1451.32 925.798 L1449.29 925.798 L1447.26 925.798 L1445.23 925.798 L1443.2 925.798 L1441.17 925.798 L1439.14 925.798 L1437.11 925.798 L1435.08 925.798 L1433.05 925.798 L1431.02 925.798 L1428.99 925.798 L1426.96 925.798 L1424.93 925.798 L1422.9 925.798 L1420.87 925.798 L1418.84 925.798 L1416.8 925.798 L1414.77 925.798 L1412.74 925.798 L1410.71 925.798 L1408.68 925.798 L1406.65 925.798 L1404.62 925.798 L1402.59 925.798 L1400.56 925.798  Z" fill="#87ceeb" fill-rule="evenodd" fill-opacity="0.25"/>
<polyline clip-path="url(#clip993)" style="stroke:#009af9; stroke-linecap:round; stroke-linejoin:round; stroke-width:8; stroke-opacity:1; fill:none" points="1400.56,925.777 1402.59,925.766 1404.62,925.748 1406.65,925.718 1408.68,925.672 1410.71,925.603 1412.74,925.499 1414.77,925.348 1416.8,925.132 1418.84,924.829 1420.87,924.412 1422.9,923.847 1424.93,923.099 1426.96,922.126 1428.99,920.886 1431.02,919.338 1433.05,917.443 1435.08,915.174 1437.11,912.515 1439.14,909.468 1441.17,906.058 1443.2,902.336 1445.23,898.378 1447.26,894.29 1449.29,890.197 1451.32,886.245 1453.35,882.59 1455.38,879.384 1457.42,876.773 1459.45,874.875 1461.48,873.782 1463.51,873.541 1465.54,874.158 1467.57,875.592 1469.6,877.758 1471.63,880.535 1473.66,883.773 1475.69,887.3 1477.72,890.939 1479.75,894.514 1481.78,897.861 1483.81,900.834 1485.84,903.311 1487.87,905.194 1489.9,906.414 1491.93,906.923 1493.96,906.698 1496,905.728 1498.03,904.018 1500.06,901.577 1502.09,898.419 1504.12,894.554 1506.15,889.99 1508.18,884.725 1510.21,878.752 1512.24,872.059 1514.27,864.626 1516.3,856.434 1518.33,847.468 1520.36,837.719 1522.39,827.193 1524.42,815.908 1526.45,803.902 1528.48,791.227 1530.51,777.953 1532.55,764.154 1534.58,749.909 1536.61,735.292 1538.64,720.361 1540.67,705.158 1542.7,689.702 1544.73,673.99 1546.76,658 1548.79,641.7 1550.82,625.056 1552.85,608.044 1554.88,590.664 1556.91,572.948 1558.94,554.973 1560.97,536.861 1563,518.782 1565.03,500.949 1567.06,483.613 1569.09,467.046 1571.13,451.528 1573.16,437.329 1575.19,424.692 1577.22,413.808 1579.25,404.804 1581.28,397.727 1583.31,392.529 1585.34,389.065 1587.37,387.092 1589.4,386.283 1591.43,386.241 1593.46,386.525 1595.49,386.689 1597.52,386.309 1599.55,385.028 1601.58,382.588 1603.61,378.856 1605.64,373.842 1607.67,367.708 1609.71,360.756 1611.74,353.413 1613.77,346.2 1615.8,339.698 1617.83,334.504 1619.86,331.195 1621.89,330.294 1623.92,332.233 1625.95,337.339 1627.98,345.816 1630.01,357.739 1632.04,373.054 1634.07,391.586 1636.1,413.048 1638.13,437.055 1640.16,463.141 1642.19,490.779 1644.22,519.396 1646.26,548.403 1648.29,577.209 1650.32,605.251 1652.35,632.014 1654.38,657.053 1656.41,680.009 1658.44,700.622 1660.47,718.741 1662.5,734.325 1664.53,747.437 1666.56,758.234 1668.59,766.953 1670.62,773.892 1672.65,779.389 1674.68,783.801 1676.71,787.484 1678.74,790.776 1680.77,793.978 1682.8,797.349 1684.84,801.092 1686.87,805.355 1688.9,810.223 1690.93,815.729 1692.96,821.851 1694.99,828.521 1697.02,835.633 1699.05,843.054 1701.08,850.63 1703.11,858.196 1705.14,865.591 1707.17,872.659 1709.2,879.262 1711.23,885.284 1713.26,890.637 1715.29,895.262 1717.32,899.131 1719.35,902.246 1721.38,904.64 1723.42,906.37 1725.45,907.513 1727.48,908.164 1729.51,908.43 1731.54,908.42 1733.57,908.244 1735.6,908.007 1737.63,907.8 1739.66,907.702 1741.69,907.772 1743.72,908.048 1745.75,908.549 1747.78,909.276 1749.81,910.21 1751.84,911.321 1753.87,912.567 1755.9,913.902 1757.93,915.278 1759.97,916.648 1762,917.971 1764.03,919.215 1766.06,920.353 1768.09,921.369 1770.12,922.256 1772.15,923.013 1774.18,923.644 1776.21,924.161 1778.24,924.574 1780.27,924.898 1782.3,925.148 1784.33,925.336 1786.36,925.475 1788.39,925.576 1790.42,925.648 1792.45,925.698 1794.48,925.732 1796.51,925.755 1798.55,925.77 1800.58,925.778 1802.61,925.782 1804.64,925.781 "/>
<path clip-path="url(#clip993)" d="M1277.43 925.793 L1280.73 925.792 L1284.02 925.79 L1287.32 925.786 L1290.61 925.78 L1293.91 925.772 L1297.2 925.76 L1300.5 925.744 L1303.79 925.72 L1307.09 925.688 L1310.38 925.645 L1313.68 925.587 L1316.97 925.511 L1320.27 925.411 L1323.56 925.283 L1326.86 925.121 L1330.15 924.918 L1333.44 924.667 L1336.74 924.361 L1340.03 923.993 L1343.33 923.555 L1346.62 923.042 L1349.92 922.449 L1353.21 921.772 L1356.51 921.01 L1359.8 920.163 L1363.1 919.233 L1366.39 918.227 L1369.69 917.152 L1372.98 916.017 L1376.28 914.833 L1379.57 913.613 L1382.87 912.368 L1386.16 911.11 L1389.46 909.847 L1392.75 908.586 L1396.04 907.327 L1399.34 906.067 L1402.63 904.797 L1405.93 903.501 L1409.22 902.157 L1412.52 900.736 L1415.81 899.205 L1419.11 897.524 L1422.4 895.652 L1425.7 893.545 L1428.99 891.159 L1432.29 888.454 L1435.58 885.392 L1438.88 881.943 L1442.17 878.082 L1445.47 873.793 L1448.76 869.067 L1452.06 863.905 L1455.35 858.313 L1458.64 852.301 L1461.94 845.885 L1465.23 839.079 L1468.53 831.898 L1471.82 824.357 L1475.12 816.468 L1478.41 808.242 L1481.71 799.691 L1485 790.831 L1488.3 781.685 L1491.59 772.287 L1494.89 762.687 L1498.18 752.95 L1501.48 743.164 L1504.77 733.431 L1508.07 723.872 L1511.36 714.619 L1514.66 705.809 L1517.95 697.573 L1521.24 690.03 L1524.54 683.277 L1527.83 677.379 L1531.13 672.366 L1534.42 668.222 L1537.72 664.894 L1541.01 662.284 L1544.31 660.263 L1547.6 658.675 L1550.9 657.347 L1554.19 656.103 L1557.49 654.775 L1560.78 653.214 L1564.08 651.301 L1567.37 648.95 L1570.67 646.12 L1573.96 642.811 L1577.26 639.066 L1580.55 634.967 L1583.84 630.63 L1587.14 626.198 L1590.43 621.835 L1593.73 617.715 L1597.02 614.012 L1600.32 610.898 L1603.61 608.531 L1606.91 607.049 L1610.2 606.566 L1613.5 607.166 L1616.79 608.9 L1620.09 611.786 L1623.38 615.806 L1626.68 620.911 L1629.97 627.017 L1633.27 634.016 L1636.56 641.773 L1639.85 650.141 L1643.15 658.959 L1646.44 668.063 L1649.74 677.293 L1653.03 686.499 L1656.33 695.545 L1659.62 704.315 L1662.92 712.718 L1666.21 720.685 L1669.51 728.173 L1672.8 735.163 L1676.1 741.655 L1679.39 747.669 L1682.69 753.238 L1685.98 758.406 L1689.28 763.22 L1692.57 767.733 L1695.87 771.997 L1699.16 776.062 L1702.45 779.973 L1705.75 783.775 L1709.04 787.506 L1712.34 791.201 L1715.63 794.892 L1718.93 798.608 L1722.22 802.375 L1725.52 806.214 L1728.81 810.144 L1732.11 814.178 L1735.4 818.325 L1738.7 822.586 L1741.99 826.958 L1745.29 831.429 L1748.58 835.982 L1751.88 840.592 L1755.17 845.231 L1758.47 849.867 L1761.76 854.467 L1765.05 858.995 L1768.35 863.419 L1771.64 867.709 L1774.94 871.838 L1778.23 875.786 L1781.53 879.536 L1784.82 883.078 L1788.12 886.407 L1791.41 889.524 L1794.71 892.433 L1798 895.142 L1801.3 897.663 L1804.59 900.01 L1807.89 902.195 L1811.18 904.234 L1814.48 906.14 L1817.77 907.925 L1821.07 909.6 L1824.36 911.175 L1827.65 912.655 L1830.95 914.045 L1834.24 915.349 L1837.54 916.567 L1840.83 917.7 L1844.13 918.747 L1847.42 919.708 L1850.72 920.583 L1854.01 921.372 L1857.31 922.078 L1860.6 922.701 L1863.9 923.246 L1867.19 923.717 L1870.49 924.119 L1873.78 924.458 L1877.08 924.74 L1880.37 924.972 L1883.67 925.161 L1886.96 925.312 L1890.25 925.432 L1893.55 925.525 L1896.84 925.597 L1900.14 925.652 L1903.43 925.693 L1906.73 925.723 L1910.02 925.746 L1913.32 925.762 L1916.61 925.773 L1919.91 925.781 L1923.2 925.786 L1926.5 925.79 L1929.79 925.792 L1933.09 925.793 L1933.09 925.798 L1929.79 925.798 L1926.5 925.798 L1923.2 925.798 L1919.91 925.798 L1916.61 925.798 L1913.32 925.798 L1910.02 925.798 L1906.73 925.798 L1903.43 925.798 L1900.14 925.798 L1896.84 925.798 L1893.55 925.798 L1890.25 925.798 L1886.96 925.798 L1883.67 925.798 L1880.37 925.798 L1877.08 925.798 L1873.78 925.798 L1870.49 925.798 L1867.19 925.798 L1863.9 925.798 L1860.6 925.798 L1857.31 925.798 L1854.01 925.798 L1850.72 925.798 L1847.42 925.798 L1844.13 925.798 L1840.83 925.798 L1837.54 925.798 L1834.24 925.798 L1830.95 925.798 L1827.65 925.798 L1824.36 925.798 L1821.07 925.798 L1817.77 925.798 L1814.48 925.798 L1811.18 925.798 L1807.89 925.798 L1804.59 925.798 L1801.3 925.798 L1798 925.798 L1794.71 925.798 L1791.41 925.798 L1788.12 925.798 L1784.82 925.798 L1781.53 925.798 L1778.23 925.798 L1774.94 925.798 L1771.64 925.798 L1768.35 925.798 L1765.05 925.798 L1761.76 925.798 L1758.47 925.798 L1755.17 925.798 L1751.88 925.798 L1748.58 925.798 L1745.29 925.798 L1741.99 925.798 L1738.7 925.798 L1735.4 925.798 L1732.11 925.798 L1728.81 925.798 L1725.52 925.798 L1722.22 925.798 L1718.93 925.798 L1715.63 925.798 L1712.34 925.798 L1709.04 925.798 L1705.75 925.798 L1702.45 925.798 L1699.16 925.798 L1695.87 925.798 L1692.57 925.798 L1689.28 925.798 L1685.98 925.798 L1682.69 925.798 L1679.39 925.798 L1676.1 925.798 L1672.8 925.798 L1669.51 925.798 L1666.21 925.798 L1662.92 925.798 L1659.62 925.798 L1656.33 925.798 L1653.03 925.798 L1649.74 925.798 L1646.44 925.798 L1643.15 925.798 L1639.85 925.798 L1636.56 925.798 L1633.27 925.798 L1629.97 925.798 L1626.68 925.798 L1623.38 925.798 L1620.09 925.798 L1616.79 925.798 L1613.5 925.798 L1610.2 925.798 L1606.91 925.798 L1603.61 925.798 L1600.32 925.798 L1597.02 925.798 L1593.73 925.798 L1590.43 925.798 L1587.14 925.798 L1583.84 925.798 L1580.55 925.798 L1577.26 925.798 L1573.96 925.798 L1570.67 925.798 L1567.37 925.798 L1564.08 925.798 L1560.78 925.798 L1557.49 925.798 L1554.19 925.798 L1550.9 925.798 L1547.6 925.798 L1544.31 925.798 L1541.01 925.798 L1537.72 925.798 L1534.42 925.798 L1531.13 925.798 L1527.83 925.798 L1524.54 925.798 L1521.24 925.798 L1517.95 925.798 L1514.66 925.798 L1511.36 925.798 L1508.07 925.798 L1504.77 925.798 L1501.48 925.798 L1498.18 925.798 L1494.89 925.798 L1491.59 925.798 L1488.3 925.798 L1485 925.798 L1481.71 925.798 L1478.41 925.798 L1475.12 925.798 L1471.82 925.798 L1468.53 925.798 L1465.23 925.798 L1461.94 925.798 L1458.64 925.798 L1455.35 925.798 L1452.06 925.798 L1448.76 925.798 L1445.47 925.798 L1442.17 925.798 L1438.88 925.798 L1435.58 925.798 L1432.29 925.798 L1428.99 925.798 L1425.7 925.798 L1422.4 925.798 L1419.11 925.798 L1415.81 925.798 L1412.52 925.798 L1409.22 925.798 L1405.93 925.798 L1402.63 925.798 L1399.34 925.798 L1396.04 925.798 L1392.75 925.798 L1389.46 925.798 L1386.16 925.798 L1382.87 925.798 L1379.57 925.798 L1376.28 925.798 L1372.98 925.798 L1369.69 925.798 L1366.39 925.798 L1363.1 925.798 L1359.8 925.798 L1356.51 925.798 L1353.21 925.798 L1349.92 925.798 L1346.62 925.798 L1343.33 925.798 L1340.03 925.798 L1336.74 925.798 L1333.44 925.798 L1330.15 925.798 L1326.86 925.798 L1323.56 925.798 L1320.27 925.798 L1316.97 925.798 L1313.68 925.798 L1310.38 925.798 L1307.09 925.798 L1303.79 925.798 L1300.5 925.798 L1297.2 925.798 L1293.91 925.798 L1290.61 925.798 L1287.32 925.798 L1284.02 925.798 L1280.73 925.798 L1277.43 925.798  Z" fill="#ffa500" fill-rule="evenodd" fill-opacity="0.5"/>
<polyline clip-path="url(#clip993)" style="stroke:#e26f46; stroke-linecap:round; stroke-linejoin:round; stroke-width:8; stroke-opacity:1; fill:none" points="1277.43,925.793 1280.73,925.792 1284.02,925.79 1287.32,925.786 1290.61,925.78 1293.91,925.772 1297.2,925.76 1300.5,925.744 1303.79,925.72 1307.09,925.688 1310.38,925.645 1313.68,925.587 1316.97,925.511 1320.27,925.411 1323.56,925.283 1326.86,925.121 1330.15,924.918 1333.44,924.667 1336.74,924.361 1340.03,923.993 1343.33,923.555 1346.62,923.042 1349.92,922.449 1353.21,921.772 1356.51,921.01 1359.8,920.163 1363.1,919.233 1366.39,918.227 1369.69,917.152 1372.98,916.017 1376.28,914.833 1379.57,913.613 1382.87,912.368 1386.16,911.11 1389.46,909.847 1392.75,908.586 1396.04,907.327 1399.34,906.067 1402.63,904.797 1405.93,903.501 1409.22,902.157 1412.52,900.736 1415.81,899.205 1419.11,897.524 1422.4,895.652 1425.7,893.545 1428.99,891.159 1432.29,888.454 1435.58,885.392 1438.88,881.943 1442.17,878.082 1445.47,873.793 1448.76,869.067 1452.06,863.905 1455.35,858.313 1458.64,852.301 1461.94,845.885 1465.23,839.079 1468.53,831.898 1471.82,824.357 1475.12,816.468 1478.41,808.242 1481.71,799.691 1485,790.831 1488.3,781.685 1491.59,772.287 1494.89,762.687 1498.18,752.95 1501.48,743.164 1504.77,733.431 1508.07,723.872 1511.36,714.619 1514.66,705.809 1517.95,697.573 1521.24,690.03 1524.54,683.277 1527.83,677.379 1531.13,672.366 1534.42,668.222 1537.72,664.894 1541.01,662.284 1544.31,660.263 1547.6,658.675 1550.9,657.347 1554.19,656.103 1557.49,654.775 1560.78,653.214 1564.08,651.301 1567.37,648.95 1570.67,646.12 1573.96,642.811 1577.26,639.066 1580.55,634.967 1583.84,630.63 1587.14,626.198 1590.43,621.835 1593.73,617.715 1597.02,614.012 1600.32,610.898 1603.61,608.531 1606.91,607.049 1610.2,606.566 1613.5,607.166 1616.79,608.9 1620.09,611.786 1623.38,615.806 1626.68,620.911 1629.97,627.017 1633.27,634.016 1636.56,641.773 1639.85,650.141 1643.15,658.959 1646.44,668.063 1649.74,677.293 1653.03,686.499 1656.33,695.545 1659.62,704.315 1662.92,712.718 1666.21,720.685 1669.51,728.173 1672.8,735.163 1676.1,741.655 1679.39,747.669 1682.69,753.238 1685.98,758.406 1689.28,763.22 1692.57,767.733 1695.87,771.997 1699.16,776.062 1702.45,779.973 1705.75,783.775 1709.04,787.506 1712.34,791.201 1715.63,794.892 1718.93,798.608 1722.22,802.375 1725.52,806.214 1728.81,810.144 1732.11,814.178 1735.4,818.325 1738.7,822.586 1741.99,826.958 1745.29,831.429 1748.58,835.982 1751.88,840.592 1755.17,845.231 1758.47,849.867 1761.76,854.467 1765.05,858.995 1768.35,863.419 1771.64,867.709 1774.94,871.838 1778.23,875.786 1781.53,879.536 1784.82,883.078 1788.12,886.407 1791.41,889.524 1794.71,892.433 1798,895.142 1801.3,897.663 1804.59,900.01 1807.89,902.195 1811.18,904.234 1814.48,906.14 1817.77,907.925 1821.07,909.6 1824.36,911.175 1827.65,912.655 1830.95,914.045 1834.24,915.349 1837.54,916.567 1840.83,917.7 1844.13,918.747 1847.42,919.708 1850.72,920.583 1854.01,921.372 1857.31,922.078 1860.6,922.701 1863.9,923.246 1867.19,923.717 1870.49,924.119 1873.78,924.458 1877.08,924.74 1880.37,924.972 1883.67,925.161 1886.96,925.312 1890.25,925.432 1893.55,925.525 1896.84,925.597 1900.14,925.652 1903.43,925.693 1906.73,925.723 1910.02,925.746 1913.32,925.762 1916.61,925.773 1919.91,925.781 1923.2,925.786 1926.5,925.79 1929.79,925.792 1933.09,925.793 "/>
<path clip-path="url(#clip990)" d="M1362.6 237.758 L1929.59 237.758 L1929.59 76.5292 L1362.6 76.5292  Z" fill="#ffffff" fill-rule="evenodd" fill-opacity="1"/>
<polyline clip-path="url(#clip990)" style="stroke:#000000; stroke-linecap:round; stroke-linejoin:round; stroke-width:4; stroke-opacity:1; fill:none" points="1362.6,237.758 1929.59,237.758 1929.59,76.5292 1362.6,76.5292 1362.6,237.758 "/>
<path clip-path="url(#clip990)" d="M1370.32 151.77 L1416.65 151.77 L1416.65 108.775 L1370.32 108.775 L1370.32 151.77  Z" fill="#87ceeb" fill-rule="evenodd" fill-opacity="0.25"/>
<polyline clip-path="url(#clip990)" style="stroke:#009af9; stroke-linecap:round; stroke-linejoin:round; stroke-width:8; stroke-opacity:1; fill:none" points="1370.32,108.775 1416.65,108.775 "/>
<g clip-path="url(#clip990)">
<text style="fill:#000000; fill-opacity:1; font-family:Book Antiqua,Palatino,Palatino Linotype,Palatino LT STD,Georgia,serif; font-size:51px; font-weight:bold; text-anchor:start;" transform="rotate(0, 1424.38, 147.772)" x="1424.38" y="147.772">Residual 1: N(0,0.001)</text>
</g>
<path clip-path="url(#clip990)" d="M1370.32 205.513 L1416.65 205.513 L1416.65 162.518 L1370.32 162.518 L1370.32 205.513  Z" fill="#ffa500" fill-rule="evenodd" fill-opacity="0.5"/>
<polyline clip-path="url(#clip990)" style="stroke:#e26f46; stroke-linecap:round; stroke-linejoin:round; stroke-width:8; stroke-opacity:1; fill:none" points="1370.32,162.518 1416.65,162.518 "/>
<g clip-path="url(#clip990)">
<text style="fill:#000000; fill-opacity:1; font-family:Book Antiqua,Palatino,Palatino Linotype,Palatino LT STD,Georgia,serif; font-size:51px; font-weight:bold; text-anchor:start;" transform="rotate(0, 1424.38, 201.515)" x="1424.38" y="201.515">Residual 2: N(0,0.010)</text>
</g>
</svg>
