<?xml version="1.0" encoding="utf-8"?>
<svg xmlns="http://www.w3.org/2000/svg" xmlns:xlink="http://www.w3.org/1999/xlink" width="300" height="300" viewBox="0 0 1200 1200">
<defs>
  <clipPath id="clip470">
    <rect x="0" y="0" width="1200" height="1200"/>
  </clipPath>
</defs>
<path clip-path="url(#clip470)" d="M0 1200 L1200 1200 L1200 0 L0 0  Z" fill="#ffffff" fill-rule="evenodd" fill-opacity="1"/>
<defs>
  <clipPath id="clip471">
    <rect x="240" y="120" width="841" height="841"/>
  </clipPath>
</defs>
<defs>
  <clipPath id="clip472">
    <rect x="295" y="47" width="858" height="918"/>
  </clipPath>
</defs>
<defs>
  <clipPath id="clip473">
    <rect x="339" y="47" width="814" height="1012"/>
  </clipPath>
</defs>
<polyline clip-path="url(#clip473)" style="stroke:#000000; stroke-linecap:round; stroke-linejoin:round; stroke-width:2; stroke-opacity:0.25; fill:none" points="490.303,1057.83 490.303,47.2441 "/>
<polyline clip-path="url(#clip473)" style="stroke:#000000; stroke-linecap:round; stroke-linejoin:round; stroke-width:2; stroke-opacity:0.25; fill:none" points="1001.85,1057.83 1001.85,47.2441 "/>
<polyline clip-path="url(#clip470)" style="stroke:#000000; stroke-linecap:round; stroke-linejoin:round; stroke-width:4; stroke-opacity:1; fill:none" points="339.397,1057.83 1152.76,1057.83 "/>
<polyline clip-path="url(#clip470)" style="stroke:#000000; stroke-linecap:round; stroke-linejoin:round; stroke-width:4; stroke-opacity:1; fill:none" points="339.397,47.2441 1152.76,47.2441 "/>
<polyline clip-path="url(#clip470)" style="stroke:#000000; stroke-linecap:round; stroke-linejoin:round; stroke-width:4; stroke-opacity:1; fill:none" points="490.303,1057.83 490.303,1038.93 "/>
<polyline clip-path="url(#clip470)" style="stroke:#000000; stroke-linecap:round; stroke-linejoin:round; stroke-width:4; stroke-opacity:1; fill:none" points="1001.85,1057.83 1001.85,1038.93 "/>
<g clip-path="url(#clip470)">
<text style="fill:#000000; fill-opacity:1; font-family:Book Antiqua,Palatino,Palatino Linotype,Palatino LT STD,Georgia,serif; font-size:63px; font-weight:bold; text-anchor:middle;" transform="rotate(0, 490.303, 1122.52)" x="490.303" y="1122.52">Case 1</text>
</g>
<g clip-path="url(#clip470)">
<text style="fill:#000000; fill-opacity:1; font-family:Book Antiqua,Palatino,Palatino Linotype,Palatino LT STD,Georgia,serif; font-size:63px; font-weight:bold; text-anchor:middle;" transform="rotate(0, 1001.85, 1122.52)" x="1001.85" y="1122.52">Case 2</text>
</g>
<polyline clip-path="url(#clip473)" style="stroke:#000000; stroke-linecap:round; stroke-linejoin:round; stroke-width:2; stroke-opacity:0.25; fill:none" points="339.397,1057.83 1152.76,1057.83 "/>
<polyline clip-path="url(#clip473)" style="stroke:#000000; stroke-linecap:round; stroke-linejoin:round; stroke-width:2; stroke-opacity:0.25; fill:none" points="339.397,769.09 1152.76,769.09 "/>
<polyline clip-path="url(#clip473)" style="stroke:#000000; stroke-linecap:round; stroke-linejoin:round; stroke-width:2; stroke-opacity:0.25; fill:none" points="339.397,480.352 1152.76,480.352 "/>
<polyline clip-path="url(#clip473)" style="stroke:#000000; stroke-linecap:round; stroke-linejoin:round; stroke-width:2; stroke-opacity:0.25; fill:none" points="339.397,191.613 1152.76,191.613 "/>
<polyline clip-path="url(#clip470)" style="stroke:#000000; stroke-linecap:round; stroke-linejoin:round; stroke-width:4; stroke-opacity:1; fill:none" points="339.397,1057.83 339.397,47.2441 "/>
<polyline clip-path="url(#clip470)" style="stroke:#000000; stroke-linecap:round; stroke-linejoin:round; stroke-width:4; stroke-opacity:1; fill:none" points="1152.76,1057.83 1152.76,47.2441 "/>
<polyline clip-path="url(#clip470)" style="stroke:#000000; stroke-linecap:round; stroke-linejoin:round; stroke-width:4; stroke-opacity:1; fill:none" points="339.397,1057.83 358.295,1057.83 "/>
<polyline clip-path="url(#clip470)" style="stroke:#000000; stroke-linecap:round; stroke-linejoin:round; stroke-width:4; stroke-opacity:1; fill:none" points="339.397,769.09 358.295,769.09 "/>
<polyline clip-path="url(#clip470)" style="stroke:#000000; stroke-linecap:round; stroke-linejoin:round; stroke-width:4; stroke-opacity:1; fill:none" points="339.397,480.352 358.295,480.352 "/>
<polyline clip-path="url(#clip470)" style="stroke:#000000; stroke-linecap:round; stroke-linejoin:round; stroke-width:4; stroke-opacity:1; fill:none" points="339.397,191.613 358.295,191.613 "/>
<g clip-path="url(#clip470)">
<text style="fill:#000000; fill-opacity:1; font-family:Book Antiqua,Palatino,Palatino Linotype,Palatino LT STD,Georgia,serif; font-size:63px; font-weight:bold; text-anchor:middle;" transform="rotate(0, 235.949, 1079.33)" x="235.949" y="1079.33">−0.350</text>
</g>
<g clip-path="url(#clip470)">
<text style="fill:#000000; fill-opacity:1; font-family:Book Antiqua,Palatino,Palatino Linotype,Palatino LT STD,Georgia,serif; font-size:63px; font-weight:bold; text-anchor:middle;" transform="rotate(0, 235.949, 790.59)" x="235.949" y="790.59">−0.345</text>
</g>
<g clip-path="url(#clip470)">
<text style="fill:#000000; fill-opacity:1; font-family:Book Antiqua,Palatino,Palatino Linotype,Palatino LT STD,Georgia,serif; font-size:63px; font-weight:bold; text-anchor:middle;" transform="rotate(0, 235.949, 501.852)" x="235.949" y="501.852">−0.340</text>
</g>
<g clip-path="url(#clip470)">
<text style="fill:#000000; fill-opacity:1; font-family:Book Antiqua,Palatino,Palatino Linotype,Palatino LT STD,Georgia,serif; font-size:63px; font-weight:bold; text-anchor:middle;" transform="rotate(0, 235.949, 213.113)" x="235.949" y="213.113">−0.335</text>
</g>
<path clip-path="url(#clip470)" d="M118.51 710.019 Q118.229 710.019 116.402 709.071 Q114.54 708.122 107.9 704.784 Q101.224 701.447 94.2325 698.003 L69.2876 685.601 Q67.7066 684.723 67.7066 683.599 Q67.7066 682.58 68.339 682.123 Q68.9714 681.666 73.2226 679.558 Q75.2955 678.469 76.6306 677.837 L117.35 657.494 Q118.229 657.143 118.51 657.108 Q119.213 657.108 119.213 658.338 L119.213 708.122 Q119.213 710.019 118.51 710.019 M113.732 705.276 L113.732 666.559 L74.8739 685.918 L113.732 705.276 Z" fill="#000000" fill-rule="nonzero" fill-opacity="1" /><path clip-path="url(#clip470)" d="M73.4334 614.53 Q75.3657 614.53 76.5603 615.759 Q77.7548 616.954 77.7548 618.465 Q77.7548 619.554 77.0873 620.362 Q76.4198 621.135 75.2603 621.135 Q74.0658 621.135 72.801 620.221 Q71.5362 619.308 71.3605 617.235 Q70.0606 618.605 70.0606 620.783 Q70.0606 621.873 70.7632 622.786 Q71.4308 623.664 72.5199 624.156 Q73.6442 624.683 80.0034 625.878 Q82.0763 626.264 84.0789 626.616 Q86.0815 626.967 88.1895 627.389 L88.1895 621.416 Q88.1895 620.643 88.2247 620.327 Q88.2598 620.011 88.4355 619.765 Q88.6111 619.484 88.9976 619.484 Q89.9814 619.484 90.2273 619.94 Q90.4381 620.362 90.4381 621.627 L90.4381 627.81 L113.24 632.132 Q113.907 632.237 116.015 632.694 Q118.088 633.115 121.496 634.134 Q124.939 635.153 126.977 636.172 Q128.137 636.734 129.226 637.472 Q130.35 638.175 131.474 639.194 Q132.598 640.212 133.266 641.547 Q133.969 642.883 133.969 644.288 Q133.969 646.677 132.634 648.539 Q131.299 650.401 129.015 650.401 Q127.083 650.401 125.888 649.207 Q124.693 647.977 124.693 646.466 Q124.693 645.377 125.361 644.604 Q126.028 643.796 127.188 643.796 Q127.68 643.796 128.242 643.972 Q128.804 644.147 129.436 644.534 Q130.104 644.92 130.561 645.764 Q131.017 646.607 131.088 647.766 Q132.388 646.396 132.388 644.288 Q132.388 643.62 132.107 643.023 Q131.861 642.426 131.228 641.934 Q130.596 641.407 129.963 641.02 Q129.366 640.634 128.207 640.248 Q127.083 639.861 126.239 639.615 Q125.396 639.369 123.885 639.053 Q122.375 638.702 121.461 638.526 Q120.583 638.35 118.861 638.034 L90.4381 632.659 L90.4381 637.402 Q90.4381 638.245 90.403 638.596 Q90.3678 638.912 90.1922 639.158 Q89.9814 639.404 89.5597 639.404 Q88.8922 639.404 88.6111 639.123 Q88.2949 638.807 88.2598 638.456 Q88.1895 638.104 88.1895 637.261 L88.1895 632.272 Q79.3007 630.586 76.9116 629.918 Q74.382 629.145 72.6253 627.951 Q70.8335 626.756 69.9903 625.421 Q69.1471 624.086 68.8309 622.997 Q68.4795 621.873 68.4795 620.783 Q68.4795 618.324 69.8146 616.427 Q71.1146 614.53 73.4334 614.53 Z" fill="#000000" fill-rule="nonzero" fill-opacity="1" /><path clip-path="url(#clip470)" d="M101.224 604.843 Q89.0679 604.843 79.2656 600.311 Q75.1549 598.379 71.7118 595.673 Q68.2687 592.968 66.758 591.176 Q65.2473 589.384 65.2473 588.892 Q65.2473 588.19 65.9499 588.155 Q66.3013 588.155 67.1796 589.103 Q78.9845 600.697 101.224 600.662 Q123.534 600.662 134.882 589.384 Q136.112 588.155 136.498 588.155 Q137.201 588.155 137.201 588.892 Q137.201 589.384 135.761 591.106 Q134.32 592.827 131.017 595.498 Q127.715 598.168 123.675 600.1 Q113.872 604.843 101.224 604.843 Z" fill="#000000" fill-rule="nonzero" fill-opacity="1" /><path clip-path="url(#clip470)" d="M88.9976 560.587 Q89.9814 560.587 90.2273 561.043 Q90.4381 561.5 90.4381 562.765 L90.4381 569.511 L111.659 574.851 Q113.521 575.273 115.102 575.273 Q116.859 575.273 117.632 574.746 Q118.404 574.183 118.404 573.024 Q118.404 570.74 116.332 568.281 Q114.259 565.786 109.199 563.678 Q108.532 563.397 108.391 563.257 Q108.216 563.081 108.216 562.624 Q108.216 561.746 108.918 561.746 Q109.164 561.746 110.289 562.238 Q111.413 562.695 113.064 563.714 Q114.715 564.697 116.261 565.997 Q117.807 567.262 118.931 569.194 Q120.021 571.127 120.021 573.2 Q120.021 576.116 118.159 577.978 Q116.296 579.805 113.38 579.805 Q112.432 579.805 109.41 579.067 Q106.354 578.329 90.4381 574.324 L90.4381 580.683 Q90.4381 581.561 90.403 581.913 Q90.3678 582.229 90.1922 582.475 Q89.9814 582.686 89.5597 582.686 Q88.8922 582.686 88.6111 582.405 Q88.2949 582.124 88.2598 581.772 Q88.1895 581.386 88.1895 580.507 L88.1895 573.762 L76.7711 570.951 Q75.6468 570.67 75.0144 569.967 Q74.3469 569.23 74.2766 568.808 Q74.1712 568.386 74.1712 568.07 Q74.1712 567.122 74.6982 566.559 Q75.1901 565.997 76.1036 565.997 Q76.5954 565.997 88.1895 568.949 L88.1895 562.624 Q88.1895 561.816 88.2247 561.5 Q88.2598 561.149 88.4355 560.868 Q88.6111 560.587 88.9976 560.587 Z" fill="#000000" fill-rule="nonzero" fill-opacity="1" /><path clip-path="url(#clip470)" d="M136.498 554.954 Q136.147 554.954 135.269 554.041 Q123.464 542.447 101.224 542.447 Q78.9142 542.447 67.6363 553.584 Q66.3364 554.954 65.9499 554.954 Q65.2473 554.954 65.2473 554.252 Q65.2473 553.76 66.6877 552.038 Q68.1282 550.282 71.4308 547.646 Q74.7333 544.976 78.7737 543.009 Q88.576 538.266 101.224 538.266 Q113.38 538.266 123.183 542.798 Q127.293 544.73 130.736 547.436 Q134.18 550.141 135.69 551.933 Q137.201 553.725 137.201 554.252 Q137.201 554.954 136.498 554.954 Z" fill="#000000" fill-rule="nonzero" fill-opacity="1" /><path clip-path="url(#clip470)" d="M136.182 527.325 Q135.831 527.325 135.058 527.044 L67.1796 501.642 Q67.1093 501.642 66.7229 501.467 Q66.3364 501.291 66.0905 501.185 Q65.8094 501.08 65.5986 500.869 Q65.3878 500.623 65.3878 500.342 Q65.3878 499.64 66.2661 499.64 Q66.3364 499.64 67.1796 499.85 L135.128 525.322 Q136.358 525.744 136.709 526.025 Q137.06 526.271 137.06 526.693 Q137.06 527.325 136.182 527.325 Z" fill="#000000" fill-rule="nonzero" fill-opacity="1" /><path clip-path="url(#clip470)" d="M70.8686 431.122 Q71.8875 431.122 72.0983 431.578 Q72.3091 432 72.3091 433.546 Q72.3091 436.181 72.6605 437.375 Q72.9767 438.535 73.5388 438.886 Q74.0658 439.202 75.6117 439.589 L114.47 449.321 Q114.505 449.321 114.997 449.426 Q115.453 449.532 115.699 449.532 Q116.156 449.532 116.437 449.251 Q116.718 448.934 116.859 448.162 Q116.964 447.389 116.999 446.791 Q116.999 446.159 116.999 444.859 Q116.999 443.243 117.28 442.997 Q117.456 442.856 117.772 442.856 Q118.44 442.856 118.791 443.137 Q119.107 443.383 119.177 443.629 Q119.213 443.84 119.213 444.262 Q119.213 444.999 119.142 446.58 Q119.072 448.162 119.072 448.97 L119.002 453.572 L119.213 462.707 Q119.213 463.691 118.404 463.691 Q117.702 463.691 117.386 463.445 Q117.069 463.199 117.034 462.953 Q116.999 462.672 116.999 461.969 Q116.999 458.35 116.648 457.156 Q116.261 455.926 114.61 455.434 L94.7595 450.48 L94.7595 472.404 L114.47 477.322 Q114.505 477.322 114.997 477.428 Q115.453 477.533 115.699 477.533 Q116.156 477.533 116.437 477.252 Q116.718 476.936 116.859 476.163 Q116.964 475.39 116.999 474.793 Q116.999 474.16 116.999 472.86 Q116.999 471.244 117.28 470.963 Q117.456 470.823 117.772 470.823 Q118.264 470.823 118.615 470.963 Q118.931 471.069 119.037 471.35 Q119.142 471.596 119.177 471.771 Q119.213 471.947 119.213 472.263 Q119.213 473.001 119.142 474.582 Q119.072 476.128 119.072 476.936 L119.002 481.538 L119.213 490.673 Q119.213 491.692 118.404 491.692 Q117.702 491.692 117.421 491.446 Q117.105 491.2 117.069 490.884 Q116.999 490.568 116.999 489.76 Q116.999 488.003 116.894 486.949 Q116.788 485.895 116.648 485.228 Q116.472 484.525 115.98 484.174 Q115.488 483.787 115.067 483.611 Q114.61 483.436 113.591 483.19 L74.9441 473.563 Q73.7847 473.282 73.6091 473.282 Q72.9415 473.282 72.7659 473.704 Q72.5551 474.09 72.4497 475.214 L72.3091 477.955 Q72.3091 478.798 72.274 479.149 Q72.2389 479.466 72.0632 479.712 Q71.8875 479.957 71.501 479.957 Q71.0092 479.957 70.693 479.852 Q70.3416 479.712 70.2362 479.466 Q70.1308 479.22 70.0957 479.044 Q70.0606 478.868 70.0606 478.587 L70.2714 469.312 L70.0606 460.107 Q70.0606 459.088 70.8686 459.088 Q71.8875 459.088 72.0983 459.545 Q72.3091 460.002 72.3091 461.547 Q72.3091 464.112 72.6605 465.307 Q72.9767 466.501 73.5388 466.888 Q74.1009 467.239 75.6117 467.59 L92.511 471.842 L92.511 449.883 L74.9441 445.562 Q73.6793 445.281 73.6091 445.281 Q72.9415 445.281 72.7659 445.702 Q72.5551 446.089 72.4497 447.213 L72.3091 449.953 Q72.3091 450.797 72.274 451.148 Q72.2389 451.464 72.0632 451.745 Q71.8875 451.991 71.501 451.991 Q71.0092 451.991 70.693 451.886 Q70.3416 451.745 70.2362 451.499 Q70.1308 451.253 70.0957 451.078 Q70.0606 450.902 70.0606 450.621 L70.2714 441.346 L70.0606 432.105 Q70.0606 431.122 70.8686 431.122 Z" fill="#000000" fill-rule="nonzero" fill-opacity="1" /><path clip-path="url(#clip470)" d="M88.1193 397.685 Q88.3652 397.685 89.4192 398.283 Q90.4381 398.845 93.0028 400.918 Q95.5676 402.99 98.554 406.082 Q99.7134 407.242 101.33 408.998 Q102.946 410.755 104 411.95 L105.054 413.144 Q108.918 417.711 113.24 421.717 Q113.134 421.436 113.099 420.944 Q113.029 420.452 113.029 420.101 L113.029 419.749 Q113.029 417.922 114.259 414.725 Q115.172 411.914 115.172 410.474 Q115.172 409.069 114.68 407.523 Q114.188 405.977 112.748 404.29 Q111.307 402.604 109.129 401.831 Q108.778 401.691 108.672 401.62 Q108.532 401.55 108.391 401.339 Q108.216 401.128 108.216 400.847 Q108.216 400.461 108.427 400.215 Q108.637 399.969 108.918 399.969 Q109.551 399.969 110.816 400.461 Q112.08 400.918 113.661 401.936 Q115.242 402.92 116.683 404.22 Q118.088 405.485 119.072 407.382 Q120.021 409.279 120.021 411.282 Q120.021 412.722 119.318 413.776 Q118.65 414.83 117.35 415.885 Q115.699 417.325 115.172 418.098 Q114.61 418.871 114.61 420.065 Q114.61 423.263 119.072 426.179 Q119.704 426.495 119.845 426.706 Q120.021 426.881 120.021 427.303 Q119.986 428.181 119.283 428.181 Q119.002 428.181 117.772 427.408 Q116.507 426.6 114.294 424.808 Q112.08 422.982 109.867 420.768 L103.824 414.303 Q97.781 407.136 94.3731 404.29 Q94.3731 405.485 94.3379 406.012 Q94.3028 406.504 94.092 407.488 Q93.8461 408.471 93.3191 409.842 Q92.2299 413.039 92.2299 414.374 Q92.2299 414.725 92.265 415.112 Q92.3002 415.498 92.4758 416.376 Q92.6515 417.22 93.0028 417.922 Q93.3191 418.625 94.0217 419.363 Q94.6893 420.101 95.6027 420.487 Q95.8838 420.592 96.0243 420.663 Q96.1649 420.733 96.3054 420.944 Q96.4108 421.119 96.4108 421.4 Q96.4108 421.822 96.1649 422.068 Q95.9189 422.279 95.6027 422.279 Q94.9703 422.279 93.6704 421.646 Q92.3704 421.014 90.9651 419.96 Q89.5246 418.906 88.4706 417.184 Q87.4166 415.463 87.4166 413.566 Q87.4166 412.441 87.9085 411.493 Q88.4003 410.509 88.9273 410.017 Q89.4192 409.49 90.5084 408.612 Q91.3516 407.874 91.7029 407.523 Q92.0542 407.171 92.4407 406.469 Q92.792 405.731 92.792 404.923 Q92.792 403.588 91.7732 402.358 Q90.7192 401.128 88.1895 399.547 Q87.4166 399.126 87.4166 398.458 Q87.4166 397.685 88.1193 397.685 Z" fill="#000000" fill-rule="nonzero" fill-opacity="1" /><path clip-path="url(#clip473)" d="M490.303 655.122 L426.36 655.122 L554.247 655.122 L490.303 655.122 L490.303 651.356 L490.303 655.122  Z" fill="#009af9" fill-rule="evenodd" fill-opacity="0.5"/>
<polyline clip-path="url(#clip473)" style="stroke:#000000; stroke-linecap:round; stroke-linejoin:round; stroke-width:8; stroke-opacity:0.75; fill:none" points="490.303,655.122 426.36,655.122 554.247,655.122 490.303,655.122 490.303,651.356 490.303,655.122 "/>
<path clip-path="url(#clip473)" d="M618.19 651.356 L618.19 650.055 L554.247 649.483 L426.36 649.483 L362.417 650.055 L362.417 651.356 L618.19 651.356 L618.19 650.055 L618.19 651.356  Z" fill="#009af9" fill-rule="evenodd" fill-opacity="0.5"/>
<polyline clip-path="url(#clip473)" style="stroke:#000000; stroke-linecap:round; stroke-linejoin:round; stroke-width:8; stroke-opacity:0.75; fill:none" points="618.19,651.356 618.19,650.055 554.247,649.483 426.36,649.483 362.417,650.055 362.417,651.356 618.19,651.356 618.19,650.055 618.19,651.356 "/>
<path clip-path="url(#clip473)" d="M618.19 648.911 L618.19 647.736 L362.417 647.736 L362.417 648.911 L426.36 649.483 L554.247 649.483 L618.19 648.911 L618.19 647.736 L618.19 648.911  Z" fill="#009af9" fill-rule="evenodd" fill-opacity="0.5"/>
<polyline clip-path="url(#clip473)" style="stroke:#000000; stroke-linecap:round; stroke-linejoin:round; stroke-width:8; stroke-opacity:0.75; fill:none" points="618.19,648.911 618.19,647.736 362.417,647.736 362.417,648.911 426.36,649.483 554.247,649.483 618.19,648.911 618.19,647.736 618.19,648.911 "/>
<path clip-path="url(#clip473)" d="M490.303 643.635 L426.36 643.635 L554.247 643.635 L490.303 643.635 L490.303 647.736 L490.303 643.635  Z" fill="#009af9" fill-rule="evenodd" fill-opacity="0.5"/>
<polyline clip-path="url(#clip473)" style="stroke:#000000; stroke-linecap:round; stroke-linejoin:round; stroke-width:8; stroke-opacity:0.75; fill:none" points="490.303,643.635 426.36,643.635 554.247,643.635 490.303,643.635 490.303,647.736 490.303,643.635 "/>
<circle clip-path="url(#clip473)" cx="490.303" cy="658.271" r="14.4" fill="#009af9" fill-rule="evenodd" fill-opacity="1" stroke="#000000" stroke-opacity="1" stroke-width="2.4"/>
<circle clip-path="url(#clip473)" cx="490.303" cy="658.271" r="14.4" fill="#009af9" fill-rule="evenodd" fill-opacity="1" stroke="#000000" stroke-opacity="1" stroke-width="2.4"/>
<circle clip-path="url(#clip473)" cx="490.303" cy="658.271" r="14.4" fill="#009af9" fill-rule="evenodd" fill-opacity="1" stroke="#000000" stroke-opacity="1" stroke-width="2.4"/>
<circle clip-path="url(#clip473)" cx="490.303" cy="640.939" r="14.4" fill="#009af9" fill-rule="evenodd" fill-opacity="1" stroke="#000000" stroke-opacity="1" stroke-width="2.4"/>
<polyline clip-path="url(#clip473)" style="stroke:#009af9; stroke-linecap:round; stroke-linejoin:round; stroke-width:0; stroke-opacity:0.75; fill:none" points="490.303,655.122 426.36,655.122 554.247,655.122 490.303,655.122 490.303,651.356 "/>
<polyline clip-path="url(#clip473)" style="stroke:#009af9; stroke-linecap:round; stroke-linejoin:round; stroke-width:0; stroke-opacity:0.75; fill:none" points="618.19,651.356 618.19,650.055 554.247,649.483 426.36,649.483 362.417,650.055 362.417,651.356 618.19,651.356 618.19,650.055 "/>
<polyline clip-path="url(#clip473)" style="stroke:#009af9; stroke-linecap:round; stroke-linejoin:round; stroke-width:0; stroke-opacity:0.75; fill:none" points="618.19,648.911 618.19,647.736 362.417,647.736 362.417,648.911 426.36,649.483 554.247,649.483 618.19,648.911 618.19,647.736 "/>
<polyline clip-path="url(#clip473)" style="stroke:#009af9; stroke-linecap:round; stroke-linejoin:round; stroke-width:0; stroke-opacity:0.75; fill:none" points="490.303,643.635 426.36,643.635 554.247,643.635 490.303,643.635 490.303,647.736 "/>
<path clip-path="url(#clip473)" d="M1001.85 765.679 L937.906 765.679 L1065.79 765.679 L1001.85 765.679 L1001.85 692.977 L1001.85 765.679  Z" fill="#e26f46" fill-rule="evenodd" fill-opacity="0.25"/>
<polyline clip-path="url(#clip473)" style="stroke:#000000; stroke-linecap:round; stroke-linejoin:round; stroke-width:4; stroke-opacity:1; fill:none" points="1001.85,765.679 937.906,765.679 1065.79,765.679 1001.85,765.679 1001.85,692.977 1001.85,765.679 "/>
<path clip-path="url(#clip473)" d="M1129.74 692.977 L1129.74 660.107 L873.963 660.107 L873.963 692.977 L1129.74 692.977 L1129.74 660.107 L1129.74 692.977  Z" fill="#e26f46" fill-rule="evenodd" fill-opacity="0.25"/>
<polyline clip-path="url(#clip473)" style="stroke:#000000; stroke-linecap:round; stroke-linejoin:round; stroke-width:4; stroke-opacity:1; fill:none" points="1129.74,692.977 1129.74,660.107 873.963,660.107 873.963,692.977 1129.74,692.977 1129.74,660.107 1129.74,692.977 "/>
<path clip-path="url(#clip473)" d="M1129.74 610.109 L873.963 610.109 L873.963 660.107 L1129.74 660.107 L1129.74 610.109 L1001.85 610.109 L1129.74 610.109  Z" fill="#e26f46" fill-rule="evenodd" fill-opacity="0.25"/>
<polyline clip-path="url(#clip473)" style="stroke:#000000; stroke-linecap:round; stroke-linejoin:round; stroke-width:4; stroke-opacity:1; fill:none" points="1129.74,610.109 873.963,610.109 873.963,660.107 1129.74,660.107 1129.74,610.109 1001.85,610.109 1129.74,610.109 "/>
<path clip-path="url(#clip473)" d="M1001.85 529.343 L937.906 529.343 L1065.79 529.343 L1001.85 529.343 L1001.85 610.109 L1001.85 529.343  Z" fill="#e26f46" fill-rule="evenodd" fill-opacity="0.25"/>
<polyline clip-path="url(#clip473)" style="stroke:#000000; stroke-linecap:round; stroke-linejoin:round; stroke-width:4; stroke-opacity:1; fill:none" points="1001.85,529.343 937.906,529.343 1065.79,529.343 1001.85,529.343 1001.85,610.109 1001.85,529.343 "/>
<polyline clip-path="url(#clip473)" style="stroke:#e26f46; stroke-linecap:round; stroke-linejoin:round; stroke-width:0; stroke-opacity:1; fill:none" points="1001.85,765.679 937.906,765.679 1065.79,765.679 1001.85,765.679 1001.85,692.977 "/>
<polyline clip-path="url(#clip473)" style="stroke:#e26f46; stroke-linecap:round; stroke-linejoin:round; stroke-width:0; stroke-opacity:1; fill:none" points="1129.74,692.977 1129.74,660.107 873.963,660.107 873.963,692.977 1129.74,692.977 1129.74,660.107 "/>
<polyline clip-path="url(#clip473)" style="stroke:#e26f46; stroke-linecap:round; stroke-linejoin:round; stroke-width:0; stroke-opacity:1; fill:none" points="1129.74,610.109 873.963,610.109 873.963,660.107 1129.74,660.107 1129.74,610.109 1001.85,610.109 "/>
<polyline clip-path="url(#clip473)" style="stroke:#e26f46; stroke-linecap:round; stroke-linejoin:round; stroke-width:0; stroke-opacity:1; fill:none" points="1001.85,529.343 937.906,529.343 1065.79,529.343 1001.85,529.343 1001.85,610.109 "/>
<path clip-path="url(#clip470)" d="M475.342 285.631 L1125.64 285.631 L1125.64 80.9303 L475.342 80.9303  Z" fill="#ffffff" fill-rule="evenodd" fill-opacity="1"/>
<polyline clip-path="url(#clip470)" style="stroke:#000000; stroke-linecap:round; stroke-linejoin:round; stroke-width:4; stroke-opacity:1; fill:none" points="475.342,285.631 1125.64,285.631 1125.64,80.9303 475.342,80.9303 475.342,285.631 "/>
<path clip-path="url(#clip470)" d="M484.379 176.457 L538.603 176.457 L538.603 121.87 L484.379 121.87 L484.379 176.457  Z" fill="#009af9" fill-rule="evenodd" fill-opacity="0.5"/>
<polyline clip-path="url(#clip470)" style="stroke:#000000; stroke-linecap:round; stroke-linejoin:round; stroke-width:10; stroke-opacity:1; fill:none" points="484.379,176.457 538.603,176.457 538.603,121.87 484.379,121.87 484.379,176.457 "/>
<g clip-path="url(#clip470)">
<text style="fill:#000000; fill-opacity:1; font-family:Book Antiqua,Palatino,Palatino Linotype,Palatino LT STD,Georgia,serif; font-size:62px; text-anchor:start;" transform="rotate(0, 547.64, 170.664)" x="547.64" y="170.664">Residual 1: N(0,0.01)</text>
</g>
<path clip-path="url(#clip470)" d="M484.379 244.691 L538.603 244.691 L538.603 190.104 L484.379 190.104 L484.379 244.691  Z" fill="#e26f46" fill-rule="evenodd" fill-opacity="0.25"/>
<polyline clip-path="url(#clip470)" style="stroke:#000000; stroke-linecap:round; stroke-linejoin:round; stroke-width:5; stroke-opacity:1; fill:none" points="484.379,244.691 538.603,244.691 538.603,190.104 484.379,190.104 484.379,244.691 "/>
<g clip-path="url(#clip470)">
<text style="fill:#000000; fill-opacity:1; font-family:Book Antiqua,Palatino,Palatino Linotype,Palatino LT STD,Georgia,serif; font-size:62px; text-anchor:start;" transform="rotate(0, 547.64, 238.897)" x="547.64" y="238.897">Residual 2: N(0,0.10)</text>
</g>
</svg>
