<?xml version="1.0" encoding="utf-8"?>
<svg xmlns="http://www.w3.org/2000/svg" xmlns:xlink="http://www.w3.org/1999/xlink" width="300" height="300" viewBox="0 0 1200 1200">
<defs>
  <clipPath id="clip430">
    <rect x="0" y="0" width="1200" height="1200"/>
  </clipPath>
</defs>
<path clip-path="url(#clip430)" d="M0 1200 L1200 1200 L1200 0 L0 0  Z" fill="#ffffff" fill-rule="evenodd" fill-opacity="1"/>
<defs>
  <clipPath id="clip431">
    <rect x="240" y="120" width="841" height="841"/>
  </clipPath>
</defs>
<defs>
  <clipPath id="clip432">
    <rect x="745" y="623" width="432" height="496"/>
  </clipPath>
</defs>
<defs>
  <clipPath id="clip433">
    <rect x="295" y="47" width="858" height="918"/>
  </clipPath>
</defs>
<polyline clip-path="url(#clip433)" style="stroke:#000000; stroke-linecap:round; stroke-linejoin:round; stroke-width:2; stroke-opacity:0.25; fill:none" points="466.849,964.321 466.849,47.2441 "/>
<polyline clip-path="url(#clip433)" style="stroke:#000000; stroke-linecap:round; stroke-linejoin:round; stroke-width:2; stroke-opacity:0.25; fill:none" points="638.326,964.321 638.326,47.2441 "/>
<polyline clip-path="url(#clip433)" style="stroke:#000000; stroke-linecap:round; stroke-linejoin:round; stroke-width:2; stroke-opacity:0.25; fill:none" points="809.803,964.321 809.803,47.2441 "/>
<polyline clip-path="url(#clip433)" style="stroke:#000000; stroke-linecap:round; stroke-linejoin:round; stroke-width:2; stroke-opacity:0.25; fill:none" points="981.279,964.321 981.279,47.2441 "/>
<polyline clip-path="url(#clip433)" style="stroke:#000000; stroke-linecap:round; stroke-linejoin:round; stroke-width:2; stroke-opacity:0.25; fill:none" points="1152.76,964.321 1152.76,47.2441 "/>
<polyline clip-path="url(#clip430)" style="stroke:#000000; stroke-linecap:round; stroke-linejoin:round; stroke-width:4; stroke-opacity:1; fill:none" points="295.372,964.321 1152.76,964.321 "/>
<polyline clip-path="url(#clip430)" style="stroke:#000000; stroke-linecap:round; stroke-linejoin:round; stroke-width:4; stroke-opacity:1; fill:none" points="295.372,47.2441 1152.76,47.2441 "/>
<polyline clip-path="url(#clip430)" style="stroke:#000000; stroke-linecap:round; stroke-linejoin:round; stroke-width:4; stroke-opacity:1; fill:none" points="466.849,964.321 466.849,945.423 "/>
<polyline clip-path="url(#clip430)" style="stroke:#000000; stroke-linecap:round; stroke-linejoin:round; stroke-width:4; stroke-opacity:1; fill:none" points="638.326,964.321 638.326,945.423 "/>
<polyline clip-path="url(#clip430)" style="stroke:#000000; stroke-linecap:round; stroke-linejoin:round; stroke-width:4; stroke-opacity:1; fill:none" points="809.803,964.321 809.803,945.423 "/>
<polyline clip-path="url(#clip430)" style="stroke:#000000; stroke-linecap:round; stroke-linejoin:round; stroke-width:4; stroke-opacity:1; fill:none" points="981.279,964.321 981.279,945.423 "/>
<polyline clip-path="url(#clip430)" style="stroke:#000000; stroke-linecap:round; stroke-linejoin:round; stroke-width:4; stroke-opacity:1; fill:none" points="1152.76,964.321 1152.76,945.423 "/>
<g clip-path="url(#clip430)">
<text style="fill:#000000; fill-opacity:1; font-family:Book Antiqua,Palatino,Palatino Linotype,Palatino LT STD,Georgia,serif; font-size:63px; font-weight:bold; text-anchor:middle;" transform="rotate(0, 466.849, 1029.01)" x="466.849" y="1029.01">−0.344</text>
</g>
<g clip-path="url(#clip430)">
<text style="fill:#000000; fill-opacity:1; font-family:Book Antiqua,Palatino,Palatino Linotype,Palatino LT STD,Georgia,serif; font-size:63px; font-weight:bold; text-anchor:middle;" transform="rotate(0, 638.326, 1029.01)" x="638.326" y="1029.01">−0.343</text>
</g>
<g clip-path="url(#clip430)">
<text style="fill:#000000; fill-opacity:1; font-family:Book Antiqua,Palatino,Palatino Linotype,Palatino LT STD,Georgia,serif; font-size:63px; font-weight:bold; text-anchor:middle;" transform="rotate(0, 809.803, 1029.01)" x="809.803" y="1029.01">−0.342</text>
</g>
<g clip-path="url(#clip430)">
<text style="fill:#000000; fill-opacity:1; font-family:Book Antiqua,Palatino,Palatino Linotype,Palatino LT STD,Georgia,serif; font-size:63px; font-weight:bold; text-anchor:middle;" transform="rotate(0, 981.279, 1029.01)" x="981.279" y="1029.01">−0.341</text>
</g>
<g clip-path="url(#clip430)">
<text style="fill:#000000; fill-opacity:1; font-family:Book Antiqua,Palatino,Palatino Linotype,Palatino LT STD,Georgia,serif; font-size:63px; font-weight:bold; text-anchor:middle;" transform="rotate(0, 1152.76, 1029.01)" x="1152.76" y="1029.01">−0.340</text>
</g>
<path clip-path="url(#clip430)" d="M566.582 1097.72 Q566.582 1097.44 567.53 1095.61 Q568.479 1093.75 571.816 1087.11 Q575.154 1080.43 578.597 1073.44 L590.999 1048.5 Q591.878 1046.91 593.002 1046.91 Q594.021 1046.91 594.478 1047.55 Q594.934 1048.18 597.042 1052.43 Q598.132 1054.5 598.764 1055.84 L619.106 1096.56 Q619.458 1097.44 619.493 1097.72 Q619.493 1098.42 618.263 1098.42 L568.479 1098.42 Q566.582 1098.42 566.582 1097.72 M571.325 1092.94 L610.042 1092.94 L590.683 1054.08 L571.325 1092.94 Z" fill="#000000" fill-rule="nonzero" fill-opacity="1" /><path clip-path="url(#clip430)" d="M662.071 1052.64 Q662.071 1054.57 660.841 1055.77 Q659.647 1056.96 658.136 1056.96 Q657.047 1056.96 656.239 1056.29 Q655.466 1055.63 655.466 1054.47 Q655.466 1053.27 656.379 1052.01 Q657.293 1050.74 659.366 1050.57 Q657.996 1049.27 655.817 1049.27 Q654.728 1049.27 653.815 1049.97 Q652.936 1050.64 652.444 1051.73 Q651.917 1052.85 650.723 1059.21 Q650.336 1061.28 649.985 1063.29 Q649.634 1065.29 649.212 1067.4 L655.185 1067.4 Q655.958 1067.4 656.274 1067.43 Q656.59 1067.47 656.836 1067.64 Q657.117 1067.82 657.117 1068.21 Q657.117 1069.19 656.66 1069.43 Q656.239 1069.65 654.974 1069.65 L648.79 1069.65 L644.469 1092.45 Q644.364 1093.12 643.907 1095.22 Q643.485 1097.3 642.466 1100.7 Q641.448 1104.15 640.429 1106.18 Q639.867 1107.34 639.129 1108.43 Q638.426 1109.56 637.407 1110.68 Q636.388 1111.81 635.053 1112.47 Q633.718 1113.18 632.313 1113.18 Q629.924 1113.18 628.062 1111.84 Q626.2 1110.51 626.2 1108.22 Q626.2 1106.29 627.394 1105.1 Q628.624 1103.9 630.135 1103.9 Q631.224 1103.9 631.997 1104.57 Q632.805 1105.24 632.805 1106.4 Q632.805 1106.89 632.629 1107.45 Q632.453 1108.01 632.067 1108.64 Q631.68 1109.31 630.837 1109.77 Q629.994 1110.23 628.835 1110.3 Q630.205 1111.6 632.313 1111.6 Q632.98 1111.6 633.578 1111.31 Q634.175 1111.07 634.667 1110.44 Q635.194 1109.8 635.58 1109.17 Q635.967 1108.57 636.353 1107.41 Q636.74 1106.29 636.986 1105.45 Q637.232 1104.6 637.548 1103.09 Q637.899 1101.58 638.075 1100.67 Q638.25 1099.79 638.567 1098.07 L643.942 1069.65 L639.199 1069.65 Q638.356 1069.65 638.004 1069.61 Q637.688 1069.58 637.442 1069.4 Q637.196 1069.19 637.196 1068.77 Q637.196 1068.1 637.477 1067.82 Q637.794 1067.5 638.145 1067.47 Q638.496 1067.4 639.34 1067.4 L644.329 1067.4 Q646.015 1058.51 646.682 1056.12 Q647.455 1053.59 648.65 1051.83 Q649.844 1050.04 651.18 1049.2 Q652.515 1048.35 653.604 1048.04 Q654.728 1047.69 655.817 1047.69 Q658.277 1047.69 660.174 1049.02 Q662.071 1050.32 662.071 1052.64 Z" fill="#000000" fill-rule="nonzero" fill-opacity="1" /><path clip-path="url(#clip430)" d="M671.758 1080.43 Q671.758 1068.28 676.29 1058.47 Q678.222 1054.36 680.927 1050.92 Q683.633 1047.48 685.425 1045.97 Q687.216 1044.45 687.708 1044.45 Q688.411 1044.45 688.446 1045.16 Q688.446 1045.51 687.497 1046.39 Q675.903 1058.19 675.939 1080.43 Q675.939 1102.74 687.216 1114.09 Q688.446 1115.32 688.446 1115.71 Q688.446 1116.41 687.708 1116.41 Q687.216 1116.41 685.495 1114.97 Q683.773 1113.53 681.103 1110.23 Q678.433 1106.92 676.501 1102.88 Q671.758 1093.08 671.758 1080.43 Z" fill="#000000" fill-rule="nonzero" fill-opacity="1" /><path clip-path="url(#clip430)" d="M716.014 1068.21 Q716.014 1069.19 715.557 1069.43 Q715.101 1069.65 713.836 1069.65 L707.09 1069.65 L701.75 1090.87 Q701.328 1092.73 701.328 1094.31 Q701.328 1096.07 701.855 1096.84 Q702.417 1097.61 703.577 1097.61 Q705.86 1097.61 708.32 1095.54 Q710.814 1093.47 712.922 1088.41 Q713.203 1087.74 713.344 1087.6 Q713.52 1087.42 713.976 1087.42 Q714.855 1087.42 714.855 1088.13 Q714.855 1088.37 714.363 1089.5 Q713.906 1090.62 712.887 1092.27 Q711.903 1093.92 710.603 1095.47 Q709.339 1097.01 707.406 1098.14 Q705.474 1099.23 703.401 1099.23 Q700.485 1099.23 698.623 1097.37 Q696.796 1095.5 696.796 1092.59 Q696.796 1091.64 697.534 1088.62 Q698.272 1085.56 702.277 1069.65 L695.918 1069.65 Q695.039 1069.65 694.688 1069.61 Q694.372 1069.58 694.126 1069.4 Q693.915 1069.19 693.915 1068.77 Q693.915 1068.1 694.196 1067.82 Q694.477 1067.5 694.828 1067.47 Q695.215 1067.4 696.093 1067.4 L702.839 1067.4 L705.65 1055.98 Q705.931 1054.85 706.633 1054.22 Q707.371 1053.55 707.793 1053.48 Q708.214 1053.38 708.531 1053.38 Q709.479 1053.38 710.041 1053.91 Q710.603 1054.4 710.603 1055.31 Q710.603 1055.8 707.652 1067.4 L713.976 1067.4 Q714.784 1067.4 715.101 1067.43 Q715.452 1067.47 715.733 1067.64 Q716.014 1067.82 716.014 1068.21 Z" fill="#000000" fill-rule="nonzero" fill-opacity="1" /><path clip-path="url(#clip430)" d="M721.646 1115.71 Q721.646 1115.35 722.56 1114.48 Q734.154 1102.67 734.154 1080.43 Q734.154 1058.12 723.017 1046.84 Q721.646 1045.54 721.646 1045.16 Q721.646 1044.45 722.349 1044.45 Q722.841 1044.45 724.563 1045.9 Q726.319 1047.34 728.954 1050.64 Q731.624 1053.94 733.592 1057.98 Q738.335 1067.78 738.335 1080.43 Q738.335 1092.59 733.803 1102.39 Q731.87 1106.5 729.165 1109.94 Q726.46 1113.39 724.668 1114.9 Q722.876 1116.41 722.349 1116.41 Q721.646 1116.41 721.646 1115.71 Z" fill="#000000" fill-rule="nonzero" fill-opacity="1" /><path clip-path="url(#clip430)" d="M749.276 1115.39 Q749.276 1115.04 749.557 1114.27 L774.958 1046.39 Q774.958 1046.32 775.134 1045.93 Q775.31 1045.54 775.415 1045.3 Q775.521 1045.02 775.731 1044.81 Q775.977 1044.6 776.258 1044.6 Q776.961 1044.6 776.961 1045.47 Q776.961 1045.54 776.75 1046.39 L751.278 1114.34 Q750.857 1115.57 750.576 1115.92 Q750.33 1116.27 749.908 1116.27 Q749.276 1116.27 749.276 1115.39 Z" fill="#000000" fill-rule="nonzero" fill-opacity="1" /><path clip-path="url(#clip430)" d="M845.479 1050.08 Q845.479 1051.1 845.022 1051.31 Q844.601 1051.52 843.055 1051.52 Q840.42 1051.52 839.225 1051.87 Q838.066 1052.18 837.714 1052.75 Q837.398 1053.27 837.012 1054.82 L827.28 1093.68 Q827.28 1093.71 827.174 1094.2 Q827.069 1094.66 827.069 1094.91 Q827.069 1095.36 827.35 1095.64 Q827.666 1095.93 828.439 1096.07 Q829.212 1096.17 829.809 1096.21 Q830.442 1096.21 831.742 1096.21 Q833.358 1096.21 833.604 1096.49 Q833.744 1096.66 833.744 1096.98 Q833.744 1097.65 833.463 1098 Q833.217 1098.31 832.971 1098.39 Q832.761 1098.42 832.339 1098.42 Q831.601 1098.42 830.02 1098.35 Q828.439 1098.28 827.631 1098.28 L823.029 1098.21 L813.894 1098.42 Q812.91 1098.42 812.91 1097.61 Q812.91 1096.91 813.156 1096.59 Q813.402 1096.28 813.648 1096.24 Q813.929 1096.21 814.632 1096.21 Q818.25 1096.21 819.445 1095.86 Q820.675 1095.47 821.167 1093.82 L826.12 1073.97 L804.197 1073.97 L799.278 1093.68 Q799.278 1093.71 799.173 1094.2 Q799.067 1094.66 799.067 1094.91 Q799.067 1095.36 799.349 1095.64 Q799.665 1095.93 800.438 1096.07 Q801.211 1096.17 801.808 1096.21 Q802.44 1096.21 803.74 1096.21 Q805.356 1096.21 805.637 1096.49 Q805.778 1096.66 805.778 1096.98 Q805.778 1097.47 805.637 1097.82 Q805.532 1098.14 805.251 1098.24 Q805.005 1098.35 804.829 1098.39 Q804.654 1098.42 804.338 1098.42 Q803.6 1098.42 802.019 1098.35 Q800.473 1098.28 799.665 1098.28 L795.062 1098.21 L785.927 1098.42 Q784.909 1098.42 784.909 1097.61 Q784.909 1096.91 785.155 1096.63 Q785.4 1096.31 785.717 1096.28 Q786.033 1096.21 786.841 1096.21 Q788.598 1096.21 789.652 1096.1 Q790.706 1096 791.373 1095.86 Q792.076 1095.68 792.427 1095.19 Q792.814 1094.7 792.989 1094.27 Q793.165 1093.82 793.411 1092.8 L803.038 1054.15 Q803.319 1052.99 803.319 1052.82 Q803.319 1052.15 802.897 1051.97 Q802.511 1051.76 801.386 1051.66 L798.646 1051.52 Q797.803 1051.52 797.451 1051.48 Q797.135 1051.45 796.889 1051.27 Q796.643 1051.1 796.643 1050.71 Q796.643 1050.22 796.749 1049.9 Q796.889 1049.55 797.135 1049.44 Q797.381 1049.34 797.557 1049.3 Q797.732 1049.27 798.013 1049.27 L807.289 1049.48 L816.494 1049.27 Q817.513 1049.27 817.513 1050.08 Q817.513 1051.1 817.056 1051.31 Q816.599 1051.52 815.053 1051.52 Q812.489 1051.52 811.294 1051.87 Q810.099 1052.18 809.713 1052.75 Q809.362 1053.31 809.01 1054.82 L804.759 1071.72 L826.718 1071.72 L831.039 1054.15 Q831.32 1052.89 831.32 1052.82 Q831.32 1052.15 830.899 1051.97 Q830.512 1051.76 829.388 1051.66 L826.647 1051.52 Q825.804 1051.52 825.453 1051.48 Q825.137 1051.45 824.856 1051.27 Q824.61 1051.1 824.61 1050.71 Q824.61 1050.22 824.715 1049.9 Q824.856 1049.55 825.101 1049.44 Q825.347 1049.34 825.523 1049.3 Q825.699 1049.27 825.98 1049.27 L835.255 1049.48 L844.495 1049.27 Q845.479 1049.27 845.479 1050.08 Z" fill="#000000" fill-rule="nonzero" fill-opacity="1" /><path clip-path="url(#clip430)" d="M878.915 1067.33 Q878.915 1067.57 878.318 1068.63 Q877.756 1069.65 875.683 1072.21 Q873.61 1074.78 870.518 1077.76 Q869.359 1078.92 867.602 1080.54 Q865.846 1082.15 864.651 1083.21 L863.457 1084.26 Q858.889 1088.13 854.884 1092.45 Q855.165 1092.34 855.657 1092.31 Q856.149 1092.24 856.5 1092.24 L856.851 1092.24 Q858.678 1092.24 861.876 1093.47 Q864.686 1094.38 866.127 1094.38 Q867.532 1094.38 869.078 1093.89 Q870.624 1093.4 872.31 1091.96 Q873.997 1090.52 874.77 1088.34 Q874.91 1087.99 874.98 1087.88 Q875.051 1087.74 875.262 1087.6 Q875.472 1087.42 875.753 1087.42 Q876.14 1087.42 876.386 1087.63 Q876.632 1087.85 876.632 1088.13 Q876.632 1088.76 876.14 1090.02 Q875.683 1091.29 874.664 1092.87 Q873.681 1094.45 872.381 1095.89 Q871.116 1097.3 869.219 1098.28 Q867.321 1099.23 865.319 1099.23 Q863.878 1099.23 862.824 1098.53 Q861.77 1097.86 860.716 1096.56 Q859.276 1094.91 858.503 1094.38 Q857.73 1093.82 856.535 1093.82 Q853.338 1093.82 850.422 1098.28 Q850.106 1098.91 849.895 1099.05 Q849.719 1099.23 849.298 1099.23 Q848.419 1099.19 848.419 1098.49 Q848.419 1098.21 849.192 1096.98 Q850 1095.71 851.792 1093.5 Q853.619 1091.29 855.833 1089.07 L862.297 1083.03 Q869.464 1076.99 872.31 1073.58 Q871.116 1073.58 870.589 1073.55 Q870.097 1073.51 869.113 1073.3 Q868.129 1073.05 866.759 1072.53 Q863.562 1071.44 862.227 1071.44 Q861.876 1071.44 861.489 1071.47 Q861.103 1071.51 860.224 1071.68 Q859.381 1071.86 858.678 1072.21 Q857.976 1072.53 857.238 1073.23 Q856.5 1073.9 856.114 1074.81 Q856.008 1075.09 855.938 1075.23 Q855.868 1075.37 855.657 1075.51 Q855.481 1075.62 855.2 1075.62 Q854.779 1075.62 854.533 1075.37 Q854.322 1075.13 854.322 1074.81 Q854.322 1074.18 854.954 1072.88 Q855.587 1071.58 856.641 1070.17 Q857.695 1068.73 859.416 1067.68 Q861.138 1066.62 863.035 1066.62 Q864.159 1066.62 865.108 1067.12 Q866.092 1067.61 866.584 1068.14 Q867.111 1068.63 867.989 1069.72 Q868.727 1070.56 869.078 1070.91 Q869.429 1071.26 870.132 1071.65 Q870.87 1072 871.678 1072 Q873.013 1072 874.243 1070.98 Q875.472 1069.93 877.053 1067.4 Q877.475 1066.62 878.143 1066.62 Q878.915 1066.62 878.915 1067.33 Z" fill="#000000" fill-rule="nonzero" fill-opacity="1" /><polyline clip-path="url(#clip433)" style="stroke:#000000; stroke-linecap:round; stroke-linejoin:round; stroke-width:2; stroke-opacity:0.25; fill:none" points="295.372,938.366 1152.76,938.366 "/>
<polyline clip-path="url(#clip433)" style="stroke:#000000; stroke-linecap:round; stroke-linejoin:round; stroke-width:2; stroke-opacity:0.25; fill:none" points="295.372,725.634 1152.76,725.634 "/>
<polyline clip-path="url(#clip433)" style="stroke:#000000; stroke-linecap:round; stroke-linejoin:round; stroke-width:2; stroke-opacity:0.25; fill:none" points="295.372,512.903 1152.76,512.903 "/>
<polyline clip-path="url(#clip433)" style="stroke:#000000; stroke-linecap:round; stroke-linejoin:round; stroke-width:2; stroke-opacity:0.25; fill:none" points="295.372,300.171 1152.76,300.171 "/>
<polyline clip-path="url(#clip433)" style="stroke:#000000; stroke-linecap:round; stroke-linejoin:round; stroke-width:2; stroke-opacity:0.25; fill:none" points="295.372,87.4396 1152.76,87.4396 "/>
<polyline clip-path="url(#clip430)" style="stroke:#000000; stroke-linecap:round; stroke-linejoin:round; stroke-width:4; stroke-opacity:1; fill:none" points="295.372,964.321 295.372,47.2441 "/>
<polyline clip-path="url(#clip430)" style="stroke:#000000; stroke-linecap:round; stroke-linejoin:round; stroke-width:4; stroke-opacity:1; fill:none" points="1152.76,964.321 1152.76,47.2441 "/>
<polyline clip-path="url(#clip430)" style="stroke:#000000; stroke-linecap:round; stroke-linejoin:round; stroke-width:4; stroke-opacity:1; fill:none" points="295.372,938.366 314.27,938.366 "/>
<polyline clip-path="url(#clip430)" style="stroke:#000000; stroke-linecap:round; stroke-linejoin:round; stroke-width:4; stroke-opacity:1; fill:none" points="295.372,725.634 314.27,725.634 "/>
<polyline clip-path="url(#clip430)" style="stroke:#000000; stroke-linecap:round; stroke-linejoin:round; stroke-width:4; stroke-opacity:1; fill:none" points="295.372,512.903 314.27,512.903 "/>
<polyline clip-path="url(#clip430)" style="stroke:#000000; stroke-linecap:round; stroke-linejoin:round; stroke-width:4; stroke-opacity:1; fill:none" points="295.372,300.171 314.27,300.171 "/>
<polyline clip-path="url(#clip430)" style="stroke:#000000; stroke-linecap:round; stroke-linejoin:round; stroke-width:4; stroke-opacity:1; fill:none" points="295.372,87.4396 314.27,87.4396 "/>
<g clip-path="url(#clip430)">
<text style="fill:#000000; fill-opacity:1; font-family:Book Antiqua,Palatino,Palatino Linotype,Palatino LT STD,Georgia,serif; font-size:63px; font-weight:bold; text-anchor:middle;" transform="rotate(0, 261.513, 959.866)" x="261.513" y="959.866">0</text>
</g>
<g clip-path="url(#clip430)">
<text style="fill:#000000; fill-opacity:1; font-family:Book Antiqua,Palatino,Palatino Linotype,Palatino LT STD,Georgia,serif; font-size:63px; font-weight:bold; text-anchor:middle;" transform="rotate(0, 213.936, 747.134)" x="213.936" y="747.134">2000</text>
</g>
<g clip-path="url(#clip430)">
<text style="fill:#000000; fill-opacity:1; font-family:Book Antiqua,Palatino,Palatino Linotype,Palatino LT STD,Georgia,serif; font-size:63px; font-weight:bold; text-anchor:middle;" transform="rotate(0, 213.936, 534.403)" x="213.936" y="534.403">4000</text>
</g>
<g clip-path="url(#clip430)">
<text style="fill:#000000; fill-opacity:1; font-family:Book Antiqua,Palatino,Palatino Linotype,Palatino LT STD,Georgia,serif; font-size:63px; font-weight:bold; text-anchor:middle;" transform="rotate(0, 213.936, 321.671)" x="213.936" y="321.671">6000</text>
</g>
<g clip-path="url(#clip430)">
<text style="fill:#000000; fill-opacity:1; font-family:Book Antiqua,Palatino,Palatino Linotype,Palatino LT STD,Georgia,serif; font-size:63px; font-weight:bold; text-anchor:middle;" transform="rotate(0, 213.936, 108.94)" x="213.936" y="108.94">8000</text>
</g>
<path clip-path="url(#clip430)" d="M111.115 554.463 L131.74 554.463 L131.74 560.886 L78.0595 560.886 L78.0595 554.463 L83.9622 554.463 Q80.49 552.449 78.8234 549.393 Q77.122 546.303 77.122 542.032 Q77.122 534.949 82.747 530.539 Q88.3719 526.095 97.5385 526.095 Q106.705 526.095 112.33 530.539 Q117.955 534.949 117.955 542.032 Q117.955 546.303 116.288 549.393 Q114.587 552.449 111.115 554.463 M97.5385 532.727 Q90.49 532.727 86.4969 535.643 Q82.4692 538.525 82.4692 543.595 Q82.4692 548.664 86.4969 551.581 Q90.49 554.463 97.5385 554.463 Q104.587 554.463 108.615 551.581 Q112.608 548.664 112.608 543.595 Q112.608 538.525 108.615 535.643 Q104.587 532.727 97.5385 532.727 Z" fill="#000000" fill-rule="nonzero" fill-opacity="1" /><path clip-path="url(#clip430)" d="M83.9622 489.915 L62.9207 489.915 L62.9207 483.526 L116.948 483.526 L116.948 489.915 L111.115 489.915 Q114.587 491.928 116.288 495.019 Q117.955 498.074 117.955 502.38 Q117.955 509.428 112.33 513.873 Q106.705 518.282 97.5385 518.282 Q88.3719 518.282 82.747 513.873 Q77.122 509.428 77.122 502.38 Q77.122 498.074 78.8234 495.019 Q80.49 491.928 83.9622 489.915 M97.5385 511.685 Q104.587 511.685 108.615 508.803 Q112.608 505.887 112.608 500.817 Q112.608 495.748 108.615 492.831 Q104.587 489.915 97.5385 489.915 Q90.49 489.915 86.4969 492.831 Q82.4692 495.748 82.4692 500.817 Q82.4692 505.887 86.4969 508.803 Q90.49 511.685 97.5385 511.685 Z" fill="#000000" fill-rule="nonzero" fill-opacity="1" /><path clip-path="url(#clip430)" d="M62.9207 450.679 L68.2331 450.679 L68.2331 456.79 Q68.2331 460.227 69.622 461.581 Q71.0109 462.901 74.622 462.901 L78.0595 462.901 L78.0595 452.38 L83.0247 452.38 L83.0247 462.901 L116.948 462.901 L116.948 469.324 L83.0247 469.324 L83.0247 475.435 L78.0595 475.435 L78.0595 469.324 L75.3512 469.324 Q68.8581 469.324 65.9068 466.304 Q62.9207 463.283 62.9207 456.72 L62.9207 450.679 Z" fill="#000000" fill-rule="nonzero" fill-opacity="1" /><path clip-path="url(#clip433)" d="M612.941 938.335 L613.315 938.319 L613.689 938.293 L614.063 938.25 L614.438 938.183 L614.812 938.082 L615.186 937.932 L615.56 937.713 L615.934 937.399 L616.309 936.958 L616.683 936.352 L617.057 935.532 L617.431 934.444 L617.805 933.031 L618.18 931.23 L618.554 928.98 L618.928 926.228 L619.302 922.931 L619.676 919.067 L620.051 914.641 L620.425 909.687 L620.799 904.279 L621.173 898.53 L621.547 892.59 L621.922 886.644 L622.296 880.903 L622.67 875.592 L623.044 870.935 L623.418 867.14 L623.793 864.384 L624.167 862.795 L624.541 862.446 L624.915 863.342 L625.289 865.425 L625.664 868.572 L626.038 872.607 L626.412 877.31 L626.786 882.434 L627.16 887.721 L627.535 892.916 L627.909 897.779 L628.283 902.098 L628.657 905.696 L629.031 908.432 L629.406 910.204 L629.78 910.944 L630.154 910.616 L630.528 909.208 L630.902 906.723 L631.277 903.177 L631.651 898.589 L632.025 892.974 L632.399 886.342 L632.773 878.693 L633.148 870.017 L633.522 860.292 L633.896 849.493 L634.27 837.591 L634.644 824.565 L635.019 810.402 L635.393 795.109 L635.767 778.714 L636.141 761.271 L636.515 742.858 L636.89 723.572 L637.264 703.524 L637.638 682.829 L638.012 661.592 L638.386 639.9 L638.761 617.813 L639.135 595.358 L639.509 572.532 L639.883 549.302 L640.257 525.62 L640.632 501.439 L641.006 476.723 L641.38 451.473 L641.754 425.735 L642.128 399.621 L642.503 373.306 L642.877 347.04 L643.251 321.133 L643.625 295.947 L643.999 271.877 L644.374 249.332 L644.748 228.704 L645.122 210.343 L645.496 194.531 L645.87 181.45 L646.245 171.169 L646.619 163.617 L646.993 158.584 L647.367 155.718 L647.741 154.543 L648.116 154.481 L648.49 154.895 L648.864 155.132 L649.238 154.58 L649.612 152.719 L649.987 149.175 L650.361 143.752 L650.735 136.468 L651.109 127.556 L651.483 117.455 L651.858 106.787 L652.232 96.3089 L652.606 86.8621 L652.98 79.3159 L653.355 74.5093 L653.729 73.1991 L654.103 76.0165 L654.477 83.4353 L654.851 95.7513 L655.226 113.073 L655.6 135.323 L655.974 162.247 L656.348 193.427 L656.722 228.305 L657.097 266.204 L657.471 306.357 L657.845 347.934 L658.219 390.075 L658.593 431.925 L658.968 472.665 L659.342 511.548 L659.716 547.925 L660.09 581.276 L660.464 611.223 L660.839 637.548 L661.213 660.189 L661.587 679.238 L661.961 694.924 L662.335 707.591 L662.71 717.672 L663.084 725.658 L663.458 732.068 L663.832 737.419 L664.206 742.201 L664.581 746.854 L664.955 751.751 L665.329 757.19 L665.703 763.382 L666.077 770.456 L666.452 778.455 L666.826 787.349 L667.2 797.039 L667.574 807.372 L667.948 818.153 L668.323 829.159 L668.697 840.152 L669.071 850.895 L669.445 861.163 L669.819 870.757 L670.194 879.506 L670.568 887.283 L670.942 894.002 L671.316 899.623 L671.69 904.149 L672.065 907.627 L672.439 910.14 L672.813 911.801 L673.187 912.747 L673.561 913.133 L673.936 913.118 L674.31 912.863 L674.684 912.518 L675.058 912.218 L675.432 912.076 L675.807 912.176 L676.181 912.577 L676.555 913.306 L676.929 914.362 L677.303 915.719 L677.678 917.333 L678.052 919.144 L678.426 921.084 L678.8 923.082 L679.174 925.072 L679.549 926.995 L679.923 928.801 L680.297 930.455 L680.671 931.931 L681.045 933.22 L681.42 934.319 L681.794 935.237 L682.168 935.987 L682.542 936.588 L682.916 937.059 L683.291 937.421 L683.665 937.694 L684.039 937.897 L684.413 938.043 L684.787 938.148 L685.162 938.221 L685.536 938.271 L685.91 938.304 L686.284 938.325 L686.658 938.337 L687.033 938.342 L687.407 938.342 L687.407 938.366 L687.033 938.366 L686.658 938.366 L686.284 938.366 L685.91 938.366 L685.536 938.366 L685.162 938.366 L684.787 938.366 L684.413 938.366 L684.039 938.366 L683.665 938.366 L683.291 938.366 L682.916 938.366 L682.542 938.366 L682.168 938.366 L681.794 938.366 L681.42 938.366 L681.045 938.366 L680.671 938.366 L680.297 938.366 L679.923 938.366 L679.549 938.366 L679.174 938.366 L678.8 938.366 L678.426 938.366 L678.052 938.366 L677.678 938.366 L677.303 938.366 L676.929 938.366 L676.555 938.366 L676.181 938.366 L675.807 938.366 L675.432 938.366 L675.058 938.366 L674.684 938.366 L674.31 938.366 L673.936 938.366 L673.561 938.366 L673.187 938.366 L672.813 938.366 L672.439 938.366 L672.065 938.366 L671.69 938.366 L671.316 938.366 L670.942 938.366 L670.568 938.366 L670.194 938.366 L669.819 938.366 L669.445 938.366 L669.071 938.366 L668.697 938.366 L668.323 938.366 L667.948 938.366 L667.574 938.366 L667.2 938.366 L666.826 938.366 L666.452 938.366 L666.077 938.366 L665.703 938.366 L665.329 938.366 L664.955 938.366 L664.581 938.366 L664.206 938.366 L663.832 938.366 L663.458 938.366 L663.084 938.366 L662.71 938.366 L662.335 938.366 L661.961 938.366 L661.587 938.366 L661.213 938.366 L660.839 938.366 L660.464 938.366 L660.09 938.366 L659.716 938.366 L659.342 938.366 L658.968 938.366 L658.593 938.366 L658.219 938.366 L657.845 938.366 L657.471 938.366 L657.097 938.366 L656.722 938.366 L656.348 938.366 L655.974 938.366 L655.6 938.366 L655.226 938.366 L654.851 938.366 L654.477 938.366 L654.103 938.366 L653.729 938.366 L653.355 938.366 L652.98 938.366 L652.606 938.366 L652.232 938.366 L651.858 938.366 L651.483 938.366 L651.109 938.366 L650.735 938.366 L650.361 938.366 L649.987 938.366 L649.612 938.366 L649.238 938.366 L648.864 938.366 L648.49 938.366 L648.116 938.366 L647.741 938.366 L647.367 938.366 L646.993 938.366 L646.619 938.366 L646.245 938.366 L645.87 938.366 L645.496 938.366 L645.122 938.366 L644.748 938.366 L644.374 938.366 L643.999 938.366 L643.625 938.366 L643.251 938.366 L642.877 938.366 L642.503 938.366 L642.128 938.366 L641.754 938.366 L641.38 938.366 L641.006 938.366 L640.632 938.366 L640.257 938.366 L639.883 938.366 L639.509 938.366 L639.135 938.366 L638.761 938.366 L638.386 938.366 L638.012 938.366 L637.638 938.366 L637.264 938.366 L636.89 938.366 L636.515 938.366 L636.141 938.366 L635.767 938.366 L635.393 938.366 L635.019 938.366 L634.644 938.366 L634.27 938.366 L633.896 938.366 L633.522 938.366 L633.148 938.366 L632.773 938.366 L632.399 938.366 L632.025 938.366 L631.651 938.366 L631.277 938.366 L630.902 938.366 L630.528 938.366 L630.154 938.366 L629.78 938.366 L629.406 938.366 L629.031 938.366 L628.657 938.366 L628.283 938.366 L627.909 938.366 L627.535 938.366 L627.16 938.366 L626.786 938.366 L626.412 938.366 L626.038 938.366 L625.664 938.366 L625.289 938.366 L624.915 938.366 L624.541 938.366 L624.167 938.366 L623.793 938.366 L623.418 938.366 L623.044 938.366 L622.67 938.366 L622.296 938.366 L621.922 938.366 L621.547 938.366 L621.173 938.366 L620.799 938.366 L620.425 938.366 L620.051 938.366 L619.676 938.366 L619.302 938.366 L618.928 938.366 L618.554 938.366 L618.18 938.366 L617.805 938.366 L617.431 938.366 L617.057 938.366 L616.683 938.366 L616.309 938.366 L615.934 938.366 L615.56 938.366 L615.186 938.366 L614.812 938.366 L614.438 938.366 L614.063 938.366 L613.689 938.366 L613.315 938.366 L612.941 938.366  Z" fill="#87ceeb" fill-rule="evenodd" fill-opacity="0.25"/>
<polyline clip-path="url(#clip433)" style="stroke:#009af9; stroke-linecap:round; stroke-linejoin:round; stroke-width:8; stroke-opacity:0.75; fill:none" points="612.941,938.335 613.315,938.319 613.689,938.293 614.063,938.25 614.438,938.183 614.812,938.082 615.186,937.932 615.56,937.713 615.934,937.399 616.309,936.958 616.683,936.352 617.057,935.532 617.431,934.444 617.805,933.031 618.18,931.23 618.554,928.98 618.928,926.228 619.302,922.931 619.676,919.067 620.051,914.641 620.425,909.687 620.799,904.279 621.173,898.53 621.547,892.59 621.922,886.644 622.296,880.903 622.67,875.592 623.044,870.935 623.418,867.14 623.793,864.384 624.167,862.795 624.541,862.446 624.915,863.342 625.289,865.425 625.664,868.572 626.038,872.607 626.412,877.31 626.786,882.434 627.16,887.721 627.535,892.916 627.909,897.779 628.283,902.098 628.657,905.696 629.031,908.432 629.406,910.204 629.78,910.944 630.154,910.616 630.528,909.208 630.902,906.723 631.277,903.177 631.651,898.589 632.025,892.974 632.399,886.342 632.773,878.693 633.148,870.017 633.522,860.292 633.896,849.493 634.27,837.591 634.644,824.565 635.019,810.402 635.393,795.109 635.767,778.714 636.141,761.271 636.515,742.858 636.89,723.572 637.264,703.524 637.638,682.829 638.012,661.592 638.386,639.9 638.761,617.813 639.135,595.358 639.509,572.532 639.883,549.302 640.257,525.62 640.632,501.439 641.006,476.723 641.38,451.473 641.754,425.735 642.128,399.621 642.503,373.306 642.877,347.04 643.251,321.133 643.625,295.947 643.999,271.877 644.374,249.332 644.748,228.704 645.122,210.343 645.496,194.531 645.87,181.45 646.245,171.169 646.619,163.617 646.993,158.584 647.367,155.718 647.741,154.543 648.116,154.481 648.49,154.895 648.864,155.132 649.238,154.58 649.612,152.719 649.987,149.175 650.361,143.752 650.735,136.468 651.109,127.556 651.483,117.455 651.858,106.787 652.232,96.3089 652.606,86.8621 652.98,79.3159 653.355,74.5093 653.729,73.1991 654.103,76.0165 654.477,83.4353 654.851,95.7513 655.226,113.073 655.6,135.323 655.974,162.247 656.348,193.427 656.722,228.305 657.097,266.204 657.471,306.357 657.845,347.934 658.219,390.075 658.593,431.925 658.968,472.665 659.342,511.548 659.716,547.925 660.09,581.276 660.464,611.223 660.839,637.548 661.213,660.189 661.587,679.238 661.961,694.924 662.335,707.591 662.71,717.672 663.084,725.658 663.458,732.068 663.832,737.419 664.206,742.201 664.581,746.854 664.955,751.751 665.329,757.19 665.703,763.382 666.077,770.456 666.452,778.455 666.826,787.349 667.2,797.039 667.574,807.372 667.948,818.153 668.323,829.159 668.697,840.152 669.071,850.895 669.445,861.163 669.819,870.757 670.194,879.506 670.568,887.283 670.942,894.002 671.316,899.623 671.69,904.149 672.065,907.627 672.439,910.14 672.813,911.801 673.187,912.747 673.561,913.133 673.936,913.118 674.31,912.863 674.684,912.518 675.058,912.218 675.432,912.076 675.807,912.176 676.181,912.577 676.555,913.306 676.929,914.362 677.303,915.719 677.678,917.333 678.052,919.144 678.426,921.084 678.8,923.082 679.174,925.072 679.549,926.995 679.923,928.801 680.297,930.455 680.671,931.931 681.045,933.22 681.42,934.319 681.794,935.237 682.168,935.987 682.542,936.588 682.916,937.059 683.291,937.421 683.665,937.694 684.039,937.897 684.413,938.043 684.787,938.148 685.162,938.221 685.536,938.271 685.91,938.304 686.284,938.325 686.658,938.337 687.033,938.342 687.407,938.342 "/>
<path clip-path="url(#clip433)" d="M42.3199 938.364 L48.4915 938.364 L54.6631 938.364 L60.8346 938.364 L67.0062 938.363 L73.1778 938.362 L79.3493 938.361 L85.5209 938.359 L91.6925 938.356 L97.864 938.352 L104.036 938.347 L110.207 938.34 L116.379 938.331 L122.55 938.32 L128.722 938.304 L134.893 938.284 L141.065 938.258 L147.237 938.226 L153.408 938.184 L159.58 938.133 L165.751 938.068 L171.923 937.989 L178.094 937.892 L184.266 937.774 L190.438 937.631 L196.609 937.462 L202.781 937.26 L208.952 937.024 L215.124 936.749 L221.295 936.43 L227.467 936.065 L233.639 935.651 L239.81 935.183 L245.982 934.662 L252.153 934.084 L258.325 933.451 L264.496 932.762 L270.668 932.021 L276.839 931.232 L283.011 930.398 L289.183 929.528 L295.354 928.629 L301.526 927.71 L307.697 926.781 L313.869 925.854 L320.04 924.941 L326.212 924.053 L332.384 923.201 L338.555 922.396 L344.727 921.647 L350.898 920.963 L357.07 920.348 L363.241 919.807 L369.413 919.34 L375.585 918.945 L381.756 918.619 L387.928 918.353 L394.099 918.14 L400.271 917.968 L406.442 917.823 L412.614 917.693 L418.786 917.562 L424.957 917.416 L431.129 917.241 L437.3 917.024 L443.472 916.755 L449.643 916.423 L455.815 916.021 L461.987 915.546 L468.158 914.995 L474.33 914.369 L480.501 913.672 L486.673 912.908 L492.844 912.087 L499.016 911.218 L505.187 910.312 L511.359 909.384 L517.531 908.445 L523.702 907.511 L529.874 906.597 L536.045 905.716 L542.217 904.882 L548.388 904.109 L554.56 903.409 L560.732 902.792 L566.903 902.267 L573.075 901.84 L579.246 901.518 L585.418 901.301 L591.589 901.192 L597.761 901.188 L603.933 901.285 L610.104 901.476 L616.276 901.753 L622.447 902.106 L628.619 902.524 L634.79 902.995 L640.962 903.505 L647.134 904.042 L653.305 904.593 L659.477 905.145 L665.648 905.689 L671.82 906.215 L677.991 906.715 L684.163 907.185 L690.335 907.621 L696.506 908.024 L702.678 908.394 L708.849 908.735 L715.021 909.053 L721.192 909.354 L727.364 909.648 L733.535 909.942 L739.707 910.245 L745.879 910.567 L752.05 910.914 L758.222 911.295 L764.393 911.714 L770.565 912.175 L776.736 912.68 L782.908 913.23 L789.08 913.82 L795.251 914.448 L801.423 915.107 L807.594 915.79 L813.766 916.487 L819.937 917.189 L826.109 917.885 L832.281 918.564 L838.452 919.216 L844.624 919.831 L850.795 920.4 L856.967 920.915 L863.138 921.37 L869.31 921.761 L875.482 922.085 L881.653 922.342 L887.825 922.534 L893.996 922.664 L900.168 922.739 L906.339 922.766 L912.511 922.754 L918.682 922.713 L924.854 922.654 L931.026 922.591 L937.197 922.534 L943.369 922.496 L949.54 922.488 L955.712 922.52 L961.883 922.603 L968.055 922.743 L974.227 922.948 L980.398 923.22 L986.57 923.562 L992.741 923.974 L998.913 924.454 L1005.08 924.998 L1011.26 925.599 L1017.43 926.251 L1023.6 926.946 L1029.77 927.672 L1035.94 928.422 L1042.11 929.183 L1048.29 929.947 L1054.46 930.703 L1060.63 931.442 L1066.8 932.157 L1072.97 932.839 L1079.14 933.484 L1085.31 934.087 L1091.49 934.644 L1097.66 935.154 L1103.83 935.616 L1110 936.03 L1116.17 936.397 L1122.34 936.72 L1128.52 937.001 L1134.69 937.243 L1140.86 937.45 L1147.03 937.625 L1153.2 937.771 L1159.37 937.892 L1165.55 937.992 L1171.72 938.073 L1177.89 938.139 L1184.06 938.191 L1190.23 938.232 L1196.4 938.265 L1202.57 938.29 L1208.75 938.309 L1214.92 938.324 L1221.09 938.335 L1227.26 938.344 L1233.43 938.35 L1239.6 938.355 L1245.78 938.358 L1251.95 938.36 L1258.12 938.362 L1264.29 938.363 L1270.46 938.364 L1270.46 938.366 L1264.29 938.366 L1258.12 938.366 L1251.95 938.366 L1245.78 938.366 L1239.6 938.366 L1233.43 938.366 L1227.26 938.366 L1221.09 938.366 L1214.92 938.366 L1208.75 938.366 L1202.57 938.366 L1196.4 938.366 L1190.23 938.366 L1184.06 938.366 L1177.89 938.366 L1171.72 938.366 L1165.55 938.366 L1159.37 938.366 L1153.2 938.366 L1147.03 938.366 L1140.86 938.366 L1134.69 938.366 L1128.52 938.366 L1122.34 938.366 L1116.17 938.366 L1110 938.366 L1103.83 938.366 L1097.66 938.366 L1091.49 938.366 L1085.31 938.366 L1079.14 938.366 L1072.97 938.366 L1066.8 938.366 L1060.63 938.366 L1054.46 938.366 L1048.29 938.366 L1042.11 938.366 L1035.94 938.366 L1029.77 938.366 L1023.6 938.366 L1017.43 938.366 L1011.26 938.366 L1005.08 938.366 L998.913 938.366 L992.741 938.366 L986.57 938.366 L980.398 938.366 L974.227 938.366 L968.055 938.366 L961.883 938.366 L955.712 938.366 L949.54 938.366 L943.369 938.366 L937.197 938.366 L931.026 938.366 L924.854 938.366 L918.682 938.366 L912.511 938.366 L906.339 938.366 L900.168 938.366 L893.996 938.366 L887.825 938.366 L881.653 938.366 L875.482 938.366 L869.31 938.366 L863.138 938.366 L856.967 938.366 L850.795 938.366 L844.624 938.366 L838.452 938.366 L832.281 938.366 L826.109 938.366 L819.937 938.366 L813.766 938.366 L807.594 938.366 L801.423 938.366 L795.251 938.366 L789.08 938.366 L782.908 938.366 L776.736 938.366 L770.565 938.366 L764.393 938.366 L758.222 938.366 L752.05 938.366 L745.879 938.366 L739.707 938.366 L733.535 938.366 L727.364 938.366 L721.192 938.366 L715.021 938.366 L708.849 938.366 L702.678 938.366 L696.506 938.366 L690.335 938.366 L684.163 938.366 L677.991 938.366 L671.82 938.366 L665.648 938.366 L659.477 938.366 L653.305 938.366 L647.134 938.366 L640.962 938.366 L634.79 938.366 L628.619 938.366 L622.447 938.366 L616.276 938.366 L610.104 938.366 L603.933 938.366 L597.761 938.366 L591.589 938.366 L585.418 938.366 L579.246 938.366 L573.075 938.366 L566.903 938.366 L560.732 938.366 L554.56 938.366 L548.388 938.366 L542.217 938.366 L536.045 938.366 L529.874 938.366 L523.702 938.366 L517.531 938.366 L511.359 938.366 L505.187 938.366 L499.016 938.366 L492.844 938.366 L486.673 938.366 L480.501 938.366 L474.33 938.366 L468.158 938.366 L461.987 938.366 L455.815 938.366 L449.643 938.366 L443.472 938.366 L437.3 938.366 L431.129 938.366 L424.957 938.366 L418.786 938.366 L412.614 938.366 L406.442 938.366 L400.271 938.366 L394.099 938.366 L387.928 938.366 L381.756 938.366 L375.585 938.366 L369.413 938.366 L363.241 938.366 L357.07 938.366 L350.898 938.366 L344.727 938.366 L338.555 938.366 L332.384 938.366 L326.212 938.366 L320.04 938.366 L313.869 938.366 L307.697 938.366 L301.526 938.366 L295.354 938.366 L289.183 938.366 L283.011 938.366 L276.839 938.366 L270.668 938.366 L264.496 938.366 L258.325 938.366 L252.153 938.366 L245.982 938.366 L239.81 938.366 L233.639 938.366 L227.467 938.366 L221.295 938.366 L215.124 938.366 L208.952 938.366 L202.781 938.366 L196.609 938.366 L190.438 938.366 L184.266 938.366 L178.094 938.366 L171.923 938.366 L165.751 938.366 L159.58 938.366 L153.408 938.366 L147.237 938.366 L141.065 938.366 L134.893 938.366 L128.722 938.366 L122.55 938.366 L116.379 938.366 L110.207 938.366 L104.036 938.366 L97.864 938.366 L91.6925 938.366 L85.5209 938.366 L79.3493 938.366 L73.1778 938.366 L67.0062 938.366 L60.8346 938.366 L54.6631 938.366 L48.4915 938.366 L42.3199 938.366  Z" fill="#ffa500" fill-rule="evenodd" fill-opacity="0.5"/>
<polyline clip-path="url(#clip433)" style="stroke:#e26f46; stroke-linecap:round; stroke-linejoin:round; stroke-width:8; stroke-opacity:1; fill:none" points="42.3199,938.364 48.4915,938.364 54.6631,938.364 60.8346,938.364 67.0062,938.363 73.1778,938.362 79.3493,938.361 85.5209,938.359 91.6925,938.356 97.864,938.352 104.036,938.347 110.207,938.34 116.379,938.331 122.55,938.32 128.722,938.304 134.893,938.284 141.065,938.258 147.237,938.226 153.408,938.184 159.58,938.133 165.751,938.068 171.923,937.989 178.094,937.892 184.266,937.774 190.438,937.631 196.609,937.462 202.781,937.26 208.952,937.024 215.124,936.749 221.295,936.43 227.467,936.065 233.639,935.651 239.81,935.183 245.982,934.662 252.153,934.084 258.325,933.451 264.496,932.762 270.668,932.021 276.839,931.232 283.011,930.398 289.183,929.528 295.354,928.629 301.526,927.71 307.697,926.781 313.869,925.854 320.04,924.941 326.212,924.053 332.384,923.201 338.555,922.396 344.727,921.647 350.898,920.963 357.07,920.348 363.241,919.807 369.413,919.34 375.585,918.945 381.756,918.619 387.928,918.353 394.099,918.14 400.271,917.968 406.442,917.823 412.614,917.693 418.786,917.562 424.957,917.416 431.129,917.241 437.3,917.024 443.472,916.755 449.643,916.423 455.815,916.021 461.987,915.546 468.158,914.995 474.33,914.369 480.501,913.672 486.673,912.908 492.844,912.087 499.016,911.218 505.187,910.312 511.359,909.384 517.531,908.445 523.702,907.511 529.874,906.597 536.045,905.716 542.217,904.882 548.388,904.109 554.56,903.409 560.732,902.792 566.903,902.267 573.075,901.84 579.246,901.518 585.418,901.301 591.589,901.192 597.761,901.188 603.933,901.285 610.104,901.476 616.276,901.753 622.447,902.106 628.619,902.524 634.79,902.995 640.962,903.505 647.134,904.042 653.305,904.593 659.477,905.145 665.648,905.689 671.82,906.215 677.991,906.715 684.163,907.185 690.335,907.621 696.506,908.024 702.678,908.394 708.849,908.735 715.021,909.053 721.192,909.354 727.364,909.648 733.535,909.942 739.707,910.245 745.879,910.567 752.05,910.914 758.222,911.295 764.393,911.714 770.565,912.175 776.736,912.68 782.908,913.23 789.08,913.82 795.251,914.448 801.423,915.107 807.594,915.79 813.766,916.487 819.937,917.189 826.109,917.885 832.281,918.564 838.452,919.216 844.624,919.831 850.795,920.4 856.967,920.915 863.138,921.37 869.31,921.761 875.482,922.085 881.653,922.342 887.825,922.534 893.996,922.664 900.168,922.739 906.339,922.766 912.511,922.754 918.682,922.713 924.854,922.654 931.026,922.591 937.197,922.534 943.369,922.496 949.54,922.488 955.712,922.52 961.883,922.603 968.055,922.743 974.227,922.948 980.398,923.22 986.57,923.562 992.741,923.974 998.913,924.454 1005.08,924.998 1011.26,925.599 1017.43,926.251 1023.6,926.946 1029.77,927.672 1035.94,928.422 1042.11,929.183 1048.29,929.947 1054.46,930.703 1060.63,931.442 1066.8,932.157 1072.97,932.839 1079.14,933.484 1085.31,934.087 1091.49,934.644 1097.66,935.154 1103.83,935.616 1110,936.03 1116.17,936.397 1122.34,936.72 1128.52,937.001 1134.69,937.243 1140.86,937.45 1147.03,937.625 1153.2,937.771 1159.37,937.892 1165.55,937.992 1171.72,938.073 1177.89,938.139 1184.06,938.191 1190.23,938.232 1196.4,938.265 1202.57,938.29 1208.75,938.309 1214.92,938.324 1221.09,938.335 1227.26,938.344 1233.43,938.35 1239.6,938.355 1245.78,938.358 1251.95,938.36 1258.12,938.362 1264.29,938.363 1270.46,938.364 "/>
<path clip-path="url(#clip430)" d="M469.472 282.514 L1124.18 282.514 L1124.18 77.8133 L469.472 77.8133  Z" fill="#ffffff" fill-rule="evenodd" fill-opacity="1"/>
<polyline clip-path="url(#clip430)" style="stroke:#000000; stroke-linecap:round; stroke-linejoin:round; stroke-width:4; stroke-opacity:1; fill:none" points="469.472,282.514 1124.18,282.514 1124.18,77.8133 469.472,77.8133 469.472,282.514 "/>
<path clip-path="url(#clip430)" d="M478.998 173.34 L536.157 173.34 L536.157 118.753 L478.998 118.753 L478.998 173.34  Z" fill="#87ceeb" fill-rule="evenodd" fill-opacity="0.25"/>
<polyline clip-path="url(#clip430)" style="stroke:#009af9; stroke-linecap:round; stroke-linejoin:round; stroke-width:10; stroke-opacity:0.75; fill:none" points="478.998,118.753 536.157,118.753 "/>
<g clip-path="url(#clip430)">
<text style="fill:#000000; fill-opacity:1; font-family:Book Antiqua,Palatino,Palatino Linotype,Palatino LT STD,Georgia,serif; font-size:62px; text-anchor:start;" transform="rotate(0, 545.683, 167.547)" x="545.683" y="167.547">Residual 1: N(0,0.01)</text>
</g>
<path clip-path="url(#clip430)" d="M478.998 241.574 L536.157 241.574 L536.157 186.987 L478.998 186.987 L478.998 241.574  Z" fill="#ffa500" fill-rule="evenodd" fill-opacity="0.5"/>
<polyline clip-path="url(#clip430)" style="stroke:#e26f46; stroke-linecap:round; stroke-linejoin:round; stroke-width:10; stroke-opacity:1; fill:none" points="478.998,186.987 536.157,186.987 "/>
<g clip-path="url(#clip430)">
<text style="fill:#000000; fill-opacity:1; font-family:Book Antiqua,Palatino,Palatino Linotype,Palatino LT STD,Georgia,serif; font-size:62px; text-anchor:start;" transform="rotate(0, 545.683, 235.78)" x="545.683" y="235.78">Residual 2: N(0,0.10)</text>
</g>
</svg>
