<?xml version="1.0" encoding="utf-8"?>
<svg xmlns="http://www.w3.org/2000/svg" xmlns:xlink="http://www.w3.org/1999/xlink" width="400" height="300" viewBox="0 0 1600 1200">
<defs>
  <clipPath id="clip220">
    <rect x="0" y="0" width="1600" height="1200"/>
  </clipPath>
</defs>
<path clip-path="url(#clip220)" d="M0 1200 L1600 1200 L1600 0 L0 0  Z" fill="#ffffff" fill-rule="evenodd" fill-opacity="1"/>
<defs>
  <clipPath id="clip221">
    <rect x="320" y="0" width="1121" height="1121"/>
  </clipPath>
</defs>
<defs>
  <clipPath id="clip222">
    <rect x="275" y="47" width="1279" height="956"/>
  </clipPath>
</defs>
<path clip-path="url(#clip220)" d="M340.219 1076.41 L1552.76 1076.41 L1552.76 47.2441 L340.219 47.2441  Z" fill="#ffffff" fill-rule="evenodd" fill-opacity="1"/>
<defs>
  <clipPath id="clip223">
    <rect x="340" y="47" width="1214" height="1030"/>
  </clipPath>
</defs>
<polyline clip-path="url(#clip223)" style="stroke:#000000; stroke-linecap:round; stroke-linejoin:round; stroke-width:2; stroke-opacity:0.1; fill:none" points="565.187,1076.41 565.187,47.2441 "/>
<polyline clip-path="url(#clip223)" style="stroke:#000000; stroke-linecap:round; stroke-linejoin:round; stroke-width:2; stroke-opacity:0.1; fill:none" points="1327.79,1076.41 1327.79,47.2441 "/>
<polyline clip-path="url(#clip220)" style="stroke:#000000; stroke-linecap:round; stroke-linejoin:round; stroke-width:4; stroke-opacity:1; fill:none" points="340.219,1076.41 1552.76,1076.41 "/>
<polyline clip-path="url(#clip220)" style="stroke:#000000; stroke-linecap:round; stroke-linejoin:round; stroke-width:4; stroke-opacity:1; fill:none" points="340.219,47.2441 1552.76,47.2441 "/>
<polyline clip-path="url(#clip220)" style="stroke:#000000; stroke-linecap:round; stroke-linejoin:round; stroke-width:4; stroke-opacity:1; fill:none" points="565.187,1076.41 565.187,1057.51 "/>
<polyline clip-path="url(#clip220)" style="stroke:#000000; stroke-linecap:round; stroke-linejoin:round; stroke-width:4; stroke-opacity:1; fill:none" points="1327.79,1076.41 1327.79,1057.51 "/>
<path clip-path="url(#clip220)" d="M516.503 1128.35 Q516.503 1130.95 515.244 1133.5 Q513.985 1136.05 511.731 1138.1 Q509.476 1140.12 505.992 1141.38 Q502.537 1142.64 498.497 1142.64 Q492.993 1142.64 488.455 1141.05 Q483.917 1139.44 480.842 1136.63 Q477.768 1133.82 476.07 1129.93 Q474.401 1126.01 474.401 1121.41 Q474.401 1116.81 476.07 1112.92 Q477.768 1108.99 480.842 1106.18 Q483.917 1103.37 488.455 1101.79 Q492.993 1100.18 498.497 1100.18 Q505.26 1100.18 510.325 1104.25 L514.278 1100.71 Q514.893 1100.18 515.42 1100.18 Q516.181 1100.18 516.327 1100.53 Q516.503 1100.86 516.503 1101.85 L516.503 1114.73 Q516.503 1115.9 516.24 1116.17 Q516.005 1116.43 514.864 1116.43 Q513.839 1116.43 513.605 1116.26 Q513.4 1116.05 513.253 1115.17 Q512.287 1109.58 508.51 1106.3 Q504.733 1102.99 499.756 1102.99 Q492.085 1102.99 487.547 1107.59 Q483.565 1111.75 483.565 1121.41 Q483.565 1125.8 484.326 1129.05 Q485.117 1132.27 487.108 1134.7 Q489.304 1137.31 492.729 1138.57 Q496.155 1139.8 499.961 1139.8 Q501.835 1139.8 503.679 1139.36 Q505.524 1138.92 507.28 1137.98 Q509.066 1137.04 510.413 1135.7 Q511.789 1134.35 512.668 1132.39 Q513.575 1130.43 513.692 1128.11 Q513.722 1127.41 514.014 1127.26 Q514.336 1127.09 515.068 1127.09 Q515.918 1127.09 516.21 1127.29 Q516.503 1127.5 516.503 1128.35 Z" fill="#000000" fill-rule="nonzero" fill-opacity="1" /><path clip-path="url(#clip220)" d="M560.087 1140.53 Q560.087 1141.05 559.969 1141.38 Q559.852 1141.67 559.53 1141.79 Q559.237 1141.9 558.974 1141.93 Q558.71 1141.96 558.154 1141.96 L555.285 1141.96 Q553.499 1141.96 552.24 1141.64 Q551.01 1141.29 550.395 1140.88 Q549.781 1140.47 549.459 1139.74 Q549.137 1139 549.078 1138.57 Q549.049 1138.1 549.049 1137.34 Q547.936 1139.47 545.682 1140.91 Q543.457 1142.31 540.119 1142.31 Q538.714 1142.31 537.308 1142.17 Q535.903 1142.02 534.263 1141.58 Q532.624 1141.11 531.394 1140.41 Q530.164 1139.68 529.345 1138.42 Q528.525 1137.13 528.525 1135.49 Q528.525 1126.88 548.024 1126.06 L548.024 1124.04 Q548.024 1116.96 541.436 1116.96 Q539.036 1116.96 537.103 1117.37 Q537.279 1117.49 537.542 1117.78 Q537.806 1118.07 538.099 1118.8 Q538.421 1119.54 538.421 1120.33 Q538.421 1122.11 537.279 1123.11 Q536.166 1124.1 534.644 1124.1 Q533.239 1124.1 532.067 1123.14 Q530.926 1122.14 530.926 1120.33 Q530.926 1114.79 541.671 1114.79 Q548.141 1114.79 551.479 1117.34 Q554.846 1119.86 554.846 1124.04 L554.846 1136.93 Q554.846 1137.57 554.904 1137.86 Q554.963 1138.16 555.285 1138.51 Q555.607 1138.86 556.368 1139 Q557.159 1139.12 558.505 1139.15 Q559.032 1139.15 559.296 1139.21 Q559.559 1139.24 559.823 1139.56 Q560.087 1139.88 560.087 1140.53 M548.024 1133.62 L548.024 1127.94 Q546.999 1128 546.033 1128.11 Q545.067 1128.23 543.486 1128.52 Q541.905 1128.79 540.617 1129.34 Q539.358 1129.87 538.128 1130.66 Q536.928 1131.42 536.225 1132.65 Q535.551 1133.88 535.551 1135.43 Q535.551 1137.42 537.133 1138.8 Q538.714 1140.18 540.997 1140.18 Q541.583 1140.18 542.315 1140.06 Q543.047 1139.94 544.101 1139.53 Q545.155 1139.09 545.974 1138.42 Q546.824 1137.75 547.409 1136.52 Q548.024 1135.26 548.024 1133.62 Z" fill="#000000" fill-rule="nonzero" fill-opacity="1" /><path clip-path="url(#clip220)" d="M584.3 1133.56 Q584.3 1135.35 583.743 1136.81 Q583.216 1138.24 582.426 1139.15 Q581.665 1140.03 580.494 1140.67 Q579.322 1141.32 578.356 1141.64 Q577.419 1141.93 576.19 1142.11 Q574.96 1142.28 574.404 1142.28 Q573.877 1142.31 573.203 1142.31 Q568.841 1142.31 566.118 1140.41 L564.566 1141.44 Q563.688 1142.05 563.395 1142.17 Q563.132 1142.31 562.78 1142.31 Q562.019 1142.31 561.843 1141.96 Q561.697 1141.64 561.697 1140.64 L561.697 1134.12 Q561.697 1133 561.902 1132.68 Q562.107 1132.36 563.132 1132.36 Q563.629 1132.36 563.834 1132.39 Q564.039 1132.42 564.215 1132.62 Q564.42 1132.8 564.566 1133.21 Q564.859 1134.2 565.123 1134.96 Q565.415 1135.7 566.089 1136.75 Q566.762 1137.8 567.611 1138.51 Q568.49 1139.18 569.924 1139.68 Q571.388 1140.18 573.203 1140.18 Q573.76 1140.18 574.17 1140.15 Q574.609 1140.12 575.516 1140.03 Q576.453 1139.91 577.127 1139.62 Q577.829 1139.3 578.532 1138.86 Q579.264 1138.39 579.645 1137.57 Q580.054 1136.75 580.054 1135.67 Q580.054 1134.67 579.527 1133.88 Q579.03 1133.06 578.356 1132.59 Q577.683 1132.12 576.629 1131.77 Q575.575 1131.39 574.931 1131.28 Q574.287 1131.13 573.379 1130.98 Q568.695 1130.13 567.318 1129.61 Q565.533 1128.96 564.098 1127.7 Q561.697 1125.65 561.697 1122.67 Q561.697 1121.06 562.224 1119.77 Q562.78 1118.48 563.542 1117.69 Q564.332 1116.87 565.503 1116.29 Q566.674 1115.7 567.611 1115.44 Q568.577 1115.14 569.778 1115 Q571.008 1114.82 571.535 1114.82 Q572.091 1114.79 572.735 1114.79 Q576.541 1114.79 578.795 1115.93 Q581.138 1114.79 581.489 1114.79 Q582.016 1114.79 582.25 1115.03 Q582.484 1115.23 582.514 1115.52 Q582.572 1115.79 582.572 1116.49 L582.572 1121.26 Q582.572 1122.38 582.338 1122.67 Q582.133 1122.96 581.108 1122.96 Q580.23 1122.96 579.996 1122.73 Q579.791 1122.49 579.732 1121.76 Q579.293 1116.72 572.676 1116.72 Q572.266 1116.72 571.915 1116.75 Q571.593 1116.75 570.832 1116.84 Q570.1 1116.9 569.514 1117.02 Q568.958 1117.13 568.226 1117.43 Q567.523 1117.69 567.055 1118.07 Q566.587 1118.45 566.264 1119.07 Q565.942 1119.68 565.942 1120.44 Q565.942 1121.03 566.177 1121.53 Q566.44 1122.02 566.733 1122.38 Q567.055 1122.73 567.67 1123.05 Q568.285 1123.34 568.695 1123.52 Q569.134 1123.69 569.895 1123.9 Q570.656 1124.07 570.978 1124.13 Q571.33 1124.19 572.062 1124.34 Q575.985 1125.01 577.654 1125.51 Q579.352 1126.01 580.991 1127.21 Q584.3 1129.81 584.3 1133.56 Z" fill="#000000" fill-rule="nonzero" fill-opacity="1" /><path clip-path="url(#clip220)" d="M616.092 1134.94 Q616.092 1135.32 615.77 1136.11 Q615.448 1136.87 614.54 1137.98 Q613.662 1139.06 612.374 1140.03 Q611.115 1140.97 608.89 1141.64 Q606.694 1142.31 604.03 1142.31 Q596.886 1142.31 592.64 1138.45 Q588.395 1134.58 588.395 1128.46 Q588.395 1125.62 589.361 1123.17 Q590.357 1120.71 592.172 1118.83 Q593.987 1116.96 596.827 1115.88 Q599.667 1114.79 603.181 1114.79 Q609.387 1114.79 612.725 1118.04 Q614.101 1119.42 614.892 1121.41 Q615.712 1123.37 615.887 1124.69 Q616.092 1126.01 616.092 1127.26 Q616.092 1128.38 615.682 1128.64 Q615.302 1128.9 614.16 1128.9 L596.066 1128.9 Q596.066 1129.87 596.066 1130.51 Q596.095 1131.13 596.271 1132.39 Q596.447 1133.65 596.739 1134.55 Q597.032 1135.43 597.647 1136.52 Q598.291 1137.6 599.169 1138.3 Q600.048 1138.98 601.424 1139.44 Q602.8 1139.91 604.557 1139.91 Q607.484 1139.91 609.827 1138.6 Q612.198 1137.28 613.135 1135.14 Q613.428 1134.35 613.662 1134.12 Q613.926 1133.88 614.658 1133.88 Q616.092 1133.88 616.092 1134.94 M610.383 1126.91 Q610.119 1116.96 603.181 1116.96 Q601.658 1116.96 600.106 1117.69 Q598.555 1118.42 597.501 1120.06 Q596.915 1121 596.593 1122.35 Q596.271 1123.66 596.212 1124.42 Q596.154 1125.16 596.066 1126.91 L610.383 1126.91 Z" fill="#000000" fill-rule="nonzero" fill-opacity="1" /><path clip-path="url(#clip220)" d="M646.378 1141.96 Q643.743 1141.79 634.432 1141.79 Q625.151 1141.79 622.516 1141.96 L622.516 1139.15 L630.831 1139.15 L630.831 1108.15 Q627.113 1109.35 623.043 1109.35 L621.843 1109.35 L621.843 1106.54 L623.043 1106.54 Q630.48 1106.54 635.106 1103.11 Q635.486 1102.82 635.691 1102.76 Q635.896 1102.7 636.423 1102.7 Q637.506 1102.7 637.741 1103.08 Q637.975 1103.46 637.975 1104.6 L637.975 1139.15 L646.378 1139.15 L646.378 1141.96 Z" fill="#000000" fill-rule="nonzero" fill-opacity="1" /><path clip-path="url(#clip220)" d="M1280.18 1128.35 Q1280.18 1130.95 1278.93 1133.5 Q1277.67 1136.05 1275.41 1138.1 Q1273.16 1140.12 1269.67 1141.38 Q1266.22 1142.64 1262.18 1142.64 Q1256.67 1142.64 1252.14 1141.05 Q1247.6 1139.44 1244.52 1136.63 Q1241.45 1133.82 1239.75 1129.93 Q1238.08 1126.01 1238.08 1121.41 Q1238.08 1116.81 1239.75 1112.92 Q1241.45 1108.99 1244.52 1106.18 Q1247.6 1103.37 1252.14 1101.79 Q1256.67 1100.18 1262.18 1100.18 Q1268.94 1100.18 1274.01 1104.25 L1277.96 1100.71 Q1278.57 1100.18 1279.1 1100.18 Q1279.86 1100.18 1280.01 1100.53 Q1280.18 1100.86 1280.18 1101.85 L1280.18 1114.73 Q1280.18 1115.9 1279.92 1116.17 Q1279.69 1116.43 1278.55 1116.43 Q1277.52 1116.43 1277.29 1116.26 Q1277.08 1116.05 1276.94 1115.17 Q1275.97 1109.58 1272.19 1106.3 Q1268.42 1102.99 1263.44 1102.99 Q1255.77 1102.99 1251.23 1107.59 Q1247.25 1111.75 1247.25 1121.41 Q1247.25 1125.8 1248.01 1129.05 Q1248.8 1132.27 1250.79 1134.7 Q1252.99 1137.31 1256.41 1138.57 Q1259.84 1139.8 1263.64 1139.8 Q1265.52 1139.8 1267.36 1139.36 Q1269.21 1138.92 1270.96 1137.98 Q1272.75 1137.04 1274.1 1135.7 Q1275.47 1134.35 1276.35 1132.39 Q1277.26 1130.43 1277.37 1128.11 Q1277.4 1127.41 1277.7 1127.26 Q1278.02 1127.09 1278.75 1127.09 Q1279.6 1127.09 1279.89 1127.29 Q1280.18 1127.5 1280.18 1128.35 Z" fill="#000000" fill-rule="nonzero" fill-opacity="1" /><path clip-path="url(#clip220)" d="M1323.77 1140.53 Q1323.77 1141.05 1323.65 1141.38 Q1323.53 1141.67 1323.21 1141.79 Q1322.92 1141.9 1322.66 1141.93 Q1322.39 1141.96 1321.84 1141.96 L1318.97 1141.96 Q1317.18 1141.96 1315.92 1141.64 Q1314.69 1141.29 1314.08 1140.88 Q1313.46 1140.47 1313.14 1139.74 Q1312.82 1139 1312.76 1138.57 Q1312.73 1138.1 1312.73 1137.34 Q1311.62 1139.47 1309.36 1140.91 Q1307.14 1142.31 1303.8 1142.31 Q1302.4 1142.31 1300.99 1142.17 Q1299.58 1142.02 1297.95 1141.58 Q1296.31 1141.11 1295.08 1140.41 Q1293.85 1139.68 1293.03 1138.42 Q1292.21 1137.13 1292.21 1135.49 Q1292.21 1126.88 1311.71 1126.06 L1311.71 1124.04 Q1311.71 1116.96 1305.12 1116.96 Q1302.72 1116.96 1300.79 1117.37 Q1300.96 1117.49 1301.22 1117.78 Q1301.49 1118.07 1301.78 1118.8 Q1302.1 1119.54 1302.1 1120.33 Q1302.1 1122.11 1300.96 1123.11 Q1299.85 1124.1 1298.33 1124.1 Q1296.92 1124.1 1295.75 1123.14 Q1294.61 1122.14 1294.61 1120.33 Q1294.61 1114.79 1305.35 1114.79 Q1311.82 1114.79 1315.16 1117.34 Q1318.53 1119.86 1318.53 1124.04 L1318.53 1136.93 Q1318.53 1137.57 1318.59 1137.86 Q1318.64 1138.16 1318.97 1138.51 Q1319.29 1138.86 1320.05 1139 Q1320.84 1139.12 1322.19 1139.15 Q1322.71 1139.15 1322.98 1139.21 Q1323.24 1139.24 1323.5 1139.56 Q1323.77 1139.88 1323.77 1140.53 M1311.71 1133.62 L1311.71 1127.94 Q1310.68 1128 1309.71 1128.11 Q1308.75 1128.23 1307.17 1128.52 Q1305.59 1128.79 1304.3 1129.34 Q1303.04 1129.87 1301.81 1130.66 Q1300.61 1131.42 1299.91 1132.65 Q1299.23 1133.88 1299.23 1135.43 Q1299.23 1137.42 1300.81 1138.8 Q1302.4 1140.18 1304.68 1140.18 Q1305.26 1140.18 1306 1140.06 Q1306.73 1139.94 1307.78 1139.53 Q1308.84 1139.09 1309.66 1138.42 Q1310.51 1137.75 1311.09 1136.52 Q1311.71 1135.26 1311.71 1133.62 Z" fill="#000000" fill-rule="nonzero" fill-opacity="1" /><path clip-path="url(#clip220)" d="M1347.98 1133.56 Q1347.98 1135.35 1347.43 1136.81 Q1346.9 1138.24 1346.11 1139.15 Q1345.35 1140.03 1344.18 1140.67 Q1343 1141.32 1342.04 1141.64 Q1341.1 1141.93 1339.87 1142.11 Q1338.64 1142.28 1338.09 1142.28 Q1337.56 1142.31 1336.89 1142.31 Q1332.52 1142.31 1329.8 1140.41 L1328.25 1141.44 Q1327.37 1142.05 1327.08 1142.17 Q1326.81 1142.31 1326.46 1142.31 Q1325.7 1142.31 1325.53 1141.96 Q1325.38 1141.64 1325.38 1140.64 L1325.38 1134.12 Q1325.38 1133 1325.58 1132.68 Q1325.79 1132.36 1326.81 1132.36 Q1327.31 1132.36 1327.52 1132.39 Q1327.72 1132.42 1327.9 1132.62 Q1328.1 1132.8 1328.25 1133.21 Q1328.54 1134.2 1328.8 1134.96 Q1329.1 1135.7 1329.77 1136.75 Q1330.44 1137.8 1331.29 1138.51 Q1332.17 1139.18 1333.61 1139.68 Q1335.07 1140.18 1336.89 1140.18 Q1337.44 1140.18 1337.85 1140.15 Q1338.29 1140.12 1339.2 1140.03 Q1340.14 1139.91 1340.81 1139.62 Q1341.51 1139.3 1342.21 1138.86 Q1342.95 1138.39 1343.33 1137.57 Q1343.74 1136.75 1343.74 1135.67 Q1343.74 1134.67 1343.21 1133.88 Q1342.71 1133.06 1342.04 1132.59 Q1341.36 1132.12 1340.31 1131.77 Q1339.26 1131.39 1338.61 1131.28 Q1337.97 1131.13 1337.06 1130.98 Q1332.38 1130.13 1331 1129.61 Q1329.21 1128.96 1327.78 1127.7 Q1325.38 1125.65 1325.38 1122.67 Q1325.38 1121.06 1325.91 1119.77 Q1326.46 1118.48 1327.22 1117.69 Q1328.01 1116.87 1329.19 1116.29 Q1330.36 1115.7 1331.29 1115.44 Q1332.26 1115.14 1333.46 1115 Q1334.69 1114.82 1335.22 1114.82 Q1335.77 1114.79 1336.42 1114.79 Q1340.22 1114.79 1342.48 1115.93 Q1344.82 1114.79 1345.17 1114.79 Q1345.7 1114.79 1345.93 1115.03 Q1346.17 1115.23 1346.2 1115.52 Q1346.25 1115.79 1346.25 1116.49 L1346.25 1121.26 Q1346.25 1122.38 1346.02 1122.67 Q1345.81 1122.96 1344.79 1122.96 Q1343.91 1122.96 1343.68 1122.73 Q1343.47 1122.49 1343.41 1121.76 Q1342.98 1116.72 1336.36 1116.72 Q1335.95 1116.72 1335.6 1116.75 Q1335.27 1116.75 1334.51 1116.84 Q1333.78 1116.9 1333.2 1117.02 Q1332.64 1117.13 1331.91 1117.43 Q1331.21 1117.69 1330.74 1118.07 Q1330.27 1118.45 1329.95 1119.07 Q1329.62 1119.68 1329.62 1120.44 Q1329.62 1121.03 1329.86 1121.53 Q1330.12 1122.02 1330.41 1122.38 Q1330.74 1122.73 1331.35 1123.05 Q1331.97 1123.34 1332.38 1123.52 Q1332.82 1123.69 1333.58 1123.9 Q1334.34 1124.07 1334.66 1124.13 Q1335.01 1124.19 1335.74 1124.34 Q1339.67 1125.01 1341.34 1125.51 Q1343.03 1126.01 1344.67 1127.21 Q1347.98 1129.81 1347.98 1133.56 Z" fill="#000000" fill-rule="nonzero" fill-opacity="1" /><path clip-path="url(#clip220)" d="M1379.77 1134.94 Q1379.77 1135.32 1379.45 1136.11 Q1379.13 1136.87 1378.22 1137.98 Q1377.34 1139.06 1376.06 1140.03 Q1374.8 1140.97 1372.57 1141.64 Q1370.38 1142.31 1367.71 1142.31 Q1360.57 1142.31 1356.32 1138.45 Q1352.08 1134.58 1352.08 1128.46 Q1352.08 1125.62 1353.04 1123.17 Q1354.04 1120.71 1355.85 1118.83 Q1357.67 1116.96 1360.51 1115.88 Q1363.35 1114.79 1366.86 1114.79 Q1373.07 1114.79 1376.41 1118.04 Q1377.78 1119.42 1378.57 1121.41 Q1379.39 1123.37 1379.57 1124.69 Q1379.77 1126.01 1379.77 1127.26 Q1379.77 1128.38 1379.36 1128.64 Q1378.98 1128.9 1377.84 1128.9 L1359.75 1128.9 Q1359.75 1129.87 1359.75 1130.51 Q1359.78 1131.13 1359.95 1132.39 Q1360.13 1133.65 1360.42 1134.55 Q1360.71 1135.43 1361.33 1136.52 Q1361.97 1137.6 1362.85 1138.3 Q1363.73 1138.98 1365.11 1139.44 Q1366.48 1139.91 1368.24 1139.91 Q1371.17 1139.91 1373.51 1138.6 Q1375.88 1137.28 1376.82 1135.14 Q1377.11 1134.35 1377.34 1134.12 Q1377.61 1133.88 1378.34 1133.88 Q1379.77 1133.88 1379.77 1134.94 M1374.06 1126.91 Q1373.8 1116.96 1366.86 1116.96 Q1365.34 1116.96 1363.79 1117.69 Q1362.24 1118.42 1361.18 1120.06 Q1360.6 1121 1360.27 1122.35 Q1359.95 1123.66 1359.89 1124.42 Q1359.84 1125.16 1359.75 1126.91 L1374.06 1126.91 Z" fill="#000000" fill-rule="nonzero" fill-opacity="1" /><path clip-path="url(#clip220)" d="M1410.94 1128.64 L1409.07 1141.96 L1383.36 1141.96 L1383.36 1140.88 Q1383.36 1139.94 1383.45 1139.68 Q1383.57 1139.39 1384.13 1138.86 L1396.19 1126.56 Q1402.66 1120 1402.66 1114.09 Q1402.66 1110.52 1400.55 1108.03 Q1398.44 1105.51 1394.75 1105.51 Q1391.06 1105.51 1388.58 1107.59 Q1389.04 1107.71 1389.51 1107.94 Q1389.98 1108.18 1390.6 1108.67 Q1391.21 1109.14 1391.59 1109.99 Q1392 1110.84 1392 1111.92 Q1392 1114 1390.65 1115.11 Q1389.34 1116.23 1387.67 1116.23 Q1387.05 1116.23 1386.38 1116.02 Q1385.71 1115.82 1384.97 1115.38 Q1384.27 1114.91 1383.8 1114 Q1383.36 1113.06 1383.36 1111.81 Q1383.36 1107.82 1387.05 1105.28 Q1390.74 1102.7 1396.25 1102.7 Q1402.69 1102.7 1406.82 1105.8 Q1410.94 1108.91 1410.94 1114.03 Q1410.94 1115.7 1410.48 1117.13 Q1410.04 1118.54 1409.19 1119.74 Q1408.37 1120.94 1407.05 1122.2 Q1405.73 1123.43 1404.15 1124.66 Q1402.6 1125.86 1400.52 1127.38 Q1400.35 1127.5 1400.26 1127.56 Q1397.21 1129.81 1391.62 1134.47 L1400.43 1134.47 Q1405.88 1134.47 1406.55 1134.12 Q1407.4 1133.71 1408.13 1128.64 L1410.94 1128.64 Z" fill="#000000" fill-rule="nonzero" fill-opacity="1" /><polyline clip-path="url(#clip223)" style="stroke:#000000; stroke-linecap:round; stroke-linejoin:round; stroke-width:2; stroke-opacity:0.1; fill:none" points="340.219,1076.41 1552.76,1076.41 "/>
<polyline clip-path="url(#clip223)" style="stroke:#000000; stroke-linecap:round; stroke-linejoin:round; stroke-width:2; stroke-opacity:0.1; fill:none" points="340.219,782.361 1552.76,782.361 "/>
<polyline clip-path="url(#clip223)" style="stroke:#000000; stroke-linecap:round; stroke-linejoin:round; stroke-width:2; stroke-opacity:0.1; fill:none" points="340.219,488.314 1552.76,488.314 "/>
<polyline clip-path="url(#clip223)" style="stroke:#000000; stroke-linecap:round; stroke-linejoin:round; stroke-width:2; stroke-opacity:0.1; fill:none" points="340.219,194.267 1552.76,194.267 "/>
<polyline clip-path="url(#clip220)" style="stroke:#000000; stroke-linecap:round; stroke-linejoin:round; stroke-width:4; stroke-opacity:1; fill:none" points="340.219,1076.41 340.219,47.2441 "/>
<polyline clip-path="url(#clip220)" style="stroke:#000000; stroke-linecap:round; stroke-linejoin:round; stroke-width:4; stroke-opacity:1; fill:none" points="1552.76,1076.41 1552.76,47.2441 "/>
<polyline clip-path="url(#clip220)" style="stroke:#000000; stroke-linecap:round; stroke-linejoin:round; stroke-width:4; stroke-opacity:1; fill:none" points="340.219,1076.41 359.117,1076.41 "/>
<polyline clip-path="url(#clip220)" style="stroke:#000000; stroke-linecap:round; stroke-linejoin:round; stroke-width:4; stroke-opacity:1; fill:none" points="340.219,782.361 359.117,782.361 "/>
<polyline clip-path="url(#clip220)" style="stroke:#000000; stroke-linecap:round; stroke-linejoin:round; stroke-width:4; stroke-opacity:1; fill:none" points="340.219,488.314 359.117,488.314 "/>
<polyline clip-path="url(#clip220)" style="stroke:#000000; stroke-linecap:round; stroke-linejoin:round; stroke-width:4; stroke-opacity:1; fill:none" points="340.219,194.267 359.117,194.267 "/>
<path clip-path="url(#clip220)" d="M170.809 1081.3 Q171.179 1081.67 171.179 1082.2 Q171.179 1082.72 170.809 1083.09 Q170.438 1083.46 169.913 1083.46 L130.326 1083.46 Q129.801 1083.46 129.431 1083.09 Q129.06 1082.72 129.06 1082.2 Q129.06 1081.67 129.431 1081.3 Q129.801 1080.93 130.326 1080.93 L169.913 1080.93 Q170.438 1080.93 170.809 1081.3 Z" fill="#000000" fill-rule="nonzero" fill-opacity="1" /><path clip-path="url(#clip220)" d="M177.17 1077.78 Q177.17 1068.49 179.517 1063.42 Q182.79 1055.89 190.51 1055.89 Q192.146 1055.89 193.845 1056.35 Q195.574 1056.78 197.735 1058.48 Q199.928 1060.18 201.256 1062.96 Q203.788 1068.33 203.788 1077.78 Q203.788 1087.01 201.441 1092.05 Q198.013 1099.4 190.448 1099.4 Q187.607 1099.4 184.704 1097.95 Q181.833 1096.49 180.011 1093.01 Q177.17 1087.79 177.17 1077.78 M182.419 1077.01 Q182.419 1086.55 183.099 1090.35 Q183.871 1094.46 185.971 1096.25 Q188.101 1098.01 190.448 1098.01 Q192.98 1098.01 195.08 1096.12 Q197.211 1094.21 197.859 1090.1 Q198.569 1086.06 198.538 1077.01 Q198.538 1068.21 197.921 1064.69 Q197.087 1060.58 194.864 1058.95 Q192.671 1057.28 190.448 1057.28 Q189.614 1057.28 188.719 1057.53 Q187.854 1057.77 186.588 1058.48 Q185.322 1059.19 184.334 1060.95 Q183.377 1062.71 182.913 1065.37 Q182.419 1068.8 182.419 1077.01 Z" fill="#000000" fill-rule="nonzero" fill-opacity="1" /><path clip-path="url(#clip220)" d="M212.65 1096.99 Q211.693 1095.97 211.693 1094.64 Q211.693 1093.31 212.65 1092.36 Q213.607 1091.37 215.059 1091.37 Q216.448 1091.37 217.375 1092.3 Q218.332 1093.19 218.332 1094.67 Q218.332 1096.12 217.313 1097.08 Q216.325 1098.01 215.059 1098.01 Q213.607 1098.01 212.65 1096.99 Z" fill="#000000" fill-rule="nonzero" fill-opacity="1" /><path clip-path="url(#clip220)" d="M226.546 1089.49 Q226.546 1087.6 227.627 1086.71 Q228.707 1085.81 230.097 1085.81 Q231.548 1085.81 232.567 1086.77 Q233.617 1087.69 233.617 1089.33 Q233.617 1091.09 232.382 1092.08 Q231.178 1093.07 229.448 1092.82 Q230.962 1095.35 233.741 1096.49 Q236.551 1097.64 239.145 1097.64 Q241.862 1097.64 244.054 1095.29 Q246.278 1092.94 246.278 1087.2 Q246.278 1082.32 244.363 1079.51 Q242.479 1076.7 238.743 1076.7 L235.964 1076.7 Q235.007 1076.7 234.729 1076.61 Q234.451 1076.52 234.451 1075.99 Q234.451 1075.37 235.408 1075.25 Q236.365 1075.25 237.878 1075.06 Q241.553 1074.94 243.498 1071.76 Q245.259 1068.8 245.259 1064.57 Q245.259 1060.71 243.406 1059.1 Q241.584 1057.46 239.206 1057.46 Q236.983 1057.46 234.544 1058.39 Q232.104 1059.32 230.776 1061.39 Q234.698 1061.39 234.698 1064.57 Q234.698 1065.96 233.802 1066.88 Q232.938 1067.78 231.486 1067.78 Q230.097 1067.78 229.171 1066.91 Q228.244 1066.02 228.244 1064.5 Q228.244 1060.89 231.456 1058.39 Q234.698 1055.89 239.453 1055.89 Q244.147 1055.89 247.605 1058.36 Q251.095 1060.83 251.095 1064.63 Q251.095 1068.36 248.624 1071.42 Q246.154 1074.48 242.232 1075.74 Q247.05 1076.7 249.921 1079.97 Q252.793 1083.22 252.793 1087.2 Q252.793 1092.14 248.902 1095.78 Q245.012 1099.4 239.33 1099.4 Q234.08 1099.4 230.313 1096.56 Q226.546 1093.72 226.546 1089.49 Z" fill="#000000" fill-rule="nonzero" fill-opacity="1" /><path clip-path="url(#clip220)" d="M258.66 1087.82 Q258.66 1085.93 259.679 1085.22 Q260.698 1084.48 261.779 1084.48 Q263.23 1084.48 264.064 1085.41 Q264.929 1086.3 264.929 1087.57 Q264.929 1088.84 264.064 1089.76 Q263.23 1090.66 261.779 1090.66 Q261.069 1090.66 260.698 1090.54 Q261.532 1093.44 264.064 1095.54 Q266.627 1097.64 269.993 1097.64 Q274.223 1097.64 276.755 1093.53 Q278.268 1090.87 278.268 1084.85 Q278.268 1079.54 277.126 1076.89 Q275.366 1072.84 271.753 1072.84 Q266.627 1072.84 263.601 1077.26 Q263.23 1077.81 262.798 1077.84 Q262.18 1077.84 262.026 1077.5 Q261.902 1077.13 261.902 1076.18 L261.902 1057.46 Q261.902 1055.95 262.52 1055.95 Q262.767 1055.95 263.292 1056.14 Q267.275 1057.9 271.691 1057.93 Q276.23 1057.93 280.306 1056.07 Q280.615 1055.89 280.801 1055.89 Q281.418 1055.89 281.449 1056.6 Q281.449 1056.85 280.924 1057.59 Q280.43 1058.3 279.349 1059.25 Q278.268 1060.18 276.879 1061.08 Q275.489 1061.97 273.451 1062.59 Q271.444 1063.18 269.221 1063.18 Q266.565 1063.18 263.848 1062.34 L263.848 1074.66 Q267.121 1071.45 271.876 1071.45 Q276.941 1071.45 280.43 1075.53 Q283.919 1079.6 283.919 1085.29 Q283.919 1091.25 279.782 1095.32 Q275.675 1099.4 270.116 1099.4 Q265.052 1099.4 261.841 1095.78 Q258.66 1092.17 258.66 1087.82 Z" fill="#000000" fill-rule="nonzero" fill-opacity="1" /><path clip-path="url(#clip220)" d="M289.601 1077.78 Q289.601 1068.49 291.948 1063.42 Q295.221 1055.89 302.941 1055.89 Q304.578 1055.89 306.276 1056.35 Q308.005 1056.78 310.167 1058.48 Q312.359 1060.18 313.687 1062.96 Q316.219 1068.33 316.219 1077.78 Q316.219 1087.01 313.872 1092.05 Q310.445 1099.4 302.879 1099.4 Q300.038 1099.4 297.136 1097.95 Q294.264 1096.49 292.442 1093.01 Q289.601 1087.79 289.601 1077.78 M294.851 1077.01 Q294.851 1086.55 295.53 1090.35 Q296.302 1094.46 298.402 1096.25 Q300.532 1098.01 302.879 1098.01 Q305.411 1098.01 307.511 1096.12 Q309.642 1094.21 310.29 1090.1 Q311 1086.06 310.97 1077.01 Q310.97 1068.21 310.352 1064.69 Q309.518 1060.58 307.295 1058.95 Q305.102 1057.28 302.879 1057.28 Q302.045 1057.28 301.15 1057.53 Q300.285 1057.77 299.019 1058.48 Q297.753 1059.19 296.765 1060.95 Q295.808 1062.71 295.345 1065.37 Q294.851 1068.8 294.851 1077.01 Z" fill="#000000" fill-rule="nonzero" fill-opacity="1" /><path clip-path="url(#clip220)" d="M171.488 787.255 Q171.859 787.626 171.859 788.151 Q171.859 788.676 171.488 789.046 Q171.118 789.417 170.593 789.417 L131.006 789.417 Q130.481 789.417 130.11 789.046 Q129.739 788.676 129.739 788.151 Q129.739 787.626 130.11 787.255 Q130.481 786.885 131.006 786.885 L170.593 786.885 Q171.118 786.885 171.488 787.255 Z" fill="#000000" fill-rule="nonzero" fill-opacity="1" /><path clip-path="url(#clip220)" d="M177.849 783.735 Q177.849 774.441 180.196 769.376 Q183.469 761.842 191.189 761.842 Q192.826 761.842 194.524 762.305 Q196.253 762.737 198.415 764.436 Q200.607 766.134 201.935 768.913 Q204.467 774.286 204.467 783.735 Q204.467 792.968 202.12 798.001 Q198.693 805.351 191.127 805.351 Q188.286 805.351 185.384 803.899 Q182.512 802.448 180.69 798.959 Q177.849 793.74 177.849 783.735 M183.099 782.963 Q183.099 792.505 183.778 796.303 Q184.55 800.41 186.65 802.201 Q188.781 803.961 191.127 803.961 Q193.659 803.961 195.759 802.077 Q197.89 800.163 198.538 796.056 Q199.249 792.011 199.218 782.963 Q199.218 774.163 198.6 770.642 Q197.766 766.535 195.543 764.899 Q193.351 763.231 191.127 763.231 Q190.294 763.231 189.398 763.478 Q188.533 763.725 187.267 764.436 Q186.001 765.146 185.013 766.906 Q184.056 768.666 183.593 771.322 Q183.099 774.749 183.099 782.963 Z" fill="#000000" fill-rule="nonzero" fill-opacity="1" /><path clip-path="url(#clip220)" d="M213.329 802.942 Q212.372 801.923 212.372 800.595 Q212.372 799.267 213.329 798.31 Q214.287 797.322 215.738 797.322 Q217.128 797.322 218.054 798.248 Q219.011 799.144 219.011 800.626 Q219.011 802.077 217.992 803.035 Q217.004 803.961 215.738 803.961 Q214.287 803.961 213.329 802.942 Z" fill="#000000" fill-rule="nonzero" fill-opacity="1" /><path clip-path="url(#clip220)" d="M227.225 795.438 Q227.225 793.555 228.306 792.659 Q229.387 791.764 230.776 791.764 Q232.228 791.764 233.247 792.721 Q234.296 793.647 234.296 795.284 Q234.296 797.044 233.061 798.032 Q231.857 799.02 230.128 798.773 Q231.641 801.305 234.42 802.448 Q237.23 803.591 239.824 803.591 Q242.541 803.591 244.734 801.244 Q246.957 798.897 246.957 793.153 Q246.957 788.274 245.042 785.464 Q243.159 782.654 239.422 782.654 L236.643 782.654 Q235.686 782.654 235.408 782.562 Q235.13 782.469 235.13 781.944 Q235.13 781.327 236.087 781.203 Q237.045 781.203 238.558 781.018 Q242.232 780.894 244.178 777.714 Q245.938 774.749 245.938 770.519 Q245.938 766.659 244.085 765.053 Q242.263 763.417 239.886 763.417 Q237.662 763.417 235.223 764.343 Q232.783 765.269 231.456 767.338 Q235.377 767.338 235.377 770.519 Q235.377 771.908 234.482 772.835 Q233.617 773.73 232.166 773.73 Q230.776 773.73 229.85 772.866 Q228.923 771.97 228.923 770.457 Q228.923 766.844 232.135 764.343 Q235.377 761.842 240.133 761.842 Q244.826 761.842 248.285 764.312 Q251.774 766.783 251.774 770.581 Q251.774 774.317 249.304 777.374 Q246.833 780.431 242.912 781.697 Q247.729 782.654 250.601 785.928 Q253.472 789.17 253.472 793.153 Q253.472 798.094 249.582 801.738 Q245.691 805.351 240.009 805.351 Q234.76 805.351 230.992 802.51 Q227.225 799.669 227.225 795.438 Z" fill="#000000" fill-rule="nonzero" fill-opacity="1" /><path clip-path="url(#clip220)" d="M257.95 793.524 L257.95 791.579 L277.373 761.904 Q277.867 761.132 278.639 761.163 Q279.349 761.163 279.504 761.44 Q279.658 761.718 279.658 762.799 L279.658 791.579 L285.988 791.579 L285.988 793.524 L279.658 793.524 L279.658 799.02 Q279.658 800.842 280.399 801.429 Q281.171 802.016 284.444 802.016 L285.772 802.016 L285.772 803.961 Q283.178 803.776 277.188 803.776 Q271.228 803.776 268.634 803.961 L268.634 802.016 L269.962 802.016 Q273.235 802.016 274.007 801.46 Q274.779 800.873 274.779 799.02 L274.779 793.524 L257.95 793.524 M259.741 791.579 L275.15 791.579 L275.15 767.987 L259.741 791.579 Z" fill="#000000" fill-rule="nonzero" fill-opacity="1" /><path clip-path="url(#clip220)" d="M290.96 793.771 Q290.96 791.887 291.979 791.177 Q292.998 790.436 294.079 790.436 Q295.53 790.436 296.364 791.362 Q297.228 792.258 297.228 793.524 Q297.228 794.79 296.364 795.716 Q295.53 796.612 294.079 796.612 Q293.368 796.612 292.998 796.488 Q293.832 799.391 296.364 801.491 Q298.927 803.591 302.292 803.591 Q306.523 803.591 309.055 799.484 Q310.568 796.828 310.568 790.807 Q310.568 785.495 309.426 782.84 Q307.665 778.795 304.053 778.795 Q298.927 778.795 295.9 783.21 Q295.53 783.766 295.098 783.797 Q294.48 783.797 294.326 783.457 Q294.202 783.087 294.202 782.129 L294.202 763.417 Q294.202 761.904 294.82 761.904 Q295.067 761.904 295.592 762.089 Q299.575 763.849 303.991 763.88 Q308.53 763.88 312.606 762.027 Q312.915 761.842 313.1 761.842 Q313.718 761.842 313.749 762.552 Q313.749 762.799 313.224 763.54 Q312.73 764.25 311.649 765.208 Q310.568 766.134 309.179 767.03 Q307.789 767.925 305.751 768.543 Q303.744 769.129 301.52 769.129 Q298.865 769.129 296.148 768.296 L296.148 780.616 Q299.421 777.405 304.176 777.405 Q309.24 777.405 312.73 781.481 Q316.219 785.557 316.219 791.239 Q316.219 797.199 312.081 801.275 Q307.974 805.351 302.416 805.351 Q297.352 805.351 294.14 801.738 Q290.96 798.125 290.96 793.771 Z" fill="#000000" fill-rule="nonzero" fill-opacity="1" /><path clip-path="url(#clip220)" d="M170.809 493.209 Q171.179 493.579 171.179 494.104 Q171.179 494.629 170.809 495 Q170.438 495.37 169.913 495.37 L130.326 495.37 Q129.801 495.37 129.431 495 Q129.06 494.629 129.06 494.104 Q129.06 493.579 129.431 493.209 Q129.801 492.838 130.326 492.838 L169.913 492.838 Q170.438 492.838 170.809 493.209 Z" fill="#000000" fill-rule="nonzero" fill-opacity="1" /><path clip-path="url(#clip220)" d="M177.17 489.688 Q177.17 480.394 179.517 475.33 Q182.79 467.795 190.51 467.795 Q192.146 467.795 193.845 468.258 Q195.574 468.691 197.735 470.389 Q199.928 472.087 201.256 474.866 Q203.788 480.239 203.788 489.688 Q203.788 498.921 201.441 503.955 Q198.013 511.304 190.448 511.304 Q187.607 511.304 184.704 509.853 Q181.833 508.401 180.011 504.912 Q177.17 499.693 177.17 489.688 M182.419 488.916 Q182.419 498.458 183.099 502.256 Q183.871 506.363 185.971 508.154 Q188.101 509.914 190.448 509.914 Q192.98 509.914 195.08 508.031 Q197.211 506.116 197.859 502.009 Q198.569 497.964 198.538 488.916 Q198.538 480.116 197.921 476.596 Q197.087 472.489 194.864 470.852 Q192.671 469.185 190.448 469.185 Q189.614 469.185 188.719 469.432 Q187.854 469.679 186.588 470.389 Q185.322 471.099 184.334 472.859 Q183.377 474.619 182.913 477.275 Q182.419 480.703 182.419 488.916 Z" fill="#000000" fill-rule="nonzero" fill-opacity="1" /><path clip-path="url(#clip220)" d="M212.65 508.895 Q211.693 507.876 211.693 506.548 Q211.693 505.221 212.65 504.263 Q213.607 503.275 215.059 503.275 Q216.448 503.275 217.375 504.202 Q218.332 505.097 218.332 506.579 Q218.332 508.031 217.313 508.988 Q216.325 509.914 215.059 509.914 Q213.607 509.914 212.65 508.895 Z" fill="#000000" fill-rule="nonzero" fill-opacity="1" /><path clip-path="url(#clip220)" d="M226.546 501.392 Q226.546 499.508 227.627 498.612 Q228.707 497.717 230.097 497.717 Q231.548 497.717 232.567 498.674 Q233.617 499.601 233.617 501.237 Q233.617 502.997 232.382 503.985 Q231.178 504.974 229.448 504.727 Q230.962 507.259 233.741 508.401 Q236.551 509.544 239.145 509.544 Q241.862 509.544 244.054 507.197 Q246.278 504.85 246.278 499.107 Q246.278 494.228 244.363 491.418 Q242.479 488.608 238.743 488.608 L235.964 488.608 Q235.007 488.608 234.729 488.515 Q234.451 488.422 234.451 487.897 Q234.451 487.28 235.408 487.156 Q236.365 487.156 237.878 486.971 Q241.553 486.848 243.498 483.667 Q245.259 480.703 245.259 476.472 Q245.259 472.612 243.406 471.006 Q241.584 469.37 239.206 469.37 Q236.983 469.37 234.544 470.296 Q232.104 471.223 230.776 473.292 Q234.698 473.292 234.698 476.472 Q234.698 477.862 233.802 478.788 Q232.938 479.684 231.486 479.684 Q230.097 479.684 229.171 478.819 Q228.244 477.923 228.244 476.41 Q228.244 472.797 231.456 470.296 Q234.698 467.795 239.453 467.795 Q244.147 467.795 247.605 470.265 Q251.095 472.736 251.095 476.534 Q251.095 480.27 248.624 483.327 Q246.154 486.384 242.232 487.65 Q247.05 488.608 249.921 491.881 Q252.793 495.123 252.793 499.107 Q252.793 504.047 248.902 507.691 Q245.012 511.304 239.33 511.304 Q234.08 511.304 230.313 508.463 Q226.546 505.622 226.546 501.392 Z" fill="#000000" fill-rule="nonzero" fill-opacity="1" /><path clip-path="url(#clip220)" d="M257.271 499.477 L257.271 497.532 L276.694 467.857 Q277.188 467.085 277.96 467.116 Q278.67 467.116 278.824 467.394 Q278.979 467.672 278.979 468.752 L278.979 497.532 L285.309 497.532 L285.309 499.477 L278.979 499.477 L278.979 504.974 Q278.979 506.795 279.72 507.382 Q280.492 507.969 283.765 507.969 L285.093 507.969 L285.093 509.914 Q282.499 509.729 276.508 509.729 Q270.549 509.729 267.955 509.914 L267.955 507.969 L269.283 507.969 Q272.556 507.969 273.328 507.413 Q274.1 506.826 274.1 504.974 L274.1 499.477 L257.271 499.477 M259.062 497.532 L274.47 497.532 L274.47 473.94 L259.062 497.532 Z" fill="#000000" fill-rule="nonzero" fill-opacity="1" /><path clip-path="url(#clip220)" d="M289.601 489.688 Q289.601 480.394 291.948 475.33 Q295.221 467.795 302.941 467.795 Q304.578 467.795 306.276 468.258 Q308.005 468.691 310.167 470.389 Q312.359 472.087 313.687 474.866 Q316.219 480.239 316.219 489.688 Q316.219 498.921 313.872 503.955 Q310.445 511.304 302.879 511.304 Q300.038 511.304 297.136 509.853 Q294.264 508.401 292.442 504.912 Q289.601 499.693 289.601 489.688 M294.851 488.916 Q294.851 498.458 295.53 502.256 Q296.302 506.363 298.402 508.154 Q300.532 509.914 302.879 509.914 Q305.411 509.914 307.511 508.031 Q309.642 506.116 310.29 502.009 Q311 497.964 310.97 488.916 Q310.97 480.116 310.352 476.596 Q309.518 472.489 307.295 470.852 Q305.102 469.185 302.879 469.185 Q302.045 469.185 301.15 469.432 Q300.285 469.679 299.019 470.389 Q297.753 471.099 296.765 472.859 Q295.808 474.619 295.345 477.275 Q294.851 480.703 294.851 488.916 Z" fill="#000000" fill-rule="nonzero" fill-opacity="1" /><path clip-path="url(#clip220)" d="M171.488 199.162 Q171.859 199.532 171.859 200.057 Q171.859 200.582 171.488 200.953 Q171.118 201.323 170.593 201.323 L131.006 201.323 Q130.481 201.323 130.11 200.953 Q129.739 200.582 129.739 200.057 Q129.739 199.532 130.11 199.162 Q130.481 198.791 131.006 198.791 L170.593 198.791 Q171.118 198.791 171.488 199.162 Z" fill="#000000" fill-rule="nonzero" fill-opacity="1" /><path clip-path="url(#clip220)" d="M177.849 195.642 Q177.849 186.347 180.196 181.283 Q183.469 173.748 191.189 173.748 Q192.826 173.748 194.524 174.211 Q196.253 174.644 198.415 176.342 Q200.607 178.04 201.935 180.82 Q204.467 186.193 204.467 195.642 Q204.467 204.874 202.12 209.908 Q198.693 217.257 191.127 217.257 Q188.286 217.257 185.384 215.806 Q182.512 214.354 180.69 210.865 Q177.849 205.646 177.849 195.642 M183.099 194.87 Q183.099 204.411 183.778 208.209 Q184.55 212.316 186.65 214.107 Q188.781 215.867 191.127 215.867 Q193.659 215.867 195.759 213.984 Q197.89 212.069 198.538 207.962 Q199.249 203.917 199.218 194.87 Q199.218 186.069 198.6 182.549 Q197.766 178.442 195.543 176.805 Q193.351 175.138 191.127 175.138 Q190.294 175.138 189.398 175.385 Q188.533 175.632 187.267 176.342 Q186.001 177.052 185.013 178.812 Q184.056 180.573 183.593 183.228 Q183.099 186.656 183.099 194.87 Z" fill="#000000" fill-rule="nonzero" fill-opacity="1" /><path clip-path="url(#clip220)" d="M213.329 214.848 Q212.372 213.829 212.372 212.502 Q212.372 211.174 213.329 210.217 Q214.287 209.228 215.738 209.228 Q217.128 209.228 218.054 210.155 Q219.011 211.05 219.011 212.533 Q219.011 213.984 217.992 214.941 Q217.004 215.867 215.738 215.867 Q214.287 215.867 213.329 214.848 Z" fill="#000000" fill-rule="nonzero" fill-opacity="1" /><path clip-path="url(#clip220)" d="M227.225 207.345 Q227.225 205.461 228.306 204.566 Q229.387 203.67 230.776 203.67 Q232.228 203.67 233.247 204.627 Q234.296 205.554 234.296 207.19 Q234.296 208.951 233.061 209.939 Q231.857 210.927 230.128 210.68 Q231.641 213.212 234.42 214.354 Q237.23 215.497 239.824 215.497 Q242.541 215.497 244.734 213.15 Q246.957 210.803 246.957 205.06 Q246.957 200.181 245.042 197.371 Q243.159 194.561 239.422 194.561 L236.643 194.561 Q235.686 194.561 235.408 194.468 Q235.13 194.376 235.13 193.851 Q235.13 193.233 236.087 193.11 Q237.045 193.11 238.558 192.924 Q242.232 192.801 244.178 189.62 Q245.938 186.656 245.938 182.425 Q245.938 178.565 244.085 176.96 Q242.263 175.323 239.886 175.323 Q237.662 175.323 235.223 176.249 Q232.783 177.176 231.456 179.245 Q235.377 179.245 235.377 182.425 Q235.377 183.815 234.482 184.741 Q233.617 185.637 232.166 185.637 Q230.776 185.637 229.85 184.772 Q228.923 183.877 228.923 182.364 Q228.923 178.751 232.135 176.249 Q235.377 173.748 240.133 173.748 Q244.826 173.748 248.285 176.219 Q251.774 178.689 251.774 182.487 Q251.774 186.223 249.304 189.281 Q246.833 192.338 242.912 193.604 Q247.729 194.561 250.601 197.834 Q253.472 201.076 253.472 205.06 Q253.472 210 249.582 213.644 Q245.691 217.257 240.009 217.257 Q234.76 217.257 230.992 214.416 Q227.225 211.575 227.225 207.345 Z" fill="#000000" fill-rule="nonzero" fill-opacity="1" /><path clip-path="url(#clip220)" d="M258.845 207.345 Q258.845 205.461 259.926 204.566 Q261.007 203.67 262.397 203.67 Q263.848 203.67 264.867 204.627 Q265.917 205.554 265.917 207.19 Q265.917 208.951 264.682 209.939 Q263.477 210.927 261.748 210.68 Q263.261 213.212 266.04 214.354 Q268.85 215.497 271.444 215.497 Q274.162 215.497 276.354 213.15 Q278.577 210.803 278.577 205.06 Q278.577 200.181 276.663 197.371 Q274.779 194.561 271.043 194.561 L268.264 194.561 Q267.306 194.561 267.028 194.468 Q266.751 194.376 266.751 193.851 Q266.751 193.233 267.708 193.11 Q268.665 193.11 270.178 192.924 Q273.853 192.801 275.798 189.62 Q277.558 186.656 277.558 182.425 Q277.558 178.565 275.705 176.96 Q273.884 175.323 271.506 175.323 Q269.283 175.323 266.843 176.249 Q264.404 177.176 263.076 179.245 Q266.998 179.245 266.998 182.425 Q266.998 183.815 266.102 184.741 Q265.237 185.637 263.786 185.637 Q262.397 185.637 261.47 184.772 Q260.544 183.877 260.544 182.364 Q260.544 178.751 263.755 176.249 Q266.998 173.748 271.753 173.748 Q276.447 173.748 279.905 176.219 Q283.394 178.689 283.394 182.487 Q283.394 186.223 280.924 189.281 Q278.454 192.338 274.532 193.604 Q279.349 194.561 282.221 197.834 Q285.093 201.076 285.093 205.06 Q285.093 210 281.202 213.644 Q277.311 217.257 271.629 217.257 Q266.38 217.257 262.613 214.416 Q258.845 211.575 258.845 207.345 Z" fill="#000000" fill-rule="nonzero" fill-opacity="1" /><path clip-path="url(#clip220)" d="M290.96 205.677 Q290.96 203.794 291.979 203.084 Q292.998 202.342 294.079 202.342 Q295.53 202.342 296.364 203.269 Q297.228 204.164 297.228 205.43 Q297.228 206.696 296.364 207.623 Q295.53 208.518 294.079 208.518 Q293.368 208.518 292.998 208.395 Q293.832 211.297 296.364 213.397 Q298.927 215.497 302.292 215.497 Q306.523 215.497 309.055 211.39 Q310.568 208.734 310.568 202.713 Q310.568 197.402 309.426 194.746 Q307.665 190.701 304.053 190.701 Q298.927 190.701 295.9 195.117 Q295.53 195.672 295.098 195.703 Q294.48 195.703 294.326 195.364 Q294.202 194.993 294.202 194.036 L294.202 175.323 Q294.202 173.81 294.82 173.81 Q295.067 173.81 295.592 173.995 Q299.575 175.755 303.991 175.786 Q308.53 175.786 312.606 173.934 Q312.915 173.748 313.1 173.748 Q313.718 173.748 313.749 174.458 Q313.749 174.706 313.224 175.447 Q312.73 176.157 311.649 177.114 Q310.568 178.04 309.179 178.936 Q307.789 179.831 305.751 180.449 Q303.744 181.036 301.52 181.036 Q298.865 181.036 296.148 180.202 L296.148 192.523 Q299.421 189.311 304.176 189.311 Q309.24 189.311 312.73 193.387 Q316.219 197.463 316.219 203.145 Q316.219 209.105 312.081 213.181 Q307.974 217.257 302.416 217.257 Q297.352 217.257 294.14 213.644 Q290.96 210.031 290.96 205.677 Z" fill="#000000" fill-rule="nonzero" fill-opacity="1" /><path clip-path="url(#clip220)" d="M91.0712 719.298 Q90.7901 719.298 88.9632 718.349 Q87.1011 717.4 80.4608 714.063 Q73.7854 710.725 66.7938 707.282 L41.8489 694.88 Q40.2679 694.001 40.2679 692.877 Q40.2679 691.858 40.9003 691.401 Q41.5327 690.945 45.7839 688.837 Q47.8568 687.748 49.1919 687.115 L89.9118 666.773 Q90.7901 666.421 91.0712 666.386 Q91.7739 666.386 91.7739 667.616 L91.7739 717.4 Q91.7739 719.298 91.0712 719.298 M86.293 714.554 L86.293 675.837 L47.4352 695.196 L86.293 714.554 Z" fill="#000000" fill-rule="nonzero" fill-opacity="1" /><path clip-path="url(#clip220)" d="M45.9947 623.812 Q47.927 623.812 49.1216 625.042 Q50.3161 626.237 50.3161 627.747 Q50.3161 628.836 49.6486 629.645 Q48.9811 630.418 47.8216 630.418 Q46.6271 630.418 45.3623 629.504 Q44.0975 628.591 43.9218 626.518 Q42.6219 627.888 42.6219 630.066 Q42.6219 631.155 43.3245 632.069 Q43.9921 632.947 45.0812 633.439 Q46.2055 633.966 52.5647 635.161 Q54.6376 635.547 56.6402 635.898 Q58.6428 636.25 60.7508 636.671 L60.7508 630.699 Q60.7508 629.926 60.786 629.609 Q60.8211 629.293 60.9968 629.047 Q61.1724 628.766 61.5589 628.766 Q62.5427 628.766 62.7886 629.223 Q62.9994 629.645 62.9994 630.909 L62.9994 637.093 L85.8011 641.414 Q86.4687 641.52 88.5767 641.976 Q90.6496 642.398 94.0576 643.417 Q97.5007 644.436 99.5384 645.455 Q100.698 646.017 101.787 646.755 Q102.911 647.457 104.036 648.476 Q105.16 649.495 105.827 650.83 Q106.53 652.165 106.53 653.571 Q106.53 655.96 105.195 657.822 Q103.86 659.684 101.576 659.684 Q99.6438 659.684 98.4493 658.489 Q97.2547 657.26 97.2547 655.749 Q97.2547 654.66 97.9223 653.887 Q98.5898 653.079 99.7492 653.079 Q100.241 653.079 100.803 653.254 Q101.365 653.43 101.998 653.817 Q102.665 654.203 103.122 655.046 Q103.579 655.889 103.649 657.049 Q104.949 655.679 104.949 653.571 Q104.949 652.903 104.668 652.306 Q104.422 651.709 103.79 651.217 Q103.157 650.69 102.525 650.303 Q101.927 649.917 100.768 649.53 Q99.6438 649.144 98.8006 648.898 Q97.9574 648.652 96.4466 648.336 Q94.9359 647.984 94.0224 647.809 Q93.1441 647.633 91.4225 647.317 L62.9994 641.941 L62.9994 646.684 Q62.9994 647.528 62.9643 647.879 Q62.9291 648.195 62.7535 648.441 Q62.5427 648.687 62.1211 648.687 Q61.4535 648.687 61.1724 648.406 Q60.8562 648.09 60.8211 647.738 Q60.7508 647.387 60.7508 646.544 L60.7508 641.555 Q51.862 639.868 49.4729 639.201 Q46.9433 638.428 45.1866 637.233 Q43.3948 636.039 42.5516 634.704 Q41.7084 633.369 41.3922 632.28 Q41.0409 631.155 41.0409 630.066 Q41.0409 627.607 42.3759 625.71 Q43.6759 623.812 45.9947 623.812 Z" fill="#000000" fill-rule="nonzero" fill-opacity="1" /><path clip-path="url(#clip220)" d="M73.7854 614.128 Q61.6292 614.128 51.8269 609.596 Q47.7162 607.664 44.2731 604.958 Q40.83 602.253 39.3193 600.461 Q37.8086 598.67 37.8086 598.178 Q37.8086 597.475 38.5112 597.44 Q38.8626 597.44 39.7409 598.388 Q51.5458 609.983 73.7854 609.947 Q96.0953 609.947 107.443 598.67 Q108.673 597.44 109.06 597.44 Q109.762 597.44 109.762 598.178 Q109.762 598.67 108.322 600.391 Q106.881 602.113 103.579 604.783 Q100.276 607.453 96.2358 609.385 Q86.4335 614.128 73.7854 614.128 Z" fill="#000000" fill-rule="nonzero" fill-opacity="1" /><path clip-path="url(#clip220)" d="M61.5589 569.874 Q62.5427 569.874 62.7886 570.331 Q62.9994 570.787 62.9994 572.052 L62.9994 578.798 L84.2201 584.138 Q86.0822 584.56 87.6632 584.56 Q89.4199 584.56 90.1929 584.033 Q90.9658 583.471 90.9658 582.311 Q90.9658 580.028 88.8929 577.568 Q86.82 575.074 81.7608 572.966 Q81.0932 572.685 80.9527 572.544 Q80.777 572.368 80.777 571.912 Q80.777 571.033 81.4797 571.033 Q81.7256 571.033 82.8499 571.525 Q83.9742 571.982 85.6255 573.001 Q87.2768 573.985 88.8226 575.285 Q90.3685 576.549 91.4928 578.482 Q92.5819 580.414 92.5819 582.487 Q92.5819 585.403 90.7199 587.265 Q88.8578 589.092 85.9417 589.092 Q84.9931 589.092 81.9716 588.354 Q78.9149 587.616 62.9994 583.611 L62.9994 589.97 Q62.9994 590.849 62.9643 591.2 Q62.9291 591.516 62.7535 591.762 Q62.5427 591.973 62.1211 591.973 Q61.4535 591.973 61.1724 591.692 Q60.8562 591.411 60.8211 591.06 Q60.7508 590.673 60.7508 589.795 L60.7508 583.049 L49.3324 580.238 Q48.2081 579.957 47.5757 579.255 Q46.9082 578.517 46.8379 578.095 Q46.7325 577.674 46.7325 577.357 Q46.7325 576.409 47.2595 575.847 Q47.7514 575.285 48.6649 575.285 Q49.1567 575.285 60.7508 578.236 L60.7508 571.912 Q60.7508 571.104 60.786 570.787 Q60.8211 570.436 60.9968 570.155 Q61.1724 569.874 61.5589 569.874 Z" fill="#000000" fill-rule="nonzero" fill-opacity="1" /><path clip-path="url(#clip220)" d="M109.06 564.243 Q108.708 564.243 107.83 563.33 Q96.025 551.736 73.7854 551.736 Q51.4755 551.736 40.1976 562.873 Q38.8977 564.243 38.5112 564.243 Q37.8086 564.243 37.8086 563.541 Q37.8086 563.049 39.249 561.327 Q40.6895 559.571 43.9921 556.936 Q47.2946 554.265 51.335 552.298 Q61.1373 547.555 73.7854 547.555 Q85.9417 547.555 95.744 552.087 Q99.8546 554.02 103.298 556.725 Q106.741 559.43 108.252 561.222 Q109.762 563.014 109.762 563.541 Q109.762 564.243 109.06 564.243 Z" fill="#000000" fill-rule="nonzero" fill-opacity="1" /><path clip-path="url(#clip220)" d="M108.743 536.616 Q108.392 536.616 107.619 536.335 L39.7409 510.933 Q39.6706 510.933 39.2842 510.758 Q38.8977 510.582 38.6518 510.477 Q38.3707 510.371 38.1599 510.16 Q37.9491 509.915 37.9491 509.633 Q37.9491 508.931 38.8274 508.931 Q38.8977 508.931 39.7409 509.142 L107.689 534.613 Q108.919 535.035 109.27 535.316 Q109.622 535.562 109.622 535.984 Q109.622 536.616 108.743 536.616 Z" fill="#000000" fill-rule="nonzero" fill-opacity="1" /><path clip-path="url(#clip220)" d="M43.4299 440.415 Q44.4488 440.415 44.6596 440.872 Q44.8704 441.294 44.8704 442.84 Q44.8704 445.475 45.2218 446.669 Q45.538 447.829 46.1001 448.18 Q46.6271 448.496 48.173 448.883 L87.0308 458.615 Q87.066 458.615 87.5578 458.72 Q88.0146 458.825 88.2605 458.825 Q88.7172 458.825 88.9983 458.544 Q89.2794 458.228 89.4199 457.455 Q89.5253 456.682 89.5604 456.085 Q89.5604 455.453 89.5604 454.153 Q89.5604 452.537 89.8415 452.291 Q90.0172 452.15 90.3334 452.15 Q91.0009 452.15 91.3523 452.431 Q91.6685 452.677 91.7387 452.923 Q91.7739 453.134 91.7739 453.555 Q91.7739 454.293 91.7036 455.874 Q91.6333 457.455 91.6333 458.263 L91.5631 462.866 L91.7739 472.001 Q91.7739 472.984 90.9658 472.984 Q90.2631 472.984 89.9469 472.738 Q89.6307 472.492 89.5956 472.247 Q89.5604 471.965 89.5604 471.263 Q89.5604 467.644 89.2091 466.449 Q88.8226 465.22 87.1714 464.728 L67.3208 459.774 L67.3208 481.698 L87.0308 486.616 Q87.066 486.616 87.5578 486.722 Q88.0146 486.827 88.2605 486.827 Q88.7172 486.827 88.9983 486.546 Q89.2794 486.23 89.4199 485.457 Q89.5253 484.684 89.5604 484.087 Q89.5604 483.454 89.5604 482.154 Q89.5604 480.538 89.8415 480.257 Q90.0172 480.116 90.3334 480.116 Q90.8253 480.116 91.1766 480.257 Q91.4928 480.362 91.5982 480.643 Q91.7036 480.889 91.7387 481.065 Q91.7739 481.241 91.7739 481.557 Q91.7739 482.295 91.7036 483.876 Q91.6333 485.422 91.6333 486.23 L91.5631 490.832 L91.7739 499.967 Q91.7739 500.986 90.9658 500.986 Q90.2631 500.986 89.982 500.74 Q89.6658 500.494 89.6307 500.178 Q89.5604 499.862 89.5604 499.054 Q89.5604 497.297 89.455 496.243 Q89.3496 495.189 89.2091 494.521 Q89.0334 493.819 88.5416 493.467 Q88.0497 493.081 87.6281 492.905 Q87.1714 492.729 86.1525 492.484 L47.5054 482.857 Q46.346 482.576 46.1704 482.576 Q45.5028 482.576 45.3272 482.997 Q45.1164 483.384 45.011 484.508 L44.8704 487.249 Q44.8704 488.092 44.8353 488.443 Q44.8002 488.759 44.6245 489.005 Q44.4488 489.251 44.0623 489.251 Q43.5705 489.251 43.2543 489.146 Q42.9029 489.005 42.7975 488.759 Q42.6921 488.513 42.657 488.338 Q42.6219 488.162 42.6219 487.881 L42.8327 478.606 L42.6219 469.401 Q42.6219 468.382 43.4299 468.382 Q44.4488 468.382 44.6596 468.839 Q44.8704 469.295 44.8704 470.841 Q44.8704 473.406 45.2218 474.601 Q45.538 475.795 46.1001 476.182 Q46.6622 476.533 48.173 476.884 L65.0723 481.135 L65.0723 459.177 L47.5054 454.855 Q46.2406 454.574 46.1704 454.574 Q45.5028 454.574 45.3272 454.996 Q45.1164 455.382 45.011 456.507 L44.8704 459.247 Q44.8704 460.09 44.8353 460.442 Q44.8002 460.758 44.6245 461.039 Q44.4488 461.285 44.0623 461.285 Q43.5705 461.285 43.2543 461.179 Q42.9029 461.039 42.7975 460.793 Q42.6921 460.547 42.657 460.371 Q42.6219 460.196 42.6219 459.915 L42.8327 450.639 L42.6219 441.399 Q42.6219 440.415 43.4299 440.415 Z" fill="#000000" fill-rule="nonzero" fill-opacity="1" /><path clip-path="url(#clip220)" d="M60.6806 406.983 Q60.9265 406.983 61.9805 407.581 Q62.9994 408.143 65.5642 410.216 Q68.1289 412.289 71.1153 415.38 Q72.2747 416.54 73.8908 418.296 Q75.507 420.053 76.561 421.248 L77.615 422.442 Q81.4797 427.01 85.8011 431.015 Q85.6957 430.734 85.6606 430.242 Q85.5903 429.75 85.5903 429.399 L85.5903 429.047 Q85.5903 427.22 86.82 424.023 Q87.7335 421.212 87.7335 419.772 Q87.7335 418.367 87.2416 416.821 Q86.7498 415.275 85.3093 413.588 Q83.8688 411.902 81.6905 411.129 Q81.3392 410.989 81.2338 410.918 Q81.0932 410.848 80.9527 410.637 Q80.777 410.426 80.777 410.145 Q80.777 409.759 80.9878 409.513 Q81.1986 409.267 81.4797 409.267 Q82.1121 409.267 83.3769 409.759 Q84.6417 410.216 86.2227 411.235 Q87.8038 412.218 89.2442 413.518 Q90.6496 414.783 91.6333 416.68 Q92.5819 418.577 92.5819 420.58 Q92.5819 422.021 91.8793 423.075 Q91.2117 424.129 89.9118 425.183 Q88.2605 426.623 87.7335 427.396 Q87.1714 428.169 87.1714 429.364 Q87.1714 432.561 91.6333 435.477 Q92.2657 435.793 92.4063 436.004 Q92.5819 436.179 92.5819 436.601 Q92.5468 437.479 91.8441 437.479 Q91.5631 437.479 90.3334 436.706 Q89.0686 435.898 86.8552 434.107 Q84.6417 432.28 82.4283 430.066 L76.3853 423.602 Q70.3423 416.434 66.9344 413.588 Q66.9344 414.783 66.8992 415.31 Q66.8641 415.802 66.6533 416.786 Q66.4074 417.769 65.8804 419.14 Q64.7912 422.337 64.7912 423.672 Q64.7912 424.023 64.8263 424.41 Q64.8615 424.796 65.0371 425.674 Q65.2128 426.518 65.5642 427.22 Q65.8804 427.923 66.583 428.661 Q67.2506 429.399 68.164 429.785 Q68.4451 429.891 68.5856 429.961 Q68.7262 430.031 68.8667 430.242 Q68.9721 430.418 68.9721 430.699 Q68.9721 431.12 68.7262 431.366 Q68.4802 431.577 68.164 431.577 Q67.5316 431.577 66.2317 430.945 Q64.9317 430.312 63.5264 429.258 Q62.0859 428.204 61.0319 426.483 Q59.9779 424.761 59.9779 422.864 Q59.9779 421.74 60.4698 420.791 Q60.9616 419.807 61.4886 419.315 Q61.9805 418.788 63.0697 417.91 Q63.9129 417.172 64.2642 416.821 Q64.6155 416.469 65.002 415.767 Q65.3533 415.029 65.3533 414.221 Q65.3533 412.886 64.3345 411.656 Q63.2805 410.426 60.7508 408.845 Q59.9779 408.424 59.9779 407.756 Q59.9779 406.983 60.6806 406.983 Z" fill="#000000" fill-rule="nonzero" fill-opacity="1" /><path clip-path="url(#clip223)" d="M565.187 654.495 L469.861 654.495 L660.512 654.495 L565.187 654.495 L565.187 650.659 L565.187 654.495  Z" fill="#009af9" fill-rule="evenodd" fill-opacity="0.25"/>
<polyline clip-path="url(#clip223)" style="stroke:#000000; stroke-linecap:round; stroke-linejoin:round; stroke-width:8; stroke-opacity:0.75; fill:none" points="565.187,654.495 469.861,654.495 660.512,654.495 565.187,654.495 565.187,650.659 565.187,654.495 "/>
<path clip-path="url(#clip223)" d="M755.837 650.659 L755.837 649.334 L660.512 648.751 L469.861 648.751 L374.536 649.334 L374.536 650.659 L755.837 650.659 L755.837 649.334 L755.837 650.659  Z" fill="#009af9" fill-rule="evenodd" fill-opacity="0.25"/>
<polyline clip-path="url(#clip223)" style="stroke:#000000; stroke-linecap:round; stroke-linejoin:round; stroke-width:8; stroke-opacity:0.75; fill:none" points="755.837,650.659 755.837,649.334 660.512,648.751 469.861,648.751 374.536,649.334 374.536,650.659 755.837,650.659 755.837,649.334 755.837,650.659 "/>
<path clip-path="url(#clip223)" d="M755.837 648.169 L755.837 646.972 L374.536 646.972 L374.536 648.169 L469.861 648.751 L660.512 648.751 L755.837 648.169 L755.837 646.972 L755.837 648.169  Z" fill="#009af9" fill-rule="evenodd" fill-opacity="0.25"/>
<polyline clip-path="url(#clip223)" style="stroke:#000000; stroke-linecap:round; stroke-linejoin:round; stroke-width:8; stroke-opacity:0.75; fill:none" points="755.837,648.169 755.837,646.972 374.536,646.972 374.536,648.169 469.861,648.751 660.512,648.751 755.837,648.169 755.837,646.972 755.837,648.169 "/>
<path clip-path="url(#clip223)" d="M565.187 642.796 L469.861 642.796 L660.512 642.796 L565.187 642.796 L565.187 646.972 L565.187 642.796  Z" fill="#009af9" fill-rule="evenodd" fill-opacity="0.25"/>
<polyline clip-path="url(#clip223)" style="stroke:#000000; stroke-linecap:round; stroke-linejoin:round; stroke-width:8; stroke-opacity:0.75; fill:none" points="565.187,642.796 469.861,642.796 660.512,642.796 565.187,642.796 565.187,646.972 565.187,642.796 "/>
<circle clip-path="url(#clip223)" cx="565.187" cy="657.701" r="14.4" fill="#009af9" fill-rule="evenodd" fill-opacity="1" stroke="#000000" stroke-opacity="1" stroke-width="2.4"/>
<circle clip-path="url(#clip223)" cx="565.187" cy="657.701" r="14.4" fill="#009af9" fill-rule="evenodd" fill-opacity="1" stroke="#000000" stroke-opacity="1" stroke-width="2.4"/>
<circle clip-path="url(#clip223)" cx="565.187" cy="657.701" r="14.4" fill="#009af9" fill-rule="evenodd" fill-opacity="1" stroke="#000000" stroke-opacity="1" stroke-width="2.4"/>
<circle clip-path="url(#clip223)" cx="565.187" cy="640.05" r="14.4" fill="#009af9" fill-rule="evenodd" fill-opacity="1" stroke="#000000" stroke-opacity="1" stroke-width="2.4"/>
<polyline clip-path="url(#clip223)" style="stroke:#009af9; stroke-linecap:round; stroke-linejoin:round; stroke-width:0; stroke-opacity:0.75; fill:none" points="565.187,654.495 469.861,654.495 660.512,654.495 565.187,654.495 565.187,650.659 "/>
<polyline clip-path="url(#clip223)" style="stroke:#009af9; stroke-linecap:round; stroke-linejoin:round; stroke-width:0; stroke-opacity:0.75; fill:none" points="755.837,650.659 755.837,649.334 660.512,648.751 469.861,648.751 374.536,649.334 374.536,650.659 755.837,650.659 755.837,649.334 "/>
<polyline clip-path="url(#clip223)" style="stroke:#009af9; stroke-linecap:round; stroke-linejoin:round; stroke-width:0; stroke-opacity:0.75; fill:none" points="755.837,648.169 755.837,646.972 374.536,646.972 374.536,648.169 469.861,648.751 660.512,648.751 755.837,648.169 755.837,646.972 "/>
<polyline clip-path="url(#clip223)" style="stroke:#009af9; stroke-linecap:round; stroke-linejoin:round; stroke-width:0; stroke-opacity:0.75; fill:none" points="565.187,642.796 469.861,642.796 660.512,642.796 565.187,642.796 565.187,646.972 "/>
<path clip-path="url(#clip223)" d="M1327.79 767.084 L1232.46 767.084 L1423.11 767.084 L1327.79 767.084 L1327.79 693.045 L1327.79 767.084  Z" fill="#e26f46" fill-rule="evenodd" fill-opacity="0.25"/>
<polyline clip-path="url(#clip223)" style="stroke:#000000; stroke-linecap:round; stroke-linejoin:round; stroke-width:4; stroke-opacity:1; fill:none" points="1327.79,767.084 1232.46,767.084 1423.11,767.084 1327.79,767.084 1327.79,693.045 1327.79,767.084 "/>
<path clip-path="url(#clip223)" d="M1518.44 693.045 L1518.44 659.57 L1137.14 659.57 L1137.14 693.045 L1518.44 693.045 L1518.44 659.57 L1518.44 693.045  Z" fill="#e26f46" fill-rule="evenodd" fill-opacity="0.25"/>
<polyline clip-path="url(#clip223)" style="stroke:#000000; stroke-linecap:round; stroke-linejoin:round; stroke-width:4; stroke-opacity:1; fill:none" points="1518.44,693.045 1518.44,659.57 1137.14,659.57 1137.14,693.045 1518.44,693.045 1518.44,659.57 1518.44,693.045 "/>
<path clip-path="url(#clip223)" d="M1518.44 608.654 L1137.14 608.654 L1137.14 659.57 L1518.44 659.57 L1518.44 608.654 L1327.79 608.654 L1518.44 608.654  Z" fill="#e26f46" fill-rule="evenodd" fill-opacity="0.25"/>
<polyline clip-path="url(#clip223)" style="stroke:#000000; stroke-linecap:round; stroke-linejoin:round; stroke-width:4; stroke-opacity:1; fill:none" points="1518.44,608.654 1137.14,608.654 1137.14,659.57 1518.44,659.57 1518.44,608.654 1327.79,608.654 1518.44,608.654 "/>
<path clip-path="url(#clip223)" d="M1327.79 526.403 L1232.46 526.403 L1423.11 526.403 L1327.79 526.403 L1327.79 608.654 L1327.79 526.403  Z" fill="#e26f46" fill-rule="evenodd" fill-opacity="0.25"/>
<polyline clip-path="url(#clip223)" style="stroke:#000000; stroke-linecap:round; stroke-linejoin:round; stroke-width:4; stroke-opacity:1; fill:none" points="1327.79,526.403 1232.46,526.403 1423.11,526.403 1327.79,526.403 1327.79,608.654 1327.79,526.403 "/>
<polyline clip-path="url(#clip223)" style="stroke:#e26f46; stroke-linecap:round; stroke-linejoin:round; stroke-width:0; stroke-opacity:1; fill:none" points="1327.79,767.084 1232.46,767.084 1423.11,767.084 1327.79,767.084 1327.79,693.045 "/>
<polyline clip-path="url(#clip223)" style="stroke:#e26f46; stroke-linecap:round; stroke-linejoin:round; stroke-width:0; stroke-opacity:1; fill:none" points="1518.44,693.045 1518.44,659.57 1137.14,659.57 1137.14,693.045 1518.44,693.045 1518.44,659.57 "/>
<polyline clip-path="url(#clip223)" style="stroke:#e26f46; stroke-linecap:round; stroke-linejoin:round; stroke-width:0; stroke-opacity:1; fill:none" points="1518.44,608.654 1137.14,608.654 1137.14,659.57 1518.44,659.57 1518.44,608.654 1327.79,608.654 "/>
<polyline clip-path="url(#clip223)" style="stroke:#e26f46; stroke-linecap:round; stroke-linejoin:round; stroke-width:0; stroke-opacity:1; fill:none" points="1327.79,526.403 1232.46,526.403 1423.11,526.403 1327.79,526.403 1327.79,608.654 "/>
<path clip-path="url(#clip220)" d="M791.031 275.95 L1512.34 275.95 L1512.34 81.5496 L791.031 81.5496  Z" fill="#ffffff" fill-rule="evenodd" fill-opacity="1"/>
<polyline clip-path="url(#clip220)" style="stroke:#000000; stroke-linecap:round; stroke-linejoin:round; stroke-width:4; stroke-opacity:1; fill:none" points="791.031,275.95 1512.34,275.95 1512.34,81.5496 791.031,81.5496 791.031,275.95 "/>
<path clip-path="url(#clip220)" d="M804.504 172.27 L885.34 172.27 L885.34 120.43 L804.504 120.43 L804.504 172.27  Z" fill="#009af9" fill-rule="evenodd" fill-opacity="0.25"/>
<polyline clip-path="url(#clip220)" style="stroke:#000000; stroke-linecap:round; stroke-linejoin:round; stroke-width:10; stroke-opacity:1; fill:none" points="804.504,172.27 885.34,172.27 885.34,120.43 804.504,120.43 804.504,172.27 "/>
<path clip-path="url(#clip220)" d="M947.912 155.489 Q947.912 155.899 947.795 156.543 Q947.677 157.158 947.209 158.154 Q946.741 159.12 946.009 159.91 Q945.306 160.701 943.901 161.286 Q942.525 161.872 940.709 161.872 Q935.059 161.872 931.897 160.291 Q931.018 159.852 930.345 159.354 Q929.671 158.827 929.232 158.359 Q928.793 157.861 928.471 157.158 Q928.178 156.426 928.032 155.928 Q927.885 155.401 927.798 154.494 Q927.739 153.557 927.71 153.03 Q927.71 152.474 927.71 151.361 Q927.71 147.789 927.417 146.53 Q927.154 145.242 925.777 143.749 Q923.933 141.699 920.449 141.699 L913.451 141.699 L913.451 158.388 L919.922 158.388 L919.922 161.199 Q917.755 161.023 909.352 161.023 Q900.979 161.023 898.812 161.199 L898.812 158.388 L905.283 158.388 L905.283 122.874 L898.812 122.874 L898.812 120.063 L921.591 120.063 Q929.789 120.063 934.619 123.254 Q939.45 126.445 939.45 131.159 Q939.45 134.321 936.932 136.927 Q934.414 139.533 929.437 140.821 Q935.176 142.988 936.171 147.818 Q936.2 147.936 936.464 150.249 Q936.757 152.532 936.815 152.913 Q936.932 153.938 937.02 154.611 Q937.137 155.284 937.459 156.368 Q937.781 157.422 938.221 158.066 Q938.66 158.71 939.45 159.208 Q940.241 159.705 941.266 159.705 Q942.7 159.705 943.783 158.622 Q944.896 157.539 945.101 155.548 Q945.13 155.167 945.16 154.992 Q945.218 154.787 945.335 154.582 Q945.452 154.347 945.716 154.26 Q946.009 154.172 946.477 154.172 Q946.887 154.172 947.121 154.23 Q947.385 154.26 947.648 154.582 Q947.912 154.874 947.912 155.489 M930.286 131.218 Q930.286 130.427 930.257 129.959 Q930.257 129.49 930.169 128.7 Q930.081 127.909 929.906 127.412 Q929.73 126.914 929.379 126.241 Q929.057 125.567 928.559 125.157 Q928.09 124.718 927.329 124.25 Q926.597 123.752 925.631 123.488 Q924.694 123.225 923.377 123.049 Q922.088 122.874 920.507 122.874 L913.451 122.874 L913.451 139.562 L920.39 139.562 Q922.44 139.562 924.05 139.269 Q925.66 138.947 926.685 138.537 Q927.71 138.098 928.442 137.337 Q929.174 136.546 929.525 135.961 Q929.876 135.346 930.052 134.351 Q930.228 133.326 930.257 132.77 Q930.286 132.213 930.286 131.218 Z" fill="#000000" fill-rule="nonzero" fill-opacity="1" /><path clip-path="url(#clip220)" d="M977.707 154.172 Q977.707 154.552 977.385 155.343 Q977.063 156.104 976.155 157.217 Q975.277 158.3 973.988 159.266 Q972.729 160.203 970.504 160.876 Q968.308 161.55 965.644 161.55 Q958.5 161.55 954.255 157.685 Q950.01 153.82 950.01 147.701 Q950.01 144.861 950.976 142.402 Q951.971 139.943 953.787 138.069 Q955.602 136.195 958.442 135.112 Q961.282 134.028 964.795 134.028 Q971.002 134.028 974.34 137.278 Q975.716 138.654 976.506 140.645 Q977.326 142.607 977.502 143.924 Q977.707 145.242 977.707 146.501 Q977.707 147.613 977.297 147.877 Q976.916 148.14 975.774 148.14 L957.681 148.14 Q957.681 149.107 957.681 149.751 Q957.71 150.366 957.885 151.625 Q958.061 152.884 958.354 153.791 Q958.647 154.67 959.262 155.753 Q959.906 156.836 960.784 157.539 Q961.662 158.212 963.038 158.681 Q964.415 159.149 966.171 159.149 Q969.099 159.149 971.441 157.832 Q973.813 156.514 974.75 154.377 Q975.042 153.586 975.277 153.352 Q975.54 153.118 976.272 153.118 Q977.707 153.118 977.707 154.172 M971.998 146.15 Q971.734 136.195 964.795 136.195 Q963.273 136.195 961.721 136.927 Q960.169 137.659 959.115 139.299 Q958.53 140.235 958.208 141.582 Q957.885 142.9 957.827 143.661 Q957.768 144.393 957.681 146.15 L971.998 146.15 Z" fill="#000000" fill-rule="nonzero" fill-opacity="1" /><path clip-path="url(#clip220)" d="M1003.9 152.796 Q1003.9 154.582 1003.34 156.046 Q1002.82 157.48 1002.03 158.388 Q1001.26 159.266 1000.09 159.91 Q998.923 160.554 997.956 160.876 Q997.02 161.169 995.79 161.345 Q994.56 161.521 994.004 161.521 Q993.477 161.55 992.803 161.55 Q988.441 161.55 985.718 159.647 L984.166 160.672 Q983.288 161.286 982.995 161.403 Q982.732 161.55 982.381 161.55 Q981.619 161.55 981.444 161.199 Q981.297 160.876 981.297 159.881 L981.297 153.352 Q981.297 152.239 981.502 151.917 Q981.707 151.595 982.732 151.595 Q983.23 151.595 983.435 151.625 Q983.639 151.654 983.815 151.859 Q984.02 152.034 984.166 152.444 Q984.459 153.44 984.723 154.201 Q985.016 154.933 985.689 155.987 Q986.362 157.041 987.211 157.744 Q988.09 158.417 989.524 158.915 Q990.988 159.413 992.803 159.413 Q993.36 159.413 993.77 159.383 Q994.209 159.354 995.116 159.266 Q996.053 159.149 996.727 158.856 Q997.429 158.534 998.132 158.095 Q998.864 157.627 999.245 156.807 Q999.655 155.987 999.655 154.904 Q999.655 153.908 999.128 153.118 Q998.63 152.298 997.956 151.83 Q997.283 151.361 996.229 151.01 Q995.175 150.629 994.531 150.512 Q993.887 150.366 992.979 150.219 Q988.295 149.37 986.919 148.843 Q985.133 148.199 983.698 146.94 Q981.297 144.891 981.297 141.904 Q981.297 140.294 981.824 139.006 Q982.381 137.718 983.142 136.927 Q983.932 136.107 985.103 135.522 Q986.274 134.936 987.211 134.673 Q988.178 134.38 989.378 134.233 Q990.608 134.058 991.135 134.058 Q991.691 134.028 992.335 134.028 Q996.141 134.028 998.396 135.17 Q1000.74 134.028 1001.09 134.028 Q1001.62 134.028 1001.85 134.263 Q1002.08 134.468 1002.11 134.76 Q1002.17 135.024 1002.17 135.727 L1002.17 140.499 Q1002.17 141.611 1001.94 141.904 Q1001.73 142.197 1000.71 142.197 Q999.83 142.197 999.596 141.963 Q999.391 141.729 999.333 140.997 Q998.893 135.961 992.276 135.961 Q991.867 135.961 991.515 135.99 Q991.193 135.99 990.432 136.078 Q989.7 136.136 989.114 136.254 Q988.558 136.371 987.826 136.664 Q987.124 136.927 986.655 137.308 Q986.187 137.688 985.865 138.303 Q985.543 138.918 985.543 139.679 Q985.543 140.265 985.777 140.762 Q986.04 141.26 986.333 141.611 Q986.655 141.963 987.27 142.285 Q987.885 142.578 988.295 142.753 Q988.734 142.929 989.495 143.134 Q990.256 143.31 990.578 143.368 Q990.93 143.427 991.662 143.573 Q995.585 144.247 997.254 144.744 Q998.952 145.242 1000.59 146.442 Q1003.9 149.048 1003.9 152.796 Z" fill="#000000" fill-rule="nonzero" fill-opacity="1" /><path clip-path="url(#clip220)" d="M1021.14 161.199 L1014.11 161.023 L1006.8 161.199 L1006.8 158.388 L1010.95 158.388 L1010.95 139.855 Q1010.95 138.157 1010.34 137.835 Q1009.72 137.513 1006.97 137.513 L1006.97 134.702 L1017.42 134.204 L1017.42 158.388 L1021.14 158.388 L1021.14 161.199 M1016.87 121.497 Q1018.24 122.874 1018.24 124.806 Q1018.24 126.738 1016.87 128.114 Q1015.52 129.49 1013.59 129.49 Q1011.66 129.49 1010.28 128.114 Q1008.9 126.738 1008.9 124.806 Q1008.9 122.874 1010.28 121.497 Q1011.66 120.121 1013.59 120.121 Q1015.52 120.121 1016.87 121.497 Z" fill="#000000" fill-rule="nonzero" fill-opacity="1" /><path clip-path="url(#clip220)" d="M1061.17 161.199 L1050.19 161.55 L1050.19 158.622 Q1046.56 161.55 1041.79 161.55 Q1035.23 161.55 1031.3 157.773 Q1027.41 153.967 1027.41 147.936 Q1027.41 141.67 1031.6 137.952 Q1035.81 134.204 1042.46 134.204 Q1047.06 134.204 1050.54 136.927 L1050.54 125.216 Q1050.54 123.518 1049.92 123.196 Q1049.31 122.874 1046.41 122.874 L1046.41 120.063 L1057.04 119.594 L1057.04 156.046 Q1057.04 157.744 1057.65 158.066 Q1058.27 158.388 1061.17 158.388 L1061.17 161.199 M1050.19 155.021 L1050.19 140.03 Q1049.02 138.508 1047.2 137.454 Q1045.39 136.371 1043.04 136.371 Q1041.32 136.371 1039.56 137.103 Q1037.8 137.805 1036.63 139.503 Q1035.9 140.587 1035.52 142.197 Q1035.17 143.807 1035.11 144.891 Q1035.08 145.974 1035.08 147.936 Q1035.08 148.902 1035.08 149.458 Q1035.11 149.985 1035.17 151.068 Q1035.23 152.122 1035.34 152.796 Q1035.46 153.469 1035.73 154.435 Q1035.99 155.401 1036.34 156.016 Q1036.69 156.631 1037.25 157.363 Q1037.8 158.066 1038.51 158.476 Q1039.24 158.856 1040.2 159.149 Q1041.2 159.413 1042.4 159.413 Q1047 159.413 1050.19 155.021 Z" fill="#000000" fill-rule="nonzero" fill-opacity="1" /><path clip-path="url(#clip220)" d="M1098.33 161.199 L1087.71 161.55 L1087.71 156.895 Q1084.98 161.55 1079.07 161.55 Q1076.64 161.55 1074.82 161.228 Q1073.04 160.906 1071.46 160.115 Q1069.91 159.295 1069.09 157.714 Q1068.27 156.133 1068.27 153.82 L1068.27 139.855 Q1068.27 138.157 1067.65 137.835 Q1067.04 137.513 1064.14 137.513 L1064.14 134.702 L1075.12 134.204 L1075.12 154.67 Q1075.12 156.104 1075.21 156.836 Q1075.32 157.539 1075.76 158.241 Q1076.23 158.915 1077.23 159.178 Q1078.22 159.413 1079.92 159.413 Q1083.23 159.413 1085.28 157.187 Q1087.36 154.962 1087.36 151.303 L1087.36 139.855 Q1087.36 138.157 1086.71 137.835 Q1086.1 137.513 1083.2 137.513 L1083.2 134.702 L1094.18 134.204 L1094.18 156.046 Q1094.18 157.744 1094.79 158.066 Q1095.44 158.388 1098.33 158.388 L1098.33 161.199 Z" fill="#000000" fill-rule="nonzero" fill-opacity="1" /><path clip-path="url(#clip220)" d="M1134.11 159.764 Q1134.11 160.291 1133.99 160.613 Q1133.87 160.906 1133.55 161.023 Q1133.26 161.14 1132.99 161.169 Q1132.73 161.199 1132.18 161.199 L1129.31 161.199 Q1127.52 161.199 1126.26 160.876 Q1125.03 160.525 1124.42 160.115 Q1123.8 159.705 1123.48 158.973 Q1123.16 158.241 1123.1 157.802 Q1123.07 157.334 1123.07 156.573 Q1121.96 158.71 1119.7 160.145 Q1117.48 161.55 1114.14 161.55 Q1112.73 161.55 1111.33 161.403 Q1109.92 161.257 1108.28 160.818 Q1106.64 160.349 1105.41 159.647 Q1104.19 158.915 1103.37 157.656 Q1102.55 156.368 1102.55 154.728 Q1102.55 146.12 1122.04 145.301 L1122.04 143.28 Q1122.04 136.195 1115.46 136.195 Q1113.06 136.195 1111.12 136.605 Q1111.3 136.722 1111.56 137.015 Q1111.83 137.308 1112.12 138.04 Q1112.44 138.772 1112.44 139.562 Q1112.44 141.348 1111.3 142.343 Q1110.19 143.339 1108.66 143.339 Q1107.26 143.339 1106.09 142.373 Q1104.95 141.377 1104.95 139.562 Q1104.95 134.028 1115.69 134.028 Q1122.16 134.028 1125.5 136.576 Q1128.87 139.094 1128.87 143.28 L1128.87 156.163 Q1128.87 156.807 1128.93 157.1 Q1128.98 157.392 1129.31 157.744 Q1129.63 158.095 1130.39 158.241 Q1131.18 158.359 1132.53 158.388 Q1133.05 158.388 1133.32 158.446 Q1133.58 158.476 1133.84 158.798 Q1134.11 159.12 1134.11 159.764 M1122.04 152.854 L1122.04 147.174 Q1121.02 147.233 1120.05 147.35 Q1119.09 147.467 1117.51 147.76 Q1115.93 148.023 1114.64 148.58 Q1113.38 149.107 1112.15 149.897 Q1110.95 150.658 1110.25 151.888 Q1109.57 153.118 1109.57 154.67 Q1109.57 156.66 1111.15 158.036 Q1112.73 159.413 1115.02 159.413 Q1115.6 159.413 1116.34 159.295 Q1117.07 159.178 1118.12 158.768 Q1119.18 158.329 1120 157.656 Q1120.84 156.982 1121.43 155.753 Q1122.04 154.494 1122.04 152.854 Z" fill="#000000" fill-rule="nonzero" fill-opacity="1" /><path clip-path="url(#clip220)" d="M1150.23 161.199 L1142.86 161.023 L1135.48 161.199 L1135.48 158.388 L1139.64 158.388 L1139.64 125.216 Q1139.64 123.518 1138.99 123.196 Q1138.38 122.874 1135.48 122.874 L1135.48 120.063 L1146.11 119.594 L1146.11 158.388 L1150.23 158.388 L1150.23 161.199 Z" fill="#000000" fill-rule="nonzero" fill-opacity="1" /><path clip-path="url(#clip220)" d="M1181.83 161.199 Q1179.19 161.023 1169.88 161.023 Q1160.6 161.023 1157.97 161.199 L1157.97 158.388 L1166.28 158.388 L1166.28 127.382 Q1162.56 128.583 1158.49 128.583 L1157.29 128.583 L1157.29 125.772 L1158.49 125.772 Q1165.93 125.772 1170.56 122.347 Q1170.94 122.054 1171.14 121.995 Q1171.35 121.937 1171.87 121.937 Q1172.96 121.937 1173.19 122.317 Q1173.43 122.698 1173.43 123.84 L1173.43 158.388 L1181.83 158.388 L1181.83 161.199 Z" fill="#000000" fill-rule="nonzero" fill-opacity="1" /><path clip-path="url(#clip220)" d="M1209 160.291 Q1208.06 159.354 1208.06 158.036 Q1208.06 156.719 1209 155.782 Q1209.93 154.845 1211.25 154.845 Q1212.57 154.845 1213.5 155.782 Q1214.44 156.719 1214.44 158.036 Q1214.44 159.354 1213.5 160.291 Q1212.57 161.199 1211.25 161.199 Q1209.93 161.199 1209 160.291 M1209 140.792 Q1208.06 139.855 1208.06 138.537 Q1208.06 137.22 1209 136.283 Q1209.93 135.346 1211.25 135.346 Q1212.57 135.346 1213.5 136.283 Q1214.44 137.22 1214.44 138.537 Q1214.44 139.855 1213.5 140.792 Q1212.57 141.699 1211.25 141.699 Q1209.93 141.699 1209 140.792 Z" fill="#000000" fill-rule="nonzero" fill-opacity="1" /><path clip-path="url(#clip220)" d="M1291.61 120.912 Q1291.61 122.112 1290.59 122.112 Q1287.28 122.229 1285.93 123.342 Q1284.61 124.425 1284.12 126.533 L1275.74 159.94 Q1275.45 160.994 1275.27 161.111 Q1275.1 161.199 1274.78 161.199 Q1274.37 161.199 1274.13 160.994 Q1273.93 160.789 1273.64 160.057 L1258.7 124.747 Q1258.59 124.513 1258.44 124.191 Q1258.29 123.869 1258.18 123.664 L1250.24 155.314 Q1250.01 156.221 1250.01 156.69 Q1250.01 157.832 1250.8 158.563 Q1251.62 159.266 1253.96 159.354 Q1255.16 159.354 1255.16 159.998 Q1255.16 161.199 1254.08 161.199 Q1253.08 161.199 1251 161.111 Q1248.92 161.023 1247.9 161.023 Q1246.9 161.023 1244.88 161.111 Q1242.86 161.199 1241.9 161.199 Q1241.14 161.199 1241.14 160.525 Q1241.14 159.998 1241.34 159.735 Q1241.55 159.442 1241.72 159.413 Q1241.9 159.354 1242.16 159.354 Q1243.92 159.295 1245.12 158.944 Q1246.32 158.593 1246.99 157.919 Q1247.69 157.246 1248.02 156.573 Q1248.37 155.87 1248.63 154.845 L1256.65 122.639 Q1256.65 122.112 1252.58 122.112 Q1251.88 122.112 1251.59 122.083 Q1251.33 122.054 1251.12 121.907 Q1250.92 121.761 1250.92 121.439 Q1250.92 120.619 1251.27 120.443 Q1251.62 120.239 1252.64 120.239 L1260.69 120.239 Q1261.72 120.239 1261.98 120.414 Q1262.25 120.561 1262.6 121.38 L1275.86 152.679 L1282.57 126.006 Q1282.74 125.479 1282.74 124.747 Q1282.74 123.576 1281.86 122.874 Q1281.01 122.142 1278.67 122.112 Q1277.59 122.112 1277.59 121.439 Q1277.59 120.883 1277.79 120.619 Q1278.03 120.326 1278.2 120.297 Q1278.41 120.239 1278.67 120.239 Q1279.67 120.239 1281.72 120.326 Q1283.77 120.414 1284.79 120.414 Q1285.79 120.414 1287.81 120.326 Q1289.86 120.239 1290.85 120.239 Q1291.2 120.239 1291.38 120.414 Q1291.58 120.561 1291.61 120.736 L1291.61 120.912 Z" fill="#000000" fill-rule="nonzero" fill-opacity="1" /><path clip-path="url(#clip220)" d="M1297.69 146.208 Q1297.69 136.078 1301.46 127.909 Q1303.07 124.484 1305.33 121.615 Q1307.58 118.745 1309.08 117.486 Q1310.57 116.227 1310.98 116.227 Q1311.57 116.227 1311.59 116.813 Q1311.59 117.106 1310.8 117.838 Q1301.14 127.675 1301.17 146.208 Q1301.17 164.8 1310.57 174.257 Q1311.59 175.281 1311.59 175.603 Q1311.59 176.189 1310.98 176.189 Q1310.57 176.189 1309.14 174.988 Q1307.7 173.788 1305.48 171.036 Q1303.25 168.284 1301.64 164.917 Q1297.69 156.748 1297.69 146.208 Z" fill="#000000" fill-rule="nonzero" fill-opacity="1" /><path clip-path="url(#clip220)" d="M1317.35 142.021 Q1317.35 133.209 1319.58 128.407 Q1322.68 121.263 1330 121.263 Q1331.55 121.263 1333.16 121.702 Q1334.8 122.112 1336.85 123.723 Q1338.93 125.333 1340.19 127.968 Q1342.59 133.062 1342.59 142.021 Q1342.59 150.776 1340.36 155.548 Q1337.11 162.516 1329.94 162.516 Q1327.25 162.516 1324.49 161.14 Q1321.77 159.764 1320.04 156.455 Q1317.35 151.507 1317.35 142.021 M1322.33 141.289 Q1322.33 150.336 1322.97 153.938 Q1323.7 157.832 1325.7 159.53 Q1327.72 161.199 1329.94 161.199 Q1332.34 161.199 1334.33 159.413 Q1336.35 157.597 1336.97 153.703 Q1337.64 149.868 1337.61 141.289 Q1337.61 132.945 1337.03 129.607 Q1336.24 125.714 1334.13 124.162 Q1332.05 122.581 1329.94 122.581 Q1329.15 122.581 1328.3 122.815 Q1327.48 123.049 1326.28 123.723 Q1325.08 124.396 1324.14 126.065 Q1323.24 127.734 1322.8 130.252 Q1322.33 133.501 1322.33 141.289 Z" fill="#000000" fill-rule="nonzero" fill-opacity="1" /><path clip-path="url(#clip220)" d="M1347.89 160.232 Q1347.04 159.266 1347.04 158.007 Q1347.04 156.748 1347.86 155.811 Q1348.71 154.845 1350.23 154.845 Q1352.02 154.845 1353.05 156.573 Q1354.07 158.271 1354.07 161.14 Q1354.07 164.243 1352.81 167.113 Q1351.55 170.011 1350.32 171.387 Q1349.09 172.763 1348.6 172.763 Q1348.01 172.763 1348.01 172.119 Q1348.01 171.885 1348.42 171.446 Q1352.72 166.82 1352.75 161.14 Q1352.75 160.232 1352.64 160.232 L1352.49 160.349 Q1351.46 161.199 1350.23 161.199 Q1348.74 161.199 1347.89 160.232 Z" fill="#000000" fill-rule="nonzero" fill-opacity="1" /><path clip-path="url(#clip220)" d="M1372.99 142.021 Q1372.99 133.209 1375.22 128.407 Q1378.32 121.263 1385.64 121.263 Q1387.19 121.263 1388.8 121.702 Q1390.44 122.112 1392.49 123.723 Q1394.57 125.333 1395.83 127.968 Q1398.23 133.062 1398.23 142.021 Q1398.23 150.776 1396 155.548 Q1392.75 162.516 1385.58 162.516 Q1382.89 162.516 1380.14 161.14 Q1377.41 159.764 1375.68 156.455 Q1372.99 151.507 1372.99 142.021 M1377.97 141.289 Q1377.97 150.336 1378.61 153.938 Q1379.34 157.832 1381.34 159.53 Q1383.36 161.199 1385.58 161.199 Q1387.98 161.199 1389.97 159.413 Q1391.99 157.597 1392.61 153.703 Q1393.28 149.868 1393.25 141.289 Q1393.25 132.945 1392.67 129.607 Q1391.88 125.714 1389.77 124.162 Q1387.69 122.581 1385.58 122.581 Q1384.79 122.581 1383.94 122.815 Q1383.12 123.049 1381.92 123.723 Q1380.72 124.396 1379.78 126.065 Q1378.88 127.734 1378.44 130.252 Q1377.97 133.501 1377.97 141.289 Z" fill="#000000" fill-rule="nonzero" fill-opacity="1" /><path clip-path="url(#clip220)" d="M1403.59 160.232 Q1402.68 159.266 1402.68 158.007 Q1402.68 156.748 1403.59 155.841 Q1404.5 154.904 1405.88 154.904 Q1407.19 154.904 1408.07 155.782 Q1408.98 156.631 1408.98 158.036 Q1408.98 159.413 1408.01 160.32 Q1407.08 161.199 1405.88 161.199 Q1404.5 161.199 1403.59 160.232 Z" fill="#000000" fill-rule="nonzero" fill-opacity="1" /><path clip-path="url(#clip220)" d="M1419.18 142.021 Q1419.18 133.209 1421.41 128.407 Q1424.51 121.263 1431.83 121.263 Q1433.38 121.263 1434.99 121.702 Q1436.63 122.112 1438.68 123.723 Q1440.76 125.333 1442.02 127.968 Q1444.42 133.062 1444.42 142.021 Q1444.42 150.776 1442.2 155.548 Q1438.95 162.516 1431.77 162.516 Q1429.08 162.516 1426.33 161.14 Q1423.6 159.764 1421.88 156.455 Q1419.18 151.507 1419.18 142.021 M1424.16 141.289 Q1424.16 150.336 1424.8 153.938 Q1425.54 157.832 1427.53 159.53 Q1429.55 161.199 1431.77 161.199 Q1434.17 161.199 1436.16 159.413 Q1438.18 157.597 1438.8 153.703 Q1439.47 149.868 1439.44 141.289 Q1439.44 132.945 1438.86 129.607 Q1438.07 125.714 1435.96 124.162 Q1433.88 122.581 1431.77 122.581 Q1430.98 122.581 1430.13 122.815 Q1429.31 123.049 1428.11 123.723 Q1426.91 124.396 1425.98 126.065 Q1425.07 127.734 1424.63 130.252 Q1424.16 133.501 1424.16 141.289 Z" fill="#000000" fill-rule="nonzero" fill-opacity="1" /><path clip-path="url(#clip220)" d="M1447.11 126.972 L1447.11 125.099 Q1454.31 125.099 1458.03 121.263 Q1459.05 121.263 1459.23 121.497 Q1459.41 121.732 1459.41 122.815 L1459.41 156.455 Q1459.41 158.241 1460.28 158.798 Q1461.16 159.354 1465 159.354 L1466.9 159.354 L1466.9 161.199 Q1464.79 161.023 1457.18 161.023 Q1449.57 161.023 1447.49 161.199 L1447.49 159.354 L1449.39 159.354 Q1453.17 159.354 1454.08 158.827 Q1454.99 158.271 1454.99 156.455 L1454.99 125.391 Q1451.85 126.972 1447.11 126.972 Z" fill="#000000" fill-rule="nonzero" fill-opacity="1" /><path clip-path="url(#clip220)" d="M1475.84 175.603 Q1475.84 175.311 1476.6 174.579 Q1486.26 164.741 1486.26 146.208 Q1486.26 127.617 1476.98 118.218 Q1475.84 117.135 1475.84 116.813 Q1475.84 116.227 1476.43 116.227 Q1476.84 116.227 1478.27 117.428 Q1479.74 118.628 1481.93 121.38 Q1484.16 124.132 1485.8 127.499 Q1489.75 135.668 1489.75 146.208 Q1489.75 156.338 1485.97 164.507 Q1484.36 167.932 1482.11 170.802 Q1479.85 173.671 1478.36 174.93 Q1476.87 176.189 1476.43 176.189 Q1475.84 176.189 1475.84 175.603 Z" fill="#000000" fill-rule="nonzero" fill-opacity="1" /><path clip-path="url(#clip220)" d="M804.504 237.07 L885.34 237.07 L885.34 185.23 L804.504 185.23 L804.504 237.07  Z" fill="#e26f46" fill-rule="evenodd" fill-opacity="0.25"/>
<polyline clip-path="url(#clip220)" style="stroke:#000000; stroke-linecap:round; stroke-linejoin:round; stroke-width:5; stroke-opacity:1; fill:none" points="804.504,237.07 885.34,237.07 885.34,185.23 804.504,185.23 804.504,237.07 "/>
<path clip-path="url(#clip220)" d="M947.912 220.289 Q947.912 220.699 947.795 221.343 Q947.677 221.958 947.209 222.954 Q946.741 223.92 946.009 224.71 Q945.306 225.501 943.901 226.086 Q942.525 226.672 940.709 226.672 Q935.059 226.672 931.897 225.091 Q931.018 224.652 930.345 224.154 Q929.671 223.627 929.232 223.159 Q928.793 222.661 928.471 221.958 Q928.178 221.226 928.032 220.728 Q927.885 220.201 927.798 219.294 Q927.739 218.357 927.71 217.83 Q927.71 217.274 927.71 216.161 Q927.71 212.589 927.417 211.33 Q927.154 210.042 925.777 208.549 Q923.933 206.499 920.449 206.499 L913.451 206.499 L913.451 223.188 L919.922 223.188 L919.922 225.999 Q917.755 225.823 909.352 225.823 Q900.979 225.823 898.812 225.999 L898.812 223.188 L905.283 223.188 L905.283 187.674 L898.812 187.674 L898.812 184.863 L921.591 184.863 Q929.789 184.863 934.619 188.054 Q939.45 191.245 939.45 195.959 Q939.45 199.121 936.932 201.727 Q934.414 204.333 929.437 205.621 Q935.176 207.788 936.171 212.618 Q936.2 212.736 936.464 215.049 Q936.757 217.332 936.815 217.713 Q936.932 218.738 937.02 219.411 Q937.137 220.084 937.459 221.168 Q937.781 222.222 938.221 222.866 Q938.66 223.51 939.45 224.008 Q940.241 224.505 941.266 224.505 Q942.7 224.505 943.783 223.422 Q944.896 222.339 945.101 220.348 Q945.13 219.967 945.16 219.792 Q945.218 219.587 945.335 219.382 Q945.452 219.147 945.716 219.06 Q946.009 218.972 946.477 218.972 Q946.887 218.972 947.121 219.03 Q947.385 219.06 947.648 219.382 Q947.912 219.674 947.912 220.289 M930.286 196.018 Q930.286 195.227 930.257 194.759 Q930.257 194.29 930.169 193.5 Q930.081 192.709 929.906 192.212 Q929.73 191.714 929.379 191.041 Q929.057 190.367 928.559 189.957 Q928.09 189.518 927.329 189.05 Q926.597 188.552 925.631 188.288 Q924.694 188.025 923.377 187.849 Q922.088 187.674 920.507 187.674 L913.451 187.674 L913.451 204.362 L920.39 204.362 Q922.44 204.362 924.05 204.069 Q925.66 203.747 926.685 203.337 Q927.71 202.898 928.442 202.137 Q929.174 201.346 929.525 200.761 Q929.876 200.146 930.052 199.151 Q930.228 198.126 930.257 197.57 Q930.286 197.013 930.286 196.018 Z" fill="#000000" fill-rule="nonzero" fill-opacity="1" /><path clip-path="url(#clip220)" d="M977.707 218.972 Q977.707 219.352 977.385 220.143 Q977.063 220.904 976.155 222.017 Q975.277 223.1 973.988 224.066 Q972.729 225.003 970.504 225.676 Q968.308 226.35 965.644 226.35 Q958.5 226.35 954.255 222.485 Q950.01 218.62 950.01 212.501 Q950.01 209.661 950.976 207.202 Q951.971 204.743 953.787 202.869 Q955.602 200.995 958.442 199.912 Q961.282 198.828 964.795 198.828 Q971.002 198.828 974.34 202.078 Q975.716 203.454 976.506 205.445 Q977.326 207.407 977.502 208.724 Q977.707 210.042 977.707 211.301 Q977.707 212.413 977.297 212.677 Q976.916 212.94 975.774 212.94 L957.681 212.94 Q957.681 213.907 957.681 214.551 Q957.71 215.166 957.885 216.425 Q958.061 217.684 958.354 218.591 Q958.647 219.47 959.262 220.553 Q959.906 221.636 960.784 222.339 Q961.662 223.012 963.038 223.481 Q964.415 223.949 966.171 223.949 Q969.099 223.949 971.441 222.632 Q973.813 221.314 974.75 219.177 Q975.042 218.386 975.277 218.152 Q975.54 217.918 976.272 217.918 Q977.707 217.918 977.707 218.972 M971.998 210.95 Q971.734 200.995 964.795 200.995 Q963.273 200.995 961.721 201.727 Q960.169 202.459 959.115 204.099 Q958.53 205.035 958.208 206.382 Q957.885 207.7 957.827 208.461 Q957.768 209.193 957.681 210.95 L971.998 210.95 Z" fill="#000000" fill-rule="nonzero" fill-opacity="1" /><path clip-path="url(#clip220)" d="M1003.9 217.596 Q1003.9 219.382 1003.34 220.846 Q1002.82 222.28 1002.03 223.188 Q1001.26 224.066 1000.09 224.71 Q998.923 225.354 997.956 225.676 Q997.02 225.969 995.79 226.145 Q994.56 226.321 994.004 226.321 Q993.477 226.35 992.803 226.35 Q988.441 226.35 985.718 224.447 L984.166 225.472 Q983.288 226.086 982.995 226.203 Q982.732 226.35 982.381 226.35 Q981.619 226.35 981.444 225.999 Q981.297 225.676 981.297 224.681 L981.297 218.152 Q981.297 217.039 981.502 216.717 Q981.707 216.395 982.732 216.395 Q983.23 216.395 983.435 216.425 Q983.639 216.454 983.815 216.659 Q984.02 216.834 984.166 217.244 Q984.459 218.24 984.723 219.001 Q985.016 219.733 985.689 220.787 Q986.362 221.841 987.211 222.544 Q988.09 223.217 989.524 223.715 Q990.988 224.213 992.803 224.213 Q993.36 224.213 993.77 224.183 Q994.209 224.154 995.116 224.066 Q996.053 223.949 996.727 223.656 Q997.429 223.334 998.132 222.895 Q998.864 222.427 999.245 221.607 Q999.655 220.787 999.655 219.704 Q999.655 218.708 999.128 217.918 Q998.63 217.098 997.956 216.63 Q997.283 216.161 996.229 215.81 Q995.175 215.429 994.531 215.312 Q993.887 215.166 992.979 215.019 Q988.295 214.17 986.919 213.643 Q985.133 212.999 983.698 211.74 Q981.297 209.691 981.297 206.704 Q981.297 205.094 981.824 203.806 Q982.381 202.518 983.142 201.727 Q983.932 200.907 985.103 200.322 Q986.274 199.736 987.211 199.473 Q988.178 199.18 989.378 199.033 Q990.608 198.858 991.135 198.858 Q991.691 198.828 992.335 198.828 Q996.141 198.828 998.396 199.97 Q1000.74 198.828 1001.09 198.828 Q1001.62 198.828 1001.85 199.063 Q1002.08 199.268 1002.11 199.56 Q1002.17 199.824 1002.17 200.527 L1002.17 205.299 Q1002.17 206.411 1001.94 206.704 Q1001.73 206.997 1000.71 206.997 Q999.83 206.997 999.596 206.763 Q999.391 206.529 999.333 205.797 Q998.893 200.761 992.276 200.761 Q991.867 200.761 991.515 200.79 Q991.193 200.79 990.432 200.878 Q989.7 200.936 989.114 201.054 Q988.558 201.171 987.826 201.464 Q987.124 201.727 986.655 202.108 Q986.187 202.488 985.865 203.103 Q985.543 203.718 985.543 204.479 Q985.543 205.065 985.777 205.562 Q986.04 206.06 986.333 206.411 Q986.655 206.763 987.27 207.085 Q987.885 207.378 988.295 207.553 Q988.734 207.729 989.495 207.934 Q990.256 208.11 990.578 208.168 Q990.93 208.227 991.662 208.373 Q995.585 209.047 997.254 209.544 Q998.952 210.042 1000.59 211.242 Q1003.9 213.848 1003.9 217.596 Z" fill="#000000" fill-rule="nonzero" fill-opacity="1" /><path clip-path="url(#clip220)" d="M1021.14 225.999 L1014.11 225.823 L1006.8 225.999 L1006.8 223.188 L1010.95 223.188 L1010.95 204.655 Q1010.95 202.957 1010.34 202.635 Q1009.72 202.313 1006.97 202.313 L1006.97 199.502 L1017.42 199.004 L1017.42 223.188 L1021.14 223.188 L1021.14 225.999 M1016.87 186.297 Q1018.24 187.674 1018.24 189.606 Q1018.24 191.538 1016.87 192.914 Q1015.52 194.29 1013.59 194.29 Q1011.66 194.29 1010.28 192.914 Q1008.9 191.538 1008.9 189.606 Q1008.9 187.674 1010.28 186.297 Q1011.66 184.921 1013.59 184.921 Q1015.52 184.921 1016.87 186.297 Z" fill="#000000" fill-rule="nonzero" fill-opacity="1" /><path clip-path="url(#clip220)" d="M1061.17 225.999 L1050.19 226.35 L1050.19 223.422 Q1046.56 226.35 1041.79 226.35 Q1035.23 226.35 1031.3 222.573 Q1027.41 218.767 1027.41 212.736 Q1027.41 206.47 1031.6 202.752 Q1035.81 199.004 1042.46 199.004 Q1047.06 199.004 1050.54 201.727 L1050.54 190.016 Q1050.54 188.318 1049.92 187.996 Q1049.31 187.674 1046.41 187.674 L1046.41 184.863 L1057.04 184.394 L1057.04 220.846 Q1057.04 222.544 1057.65 222.866 Q1058.27 223.188 1061.17 223.188 L1061.17 225.999 M1050.19 219.821 L1050.19 204.83 Q1049.02 203.308 1047.2 202.254 Q1045.39 201.171 1043.04 201.171 Q1041.32 201.171 1039.56 201.903 Q1037.8 202.605 1036.63 204.303 Q1035.9 205.387 1035.52 206.997 Q1035.17 208.607 1035.11 209.691 Q1035.08 210.774 1035.08 212.736 Q1035.08 213.702 1035.08 214.258 Q1035.11 214.785 1035.17 215.868 Q1035.23 216.922 1035.34 217.596 Q1035.46 218.269 1035.73 219.235 Q1035.99 220.201 1036.34 220.816 Q1036.69 221.431 1037.25 222.163 Q1037.8 222.866 1038.51 223.276 Q1039.24 223.656 1040.2 223.949 Q1041.2 224.213 1042.4 224.213 Q1047 224.213 1050.19 219.821 Z" fill="#000000" fill-rule="nonzero" fill-opacity="1" /><path clip-path="url(#clip220)" d="M1098.33 225.999 L1087.71 226.35 L1087.71 221.695 Q1084.98 226.35 1079.07 226.35 Q1076.64 226.35 1074.82 226.028 Q1073.04 225.706 1071.46 224.915 Q1069.91 224.095 1069.09 222.514 Q1068.27 220.933 1068.27 218.62 L1068.27 204.655 Q1068.27 202.957 1067.65 202.635 Q1067.04 202.313 1064.14 202.313 L1064.14 199.502 L1075.12 199.004 L1075.12 219.47 Q1075.12 220.904 1075.21 221.636 Q1075.32 222.339 1075.76 223.041 Q1076.23 223.715 1077.23 223.978 Q1078.22 224.213 1079.92 224.213 Q1083.23 224.213 1085.28 221.987 Q1087.36 219.762 1087.36 216.103 L1087.36 204.655 Q1087.36 202.957 1086.71 202.635 Q1086.1 202.313 1083.2 202.313 L1083.2 199.502 L1094.18 199.004 L1094.18 220.846 Q1094.18 222.544 1094.79 222.866 Q1095.44 223.188 1098.33 223.188 L1098.33 225.999 Z" fill="#000000" fill-rule="nonzero" fill-opacity="1" /><path clip-path="url(#clip220)" d="M1134.11 224.564 Q1134.11 225.091 1133.99 225.413 Q1133.87 225.706 1133.55 225.823 Q1133.26 225.94 1132.99 225.969 Q1132.73 225.999 1132.18 225.999 L1129.31 225.999 Q1127.52 225.999 1126.26 225.676 Q1125.03 225.325 1124.42 224.915 Q1123.8 224.505 1123.48 223.773 Q1123.16 223.041 1123.1 222.602 Q1123.07 222.134 1123.07 221.373 Q1121.96 223.51 1119.7 224.945 Q1117.48 226.35 1114.14 226.35 Q1112.73 226.35 1111.33 226.203 Q1109.92 226.057 1108.28 225.618 Q1106.64 225.149 1105.41 224.447 Q1104.19 223.715 1103.37 222.456 Q1102.55 221.168 1102.55 219.528 Q1102.55 210.92 1122.04 210.101 L1122.04 208.08 Q1122.04 200.995 1115.46 200.995 Q1113.06 200.995 1111.12 201.405 Q1111.3 201.522 1111.56 201.815 Q1111.83 202.108 1112.12 202.84 Q1112.44 203.572 1112.44 204.362 Q1112.44 206.148 1111.3 207.143 Q1110.19 208.139 1108.66 208.139 Q1107.26 208.139 1106.09 207.173 Q1104.95 206.177 1104.95 204.362 Q1104.95 198.828 1115.69 198.828 Q1122.16 198.828 1125.5 201.376 Q1128.87 203.894 1128.87 208.08 L1128.87 220.963 Q1128.87 221.607 1128.93 221.9 Q1128.98 222.192 1129.31 222.544 Q1129.63 222.895 1130.39 223.041 Q1131.18 223.159 1132.53 223.188 Q1133.05 223.188 1133.32 223.246 Q1133.58 223.276 1133.84 223.598 Q1134.11 223.92 1134.11 224.564 M1122.04 217.654 L1122.04 211.974 Q1121.02 212.033 1120.05 212.15 Q1119.09 212.267 1117.51 212.56 Q1115.93 212.823 1114.64 213.38 Q1113.38 213.907 1112.15 214.697 Q1110.95 215.458 1110.25 216.688 Q1109.57 217.918 1109.57 219.47 Q1109.57 221.46 1111.15 222.836 Q1112.73 224.213 1115.02 224.213 Q1115.6 224.213 1116.34 224.095 Q1117.07 223.978 1118.12 223.568 Q1119.18 223.129 1120 222.456 Q1120.84 221.782 1121.43 220.553 Q1122.04 219.294 1122.04 217.654 Z" fill="#000000" fill-rule="nonzero" fill-opacity="1" /><path clip-path="url(#clip220)" d="M1150.23 225.999 L1142.86 225.823 L1135.48 225.999 L1135.48 223.188 L1139.64 223.188 L1139.64 190.016 Q1139.64 188.318 1138.99 187.996 Q1138.38 187.674 1135.48 187.674 L1135.48 184.863 L1146.11 184.394 L1146.11 223.188 L1150.23 223.188 L1150.23 225.999 Z" fill="#000000" fill-rule="nonzero" fill-opacity="1" /><path clip-path="url(#clip220)" d="M1182.71 212.677 L1180.84 225.999 L1155.13 225.999 L1155.13 224.915 Q1155.13 223.978 1155.22 223.715 Q1155.34 223.422 1155.89 222.895 L1167.96 210.598 Q1174.43 204.04 1174.43 198.126 Q1174.43 194.554 1172.32 192.065 Q1170.21 189.547 1166.52 189.547 Q1162.83 189.547 1160.34 191.626 Q1160.81 191.743 1161.28 191.977 Q1161.75 192.212 1162.36 192.709 Q1162.98 193.178 1163.36 194.027 Q1163.77 194.876 1163.77 195.959 Q1163.77 198.038 1162.42 199.151 Q1161.11 200.263 1159.44 200.263 Q1158.82 200.263 1158.15 200.058 Q1157.48 199.853 1156.74 199.414 Q1156.04 198.946 1155.57 198.038 Q1155.13 197.101 1155.13 195.842 Q1155.13 191.86 1158.82 189.313 Q1162.51 186.737 1168.02 186.737 Q1174.46 186.737 1178.58 189.84 Q1182.71 192.944 1182.71 198.067 Q1182.71 199.736 1182.24 201.171 Q1181.81 202.576 1180.96 203.776 Q1180.14 204.977 1178.82 206.236 Q1177.5 207.466 1175.92 208.695 Q1174.37 209.896 1172.29 211.418 Q1172.11 211.535 1172.03 211.594 Q1168.98 213.848 1163.39 218.503 L1172.2 218.503 Q1177.65 218.503 1178.32 218.152 Q1179.17 217.742 1179.9 212.677 L1182.71 212.677 Z" fill="#000000" fill-rule="nonzero" fill-opacity="1" /><path clip-path="url(#clip220)" d="M1206.84 225.091 Q1205.9 224.154 1205.9 222.836 Q1205.9 221.519 1206.84 220.582 Q1207.77 219.645 1209.09 219.645 Q1210.41 219.645 1211.34 220.582 Q1212.28 221.519 1212.28 222.836 Q1212.28 224.154 1211.34 225.091 Q1210.41 225.999 1209.09 225.999 Q1207.77 225.999 1206.84 225.091 M1206.84 205.592 Q1205.9 204.655 1205.9 203.337 Q1205.9 202.02 1206.84 201.083 Q1207.77 200.146 1209.09 200.146 Q1210.41 200.146 1211.34 201.083 Q1212.28 202.02 1212.28 203.337 Q1212.28 204.655 1211.34 205.592 Q1210.41 206.499 1209.09 206.499 Q1207.77 206.499 1206.84 205.592 Z" fill="#000000" fill-rule="nonzero" fill-opacity="1" /><path clip-path="url(#clip220)" d="M1289.45 185.712 Q1289.45 186.912 1288.43 186.912 Q1285.12 187.029 1283.77 188.142 Q1282.45 189.225 1281.96 191.333 L1273.58 224.74 Q1273.29 225.794 1273.11 225.911 Q1272.94 225.999 1272.62 225.999 Q1272.21 225.999 1271.97 225.794 Q1271.77 225.589 1271.48 224.857 L1256.54 189.547 Q1256.43 189.313 1256.28 188.991 Q1256.13 188.669 1256.02 188.464 L1248.08 220.114 Q1247.85 221.021 1247.85 221.49 Q1247.85 222.632 1248.64 223.363 Q1249.46 224.066 1251.8 224.154 Q1253 224.154 1253 224.798 Q1253 225.999 1251.92 225.999 Q1250.92 225.999 1248.84 225.911 Q1246.76 225.823 1245.74 225.823 Q1244.74 225.823 1242.72 225.911 Q1240.7 225.999 1239.74 225.999 Q1238.98 225.999 1238.98 225.325 Q1238.98 224.798 1239.18 224.535 Q1239.39 224.242 1239.56 224.213 Q1239.74 224.154 1240 224.154 Q1241.76 224.095 1242.96 223.744 Q1244.16 223.393 1244.83 222.719 Q1245.53 222.046 1245.86 221.373 Q1246.21 220.67 1246.47 219.645 L1254.49 187.439 Q1254.49 186.912 1250.42 186.912 Q1249.72 186.912 1249.43 186.883 Q1249.17 186.854 1248.96 186.707 Q1248.76 186.561 1248.76 186.239 Q1248.76 185.419 1249.11 185.243 Q1249.46 185.039 1250.48 185.039 L1258.53 185.039 Q1259.56 185.039 1259.82 185.214 Q1260.09 185.361 1260.44 186.18 L1273.7 217.479 L1280.41 190.806 Q1280.58 190.279 1280.58 189.547 Q1280.58 188.376 1279.7 187.674 Q1278.85 186.942 1276.51 186.912 Q1275.43 186.912 1275.43 186.239 Q1275.43 185.683 1275.63 185.419 Q1275.87 185.126 1276.04 185.097 Q1276.25 185.039 1276.51 185.039 Q1277.51 185.039 1279.56 185.126 Q1281.61 185.214 1282.63 185.214 Q1283.63 185.214 1285.65 185.126 Q1287.7 185.039 1288.69 185.039 Q1289.04 185.039 1289.22 185.214 Q1289.42 185.361 1289.45 185.536 L1289.45 185.712 Z" fill="#000000" fill-rule="nonzero" fill-opacity="1" /><path clip-path="url(#clip220)" d="M1295.53 211.008 Q1295.53 200.878 1299.3 192.709 Q1300.91 189.284 1303.17 186.415 Q1305.42 183.545 1306.92 182.286 Q1308.41 181.027 1308.82 181.027 Q1309.41 181.027 1309.43 181.613 Q1309.43 181.906 1308.64 182.638 Q1298.98 192.475 1299.01 211.008 Q1299.01 229.6 1308.41 239.057 Q1309.43 240.081 1309.43 240.403 Q1309.43 240.989 1308.82 240.989 Q1308.41 240.989 1306.98 239.788 Q1305.54 238.588 1303.32 235.836 Q1301.09 233.084 1299.48 229.717 Q1295.53 221.548 1295.53 211.008 Z" fill="#000000" fill-rule="nonzero" fill-opacity="1" /><path clip-path="url(#clip220)" d="M1315.19 206.821 Q1315.19 198.009 1317.42 193.207 Q1320.52 186.063 1327.84 186.063 Q1329.39 186.063 1331 186.502 Q1332.64 186.912 1334.69 188.523 Q1336.77 190.133 1338.03 192.768 Q1340.43 197.862 1340.43 206.821 Q1340.43 215.576 1338.2 220.348 Q1334.95 227.316 1327.78 227.316 Q1325.09 227.316 1322.33 225.94 Q1319.61 224.564 1317.88 221.255 Q1315.19 216.307 1315.19 206.821 M1320.17 206.089 Q1320.17 215.136 1320.81 218.738 Q1321.54 222.632 1323.54 224.33 Q1325.56 225.999 1327.78 225.999 Q1330.18 225.999 1332.17 224.213 Q1334.19 222.397 1334.81 218.503 Q1335.48 214.668 1335.45 206.089 Q1335.45 197.745 1334.87 194.407 Q1334.08 190.514 1331.97 188.962 Q1329.89 187.381 1327.78 187.381 Q1326.99 187.381 1326.14 187.615 Q1325.32 187.849 1324.12 188.523 Q1322.92 189.196 1321.98 190.865 Q1321.08 192.534 1320.64 195.052 Q1320.17 198.301 1320.17 206.089 Z" fill="#000000" fill-rule="nonzero" fill-opacity="1" /><path clip-path="url(#clip220)" d="M1345.73 225.032 Q1344.88 224.066 1344.88 222.807 Q1344.88 221.548 1345.7 220.611 Q1346.55 219.645 1348.07 219.645 Q1349.86 219.645 1350.89 221.373 Q1351.91 223.071 1351.91 225.94 Q1351.91 229.043 1350.65 231.913 Q1349.39 234.811 1348.16 236.187 Q1346.93 237.563 1346.44 237.563 Q1345.85 237.563 1345.85 236.919 Q1345.85 236.685 1346.26 236.246 Q1350.56 231.62 1350.59 225.94 Q1350.59 225.032 1350.48 225.032 L1350.33 225.149 Q1349.3 225.999 1348.07 225.999 Q1346.58 225.999 1345.73 225.032 Z" fill="#000000" fill-rule="nonzero" fill-opacity="1" /><path clip-path="url(#clip220)" d="M1370.83 206.821 Q1370.83 198.009 1373.06 193.207 Q1376.16 186.063 1383.48 186.063 Q1385.03 186.063 1386.64 186.502 Q1388.28 186.912 1390.33 188.523 Q1392.41 190.133 1393.67 192.768 Q1396.07 197.862 1396.07 206.821 Q1396.07 215.576 1393.84 220.348 Q1390.59 227.316 1383.42 227.316 Q1380.73 227.316 1377.98 225.94 Q1375.25 224.564 1373.52 221.255 Q1370.83 216.307 1370.83 206.821 M1375.81 206.089 Q1375.81 215.136 1376.45 218.738 Q1377.18 222.632 1379.18 224.33 Q1381.2 225.999 1383.42 225.999 Q1385.82 225.999 1387.81 224.213 Q1389.83 222.397 1390.45 218.503 Q1391.12 214.668 1391.09 206.089 Q1391.09 197.745 1390.51 194.407 Q1389.72 190.514 1387.61 188.962 Q1385.53 187.381 1383.42 187.381 Q1382.63 187.381 1381.78 187.615 Q1380.96 187.849 1379.76 188.523 Q1378.56 189.196 1377.62 190.865 Q1376.72 192.534 1376.28 195.052 Q1375.81 198.301 1375.81 206.089 Z" fill="#000000" fill-rule="nonzero" fill-opacity="1" /><path clip-path="url(#clip220)" d="M1401.43 225.032 Q1400.52 224.066 1400.52 222.807 Q1400.52 221.548 1401.43 220.641 Q1402.34 219.704 1403.72 219.704 Q1405.03 219.704 1405.91 220.582 Q1406.82 221.431 1406.82 222.836 Q1406.82 224.213 1405.85 225.12 Q1404.92 225.999 1403.72 225.999 Q1402.34 225.999 1401.43 225.032 Z" fill="#000000" fill-rule="nonzero" fill-opacity="1" /><path clip-path="url(#clip220)" d="M1410.94 191.772 L1410.94 189.899 Q1418.14 189.899 1421.86 186.063 Q1422.89 186.063 1423.06 186.297 Q1423.24 186.532 1423.24 187.615 L1423.24 221.255 Q1423.24 223.041 1424.11 223.598 Q1424.99 224.154 1428.83 224.154 L1430.73 224.154 L1430.73 225.999 Q1428.62 225.823 1421.01 225.823 Q1413.4 225.823 1411.32 225.999 L1411.32 224.154 L1413.22 224.154 Q1417 224.154 1417.91 223.627 Q1418.82 223.071 1418.82 221.255 L1418.82 190.191 Q1415.68 191.772 1410.94 191.772 Z" fill="#000000" fill-rule="nonzero" fill-opacity="1" /><path clip-path="url(#clip220)" d="M1433.64 206.821 Q1433.64 198.009 1435.86 193.207 Q1438.97 186.063 1446.29 186.063 Q1447.84 186.063 1449.45 186.502 Q1451.09 186.912 1453.14 188.523 Q1455.22 190.133 1456.48 192.768 Q1458.88 197.862 1458.88 206.821 Q1458.88 215.576 1456.65 220.348 Q1453.4 227.316 1446.23 227.316 Q1443.54 227.316 1440.78 225.94 Q1438.06 224.564 1436.33 221.255 Q1433.64 216.307 1433.64 206.821 M1438.62 206.089 Q1438.62 215.136 1439.26 218.738 Q1439.99 222.632 1441.98 224.33 Q1444 225.999 1446.23 225.999 Q1448.63 225.999 1450.62 224.213 Q1452.64 222.397 1453.26 218.503 Q1453.93 214.668 1453.9 206.089 Q1453.9 197.745 1453.31 194.407 Q1452.52 190.514 1450.42 188.962 Q1448.34 187.381 1446.23 187.381 Q1445.44 187.381 1444.59 187.615 Q1443.77 187.849 1442.57 188.523 Q1441.37 189.196 1440.43 190.865 Q1439.52 192.534 1439.08 195.052 Q1438.62 198.301 1438.62 206.089 Z" fill="#000000" fill-rule="nonzero" fill-opacity="1" /><path clip-path="url(#clip220)" d="M1464.77 240.403 Q1464.77 240.111 1465.53 239.379 Q1475.19 229.541 1475.19 211.008 Q1475.19 192.417 1465.91 183.018 Q1464.77 181.935 1464.77 181.613 Q1464.77 181.027 1465.36 181.027 Q1465.77 181.027 1467.2 182.228 Q1468.67 183.428 1470.86 186.18 Q1473.09 188.932 1474.73 192.299 Q1478.68 200.468 1478.68 211.008 Q1478.68 221.138 1474.9 229.307 Q1473.29 232.732 1471.04 235.602 Q1468.78 238.471 1467.29 239.73 Q1465.8 240.989 1465.36 240.989 Q1464.77 240.989 1464.77 240.403 Z" fill="#000000" fill-rule="nonzero" fill-opacity="1" /></svg>
