<svg class="main-svg" xmlns="http://www.w3.org/2000/svg" xmlns:xlink="http://www.w3.org/1999/xlink" width="300.15000000000003" height="250" style=""><rect x="0" y="0" width="300.15000000000003" height="250" style="fill: rgb(255, 255, 255); fill-opacity: 1;"/><defs id="defs-248569"><g class="clips"><clipPath id="clip248569xyplot" class="plotclip"><rect width="231.04934846662408" height="177.71916010498688"/></clipPath><clipPath class="axesclip" id="clip248569x"><rect x="65.01561117953709" y="0" width="231.04934846662408" height="250"/></clipPath><clipPath class="axesclip" id="clip248569y"><rect x="0" y="23.307086614173222" width="300.15000000000003" height="177.71916010498688"/></clipPath><clipPath class="axesclip" id="clip248569xy"><rect x="65.01561117953709" y="23.307086614173222" width="231.04934846662408" height="177.71916010498688"/></clipPath></g><g class="gradients"/><g class="patterns"/></defs><g class="bglayer"/><g class="layer-below"><g class="imagelayer"/><g class="shapelayer"/></g><g class="cartesianlayer"><g class="subplot xy"><g class="layer-subplot"><g class="shapelayer"/><g class="imagelayer"/></g><g class="gridlayer"><g class="x"><path class="xgrid crisp" transform="translate(83.06561117953709,0)" d="M0,23.307086614173222v177.71916010498688" style="stroke: rgb(211, 211, 211); stroke-opacity: 0.25; stroke-width: 0.5px;"/><path class="xgrid crisp" transform="translate(101.1156111795371,0)" d="M0,23.307086614173222v177.71916010498688" style="stroke: rgb(211, 211, 211); stroke-opacity: 0.25; stroke-width: 0.5px;"/><path class="xgrid crisp" transform="translate(119.16561117953708,0)" d="M0,23.307086614173222v177.71916010498688" style="stroke: rgb(211, 211, 211); stroke-opacity: 0.25; stroke-width: 0.5px;"/><path class="xgrid crisp" transform="translate(137.2156111795371,0)" d="M0,23.307086614173222v177.71916010498688" style="stroke: rgb(211, 211, 211); stroke-opacity: 0.25; stroke-width: 0.5px;"/><path class="xgrid crisp" transform="translate(155.26561117953707,0)" d="M0,23.307086614173222v177.71916010498688" style="stroke: rgb(211, 211, 211); stroke-opacity: 0.25; stroke-width: 0.5px;"/><path class="xgrid crisp" transform="translate(173.3156111795371,0)" d="M0,23.307086614173222v177.71916010498688" style="stroke: rgb(211, 211, 211); stroke-opacity: 0.25; stroke-width: 0.5px;"/><path class="xgrid crisp" transform="translate(191.3756111795371,0)" d="M0,23.307086614173222v177.71916010498688" style="stroke: rgb(211, 211, 211); stroke-opacity: 0.25; stroke-width: 0.5px;"/><path class="xgrid crisp" transform="translate(209.4256111795371,0)" d="M0,23.307086614173222v177.71916010498688" style="stroke: rgb(211, 211, 211); stroke-opacity: 0.25; stroke-width: 0.5px;"/><path class="xgrid crisp" transform="translate(227.4756111795371,0)" d="M0,23.307086614173222v177.71916010498688" style="stroke: rgb(211, 211, 211); stroke-opacity: 0.25; stroke-width: 0.5px;"/><path class="xgrid crisp" transform="translate(245.52561117953707,0)" d="M0,23.307086614173222v177.71916010498688" style="stroke: rgb(211, 211, 211); stroke-opacity: 0.25; stroke-width: 0.5px;"/><path class="xgrid crisp" transform="translate(263.5756111795371,0)" d="M0,23.307086614173222v177.71916010498688" style="stroke: rgb(211, 211, 211); stroke-opacity: 0.25; stroke-width: 0.5px;"/><path class="xgrid crisp" transform="translate(281.6256111795371,0)" d="M0,23.307086614173222v177.71916010498688" style="stroke: rgb(211, 211, 211); stroke-opacity: 0.25; stroke-width: 0.5px;"/></g><g class="y"><path class="ygrid crisp" transform="translate(0,171.4070866141732)" d="M65.01561117953709,0h231.04934846662408" style="stroke: rgb(211, 211, 211); stroke-opacity: 0.25; stroke-width: 0.5px;"/><path class="ygrid crisp" transform="translate(0,141.78708661417323)" d="M65.01561117953709,0h231.04934846662408" style="stroke: rgb(211, 211, 211); stroke-opacity: 0.25; stroke-width: 0.5px;"/><path class="ygrid crisp" transform="translate(0,112.16708661417323)" d="M65.01561117953709,0h231.04934846662408" style="stroke: rgb(211, 211, 211); stroke-opacity: 0.25; stroke-width: 0.5px;"/><path class="ygrid crisp" transform="translate(0,82.54708661417322)" d="M65.01561117953709,0h231.04934846662408" style="stroke: rgb(211, 211, 211); stroke-opacity: 0.25; stroke-width: 0.5px;"/><path class="ygrid crisp" transform="translate(0,52.92708661417322)" d="M65.01561117953709,0h231.04934846662408" style="stroke: rgb(211, 211, 211); stroke-opacity: 0.25; stroke-width: 0.5px;"/></g></g><g class="zerolinelayer"/><path class="xlines-below"/><path class="ylines-below"/><g class="overlines-below"/><g class="xaxislayer-below"/><g class="yaxislayer-below"/><g class="overaxes-below"/><g class="plot" transform="translate(65.01561117953709,23.307086614173222)" clip-path="url(#clip248569xyplot)"><g class="scatterlayer mlayer"><g class="trace scatter traceda5811" style="stroke-miterlimit: 2; opacity: 1;"><g class="fills"/><g class="errorbars"/><g class="lines"><path class="js-line" d="M0,59.24L2.89,114.59L3.07,117.02L6.14,148.22L6.32,149.27L8.84,158.47L9.03,158.92L10.65,160.13L10.83,160.1L14.08,154.75L14.26,154.24L20.22,136.83L20.4,135.97L24.37,123.05L24.55,122.12L25.45,120.42L25.63,119.87L27.08,116.56L27.26,115.76L30.33,109.94L30.51,109.72L31.59,107.26L31.77,107.41L31.95,107.43L36.1,101.07L36.28,100.9L38.63,99.58L38.81,99.64L40.25,98.87L40.43,99.1L41.7,98.48L41.88,98.32L44.77,98.59L44.95,98.67L48.56,98.3L48.74,97.92L49.64,98.1L49.82,97.83L51.26,97.74L51.44,97.58L53.25,98.41L53.43,98.4L55.96,98.23L56.14,98.21L60.11,98.87L60.29,99.09L60.83,98.69L61.19,99.11L61.37,99.25L62.82,99.48L63,99.58L64.26,98.91L64.44,98.64L72.02,98.22L72.2,98.5L73.11,98.6L73.29,98.34L75.81,97.91L75.99,98.28L77.08,97.76L77.26,97.69L78.16,98.07L78.34,98.15L79.06,98.44L79.24,98.59L82.13,99.04L82.31,98.75L83.39,98.81L83.57,98.82L88.09,100.94L88.27,100.69L89.89,100.22L90.07,100.25L91.52,100.39L91.7,100.43L93.14,101.01L93.32,101.13L95.13,101.84L95.31,101.89L99.46,101.04L99.64,100.87L104.15,101.11L104.33,100.8L106.86,99.96L107.04,100.12L108.48,100.22L108.67,100.29L109.93,100.26L110.11,99.86L111.55,100.18L111.73,100.32L114.26,99.52L114.44,99.64L119.86,100.28L120.04,100.38L122.38,101.18L122.56,101.1L125.63,101.57L125.81,101.76L126.72,101.96L126.9,102.18L127.98,102.2L128.16,102.29L129.42,102.44L129.6,102.37L130.69,102.73L130.87,102.65L131.05,102.98L131.59,102.61L131.77,102.53L134.3,101.48L134.48,101.72L135.92,101.64L136.1,101.81L138.27,101.42L138.45,101.4L139.17,101.49L139.35,101.27L139.89,101.5L140.07,101.25L140.25,101.13L142.6,100.92L142.78,101.04L143.68,100.96L143.86,101.31L144.95,101.45L145.13,101.07L146.39,100.95L146.57,100.67L148.92,100.9L149.1,100.58L150.36,100.57L150.54,100.37L151.27,100.24L151.45,100.06L153.07,99.85L153.25,99.79L156.32,100.04L156.5,100.24L157.58,99.87L157.76,100.05L161.19,99.21L161.37,99.07L163,99.35L163.18,99.15L165.34,98.77L165.53,98.91L167.51,98.36L167.69,98.58L168.59,98.87L168.77,98.64L173.65,96.58L173.83,96.93L174.91,97.19L175.09,97.17L177.8,97.66L177.98,97.9L179.42,98.1L179.6,98.33L180.87,98.13L181.05,98.15L182.67,99.17L182.85,98.91L183.03,98.89L185.38,99.12L185.56,98.89L186.83,98.69L187.01,98.71L187.91,98.88L188.09,99.08L189.35,99.46L189.53,99.53L190.98,100.22L191.16,100.12L192.96,100.54L193.14,100.25L194.77,100.26L194.95,100.31L199.1,100.13L199.28,99.98L202.89,100.98L203.07,100.98L205.06,101.05L205.24,100.81L206.68,101.14L206.86,101.22L207.58,101.38L207.76,101.59L210.29,101.95L210.47,101.93L213,101.4L213.18,101.12L216.25,101.29L216.43,101.12L216.61,101.2" style="vector-effect: non-scaling-stroke; fill: none; stroke: rgb(0, 154, 250); stroke-opacity: 1; stroke-width: 2px; opacity: 1;"/></g><g class="points"/><g class="text"/></g><g class="trace scatter traceb08889" style="stroke-miterlimit: 2; opacity: 1;"><g class="fills"/><g class="errorbars"/><g class="lines"><path class="js-line" d="M0,59.24L2.53,97.16L2.71,99.16L5.23,115.92L5.42,116.6L7.22,121.98L7.4,122.36L7.94,123.1L8.12,123.4L9.57,123.55L9.75,123.31L9.93,123.1L10.29,123.49L10.47,123.8L12.46,121.6L12.64,121.52L13.54,121.02L13.72,120.54L18.59,114.25L18.77,114.43L20.04,113.21L20.22,112.59L20.58,112.13L20.76,111.78L25.09,106.63L25.27,106.15L27.62,103.48L27.8,103.48L28.7,103.05L28.88,102.9L31.23,100.8L31.41,101.23L31.59,101.26L33.21,100.23L33.39,100L34.12,99.78L34.3,99.65L35.38,98.9L35.56,98.76L37.37,98.59L37.55,98.46L38.81,98.41L38.99,98.4L40.98,97.31L41.16,97.42L44.22,97.02L44.4,96.8L46.75,96.24L46.93,96.06L47.65,95.67L47.83,95.66L51.63,95.35L51.81,95.22L52.89,94.9L53.07,94.99L55.05,94.39L55.24,94.41L59.21,93.5L59.39,93.47L62.28,93.49L62.46,93.3L64.08,92.85L64.26,92.8L66.25,92.96L66.43,92.72L67.51,93.4L67.69,93.27L67.87,93.02L70.58,92.75L70.76,93L72.92,93L73.11,93.08L74.19,92.6L74.37,92.39L76.17,91.94L76.35,91.91L77.8,92.65L77.98,92.3L81.41,93.14L81.59,92.97L83.39,92.51L83.57,92.59L85.74,92.91L85.92,92.8L89.17,92.17L89.35,92.25L90.25,92.44L90.43,92.08L92.06,92.31L92.24,92.65L92.78,92.75L92.96,92.48L93.14,92.37L94.59,92.18L94.77,92.06L96.57,92.45L96.75,92.77L98.56,93L98.74,93.04L101.81,93.38L101.99,93.27L104.33,93.61L104.51,93.82L107.4,93.48L107.58,93.45L109.03,92.71L109.21,92.74L111.37,92.81L111.55,92.69L112.82,92.51L113,92.61L113.72,92.53L113.9,92.86L114.08,92.84L116.25,93.2L116.43,93.32L117.69,92.3L117.87,92.44L125.27,91.95L125.45,91.83L126.54,91.89L126.72,91.81L128.34,92.1L128.52,91.92L130.51,91.93L130.69,92.18L131.77,92.37L131.95,92.36L132.85,92.33L133.03,92.35L135.02,92.55L135.2,92.29L136.28,92.29L136.46,92.6L137.19,92.46L137.37,92.59L138.45,92.89L138.63,92.82L140.98,92.4L141.16,92.54L143.5,92.79L143.68,92.97L144.95,93.14L145.13,93.02L152.89,92.14L153.07,92.27L159.03,92.27L159.21,92.53L160.11,92.66L160.29,92.38L161.19,92.48L161.37,92.51L167.87,92.31L168.05,92.02L169.14,91.93L169.32,92.33L172.2,92.94L172.38,92.64L173.47,92.34L173.65,92.59L176.9,92.21L177.08,92.46L179.06,92.11L179.24,92.14L183.76,93.29L183.94,93.44L185.02,93.45L185.2,93.52L186.46,93.57L186.64,93.3L187.37,93.45L187.55,93.54L189.17,93.1L189.35,93.33L192.78,93.64L192.96,93.53L193.86,93.75L194.05,93.84L194.95,93.32L195.13,93.38L195.85,92.95L196.03,93.14L196.21,93.15L197.47,93.19L197.66,92.99L199.1,92.5L199.28,92.65L200.9,92.02L201.09,92.1L203.07,92.17L203.25,92.35L204.88,92.7L205.06,92.78L206.86,93L207.04,92.58L208.49,92.93L208.67,92.87L210.47,92.4L210.65,92.43L211.74,92.65L211.92,92.7L212.64,92.88L212.82,93.04L213.54,93.47L213.72,93.01L213.9,92.78L215.53,92.93L215.71,93.17L216.61,92.93" style="vector-effect: non-scaling-stroke; fill: none; stroke: rgb(227, 111, 71); stroke-opacity: 1; stroke-width: 1px; opacity: 1;"/></g><g class="points"/><g class="text"/></g><g class="trace scatter trace9fe82d" style="stroke-miterlimit: 2; opacity: 1;"><g class="fills"/><g class="errorbars"/><g class="lines"><path class="js-line" d="M0,61.95L0.18,62.14L0.36,66.17L3.79,125.11L3.97,127.19L6.68,149.44L6.86,150.43L8.48,156.47L8.66,156.16L8.84,155.83L10.47,156.64L10.65,156.61L11.37,157.51L11.73,157.26L11.91,156.77L14.08,152.51L14.26,152.49L15.88,146.98L16.07,146.37L19.13,137.49L19.31,136.83L22.2,127.46L22.38,126.97L26.53,117.51L26.72,117.55L27.08,117.07L27.26,116.56L31.41,107.52L31.59,107.42L32.67,106.51L32.85,106.23L36.64,100.44L37,100.73L37.18,100.87L38.45,101.25L38.63,100.84L39.17,99.97L39.53,100.47L39.71,100.61L40.25,100.78L40.43,100.33L40.61,99.89L42.24,100.18L42.42,100.79L43.14,99.31L43.32,98.51L44.59,96.16L44.77,96.72L46.03,98.24L46.21,97.42L46.39,96.62L46.93,97.53L47.11,97.52L48.2,95.97L48.38,96.57L49.46,97.75L49.64,97.69L50,98.24L50.18,97.81L50.36,97.38L51.63,98.11L51.81,98.16L52.89,99.42L53.07,99.03L53.25,98.65L53.61,99.26L53.79,99.74L53.97,100.2L54.33,99.8L54.51,99.48L55.96,98.47L56.14,98.43L57.22,97.8L57.4,98.04L58.66,98.71L58.85,98.61L59.75,98.92L59.93,98.91L60.65,98.71L60.83,99.13L62.28,98.1L62.46,98.21L64.08,98.7L64.26,98.7L65.34,98.38L65.52,98.79L66.25,97.61L66.43,98.05L66.61,98.49L67.33,99.51L67.51,99.09L67.69,98.68L68.05,99.51L68.41,99.14L68.59,98.8L69.13,98.07L69.5,98.28L69.68,98.45L70.94,99.55L71.3,99.16L71.48,99.18L72.38,98.98L72.56,98.44L73.47,97.69L73.65,97.67L74.19,97.11L74.37,96.79L75.27,95.11L75.63,95.34L75.81,95.54L76.72,97.1L76.9,96.54L77.08,95.99L78.88,94.16L79.06,94.33L79.24,94.51L82.13,97.65L82.31,97.42L82.85,97.28L83.03,97.53L83.21,97.77L85.02,97.2L85.2,97.75L85.38,98.29L85.92,97.67L86.1,97.56L86.82,96.84L87,96.99L87.19,97.14L88.27,96.87L88.45,97.26L90.61,100.36L90.8,100.41L91.88,99.42L92.24,100.02L92.42,100.24L92.6,100.45L92.96,99.83L93.14,99.76L94.22,99.37L94.41,99.62L95.13,97.64L95.49,98.06L95.67,98.94L96.57,100.17L96.75,100.22L97.29,100.73L97.47,101.26L98.02,102.49L98.56,102.17L98.74,102.11L100.18,101.96L100.36,102.31L101.26,103.13L101.45,102.51L101.99,102.75L102.53,101.39L102.71,101.03L103.25,100.48L103.43,100.03L106.32,101.3L106.5,100.97L106.68,100.63L107.04,101.48L107.22,101.31L108.67,100.33L108.85,100.24L109.21,101.61L109.75,101.24L109.93,101.14L110.47,100.84L110.65,100.46L111.37,99.24L111.73,99.75L111.91,99.79L112.28,99.45L112.46,99.08L113.54,99.5L113.72,99.84L114.98,100.93L115.16,100.66L116.07,100.17L116.25,100.36L116.43,100.55L116.79,100.35L116.97,100.81L117.15,101.27L118.41,101.13L118.59,100.65L119.32,100.51L119.5,100.08L120.4,99.77L120.58,99.63L122.38,99.08L122.56,99.16L123.65,98.02L123.83,98.57L124.01,99.1L125.09,100.2L125.27,99.91L126.36,99.51L126.54,99.39L127.26,100.64L127.44,100.16L127.62,99.68L129.06,98.5L129.24,98.68L129.78,98.95L129.97,98.65L130.15,98.36L131.05,97.82L131.23,97.65L131.59,98.42L131.95,97.51L132.13,96.97L133.21,95.97L133.39,95.97L134.66,95.88L134.84,95.88L135.92,96.75L136.1,96.62L137.01,96.54L137.19,96.9L139.35,99.79L139.53,99.89L140.8,98.42L140.98,97.86L143.5,98.91L143.68,99.34L144.59,100.92L144.77,100.5L144.95,100.08L145.67,100.37L145.85,100.84L146.03,101.3L146.39,100.27L146.57,100.26L146.93,100.75L147.11,101.24L147.84,100.77L148.02,100.33L148.92,99.95L149.1,99.97L150.9,100.04L151.08,99.58L152.17,99.74L152.35,99.54L152.53,99.35L152.89,99.97L153.07,100.21L153.25,100.44L153.61,99.92L153.79,99.72L153.97,99.53L154.15,99.96L154.33,100.39L154.69,100.82L154.88,100.24L155.06,99.68L156.14,99.47L156.32,99.09L157.22,98.2L157.4,98.38L157.58,98.56L158.12,98.02L158.3,97.54L158.67,98L159.03,97.5L159.21,97.37L159.39,97.24L159.57,97.78L159.75,98.3L160.83,98.61L161.01,98.95L161.19,99.29L161.73,98.76L161.92,98.56L163,98.25L163.18,98.35L164.44,99.17L164.62,98.91L164.8,98.65L165.34,99.13L165.53,99.25L166.25,99.78L166.43,99.32L166.61,98.87L168.05,97.9L168.23,97.89L170.4,97.17L170.58,96.81L171.66,98.46L172.02,97.94L172.2,98.07L172.38,98.21L172.56,97.87L172.75,97.54L174.01,98.89L174.19,99.22L175.27,99.47L175.45,99.17L175.99,98.29L176.18,99.09L176.36,99.87L179.42,98.83L179.6,98.85L180.69,98.43L180.87,98.29L181.77,97.42L181.95,97.89L182.13,98.35L182.49,98.64L182.67,98.06L182.85,97.48L184.66,95.98L184.84,96.3L185.02,96.61L186.83,95.56L187.01,96L188.27,97.3L188.45,97.22L188.63,97.13L188.81,97.5L188.99,97.86L189.35,96.95L189.53,97.8L189.71,98.62L190.98,98.56L191.16,98.25L192.24,97.31L192.42,97.12L193.86,96.6L194.05,96.65L195.49,95.92L195.67,96.2L195.85,96.48L196.93,97.73L197.11,97.88L198.38,98.59L198.56,98.11L199.46,96.97L199.64,97.16L199.82,97.35L200.54,98.58L200.9,98.1L201.09,97.98L201.27,97.86L201.45,98.2L201.63,98.54L203.79,98.71L203.97,98.49L204.88,98.46L205.06,98.45L205.6,98.82L205.78,99.52L206.32,100.8L206.68,100.03L206.86,99.89L207.58,98.47L207.76,98.23L209.57,100.84L209.75,100.64L209.93,100.44L210.29,101.11L210.47,101.38L210.65,101.64L211.01,101.32L211.19,100.61L212.46,98.48L212.64,98.35L213.18,97.41L213.36,100.44L214.08,101.64L214.44,101.32L214.62,100.61L215.89,98.48L216.07,98.35L216.61,97.41" style="vector-effect: non-scaling-stroke; fill: none; stroke: rgb(62, 164, 78); stroke-opacity: 1; stroke-width: 1px; opacity: 1;"/></g><g class="points"/><g class="text"/></g><g class="trace scatter trace83ea77" style="stroke-miterlimit: 2; opacity: 1;"><g class="fills"/><g class="errorbars"/><g class="lines"><path class="js-line" d="M0,60.15L0.18,60.21L0.36,63.74L3.07,101.39L3.25,102.9L5.96,118.78L6.14,119.42L8.3,123.89L8.48,124.1L9.75,123.95L9.93,123.97L12.64,122.42L12.82,122.24L22.92,108.86L23.1,108.64L26.72,105.23L26.9,105.21L31.41,100.81L31.59,100.74L33.57,99.61L33.75,99.39L36.82,97.37L37,97.39L38.81,96.92L38.99,96.8L41.16,96.25L41.34,96.22L45.13,94.65L45.31,94.71L47.11,94.31L47.29,94.18L48.56,93.96L48.74,93.97L54.87,93.51L55.05,93.38L56.32,93.02L56.5,92.86L58.48,93.04L58.66,93.04L62.82,92.66L63,92.75L66.43,92.24L66.61,92.39L68.23,92.6L68.41,92.52L69.86,92.28L70.04,92.29L72.56,92.09L72.74,91.89L74.01,91.68L74.19,91.58L75.99,91.14L76.17,91.32L76.72,91.64L77.08,91.23L77.26,91.14L79.42,90.83L79.6,90.92L82.13,91.81L82.31,91.71L83.76,91.69L83.94,91.7L89.53,91.97L89.71,92.18L92.96,92.15L93.14,92.12L95.67,91.82L95.85,92.14L99.28,92.72L99.46,92.61L101.45,92.92L101.63,92.69L102.53,92.49L102.71,92.36L106.86,92.48L107.04,92.64L109.03,92.48L109.21,92.73L113.54,92.07L113.72,92.2L115.16,92.5L115.34,92.4L119.32,92.41L119.5,92.25L120.76,92.07L120.94,92.2L121.84,91.93L122.02,91.93L124.19,92.21L124.37,92.39L125.63,92.16L125.81,92.12L127.8,92.09L127.98,91.97L130.15,91.76L130.33,91.78L132.13,91.3L132.31,91.11L134.12,91.08L134.3,91.04L137.01,91.28L137.19,91.41L139.71,92.35L139.89,92.29L143.32,91.91L143.5,91.95L144.95,92.31L145.13,92.27L146.93,92.48L147.11,92.65L157.04,91.68L157.22,91.56L158.67,91.55L158.85,91.46L160.11,91.66L160.29,91.65L163.72,92.02L163.9,92.13L164.98,91.9L165.16,91.96L166.79,91.79L166.97,91.69L169.68,91.54L169.86,91.52L171.48,91.77L171.66,91.82L173.47,91.64L173.65,91.74L175.45,92.02L175.63,91.91L176.54,92.22L176.72,92.18L180.15,91.71L180.33,91.81L184.84,91.02L185.02,91.15L187.37,91.19L187.55,91.22L189.17,91.48L189.35,91.31L190.62,92.01L190.8,91.96L192.96,91.21L193.14,91.11L194.59,91.1L194.77,91.16L196.21,91.17L196.39,91.23L199.1,91.44L199.28,91.32L200.18,91.56L200.36,91.68L201.81,91.78L201.99,91.8L205.42,91.73L205.6,91.8L206.32,92.5L206.68,92.19L206.86,92.13L208.49,92.08L208.67,92.3L209.57,92.44L209.75,92.36L213.18,91.17L213.36,92.28L214.62,92.3L214.8,92.04L216.61,91.17" style="vector-effect: non-scaling-stroke; fill: none; stroke: rgb(195, 113, 210); stroke-opacity: 1; stroke-width: 1px; opacity: 1;"/></g><g class="points"/><g class="text"/></g></g></g><g class="overplot"/><path class="xlines-above crisp" d="M64.01561117953709,201.5262467191601H296.0649596461612" style="fill: none; stroke-width: 1px; stroke: rgb(0, 0, 0); stroke-opacity: 1;"/><path class="ylines-above crisp" d="M64.51561117953709,23.307086614173222V201.0262467191601" style="fill: none; stroke-width: 1px; stroke: rgb(0, 0, 0); stroke-opacity: 1;"/><g class="overlines-above"/><g class="xaxislayer-above"><path class="xtick ticks crisp" d="M0,201.0262467191601v-5" transform="translate(83.06561117953709,0)" style="stroke: rgb(0, 0, 0); stroke-opacity: 1; stroke-width: 1px;"/><path class="xtick ticks crisp" d="M0,201.0262467191601v-5" transform="translate(101.1156111795371,0)" style="stroke: rgb(0, 0, 0); stroke-opacity: 1; stroke-width: 1px;"/><path class="xtick ticks crisp" d="M0,201.0262467191601v-5" transform="translate(119.16561117953708,0)" style="stroke: rgb(0, 0, 0); stroke-opacity: 1; stroke-width: 1px;"/><path class="xtick ticks crisp" d="M0,201.0262467191601v-5" transform="translate(137.2156111795371,0)" style="stroke: rgb(0, 0, 0); stroke-opacity: 1; stroke-width: 1px;"/><path class="xtick ticks crisp" d="M0,201.0262467191601v-5" transform="translate(155.26561117953707,0)" style="stroke: rgb(0, 0, 0); stroke-opacity: 1; stroke-width: 1px;"/><path class="xtick ticks crisp" d="M0,201.0262467191601v-5" transform="translate(173.3156111795371,0)" style="stroke: rgb(0, 0, 0); stroke-opacity: 1; stroke-width: 1px;"/><path class="xtick ticks crisp" d="M0,201.0262467191601v-5" transform="translate(191.3756111795371,0)" style="stroke: rgb(0, 0, 0); stroke-opacity: 1; stroke-width: 1px;"/><path class="xtick ticks crisp" d="M0,201.0262467191601v-5" transform="translate(209.4256111795371,0)" style="stroke: rgb(0, 0, 0); stroke-opacity: 1; stroke-width: 1px;"/><path class="xtick ticks crisp" d="M0,201.0262467191601v-5" transform="translate(227.4756111795371,0)" style="stroke: rgb(0, 0, 0); stroke-opacity: 1; stroke-width: 1px;"/><path class="xtick ticks crisp" d="M0,201.0262467191601v-5" transform="translate(245.52561117953707,0)" style="stroke: rgb(0, 0, 0); stroke-opacity: 1; stroke-width: 1px;"/><path class="xtick ticks crisp" d="M0,201.0262467191601v-5" transform="translate(263.5756111795371,0)" style="stroke: rgb(0, 0, 0); stroke-opacity: 1; stroke-width: 1px;"/><path class="xtick ticks crisp" d="M0,201.0262467191601v-5" transform="translate(281.6256111795371,0)" style="stroke: rgb(0, 0, 0); stroke-opacity: 1; stroke-width: 1px;"/><g class="xtick"><text text-anchor="middle" x="0" y="218.8262467191601" transform="translate(65.01561117953709,0)" style="font-family: sans-serif; font-size: 14px; fill: rgb(0, 0, 0); fill-opacity: 1; white-space: pre; opacity: 1;">0</text></g><g class="xtick"><text text-anchor="middle" x="0" y="218.8262467191601" style="font-family: sans-serif; font-size: 14px; fill: rgb(0, 0, 0); fill-opacity: 1; white-space: pre; opacity: 1;" transform="translate(83.06561117953709,0)">5</text></g><g class="xtick"><text text-anchor="middle" x="0" y="218.8262467191601" style="font-family: sans-serif; font-size: 14px; fill: rgb(0, 0, 0); fill-opacity: 1; white-space: pre; opacity: 1;" transform="translate(101.1156111795371,0)">10</text></g><g class="xtick"><text text-anchor="middle" x="0" y="218.8262467191601" style="font-family: sans-serif; font-size: 14px; fill: rgb(0, 0, 0); fill-opacity: 1; white-space: pre; opacity: 1;" transform="translate(119.16561117953708,0)">15</text></g><g class="xtick"><text text-anchor="middle" x="0" y="218.8262467191601" style="font-family: sans-serif; font-size: 14px; fill: rgb(0, 0, 0); fill-opacity: 1; white-space: pre; opacity: 1;" transform="translate(137.2156111795371,0)">20</text></g><g class="xtick"><text text-anchor="middle" x="0" y="218.8262467191601" style="font-family: sans-serif; font-size: 14px; fill: rgb(0, 0, 0); fill-opacity: 1; white-space: pre; opacity: 1;" transform="translate(155.26561117953707,0)">25</text></g><g class="xtick"><text text-anchor="middle" x="0" y="218.8262467191601" style="font-family: sans-serif; font-size: 14px; fill: rgb(0, 0, 0); fill-opacity: 1; white-space: pre; opacity: 1;" transform="translate(173.3156111795371,0)">30</text></g><g class="xtick"><text text-anchor="middle" x="0" y="218.8262467191601" style="font-family: sans-serif; font-size: 14px; fill: rgb(0, 0, 0); fill-opacity: 1; white-space: pre; opacity: 1;" transform="translate(191.3756111795371,0)">35</text></g><g class="xtick"><text text-anchor="middle" x="0" y="218.8262467191601" style="font-family: sans-serif; font-size: 14px; fill: rgb(0, 0, 0); fill-opacity: 1; white-space: pre; opacity: 1;" transform="translate(209.4256111795371,0)">40</text></g><g class="xtick"><text text-anchor="middle" x="0" y="218.8262467191601" style="font-family: sans-serif; font-size: 14px; fill: rgb(0, 0, 0); fill-opacity: 1; white-space: pre; opacity: 1;" transform="translate(227.4756111795371,0)">45</text></g><g class="xtick"><text text-anchor="middle" x="0" y="218.8262467191601" style="font-family: sans-serif; font-size: 14px; fill: rgb(0, 0, 0); fill-opacity: 1; white-space: pre; opacity: 1;" transform="translate(245.52561117953707,0)">50</text></g><g class="xtick"><text text-anchor="middle" x="0" y="218.8262467191601" style="font-family: sans-serif; font-size: 14px; fill: rgb(0, 0, 0); fill-opacity: 1; white-space: pre; opacity: 1;" transform="translate(263.5756111795371,0)">55</text></g><g class="xtick"><text text-anchor="middle" x="0" y="218.8262467191601" style="font-family: sans-serif; font-size: 14px; fill: rgb(0, 0, 0); fill-opacity: 1; white-space: pre; opacity: 1;" transform="translate(281.6256111795371,0)">60</text></g></g><g class="yaxislayer-above"><path class="ytick ticks crisp" d="M65.01561117953709,0h5" transform="translate(0,171.4070866141732)" style="stroke: rgb(0, 0, 0); stroke-opacity: 1; stroke-width: 1px;"/><path class="ytick ticks crisp" d="M65.01561117953709,0h5" transform="translate(0,141.78708661417323)" style="stroke: rgb(0, 0, 0); stroke-opacity: 1; stroke-width: 1px;"/><path class="ytick ticks crisp" d="M65.01561117953709,0h5" transform="translate(0,112.16708661417323)" style="stroke: rgb(0, 0, 0); stroke-opacity: 1; stroke-width: 1px;"/><path class="ytick ticks crisp" d="M65.01561117953709,0h5" transform="translate(0,82.54708661417322)" style="stroke: rgb(0, 0, 0); stroke-opacity: 1; stroke-width: 1px;"/><path class="ytick ticks crisp" d="M65.01561117953709,0h5" transform="translate(0,52.92708661417322)" style="stroke: rgb(0, 0, 0); stroke-opacity: 1; stroke-width: 1px;"/><g class="ytick"><text text-anchor="end" x="61.21561117953709" y="4.8999999999999995" transform="translate(0,201.02708661417321)" style="font-family: sans-serif; font-size: 14px; fill: rgb(0, 0, 0); fill-opacity: 1; white-space: pre; opacity: 1;">-0.4</text></g><g class="ytick"><text text-anchor="end" x="61.21561117953709" y="4.8999999999999995" style="font-family: sans-serif; font-size: 14px; fill: rgb(0, 0, 0); fill-opacity: 1; white-space: pre; opacity: 1;" transform="translate(0,171.4070866141732)">-0.3</text></g><g class="ytick"><text text-anchor="end" x="61.21561117953709" y="4.8999999999999995" style="font-family: sans-serif; font-size: 14px; fill: rgb(0, 0, 0); fill-opacity: 1; white-space: pre; opacity: 1;" transform="translate(0,141.78708661417323)">-0.2</text></g><g class="ytick"><text text-anchor="end" x="61.21561117953709" y="4.8999999999999995" style="font-family: sans-serif; font-size: 14px; fill: rgb(0, 0, 0); fill-opacity: 1; white-space: pre; opacity: 1;" transform="translate(0,112.16708661417323)">-0.1</text></g><g class="ytick"><text text-anchor="end" x="61.21561117953709" y="4.8999999999999995" style="font-family: sans-serif; font-size: 14px; fill: rgb(0, 0, 0); fill-opacity: 1; white-space: pre; opacity: 1;" transform="translate(0,82.54708661417322)">0.0</text></g><g class="ytick"><text text-anchor="end" x="61.21561117953709" y="4.8999999999999995" style="font-family: sans-serif; font-size: 14px; fill: rgb(0, 0, 0); fill-opacity: 1; white-space: pre; opacity: 1;" transform="translate(0,52.92708661417322)">0.1</text></g><g class="ytick"><text text-anchor="end" x="61.21561117953709" y="4.8999999999999995" style="font-family: sans-serif; font-size: 14px; fill: rgb(0, 0, 0); fill-opacity: 1; white-space: pre; opacity: 1;" transform="translate(0,23.307086614173222)">0.2</text></g></g><g class="overaxes-above"/></g></g><g class="polarlayer"/><g class="ternarylayer"/><g class="geolayer"/><g class="funnelarealayer"/><g class="pielayer"/><g class="iciclelayer"/><g class="treemaplayer"/><g class="sunburstlayer"/><g class="glimages"/><defs id="topdefs-248569"><g class="clips"/><clipPath id="legend248569"><rect width="134" height="90" x="1" y="1"/></clipPath></defs><g class="layer-above"><g class="imagelayer"/><g class="shapelayer"/></g><g class="infolayer"><g class="legend" pointer-events="all" transform="translate(164,20)"><rect class="bg" shape-rendering="crispEdges" width="135" height="91" x="0.5" y="0.5" style="stroke: rgb(0, 0, 0); stroke-opacity: 1; fill: rgb(255, 255, 255); fill-opacity: 1; stroke-width: 1px;"/><g class="scrollbox" transform="" clip-path="url(#legend248569)"><g class="groups"><g class="traces" transform="translate(1,15.950000000000001)" style="opacity: 1;"><text class="legendtext" text-anchor="start" x="40" y="5.07" style="font-family: sans-serif; font-size: 13px; fill: rgb(0, 0, 0); fill-opacity: 1; white-space: pre;">BF-SFR: 方案1</text><g class="layers" style="opacity: 1;"><g class="legendfill"/><g class="legendlines"><path class="js-line" d="M5,0h30" style="fill: none; stroke: rgb(0, 154, 250); stroke-opacity: 1; stroke-width: 2px;"/></g><g class="legendsymbols"><g class="legendpoints"/></g></g><rect class="legendtoggle" x="0" y="-9.950000000000001" width="128.40625" height="19.900000000000002" style="fill: rgb(0, 0, 0); fill-opacity: 0;"/></g><g class="traces" transform="translate(1,35.85)" style="opacity: 1;"><text class="legendtext" text-anchor="start" x="40" y="5.07" style="font-family: sans-serif; font-size: 13px; fill: rgb(0, 0, 0); fill-opacity: 1; white-space: pre;">BF-SFR: 方案 2</text><g class="layers" style="opacity: 1;"><g class="legendfill"/><g class="legendlines"><path class="js-line" d="M5,0h30" style="fill: none; stroke: rgb(227, 111, 71); stroke-opacity: 1; stroke-width: 1px;"/></g><g class="legendsymbols"><g class="legendpoints"/></g></g><rect class="legendtoggle" x="0" y="-9.950000000000001" width="128.40625" height="19.900000000000002" style="fill: rgb(0, 0, 0); fill-opacity: 0;"/></g><g class="traces" transform="translate(1,55.75000000000001)" style="opacity: 1;"><text class="legendtext" text-anchor="start" x="40" y="5.07" style="font-family: sans-serif; font-size: 13px; fill: rgb(0, 0, 0); fill-opacity: 1; white-space: pre;">仿真器: 方案 1</text><g class="layers" style="opacity: 1;"><g class="legendfill"/><g class="legendlines"><path class="js-line" d="M5,0h30" style="fill: none; stroke: rgb(62, 164, 78); stroke-opacity: 1; stroke-width: 1px;"/></g><g class="legendsymbols"><g class="legendpoints"/></g></g><rect class="legendtoggle" x="0" y="-9.950000000000001" width="128.40625" height="19.900000000000002" style="fill: rgb(0, 0, 0); fill-opacity: 0;"/></g><g class="traces" transform="translate(1,75.65)" style="opacity: 1;"><text class="legendtext" text-anchor="start" x="40" y="5.07" style="font-family: sans-serif; font-size: 13px; fill: rgb(0, 0, 0); fill-opacity: 1; white-space: pre;">仿真器: 方案 2</text><g class="layers" style="opacity: 1;"><g class="legendfill"/><g class="legendlines"><path class="js-line" d="M5,0h30" style="fill: none; stroke: rgb(195, 113, 210); stroke-opacity: 1; stroke-width: 1px;"/></g><g class="legendsymbols"><g class="legendpoints"/></g></g><rect class="legendtoggle" x="0" y="-9.950000000000001" width="128.40625" height="19.900000000000002" style="fill: rgb(0, 0, 0); fill-opacity: 0;"/></g></g></g><rect class="scrollbar" rx="20" ry="3" width="0" height="0" x="0" y="0" style="fill: rgb(128, 139, 164); fill-opacity: 1;"/></g><g class="g-gtitle"/><g class="g-xtitle" transform="translate(0,-16.0262467191601)"><text class="xtitle" x="180.54028541284913" y="262.0262467191601" text-anchor="middle" style="font-family: sans-serif; font-size: 17px; fill: rgb(0, 0, 0); opacity: 1; font-weight: normal; white-space: pre;">t / s</text></g><g class="g-ytitle"><text class="ytitle" transform="rotate(-90,21.01561117953709,112.16666666666666)" x="21.01561117953709" y="112.16666666666666" text-anchor="middle" style="font-family: sans-serif; font-size: 17px; fill: rgb(0, 0, 0); opacity: 1; font-weight: normal; white-space: pre;">Delta f(t) / Hz</text></g></g></svg>