<svg class="main-svg" xmlns="http://www.w3.org/2000/svg" xmlns:xlink="http://www.w3.org/1999/xlink" width="300.15000000000003" height="250" style=""><rect x="0" y="0" width="300.15000000000003" height="250" style="fill: rgb(255, 255, 255); fill-opacity: 1;"/><defs id="defs-038e7b"><g class="clips"><clipPath id="clip038e7bxyplot" class="plotclip"><rect width="231.04934846662408" height="177.71916010498688"/></clipPath><clipPath class="axesclip" id="clip038e7bx"><rect x="65.01561117953709" y="0" width="231.04934846662408" height="250"/></clipPath><clipPath class="axesclip" id="clip038e7by"><rect x="0" y="23.307086614173222" width="300.15000000000003" height="177.71916010498688"/></clipPath><clipPath class="axesclip" id="clip038e7bxy"><rect x="65.01561117953709" y="23.307086614173222" width="231.04934846662408" height="177.71916010498688"/></clipPath></g><g class="gradients"/><g class="patterns"/></defs><g class="bglayer"/><g class="layer-below"><g class="imagelayer"/><g class="shapelayer"/></g><g class="cartesianlayer"><g class="subplot xy"><g class="layer-subplot"><g class="shapelayer"/><g class="imagelayer"/></g><g class="gridlayer"><g class="x"><path class="xgrid crisp" transform="translate(83.06561117953709,0)" d="M0,23.307086614173222v177.71916010498688" style="stroke: rgb(211, 211, 211); stroke-opacity: 0.25; stroke-width: 0.5px;"/><path class="xgrid crisp" transform="translate(101.1156111795371,0)" d="M0,23.307086614173222v177.71916010498688" style="stroke: rgb(211, 211, 211); stroke-opacity: 0.25; stroke-width: 0.5px;"/><path class="xgrid crisp" transform="translate(119.16561117953708,0)" d="M0,23.307086614173222v177.71916010498688" style="stroke: rgb(211, 211, 211); stroke-opacity: 0.25; stroke-width: 0.5px;"/><path class="xgrid crisp" transform="translate(137.2156111795371,0)" d="M0,23.307086614173222v177.71916010498688" style="stroke: rgb(211, 211, 211); stroke-opacity: 0.25; stroke-width: 0.5px;"/><path class="xgrid crisp" transform="translate(155.26561117953707,0)" d="M0,23.307086614173222v177.71916010498688" style="stroke: rgb(211, 211, 211); stroke-opacity: 0.25; stroke-width: 0.5px;"/><path class="xgrid crisp" transform="translate(173.3156111795371,0)" d="M0,23.307086614173222v177.71916010498688" style="stroke: rgb(211, 211, 211); stroke-opacity: 0.25; stroke-width: 0.5px;"/><path class="xgrid crisp" transform="translate(191.3756111795371,0)" d="M0,23.307086614173222v177.71916010498688" style="stroke: rgb(211, 211, 211); stroke-opacity: 0.25; stroke-width: 0.5px;"/><path class="xgrid crisp" transform="translate(209.4256111795371,0)" d="M0,23.307086614173222v177.71916010498688" style="stroke: rgb(211, 211, 211); stroke-opacity: 0.25; stroke-width: 0.5px;"/><path class="xgrid crisp" transform="translate(227.4756111795371,0)" d="M0,23.307086614173222v177.71916010498688" style="stroke: rgb(211, 211, 211); stroke-opacity: 0.25; stroke-width: 0.5px;"/><path class="xgrid crisp" transform="translate(245.52561117953707,0)" d="M0,23.307086614173222v177.71916010498688" style="stroke: rgb(211, 211, 211); stroke-opacity: 0.25; stroke-width: 0.5px;"/><path class="xgrid crisp" transform="translate(263.5756111795371,0)" d="M0,23.307086614173222v177.71916010498688" style="stroke: rgb(211, 211, 211); stroke-opacity: 0.25; stroke-width: 0.5px;"/><path class="xgrid crisp" transform="translate(281.6256111795371,0)" d="M0,23.307086614173222v177.71916010498688" style="stroke: rgb(211, 211, 211); stroke-opacity: 0.25; stroke-width: 0.5px;"/></g><g class="y"><path class="ygrid crisp" transform="translate(0,171.4070866141732)" d="M65.01561117953709,0h231.04934846662408" style="stroke: rgb(211, 211, 211); stroke-opacity: 0.25; stroke-width: 0.5px;"/><path class="ygrid crisp" transform="translate(0,141.78708661417323)" d="M65.01561117953709,0h231.04934846662408" style="stroke: rgb(211, 211, 211); stroke-opacity: 0.25; stroke-width: 0.5px;"/><path class="ygrid crisp" transform="translate(0,112.16708661417323)" d="M65.01561117953709,0h231.04934846662408" style="stroke: rgb(211, 211, 211); stroke-opacity: 0.25; stroke-width: 0.5px;"/><path class="ygrid crisp" transform="translate(0,82.54708661417322)" d="M65.01561117953709,0h231.04934846662408" style="stroke: rgb(211, 211, 211); stroke-opacity: 0.25; stroke-width: 0.5px;"/><path class="ygrid crisp" transform="translate(0,52.92708661417322)" d="M65.01561117953709,0h231.04934846662408" style="stroke: rgb(211, 211, 211); stroke-opacity: 0.25; stroke-width: 0.5px;"/></g></g><g class="zerolinelayer"/><path class="xlines-below"/><path class="ylines-below"/><g class="overlines-below"/><g class="xaxislayer-below"/><g class="yaxislayer-below"/><g class="overaxes-below"/><g class="plot" transform="translate(65.01561117953709,23.307086614173222)" clip-path="url(#clip038e7bxyplot)"><g class="scatterlayer mlayer"><g class="trace scatter trace5f3063" style="stroke-miterlimit: 2; opacity: 1;"><g class="fills"/><g class="errorbars"/><g class="lines"><path class="js-line" d="M0,59.24L3.07,119.19L3.25,121.68L5.96,148.21L6.14,149.36L8.48,158.88L8.66,159.26L10.29,160.82L10.47,160.83L11.91,159.79L12.09,159.55L14.44,154.69L14.62,154.22L19.49,139.11L19.68,138.51L26.9,118.01L27.08,117.6L31.41,109.49L31.59,109.22L35.74,104.25L35.92,104.08L40.98,100.81L41.16,100.74L46.57,99.43L46.75,99.4L54.51,99.25L54.69,99.26L71.84,100.01L72.02,100.02L216.61,100.29" style="vector-effect: non-scaling-stroke; fill: none; stroke: rgb(0, 154, 250); stroke-opacity: 1; stroke-width: 2px; opacity: 1;"/></g><g class="points"/><g class="text"/></g><g class="trace scatter traced653d5" style="stroke-miterlimit: 2; opacity: 1;"><g class="fills"/><g class="errorbars"/><g class="lines"><path class="js-line" d="M0,59.24L2.71,100.56L2.89,102.35L5.42,118.91L5.6,119.62L7.76,124.76L7.94,124.97L9.75,125.72L9.93,125.69L11.91,124.5L12.09,124.32L15.16,120.6L15.34,120.35L26.72,106.03L26.9,105.87L32.85,101.26L33.03,101.16L40.25,97.62L40.43,97.55L49.64,95.23L49.82,95.21L62.82,93.77L63,93.77L74.19,93.28L74.37,93.29L216.61,92.98" style="vector-effect: non-scaling-stroke; fill: none; stroke: rgb(227, 111, 71); stroke-opacity: 1; stroke-width: 1px; opacity: 1;"/></g><g class="points"/><g class="text"/></g><g class="trace scatter traceb45b6e" style="stroke-miterlimit: 2; opacity: 1;"><g class="fills"/><g class="errorbars"/><g class="lines"><path class="js-line" d="M0,59.25L0.18,59.25L0.36,63.73L3.43,120.08L3.61,122.4L6.32,146.62L6.5,147.64L8.66,155.49L8.84,155.83L10.47,157.08L10.65,157.04L11.91,156.05L12.09,155.8L14.08,151.94L14.26,151.5L18.95,137.57L19.13,136.98L25.45,118.68L25.63,118.25L30.69,108.29L30.87,108L34.84,103.14L35.02,102.98L39.71,99.73L39.89,99.64L45.31,98.04L45.49,98L52.35,97.6L52.53,97.61L60.65,97.91L60.83,97.94L84.84,98.57L85.02,98.57L216.61,98.62" style="vector-effect: non-scaling-stroke; fill: none; stroke: rgb(62, 164, 78); stroke-opacity: 1; stroke-width: 1px; opacity: 1;"/></g><g class="points"/><g class="text"/></g><g class="trace scatter trace2f6abb" style="stroke-miterlimit: 2; opacity: 1;"><g class="fills"/><g class="errorbars"/><g class="lines"><path class="js-line" d="M0,59.88L0.18,59.93L0.36,63.5L3.07,101.35L3.25,102.9L5.78,118.09L5.96,118.77L8.12,123.56L8.3,123.77L9.39,123.95L9.57,123.95L11.37,123.63L11.55,123.51L13.72,121.04L13.9,120.85L14.8,119.46L14.98,119.14L16.79,116.77L16.97,116.44L20.76,111.23L20.94,111.04L28.16,103.82L28.34,103.72L31.23,100.87L31.41,100.79L35.56,98.15L35.74,98.03L39.17,96.67L39.35,96.69L41.16,96.15L41.34,96.11L45.49,94.73L45.67,94.73L47.65,93.94L47.83,93.77L53.79,93.79L53.97,93.88L57.58,92.96L57.76,92.99L60.29,92.79L60.47,92.69L61.73,92.65L61.91,92.57L66.79,92.43L66.97,92.51L68.77,92.23L68.95,92.17L70.76,92.32L70.94,92.44L75.99,91.39L76.17,91.51L77.26,91.39L77.44,91.33L81.23,91.74L81.41,91.87L88.27,91.45L88.45,91.56L91.16,92.21L91.34,92.13L93.86,91.83L94.04,91.85L98.38,92.59L98.56,92.57L106.86,92.27L107.04,92.38L109.93,92.32L110.11,92.33L112.28,91.93L112.46,91.83L121.48,92.02L121.66,91.95L123.83,91.79L124.01,91.94L125.45,92.07L125.63,92.04L134.84,91.23L135.02,91.33L136.64,91.5L136.82,91.46L138.09,91.87L138.27,91.89L149.46,92.02L149.64,92L163.54,91.86L163.72,91.94L166.07,92.07L166.25,92.09L168.05,91.61L168.23,91.61L183.4,91.36L183.58,91.34L186.64,91.06L186.83,91.09L188.99,91.68L189.17,91.56L189.89,91.88L190.07,91.89L192.06,91.57L192.24,91.47L195.67,91.22L195.85,91.29L203.97,91.7L204.15,91.64L207.58,91.64L207.76,91.58L210.65,92.42L210.83,92.37L213.18,91.34L213.36,92.12L214.62,92.13L214.8,91.95L216.61,91.34" style="vector-effect: non-scaling-stroke; fill: none; stroke: rgb(195, 113, 210); stroke-opacity: 1; stroke-width: 1px; opacity: 1;"/></g><g class="points"/><g class="text"/></g></g></g><g class="overplot"/><path class="xlines-above crisp" d="M64.01561117953709,201.5262467191601H296.0649596461612" style="fill: none; stroke-width: 1px; stroke: rgb(0, 0, 0); stroke-opacity: 1;"/><path class="ylines-above crisp" d="M64.51561117953709,23.307086614173222V201.0262467191601" style="fill: none; stroke-width: 1px; stroke: rgb(0, 0, 0); stroke-opacity: 1;"/><g class="overlines-above"/><g class="xaxislayer-above"><path class="xtick ticks crisp" d="M0,201.0262467191601v-5" transform="translate(83.06561117953709,0)" style="stroke: rgb(0, 0, 0); stroke-opacity: 1; stroke-width: 1px;"/><path class="xtick ticks crisp" d="M0,201.0262467191601v-5" transform="translate(101.1156111795371,0)" style="stroke: rgb(0, 0, 0); stroke-opacity: 1; stroke-width: 1px;"/><path class="xtick ticks crisp" d="M0,201.0262467191601v-5" transform="translate(119.16561117953708,0)" style="stroke: rgb(0, 0, 0); stroke-opacity: 1; stroke-width: 1px;"/><path class="xtick ticks crisp" d="M0,201.0262467191601v-5" transform="translate(137.2156111795371,0)" style="stroke: rgb(0, 0, 0); stroke-opacity: 1; stroke-width: 1px;"/><path class="xtick ticks crisp" d="M0,201.0262467191601v-5" transform="translate(155.26561117953707,0)" style="stroke: rgb(0, 0, 0); stroke-opacity: 1; stroke-width: 1px;"/><path class="xtick ticks crisp" d="M0,201.0262467191601v-5" transform="translate(173.3156111795371,0)" style="stroke: rgb(0, 0, 0); stroke-opacity: 1; stroke-width: 1px;"/><path class="xtick ticks crisp" d="M0,201.0262467191601v-5" transform="translate(191.3756111795371,0)" style="stroke: rgb(0, 0, 0); stroke-opacity: 1; stroke-width: 1px;"/><path class="xtick ticks crisp" d="M0,201.0262467191601v-5" transform="translate(209.4256111795371,0)" style="stroke: rgb(0, 0, 0); stroke-opacity: 1; stroke-width: 1px;"/><path class="xtick ticks crisp" d="M0,201.0262467191601v-5" transform="translate(227.4756111795371,0)" style="stroke: rgb(0, 0, 0); stroke-opacity: 1; stroke-width: 1px;"/><path class="xtick ticks crisp" d="M0,201.0262467191601v-5" transform="translate(245.52561117953707,0)" style="stroke: rgb(0, 0, 0); stroke-opacity: 1; stroke-width: 1px;"/><path class="xtick ticks crisp" d="M0,201.0262467191601v-5" transform="translate(263.5756111795371,0)" style="stroke: rgb(0, 0, 0); stroke-opacity: 1; stroke-width: 1px;"/><path class="xtick ticks crisp" d="M0,201.0262467191601v-5" transform="translate(281.6256111795371,0)" style="stroke: rgb(0, 0, 0); stroke-opacity: 1; stroke-width: 1px;"/><g class="xtick"><text text-anchor="middle" x="0" y="218.8262467191601" transform="translate(65.01561117953709,0)" style="font-family: sans-serif; font-size: 14px; fill: rgb(0, 0, 0); fill-opacity: 1; white-space: pre; opacity: 1;">0</text></g><g class="xtick"><text text-anchor="middle" x="0" y="218.8262467191601" style="font-family: sans-serif; font-size: 14px; fill: rgb(0, 0, 0); fill-opacity: 1; white-space: pre; opacity: 1;" transform="translate(83.06561117953709,0)">5</text></g><g class="xtick"><text text-anchor="middle" x="0" y="218.8262467191601" style="font-family: sans-serif; font-size: 14px; fill: rgb(0, 0, 0); fill-opacity: 1; white-space: pre; opacity: 1;" transform="translate(101.1156111795371,0)">10</text></g><g class="xtick"><text text-anchor="middle" x="0" y="218.8262467191601" style="font-family: sans-serif; font-size: 14px; fill: rgb(0, 0, 0); fill-opacity: 1; white-space: pre; opacity: 1;" transform="translate(119.16561117953708,0)">15</text></g><g class="xtick"><text text-anchor="middle" x="0" y="218.8262467191601" style="font-family: sans-serif; font-size: 14px; fill: rgb(0, 0, 0); fill-opacity: 1; white-space: pre; opacity: 1;" transform="translate(137.2156111795371,0)">20</text></g><g class="xtick"><text text-anchor="middle" x="0" y="218.8262467191601" style="font-family: sans-serif; font-size: 14px; fill: rgb(0, 0, 0); fill-opacity: 1; white-space: pre; opacity: 1;" transform="translate(155.26561117953707,0)">25</text></g><g class="xtick"><text text-anchor="middle" x="0" y="218.8262467191601" style="font-family: sans-serif; font-size: 14px; fill: rgb(0, 0, 0); fill-opacity: 1; white-space: pre; opacity: 1;" transform="translate(173.3156111795371,0)">30</text></g><g class="xtick"><text text-anchor="middle" x="0" y="218.8262467191601" style="font-family: sans-serif; font-size: 14px; fill: rgb(0, 0, 0); fill-opacity: 1; white-space: pre; opacity: 1;" transform="translate(191.3756111795371,0)">35</text></g><g class="xtick"><text text-anchor="middle" x="0" y="218.8262467191601" style="font-family: sans-serif; font-size: 14px; fill: rgb(0, 0, 0); fill-opacity: 1; white-space: pre; opacity: 1;" transform="translate(209.4256111795371,0)">40</text></g><g class="xtick"><text text-anchor="middle" x="0" y="218.8262467191601" style="font-family: sans-serif; font-size: 14px; fill: rgb(0, 0, 0); fill-opacity: 1; white-space: pre; opacity: 1;" transform="translate(227.4756111795371,0)">45</text></g><g class="xtick"><text text-anchor="middle" x="0" y="218.8262467191601" style="font-family: sans-serif; font-size: 14px; fill: rgb(0, 0, 0); fill-opacity: 1; white-space: pre; opacity: 1;" transform="translate(245.52561117953707,0)">50</text></g><g class="xtick"><text text-anchor="middle" x="0" y="218.8262467191601" style="font-family: sans-serif; font-size: 14px; fill: rgb(0, 0, 0); fill-opacity: 1; white-space: pre; opacity: 1;" transform="translate(263.5756111795371,0)">55</text></g><g class="xtick"><text text-anchor="middle" x="0" y="218.8262467191601" style="font-family: sans-serif; font-size: 14px; fill: rgb(0, 0, 0); fill-opacity: 1; white-space: pre; opacity: 1;" transform="translate(281.6256111795371,0)">60</text></g></g><g class="yaxislayer-above"><path class="ytick ticks crisp" d="M65.01561117953709,0h5" transform="translate(0,171.4070866141732)" style="stroke: rgb(0, 0, 0); stroke-opacity: 1; stroke-width: 1px;"/><path class="ytick ticks crisp" d="M65.01561117953709,0h5" transform="translate(0,141.78708661417323)" style="stroke: rgb(0, 0, 0); stroke-opacity: 1; stroke-width: 1px;"/><path class="ytick ticks crisp" d="M65.01561117953709,0h5" transform="translate(0,112.16708661417323)" style="stroke: rgb(0, 0, 0); stroke-opacity: 1; stroke-width: 1px;"/><path class="ytick ticks crisp" d="M65.01561117953709,0h5" transform="translate(0,82.54708661417322)" style="stroke: rgb(0, 0, 0); stroke-opacity: 1; stroke-width: 1px;"/><path class="ytick ticks crisp" d="M65.01561117953709,0h5" transform="translate(0,52.92708661417322)" style="stroke: rgb(0, 0, 0); stroke-opacity: 1; stroke-width: 1px;"/><g class="ytick"><text text-anchor="end" x="61.21561117953709" y="4.8999999999999995" transform="translate(0,201.02708661417321)" style="font-family: sans-serif; font-size: 14px; fill: rgb(0, 0, 0); fill-opacity: 1; white-space: pre; opacity: 1;">-0.4</text></g><g class="ytick"><text text-anchor="end" x="61.21561117953709" y="4.8999999999999995" style="font-family: sans-serif; font-size: 14px; fill: rgb(0, 0, 0); fill-opacity: 1; white-space: pre; opacity: 1;" transform="translate(0,171.4070866141732)">-0.3</text></g><g class="ytick"><text text-anchor="end" x="61.21561117953709" y="4.8999999999999995" style="font-family: sans-serif; font-size: 14px; fill: rgb(0, 0, 0); fill-opacity: 1; white-space: pre; opacity: 1;" transform="translate(0,141.78708661417323)">-0.2</text></g><g class="ytick"><text text-anchor="end" x="61.21561117953709" y="4.8999999999999995" style="font-family: sans-serif; font-size: 14px; fill: rgb(0, 0, 0); fill-opacity: 1; white-space: pre; opacity: 1;" transform="translate(0,112.16708661417323)">-0.1</text></g><g class="ytick"><text text-anchor="end" x="61.21561117953709" y="4.8999999999999995" style="font-family: sans-serif; font-size: 14px; fill: rgb(0, 0, 0); fill-opacity: 1; white-space: pre; opacity: 1;" transform="translate(0,82.54708661417322)">0.0</text></g><g class="ytick"><text text-anchor="end" x="61.21561117953709" y="4.8999999999999995" style="font-family: sans-serif; font-size: 14px; fill: rgb(0, 0, 0); fill-opacity: 1; white-space: pre; opacity: 1;" transform="translate(0,52.92708661417322)">0.1</text></g><g class="ytick"><text text-anchor="end" x="61.21561117953709" y="4.8999999999999995" style="font-family: sans-serif; font-size: 14px; fill: rgb(0, 0, 0); fill-opacity: 1; white-space: pre; opacity: 1;" transform="translate(0,23.307086614173222)">0.2</text></g></g><g class="overaxes-above"/></g></g><g class="polarlayer"/><g class="ternarylayer"/><g class="geolayer"/><g class="funnelarealayer"/><g class="pielayer"/><g class="iciclelayer"/><g class="treemaplayer"/><g class="sunburstlayer"/><g class="glimages"/><defs id="topdefs-038e7b"><g class="clips"/><clipPath id="legend038e7b"><rect width="134" height="90" x="1" y="1"/></clipPath></defs><g class="layer-above"><g class="imagelayer"/><g class="shapelayer"/></g><g class="infolayer"><g class="legend" pointer-events="all" transform="translate(164,20)"><rect class="bg" shape-rendering="crispEdges" width="135" height="91" x="0.5" y="0.5" style="stroke: rgb(0, 0, 0); stroke-opacity: 1; fill: rgb(255, 255, 255); fill-opacity: 1; stroke-width: 1px;"/><g class="scrollbox" transform="" clip-path="url(#legend038e7b)"><g class="groups"><g class="traces" transform="translate(1,15.950000000000001)" style="opacity: 1;"><text class="legendtext" text-anchor="start" x="40" y="5.07" style="font-family: sans-serif; font-size: 13px; fill: rgb(0, 0, 0); fill-opacity: 1; white-space: pre;">BF-SFR: 方案1</text><g class="layers" style="opacity: 1;"><g class="legendfill"/><g class="legendlines"><path class="js-line" d="M5,0h30" style="fill: none; stroke: rgb(0, 154, 250); stroke-opacity: 1; stroke-width: 2px;"/></g><g class="legendsymbols"><g class="legendpoints"/></g></g><rect class="legendtoggle" x="0" y="-9.950000000000001" width="128.40625" height="19.900000000000002" style="fill: rgb(0, 0, 0); fill-opacity: 0;"/></g><g class="traces" transform="translate(1,35.85)" style="opacity: 1;"><text class="legendtext" text-anchor="start" x="40" y="5.07" style="font-family: sans-serif; font-size: 13px; fill: rgb(0, 0, 0); fill-opacity: 1; white-space: pre;">BF-SFR: 方案 2</text><g class="layers" style="opacity: 1;"><g class="legendfill"/><g class="legendlines"><path class="js-line" d="M5,0h30" style="fill: none; stroke: rgb(227, 111, 71); stroke-opacity: 1; stroke-width: 1px;"/></g><g class="legendsymbols"><g class="legendpoints"/></g></g><rect class="legendtoggle" x="0" y="-9.950000000000001" width="128.40625" height="19.900000000000002" style="fill: rgb(0, 0, 0); fill-opacity: 0;"/></g><g class="traces" transform="translate(1,55.75000000000001)" style="opacity: 1;"><text class="legendtext" text-anchor="start" x="40" y="5.07" style="font-family: sans-serif; font-size: 13px; fill: rgb(0, 0, 0); fill-opacity: 1; white-space: pre;">仿真器: 方案 1</text><g class="layers" style="opacity: 1;"><g class="legendfill"/><g class="legendlines"><path class="js-line" d="M5,0h30" style="fill: none; stroke: rgb(62, 164, 78); stroke-opacity: 1; stroke-width: 1px;"/></g><g class="legendsymbols"><g class="legendpoints"/></g></g><rect class="legendtoggle" x="0" y="-9.950000000000001" width="128.40625" height="19.900000000000002" style="fill: rgb(0, 0, 0); fill-opacity: 0;"/></g><g class="traces" transform="translate(1,75.65)" style="opacity: 1;"><text class="legendtext" text-anchor="start" x="40" y="5.07" style="font-family: sans-serif; font-size: 13px; fill: rgb(0, 0, 0); fill-opacity: 1; white-space: pre;">仿真器: 方案 2</text><g class="layers" style="opacity: 1;"><g class="legendfill"/><g class="legendlines"><path class="js-line" d="M5,0h30" style="fill: none; stroke: rgb(195, 113, 210); stroke-opacity: 1; stroke-width: 1px;"/></g><g class="legendsymbols"><g class="legendpoints"/></g></g><rect class="legendtoggle" x="0" y="-9.950000000000001" width="128.40625" height="19.900000000000002" style="fill: rgb(0, 0, 0); fill-opacity: 0;"/></g></g></g><rect class="scrollbar" rx="20" ry="3" width="0" height="0" x="0" y="0" style="fill: rgb(128, 139, 164); fill-opacity: 1;"/></g><g class="g-gtitle"/><g class="g-xtitle" transform="translate(0,-16.0262467191601)"><text class="xtitle" x="180.54028541284913" y="262.0262467191601" text-anchor="middle" style="font-family: sans-serif; font-size: 17px; fill: rgb(0, 0, 0); opacity: 1; font-weight: normal; white-space: pre;">t / s</text></g><g class="g-ytitle"><text class="ytitle" transform="rotate(-90,21.01561117953709,112.16666666666666)" x="21.01561117953709" y="112.16666666666666" text-anchor="middle" style="font-family: sans-serif; font-size: 17px; fill: rgb(0, 0, 0); opacity: 1; font-weight: normal; white-space: pre;">Delta f(t) / Hz</text></g></g></svg>