<svg class="main-svg" xmlns="http://www.w3.org/2000/svg" xmlns:xlink="http://www.w3.org/1999/xlink" width="300.15000000000003" height="250" style=""><rect x="0" y="0" width="300.15000000000003" height="250" style="fill: rgb(255, 255, 255); fill-opacity: 1;"/><defs id="defs-51f294"><g class="clips"><clipPath id="clip51f294xyplot" class="plotclip"><rect width="208.8382318027338" height="191.71916010498688"/></clipPath><clipPath class="axesclip" id="clip51f294x"><rect x="87.22672784342738" y="0" width="208.8382318027338" height="250"/></clipPath><clipPath class="axesclip" id="clip51f294y"><rect x="0" y="23.307086614173222" width="300.15000000000003" height="191.71916010498688"/></clipPath><clipPath class="axesclip" id="clip51f294xy"><rect x="87.22672784342738" y="23.307086614173222" width="208.8382318027338" height="191.71916010498688"/></clipPath></g><g class="gradients"/><g class="patterns"/></defs><g class="bglayer"/><g class="layer-below"><g class="imagelayer"/><g class="shapelayer"/></g><g class="cartesianlayer"><g class="subplot xy"><g class="layer-subplot"><g class="shapelayer"/><g class="imagelayer"/></g><g class="gridlayer"><g class="x"><path class="xgrid crisp" transform="translate(136.9167278434274,0)" d="M0,23.307086614173222v191.71916010498688" style="stroke: rgb(0, 0, 0); stroke-opacity: 0.1; stroke-width: 0.5px;"/><path class="xgrid crisp" transform="translate(246.37672784342737,0)" d="M0,23.307086614173222v191.71916010498688" style="stroke: rgb(0, 0, 0); stroke-opacity: 0.1; stroke-width: 0.5px;"/></g><g class="y"><path class="ygrid crisp" transform="translate(0,176.6870866141732)" d="M87.22672784342738,0h208.8382318027338" style="stroke: rgb(0, 0, 0); stroke-opacity: 0.1; stroke-width: 0.5px;"/><path class="ygrid crisp" transform="translate(0,138.33708661417322)" d="M87.22672784342738,0h208.8382318027338" style="stroke: rgb(0, 0, 0); stroke-opacity: 0.1; stroke-width: 0.5px;"/><path class="ygrid crisp" transform="translate(0,99.99708661417321)" d="M87.22672784342738,0h208.8382318027338" style="stroke: rgb(0, 0, 0); stroke-opacity: 0.1; stroke-width: 0.5px;"/><path class="ygrid crisp" transform="translate(0,61.647086614173226)" d="M87.22672784342738,0h208.8382318027338" style="stroke: rgb(0, 0, 0); stroke-opacity: 0.1; stroke-width: 0.5px;"/></g></g><g class="zerolinelayer"/><path class="xlines-below"/><path class="ylines-below"/><g class="overlines-below"/><g class="xaxislayer-below"/><g class="yaxislayer-below"/><g class="overaxes-below"/><g class="plot" transform="translate(87.22672784342738,23.307086614173222)" clip-path="url(#clip51f294xyplot)"><g class="scatterlayer mlayer"><g class="trace scatter trace125d6d" style="stroke-miterlimit: 2;"><g class="fills"><g><path class="js-fill" d="M49.69,-13036.9L49.69,-13036.9L49.69,107.25L27.8,107.25L71.58,107.25L49.69,107.25L49.69,105.87L49.69,107.25" style="fill: rgb(0, 154, 250); fill-opacity: 0.5; stroke-width: 0;"/></g></g><g class="errorbars"/><g class="lines"><path class="js-line" d="M49.69,107.25L27.8,107.25L71.58,107.25L49.69,107.25L49.69,105.87L49.69,107.25" style="vector-effect: non-scaling-stroke; fill: none; stroke: rgb(0, 0, 0); stroke-opacity: 1; stroke-width: 0.25px; opacity: 1;"/></g><g class="points"/><g class="text"/></g><g class="trace scatter trace501431" style="stroke-miterlimit: 2;"><g class="fills"><g><path class="js-fill" d="M93.47,-13036.9L93.47,-13036.9L93.47,105.87L93.47,105.49L71.58,105.31L5.91,105.49L93.47,105.87L93.47,105.87" style="fill: rgb(0, 154, 250); fill-opacity: 0.5; stroke-width: 0;"/></g></g><g class="errorbars"/><g class="lines"><path class="js-line" d="M93.47,105.87L93.47,105.49L71.58,105.31L5.91,105.49L93.47,105.87L93.47,105.87" style="vector-effect: non-scaling-stroke; fill: none; stroke: rgb(0, 0, 0); stroke-opacity: 1; stroke-width: 0.25px; opacity: 1;"/></g><g class="points"/><g class="text"/></g><g class="trace scatter trace304d4c" style="stroke-miterlimit: 2;"><g class="fills"><g><path class="js-fill" d="M93.47,-13036.9L93.47,-13036.9L93.47,105.12L93.47,104.69L5.91,104.69L5.91,105.12L27.8,105.31L93.47,105.12L93.47,105.12" style="fill: rgb(0, 154, 250); fill-opacity: 0.5; stroke-width: 0;"/></g></g><g class="errorbars"/><g class="lines"><path class="js-line" d="M93.47,105.12L93.47,104.69L5.91,104.69L5.91,105.12L27.8,105.31L93.47,105.12L93.47,105.12" style="vector-effect: non-scaling-stroke; fill: none; stroke: rgb(0, 0, 0); stroke-opacity: 1; stroke-width: 0.25px; opacity: 1;"/></g><g class="points"/><g class="text"/></g><g class="trace scatter trace8738ec" style="stroke-miterlimit: 2;"><g class="fills"><g><path class="js-fill" d="M49.69,-13036.9L49.69,-13036.9L49.69,103.66L27.8,103.66L71.58,103.66L49.69,103.66L49.69,104.69L49.69,103.66" style="fill: rgb(0, 154, 250); fill-opacity: 0.5; stroke-width: 0;"/></g></g><g class="errorbars"/><g class="lines"><path class="js-line" d="M49.69,103.66L27.8,103.66L71.58,103.66L49.69,103.66L49.69,104.69L49.69,103.66" style="vector-effect: non-scaling-stroke; fill: none; stroke: rgb(0, 0, 0); stroke-opacity: 1; stroke-width: 0.25px; opacity: 1;"/></g><g class="points"/><g class="text"/></g><g class="trace scatter tracecb3b99" style="stroke-miterlimit: 2; opacity: 1;"><g class="fills"/><g class="errorbars"/><g class="lines"><path class="js-line" d="M49.69,107.25L27.8,107.25L71.58,107.25L49.69,107.25L49.69,105.87" style="vector-effect: non-scaling-stroke; fill: none; stroke: rgb(0, 154, 250); stroke-opacity: 1; stroke-width: 0px; opacity: 1;"/></g><g class="points"/><g class="text"/></g><g class="trace scatter trace14ad1b" style="stroke-miterlimit: 2; opacity: 1;"><g class="fills"/><g class="errorbars"/><g class="lines"><path class="js-line" d="M93.47,105.87L93.47,105.49L71.58,105.31L5.91,105.49L93.47,105.87L93.47,105.49" style="vector-effect: non-scaling-stroke; fill: none; stroke: rgb(0, 154, 250); stroke-opacity: 1; stroke-width: 0px; opacity: 1;"/></g><g class="points"/><g class="text"/></g><g class="trace scatter tracef4840f" style="stroke-miterlimit: 2; opacity: 1;"><g class="fills"/><g class="errorbars"/><g class="lines"><path class="js-line" d="M93.47,105.12L93.47,104.69L5.91,104.69L5.91,105.12L27.8,105.31L93.47,105.12L93.47,104.69" style="vector-effect: non-scaling-stroke; fill: none; stroke: rgb(0, 154, 250); stroke-opacity: 1; stroke-width: 0px; opacity: 1;"/></g><g class="points"/><g class="text"/></g><g class="trace scatter trace4786ac" style="stroke-miterlimit: 2; opacity: 1;"><g class="fills"/><g class="errorbars"/><g class="lines"><path class="js-line" d="M49.69,103.66L27.8,103.66L71.58,103.66L49.69,103.66L49.69,104.69" style="vector-effect: non-scaling-stroke; fill: none; stroke: rgb(0, 154, 250); stroke-opacity: 1; stroke-width: 0px; opacity: 1;"/></g><g class="points"/><g class="text"/></g><g class="trace scatter traceb1c53a" style="stroke-miterlimit: 2;"><g class="fills"><g><path class="js-fill" d="M159.15,-13036.9L159.15,-13036.9L159.15,145.29L137.26,145.29L181.04,145.29L159.15,145.29L159.15,116.86L159.15,145.29" style="fill: rgb(227, 111, 71); fill-opacity: 0.5; stroke-width: 0;"/></g></g><g class="errorbars"/><g class="lines"><path class="js-line" d="M159.15,145.29L137.26,145.29L181.04,145.29L159.15,145.29L159.15,116.86L159.15,145.29" style="vector-effect: non-scaling-stroke; fill: none; stroke: rgb(0, 0, 0); stroke-opacity: 1; stroke-width: 1px; opacity: 1;"/></g><g class="points"/><g class="text"/></g><g class="trace scatter trace9d7751" style="stroke-miterlimit: 2;"><g class="fills"><g><path class="js-fill" d="M202.93,-13036.9L202.93,-13036.9L202.93,116.86L202.93,106.94L115.36,106.94L115.36,116.86L202.93,116.86L202.93,106.94L202.93,116.86" style="fill: rgb(227, 111, 71); fill-opacity: 0.5; stroke-width: 0;"/></g></g><g class="errorbars"/><g class="lines"><path class="js-line" d="M202.93,116.86L202.93,106.94L115.36,106.94L115.36,116.86L202.93,116.86L202.93,106.94L202.93,116.86" style="vector-effect: non-scaling-stroke; fill: none; stroke: rgb(0, 0, 0); stroke-opacity: 1; stroke-width: 1px; opacity: 1;"/></g><g class="points"/><g class="text"/></g><g class="trace scatter trace9d4f6e" style="stroke-miterlimit: 2;"><g class="fills"><g><path class="js-fill" d="M202.93,-13036.9L202.93,-13036.9L202.93,93.23L115.36,93.23L115.36,106.94L202.93,106.94L202.93,93.23L159.15,93.23L202.93,93.23" style="fill: rgb(227, 111, 71); fill-opacity: 0.5; stroke-width: 0;"/></g></g><g class="errorbars"/><g class="lines"><path class="js-line" d="M202.93,93.23L115.36,93.23L115.36,106.94L202.93,106.94L202.93,93.23L159.15,93.23L202.93,93.23" style="vector-effect: non-scaling-stroke; fill: none; stroke: rgb(0, 0, 0); stroke-opacity: 1; stroke-width: 1px; opacity: 1;"/></g><g class="points"/><g class="text"/></g><g class="trace scatter traceef322c" style="stroke-miterlimit: 2;"><g class="fills"><g><path class="js-fill" d="M159.15,-13036.9L159.15,-13036.9L159.15,66.83L137.26,66.83L181.04,66.83L159.15,66.83L159.15,93.23L159.15,66.83" style="fill: rgb(227, 111, 71); fill-opacity: 0.5; stroke-width: 0;"/></g></g><g class="errorbars"/><g class="lines"><path class="js-line" d="M159.15,66.83L137.26,66.83L181.04,66.83L159.15,66.83L159.15,93.23L159.15,66.83" style="vector-effect: non-scaling-stroke; fill: none; stroke: rgb(0, 0, 0); stroke-opacity: 1; stroke-width: 1px; opacity: 1;"/></g><g class="points"/><g class="text"/></g><g class="trace scatter trace39bccc" style="stroke-miterlimit: 2; opacity: 1;"><g class="fills"/><g class="errorbars"/><g class="lines"/><g class="points"><path class="point" transform="translate(159.15,158.01)" d="M4,0A4,4 0 1,1 0,-4A4,4 0 0,1 4,0Z" style="opacity: 1; stroke-width: 1px; fill: rgb(227, 111, 71); fill-opacity: 1; stroke: rgb(0, 0, 0); stroke-opacity: 1;"/><path class="point" transform="translate(159.15,158.01)" d="M4,0A4,4 0 1,1 0,-4A4,4 0 0,1 4,0Z" style="opacity: 1; stroke-width: 1px; fill: rgb(227, 111, 71); fill-opacity: 1; stroke: rgb(0, 0, 0); stroke-opacity: 1;"/><path class="point" transform="translate(159.15,57.48)" d="M4,0A4,4 0 1,1 0,-4A4,4 0 0,1 4,0Z" style="opacity: 1; stroke-width: 1px; fill: rgb(227, 111, 71); fill-opacity: 1; stroke: rgb(0, 0, 0); stroke-opacity: 1;"/><path class="point" transform="translate(159.15,158.01)" d="M4,0A4,4 0 1,1 0,-4A4,4 0 0,1 4,0Z" style="opacity: 1; stroke-width: 1px; fill: rgb(227, 111, 71); fill-opacity: 1; stroke: rgb(0, 0, 0); stroke-opacity: 1;"/><path class="point" transform="translate(159.15,57.48)" d="M4,0A4,4 0 1,1 0,-4A4,4 0 0,1 4,0Z" style="opacity: 1; stroke-width: 1px; fill: rgb(227, 111, 71); fill-opacity: 1; stroke: rgb(0, 0, 0); stroke-opacity: 1;"/></g><g class="text"/></g><g class="trace scatter tracec2da62" style="stroke-miterlimit: 2; opacity: 1;"><g class="fills"/><g class="errorbars"/><g class="lines"><path class="js-line" d="M159.15,145.29L137.26,145.29L181.04,145.29L159.15,145.29L159.15,116.86" style="vector-effect: non-scaling-stroke; fill: none; stroke: rgb(227, 111, 71); stroke-opacity: 1; stroke-width: 0px; opacity: 1;"/></g><g class="points"/><g class="text"/></g><g class="trace scatter traceff71ca" style="stroke-miterlimit: 2; opacity: 1;"><g class="fills"/><g class="errorbars"/><g class="lines"><path class="js-line" d="M202.93,116.86L202.93,106.94L115.36,106.94L115.36,116.86L202.93,116.86L202.93,106.94" style="vector-effect: non-scaling-stroke; fill: none; stroke: rgb(227, 111, 71); stroke-opacity: 1; stroke-width: 0px; opacity: 1;"/></g><g class="points"/><g class="text"/></g><g class="trace scatter trace7b2557" style="stroke-miterlimit: 2; opacity: 1;"><g class="fills"/><g class="errorbars"/><g class="lines"><path class="js-line" d="M202.93,93.23L115.36,93.23L115.36,106.94L202.93,106.94L202.93,93.23L159.15,93.23" style="vector-effect: non-scaling-stroke; fill: none; stroke: rgb(227, 111, 71); stroke-opacity: 1; stroke-width: 0px; opacity: 1;"/></g><g class="points"/><g class="text"/></g><g class="trace scatter trace552fde" style="stroke-miterlimit: 2; opacity: 1;"><g class="fills"/><g class="errorbars"/><g class="lines"><path class="js-line" d="M159.15,66.83L137.26,66.83L181.04,66.83L159.15,66.83L159.15,93.23" style="vector-effect: non-scaling-stroke; fill: none; stroke: rgb(227, 111, 71); stroke-opacity: 1; stroke-width: 0px; opacity: 1;"/></g><g class="points"/><g class="text"/></g></g></g><g class="overplot"/><path class="xlines-above crisp" d="M86.22672784342738,215.5262467191601H296.0649596461612" style="fill: none; stroke-width: 1px; stroke: rgb(0, 0, 0); stroke-opacity: 1;"/><path class="ylines-above crisp" d="M86.72672784342738,23.307086614173222V215.0262467191601" style="fill: none; stroke-width: 1px; stroke: rgb(0, 0, 0); stroke-opacity: 1;"/><g class="overlines-above"/><g class="xaxislayer-above"><path class="xtick ticks crisp" d="M0,215.0262467191601v-5" transform="translate(136.9167278434274,0)" style="stroke: rgb(0, 0, 0); stroke-opacity: 1; stroke-width: 1px;"/><path class="xtick ticks crisp" d="M0,215.0262467191601v-5" transform="translate(246.37672784342737,0)" style="stroke: rgb(0, 0, 0); stroke-opacity: 1; stroke-width: 1px;"/><g class="xtick"><text text-anchor="middle" x="0" y="232.8262467191601" transform="translate(136.9167278434274,0)" style="font-family: sans-serif; font-size: 14px; fill: rgb(0, 0, 0); fill-opacity: 1; white-space: pre; opacity: 1;">方案 1</text></g><g class="xtick"><text text-anchor="middle" x="0" y="232.8262467191601" style="font-family: sans-serif; font-size: 14px; fill: rgb(0, 0, 0); fill-opacity: 1; white-space: pre; opacity: 1;" transform="translate(246.37672784342737,0)">方案 2</text></g></g><g class="yaxislayer-above"><path class="ytick ticks crisp" d="M87.22672784342738,0h5" transform="translate(0,176.6870866141732)" style="stroke: rgb(0, 0, 0); stroke-opacity: 1; stroke-width: 1px;"/><path class="ytick ticks crisp" d="M87.22672784342738,0h5" transform="translate(0,138.33708661417322)" style="stroke: rgb(0, 0, 0); stroke-opacity: 1; stroke-width: 1px;"/><path class="ytick ticks crisp" d="M87.22672784342738,0h5" transform="translate(0,99.99708661417321)" style="stroke: rgb(0, 0, 0); stroke-opacity: 1; stroke-width: 1px;"/><path class="ytick ticks crisp" d="M87.22672784342738,0h5" transform="translate(0,61.647086614173226)" style="stroke: rgb(0, 0, 0); stroke-opacity: 1; stroke-width: 1px;"/><g class="ytick"><text text-anchor="end" x="83.42672784342739" y="4.8999999999999995" transform="translate(0,176.6870866141732)" style="font-family: sans-serif; font-size: 14px; fill: rgb(0, 0, 0); fill-opacity: 1; white-space: pre; opacity: 1;">-0.344</text></g><g class="ytick"><text text-anchor="end" x="83.42672784342739" y="4.8999999999999995" style="font-family: sans-serif; font-size: 14px; fill: rgb(0, 0, 0); fill-opacity: 1; white-space: pre; opacity: 1;" transform="translate(0,138.33708661417322)">-0.343</text></g><g class="ytick"><text text-anchor="end" x="83.42672784342739" y="4.8999999999999995" style="font-family: sans-serif; font-size: 14px; fill: rgb(0, 0, 0); fill-opacity: 1; white-space: pre; opacity: 1;" transform="translate(0,99.99708661417321)">-0.342</text></g><g class="ytick"><text text-anchor="end" x="83.42672784342739" y="4.8999999999999995" style="font-family: sans-serif; font-size: 14px; fill: rgb(0, 0, 0); fill-opacity: 1; white-space: pre; opacity: 1;" transform="translate(0,61.647086614173226)">-0.341</text></g><g class="ytick"><text text-anchor="end" x="83.42672784342739" y="4.8999999999999995" style="font-family: sans-serif; font-size: 14px; fill: rgb(0, 0, 0); fill-opacity: 1; white-space: pre; opacity: 1;" transform="translate(0,23.307086614173222)">-0.340</text></g></g><g class="overaxes-above"/></g></g><g class="polarlayer"/><g class="ternarylayer"/><g class="geolayer"/><g class="funnelarealayer"/><g class="pielayer"/><g class="iciclelayer"/><g class="treemaplayer"/><g class="sunburstlayer"/><g class="glimages"/><defs id="topdefs-51f294"><g class="clips"/><clipPath id="legend51f294"><rect width="130" height="50" x="1" y="1"/></clipPath></defs><g class="layer-above"><g class="imagelayer"/><g class="shapelayer"/></g><g class="infolayer"><g class="legend" pointer-events="all" transform="translate(168,20)"><rect class="bg" shape-rendering="crispEdges" width="131" height="51" x="0.5" y="0.5" style="stroke: rgb(0, 0, 0); stroke-opacity: 1; fill: rgb(255, 255, 255); fill-opacity: 1; stroke-width: 1px;"/><g class="scrollbox" transform="" clip-path="url(#legend51f294)"><g class="groups"><g class="traces" transform="translate(1,15.950000000000001)" style="opacity: 1;"><text class="legendtext" text-anchor="start" x="40" y="5.07" style="font-family: sans-serif; font-size: 13px; fill: rgb(0, 0, 0); fill-opacity: 1; white-space: pre;">BF-SFR: 方案1</text><g class="layers"><g class="legendfill"><path class="js-fill" d="M5,-2h30v6h-30z" style="stroke-width: 0; fill: rgb(0, 154, 250); fill-opacity: 0.5;"/></g><g class="legendlines"><path class="js-line" d="M5,-2h30" style="fill: none; stroke: rgb(0, 0, 0); stroke-opacity: 1; stroke-width: 0.25px;"/></g><g class="legendsymbols"><g class="legendpoints"/></g></g><rect class="legendtoggle" x="0" y="-9.950000000000001" width="124.55859375" height="19.900000000000002" style="fill: rgb(0, 0, 0); fill-opacity: 0;"/></g><g class="traces" transform="translate(1,35.85)" style="opacity: 1;"><text class="legendtext" text-anchor="start" x="40" y="5.07" style="font-family: sans-serif; font-size: 13px; fill: rgb(0, 0, 0); fill-opacity: 1; white-space: pre;">BF-SFR: 方案2</text><g class="layers"><g class="legendfill"><path class="js-fill" d="M5,-2h30v6h-30z" style="stroke-width: 0; fill: rgb(227, 111, 71); fill-opacity: 0.5;"/></g><g class="legendlines"><path class="js-line" d="M5,-2h30" style="fill: none; stroke: rgb(0, 0, 0); stroke-opacity: 1; stroke-width: 1px;"/></g><g class="legendsymbols"><g class="legendpoints"/></g></g><rect class="legendtoggle" x="0" y="-9.950000000000001" width="124.55859375" height="19.900000000000002" style="fill: rgb(0, 0, 0); fill-opacity: 0;"/></g></g></g><rect class="scrollbar" rx="20" ry="3" width="0" height="0" x="0" y="0" style="fill: rgb(128, 139, 164); fill-opacity: 1;"/></g><g class="g-gtitle"/><g class="g-xtitle"/><g class="g-ytitle" transform="translate(-8.0810546875,0)"><text class="ytitle" transform="rotate(-90,43.22672784342738,119.16666666666666)" x="43.22672784342738" y="119.16666666666666" text-anchor="middle" style="font-family: sans-serif; font-size: 17px; fill: rgb(0, 0, 0); opacity: 1; font-weight: normal; white-space: pre;">Delta f(t) / Hz</text></g></g></svg>